<svg width="189" height="167" viewBox="0 0 189 167" fill="none" xmlns="http://www.w3.org/2000/svg">
<path d="M83.3784 149.288C87.6621 152.488 88.9577 158.006 88.9577 158.006C88.9577 158.006 83.3083 158.331 79.0245 155.13C74.74 151.93 73.4438 146.416 73.4438 146.416C73.4438 146.416 79.0923 146.087 83.3784 149.288Z" fill="url(#paint0_linear)"/>
<path d="M78.6165 158.147C83.5964 156.195 88.9576 158.005 88.9576 158.005C88.9576 158.005 86.2435 162.979 81.2613 164.934C76.2814 166.886 70.9195 165.077 70.9195 165.077C70.9195 165.077 73.6343 160.101 78.6165 158.147Z" fill="url(#paint1_linear)"/>
<path d="M66.936 145.349C70.7402 149.11 71.2651 154.752 71.2651 154.752C71.2651 154.752 65.6247 154.297 61.822 150.536C58.0194 146.776 57.4929 141.132 57.4929 141.132C57.4929 141.132 63.1333 141.587 66.936 145.349Z" fill="url(#paint2_linear)"/>
<path d="M61.0032 153.468C66.2045 152.221 71.2649 154.752 71.2649 154.752C71.2649 154.752 67.8932 159.307 62.6912 160.554C57.49 161.803 52.4304 159.271 52.4304 159.271C52.4304 159.271 55.802 154.716 61.0032 153.468Z" fill="url(#paint3_linear)"/>
<path d="M53.901 139.329C57.0605 143.646 56.6862 149.302 56.6862 149.302C56.6862 149.302 51.1916 147.96 48.0313 143.642C44.8711 139.325 45.243 133.669 45.243 133.669C45.243 133.669 50.7407 135.011 53.901 139.329Z" fill="url(#paint4_linear)"/>
<path d="M46.7595 146.408C52.0916 146.001 56.6871 149.303 56.6871 149.303C56.6871 149.303 52.6384 153.266 47.3055 153.674C41.9733 154.082 37.3778 150.78 37.3778 150.78C37.3778 150.78 41.4273 146.816 46.7595 146.408Z" fill="url(#paint5_linear)"/>
<path d="M41.5955 129.905C43.6135 134.861 41.8816 140.26 41.8816 140.26C41.8816 140.26 36.8762 137.62 34.8582 132.663C32.8386 127.705 34.5698 122.308 34.5698 122.308C34.5698 122.308 39.5759 124.947 41.5955 129.905Z" fill="url(#paint6_linear)"/>
<path d="M32.954 135.036C38.2244 135.937 41.882 140.259 41.882 140.259C41.882 140.259 36.9937 143.121 31.7234 142.221C26.4522 141.32 22.7969 136.998 22.7969 136.998C22.7969 136.998 27.6836 134.136 32.954 135.036Z" fill="url(#paint7_linear)"/>
<path d="M32.1629 118.82C32.9616 124.114 30.0102 128.954 30.0102 128.954C30.0102 128.954 25.7664 125.21 24.9692 119.915C24.1705 114.62 27.1211 109.781 27.1211 109.781C27.1211 109.781 31.3657 113.525 32.1629 118.82Z" fill="url(#paint8_linear)"/>
<path d="M22.5611 121.776C27.4714 123.893 30.0102 128.955 30.0102 128.955C30.0102 128.955 24.5895 130.587 19.6792 128.47C14.7705 126.355 12.2302 121.292 12.2302 121.292C12.2302 121.292 17.6523 119.66 22.5611 121.776Z" fill="url(#paint9_linear)"/>
<path d="M23.9617 104.742C23.6922 110.091 19.8403 114.248 19.8403 114.248C19.8403 114.248 16.4252 109.732 16.6947 104.383C16.9643 99.0334 20.8147 94.8769 20.8147 94.8769C20.8147 94.8769 24.2312 99.3921 23.9617 104.742Z" fill="url(#paint10_linear)"/>
<path d="M13.9668 105.727C18.3582 108.779 19.8403 114.248 19.8403 114.248C19.8403 114.248 14.205 114.768 9.81359 111.716C5.4237 108.663 3.94086 103.195 3.94086 103.195C3.94086 103.195 9.57695 102.676 13.9668 105.727Z" fill="url(#paint11_linear)"/>
<path d="M19.5212 91.2032C18.4101 96.4432 13.9505 99.9386 13.9505 99.9386C13.9505 99.9386 11.2927 94.937 12.4038 89.6969C13.5165 84.4576 17.9738 80.9623 17.9738 80.9623C17.9738 80.9623 20.6323 85.9632 19.5212 91.2032Z" fill="url(#paint12_linear)"/>
<path d="M9.49825 90.5927C13.3509 94.3029 13.9504 99.9389 13.9504 99.9389C13.9504 99.9389 8.30474 99.5594 4.45212 95.8492C0.600266 92.1389 0 86.5029 0 86.5029C0 86.5029 5.6464 86.8824 9.49825 90.5927Z" fill="url(#paint13_linear)"/>
<path d="M18.5853 75.9794C16.239 80.7939 11.0657 83.1013 11.0657 83.1013C11.0657 83.1013 9.70139 77.6028 12.0469 72.7876C14.3947 67.973 19.5656 65.6648 19.5656 65.6648C19.5656 65.6648 20.9331 71.1648 18.5853 75.9794Z" fill="url(#paint14_linear)"/>
<path d="M9.01469 72.9496C11.8507 77.4862 11.0664 83.1004 11.0664 83.1004C11.0664 83.1004 5.68434 81.3591 2.84681 76.8226C0.00927647 72.2861 0.793537 66.6719 0.793537 66.6719C0.793537 66.6719 6.17716 68.4131 9.01469 72.9496Z" fill="url(#paint15_linear)"/>
<path d="M20.7488 60.5064C17.3384 64.6345 11.7707 65.6616 11.7707 65.6616C11.7707 65.6616 11.7345 59.9938 15.1463 55.8648C18.5567 51.7367 24.1237 50.7105 24.1237 50.7105C24.1237 50.7105 24.1615 56.3782 20.7488 60.5064Z" fill="url(#paint16_linear)"/>
<path d="M12.1577 55.3087C13.8505 60.3872 11.7715 65.6618 11.7715 65.6618C11.7715 65.6618 6.94825 62.7011 5.25618 57.6217C3.56416 52.544 5.64321 47.2702 5.64321 47.2702C5.64321 47.2702 10.4656 50.2302 12.1577 55.3087Z" fill="url(#paint17_linear)"/>
<path d="M25.8052 47.674C21.5447 50.9162 15.8933 50.6444 15.8933 50.6444C15.8933 50.6444 17.1468 45.1163 21.4066 41.8741C25.6664 38.6319 31.3185 38.9037 31.3185 38.9037C31.3185 38.9037 30.0643 44.4326 25.8052 47.674Z" fill="url(#paint18_linear)"/>
<path d="M18.6244 40.6517C19.116 45.9838 15.8928 50.6454 15.8928 50.6454C15.8928 50.6454 11.8708 46.6624 11.38 41.3295C10.8884 35.9974 14.1123 31.335 14.1123 31.335C14.1123 31.335 18.1328 35.3188 18.6244 40.6517Z" fill="url(#paint19_linear)"/>
<path d="M32.269 36C27.5517 38.5273 22.0143 37.3634 22.0143 37.3634C22.0143 37.3634 24.1262 32.1026 28.8428 29.5761C33.5617 27.0487 39.0975 28.2119 39.0975 28.2119C39.0975 28.2119 36.9864 33.4734 32.269 36Z" fill="url(#paint20_linear)"/>
<path d="M26.2908 27.9257C25.934 33.2695 22.0144 37.3624 22.0144 37.3624C22.0144 37.3624 18.6746 32.7905 19.0314 27.4467C19.389 22.1021 23.3086 18.0092 23.3086 18.0092C23.3086 18.0092 26.6491 22.5811 26.2908 27.9257Z" fill="url(#paint21_linear)"/>
<path d="M112.342 147.58C108.276 151.066 107.347 156.657 107.347 156.657C107.347 156.657 113.006 156.598 117.069 153.114C121.134 149.629 122.064 144.037 122.064 144.037C122.064 144.037 116.406 144.095 112.342 147.58Z" fill="url(#paint22_linear)"/>
<path d="M117.676 156.096C112.578 154.487 107.347 156.657 107.347 156.657C107.347 156.657 110.383 161.437 115.481 163.047C120.579 164.656 125.809 162.486 125.809 162.486C125.809 162.486 122.774 157.705 117.676 156.096Z" fill="url(#paint23_linear)"/>
<path d="M126.448 143.32C122.9 147.332 122.746 152.998 122.746 152.998C122.746 152.998 128.345 152.16 131.891 148.148C135.438 144.137 135.591 138.47 135.591 138.47C135.591 138.47 129.995 139.308 126.448 143.32Z" fill="url(#paint24_linear)"/>
<path d="M132.901 151.017C127.63 150.127 122.747 152.997 122.747 152.997C122.747 152.997 126.412 157.311 131.683 158.202C136.956 159.094 141.838 156.223 141.838 156.223C141.838 156.223 138.174 151.907 132.901 151.017Z" fill="url(#paint25_linear)"/>
<path d="M139.02 135.885C136.152 140.407 136.896 146.026 136.896 146.026C136.896 146.026 142.29 144.31 145.16 139.787C148.029 135.266 147.286 129.648 147.286 129.648C147.286 129.648 141.89 131.362 139.02 135.885Z" fill="url(#paint26_linear)"/>
<path d="M146.611 142.461C141.263 142.418 136.895 146.026 136.895 146.026C136.895 146.026 141.196 149.705 146.544 149.748C151.891 149.792 156.259 146.183 156.259 146.183C156.259 146.183 151.958 142.505 146.611 142.461Z" fill="url(#paint27_linear)"/>
<path d="M150.276 125.914C148.587 130.998 150.671 136.266 150.671 136.266C150.671 136.266 155.491 133.291 157.18 128.208C158.868 123.123 156.784 117.856 156.784 117.856C156.784 117.856 151.964 120.831 150.276 125.914Z" fill="url(#paint28_linear)"/>
<path d="M159.235 130.447C154.036 131.705 150.672 136.266 150.672 136.266C150.672 136.266 155.735 138.789 160.935 137.531C166.135 136.274 169.5 131.713 169.5 131.713C169.5 131.713 164.435 129.19 159.235 130.447Z" fill="url(#paint29_linear)"/>
<path d="M159.428 113.435C158.981 118.773 162.243 123.402 162.243 123.402C162.243 123.402 166.231 119.376 166.68 114.039C167.127 108.701 163.866 104.072 163.866 104.072C163.866 104.072 159.878 108.099 159.428 113.435Z" fill="url(#paint30_linear)"/>
<path d="M169.203 115.731C164.444 118.177 162.243 123.402 162.243 123.402C162.243 123.402 167.76 124.66 172.519 122.214C177.28 119.768 179.479 114.545 179.479 114.545C179.479 114.545 173.962 113.286 169.203 115.731Z" fill="url(#paint31_linear)"/>
<path d="M165.836 99.6389C166.456 104.958 170.573 108.844 170.573 108.844C170.573 108.844 173.683 104.104 173.063 98.7867C172.442 93.4668 168.325 89.5812 168.325 89.5812C168.325 89.5812 165.216 94.3197 165.836 99.6389Z" fill="url(#paint32_linear)"/>
<path d="M175.872 99.9416C171.692 103.286 170.572 108.843 170.572 108.843C170.572 108.843 176.229 108.977 180.41 105.632C184.589 102.289 185.709 96.7313 185.709 96.7313C185.709 96.7313 180.052 96.597 175.872 99.9416Z" fill="url(#paint33_linear)"/>
<path d="M169.375 85.8041C170.828 90.9567 175.507 94.1405 175.507 94.1405C175.507 94.1405 177.831 88.969 176.378 83.8164C174.923 78.6638 170.245 75.48 170.245 75.48C170.245 75.48 167.922 80.6507 169.375 85.8041Z" fill="url(#paint34_linear)"/>
<path d="M179.335 84.5119C175.735 88.4762 175.506 94.1397 175.506 94.1397C175.506 94.1397 181.115 93.3756 184.715 89.4113C188.314 85.447 188.543 79.7836 188.543 79.7836C188.543 79.7836 182.934 80.5476 179.335 84.5119Z" fill="url(#paint35_linear)"/>
<path d="M169.252 71.0595C171.911 75.7033 177.222 77.6533 177.222 77.6533C177.222 77.6533 178.225 72.0741 175.565 67.4295C172.906 62.7849 167.594 60.8357 167.594 60.8357C167.594 60.8357 166.593 66.4156 169.252 71.0595Z" fill="url(#paint36_linear)"/>
<path d="M178.603 67.3857C176.071 72.1053 177.222 77.6535 177.222 77.6535C177.222 77.6535 182.479 75.5496 185.011 70.8299C187.544 66.1103 186.393 60.5621 186.393 60.5621C186.393 60.5621 181.136 62.6661 178.603 67.3857Z" fill="url(#paint37_linear)"/>
<path d="M165.948 55.7641C169.623 59.6507 175.244 60.2962 175.244 60.2962C175.244 60.2962 174.909 54.6379 171.234 50.7513C167.56 46.8648 161.938 46.2192 161.938 46.2192C161.938 46.2192 162.273 51.8776 165.948 55.7641Z" fill="url(#paint38_linear)"/>
<path d="M174.178 49.9926C172.824 55.175 175.244 60.2962 175.244 60.2962C175.244 60.2962 179.862 57.0128 181.216 51.8304C182.57 46.6488 180.149 41.5284 180.149 41.5284C180.149 41.5284 175.532 44.8094 174.178 49.9926Z" fill="url(#paint39_linear)"/>
<path d="M160.223 43.5146C164.686 46.4602 170.307 45.804 170.307 45.804C170.307 45.804 168.694 40.3736 164.23 37.4281C159.767 34.4833 154.146 35.1395 154.146 35.1395C154.146 35.1395 155.759 40.5706 160.223 43.5146Z" fill="url(#paint40_linear)"/>
<path d="M166.925 36.0178C166.785 41.3715 170.307 45.8038 170.307 45.8038C170.307 45.8038 174.058 41.555 174.198 36.2006C174.338 30.8462 170.815 26.4146 170.815 26.4146C170.815 26.4146 167.064 30.6642 166.925 36.0178Z" fill="url(#paint41_linear)"/>
<path d="M152.609 32.4054C157.482 34.6057 162.931 33.0672 162.931 33.0672C162.931 33.0672 160.478 27.962 155.605 25.7617C150.731 23.5622 145.284 25.1006 145.284 25.1006C145.284 25.1006 147.736 30.2058 152.609 32.4054Z" fill="url(#paint42_linear)"/>
<path d="M158.043 23.9429C158.751 29.2504 162.931 33.0672 162.931 33.0672C162.931 33.0672 165.963 28.2779 165.254 22.9705C164.547 17.6622 160.367 13.8462 160.367 13.8462C160.367 13.8462 157.335 18.6347 158.043 23.9429Z" fill="url(#paint43_linear)"/>
<path d="M148.215 16.2065C148.006 16.4427 147.766 16.6784 147.485 16.9124C147.404 16.9803 147.321 17.0271 147.237 17.0865C164.475 31.0388 175.718 51.6986 176.487 75.0452C177.926 118.769 142.088 155.602 96.5971 157.153C51.1058 158.704 12.9267 124.395 11.4875 80.6711C10.7531 58.3599 19.7291 37.8455 34.7372 22.8949C34.2924 22.779 33.8431 22.6186 33.389 22.4081C18.3761 37.5644 9.42019 58.2421 10.1599 80.7163C11.6222 125.143 50.4163 160.005 96.6391 158.429C142.861 156.853 179.277 119.426 177.814 74.9999C177.035 51.3336 165.661 30.3832 148.215 16.2065Z" fill="url(#paint44_linear)"/>
<path d="M43.0404 25.5048C37.8518 26.8092 32.764 24.3345 32.764 24.3345C32.764 24.3345 36.0858 19.7426 41.2728 18.4374C46.4614 17.1322 51.5492 19.6076 51.5492 19.6076C51.5492 19.6076 48.2274 24.1996 43.0404 25.5048Z" fill="url(#paint45_linear)"/>
<path d="M39.1969 16.2169C37.5561 21.3157 32.764 24.3344 32.764 24.3344C32.764 24.3344 30.6316 19.0865 32.2723 13.9869C33.9138 8.88809 38.7068 5.87016 38.7068 5.87016C38.7068 5.87016 40.8384 11.1173 39.1969 16.2169Z" fill="url(#paint46_linear)"/>
<path d="M141.726 22.14C146.988 23.0881 151.902 20.2724 151.902 20.2724C151.902 20.2724 148.284 15.9171 143.023 14.9682C137.762 14.0192 132.847 16.8357 132.847 16.8357C132.847 16.8357 136.465 21.1911 141.726 22.14Z" fill="url(#paint47_linear)"/>
<path d="M144.949 12.6114C146.923 17.5869 151.902 20.2724 151.902 20.2724C151.902 20.2724 153.683 14.8911 151.712 9.91468C149.738 4.93912 144.757 2.25443 144.757 2.25443C144.757 2.25443 142.975 7.63502 144.949 12.6114Z" fill="url(#paint48_linear)"/>
<path d="M74.596 51.57H71.274V53.99H80.844V51.57H77.192V49.7H81.592V47.324H77.192V45.366H74.596V47.324H70.46V49.7H74.596V51.57ZM69.778 56.014L67.952 56.432V52.142H69.844V49.656H67.952V45.388H65.466V49.656H64.586C64.696 48.886 64.784 48.138 64.85 47.368L62.87 47.06C62.672 49.744 62.254 52.582 61.55 54.364C62.034 54.518 62.958 54.87 63.398 55.068C63.706 54.276 63.97 53.242 64.19 52.142H65.466V56.982C64.146 57.246 62.892 57.51 61.924 57.686L62.562 60.348L65.466 59.6V65.914H67.952V58.984L70.064 58.434L69.778 56.014ZM71.384 59.644C72.33 60.7 73.43 62.174 73.892 63.098L75.96 61.756C75.432 60.832 74.266 59.424 73.32 58.456L71.384 59.644ZM82.076 55.992H79.964V54.452H77.368V55.992H70.372V58.39H77.368V62.922C77.368 63.208 77.28 63.296 76.95 63.296C76.598 63.296 75.41 63.296 74.376 63.252C74.706 64 75.058 65.078 75.168 65.848C76.774 65.848 78.006 65.782 78.842 65.386C79.722 64.968 79.964 64.286 79.964 62.988V58.39H82.076V55.992ZM87.268 48.688H91.404V51.702H87.268V48.688ZM89.512 55.838C89.556 55.244 89.6 54.628 89.644 54.034H93.934V46.378H84.892V54.034H87.092C86.916 57.686 86.476 61.646 83.594 64.022C84.21 64.462 84.958 65.276 85.332 65.936C87.664 63.956 88.698 61.14 89.204 58.126H91.646C91.492 61.602 91.294 63.01 90.964 63.384C90.766 63.626 90.568 63.67 90.238 63.67C89.842 63.67 88.962 63.67 88.082 63.56C88.456 64.198 88.72 65.144 88.742 65.826C89.798 65.87 90.81 65.848 91.404 65.76C92.108 65.672 92.614 65.474 93.054 64.946C93.67 64.198 93.89 62.086 94.11 56.784C94.11 56.476 94.132 55.838 94.132 55.838H89.512ZM98.136 48.028H95.584V60.414H98.136V48.028ZM100.754 45.806V62.746C100.754 63.142 100.578 63.274 100.16 63.274C99.698 63.274 98.29 63.274 96.86 63.23C97.256 63.956 97.652 65.166 97.762 65.936C99.764 65.936 101.238 65.848 102.14 65.43C103.042 65.012 103.35 64.286 103.35 62.746V45.806H100.754ZM110.61 53.902V57.95H112.986V45.41H110.61V48.688H108.96V45.916H106.782V50.668H110.61V51.878H105.924V53.902H107.156C107.134 54.716 106.892 56.256 105.704 57.18C106.298 57.422 107.244 57.95 107.684 58.302C109.136 57.092 109.444 54.936 109.444 53.902H110.61ZM116.418 52.318C118.068 52.01 119.608 51.57 120.994 50.954V52.318H116.418ZM122.38 47.874C121.918 48.358 121.346 48.776 120.708 49.15C120.29 48.732 119.806 48.27 119.322 47.874H122.38ZM126.252 61.448V59.292H122.6L123.106 58.786C122.71 58.368 122.05 57.862 121.39 57.422C121.852 57.378 122.248 57.312 122.556 57.18C123.282 56.872 123.48 56.41 123.48 55.376V54.012H125.966V52.318H123.48V50.91H121.082C122.952 50.052 124.492 48.842 125.46 47.082L124.118 46.4L123.7 46.466H120.642C120.972 46.224 121.28 45.982 121.588 45.718L119.432 45.278C118.288 46.136 116.308 46.906 113.668 47.434C114.086 47.742 114.68 48.446 114.944 48.908C115.802 48.666 116.616 48.402 117.32 48.138C117.98 48.666 118.662 49.304 119.146 49.854C117.518 50.492 115.626 50.888 113.646 51.086C113.932 51.394 114.284 51.878 114.504 52.318H113.646V54.012H115.824L114.922 54.694C115.736 55.222 116.66 56.058 117.078 56.63L118.794 55.332C118.486 54.914 117.914 54.452 117.342 54.012H120.994V55.288C120.994 55.508 120.928 55.574 120.686 55.596C120.444 55.596 119.63 55.596 118.926 55.552C119.19 56.124 119.476 56.85 119.564 57.444H120.4L119.608 58.192C120.07 58.5 120.598 58.896 121.06 59.292H117.232C117.254 59.116 117.254 58.962 117.254 58.786V57.246H114.658V58.698C114.658 58.896 114.636 59.094 114.614 59.292H105.792V61.448H113.14C111.886 62.438 109.642 63.34 105.682 63.934C106.166 64.506 106.826 65.43 107.134 66.046C112.986 65.1 115.56 63.296 116.594 61.448H117.254L116.572 62.548C119.322 63.494 123.238 64.99 125.152 65.936L126.34 63.89C124.778 63.208 122.116 62.24 119.762 61.448H126.252ZM117.628 48.886C116.352 48.974 115.274 49.062 114.35 49.128L114.57 50.448C115.56 50.338 116.572 50.228 117.65 50.118L117.628 48.886Z" fill="#5B5555"/>
<path d="M81.1856 8.78C81.1856 9.28667 81.0856 9.77333 80.8856 10.24C80.6856 10.7067 80.4256 11.16 80.1056 11.6C79.7856 12.0267 79.4256 12.44 79.0256 12.84C78.6256 13.24 78.2323 13.62 77.8456 13.98C77.6456 14.1667 77.4256 14.38 77.1856 14.62C76.959 14.8467 76.739 15.08 76.5256 15.32C76.3123 15.56 76.119 15.7867 75.9456 16C75.7856 16.2 75.6856 16.3667 75.6456 16.5H81.6056V19H72.3656C72.339 18.8533 72.3256 18.6667 72.3256 18.44C72.3256 18.2133 72.3256 18.0533 72.3256 17.96C72.3256 17.32 72.4256 16.7333 72.6256 16.2C72.839 15.6667 73.1123 15.1733 73.4456 14.72C73.779 14.2533 74.1523 13.82 74.5656 13.42C74.9923 13.02 75.4123 12.62 75.8256 12.22C76.1456 11.9133 76.4456 11.6267 76.7256 11.36C77.0056 11.08 77.2523 10.8133 77.4656 10.56C77.679 10.2933 77.8456 10.0333 77.9656 9.78C78.0856 9.51333 78.1456 9.24667 78.1456 8.98C78.1456 8.39333 77.979 7.98 77.6456 7.74C77.3123 7.5 76.899 7.38 76.4056 7.38C76.0456 7.38 75.7056 7.44 75.3856 7.56C75.079 7.66667 74.7923 7.8 74.5256 7.96C74.2723 8.10667 74.0523 8.26 73.8656 8.42C73.679 8.56667 73.539 8.68667 73.4456 8.78L71.9656 6.7C72.5523 6.15333 73.2323 5.70667 74.0056 5.36C74.7923 5 75.6323 4.82 76.5256 4.82C77.339 4.82 78.039 4.91333 78.6256 5.1C79.2123 5.28667 79.6923 5.55333 80.0656 5.9C80.4523 6.23333 80.7323 6.64667 80.9056 7.14C81.0923 7.62 81.1856 8.16667 81.1856 8.78ZM93.3128 12.04C93.3128 14.3733 92.8661 16.1667 91.9728 17.42C91.0928 18.66 89.8728 19.28 88.3128 19.28C86.7528 19.28 85.5261 18.66 84.6328 17.42C83.7528 16.1667 83.3128 14.3733 83.3128 12.04C83.3128 10.88 83.4261 9.85333 83.6528 8.96C83.8928 8.06667 84.2328 7.31333 84.6728 6.7C85.1128 6.08667 85.6395 5.62 86.2528 5.3C86.8661 4.98 87.5528 4.82 88.3128 4.82C89.8728 4.82 91.0928 5.44667 91.9728 6.7C92.8661 7.94 93.3128 9.72 93.3128 12.04ZM90.2728 12.04C90.2728 11.3467 90.2395 10.72 90.1728 10.16C90.1061 9.58667 89.9995 9.09333 89.8528 8.68C89.7061 8.26667 89.5061 7.94667 89.2528 7.72C88.9995 7.49333 88.6861 7.38 88.3128 7.38C87.9395 7.38 87.6261 7.49333 87.3728 7.72C87.1328 7.94667 86.9328 8.26667 86.7728 8.68C86.6261 9.09333 86.5195 9.58667 86.4528 10.16C86.3861 10.72 86.3528 11.3467 86.3528 12.04C86.3528 12.7333 86.3861 13.3667 86.4528 13.94C86.5195 14.5133 86.6261 15.0067 86.7728 15.42C86.9328 15.8333 87.1328 16.1533 87.3728 16.38C87.6261 16.6067 87.9395 16.72 88.3128 16.72C88.6861 16.72 88.9995 16.6067 89.2528 16.38C89.5061 16.1533 89.7061 15.8333 89.8528 15.42C89.9995 15.0067 90.1061 14.5133 90.1728 13.94C90.2395 13.3667 90.2728 12.7333 90.2728 12.04ZM103.92 8.78C103.92 9.28667 103.82 9.77333 103.62 10.24C103.42 10.7067 103.16 11.16 102.84 11.6C102.52 12.0267 102.16 12.44 101.76 12.84C101.36 13.24 100.967 13.62 100.58 13.98C100.38 14.1667 100.16 14.38 99.92 14.62C99.6933 14.8467 99.4733 15.08 99.26 15.32C99.0467 15.56 98.8533 15.7867 98.68 16C98.52 16.2 98.42 16.3667 98.38 16.5H104.34V19H95.1C95.0733 18.8533 95.06 18.6667 95.06 18.44C95.06 18.2133 95.06 18.0533 95.06 17.96C95.06 17.32 95.16 16.7333 95.36 16.2C95.5733 15.6667 95.8467 15.1733 96.18 14.72C96.5133 14.2533 96.8867 13.82 97.3 13.42C97.7267 13.02 98.1467 12.62 98.56 12.22C98.88 11.9133 99.18 11.6267 99.46 11.36C99.74 11.08 99.9867 10.8133 100.2 10.56C100.413 10.2933 100.58 10.0333 100.7 9.78C100.82 9.51333 100.88 9.24667 100.88 8.98C100.88 8.39333 100.713 7.98 100.38 7.74C100.047 7.5 99.6333 7.38 99.14 7.38C98.78 7.38 98.44 7.44 98.12 7.56C97.8133 7.66667 97.5267 7.8 97.26 7.96C97.0067 8.10667 96.7867 8.26 96.6 8.42C96.4133 8.56667 96.2733 8.68667 96.18 8.78L94.7 6.7C95.2867 6.15333 95.9667 5.70667 96.74 5.36C97.5267 5 98.3667 4.82 99.26 4.82C100.073 4.82 100.773 4.91333 101.36 5.1C101.947 5.28667 102.427 5.55333 102.8 5.9C103.187 6.23333 103.467 6.64667 103.64 7.14C103.827 7.62 103.92 8.16667 103.92 8.78ZM116.047 12.04C116.047 14.3733 115.601 16.1667 114.707 17.42C113.827 18.66 112.607 19.28 111.047 19.28C109.487 19.28 108.261 18.66 107.367 17.42C106.487 16.1667 106.047 14.3733 106.047 12.04C106.047 10.88 106.161 9.85333 106.387 8.96C106.627 8.06667 106.967 7.31333 107.407 6.7C107.847 6.08667 108.374 5.62 108.987 5.3C109.601 4.98 110.287 4.82 111.047 4.82C112.607 4.82 113.827 5.44667 114.707 6.7C115.601 7.94 116.047 9.72 116.047 12.04ZM113.007 12.04C113.007 11.3467 112.974 10.72 112.907 10.16C112.841 9.58667 112.734 9.09333 112.587 8.68C112.441 8.26667 112.241 7.94667 111.987 7.72C111.734 7.49333 111.421 7.38 111.047 7.38C110.674 7.38 110.361 7.49333 110.107 7.72C109.867 7.94667 109.667 8.26667 109.507 8.68C109.361 9.09333 109.254 9.58667 109.187 10.16C109.121 10.72 109.087 11.3467 109.087 12.04C109.087 12.7333 109.121 13.3667 109.187 13.94C109.254 14.5133 109.361 15.0067 109.507 15.42C109.667 15.8333 109.867 16.1533 110.107 16.38C110.361 16.6067 110.674 16.72 111.047 16.72C111.421 16.72 111.734 16.6067 111.987 16.38C112.241 16.1533 112.441 15.8333 112.587 15.42C112.734 15.0067 112.841 14.5133 112.907 13.94C112.974 13.3667 113.007 12.7333 113.007 12.04Z" fill="#5B5555"/>
<path d="M74.8 81.264C76 80.544 77.088 79.68 78.016 78.672C78.976 79.632 80.16 80.512 81.408 81.264H74.8ZM82.128 82.64V81.664C82.928 82.112 83.728 82.48 84.512 82.768C84.736 82.368 85.2 81.776 85.536 81.472C83.136 80.752 80.448 79.232 78.88 77.664C79.024 77.472 79.152 77.264 79.296 77.056L77.904 76.432C76.384 78.784 73.488 80.544 70.512 81.456C70.88 81.824 71.296 82.4 71.504 82.832C72.304 82.544 73.072 82.208 73.824 81.808V82.64H77.168V84.576H71.888V85.92H77.168V89.488H71.152V90.848H84.88V89.488H78.752V85.92H84.112V84.576H78.752V82.64H82.128ZM81.104 89.424C81.648 88.704 82.352 87.616 82.96 86.608L81.52 86.08C81.184 86.96 80.512 88.176 79.968 88.944L81.104 89.424ZM73.104 86.56C73.68 87.456 74.304 88.656 74.528 89.408L75.824 88.848C75.568 88.096 74.928 86.928 74.32 86.08L73.104 86.56ZM90.544 78.816L89.952 79.312C90.464 79.76 91.12 80.416 91.408 80.832L92.368 80C92.096 79.664 91.632 79.2 91.168 78.816H93.856V77.648H90.032C90.176 77.376 90.304 77.104 90.416 76.832L89.072 76.448C88.56 77.744 87.664 79.04 86.704 79.872C86.992 80.112 87.504 80.608 87.712 80.848C88.272 80.304 88.864 79.616 89.36 78.816H90.544ZM98.096 88.4V89.648H90.816V88.4H98.096ZM97.28 84.112V85.232H90.816V84.112H97.28ZM90.816 86.336H98.72V82.992H89.312V91.28H90.816V90.784H98.096V91.248H99.568V87.28H90.816V86.336ZM92.928 80.048C93.088 80.336 93.248 80.672 93.392 80.992H87.504V83.696H88.928V82.16H99.168V83.696H100.672V80.992H94.896C94.736 80.608 94.496 80.144 94.24 79.776L92.928 80.048ZM96.592 77.648C96.736 77.36 96.864 77.088 96.976 76.8L95.616 76.464C95.216 77.52 94.48 78.528 93.632 79.2C93.968 79.408 94.512 79.856 94.752 80.096C95.136 79.744 95.536 79.312 95.888 78.816H97.536L96.848 79.376C97.44 79.856 98.208 80.544 98.56 80.976L99.552 80.128C99.248 79.744 98.64 79.232 98.096 78.816H101.232V77.648H96.592ZM113.104 86.944V87.824H106.976V86.944H113.104ZM106.976 89.744V88.848H113.104V89.744H106.976ZM105.504 91.248H106.976V90.752H113.104V91.184H114.624V85.92H105.504V91.248ZM104.928 81.12C105.728 80.816 106.512 80.48 107.248 80.064V80.448H112.784V79.984C113.6 80.448 114.48 80.816 115.344 81.12H104.928ZM114.096 84.304H112.4C112.688 83.84 113.04 83.168 113.392 82.48L112.144 82.128C111.968 82.672 111.632 83.488 111.344 84L112.336 84.304H110.544V82.096H114.096V84.304ZM106.64 82.512C106.976 83.072 107.28 83.808 107.392 84.304H105.856V82.096H109.328V84.304H107.44L108.496 83.952C108.384 83.472 108.032 82.736 107.68 82.192L106.64 82.512ZM108.336 79.424C108.96 79.024 109.568 78.56 110.08 78.08C110.592 78.56 111.184 79.024 111.84 79.424H108.336ZM109.792 76.496C108.336 78.368 105.504 79.76 102.608 80.496C102.864 80.752 103.28 81.36 103.408 81.632C103.808 81.52 104.192 81.392 104.592 81.248V85.28H115.408V81.136C115.808 81.28 116.224 81.408 116.608 81.52C116.832 81.168 117.248 80.64 117.552 80.384C115.056 79.856 112.352 78.64 110.864 77.264C110.96 77.168 111.024 77.056 111.104 76.96L109.792 76.496ZM50.048 102.744H51.696V101.336H50.048V97.784H48.656V101.336H46.864V102.744H48.656V107.368C47.872 107.704 47.152 107.976 46.576 108.184L47.168 109.672C48.56 109.048 50.336 108.232 52 107.432L51.648 106.12C51.12 106.36 50.576 106.568 50.048 106.808V102.744ZM53.664 108.184H58.64V106.888H53.664V108.184ZM54.4 103.672V104.968H58.272V103.672H54.4ZM55.2 100.056C55.472 99.368 55.728 98.632 55.952 97.912L54.544 97.576C53.984 99.672 53.008 101.8 51.872 103.144C52.208 103.336 52.848 103.72 53.104 103.944C53.632 103.24 54.144 102.376 54.608 101.4H59.648C59.504 107.528 59.28 110.088 58.8 110.616C58.608 110.824 58.448 110.872 58.128 110.872C57.712 110.872 56.768 110.872 55.712 110.776C55.984 111.192 56.176 111.832 56.192 112.232C57.088 112.28 58.08 112.296 58.656 112.232C59.264 112.152 59.696 111.992 60.064 111.448C60.704 110.616 60.896 108.168 61.072 100.808C61.088 100.6 61.088 100.056 61.088 100.056H55.2ZM76.976 98.632H73.68V99.96H76.976V98.632ZM65.136 97.56C64.624 98.6 63.584 99.896 62.64 100.728C62.88 101 63.216 101.56 63.408 101.864C64.512 100.888 65.712 99.4 66.48 98.072L65.136 97.56ZM70.56 100.024C70.4 100.456 70.192 100.92 70.016 101.288H68.192C68.448 100.888 68.656 100.44 68.864 100.024H70.56ZM71.776 103.48H70.576V102.328H71.776V103.48ZM71.776 105.624H70.576V104.472H71.776V105.624ZM68.208 103.48V102.328H69.488V103.48H68.208ZM69.488 104.472V105.624H68.208V104.472H69.488ZM67.088 102.776V106.68H72.928V101.288H71.328C71.68 100.68 72.032 99.976 72.272 99.368L71.376 98.792L71.184 98.856H69.36C69.488 98.504 69.6 98.184 69.712 97.848L68.368 97.656C68.048 98.744 67.504 100.088 66.656 101.224L65.424 100.808C64.72 102.424 63.584 104.104 62.48 105.208C62.736 105.512 63.152 106.216 63.312 106.536C63.648 106.184 63.968 105.784 64.304 105.352V112.28H65.664V103.304C65.888 102.92 66.096 102.536 66.288 102.152C66.576 102.344 66.864 102.6 67.04 102.824L67.088 102.776ZM73.296 108.856V107.656H70.592C70.624 107.416 70.656 107.176 70.672 106.92H69.376C69.36 107.176 69.328 107.416 69.296 107.656H66.64V108.856H68.992C68.624 109.896 67.888 110.664 66.4 111.16C66.64 111.384 66.992 111.864 67.136 112.152C68.656 111.608 69.52 110.808 70.032 109.72C70.848 110.376 71.68 111.176 72.096 111.72L73.008 110.808C72.56 110.264 71.68 109.48 70.848 108.856H73.296ZM77.296 102.536H73.344V103.88H74.784V110.648C74.784 110.808 74.736 110.856 74.544 110.872C74.368 110.872 73.84 110.872 73.28 110.856C73.456 111.24 73.6 111.832 73.648 112.2C74.528 112.2 75.136 112.168 75.584 111.944C76 111.736 76.112 111.336 76.112 110.648V103.88H77.296V102.536ZM83.328 110.216C81.648 110.216 81.104 109.672 81.104 108.312V99.56H92.432V98.248H79.008V99.56H79.648V108.2C79.648 110.776 80.864 111.592 83.472 111.592H90.176C91.424 111.592 92.72 111.56 93.216 111.432C93.136 111.096 93.04 110.408 92.992 110.024C92.384 110.152 91.152 110.216 90.224 110.216H83.328ZM88.4 103.08H85.2V101.48H88.4V103.08ZM89.872 100.472H83.824V104.104H89.872V100.472ZM83.344 106.072H85.088V108.136H83.344V106.072ZM82.128 109.192H86.368V105.016H82.128V109.192ZM90.384 108.136H88.544V106.072H90.384V108.136ZM91.68 105.016H87.312V109.192H91.68V105.016ZM98.992 106.648C98.544 106.872 98.112 107.08 97.664 107.304V102.824H99.024V101.416H97.664V97.784H96.272V101.416H94.704V102.824H96.272V107.976C95.648 108.28 95.072 108.536 94.592 108.744L95.136 110.232C96.416 109.592 97.952 108.76 99.392 107.96L98.992 106.648ZM104.32 107.784C102.288 108.312 100.176 108.824 98.768 109.128L99.136 110.536C100.64 110.104 102.624 109.576 104.464 109.048L104.32 107.784ZM102.576 106.056H100.88V103.688H102.576V106.056ZM99.744 102.52V107.224H103.744V102.52H99.744ZM107.568 102.52C107.248 103.848 106.848 105.064 106.32 106.184C106.144 104.744 106 103.048 105.936 101.208H109.168V99.864H108.384L109.088 99.208C108.688 98.728 107.872 98.056 107.216 97.608L106.368 98.344C106.96 98.776 107.648 99.4 108.048 99.864H105.888C105.888 99.128 105.872 98.376 105.888 97.608H104.464C104.464 98.36 104.48 99.112 104.496 99.864H99.264V101.208H104.544C104.64 103.8 104.848 106.216 105.216 108.12C104.352 109.368 103.328 110.408 102.08 111.192C102.384 111.4 102.928 111.896 103.152 112.136C104.08 111.48 104.896 110.696 105.616 109.784C106.128 111.32 106.8 112.264 107.728 112.264C108.816 112.264 109.216 111.624 109.44 109.496C109.12 109.352 108.672 109.032 108.384 108.696C108.336 110.248 108.192 110.856 107.92 110.856C107.44 110.856 106.992 109.896 106.672 108.296C107.632 106.728 108.368 104.872 108.896 102.776L107.568 102.52ZM122.08 107.96C121.728 108.504 121.296 108.984 120.8 109.416C119.904 108.888 118.976 108.392 118.176 107.96H122.08ZM122.992 106.872L122.768 106.904H117.456V107.96H118.016L117.344 108.728C118.08 109.144 118.912 109.624 119.728 110.12C118.816 110.616 117.776 110.984 116.64 111.192C116.88 111.464 117.168 111.944 117.296 112.28C118.64 111.96 119.856 111.496 120.896 110.824C121.792 111.368 122.592 111.88 123.152 112.296L123.92 111.32C123.408 110.968 122.688 110.52 121.904 110.056C122.736 109.304 123.392 108.36 123.824 107.176L122.992 106.872ZM123.904 99.272C123.408 99.784 122.592 100.52 121.904 101.032C121.536 100.76 121.2 100.488 120.88 100.168C121.552 99.704 122.352 99.08 123.024 98.456L121.952 97.688C121.52 98.2 120.784 98.872 120.144 99.368C119.728 98.824 119.376 98.248 119.088 97.64L117.904 97.992C118.704 99.752 119.888 101.208 121.424 102.312H118.096V103.512C118.096 104.264 117.92 105.096 116.736 105.752V102.376H114.48C115.824 101.416 116.96 100.168 117.648 98.6L116.704 98.152L116.464 98.2H112.224V99.384H115.68C115.328 99.88 114.912 100.36 114.416 100.776C113.936 100.376 113.2 99.88 112.608 99.544L111.76 100.344C112.304 100.68 112.96 101.144 113.408 101.544C112.512 102.136 111.488 102.616 110.48 102.92C110.752 103.176 111.104 103.704 111.28 104.024C111.824 103.832 112.384 103.592 112.928 103.32V103.544H115.408V104.984H112.4C112.272 106.168 112.032 107.64 111.824 108.616H115.328C115.2 109.96 115.04 110.568 114.832 110.76C114.688 110.888 114.528 110.904 114.256 110.904C113.936 110.904 113.104 110.888 112.256 110.808C112.496 111.16 112.672 111.688 112.704 112.072C113.568 112.104 114.384 112.12 114.816 112.072C115.312 112.04 115.648 111.944 115.952 111.64C116.352 111.224 116.528 110.264 116.72 108.072C116.752 107.88 116.768 107.496 116.768 107.496H113.264C113.344 107.064 113.408 106.584 113.472 106.12H116.736V105.864C117.024 106.072 117.456 106.488 117.632 106.728C119.04 105.896 119.36 104.616 119.36 103.544V103.48H121.232V104.744C121.232 105.848 121.456 106.296 122.576 106.296H123.744C124.064 106.296 124.416 106.28 124.592 106.216C124.544 105.912 124.512 105.48 124.496 105.176C124.32 105.224 123.936 105.24 123.712 105.24H122.72C122.496 105.24 122.448 105.128 122.448 104.76V102.952C123.088 103.32 123.792 103.624 124.528 103.848C124.736 103.496 125.136 102.952 125.424 102.68C124.512 102.44 123.664 102.088 122.896 101.672C123.568 101.208 124.352 100.6 124.992 100.024L123.904 99.272ZM138.768 99.592V100.952H129.728V99.592H138.768ZM140.256 102.216V98.312H128.24V102.968C128.24 105.512 128.096 109.048 126.512 111.512C126.896 111.656 127.552 112.04 127.84 112.28C129.488 109.672 129.728 105.704 129.728 102.968V102.216H140.256ZM139.296 107.56C138.752 108.008 137.92 108.568 137.184 108.984C136.752 108.568 136.384 108.088 136.096 107.56H139.296ZM133.76 104.888H136.608V106.312H133.76V104.888ZM139.376 107.56H141.168V106.312H138V104.888H140.512V103.624H138V102.232H136.608V103.624H133.76V102.232H132.4V103.624H130.176V104.888H132.4V106.312H129.776V107.56H131.36V109.752C131.36 110.488 130.864 110.904 130.544 111.08C130.752 111.352 131.04 111.944 131.136 112.312V112.296C131.456 112.088 131.968 111.944 135.744 111.08C135.728 110.776 135.776 110.216 135.84 109.832L132.736 110.488V107.56H134.672C135.76 109.96 137.648 111.56 140.464 112.264C140.656 111.864 141.04 111.32 141.36 111.032C140.096 110.776 139.024 110.344 138.128 109.736C138.88 109.352 139.744 108.824 140.448 108.296L139.376 107.56Z" fill="#5B5555"/>
<defs>
<linearGradient id="paint0_linear" x1="81.0015" y1="146.157" x2="81.4143" y2="158.263" gradientUnits="userSpaceOnUse">
<stop stop-color="#FFBA42"/>
<stop offset="0.526042" stop-color="#FFC800"/>
<stop offset="1" stop-color="#FFCE00"/>
</linearGradient>
<linearGradient id="paint1_linear" x1="79.8011" y1="157.366" x2="80.0858" y2="165.715" gradientUnits="userSpaceOnUse">
<stop stop-color="#FFBA42"/>
<stop offset="0.526042" stop-color="#FFC800"/>
<stop offset="1" stop-color="#FFCE00"/>
</linearGradient>
<linearGradient id="paint2_linear" x1="64.1474" y1="140.905" x2="64.6272" y2="154.979" gradientUnits="userSpaceOnUse">
<stop stop-color="#FFBA42"/>
<stop offset="0.526042" stop-color="#FFC800"/>
<stop offset="1" stop-color="#FFCE00"/>
</linearGradient>
<linearGradient id="paint3_linear" x1="61.7219" y1="153.193" x2="61.9823" y2="160.83" gradientUnits="userSpaceOnUse">
<stop stop-color="#FFBA42"/>
<stop offset="0.526042" stop-color="#FFC800"/>
<stop offset="1" stop-color="#FFCE00"/>
</linearGradient>
<linearGradient id="paint4_linear" x1="50.7014" y1="133.482" x2="51.2472" y2="149.488" gradientUnits="userSpaceOnUse">
<stop stop-color="#FFBA42"/>
<stop offset="0.526042" stop-color="#FFC800"/>
<stop offset="1" stop-color="#FFCE00"/>
</linearGradient>
<linearGradient id="paint5_linear" x1="46.9124" y1="146.393" x2="47.1612" y2="153.69" gradientUnits="userSpaceOnUse">
<stop stop-color="#FFBA42"/>
<stop offset="0.526042" stop-color="#FFC800"/>
<stop offset="1" stop-color="#FFCE00"/>
</linearGradient>
<linearGradient id="paint6_linear" x1="37.927" y1="122.194" x2="38.5469" y2="140.374" gradientUnits="userSpaceOnUse">
<stop stop-color="#FFBA42"/>
<stop offset="0.526042" stop-color="#FFC800"/>
<stop offset="1" stop-color="#FFCE00"/>
</linearGradient>
<linearGradient id="paint7_linear" x1="32.2136" y1="134.806" x2="32.4743" y2="142.451" gradientUnits="userSpaceOnUse">
<stop stop-color="#FFBA42"/>
<stop offset="0.526042" stop-color="#FFC800"/>
<stop offset="1" stop-color="#FFCE00"/>
</linearGradient>
<linearGradient id="paint8_linear" x1="28.2492" y1="109.742" x2="28.9056" y2="128.992" gradientUnits="userSpaceOnUse">
<stop stop-color="#FFBA42"/>
<stop offset="0.526042" stop-color="#FFC800"/>
<stop offset="1" stop-color="#FFCE00"/>
</linearGradient>
<linearGradient id="paint9_linear" x1="20.9694" y1="120.542" x2="21.2818" y2="129.705" gradientUnits="userSpaceOnUse">
<stop stop-color="#FFBA42"/>
<stop offset="0.526042" stop-color="#FFC800"/>
<stop offset="1" stop-color="#FFCE00"/>
</linearGradient>
<linearGradient id="paint10_linear" x1="20.0103" y1="94.9043" x2="20.6689" y2="114.22" gradientUnits="userSpaceOnUse">
<stop stop-color="#FFBA42"/>
<stop offset="0.526042" stop-color="#FFC800"/>
<stop offset="1" stop-color="#FFCE00"/>
</linearGradient>
<linearGradient id="paint11_linear" x1="11.6997" y1="102.921" x2="12.0952" y2="114.521" gradientUnits="userSpaceOnUse">
<stop stop-color="#FFBA42"/>
<stop offset="0.526042" stop-color="#FFC800"/>
<stop offset="1" stop-color="#FFCE00"/>
</linearGradient>
<linearGradient id="paint12_linear" x1="15.6528" y1="81.0414" x2="16.2944" y2="99.8587" gradientUnits="userSpaceOnUse">
<stop stop-color="#FFBA42"/>
<stop offset="0.526042" stop-color="#FFC800"/>
<stop offset="1" stop-color="#FFCE00"/>
</linearGradient>
<linearGradient id="paint13_linear" x1="6.74649" y1="86.2729" x2="7.22028" y2="100.168" gradientUnits="userSpaceOnUse">
<stop stop-color="#FFBA42"/>
<stop offset="0.526042" stop-color="#FFC800"/>
<stop offset="1" stop-color="#FFCE00"/>
</linearGradient>
<linearGradient id="paint14_linear" x1="15.0344" y1="65.8193" x2="15.6184" y2="82.9461" gradientUnits="userSpaceOnUse">
<stop stop-color="#FFBA42"/>
<stop offset="0.526042" stop-color="#FFC800"/>
<stop offset="1" stop-color="#FFCE00"/>
</linearGradient>
<linearGradient id="paint15_linear" x1="5.65421" y1="66.5062" x2="6.22564" y2="83.2654" gradientUnits="userSpaceOnUse">
<stop stop-color="#FFBA42"/>
<stop offset="0.526042" stop-color="#FFC800"/>
<stop offset="1" stop-color="#FFCE00"/>
</linearGradient>
<linearGradient id="paint16_linear" x1="17.7083" y1="50.9292" x2="18.2032" y2="65.4422" gradientUnits="userSpaceOnUse">
<stop stop-color="#FFBA42"/>
<stop offset="0.526042" stop-color="#FFC800"/>
<stop offset="1" stop-color="#FFCE00"/>
</linearGradient>
<linearGradient id="paint17_linear" x1="8.4014" y1="47.1761" x2="9.03488" y2="65.7551" gradientUnits="userSpaceOnUse">
<stop stop-color="#FFBA42"/>
<stop offset="0.526042" stop-color="#FFC800"/>
<stop offset="1" stop-color="#FFCE00"/>
</linearGradient>
<linearGradient id="paint18_linear" x1="23.4208" y1="39.1482" x2="23.8044" y2="50.3994" gradientUnits="userSpaceOnUse">
<stop stop-color="#FFBA42"/>
<stop offset="0.526042" stop-color="#FFC800"/>
<stop offset="1" stop-color="#FFCE00"/>
</linearGradient>
<linearGradient id="paint19_linear" x1="14.6837" y1="31.3155" x2="15.3434" y2="50.6641" gradientUnits="userSpaceOnUse">
<stop stop-color="#FFBA42"/>
<stop offset="0.526042" stop-color="#FFC800"/>
<stop offset="1" stop-color="#FFCE00"/>
</linearGradient>
<linearGradient id="paint20_linear" x1="30.4024" y1="28.1239" x2="30.7204" y2="37.4514" gradientUnits="userSpaceOnUse">
<stop stop-color="#FFBA42"/>
<stop offset="0.526042" stop-color="#FFC800"/>
<stop offset="1" stop-color="#FFCE00"/>
</linearGradient>
<linearGradient id="paint21_linear" x1="22.3439" y1="18.0421" x2="23.0015" y2="37.3288" gradientUnits="userSpaceOnUse">
<stop stop-color="#FFBA42"/>
<stop offset="0.526042" stop-color="#FFC800"/>
<stop offset="1" stop-color="#FFCE00"/>
</linearGradient>
<linearGradient id="paint22_linear" x1="114.507" y1="144.294" x2="114.919" y2="156.4" gradientUnits="userSpaceOnUse">
<stop stop-color="#FFBA42"/>
<stop offset="0.526042" stop-color="#FFC800"/>
<stop offset="1" stop-color="#FFCE00"/>
</linearGradient>
<linearGradient id="paint23_linear" x1="116.441" y1="155.396" x2="116.725" y2="163.746" gradientUnits="userSpaceOnUse">
<stop stop-color="#FFBA42"/>
<stop offset="0.526042" stop-color="#FFC800"/>
<stop offset="1" stop-color="#FFCE00"/>
</linearGradient>
<linearGradient id="paint24_linear" x1="128.937" y1="138.697" x2="129.417" y2="152.77" gradientUnits="userSpaceOnUse">
<stop stop-color="#FFBA42"/>
<stop offset="0.526042" stop-color="#FFC800"/>
<stop offset="1" stop-color="#FFCE00"/>
</linearGradient>
<linearGradient id="paint25_linear" x1="132.167" y1="150.791" x2="132.427" y2="158.428" gradientUnits="userSpaceOnUse">
<stop stop-color="#FFBA42"/>
<stop offset="0.526042" stop-color="#FFC800"/>
<stop offset="1" stop-color="#FFCE00"/>
</linearGradient>
<linearGradient id="paint26_linear" x1="141.827" y1="129.834" x2="142.373" y2="145.839" gradientUnits="userSpaceOnUse">
<stop stop-color="#FFBA42"/>
<stop offset="0.526042" stop-color="#FFC800"/>
<stop offset="1" stop-color="#FFCE00"/>
</linearGradient>
<linearGradient id="paint27_linear" x1="146.457" y1="142.456" x2="146.706" y2="149.753" gradientUnits="userSpaceOnUse">
<stop stop-color="#FFBA42"/>
<stop offset="0.526042" stop-color="#FFC800"/>
<stop offset="1" stop-color="#FFCE00"/>
</linearGradient>
<linearGradient id="paint28_linear" x1="153.428" y1="117.971" x2="154.048" y2="136.151" gradientUnits="userSpaceOnUse">
<stop stop-color="#FFBA42"/>
<stop offset="0.526042" stop-color="#FFC800"/>
<stop offset="1" stop-color="#FFCE00"/>
</linearGradient>
<linearGradient id="paint29_linear" x1="159.96" y1="130.167" x2="160.221" y2="137.811" gradientUnits="userSpaceOnUse">
<stop stop-color="#FFBA42"/>
<stop offset="0.526042" stop-color="#FFC800"/>
<stop offset="1" stop-color="#FFCE00"/>
</linearGradient>
<linearGradient id="paint30_linear" x1="162.737" y1="104.111" x2="163.394" y2="123.362" gradientUnits="userSpaceOnUse">
<stop stop-color="#FFBA42"/>
<stop offset="0.526042" stop-color="#FFC800"/>
<stop offset="1" stop-color="#FFCE00"/>
</linearGradient>
<linearGradient id="paint31_linear" x1="170.71" y1="114.392" x2="171.022" y2="123.554" gradientUnits="userSpaceOnUse">
<stop stop-color="#FFBA42"/>
<stop offset="0.526042" stop-color="#FFC800"/>
<stop offset="1" stop-color="#FFCE00"/>
</linearGradient>
<linearGradient id="paint32_linear" x1="169.131" y1="89.5537" x2="169.79" y2="108.87" gradientUnits="userSpaceOnUse">
<stop stop-color="#FFBA42"/>
<stop offset="0.526042" stop-color="#FFC800"/>
<stop offset="1" stop-color="#FFCE00"/>
</linearGradient>
<linearGradient id="paint33_linear" x1="177.95" y1="96.9864" x2="178.345" y2="108.587" gradientUnits="userSpaceOnUse">
<stop stop-color="#FFBA42"/>
<stop offset="0.526042" stop-color="#FFC800"/>
<stop offset="1" stop-color="#FFCE00"/>
</linearGradient>
<linearGradient id="paint34_linear" x1="172.567" y1="75.4008" x2="173.208" y2="94.2189" gradientUnits="userSpaceOnUse">
<stop stop-color="#FFBA42"/>
<stop offset="0.526042" stop-color="#FFC800"/>
<stop offset="1" stop-color="#FFCE00"/>
</linearGradient>
<linearGradient id="paint35_linear" x1="181.796" y1="80.0136" x2="182.269" y2="93.9091" gradientUnits="userSpaceOnUse">
<stop stop-color="#FFBA42"/>
<stop offset="0.526042" stop-color="#FFC800"/>
<stop offset="1" stop-color="#FFCE00"/>
</linearGradient>
<linearGradient id="paint36_linear" x1="172.127" y1="60.6811" x2="172.711" y2="77.8071" gradientUnits="userSpaceOnUse">
<stop stop-color="#FFBA42"/>
<stop offset="0.526042" stop-color="#FFC800"/>
<stop offset="1" stop-color="#FFCE00"/>
</linearGradient>
<linearGradient id="paint37_linear" x1="181.532" y1="60.7279" x2="182.103" y2="77.4871" gradientUnits="userSpaceOnUse">
<stop stop-color="#FFBA42"/>
<stop offset="0.526042" stop-color="#FFC800"/>
<stop offset="1" stop-color="#FFCE00"/>
</linearGradient>
<linearGradient id="paint38_linear" x1="168.352" y1="46.0005" x2="168.847" y2="60.5144" gradientUnits="userSpaceOnUse">
<stop stop-color="#FFBA42"/>
<stop offset="0.526042" stop-color="#FFC800"/>
<stop offset="1" stop-color="#FFCE00"/>
</linearGradient>
<linearGradient id="paint39_linear" x1="177.391" y1="41.6224" x2="178.024" y2="60.2014" gradientUnits="userSpaceOnUse">
<stop stop-color="#FFBA42"/>
<stop offset="0.526042" stop-color="#FFC800"/>
<stop offset="1" stop-color="#FFCE00"/>
</linearGradient>
<linearGradient id="paint40_linear" x1="162.041" y1="34.8455" x2="162.425" y2="46.0975" gradientUnits="userSpaceOnUse">
<stop stop-color="#FFBA42"/>
<stop offset="0.526042" stop-color="#FFC800"/>
<stop offset="1" stop-color="#FFCE00"/>
</linearGradient>
<linearGradient id="paint41_linear" x1="170.243" y1="26.4341" x2="170.903" y2="45.7835" gradientUnits="userSpaceOnUse">
<stop stop-color="#FFBA42"/>
<stop offset="0.526042" stop-color="#FFC800"/>
<stop offset="1" stop-color="#FFCE00"/>
</linearGradient>
<linearGradient id="paint42_linear" x1="153.954" y1="24.42" x2="154.272" y2="33.7473" gradientUnits="userSpaceOnUse">
<stop stop-color="#FFBA42"/>
<stop offset="0.526042" stop-color="#FFC800"/>
<stop offset="1" stop-color="#FFCE00"/>
</linearGradient>
<linearGradient id="paint43_linear" x1="161.331" y1="13.8133" x2="161.989" y2="33.0993" gradientUnits="userSpaceOnUse">
<stop stop-color="#FFBA42"/>
<stop offset="0.526042" stop-color="#FFC800"/>
<stop offset="1" stop-color="#FFCE00"/>
</linearGradient>
<linearGradient id="paint44_linear" x1="92.0209" y1="18.1225" x2="96.8047" y2="158.424" gradientUnits="userSpaceOnUse">
<stop stop-color="#FFBA42"/>
<stop offset="0.526042" stop-color="#FFC800"/>
<stop offset="1" stop-color="#FFCE00"/>
</linearGradient>
<linearGradient id="paint45_linear" x1="42.0302" y1="18.1318" x2="42.292" y2="25.8098" gradientUnits="userSpaceOnUse">
<stop stop-color="#FFBA42"/>
<stop offset="0.526042" stop-color="#FFC800"/>
<stop offset="1" stop-color="#FFCE00"/>
</linearGradient>
<linearGradient id="paint46_linear" x1="35.4348" y1="5.98173" x2="36.0567" y2="24.2222" gradientUnits="userSpaceOnUse">
<stop stop-color="#FFBA42"/>
<stop offset="0.526042" stop-color="#FFC800"/>
<stop offset="1" stop-color="#FFCE00"/>
</linearGradient>
<linearGradient id="paint47_linear" x1="142.248" y1="14.7148" x2="142.51" y2="22.3928" gradientUnits="userSpaceOnUse">
<stop stop-color="#FFBA42"/>
<stop offset="0.526042" stop-color="#FFC800"/>
<stop offset="1" stop-color="#FFCE00"/>
</linearGradient>
<linearGradient id="paint48_linear" x1="148.03" y1="2.14285" x2="148.651" y2="20.3833" gradientUnits="userSpaceOnUse">
<stop stop-color="#FFBA42"/>
<stop offset="0.526042" stop-color="#FFC800"/>
<stop offset="1" stop-color="#FFCE00"/>
</linearGradient>
</defs>
</svg>
