<svg width="189" height="167" viewBox="0 0 189 167" fill="none" xmlns="http://www.w3.org/2000/svg">
<path d="M83.3782 149.288C87.662 152.488 88.9576 158.006 88.9576 158.006C88.9576 158.006 83.3082 158.331 79.0244 155.13C74.7399 151.93 73.4436 146.416 73.4436 146.416C73.4436 146.416 79.0922 146.087 83.3782 149.288Z" fill="url(#paint0_linear)"/>
<path d="M78.6164 158.147C83.5963 156.195 88.9575 158.005 88.9575 158.005C88.9575 158.005 86.2434 162.979 81.2612 164.934C76.2813 166.886 70.9194 165.077 70.9194 165.077C70.9194 165.077 73.6342 160.101 78.6164 158.147Z" fill="url(#paint1_linear)"/>
<path d="M66.936 145.349C70.7402 149.11 71.2651 154.752 71.2651 154.752C71.2651 154.752 65.6247 154.297 61.822 150.536C58.0194 146.776 57.4929 141.132 57.4929 141.132C57.4929 141.132 63.1333 141.587 66.936 145.349Z" fill="url(#paint2_linear)"/>
<path d="M61.0032 153.468C66.2045 152.221 71.2649 154.752 71.2649 154.752C71.2649 154.752 67.8932 159.307 62.6912 160.554C57.49 161.803 52.4304 159.271 52.4304 159.271C52.4304 159.271 55.802 154.716 61.0032 153.468Z" fill="url(#paint3_linear)"/>
<path d="M53.901 139.329C57.0605 143.646 56.6862 149.302 56.6862 149.302C56.6862 149.302 51.1916 147.96 48.0313 143.642C44.8711 139.325 45.243 133.669 45.243 133.669C45.243 133.669 50.7407 135.011 53.901 139.329Z" fill="url(#paint4_linear)"/>
<path d="M46.7596 146.408C52.0918 146.001 56.6872 149.303 56.6872 149.303C56.6872 149.303 52.6385 153.266 47.3056 153.674C41.9734 154.082 37.378 150.78 37.378 150.78C37.378 150.78 41.4274 146.816 46.7596 146.408Z" fill="url(#paint5_linear)"/>
<path d="M41.5954 129.905C43.6134 134.861 41.8815 140.26 41.8815 140.26C41.8815 140.26 36.8761 137.62 34.8581 132.663C32.8385 127.705 34.5697 122.308 34.5697 122.308C34.5697 122.308 39.5758 124.947 41.5954 129.905Z" fill="url(#paint6_linear)"/>
<path d="M32.954 135.036C38.2244 135.937 41.882 140.259 41.882 140.259C41.882 140.259 36.9937 143.121 31.7234 142.221C26.4522 141.32 22.7969 136.998 22.7969 136.998C22.7969 136.998 27.6836 134.136 32.954 135.036Z" fill="url(#paint7_linear)"/>
<path d="M32.1629 118.82C32.9616 124.114 30.0102 128.954 30.0102 128.954C30.0102 128.954 25.7664 125.21 24.9692 119.915C24.1705 114.62 27.1211 109.781 27.1211 109.781C27.1211 109.781 31.3657 113.525 32.1629 118.82Z" fill="url(#paint8_linear)"/>
<path d="M22.5611 121.776C27.4714 123.893 30.0102 128.955 30.0102 128.955C30.0102 128.955 24.5895 130.587 19.6792 128.47C14.7705 126.355 12.2302 121.292 12.2302 121.292C12.2302 121.292 17.6523 119.66 22.5611 121.776Z" fill="url(#paint9_linear)"/>
<path d="M23.9618 104.742C23.6923 110.091 19.8404 114.248 19.8404 114.248C19.8404 114.248 16.4253 109.732 16.6949 104.383C16.9644 99.0334 20.8148 94.8769 20.8148 94.8769C20.8148 94.8769 24.2313 99.3921 23.9618 104.742Z" fill="url(#paint10_linear)"/>
<path d="M13.9667 105.727C18.3581 108.779 19.8402 114.248 19.8402 114.248C19.8402 114.248 14.2049 114.768 9.81347 111.716C5.42357 108.663 3.94074 103.195 3.94074 103.195C3.94074 103.195 9.57683 102.676 13.9667 105.727Z" fill="url(#paint11_linear)"/>
<path d="M19.5213 91.2032C18.4102 96.4432 13.9506 99.9386 13.9506 99.9386C13.9506 99.9386 11.2928 94.937 12.4039 89.6969C13.5166 84.4576 17.9739 80.9623 17.9739 80.9623C17.9739 80.9623 20.6324 85.9632 19.5213 91.2032Z" fill="url(#paint12_linear)"/>
<path d="M9.49825 90.5927C13.3509 94.3029 13.9504 99.9389 13.9504 99.9389C13.9504 99.9389 8.30474 99.5594 4.45212 95.8492C0.600266 92.1389 0 86.5029 0 86.5029C0 86.5029 5.6464 86.8824 9.49825 90.5927Z" fill="url(#paint13_linear)"/>
<path d="M18.5853 75.9794C16.239 80.7939 11.0657 83.1013 11.0657 83.1013C11.0657 83.1013 9.70139 77.6028 12.0469 72.7876C14.3947 67.973 19.5656 65.6648 19.5656 65.6648C19.5656 65.6648 20.9331 71.1648 18.5853 75.9794Z" fill="url(#paint14_linear)"/>
<path d="M9.01481 72.9496C11.8508 77.4862 11.0665 83.1004 11.0665 83.1004C11.0665 83.1004 5.68446 81.3591 2.84693 76.8226C0.00939854 72.2861 0.79366 66.6719 0.79366 66.6719C0.79366 66.6719 6.17728 68.4131 9.01481 72.9496Z" fill="url(#paint15_linear)"/>
<path d="M20.7488 60.5064C17.3384 64.6345 11.7707 65.6616 11.7707 65.6616C11.7707 65.6616 11.7345 59.9938 15.1463 55.8648C18.5567 51.7367 24.1237 50.7105 24.1237 50.7105C24.1237 50.7105 24.1615 56.3782 20.7488 60.5064Z" fill="url(#paint16_linear)"/>
<path d="M12.1577 55.3087C13.8505 60.3872 11.7715 65.6618 11.7715 65.6618C11.7715 65.6618 6.94825 62.7011 5.25618 57.6217C3.56416 52.544 5.64321 47.2702 5.64321 47.2702C5.64321 47.2702 10.4656 50.2302 12.1577 55.3087Z" fill="url(#paint17_linear)"/>
<path d="M25.8054 47.674C21.5448 50.9162 15.8935 50.6444 15.8935 50.6444C15.8935 50.6444 17.147 45.1163 21.4068 41.8741C25.6666 38.6319 31.3187 38.9037 31.3187 38.9037C31.3187 38.9037 30.0644 44.4326 25.8054 47.674Z" fill="url(#paint18_linear)"/>
<path d="M18.6243 40.6517C19.1158 45.9838 15.8926 50.6454 15.8926 50.6454C15.8926 50.6454 11.8707 46.6624 11.3798 41.3295C10.8883 35.9974 14.1122 31.335 14.1122 31.335C14.1122 31.335 18.1326 35.3188 18.6243 40.6517Z" fill="url(#paint19_linear)"/>
<path d="M32.269 36C27.5517 38.5273 22.0143 37.3634 22.0143 37.3634C22.0143 37.3634 24.1262 32.1026 28.8428 29.5761C33.5617 27.0487 39.0975 28.2119 39.0975 28.2119C39.0975 28.2119 36.9864 33.4734 32.269 36Z" fill="url(#paint20_linear)"/>
<path d="M26.2908 27.9257C25.934 33.2695 22.0144 37.3624 22.0144 37.3624C22.0144 37.3624 18.6746 32.7905 19.0314 27.4467C19.389 22.1021 23.3086 18.0092 23.3086 18.0092C23.3086 18.0092 26.6491 22.5811 26.2908 27.9257Z" fill="url(#paint21_linear)"/>
<path d="M112.342 147.58C108.277 151.066 107.347 156.657 107.347 156.657C107.347 156.657 113.006 156.598 117.069 153.114C121.135 149.629 122.064 144.037 122.064 144.037C122.064 144.037 116.406 144.095 112.342 147.58Z" fill="url(#paint22_linear)"/>
<path d="M117.676 156.096C112.578 154.487 107.347 156.657 107.347 156.657C107.347 156.657 110.383 161.437 115.481 163.047C120.579 164.656 125.809 162.486 125.809 162.486C125.809 162.486 122.774 157.705 117.676 156.096Z" fill="url(#paint23_linear)"/>
<path d="M126.448 143.32C122.9 147.332 122.746 152.998 122.746 152.998C122.746 152.998 128.345 152.16 131.891 148.148C135.438 144.137 135.591 138.47 135.591 138.47C135.591 138.47 129.995 139.308 126.448 143.32Z" fill="url(#paint24_linear)"/>
<path d="M132.901 151.017C127.63 150.127 122.747 152.997 122.747 152.997C122.747 152.997 126.412 157.311 131.683 158.202C136.956 159.094 141.838 156.223 141.838 156.223C141.838 156.223 138.174 151.907 132.901 151.017Z" fill="url(#paint25_linear)"/>
<path d="M139.02 135.885C136.152 140.407 136.896 146.026 136.896 146.026C136.896 146.026 142.29 144.31 145.16 139.787C148.029 135.266 147.286 129.648 147.286 129.648C147.286 129.648 141.889 131.362 139.02 135.885Z" fill="url(#paint26_linear)"/>
<path d="M146.611 142.461C141.263 142.418 136.895 146.026 136.895 146.026C136.895 146.026 141.196 149.705 146.544 149.748C151.891 149.792 156.259 146.183 156.259 146.183C156.259 146.183 151.958 142.505 146.611 142.461Z" fill="url(#paint27_linear)"/>
<path d="M150.276 125.914C148.587 130.998 150.671 136.266 150.671 136.266C150.671 136.266 155.491 133.291 157.18 128.208C158.868 123.123 156.784 117.856 156.784 117.856C156.784 117.856 151.964 120.831 150.276 125.914Z" fill="url(#paint28_linear)"/>
<path d="M159.235 130.447C154.036 131.705 150.672 136.266 150.672 136.266C150.672 136.266 155.735 138.789 160.936 137.531C166.135 136.274 169.5 131.713 169.5 131.713C169.5 131.713 164.435 129.19 159.235 130.447Z" fill="url(#paint29_linear)"/>
<path d="M159.428 113.435C158.981 118.773 162.243 123.402 162.243 123.402C162.243 123.402 166.231 119.376 166.68 114.039C167.127 108.701 163.866 104.072 163.866 104.072C163.866 104.072 159.878 108.099 159.428 113.435Z" fill="url(#paint30_linear)"/>
<path d="M169.203 115.731C164.444 118.177 162.243 123.402 162.243 123.402C162.243 123.402 167.76 124.66 172.519 122.214C177.28 119.768 179.479 114.545 179.479 114.545C179.479 114.545 173.962 113.286 169.203 115.731Z" fill="url(#paint31_linear)"/>
<path d="M165.836 99.6389C166.456 104.958 170.573 108.844 170.573 108.844C170.573 108.844 173.683 104.104 173.063 98.7867C172.442 93.4668 168.326 89.5812 168.326 89.5812C168.326 89.5812 165.216 94.3197 165.836 99.6389Z" fill="url(#paint32_linear)"/>
<path d="M175.872 99.9416C171.692 103.286 170.572 108.843 170.572 108.843C170.572 108.843 176.229 108.977 180.41 105.632C184.589 102.289 185.709 96.7313 185.709 96.7313C185.709 96.7313 180.052 96.597 175.872 99.9416Z" fill="url(#paint33_linear)"/>
<path d="M169.375 85.8041C170.828 90.9567 175.507 94.1405 175.507 94.1405C175.507 94.1405 177.831 88.969 176.377 83.8164C174.923 78.6638 170.245 75.48 170.245 75.48C170.245 75.48 167.922 80.6507 169.375 85.8041Z" fill="url(#paint34_linear)"/>
<path d="M179.335 84.5119C175.735 88.4762 175.506 94.1397 175.506 94.1397C175.506 94.1397 181.115 93.3756 184.715 89.4113C188.314 85.447 188.543 79.7836 188.543 79.7836C188.543 79.7836 182.934 80.5476 179.335 84.5119Z" fill="url(#paint35_linear)"/>
<path d="M169.252 71.0595C171.91 75.7033 177.222 77.6533 177.222 77.6533C177.222 77.6533 178.224 72.0741 175.565 67.4295C172.906 62.7849 167.594 60.8357 167.594 60.8357C167.594 60.8357 166.593 66.4156 169.252 71.0595Z" fill="url(#paint36_linear)"/>
<path d="M178.603 67.3857C176.071 72.1053 177.222 77.6535 177.222 77.6535C177.222 77.6535 182.479 75.5496 185.011 70.8299C187.544 66.1103 186.393 60.5621 186.393 60.5621C186.393 60.5621 181.136 62.6661 178.603 67.3857Z" fill="url(#paint37_linear)"/>
<path d="M165.948 55.7641C169.623 59.6507 175.244 60.2962 175.244 60.2962C175.244 60.2962 174.909 54.6379 171.234 50.7513C167.56 46.8648 161.938 46.2192 161.938 46.2192C161.938 46.2192 162.273 51.8776 165.948 55.7641Z" fill="url(#paint38_linear)"/>
<path d="M174.178 49.9926C172.823 55.175 175.244 60.2962 175.244 60.2962C175.244 60.2962 179.862 57.0128 181.216 51.8304C182.569 46.6488 180.149 41.5284 180.149 41.5284C180.149 41.5284 175.532 44.8094 174.178 49.9926Z" fill="url(#paint39_linear)"/>
<path d="M160.223 43.5146C164.686 46.4602 170.307 45.804 170.307 45.804C170.307 45.804 168.694 40.3736 164.23 37.4281C159.767 34.4833 154.146 35.1395 154.146 35.1395C154.146 35.1395 155.759 40.5706 160.223 43.5146Z" fill="url(#paint40_linear)"/>
<path d="M166.925 36.0178C166.785 41.3715 170.307 45.8038 170.307 45.8038C170.307 45.8038 174.058 41.555 174.198 36.2006C174.338 30.8462 170.815 26.4146 170.815 26.4146C170.815 26.4146 167.064 30.6642 166.925 36.0178Z" fill="url(#paint41_linear)"/>
<path d="M152.609 32.4054C157.482 34.6057 162.93 33.0672 162.93 33.0672C162.93 33.0672 160.477 27.962 155.605 25.7617C150.731 23.5622 145.284 25.1006 145.284 25.1006C145.284 25.1006 147.736 30.2058 152.609 32.4054Z" fill="url(#paint42_linear)"/>
<path d="M158.043 23.9429C158.751 29.2504 162.931 33.0672 162.931 33.0672C162.931 33.0672 165.963 28.2779 165.254 22.9705C164.547 17.6622 160.367 13.8462 160.367 13.8462C160.367 13.8462 157.335 18.6347 158.043 23.9429Z" fill="url(#paint43_linear)"/>
<path d="M148.215 16.2065C148.005 16.4427 147.766 16.6784 147.485 16.9124C147.404 16.9803 147.321 17.0271 147.236 17.0865C164.475 31.0388 175.718 51.6986 176.487 75.0452C177.926 118.769 142.087 155.602 96.597 157.153C51.1057 158.704 12.9266 124.395 11.4874 80.6711C10.753 58.3599 19.729 37.8455 34.7371 22.8949C34.2923 22.779 33.843 22.6186 33.3889 22.4081C18.376 37.5644 9.42007 58.2421 10.1598 80.7163C11.6221 125.143 50.4161 160.005 96.639 158.429C142.861 156.853 179.276 119.426 177.814 74.9999C177.035 51.3336 165.661 30.3832 148.215 16.2065Z" fill="url(#paint44_linear)"/>
<path d="M43.0402 25.5048C37.8517 26.8092 32.7639 24.3345 32.7639 24.3345C32.7639 24.3345 36.0857 19.7426 41.2727 18.4374C46.4612 17.1322 51.5491 19.6076 51.5491 19.6076C51.5491 19.6076 48.2272 24.1996 43.0402 25.5048Z" fill="url(#paint45_linear)"/>
<path d="M39.1969 16.2169C37.5561 21.3157 32.764 24.3344 32.764 24.3344C32.764 24.3344 30.6316 19.0865 32.2723 13.9869C33.9138 8.88809 38.7068 5.87016 38.7068 5.87016C38.7068 5.87016 40.8384 11.1173 39.1969 16.2169Z" fill="url(#paint46_linear)"/>
<path d="M141.726 22.14C146.988 23.0881 151.902 20.2724 151.902 20.2724C151.902 20.2724 148.284 15.9171 143.023 14.9682C137.762 14.0192 132.847 16.8357 132.847 16.8357C132.847 16.8357 136.465 21.1911 141.726 22.14Z" fill="url(#paint47_linear)"/>
<path d="M144.949 12.6114C146.923 17.5869 151.902 20.2724 151.902 20.2724C151.902 20.2724 153.683 14.8911 151.712 9.91468C149.738 4.93912 144.757 2.25443 144.757 2.25443C144.757 2.25443 142.975 7.63502 144.949 12.6114Z" fill="url(#paint48_linear)"/>
<path d="M73.452 56.63V54.166H77.808V56.63H73.452ZM66.28 56.63V54.166H70.68V56.63H66.28ZM70.68 49.128V51.68H66.28V49.128H70.68ZM77.808 51.68H73.452V49.128H77.808V51.68ZM63.574 46.62V60.282H66.28V59.138H70.68V65.892H73.452V59.138H77.808V60.26H80.646V46.62H63.574ZM99.654 57.62H96.948V58.698H84.21V60.832H89.006L87.73 61.734C88.874 62.746 90.37 64.154 91.074 65.012L93.01 63.494C92.35 62.768 91.14 61.69 90.106 60.832H96.948V63.428C96.948 63.736 96.816 63.824 96.486 63.824C96.156 63.846 94.77 63.846 93.692 63.78C93.978 64.418 94.242 65.232 94.33 65.892C96.156 65.892 97.498 65.892 98.422 65.606C99.368 65.32 99.654 64.792 99.654 63.538V60.832H103.812V58.698H99.654V57.62ZM95.342 51.724V51.504C95.958 50.822 96.552 49.964 97.08 48.974H98.752L97.85 49.722C98.422 50.316 99.17 51.108 99.632 51.724H95.342ZM98.136 46.752C98.268 46.422 98.356 46.07 98.466 45.74L96.09 45.168C95.54 47.016 94.528 48.864 93.34 50.03C93.582 50.184 93.912 50.404 94.22 50.646H92.614V51.724H90.546L92.064 50.338C91.756 49.942 91.228 49.436 90.678 48.974H93.758V46.752H88.874C89.006 46.444 89.16 46.158 89.292 45.85L86.982 45.168C86.278 46.818 85.002 48.49 83.682 49.568C84.188 49.986 85.046 50.888 85.42 51.35C86.124 50.712 86.828 49.898 87.488 48.974H89.05L88.28 49.656C89.006 50.272 89.864 51.13 90.348 51.724H84.892V53.946H92.614V55.222H86.102V57.202H101.788V55.222H95.342V53.946H103.13V51.724H100.226L101.612 50.514C101.304 50.096 100.754 49.502 100.182 48.974H104.164V46.752H98.136ZM110.61 53.902V57.95H112.986V45.41H110.61V48.688H108.96V45.916H106.782V50.668H110.61V51.878H105.924V53.902H107.156C107.134 54.716 106.892 56.256 105.704 57.18C106.298 57.422 107.244 57.95 107.684 58.302C109.136 57.092 109.444 54.936 109.444 53.902H110.61ZM116.418 52.318C118.068 52.01 119.608 51.57 120.994 50.954V52.318H116.418ZM122.38 47.874C121.918 48.358 121.346 48.776 120.708 49.15C120.29 48.732 119.806 48.27 119.322 47.874H122.38ZM126.252 61.448V59.292H122.6L123.106 58.786C122.71 58.368 122.05 57.862 121.39 57.422C121.852 57.378 122.248 57.312 122.556 57.18C123.282 56.872 123.48 56.41 123.48 55.376V54.012H125.966V52.318H123.48V50.91H121.082C122.952 50.052 124.492 48.842 125.46 47.082L124.118 46.4L123.7 46.466H120.642C120.972 46.224 121.28 45.982 121.588 45.718L119.432 45.278C118.288 46.136 116.308 46.906 113.668 47.434C114.086 47.742 114.68 48.446 114.944 48.908C115.802 48.666 116.616 48.402 117.32 48.138C117.98 48.666 118.662 49.304 119.146 49.854C117.518 50.492 115.626 50.888 113.646 51.086C113.932 51.394 114.284 51.878 114.504 52.318H113.646V54.012H115.824L114.922 54.694C115.736 55.222 116.66 56.058 117.078 56.63L118.794 55.332C118.486 54.914 117.914 54.452 117.342 54.012H120.994V55.288C120.994 55.508 120.928 55.574 120.686 55.596C120.444 55.596 119.63 55.596 118.926 55.552C119.19 56.124 119.476 56.85 119.564 57.444H120.4L119.608 58.192C120.07 58.5 120.598 58.896 121.06 59.292H117.232C117.254 59.116 117.254 58.962 117.254 58.786V57.246H114.658V58.698C114.658 58.896 114.636 59.094 114.614 59.292H105.792V61.448H113.14C111.886 62.438 109.642 63.34 105.682 63.934C106.166 64.506 106.826 65.43 107.134 66.046C112.986 65.1 115.56 63.296 116.594 61.448H117.254L116.572 62.548C119.322 63.494 123.238 64.99 125.152 65.936L126.34 63.89C124.778 63.208 122.116 62.24 119.762 61.448H126.252ZM117.628 48.886C116.352 48.974 115.274 49.062 114.35 49.128L114.57 50.448C115.56 50.338 116.572 50.228 117.65 50.118L117.628 48.886Z" fill="#5B5555"/>
<path d="M81.1856 8.78C81.1856 9.28667 81.0856 9.77333 80.8856 10.24C80.6856 10.7067 80.4256 11.16 80.1056 11.6C79.7856 12.0267 79.4256 12.44 79.0256 12.84C78.6256 13.24 78.2323 13.62 77.8456 13.98C77.6456 14.1667 77.4256 14.38 77.1856 14.62C76.959 14.8467 76.739 15.08 76.5256 15.32C76.3123 15.56 76.119 15.7867 75.9456 16C75.7856 16.2 75.6856 16.3667 75.6456 16.5H81.6056V19H72.3656C72.339 18.8533 72.3256 18.6667 72.3256 18.44C72.3256 18.2133 72.3256 18.0533 72.3256 17.96C72.3256 17.32 72.4256 16.7333 72.6256 16.2C72.839 15.6667 73.1123 15.1733 73.4456 14.72C73.779 14.2533 74.1523 13.82 74.5656 13.42C74.9923 13.02 75.4123 12.62 75.8256 12.22C76.1456 11.9133 76.4456 11.6267 76.7256 11.36C77.0056 11.08 77.2523 10.8133 77.4656 10.56C77.679 10.2933 77.8456 10.0333 77.9656 9.78C78.0856 9.51333 78.1456 9.24667 78.1456 8.98C78.1456 8.39333 77.979 7.98 77.6456 7.74C77.3123 7.5 76.899 7.38 76.4056 7.38C76.0456 7.38 75.7056 7.44 75.3856 7.56C75.079 7.66667 74.7923 7.8 74.5256 7.96C74.2723 8.10667 74.0523 8.26 73.8656 8.42C73.679 8.56667 73.539 8.68667 73.4456 8.78L71.9656 6.7C72.5523 6.15333 73.2323 5.70667 74.0056 5.36C74.7923 5 75.6323 4.82 76.5256 4.82C77.339 4.82 78.039 4.91333 78.6256 5.1C79.2123 5.28667 79.6923 5.55333 80.0656 5.9C80.4523 6.23333 80.7323 6.64667 80.9056 7.14C81.0923 7.62 81.1856 8.16667 81.1856 8.78ZM93.3128 12.04C93.3128 14.3733 92.8661 16.1667 91.9728 17.42C91.0928 18.66 89.8728 19.28 88.3128 19.28C86.7528 19.28 85.5261 18.66 84.6328 17.42C83.7528 16.1667 83.3128 14.3733 83.3128 12.04C83.3128 10.88 83.4261 9.85333 83.6528 8.96C83.8928 8.06667 84.2328 7.31333 84.6728 6.7C85.1128 6.08667 85.6395 5.62 86.2528 5.3C86.8661 4.98 87.5528 4.82 88.3128 4.82C89.8728 4.82 91.0928 5.44667 91.9728 6.7C92.8661 7.94 93.3128 9.72 93.3128 12.04ZM90.2728 12.04C90.2728 11.3467 90.2395 10.72 90.1728 10.16C90.1061 9.58667 89.9995 9.09333 89.8528 8.68C89.7061 8.26667 89.5061 7.94667 89.2528 7.72C88.9995 7.49333 88.6861 7.38 88.3128 7.38C87.9395 7.38 87.6261 7.49333 87.3728 7.72C87.1328 7.94667 86.9328 8.26667 86.7728 8.68C86.6261 9.09333 86.5195 9.58667 86.4528 10.16C86.3861 10.72 86.3528 11.3467 86.3528 12.04C86.3528 12.7333 86.3861 13.3667 86.4528 13.94C86.5195 14.5133 86.6261 15.0067 86.7728 15.42C86.9328 15.8333 87.1328 16.1533 87.3728 16.38C87.6261 16.6067 87.9395 16.72 88.3128 16.72C88.6861 16.72 88.9995 16.6067 89.2528 16.38C89.5061 16.1533 89.7061 15.8333 89.8528 15.42C89.9995 15.0067 90.1061 14.5133 90.1728 13.94C90.2395 13.3667 90.2728 12.7333 90.2728 12.04ZM103.92 8.78C103.92 9.28667 103.82 9.77333 103.62 10.24C103.42 10.7067 103.16 11.16 102.84 11.6C102.52 12.0267 102.16 12.44 101.76 12.84C101.36 13.24 100.967 13.62 100.58 13.98C100.38 14.1667 100.16 14.38 99.92 14.62C99.6933 14.8467 99.4733 15.08 99.26 15.32C99.0467 15.56 98.8533 15.7867 98.68 16C98.52 16.2 98.42 16.3667 98.38 16.5H104.34V19H95.1C95.0733 18.8533 95.06 18.6667 95.06 18.44C95.06 18.2133 95.06 18.0533 95.06 17.96C95.06 17.32 95.16 16.7333 95.36 16.2C95.5733 15.6667 95.8467 15.1733 96.18 14.72C96.5133 14.2533 96.8867 13.82 97.3 13.42C97.7267 13.02 98.1467 12.62 98.56 12.22C98.88 11.9133 99.18 11.6267 99.46 11.36C99.74 11.08 99.9867 10.8133 100.2 10.56C100.413 10.2933 100.58 10.0333 100.7 9.78C100.82 9.51333 100.88 9.24667 100.88 8.98C100.88 8.39333 100.713 7.98 100.38 7.74C100.047 7.5 99.6333 7.38 99.14 7.38C98.78 7.38 98.44 7.44 98.12 7.56C97.8133 7.66667 97.5267 7.8 97.26 7.96C97.0067 8.10667 96.7867 8.26 96.6 8.42C96.4133 8.56667 96.2733 8.68667 96.18 8.78L94.7 6.7C95.2867 6.15333 95.9667 5.70667 96.74 5.36C97.5267 5 98.3667 4.82 99.26 4.82C100.073 4.82 100.773 4.91333 101.36 5.1C101.947 5.28667 102.427 5.55333 102.8 5.9C103.187 6.23333 103.467 6.64667 103.64 7.14C103.827 7.62 103.92 8.16667 103.92 8.78ZM116.047 12.04C116.047 14.3733 115.601 16.1667 114.707 17.42C113.827 18.66 112.607 19.28 111.047 19.28C109.487 19.28 108.261 18.66 107.367 17.42C106.487 16.1667 106.047 14.3733 106.047 12.04C106.047 10.88 106.161 9.85333 106.387 8.96C106.627 8.06667 106.967 7.31333 107.407 6.7C107.847 6.08667 108.374 5.62 108.987 5.3C109.601 4.98 110.287 4.82 111.047 4.82C112.607 4.82 113.827 5.44667 114.707 6.7C115.601 7.94 116.047 9.72 116.047 12.04ZM113.007 12.04C113.007 11.3467 112.974 10.72 112.907 10.16C112.841 9.58667 112.734 9.09333 112.587 8.68C112.441 8.26667 112.241 7.94667 111.987 7.72C111.734 7.49333 111.421 7.38 111.047 7.38C110.674 7.38 110.361 7.49333 110.107 7.72C109.867 7.94667 109.667 8.26667 109.507 8.68C109.361 9.09333 109.254 9.58667 109.187 10.16C109.121 10.72 109.087 11.3467 109.087 12.04C109.087 12.7333 109.121 13.3667 109.187 13.94C109.254 14.5133 109.361 15.0067 109.507 15.42C109.667 15.8333 109.867 16.1533 110.107 16.38C110.361 16.6067 110.674 16.72 111.047 16.72C111.421 16.72 111.734 16.6067 111.987 16.38C112.241 16.1533 112.441 15.8333 112.587 15.42C112.734 15.0067 112.841 14.5133 112.907 13.94C112.974 13.3667 113.007 12.7333 113.007 12.04Z" fill="#5B5555"/>
<path d="M28.576 83.684V79.484H28.708C29.296 81.044 30.136 82.532 31.144 83.684H28.576ZM24.784 83.684C25.804 82.532 26.656 81.056 27.244 79.484H27.4V83.684H24.784ZM33.232 79.484V78.356H28.576V75.932H27.4V78.356H22.804V79.484H26.116C25.3 81.416 23.944 83.24 22.432 84.2C22.708 84.428 23.068 84.824 23.26 85.112C23.776 84.728 24.268 84.272 24.748 83.744V84.812H27.4V86.936H28.576V84.812H31.228V83.768C31.672 84.272 32.164 84.716 32.68 85.076C32.872 84.752 33.28 84.32 33.556 84.092C32.02 83.156 30.652 81.38 29.824 79.484H33.232ZM42.124 80.144C41.944 80.84 41.704 81.476 41.38 82.052C41.236 81.38 41.116 80.564 41.032 79.7H43.408V78.872H42.676L43.204 78.32C42.94 78.056 42.412 77.732 41.98 77.528L41.464 78.044C41.896 78.26 42.412 78.596 42.652 78.872H40.96C40.936 78.5 40.912 78.104 40.9 77.72H39.976C40 78.104 40.024 78.488 40.048 78.872H36.604V79.7H40.12C40.24 80.972 40.42 82.136 40.708 83.048C40.492 83.324 40.252 83.576 39.988 83.804L39.964 83.06C38.668 83.264 37.36 83.468 36.484 83.588L36.604 84.428C37.564 84.26 38.776 84.032 39.952 83.84C39.664 84.08 39.352 84.296 39.028 84.488C39.208 84.644 39.532 85.004 39.652 85.172C40.18 84.836 40.66 84.428 41.08 83.972C41.368 84.5 41.728 84.848 42.172 84.968C42.868 85.244 43.372 84.776 43.54 83.408C43.348 83.3 43.012 83.06 42.832 82.88C42.76 83.624 42.652 84.116 42.508 84.068C42.196 84.008 41.932 83.684 41.728 83.168C42.28 82.364 42.724 81.416 43.012 80.324L42.124 80.144ZM38.848 82.004H37.72V80.972H38.848V82.004ZM36.976 80.336V82.64H39.628V80.336H36.976ZM36.052 85.448V77.468H43.9V85.448H36.052ZM34.996 76.46V86.984H36.052V86.456H43.9V86.984H45.004V76.46H34.996ZM49.48 84.968V81.992H51.1V81.02H49.48V79.892H50.632V78.944H47.848C48.304 78.5 48.748 77.996 49.144 77.468C49.768 78.008 50.44 78.644 50.86 79.1L51.532 78.308C51.1 77.84 50.38 77.204 49.672 76.664C49.756 76.532 49.828 76.388 49.9 76.268L48.976 75.92C48.388 77 47.38 78.032 46.42 78.68C46.564 78.944 46.828 79.52 46.9 79.748C47.056 79.64 47.224 79.496 47.392 79.352V79.892H48.508V81.02H46.768V81.992H48.508V85.172C47.776 85.316 47.116 85.448 46.588 85.544L46.864 86.624C48.088 86.336 49.708 85.928 51.232 85.556L51.136 84.62L49.48 84.968ZM47.008 82.688C47.212 83.384 47.428 84.296 47.476 84.884L48.28 84.656C48.208 84.068 47.992 83.192 47.764 82.508L47.008 82.688ZM50.344 84.656C50.56 84.116 50.812 83.276 51.04 82.58L50.2 82.34C50.092 82.964 49.864 83.864 49.684 84.44L50.344 84.656ZM52.852 79.544H55.924V80.792H52.852V79.544ZM55.924 77.408V78.632H52.852V77.408H55.924ZM56.704 82.04C56.32 82.412 55.732 82.88 55.216 83.24C55 82.772 54.82 82.28 54.664 81.764H57.004V76.448H51.772V85.28C51.772 85.724 51.52 85.916 51.292 86.012C51.448 86.24 51.616 86.708 51.676 86.972C51.916 86.78 52.312 86.624 54.748 85.88C54.7 85.628 54.652 85.196 54.652 84.896L52.852 85.388V81.764H53.692C54.256 84.008 55.216 85.856 56.836 86.804C57.004 86.504 57.34 86.072 57.604 85.856C56.824 85.472 56.188 84.836 55.672 84.056C56.236 83.708 56.896 83.24 57.424 82.808L56.704 82.04ZM69.1 76.628H63.28V77.696H69.1V76.628ZM61.168 75.92C60.58 76.784 59.428 77.852 58.432 78.5C58.636 78.716 58.936 79.148 59.068 79.4C60.172 78.62 61.42 77.432 62.236 76.364L61.168 75.92ZM61.636 78.488C60.832 79.844 59.536 81.212 58.312 82.088C58.54 82.304 58.936 82.796 59.08 83.036C59.464 82.724 59.872 82.352 60.268 81.956V86.972H61.384V80.72C61.876 80.12 62.32 79.496 62.692 78.884L61.636 78.488ZM69.436 79.904H62.776V80.972H66.568V85.58C66.568 85.748 66.496 85.808 66.268 85.808C66.052 85.82 65.248 85.82 64.48 85.796C64.636 86.12 64.792 86.588 64.84 86.912C65.956 86.912 66.664 86.9 67.108 86.732C67.564 86.552 67.708 86.228 67.708 85.592V80.972H69.436V79.904ZM81.364 77.456H80.224C80.056 77.012 79.792 76.436 79.552 75.98L78.628 76.256C78.82 76.616 79.012 77.06 79.144 77.456H77.848V78.368H81.364V77.456ZM79.288 80.432C79.276 79.904 79.108 79.112 78.892 78.5L78.148 78.692C78.352 79.316 78.496 80.132 78.508 80.648L79.288 80.432ZM74.044 77.48H72.952C72.808 77.06 72.568 76.496 72.316 76.064L71.392 76.34C71.572 76.676 71.752 77.108 71.884 77.48H70.612V78.392H74.044V77.48ZM71.992 80.42C71.968 79.916 71.824 79.136 71.62 78.548L70.876 78.728C71.068 79.34 71.2 80.132 71.2 80.636L71.992 80.42ZM73.888 83.756V82.844H72.784V81.596H74.092V80.684H73.18C73.36 80.096 73.564 79.34 73.756 78.668L72.892 78.488C72.808 79.136 72.592 80.06 72.412 80.684H70.528V81.596H71.8V82.844H70.672V83.756H71.776C71.716 84.644 71.476 85.64 70.612 86.264C70.828 86.432 71.128 86.768 71.272 86.984C72.328 86.132 72.676 84.884 72.76 83.756H73.888ZM77.38 78.596H75.808C75.832 77.744 75.844 76.868 75.844 75.944H74.968C74.968 76.856 74.968 77.744 74.956 78.596H74.284V79.556H74.932C74.824 82.4 74.464 84.74 73.36 86.312C73.552 86.468 73.96 86.804 74.08 86.972C75.28 85.124 75.652 82.64 75.784 79.556H76.468C76.408 83.888 76.348 85.364 76.168 85.676C76.084 85.832 76 85.868 75.868 85.868C75.712 85.868 75.424 85.868 75.1 85.844C75.232 86.096 75.328 86.492 75.34 86.756C75.712 86.768 76.06 86.78 76.3 86.732C76.6 86.684 76.792 86.576 76.972 86.276C77.248 85.82 77.308 84.164 77.38 79.064V78.596ZM81.508 81.608V80.696H80.596C80.776 80.096 80.98 79.316 81.136 78.644L80.284 78.452C80.2 79.1 79.984 80.06 79.792 80.696H77.8V81.608H79.168V83.024H78.016V83.936H79.168V86.924H80.176V83.936H81.364V83.024H80.176V81.608H81.508ZM86.284 83.444C85.876 83.588 85.444 83.72 85.036 83.852V81.14H86.176V80.108H85.036V77.72H86.368V76.688H82.552V77.72H83.968V80.108H82.672V81.14H83.968V84.188C83.392 84.368 82.864 84.512 82.432 84.632L82.696 85.772C83.776 85.424 85.168 84.956 86.476 84.5L86.284 83.444ZM87.904 79.604H89.476V80.924H87.904V79.604ZM87.904 77.42H89.476V78.716H87.904V77.42ZM91.96 78.716H90.424V77.42H91.96V78.716ZM91.96 80.924H90.424V79.604H91.96V80.924ZM90.52 85.544V84.116H93.184V83.108H90.52V81.872H93.028V76.472H86.884V81.872H89.38V83.108H86.776V84.116H89.38V85.544H85.9V86.564H93.568V85.544H90.52ZM100.036 77.156H98.224C98.068 76.76 97.828 76.256 97.624 75.848L96.52 76.136C96.664 76.436 96.82 76.82 96.952 77.156H94.756V78.08H100.036V77.156ZM95.596 83.324C95.344 84.092 94.936 84.908 94.492 85.472C94.72 85.592 95.08 85.856 95.26 86C95.692 85.388 96.172 84.428 96.472 83.588L95.596 83.324ZM100.06 82.808V81.86H98.02V80.768H100.228V79.832H98.824C99.028 79.388 99.232 78.836 99.436 78.308L98.404 78.092C98.284 78.596 98.032 79.328 97.816 79.832H95.92L96.808 79.58C96.748 79.184 96.556 78.572 96.364 78.104L95.452 78.332C95.656 78.8 95.824 79.424 95.872 79.832H94.564V80.768H96.94V81.86H94.636V82.808H96.94V86.876H98.02V82.808H100.06ZM98.44 83.636C98.8 84.212 99.208 84.992 99.4 85.496L100.18 85.028C99.988 84.548 99.58 83.792 99.184 83.228L98.44 83.636ZM105.496 79.916H101.776V77.816C103 77.6 104.296 77.312 105.28 76.928L104.404 76.112C103.54 76.484 102.064 76.856 100.732 77.084V81.236C100.732 82.808 100.648 84.836 99.7 86.228C99.928 86.348 100.384 86.684 100.552 86.888C101.62 85.364 101.776 82.964 101.776 81.236V80.948H103.18V86.888H104.272V80.948H105.496V79.916ZM111.508 80.444V81.08H108.508V80.444H111.508ZM108.46 82.448C108.472 82.22 108.484 81.992 108.496 81.776H111.508V82.448H108.46ZM111.82 84.512V85.592H109.24V84.512H111.82ZM112.516 83.252V79.64H107.464V81.152C107.464 82.508 107.356 84.548 106.42 86.024C106.696 86.12 107.176 86.336 107.38 86.492C107.848 85.724 108.124 84.788 108.292 83.864V86.876H109.24V86.444H111.82V86.852H112.804V83.72H108.304C108.328 83.564 108.352 83.408 108.376 83.252H112.516ZM109.876 75.98C109.132 77.144 107.776 78.14 106.432 78.764C106.624 79.004 106.924 79.556 107.032 79.808C107.656 79.472 108.28 79.064 108.868 78.596V79.124H111.352V78.428H109.06C109.42 78.128 109.756 77.804 110.068 77.468C110.992 78.056 112.072 78.764 112.648 79.232L113.224 78.296C112.66 77.864 111.604 77.216 110.692 76.676C110.764 76.568 110.836 76.472 110.896 76.364L109.876 75.98ZM114.748 77.216H113.704V83.816H114.748V77.216ZM115.9 75.98V85.532C115.9 85.748 115.828 85.808 115.624 85.808C115.432 85.82 114.808 85.82 114.124 85.796C114.28 86.108 114.436 86.612 114.484 86.912C115.456 86.912 116.08 86.876 116.452 86.684C116.836 86.516 116.98 86.192 116.98 85.544V75.98H115.9ZM121.012 82.496V81.764H123.388V82.496H121.012ZM121.012 80.312H123.388V81.056H121.012V80.312ZM127.024 80.312V81.056H124.504V80.312H127.024ZM127.024 82.496H124.504V81.764H127.024V82.496ZM124.504 85.688V84.836H128.608V83.96H124.504V83.276H128.164V79.544H124.504V78.932H129.292V78.044H124.504V77.252C125.86 77.156 127.144 77.024 128.176 76.844L127.612 75.968C125.68 76.304 122.38 76.52 119.62 76.592C119.704 76.82 119.836 77.204 119.848 77.468C120.964 77.444 122.188 77.408 123.388 77.336V78.044H118.72V78.932H123.388V79.544H119.92V83.276H123.388V83.96H119.548V84.836H123.388V85.688H118.66V86.588H129.376V85.688H124.504ZM134.2 79.496C134.404 79.052 134.632 78.32 134.86 77.72L134.248 77.492C134.152 78.02 133.936 78.836 133.756 79.328L134.2 79.496ZM131.872 77.66C132.064 78.224 132.196 78.968 132.22 79.448L132.76 79.28C132.736 78.824 132.568 78.08 132.376 77.528L131.872 77.66ZM131.776 77.108H132.94V79.868H131.776V77.108ZM134.884 79.868H133.66V77.108H134.884V79.868ZM130.66 84.02C132.064 83.936 134.056 83.84 135.964 83.708L136 82.82C135.268 82.856 134.524 82.892 133.804 82.928V82.196H135.796V81.332H133.804V80.648H135.76V76.328H130.936V80.648H132.808V81.332H130.888V82.196H132.808V82.976C131.98 83.012 131.224 83.036 130.612 83.06L130.66 84.02ZM131.128 86.948C131.632 86.408 131.836 85.496 131.968 84.62L131.2 84.416C131.092 85.208 130.852 86.06 130.396 86.552L131.128 86.948ZM132.22 84.452C132.364 85.124 132.472 85.976 132.472 86.54L133.216 86.444C133.216 85.88 133.096 85.028 132.916 84.38L132.22 84.452ZM133.372 84.404C133.624 85.028 133.864 85.832 133.924 86.36L134.644 86.192C134.56 85.664 134.32 84.872 134.056 84.272L133.372 84.404ZM134.524 84.272C134.908 84.836 135.304 85.616 135.46 86.132L136.192 85.82C136.024 85.316 135.616 84.56 135.196 84.008L134.524 84.272ZM140.008 85.4H137.344V82.58H140.008V85.4ZM141.52 79.508V78.476H139.072V75.944H137.992V81.56H136.324V86.936H137.344V86.42H140.008V86.888H141.064V81.56H139.072V79.508H141.52ZM145.816 80.048C146.752 79.844 147.76 79.604 148.744 79.304C149.608 79.568 150.424 79.82 151.06 80.048H145.816ZM150.652 77.852C150.148 78.104 149.512 78.332 148.804 78.548C147.892 78.296 146.944 78.056 146.068 77.852H150.652ZM149.572 85.688V84.704H152.368V83.828H149.572V82.952H152.68V82.064H149.572V81.176H148.468V82.064H146.68C146.788 81.836 146.884 81.62 146.968 81.392L146.008 81.116C145.684 82.028 145.12 82.892 144.484 83.492C144.52 83.108 144.532 82.736 144.532 82.388V80.96H153.328V80.048H151.588L152.14 79.568C151.552 79.364 150.808 79.124 150.004 78.896C150.628 78.668 151.204 78.428 151.696 78.188L151.168 77.852H152.956V76.976H148.888C148.696 76.616 148.348 76.16 148.048 75.824L147.268 76.196C147.46 76.424 147.652 76.7 147.82 76.976H143.548V77.852H145.528L144.916 78.32C145.708 78.488 146.572 78.704 147.436 78.944C146.452 79.184 145.408 79.412 144.496 79.568C144.64 79.676 144.832 79.88 144.988 80.048H143.452V82.376C143.452 83.588 143.344 85.208 142.384 86.36C142.6 86.468 143.068 86.864 143.236 87.068C144.064 86.096 144.376 84.728 144.484 83.492C144.664 83.72 144.94 84.272 145.024 84.476C145.456 84.08 145.864 83.54 146.212 82.952H148.468V83.828H145.804V84.704H148.468V85.688H144.7V86.6H153.496V85.688H149.572ZM158.164 84.668C157.396 85.16 155.944 85.604 154.732 85.784C154.96 85.988 155.248 86.36 155.404 86.6C156.64 86.324 158.14 85.7 158.98 85.052L158.164 84.668ZM161.188 85.16C162.28 85.58 163.744 86.216 164.488 86.588L165.232 85.94C164.428 85.556 162.964 84.98 161.908 84.596L161.188 85.16ZM161.824 78.872C161.656 79.184 161.38 79.64 161.152 79.94L161.584 80.072H158.308L158.848 79.928C158.752 79.652 158.524 79.208 158.284 78.872H161.824ZM160.528 83.228V82.508H164.212V81.668H160.528V80.948H164.776V80.072H162.232C162.472 79.796 162.748 79.472 163.012 79.112L162.076 78.872H165.22V77.984H163.504C163.816 77.54 164.176 76.94 164.5 76.352L163.348 76.052C163.168 76.592 162.796 77.348 162.508 77.828L162.976 77.984H161.668V75.92H160.612V77.984H159.424V75.92H158.38V77.984H157.036L157.672 77.744C157.504 77.276 157.084 76.544 156.712 76.028L155.74 76.364C156.076 76.856 156.436 77.516 156.616 77.984H154.828V78.872H157.888L157.192 79.04C157.396 79.352 157.6 79.772 157.72 80.072H155.308V80.948H159.436V81.668H155.896V82.508H159.436V83.228H154.78V84.164H159.436V86.948H160.528V84.164H165.256V83.228H160.528ZM58.6863 93.492C58.5783 93.06 58.3143 92.4 58.0743 91.896L57.0903 92.16C57.3063 92.664 57.5583 93.36 57.6663 93.792L58.6863 93.492ZM62.2383 95.16H64.1943C63.9903 96.504 63.6903 97.644 63.2223 98.64C62.7663 97.632 62.4423 96.492 62.2023 95.244L62.2383 95.16ZM66.1743 95.16V94.128H62.5623C62.7303 93.48 62.8863 92.796 63.0183 92.112L61.8783 91.932C61.5423 93.936 60.9303 95.868 59.9943 97.092L60.0063 96.732C60.0183 96.588 60.0183 96.252 60.0183 96.252H57.5703V94.848H60.4743V93.804H55.2183V94.848H56.5263V97.248C56.5263 98.868 56.3463 100.68 54.9663 102.192C55.2423 102.384 55.6023 102.684 55.7943 102.924C57.3303 101.256 57.5703 99.228 57.5703 97.272H58.9383C58.8783 100.344 58.7943 101.448 58.6023 101.7C58.5303 101.832 58.4223 101.868 58.2543 101.868C58.0623 101.868 57.6663 101.868 57.2343 101.82C57.3783 102.108 57.4863 102.54 57.5223 102.84C58.0143 102.864 58.5183 102.864 58.8063 102.816C59.1423 102.768 59.3463 102.66 59.5503 102.384C59.8383 101.988 59.9223 100.728 59.9943 97.284C60.2583 97.512 60.6063 97.884 60.7623 98.088C61.0383 97.716 61.3023 97.296 61.5303 96.828C61.8063 97.908 62.1423 98.904 62.5863 99.768C61.9263 100.728 61.0263 101.472 59.8503 102.012C60.0663 102.228 60.3783 102.732 60.4863 102.984C61.6023 102.408 62.4903 101.688 63.1983 100.8C63.8103 101.688 64.5663 102.408 65.5383 102.912C65.6943 102.6 66.0543 102.168 66.2943 101.952C65.2863 101.484 64.4823 100.728 63.8583 99.78C64.5543 98.52 65.0103 97.008 65.3103 95.16H66.1743ZM72.4383 96.432H67.6743V97.344H72.4383V96.936C72.7023 97.104 73.0623 97.356 73.2303 97.512C73.6263 96.852 73.9503 96.036 74.2263 95.1H76.8543C76.7103 95.88 76.5063 96.66 76.3143 97.212L77.2263 97.488C77.5383 96.66 77.8863 95.388 78.1023 94.272L77.3463 94.044L77.1783 94.092H74.4783C74.6223 93.456 74.7423 92.784 74.8383 92.1L73.7463 91.956C73.5303 93.744 73.1343 95.472 72.4383 96.66V96.432ZM69.5223 94.764H67.5663V95.676H72.5583V94.764H70.5663V93.912H72.8103V93H70.5663V92.004H69.5223V93H67.2903V93.912H69.5223V94.764ZM68.0343 99.36C67.7943 100.176 67.4223 101.1 67.0263 101.724C67.2783 101.808 67.6983 102 67.9023 102.132C68.2623 101.472 68.6703 100.476 68.9583 99.588L68.0343 99.36ZM72.9303 99.036V98.112H67.1343V99.036H69.5343V102.936H70.5903V99.036H72.9303ZM71.1183 99.684C71.4303 100.296 71.7783 101.1 71.9223 101.604L72.8223 101.196C72.6543 100.728 72.2823 99.936 71.9583 99.348L71.1183 99.684ZM75.7143 95.94H74.6583V96.492C74.6583 98.064 74.4783 100.404 72.4143 102.216C72.6903 102.372 73.0743 102.732 73.2663 102.972C74.3463 102 74.9463 100.872 75.2943 99.768C75.7743 101.16 76.4943 102.276 77.5383 102.924C77.7063 102.636 78.0423 102.216 78.2943 101.988C76.9143 101.256 76.0743 99.588 75.6783 97.668C75.7023 97.248 75.7143 96.876 75.7143 96.528V95.94ZM89.8983 95.016V93.924H84.9663L85.7703 93.576C85.6023 93.096 85.2303 92.376 84.9183 91.836L83.8263 92.244C84.1023 92.76 84.4263 93.444 84.5823 93.924H79.4463V95.016H82.5903C82.4703 97.656 82.1943 100.572 79.2183 102.084C79.5183 102.312 79.8663 102.696 80.0343 102.996C82.2543 101.796 83.1303 99.864 83.5143 97.8H87.5583C87.3663 100.248 87.1503 101.364 86.8143 101.64C86.6583 101.76 86.5023 101.784 86.2383 101.784C85.9023 101.784 85.0863 101.772 84.2343 101.7C84.4623 102.012 84.6183 102.468 84.6303 102.792C85.4343 102.84 86.2143 102.852 86.6583 102.816C87.1623 102.768 87.4743 102.672 87.7983 102.348C88.2783 101.856 88.5063 100.536 88.7343 97.224C88.7703 97.068 88.7823 96.72 88.7823 96.72H83.6823C83.7543 96.156 83.7903 95.58 83.8263 95.016H89.8983ZM100.65 94.548H101.718V92.784H97.3983C97.2423 92.496 97.0263 92.172 96.8703 91.908L95.7183 92.172C95.8143 92.364 95.9343 92.568 96.0543 92.784H91.6383V94.548H92.6703V93.72H100.65V94.548ZM98.0823 95.832C97.7463 96.204 97.3263 96.528 96.8223 96.78C96.1143 96.636 95.3823 96.504 94.6503 96.384C94.8303 96.204 95.0223 96.024 95.2143 95.832H98.0823ZM101.826 98.052C100.878 97.74 99.6303 97.404 98.2383 97.08C98.7183 96.744 99.1143 96.324 99.4383 95.832H101.898V94.944H99.9063C99.9783 94.764 100.05 94.584 100.11 94.392L99.0183 94.164C98.9223 94.44 98.8263 94.704 98.6943 94.944H96.0183C96.2823 94.644 96.5103 94.344 96.7143 94.056L95.6583 93.72C95.4063 94.116 95.1063 94.524 94.7583 94.944H91.4343V95.832H93.9783C93.5943 96.228 93.2223 96.624 92.8863 96.924C93.6663 97.044 94.4463 97.188 95.2023 97.332C94.1583 97.56 92.9103 97.68 91.3863 97.74C91.5423 97.98 91.6983 98.34 91.7823 98.664C94.0383 98.52 95.7783 98.268 97.0743 97.728C98.5623 98.052 99.8223 98.424 100.746 98.772L101.826 98.052ZM94.1343 100.272C93.5343 100.932 92.4303 101.532 91.3863 101.892C91.6623 102.072 92.1063 102.432 92.3223 102.648C93.3423 102.192 94.5423 101.448 95.2383 100.632L94.1343 100.272ZM102.018 99.204H97.1823V98.292H96.0663V99.204H91.3263V100.128H96.0663V102.936H97.1823V100.128H98.7183L97.9623 100.824C99.0183 101.34 100.362 102.168 101.01 102.744L101.862 101.952C101.166 101.376 99.7983 100.608 98.7543 100.128H102.018V99.204ZM108.194 104.388L109.058 104.004C108.026 102.288 107.546 100.26 107.546 98.244C107.546 96.24 108.026 94.212 109.058 92.484L108.194 92.112C107.078 93.924 106.418 95.88 106.418 98.244C106.418 100.632 107.078 102.564 108.194 104.388ZM112.111 98.388L112.471 97.2C112.759 96.24 113.035 95.268 113.287 94.26H113.335C113.611 95.256 113.875 96.24 114.175 97.2L114.523 98.388H112.111ZM115.603 102H117.079L114.151 93.168H112.543L109.615 102H111.031L111.787 99.48H114.859L115.603 102ZM122.372 98.928C122.24 98.292 121.916 97.248 121.592 96.444L120.752 96.696C120.872 97.008 120.992 97.368 121.088 97.716L119.312 97.944C120.284 96.888 121.244 95.58 122.024 94.272L121.076 93.696C120.812 94.224 120.5 94.752 120.176 95.232L119.012 95.328C119.672 94.464 120.332 93.36 120.848 92.292L119.852 91.872C119.348 93.168 118.496 94.524 118.244 94.86C117.98 95.22 117.776 95.46 117.548 95.508C117.668 95.784 117.824 96.276 117.884 96.48C118.064 96.396 118.328 96.336 119.504 96.204C119.096 96.768 118.748 97.212 118.556 97.404C118.172 97.824 117.884 98.112 117.62 98.184C117.74 98.46 117.908 98.988 117.968 99.204C118.22 99.06 118.64 98.964 121.328 98.568C121.4 98.82 121.448 99.048 121.484 99.24L122.372 98.928ZM118.1 99.648C118.004 100.62 117.836 101.676 117.572 102.396C117.8 102.468 118.256 102.612 118.46 102.72C118.724 101.976 118.928 100.848 119.024 99.816L118.1 99.648ZM119.54 99.78C119.684 100.596 119.816 101.676 119.84 102.372L120.752 102.18C120.704 101.472 120.56 100.428 120.416 99.612L119.54 99.78ZM120.896 99.54C121.1 100.176 121.352 101.016 121.448 101.556L122.312 101.256C122.204 100.716 121.952 99.912 121.712 99.288L120.896 99.54ZM123.896 99.6H126.728V101.712H123.896V99.6ZM126.728 93.552V95.556H123.896V93.552H126.728ZM126.728 98.604H123.896V96.552H126.728V98.604ZM127.796 101.712V92.532H122.876V101.712H121.88V102.72H128.576V101.712H127.796ZM130.496 104.388C131.624 102.564 132.284 100.632 132.284 98.244C132.284 95.88 131.624 93.924 130.496 92.112L129.632 92.484C130.664 94.212 131.144 96.24 131.144 98.244C131.144 100.26 130.664 102.288 129.632 104.004L130.496 104.388Z" fill="#5B5555"/>
<defs>
<linearGradient id="paint0_linear" x1="81.0014" y1="146.157" x2="81.4141" y2="158.263" gradientUnits="userSpaceOnUse">
<stop stop-color="#FFBA42"/>
<stop offset="0.526042" stop-color="#FFC800"/>
<stop offset="1" stop-color="#FFCE00"/>
</linearGradient>
<linearGradient id="paint1_linear" x1="79.801" y1="157.366" x2="80.0857" y2="165.715" gradientUnits="userSpaceOnUse">
<stop stop-color="#FFBA42"/>
<stop offset="0.526042" stop-color="#FFC800"/>
<stop offset="1" stop-color="#FFCE00"/>
</linearGradient>
<linearGradient id="paint2_linear" x1="64.1474" y1="140.905" x2="64.6272" y2="154.979" gradientUnits="userSpaceOnUse">
<stop stop-color="#FFBA42"/>
<stop offset="0.526042" stop-color="#FFC800"/>
<stop offset="1" stop-color="#FFCE00"/>
</linearGradient>
<linearGradient id="paint3_linear" x1="61.7219" y1="153.193" x2="61.9823" y2="160.83" gradientUnits="userSpaceOnUse">
<stop stop-color="#FFBA42"/>
<stop offset="0.526042" stop-color="#FFC800"/>
<stop offset="1" stop-color="#FFCE00"/>
</linearGradient>
<linearGradient id="paint4_linear" x1="50.7014" y1="133.482" x2="51.2472" y2="149.488" gradientUnits="userSpaceOnUse">
<stop stop-color="#FFBA42"/>
<stop offset="0.526042" stop-color="#FFC800"/>
<stop offset="1" stop-color="#FFCE00"/>
</linearGradient>
<linearGradient id="paint5_linear" x1="46.9125" y1="146.393" x2="47.1613" y2="153.69" gradientUnits="userSpaceOnUse">
<stop stop-color="#FFBA42"/>
<stop offset="0.526042" stop-color="#FFC800"/>
<stop offset="1" stop-color="#FFCE00"/>
</linearGradient>
<linearGradient id="paint6_linear" x1="37.9269" y1="122.194" x2="38.5468" y2="140.374" gradientUnits="userSpaceOnUse">
<stop stop-color="#FFBA42"/>
<stop offset="0.526042" stop-color="#FFC800"/>
<stop offset="1" stop-color="#FFCE00"/>
</linearGradient>
<linearGradient id="paint7_linear" x1="32.2136" y1="134.806" x2="32.4743" y2="142.451" gradientUnits="userSpaceOnUse">
<stop stop-color="#FFBA42"/>
<stop offset="0.526042" stop-color="#FFC800"/>
<stop offset="1" stop-color="#FFCE00"/>
</linearGradient>
<linearGradient id="paint8_linear" x1="28.2492" y1="109.742" x2="28.9056" y2="128.992" gradientUnits="userSpaceOnUse">
<stop stop-color="#FFBA42"/>
<stop offset="0.526042" stop-color="#FFC800"/>
<stop offset="1" stop-color="#FFCE00"/>
</linearGradient>
<linearGradient id="paint9_linear" x1="20.9694" y1="120.542" x2="21.2818" y2="129.705" gradientUnits="userSpaceOnUse">
<stop stop-color="#FFBA42"/>
<stop offset="0.526042" stop-color="#FFC800"/>
<stop offset="1" stop-color="#FFCE00"/>
</linearGradient>
<linearGradient id="paint10_linear" x1="20.0104" y1="94.9043" x2="20.669" y2="114.22" gradientUnits="userSpaceOnUse">
<stop stop-color="#FFBA42"/>
<stop offset="0.526042" stop-color="#FFC800"/>
<stop offset="1" stop-color="#FFCE00"/>
</linearGradient>
<linearGradient id="paint11_linear" x1="11.6996" y1="102.921" x2="12.0951" y2="114.521" gradientUnits="userSpaceOnUse">
<stop stop-color="#FFBA42"/>
<stop offset="0.526042" stop-color="#FFC800"/>
<stop offset="1" stop-color="#FFCE00"/>
</linearGradient>
<linearGradient id="paint12_linear" x1="15.6529" y1="81.0414" x2="16.2945" y2="99.8587" gradientUnits="userSpaceOnUse">
<stop stop-color="#FFBA42"/>
<stop offset="0.526042" stop-color="#FFC800"/>
<stop offset="1" stop-color="#FFCE00"/>
</linearGradient>
<linearGradient id="paint13_linear" x1="6.74649" y1="86.2729" x2="7.22028" y2="100.168" gradientUnits="userSpaceOnUse">
<stop stop-color="#FFBA42"/>
<stop offset="0.526042" stop-color="#FFC800"/>
<stop offset="1" stop-color="#FFCE00"/>
</linearGradient>
<linearGradient id="paint14_linear" x1="15.0344" y1="65.8193" x2="15.6184" y2="82.9461" gradientUnits="userSpaceOnUse">
<stop stop-color="#FFBA42"/>
<stop offset="0.526042" stop-color="#FFC800"/>
<stop offset="1" stop-color="#FFCE00"/>
</linearGradient>
<linearGradient id="paint15_linear" x1="5.65433" y1="66.5062" x2="6.22576" y2="83.2654" gradientUnits="userSpaceOnUse">
<stop stop-color="#FFBA42"/>
<stop offset="0.526042" stop-color="#FFC800"/>
<stop offset="1" stop-color="#FFCE00"/>
</linearGradient>
<linearGradient id="paint16_linear" x1="17.7083" y1="50.9292" x2="18.2032" y2="65.4422" gradientUnits="userSpaceOnUse">
<stop stop-color="#FFBA42"/>
<stop offset="0.526042" stop-color="#FFC800"/>
<stop offset="1" stop-color="#FFCE00"/>
</linearGradient>
<linearGradient id="paint17_linear" x1="8.4014" y1="47.1761" x2="9.03488" y2="65.7551" gradientUnits="userSpaceOnUse">
<stop stop-color="#FFBA42"/>
<stop offset="0.526042" stop-color="#FFC800"/>
<stop offset="1" stop-color="#FFCE00"/>
</linearGradient>
<linearGradient id="paint18_linear" x1="23.4209" y1="39.1482" x2="23.8045" y2="50.3994" gradientUnits="userSpaceOnUse">
<stop stop-color="#FFBA42"/>
<stop offset="0.526042" stop-color="#FFC800"/>
<stop offset="1" stop-color="#FFCE00"/>
</linearGradient>
<linearGradient id="paint19_linear" x1="14.6836" y1="31.3155" x2="15.3433" y2="50.6641" gradientUnits="userSpaceOnUse">
<stop stop-color="#FFBA42"/>
<stop offset="0.526042" stop-color="#FFC800"/>
<stop offset="1" stop-color="#FFCE00"/>
</linearGradient>
<linearGradient id="paint20_linear" x1="30.4024" y1="28.1239" x2="30.7204" y2="37.4514" gradientUnits="userSpaceOnUse">
<stop stop-color="#FFBA42"/>
<stop offset="0.526042" stop-color="#FFC800"/>
<stop offset="1" stop-color="#FFCE00"/>
</linearGradient>
<linearGradient id="paint21_linear" x1="22.3439" y1="18.0421" x2="23.0015" y2="37.3288" gradientUnits="userSpaceOnUse">
<stop stop-color="#FFBA42"/>
<stop offset="0.526042" stop-color="#FFC800"/>
<stop offset="1" stop-color="#FFCE00"/>
</linearGradient>
<linearGradient id="paint22_linear" x1="114.507" y1="144.294" x2="114.92" y2="156.4" gradientUnits="userSpaceOnUse">
<stop stop-color="#FFBA42"/>
<stop offset="0.526042" stop-color="#FFC800"/>
<stop offset="1" stop-color="#FFCE00"/>
</linearGradient>
<linearGradient id="paint23_linear" x1="116.441" y1="155.396" x2="116.725" y2="163.746" gradientUnits="userSpaceOnUse">
<stop stop-color="#FFBA42"/>
<stop offset="0.526042" stop-color="#FFC800"/>
<stop offset="1" stop-color="#FFCE00"/>
</linearGradient>
<linearGradient id="paint24_linear" x1="128.937" y1="138.697" x2="129.417" y2="152.77" gradientUnits="userSpaceOnUse">
<stop stop-color="#FFBA42"/>
<stop offset="0.526042" stop-color="#FFC800"/>
<stop offset="1" stop-color="#FFCE00"/>
</linearGradient>
<linearGradient id="paint25_linear" x1="132.167" y1="150.791" x2="132.427" y2="158.428" gradientUnits="userSpaceOnUse">
<stop stop-color="#FFBA42"/>
<stop offset="0.526042" stop-color="#FFC800"/>
<stop offset="1" stop-color="#FFCE00"/>
</linearGradient>
<linearGradient id="paint26_linear" x1="141.827" y1="129.834" x2="142.373" y2="145.839" gradientUnits="userSpaceOnUse">
<stop stop-color="#FFBA42"/>
<stop offset="0.526042" stop-color="#FFC800"/>
<stop offset="1" stop-color="#FFCE00"/>
</linearGradient>
<linearGradient id="paint27_linear" x1="146.457" y1="142.456" x2="146.706" y2="149.753" gradientUnits="userSpaceOnUse">
<stop stop-color="#FFBA42"/>
<stop offset="0.526042" stop-color="#FFC800"/>
<stop offset="1" stop-color="#FFCE00"/>
</linearGradient>
<linearGradient id="paint28_linear" x1="153.428" y1="117.971" x2="154.048" y2="136.151" gradientUnits="userSpaceOnUse">
<stop stop-color="#FFBA42"/>
<stop offset="0.526042" stop-color="#FFC800"/>
<stop offset="1" stop-color="#FFCE00"/>
</linearGradient>
<linearGradient id="paint29_linear" x1="159.96" y1="130.167" x2="160.221" y2="137.811" gradientUnits="userSpaceOnUse">
<stop stop-color="#FFBA42"/>
<stop offset="0.526042" stop-color="#FFC800"/>
<stop offset="1" stop-color="#FFCE00"/>
</linearGradient>
<linearGradient id="paint30_linear" x1="162.737" y1="104.111" x2="163.394" y2="123.362" gradientUnits="userSpaceOnUse">
<stop stop-color="#FFBA42"/>
<stop offset="0.526042" stop-color="#FFC800"/>
<stop offset="1" stop-color="#FFCE00"/>
</linearGradient>
<linearGradient id="paint31_linear" x1="170.71" y1="114.392" x2="171.022" y2="123.554" gradientUnits="userSpaceOnUse">
<stop stop-color="#FFBA42"/>
<stop offset="0.526042" stop-color="#FFC800"/>
<stop offset="1" stop-color="#FFCE00"/>
</linearGradient>
<linearGradient id="paint32_linear" x1="169.131" y1="89.5537" x2="169.79" y2="108.87" gradientUnits="userSpaceOnUse">
<stop stop-color="#FFBA42"/>
<stop offset="0.526042" stop-color="#FFC800"/>
<stop offset="1" stop-color="#FFCE00"/>
</linearGradient>
<linearGradient id="paint33_linear" x1="177.95" y1="96.9864" x2="178.345" y2="108.587" gradientUnits="userSpaceOnUse">
<stop stop-color="#FFBA42"/>
<stop offset="0.526042" stop-color="#FFC800"/>
<stop offset="1" stop-color="#FFCE00"/>
</linearGradient>
<linearGradient id="paint34_linear" x1="172.566" y1="75.4008" x2="173.208" y2="94.2189" gradientUnits="userSpaceOnUse">
<stop stop-color="#FFBA42"/>
<stop offset="0.526042" stop-color="#FFC800"/>
<stop offset="1" stop-color="#FFCE00"/>
</linearGradient>
<linearGradient id="paint35_linear" x1="181.796" y1="80.0136" x2="182.269" y2="93.9091" gradientUnits="userSpaceOnUse">
<stop stop-color="#FFBA42"/>
<stop offset="0.526042" stop-color="#FFC800"/>
<stop offset="1" stop-color="#FFCE00"/>
</linearGradient>
<linearGradient id="paint36_linear" x1="172.127" y1="60.6811" x2="172.711" y2="77.8071" gradientUnits="userSpaceOnUse">
<stop stop-color="#FFBA42"/>
<stop offset="0.526042" stop-color="#FFC800"/>
<stop offset="1" stop-color="#FFCE00"/>
</linearGradient>
<linearGradient id="paint37_linear" x1="181.532" y1="60.7279" x2="182.103" y2="77.4871" gradientUnits="userSpaceOnUse">
<stop stop-color="#FFBA42"/>
<stop offset="0.526042" stop-color="#FFC800"/>
<stop offset="1" stop-color="#FFCE00"/>
</linearGradient>
<linearGradient id="paint38_linear" x1="168.352" y1="46.0005" x2="168.847" y2="60.5144" gradientUnits="userSpaceOnUse">
<stop stop-color="#FFBA42"/>
<stop offset="0.526042" stop-color="#FFC800"/>
<stop offset="1" stop-color="#FFCE00"/>
</linearGradient>
<linearGradient id="paint39_linear" x1="177.391" y1="41.6224" x2="178.024" y2="60.2014" gradientUnits="userSpaceOnUse">
<stop stop-color="#FFBA42"/>
<stop offset="0.526042" stop-color="#FFC800"/>
<stop offset="1" stop-color="#FFCE00"/>
</linearGradient>
<linearGradient id="paint40_linear" x1="162.041" y1="34.8455" x2="162.425" y2="46.0975" gradientUnits="userSpaceOnUse">
<stop stop-color="#FFBA42"/>
<stop offset="0.526042" stop-color="#FFC800"/>
<stop offset="1" stop-color="#FFCE00"/>
</linearGradient>
<linearGradient id="paint41_linear" x1="170.243" y1="26.4341" x2="170.903" y2="45.7835" gradientUnits="userSpaceOnUse">
<stop stop-color="#FFBA42"/>
<stop offset="0.526042" stop-color="#FFC800"/>
<stop offset="1" stop-color="#FFCE00"/>
</linearGradient>
<linearGradient id="paint42_linear" x1="153.954" y1="24.42" x2="154.272" y2="33.7473" gradientUnits="userSpaceOnUse">
<stop stop-color="#FFBA42"/>
<stop offset="0.526042" stop-color="#FFC800"/>
<stop offset="1" stop-color="#FFCE00"/>
</linearGradient>
<linearGradient id="paint43_linear" x1="161.331" y1="13.8133" x2="161.989" y2="33.0993" gradientUnits="userSpaceOnUse">
<stop stop-color="#FFBA42"/>
<stop offset="0.526042" stop-color="#FFC800"/>
<stop offset="1" stop-color="#FFCE00"/>
</linearGradient>
<linearGradient id="paint44_linear" x1="92.0208" y1="18.1225" x2="96.8045" y2="158.424" gradientUnits="userSpaceOnUse">
<stop stop-color="#FFBA42"/>
<stop offset="0.526042" stop-color="#FFC800"/>
<stop offset="1" stop-color="#FFCE00"/>
</linearGradient>
<linearGradient id="paint45_linear" x1="42.0301" y1="18.1318" x2="42.2919" y2="25.8098" gradientUnits="userSpaceOnUse">
<stop stop-color="#FFBA42"/>
<stop offset="0.526042" stop-color="#FFC800"/>
<stop offset="1" stop-color="#FFCE00"/>
</linearGradient>
<linearGradient id="paint46_linear" x1="35.4348" y1="5.98173" x2="36.0567" y2="24.2222" gradientUnits="userSpaceOnUse">
<stop stop-color="#FFBA42"/>
<stop offset="0.526042" stop-color="#FFC800"/>
<stop offset="1" stop-color="#FFCE00"/>
</linearGradient>
<linearGradient id="paint47_linear" x1="142.248" y1="14.7148" x2="142.51" y2="22.3928" gradientUnits="userSpaceOnUse">
<stop stop-color="#FFBA42"/>
<stop offset="0.526042" stop-color="#FFC800"/>
<stop offset="1" stop-color="#FFCE00"/>
</linearGradient>
<linearGradient id="paint48_linear" x1="148.03" y1="2.14285" x2="148.652" y2="20.3833" gradientUnits="userSpaceOnUse">
<stop stop-color="#FFBA42"/>
<stop offset="0.526042" stop-color="#FFC800"/>
<stop offset="1" stop-color="#FFCE00"/>
</linearGradient>
</defs>
</svg>
