<svg width="189" height="167" viewBox="0 0 189 167" fill="none" xmlns="http://www.w3.org/2000/svg">
<path d="M83.3783 149.288C87.662 152.488 88.9576 158.006 88.9576 158.006C88.9576 158.006 83.3082 158.331 79.0245 155.13C74.7399 151.93 73.4437 146.416 73.4437 146.416C73.4437 146.416 79.0922 146.087 83.3783 149.288Z" fill="url(#paint0_linear)"/>
<path d="M78.6165 158.147C83.5964 156.195 88.9576 158.005 88.9576 158.005C88.9576 158.005 86.2435 162.979 81.2613 164.934C76.2814 166.886 70.9195 165.077 70.9195 165.077C70.9195 165.077 73.6343 160.101 78.6165 158.147Z" fill="url(#paint1_linear)"/>
<path d="M66.9359 145.349C70.7401 149.11 71.265 154.752 71.265 154.752C71.265 154.752 65.6246 154.297 61.822 150.536C58.0194 146.776 57.4929 141.132 57.4929 141.132C57.4929 141.132 63.1333 141.587 66.9359 145.349Z" fill="url(#paint2_linear)"/>
<path d="M61.0032 153.468C66.2044 152.221 71.2648 154.752 71.2648 154.752C71.2648 154.752 67.8931 159.307 62.6911 160.554C57.49 161.803 52.4303 159.271 52.4303 159.271C52.4303 159.271 55.802 154.716 61.0032 153.468Z" fill="url(#paint3_linear)"/>
<path d="M53.901 139.329C57.0605 143.646 56.6862 149.302 56.6862 149.302C56.6862 149.302 51.1915 147.96 48.0313 143.642C44.871 139.325 45.243 133.669 45.243 133.669C45.243 133.669 50.7407 135.011 53.901 139.329Z" fill="url(#paint4_linear)"/>
<path d="M46.7595 146.408C52.0917 146.001 56.6872 149.303 56.6872 149.303C56.6872 149.303 52.6384 153.266 47.3055 153.674C41.9734 154.082 37.3779 150.78 37.3779 150.78C37.3779 150.78 41.4274 146.816 46.7595 146.408Z" fill="url(#paint5_linear)"/>
<path d="M41.5954 129.905C43.6134 134.861 41.8815 140.26 41.8815 140.26C41.8815 140.26 36.8762 137.62 34.8582 132.663C32.8386 127.705 34.5697 122.308 34.5697 122.308C34.5697 122.308 39.5759 124.947 41.5954 129.905Z" fill="url(#paint6_linear)"/>
<path d="M32.954 135.036C38.2244 135.937 41.882 140.259 41.882 140.259C41.882 140.259 36.9937 143.121 31.7234 142.221C26.4522 141.32 22.7969 136.998 22.7969 136.998C22.7969 136.998 27.6836 134.136 32.954 135.036Z" fill="url(#paint7_linear)"/>
<path d="M32.1628 118.82C32.9615 124.114 30.0102 128.954 30.0102 128.954C30.0102 128.954 25.7663 125.21 24.9691 119.915C24.1704 114.62 27.121 109.781 27.121 109.781C27.121 109.781 31.3657 113.525 32.1628 118.82Z" fill="url(#paint8_linear)"/>
<path d="M22.5611 121.776C27.4714 123.893 30.0102 128.955 30.0102 128.955C30.0102 128.955 24.5895 130.587 19.6792 128.47C14.7705 126.355 12.2302 121.292 12.2302 121.292C12.2302 121.292 17.6523 119.66 22.5611 121.776Z" fill="url(#paint9_linear)"/>
<path d="M23.9617 104.742C23.6922 110.091 19.8403 114.248 19.8403 114.248C19.8403 114.248 16.4252 109.732 16.6947 104.383C16.9643 99.0334 20.8147 94.8769 20.8147 94.8769C20.8147 94.8769 24.2312 99.3921 23.9617 104.742Z" fill="url(#paint10_linear)"/>
<path d="M13.9668 105.727C18.3582 108.779 19.8403 114.248 19.8403 114.248C19.8403 114.248 14.205 114.768 9.81359 111.716C5.4237 108.663 3.94086 103.195 3.94086 103.195C3.94086 103.195 9.57695 102.676 13.9668 105.727Z" fill="url(#paint11_linear)"/>
<path d="M19.5212 91.2032C18.4101 96.4432 13.9505 99.9386 13.9505 99.9386C13.9505 99.9386 11.2927 94.937 12.4038 89.6969C13.5165 84.4576 17.9738 80.9623 17.9738 80.9623C17.9738 80.9623 20.6323 85.9632 19.5212 91.2032Z" fill="url(#paint12_linear)"/>
<path d="M9.49825 90.5927C13.3509 94.3029 13.9504 99.9389 13.9504 99.9389C13.9504 99.9389 8.30474 99.5594 4.45212 95.8492C0.600266 92.1389 0 86.5029 0 86.5029C0 86.5029 5.6464 86.8824 9.49825 90.5927Z" fill="url(#paint13_linear)"/>
<path d="M18.5853 75.9794C16.239 80.7939 11.0657 83.1013 11.0657 83.1013C11.0657 83.1013 9.70139 77.6028 12.0469 72.7876C14.3947 67.973 19.5656 65.6648 19.5656 65.6648C19.5656 65.6648 20.9331 71.1648 18.5853 75.9794Z" fill="url(#paint14_linear)"/>
<path d="M9.01475 72.9496C11.8507 77.4862 11.0665 83.1004 11.0665 83.1004C11.0665 83.1004 5.6844 81.3591 2.84687 76.8226C0.0093375 72.2861 0.793599 66.6719 0.793599 66.6719C0.793599 66.6719 6.17722 68.4131 9.01475 72.9496Z" fill="url(#paint15_linear)"/>
<path d="M20.7488 60.5064C17.3385 64.6345 11.7707 65.6616 11.7707 65.6616C11.7707 65.6616 11.7345 59.9938 15.1464 55.8648C18.5568 51.7367 24.1238 50.7105 24.1238 50.7105C24.1238 50.7105 24.1615 56.3782 20.7488 60.5064Z" fill="url(#paint16_linear)"/>
<path d="M12.1576 55.3087C13.8504 60.3872 11.7714 65.6618 11.7714 65.6618C11.7714 65.6618 6.94819 62.7011 5.25612 57.6217C3.56409 52.544 5.64314 47.2702 5.64314 47.2702C5.64314 47.2702 10.4656 50.2302 12.1576 55.3087Z" fill="url(#paint17_linear)"/>
<path d="M25.8053 47.674C21.5447 50.9162 15.8934 50.6444 15.8934 50.6444C15.8934 50.6444 17.1469 45.1163 21.4067 41.8741C25.6665 38.6319 31.3186 38.9037 31.3186 38.9037C31.3186 38.9037 30.0644 44.4326 25.8053 47.674Z" fill="url(#paint18_linear)"/>
<path d="M18.6243 40.6517C19.1159 45.9838 15.8927 50.6454 15.8927 50.6454C15.8927 50.6454 11.8707 46.6624 11.3799 41.3295C10.8883 35.9974 14.1123 31.335 14.1123 31.335C14.1123 31.335 18.1327 35.3188 18.6243 40.6517Z" fill="url(#paint19_linear)"/>
<path d="M32.2689 36C27.5516 38.5273 22.0143 37.3634 22.0143 37.3634C22.0143 37.3634 24.1261 32.1026 28.8428 29.5761C33.5616 27.0487 39.0974 28.2119 39.0974 28.2119C39.0974 28.2119 36.9863 33.4734 32.2689 36Z" fill="url(#paint20_linear)"/>
<path d="M26.2908 27.9257C25.9339 33.2695 22.0144 37.3624 22.0144 37.3624C22.0144 37.3624 18.6746 32.7905 19.0314 27.4467C19.3889 22.1021 23.3085 18.0092 23.3085 18.0092C23.3085 18.0092 26.6491 22.5811 26.2908 27.9257Z" fill="url(#paint21_linear)"/>
<path d="M112.342 147.58C108.276 151.066 107.347 156.657 107.347 156.657C107.347 156.657 113.006 156.598 117.069 153.114C121.134 149.629 122.064 144.037 122.064 144.037C122.064 144.037 116.406 144.095 112.342 147.58Z" fill="url(#paint22_linear)"/>
<path d="M117.676 156.096C112.578 154.487 107.347 156.657 107.347 156.657C107.347 156.657 110.383 161.437 115.481 163.047C120.579 164.656 125.809 162.486 125.809 162.486C125.809 162.486 122.774 157.705 117.676 156.096Z" fill="url(#paint23_linear)"/>
<path d="M126.448 143.32C122.9 147.332 122.746 152.998 122.746 152.998C122.746 152.998 128.345 152.16 131.891 148.148C135.438 144.137 135.591 138.47 135.591 138.47C135.591 138.47 129.995 139.308 126.448 143.32Z" fill="url(#paint24_linear)"/>
<path d="M132.901 151.017C127.63 150.127 122.747 152.997 122.747 152.997C122.747 152.997 126.412 157.311 131.683 158.202C136.956 159.094 141.838 156.223 141.838 156.223C141.838 156.223 138.174 151.907 132.901 151.017Z" fill="url(#paint25_linear)"/>
<path d="M139.02 135.885C136.152 140.407 136.896 146.026 136.896 146.026C136.896 146.026 142.29 144.31 145.16 139.787C148.029 135.266 147.286 129.648 147.286 129.648C147.286 129.648 141.89 131.362 139.02 135.885Z" fill="url(#paint26_linear)"/>
<path d="M146.611 142.461C141.264 142.418 136.896 146.026 136.896 146.026C136.896 146.026 141.196 149.705 146.544 149.748C151.891 149.792 156.259 146.183 156.259 146.183C156.259 146.183 151.958 142.505 146.611 142.461Z" fill="url(#paint27_linear)"/>
<path d="M150.276 125.914C148.587 130.998 150.671 136.266 150.671 136.266C150.671 136.266 155.491 133.291 157.18 128.208C158.868 123.123 156.784 117.856 156.784 117.856C156.784 117.856 151.964 120.831 150.276 125.914Z" fill="url(#paint28_linear)"/>
<path d="M159.235 130.447C154.036 131.705 150.672 136.266 150.672 136.266C150.672 136.266 155.735 138.789 160.935 137.531C166.135 136.274 169.5 131.713 169.5 131.713C169.5 131.713 164.435 129.19 159.235 130.447Z" fill="url(#paint29_linear)"/>
<path d="M159.428 113.435C158.981 118.773 162.243 123.402 162.243 123.402C162.243 123.402 166.231 119.376 166.68 114.039C167.127 108.701 163.866 104.072 163.866 104.072C163.866 104.072 159.878 108.099 159.428 113.435Z" fill="url(#paint30_linear)"/>
<path d="M169.203 115.731C164.444 118.177 162.243 123.402 162.243 123.402C162.243 123.402 167.76 124.66 172.519 122.214C177.28 119.768 179.479 114.545 179.479 114.545C179.479 114.545 173.962 113.286 169.203 115.731Z" fill="url(#paint31_linear)"/>
<path d="M165.836 99.6389C166.456 104.958 170.573 108.844 170.573 108.844C170.573 108.844 173.683 104.104 173.063 98.7867C172.442 93.4668 168.325 89.5812 168.325 89.5812C168.325 89.5812 165.216 94.3197 165.836 99.6389Z" fill="url(#paint32_linear)"/>
<path d="M175.872 99.9416C171.692 103.286 170.572 108.843 170.572 108.843C170.572 108.843 176.229 108.977 180.41 105.632C184.589 102.289 185.709 96.7313 185.709 96.7313C185.709 96.7313 180.052 96.597 175.872 99.9416Z" fill="url(#paint33_linear)"/>
<path d="M169.375 85.8041C170.828 90.9567 175.507 94.1405 175.507 94.1405C175.507 94.1405 177.831 88.969 176.378 83.8164C174.923 78.6638 170.245 75.48 170.245 75.48C170.245 75.48 167.922 80.6507 169.375 85.8041Z" fill="url(#paint34_linear)"/>
<path d="M179.335 84.5119C175.735 88.4762 175.506 94.1397 175.506 94.1397C175.506 94.1397 181.115 93.3756 184.715 89.4113C188.314 85.447 188.543 79.7836 188.543 79.7836C188.543 79.7836 182.934 80.5476 179.335 84.5119Z" fill="url(#paint35_linear)"/>
<path d="M169.252 71.0595C171.911 75.7033 177.222 77.6533 177.222 77.6533C177.222 77.6533 178.225 72.0741 175.565 67.4295C172.906 62.7849 167.594 60.8357 167.594 60.8357C167.594 60.8357 166.593 66.4156 169.252 71.0595Z" fill="url(#paint36_linear)"/>
<path d="M178.603 67.3857C176.071 72.1053 177.222 77.6535 177.222 77.6535C177.222 77.6535 182.479 75.5496 185.011 70.8299C187.544 66.1103 186.393 60.5621 186.393 60.5621C186.393 60.5621 181.136 62.6661 178.603 67.3857Z" fill="url(#paint37_linear)"/>
<path d="M165.948 55.7641C169.623 59.6507 175.244 60.2962 175.244 60.2962C175.244 60.2962 174.909 54.6379 171.234 50.7513C167.56 46.8648 161.938 46.2192 161.938 46.2192C161.938 46.2192 162.273 51.8776 165.948 55.7641Z" fill="url(#paint38_linear)"/>
<path d="M174.178 49.9926C172.824 55.175 175.244 60.2962 175.244 60.2962C175.244 60.2962 179.862 57.0128 181.216 51.8304C182.57 46.6488 180.149 41.5284 180.149 41.5284C180.149 41.5284 175.532 44.8094 174.178 49.9926Z" fill="url(#paint39_linear)"/>
<path d="M160.223 43.5146C164.686 46.4602 170.307 45.804 170.307 45.804C170.307 45.804 168.694 40.3736 164.23 37.4281C159.767 34.4833 154.146 35.1395 154.146 35.1395C154.146 35.1395 155.759 40.5706 160.223 43.5146Z" fill="url(#paint40_linear)"/>
<path d="M166.925 36.0178C166.785 41.3715 170.307 45.8038 170.307 45.8038C170.307 45.8038 174.058 41.555 174.198 36.2006C174.338 30.8462 170.815 26.4146 170.815 26.4146C170.815 26.4146 167.064 30.6642 166.925 36.0178Z" fill="url(#paint41_linear)"/>
<path d="M152.609 32.4054C157.482 34.6057 162.931 33.0672 162.931 33.0672C162.931 33.0672 160.478 27.962 155.605 25.7617C150.731 23.5622 145.284 25.1006 145.284 25.1006C145.284 25.1006 147.736 30.2058 152.609 32.4054Z" fill="url(#paint42_linear)"/>
<path d="M158.043 23.9429C158.751 29.2504 162.931 33.0672 162.931 33.0672C162.931 33.0672 165.963 28.2779 165.254 22.9705C164.547 17.6622 160.367 13.8462 160.367 13.8462C160.367 13.8462 157.335 18.6347 158.043 23.9429Z" fill="url(#paint43_linear)"/>
<path d="M148.215 16.2065C148.006 16.4427 147.766 16.6784 147.485 16.9124C147.404 16.9803 147.321 17.0271 147.237 17.0865C164.475 31.0388 175.718 51.6986 176.487 75.0452C177.926 118.769 142.088 155.602 96.597 157.153C51.1058 158.704 12.9266 124.395 11.4875 80.6711C10.7531 58.3599 19.729 37.8455 34.7371 22.8949C34.2924 22.779 33.843 22.6186 33.389 22.4081C18.3761 37.5644 9.42013 58.2421 10.1599 80.7163C11.6222 125.143 50.4162 160.005 96.639 158.429C142.861 156.853 179.276 119.426 177.814 74.9999C177.035 51.3336 165.661 30.3832 148.215 16.2065Z" fill="url(#paint44_linear)"/>
<path d="M43.0404 25.5048C37.8518 26.8092 32.764 24.3345 32.764 24.3345C32.764 24.3345 36.0858 19.7426 41.2728 18.4374C46.4614 17.1322 51.5492 19.6076 51.5492 19.6076C51.5492 19.6076 48.2274 24.1996 43.0404 25.5048Z" fill="url(#paint45_linear)"/>
<path d="M39.1969 16.2169C37.5561 21.3157 32.764 24.3344 32.764 24.3344C32.764 24.3344 30.6316 19.0865 32.2723 13.9869C33.9138 8.88809 38.7068 5.87016 38.7068 5.87016C38.7068 5.87016 40.8384 11.1173 39.1969 16.2169Z" fill="url(#paint46_linear)"/>
<path d="M141.726 22.14C146.988 23.0881 151.902 20.2724 151.902 20.2724C151.902 20.2724 148.284 15.9171 143.023 14.9682C137.762 14.0192 132.847 16.8357 132.847 16.8357C132.847 16.8357 136.465 21.1911 141.726 22.14Z" fill="url(#paint47_linear)"/>
<path d="M144.949 12.6114C146.923 17.5869 151.902 20.2724 151.902 20.2724C151.902 20.2724 153.683 14.8911 151.712 9.91468C149.738 4.93912 144.757 2.25443 144.757 2.25443C144.757 2.25443 142.975 7.63502 144.949 12.6114Z" fill="url(#paint48_linear)"/>
<path d="M82.4565 54.87H78.0785V53.616H82.4565V54.87ZM75.5045 58.324H71.7425C71.8085 57.906 71.8525 57.466 71.9185 57.026H75.5045V58.324ZM87.1205 46.708H81.0705C81.2025 46.4 81.3345 46.07 81.4445 45.762L79.0685 45.168C78.5185 46.73 77.5285 48.27 76.3185 49.304C76.8905 49.634 77.8365 50.382 78.2765 50.822C78.8705 50.25 79.4645 49.524 79.9925 48.688H81.7965L80.8505 49.502C81.5545 50.074 82.5005 50.866 82.9845 51.46H73.7005L75.1085 50.162C74.7785 49.766 74.2065 49.216 73.6125 48.71H76.7585V46.708H71.9185C72.0725 46.422 72.2045 46.114 72.3145 45.828L70.0045 45.168C69.3225 46.906 68.1125 48.644 66.8145 49.788C67.3205 50.184 68.2005 51.108 68.5745 51.548C69.3225 50.8 70.1145 49.81 70.8185 48.71H72.1165L71.2805 49.436C71.9625 50.03 72.8205 50.844 73.3045 51.46H68.8165V53.616H75.5045V54.87H69.6305C69.4765 56.718 69.1465 59.006 68.8165 60.502H73.5465C71.8305 61.888 69.4545 63.098 67.1665 63.78C67.7165 64.264 68.4425 65.21 68.8165 65.848C71.2145 64.946 73.6565 63.45 75.5045 61.646V65.936H78.0785V60.502H83.3365C83.2045 61.712 83.0285 62.306 82.8085 62.526C82.6105 62.702 82.3905 62.724 82.0605 62.724C81.6645 62.746 80.7405 62.724 79.8165 62.636C80.2345 63.274 80.4985 64.242 80.5425 65.012C81.6865 65.056 82.7205 65.034 83.3365 64.968C84.0185 64.902 84.5465 64.726 85.0085 64.198C85.5805 63.626 85.8445 62.196 86.0645 59.27C86.1085 58.962 86.1305 58.324 86.1305 58.324H78.0785V57.026H85.0525V51.46H83.2485L84.8325 50.074C84.4805 49.678 83.8865 49.15 83.3145 48.688H87.1205V46.708ZM88.9685 64H99.8805V61.272H96.3385C95.5905 61.272 94.5125 61.36 93.6985 61.448C96.6685 58.544 99.1105 55.376 99.1105 52.428C99.1105 49.392 97.0645 47.412 93.9845 47.412C91.7625 47.412 90.3105 48.292 88.8145 49.876L90.5745 51.636C91.3885 50.734 92.3785 49.964 93.5665 49.964C95.1065 49.964 96.0085 50.954 96.0085 52.604C96.0085 55.112 93.3905 58.17 88.9685 62.13V64ZM108.876 62.592V58.434H117.126V62.592H108.876ZM115.85 49.898C114.772 51.306 113.364 52.56 111.736 53.616C110.768 52.692 109.25 51.504 107.974 50.58C108.26 50.36 108.524 50.14 108.81 49.898H115.85ZM119.832 56.058H112.726C115.762 54.144 118.27 51.636 119.788 48.468L117.984 47.39L117.544 47.522H111.12C111.56 46.972 111.956 46.422 112.352 45.872L109.426 45.256C108.084 47.324 105.664 49.524 102.078 51.086C102.672 51.548 103.486 52.538 103.882 53.176C104.586 52.846 105.246 52.45 105.862 52.054C107.05 52.978 108.37 54.1 109.316 55.024C106.962 56.19 104.322 57.07 101.66 57.598C102.144 58.192 102.76 59.314 103.002 60.018C104.102 59.754 105.18 59.468 106.258 59.094V65.914H108.876V64.946H117.126V65.914H119.832V56.058Z" fill="#5B5555"/>
<path d="M81.1856 8.78C81.1856 9.28667 81.0856 9.77333 80.8856 10.24C80.6856 10.7067 80.4256 11.16 80.1056 11.6C79.7856 12.0267 79.4256 12.44 79.0256 12.84C78.6256 13.24 78.2323 13.62 77.8456 13.98C77.6456 14.1667 77.4256 14.38 77.1856 14.62C76.959 14.8467 76.739 15.08 76.5256 15.32C76.3123 15.56 76.119 15.7867 75.9456 16C75.7856 16.2 75.6856 16.3667 75.6456 16.5H81.6056V19H72.3656C72.339 18.8533 72.3256 18.6667 72.3256 18.44C72.3256 18.2133 72.3256 18.0533 72.3256 17.96C72.3256 17.32 72.4256 16.7333 72.6256 16.2C72.839 15.6667 73.1123 15.1733 73.4456 14.72C73.779 14.2533 74.1523 13.82 74.5656 13.42C74.9923 13.02 75.4123 12.62 75.8256 12.22C76.1456 11.9133 76.4456 11.6267 76.7256 11.36C77.0056 11.08 77.2523 10.8133 77.4656 10.56C77.679 10.2933 77.8456 10.0333 77.9656 9.78C78.0856 9.51333 78.1456 9.24667 78.1456 8.98C78.1456 8.39333 77.979 7.98 77.6456 7.74C77.3123 7.5 76.899 7.38 76.4056 7.38C76.0456 7.38 75.7056 7.44 75.3856 7.56C75.079 7.66667 74.7923 7.8 74.5256 7.96C74.2723 8.10667 74.0523 8.26 73.8656 8.42C73.679 8.56667 73.539 8.68667 73.4456 8.78L71.9656 6.7C72.5523 6.15333 73.2323 5.70667 74.0056 5.36C74.7923 5 75.6323 4.82 76.5256 4.82C77.339 4.82 78.039 4.91333 78.6256 5.1C79.2123 5.28667 79.6923 5.55333 80.0656 5.9C80.4523 6.23333 80.7323 6.64667 80.9056 7.14C81.0923 7.62 81.1856 8.16667 81.1856 8.78ZM93.3128 12.04C93.3128 14.3733 92.8661 16.1667 91.9728 17.42C91.0928 18.66 89.8728 19.28 88.3128 19.28C86.7528 19.28 85.5261 18.66 84.6328 17.42C83.7528 16.1667 83.3128 14.3733 83.3128 12.04C83.3128 10.88 83.4261 9.85333 83.6528 8.96C83.8928 8.06667 84.2328 7.31333 84.6728 6.7C85.1128 6.08667 85.6395 5.62 86.2528 5.3C86.8661 4.98 87.5528 4.82 88.3128 4.82C89.8728 4.82 91.0928 5.44667 91.9728 6.7C92.8661 7.94 93.3128 9.72 93.3128 12.04ZM90.2728 12.04C90.2728 11.3467 90.2395 10.72 90.1728 10.16C90.1061 9.58667 89.9995 9.09333 89.8528 8.68C89.7061 8.26667 89.5061 7.94667 89.2528 7.72C88.9995 7.49333 88.6861 7.38 88.3128 7.38C87.9395 7.38 87.6261 7.49333 87.3728 7.72C87.1328 7.94667 86.9328 8.26667 86.7728 8.68C86.6261 9.09333 86.5195 9.58667 86.4528 10.16C86.3861 10.72 86.3528 11.3467 86.3528 12.04C86.3528 12.7333 86.3861 13.3667 86.4528 13.94C86.5195 14.5133 86.6261 15.0067 86.7728 15.42C86.9328 15.8333 87.1328 16.1533 87.3728 16.38C87.6261 16.6067 87.9395 16.72 88.3128 16.72C88.6861 16.72 88.9995 16.6067 89.2528 16.38C89.5061 16.1533 89.7061 15.8333 89.8528 15.42C89.9995 15.0067 90.1061 14.5133 90.1728 13.94C90.2395 13.3667 90.2728 12.7333 90.2728 12.04ZM103.92 8.78C103.92 9.28667 103.82 9.77333 103.62 10.24C103.42 10.7067 103.16 11.16 102.84 11.6C102.52 12.0267 102.16 12.44 101.76 12.84C101.36 13.24 100.967 13.62 100.58 13.98C100.38 14.1667 100.16 14.38 99.92 14.62C99.6933 14.8467 99.4733 15.08 99.26 15.32C99.0467 15.56 98.8533 15.7867 98.68 16C98.52 16.2 98.42 16.3667 98.38 16.5H104.34V19H95.1C95.0733 18.8533 95.06 18.6667 95.06 18.44C95.06 18.2133 95.06 18.0533 95.06 17.96C95.06 17.32 95.16 16.7333 95.36 16.2C95.5733 15.6667 95.8467 15.1733 96.18 14.72C96.5133 14.2533 96.8867 13.82 97.3 13.42C97.7267 13.02 98.1467 12.62 98.56 12.22C98.88 11.9133 99.18 11.6267 99.46 11.36C99.74 11.08 99.9867 10.8133 100.2 10.56C100.413 10.2933 100.58 10.0333 100.7 9.78C100.82 9.51333 100.88 9.24667 100.88 8.98C100.88 8.39333 100.713 7.98 100.38 7.74C100.047 7.5 99.6333 7.38 99.14 7.38C98.78 7.38 98.44 7.44 98.12 7.56C97.8133 7.66667 97.5267 7.8 97.26 7.96C97.0067 8.10667 96.7867 8.26 96.6 8.42C96.4133 8.56667 96.2733 8.68667 96.18 8.78L94.7 6.7C95.2867 6.15333 95.9667 5.70667 96.74 5.36C97.5267 5 98.3667 4.82 99.26 4.82C100.073 4.82 100.773 4.91333 101.36 5.1C101.947 5.28667 102.427 5.55333 102.8 5.9C103.187 6.23333 103.467 6.64667 103.64 7.14C103.827 7.62 103.92 8.16667 103.92 8.78ZM116.047 12.04C116.047 14.3733 115.601 16.1667 114.707 17.42C113.827 18.66 112.607 19.28 111.047 19.28C109.487 19.28 108.261 18.66 107.367 17.42C106.487 16.1667 106.047 14.3733 106.047 12.04C106.047 10.88 106.161 9.85333 106.387 8.96C106.627 8.06667 106.967 7.31333 107.407 6.7C107.847 6.08667 108.374 5.62 108.987 5.3C109.601 4.98 110.287 4.82 111.047 4.82C112.607 4.82 113.827 5.44667 114.707 6.7C115.601 7.94 116.047 9.72 116.047 12.04ZM113.007 12.04C113.007 11.3467 112.974 10.72 112.907 10.16C112.841 9.58667 112.734 9.09333 112.587 8.68C112.441 8.26667 112.241 7.94667 111.987 7.72C111.734 7.49333 111.421 7.38 111.047 7.38C110.674 7.38 110.361 7.49333 110.107 7.72C109.867 7.94667 109.667 8.26667 109.507 8.68C109.361 9.09333 109.254 9.58667 109.187 10.16C109.121 10.72 109.087 11.3467 109.087 12.04C109.087 12.7333 109.121 13.3667 109.187 13.94C109.254 14.5133 109.361 15.0067 109.507 15.42C109.667 15.8333 109.867 16.1533 110.107 16.38C110.361 16.6067 110.674 16.72 111.047 16.72C111.421 16.72 111.734 16.6067 111.987 16.38C112.241 16.1533 112.441 15.8333 112.587 15.42C112.734 15.0067 112.841 14.5133 112.907 13.94C112.974 13.3667 113.007 12.7333 113.007 12.04Z" fill="#5B5555"/>
<path d="M74.8 81.264C76 80.544 77.088 79.68 78.016 78.672C78.976 79.632 80.16 80.512 81.408 81.264H74.8ZM82.128 82.64V81.664C82.928 82.112 83.728 82.48 84.512 82.768C84.736 82.368 85.2 81.776 85.536 81.472C83.136 80.752 80.448 79.232 78.88 77.664C79.024 77.472 79.152 77.264 79.296 77.056L77.904 76.432C76.384 78.784 73.488 80.544 70.512 81.456C70.88 81.824 71.296 82.4 71.504 82.832C72.304 82.544 73.072 82.208 73.824 81.808V82.64H77.168V84.576H71.888V85.92H77.168V89.488H71.152V90.848H84.88V89.488H78.752V85.92H84.112V84.576H78.752V82.64H82.128ZM81.104 89.424C81.648 88.704 82.352 87.616 82.96 86.608L81.52 86.08C81.184 86.96 80.512 88.176 79.968 88.944L81.104 89.424ZM73.104 86.56C73.68 87.456 74.304 88.656 74.528 89.408L75.824 88.848C75.568 88.096 74.928 86.928 74.32 86.08L73.104 86.56ZM90.544 78.816L89.952 79.312C90.464 79.76 91.12 80.416 91.408 80.832L92.368 80C92.096 79.664 91.632 79.2 91.168 78.816H93.856V77.648H90.032C90.176 77.376 90.304 77.104 90.416 76.832L89.072 76.448C88.56 77.744 87.664 79.04 86.704 79.872C86.992 80.112 87.504 80.608 87.712 80.848C88.272 80.304 88.864 79.616 89.36 78.816H90.544ZM98.096 88.4V89.648H90.816V88.4H98.096ZM97.28 84.112V85.232H90.816V84.112H97.28ZM90.816 86.336H98.72V82.992H89.312V91.28H90.816V90.784H98.096V91.248H99.568V87.28H90.816V86.336ZM92.928 80.048C93.088 80.336 93.248 80.672 93.392 80.992H87.504V83.696H88.928V82.16H99.168V83.696H100.672V80.992H94.896C94.736 80.608 94.496 80.144 94.24 79.776L92.928 80.048ZM96.592 77.648C96.736 77.36 96.864 77.088 96.976 76.8L95.616 76.464C95.216 77.52 94.48 78.528 93.632 79.2C93.968 79.408 94.512 79.856 94.752 80.096C95.136 79.744 95.536 79.312 95.888 78.816H97.536L96.848 79.376C97.44 79.856 98.208 80.544 98.56 80.976L99.552 80.128C99.248 79.744 98.64 79.232 98.096 78.816H101.232V77.648H96.592ZM113.104 86.944V87.824H106.976V86.944H113.104ZM106.976 89.744V88.848H113.104V89.744H106.976ZM105.504 91.248H106.976V90.752H113.104V91.184H114.624V85.92H105.504V91.248ZM104.928 81.12C105.728 80.816 106.512 80.48 107.248 80.064V80.448H112.784V79.984C113.6 80.448 114.48 80.816 115.344 81.12H104.928ZM114.096 84.304H112.4C112.688 83.84 113.04 83.168 113.392 82.48L112.144 82.128C111.968 82.672 111.632 83.488 111.344 84L112.336 84.304H110.544V82.096H114.096V84.304ZM106.64 82.512C106.976 83.072 107.28 83.808 107.392 84.304H105.856V82.096H109.328V84.304H107.44L108.496 83.952C108.384 83.472 108.032 82.736 107.68 82.192L106.64 82.512ZM108.336 79.424C108.96 79.024 109.568 78.56 110.08 78.08C110.592 78.56 111.184 79.024 111.84 79.424H108.336ZM109.792 76.496C108.336 78.368 105.504 79.76 102.608 80.496C102.864 80.752 103.28 81.36 103.408 81.632C103.808 81.52 104.192 81.392 104.592 81.248V85.28H115.408V81.136C115.808 81.28 116.224 81.408 116.608 81.52C116.832 81.168 117.248 80.64 117.552 80.384C115.056 79.856 112.352 78.64 110.864 77.264C110.96 77.168 111.024 77.056 111.104 76.96L109.792 76.496ZM50.944 98.008C49.968 100.36 48.304 102.696 46.56 104.136C46.944 104.44 47.616 105.064 47.872 105.368C49.632 103.752 51.44 101.128 52.576 98.52L50.944 98.008ZM55.632 106.632C56.192 107.432 56.816 108.36 57.408 109.288L50.704 109.688C52.304 107.848 53.904 105.528 55.216 103.192L53.488 102.488C52.208 105.16 50.176 107.944 49.52 108.648C48.896 109.384 48.464 109.864 47.984 109.992C48.208 110.424 48.512 111.256 48.576 111.592C49.28 111.32 50.24 111.256 58.256 110.664C58.608 111.24 58.88 111.752 59.104 112.216L60.608 111.4C59.856 109.96 58.352 107.72 57.072 105.992L55.632 106.632ZM53.456 97.976V99.496H56.24C57.12 101.768 58.592 104.008 60.4 105.368C60.672 104.904 61.2 104.232 61.552 103.896C59.648 102.712 58.112 100.376 57.376 97.976H53.456ZM77.168 105.32H70.752V100.072H76.256V98.616H63.712V100.072H69.216V105.32H62.88V106.824H69.216V112.264H70.752V106.824H77.168V105.32ZM64.752 101.144C65.328 102.264 65.872 103.752 66.08 104.664L67.504 104.184C67.296 103.256 66.688 101.832 66.096 100.728L64.752 101.144ZM73.568 104.68C74.16 103.784 74.864 102.344 75.44 101.096L73.856 100.664C73.504 101.784 72.832 103.304 72.288 104.264L73.568 104.68ZM81.984 97.608C81.312 98.712 79.92 100.008 78.688 100.808C78.928 101.112 79.28 101.704 79.44 102.056C80.864 101.096 82.416 99.592 83.392 98.184L81.984 97.608ZM82.32 101.096C81.408 102.696 79.888 104.296 78.48 105.304C78.72 105.672 79.104 106.472 79.216 106.792C79.76 106.36 80.352 105.832 80.896 105.24V112.264H82.32V103.576C82.8 102.936 83.248 102.264 83.616 101.624L82.32 101.096ZM84.208 107.896C84.896 108.744 85.76 109.928 86.144 110.648L87.44 109.912C87.024 109.192 86.128 108.056 85.44 107.24L84.208 107.896ZM91.136 104.376H89.632V105.528H83.088V106.888H89.632V110.6C89.632 110.824 89.552 110.888 89.28 110.888C89.024 110.904 88.112 110.904 87.216 110.872C87.408 111.256 87.632 111.864 87.696 112.264C88.96 112.264 89.824 112.248 90.4 112.024C90.976 111.816 91.136 111.416 91.136 110.632V106.888H93.232V105.528H91.136V104.376ZM88.88 99.544V97.64H87.36V99.544H83.024V100.904H87.36V102.6H83.632V103.944H92.528V102.6H88.88V100.904H93.248V99.544H88.88ZM96.72 100.312H107.232V102.152H108.736V98.968H103.12C102.88 98.472 102.528 97.88 102.256 97.432L100.784 97.784C100.976 98.152 101.2 98.568 101.408 98.968H95.264V102.152H96.72V100.312ZM98.928 107.352C100.016 106.984 101.04 106.552 102 106.04C103.024 106.568 104.112 107 105.312 107.352H98.928ZM99.088 110.504V108.584H104.96V110.504H99.088ZM99.952 102.728H104.24C103.648 103.368 102.896 103.928 102.032 104.456C101.168 103.96 100.432 103.416 99.856 102.808L99.952 102.728ZM105.488 101.512L105.248 101.576H101.024C101.248 101.304 101.472 101.048 101.664 100.76L100.08 100.456C99.28 101.656 97.76 102.984 95.568 103.88C95.888 104.12 96.352 104.648 96.544 104.984C97.392 104.584 98.144 104.136 98.8 103.656C99.344 104.216 99.952 104.728 100.608 105.192C98.784 106.056 96.656 106.648 94.608 106.984C94.864 107.32 95.184 107.912 95.312 108.296C96.08 108.152 96.864 107.976 97.632 107.752V112.248H99.088V111.736H104.96V112.216H106.496V107.656C107.136 107.816 107.792 107.944 108.464 108.04C108.672 107.624 109.104 106.968 109.424 106.616C107.248 106.36 105.216 105.88 103.472 105.16C104.704 104.312 105.76 103.304 106.512 102.136L105.488 101.512ZM113.504 99.736H125.056V98.376H112.032V102.92C112.032 105.352 111.92 108.792 110.56 111.176C110.912 111.304 111.568 111.688 111.84 111.928C113.28 109.384 113.504 105.528 113.504 102.92V99.736ZM115.856 107.768C115.184 108.824 114.176 110.008 113.248 110.808C113.616 111 114.208 111.384 114.496 111.624C115.376 110.76 116.48 109.416 117.28 108.232L115.856 107.768ZM116.224 104.68H122.352V105.96H116.224V104.68ZM116.224 102.328H122.352V103.608H116.224V102.328ZM123.872 107.112V101.176H119.408C119.632 100.824 119.84 100.456 120.064 100.088L118.304 99.848C118.176 100.232 117.984 100.712 117.76 101.176H114.768V107.112H118.56V110.68C118.56 110.872 118.496 110.936 118.256 110.952C118.032 110.952 117.232 110.952 116.4 110.936C116.576 111.304 116.768 111.848 116.832 112.248C118.016 112.248 118.816 112.232 119.344 112.024C119.872 111.816 120 111.432 120 110.712V107.112H123.872ZM121.104 108.408C122 109.432 123.248 110.856 123.824 111.704L125.088 110.952C124.448 110.12 123.184 108.76 122.272 107.768L121.104 108.408ZM135.36 99.496V108.328H136.8V99.496H135.36ZM139.168 97.896V110.376C139.168 110.664 139.056 110.76 138.752 110.776C138.432 110.776 137.44 110.792 136.336 110.744C136.576 111.176 136.8 111.864 136.864 112.264C138.32 112.28 139.28 112.232 139.872 112.008C140.432 111.736 140.656 111.304 140.656 110.376V97.896H139.168ZM128.624 108.632C128.176 109.656 127.392 110.696 126.56 111.384C126.912 111.592 127.52 112.04 127.808 112.296C128.656 111.496 129.568 110.264 130.096 109.032L128.624 108.632ZM131.296 109.192C132 110.04 132.736 111.24 133.04 112.024L134.384 111.352C134.048 110.584 133.312 109.48 132.592 108.648L131.296 109.192ZM128.96 102.392H132.368V104.088H128.96V102.392ZM128.96 105.272H132.368V106.984H128.96V105.272ZM128.96 99.512H132.368V101.176H128.96V99.512ZM127.552 98.184V108.296H133.84V98.184H127.552Z" fill="#5B5555"/>
<defs>
<linearGradient id="paint0_linear" x1="81.0014" y1="146.157" x2="81.4142" y2="158.263" gradientUnits="userSpaceOnUse">
<stop stop-color="#FFBA42"/>
<stop offset="0.526042" stop-color="#FFC800"/>
<stop offset="1" stop-color="#FFCE00"/>
</linearGradient>
<linearGradient id="paint1_linear" x1="79.8011" y1="157.366" x2="80.0858" y2="165.715" gradientUnits="userSpaceOnUse">
<stop stop-color="#FFBA42"/>
<stop offset="0.526042" stop-color="#FFC800"/>
<stop offset="1" stop-color="#FFCE00"/>
</linearGradient>
<linearGradient id="paint2_linear" x1="64.1473" y1="140.905" x2="64.6272" y2="154.979" gradientUnits="userSpaceOnUse">
<stop stop-color="#FFBA42"/>
<stop offset="0.526042" stop-color="#FFC800"/>
<stop offset="1" stop-color="#FFCE00"/>
</linearGradient>
<linearGradient id="paint3_linear" x1="61.7219" y1="153.193" x2="61.9823" y2="160.83" gradientUnits="userSpaceOnUse">
<stop stop-color="#FFBA42"/>
<stop offset="0.526042" stop-color="#FFC800"/>
<stop offset="1" stop-color="#FFCE00"/>
</linearGradient>
<linearGradient id="paint4_linear" x1="50.7014" y1="133.482" x2="51.2471" y2="149.488" gradientUnits="userSpaceOnUse">
<stop stop-color="#FFBA42"/>
<stop offset="0.526042" stop-color="#FFC800"/>
<stop offset="1" stop-color="#FFCE00"/>
</linearGradient>
<linearGradient id="paint5_linear" x1="46.9124" y1="146.393" x2="47.1612" y2="153.69" gradientUnits="userSpaceOnUse">
<stop stop-color="#FFBA42"/>
<stop offset="0.526042" stop-color="#FFC800"/>
<stop offset="1" stop-color="#FFCE00"/>
</linearGradient>
<linearGradient id="paint6_linear" x1="37.927" y1="122.194" x2="38.5468" y2="140.374" gradientUnits="userSpaceOnUse">
<stop stop-color="#FFBA42"/>
<stop offset="0.526042" stop-color="#FFC800"/>
<stop offset="1" stop-color="#FFCE00"/>
</linearGradient>
<linearGradient id="paint7_linear" x1="32.2136" y1="134.806" x2="32.4743" y2="142.451" gradientUnits="userSpaceOnUse">
<stop stop-color="#FFBA42"/>
<stop offset="0.526042" stop-color="#FFC800"/>
<stop offset="1" stop-color="#FFCE00"/>
</linearGradient>
<linearGradient id="paint8_linear" x1="28.2492" y1="109.742" x2="28.9055" y2="128.992" gradientUnits="userSpaceOnUse">
<stop stop-color="#FFBA42"/>
<stop offset="0.526042" stop-color="#FFC800"/>
<stop offset="1" stop-color="#FFCE00"/>
</linearGradient>
<linearGradient id="paint9_linear" x1="20.9694" y1="120.542" x2="21.2818" y2="129.705" gradientUnits="userSpaceOnUse">
<stop stop-color="#FFBA42"/>
<stop offset="0.526042" stop-color="#FFC800"/>
<stop offset="1" stop-color="#FFCE00"/>
</linearGradient>
<linearGradient id="paint10_linear" x1="20.0103" y1="94.9043" x2="20.6689" y2="114.22" gradientUnits="userSpaceOnUse">
<stop stop-color="#FFBA42"/>
<stop offset="0.526042" stop-color="#FFC800"/>
<stop offset="1" stop-color="#FFCE00"/>
</linearGradient>
<linearGradient id="paint11_linear" x1="11.6997" y1="102.921" x2="12.0952" y2="114.521" gradientUnits="userSpaceOnUse">
<stop stop-color="#FFBA42"/>
<stop offset="0.526042" stop-color="#FFC800"/>
<stop offset="1" stop-color="#FFCE00"/>
</linearGradient>
<linearGradient id="paint12_linear" x1="15.6528" y1="81.0414" x2="16.2944" y2="99.8587" gradientUnits="userSpaceOnUse">
<stop stop-color="#FFBA42"/>
<stop offset="0.526042" stop-color="#FFC800"/>
<stop offset="1" stop-color="#FFCE00"/>
</linearGradient>
<linearGradient id="paint13_linear" x1="6.74649" y1="86.2729" x2="7.22028" y2="100.168" gradientUnits="userSpaceOnUse">
<stop stop-color="#FFBA42"/>
<stop offset="0.526042" stop-color="#FFC800"/>
<stop offset="1" stop-color="#FFCE00"/>
</linearGradient>
<linearGradient id="paint14_linear" x1="15.0344" y1="65.8193" x2="15.6184" y2="82.9461" gradientUnits="userSpaceOnUse">
<stop stop-color="#FFBA42"/>
<stop offset="0.526042" stop-color="#FFC800"/>
<stop offset="1" stop-color="#FFCE00"/>
</linearGradient>
<linearGradient id="paint15_linear" x1="5.65427" y1="66.5062" x2="6.2257" y2="83.2654" gradientUnits="userSpaceOnUse">
<stop stop-color="#FFBA42"/>
<stop offset="0.526042" stop-color="#FFC800"/>
<stop offset="1" stop-color="#FFCE00"/>
</linearGradient>
<linearGradient id="paint16_linear" x1="17.7084" y1="50.9292" x2="18.2032" y2="65.4422" gradientUnits="userSpaceOnUse">
<stop stop-color="#FFBA42"/>
<stop offset="0.526042" stop-color="#FFC800"/>
<stop offset="1" stop-color="#FFCE00"/>
</linearGradient>
<linearGradient id="paint17_linear" x1="8.40134" y1="47.1761" x2="9.03482" y2="65.7551" gradientUnits="userSpaceOnUse">
<stop stop-color="#FFBA42"/>
<stop offset="0.526042" stop-color="#FFC800"/>
<stop offset="1" stop-color="#FFCE00"/>
</linearGradient>
<linearGradient id="paint18_linear" x1="23.4208" y1="39.1482" x2="23.8045" y2="50.3994" gradientUnits="userSpaceOnUse">
<stop stop-color="#FFBA42"/>
<stop offset="0.526042" stop-color="#FFC800"/>
<stop offset="1" stop-color="#FFCE00"/>
</linearGradient>
<linearGradient id="paint19_linear" x1="14.6837" y1="31.3155" x2="15.3434" y2="50.6641" gradientUnits="userSpaceOnUse">
<stop stop-color="#FFBA42"/>
<stop offset="0.526042" stop-color="#FFC800"/>
<stop offset="1" stop-color="#FFCE00"/>
</linearGradient>
<linearGradient id="paint20_linear" x1="30.4023" y1="28.1239" x2="30.7204" y2="37.4514" gradientUnits="userSpaceOnUse">
<stop stop-color="#FFBA42"/>
<stop offset="0.526042" stop-color="#FFC800"/>
<stop offset="1" stop-color="#FFCE00"/>
</linearGradient>
<linearGradient id="paint21_linear" x1="22.3438" y1="18.0421" x2="23.0014" y2="37.3288" gradientUnits="userSpaceOnUse">
<stop stop-color="#FFBA42"/>
<stop offset="0.526042" stop-color="#FFC800"/>
<stop offset="1" stop-color="#FFCE00"/>
</linearGradient>
<linearGradient id="paint22_linear" x1="114.507" y1="144.294" x2="114.919" y2="156.4" gradientUnits="userSpaceOnUse">
<stop stop-color="#FFBA42"/>
<stop offset="0.526042" stop-color="#FFC800"/>
<stop offset="1" stop-color="#FFCE00"/>
</linearGradient>
<linearGradient id="paint23_linear" x1="116.441" y1="155.396" x2="116.725" y2="163.746" gradientUnits="userSpaceOnUse">
<stop stop-color="#FFBA42"/>
<stop offset="0.526042" stop-color="#FFC800"/>
<stop offset="1" stop-color="#FFCE00"/>
</linearGradient>
<linearGradient id="paint24_linear" x1="128.937" y1="138.697" x2="129.417" y2="152.77" gradientUnits="userSpaceOnUse">
<stop stop-color="#FFBA42"/>
<stop offset="0.526042" stop-color="#FFC800"/>
<stop offset="1" stop-color="#FFCE00"/>
</linearGradient>
<linearGradient id="paint25_linear" x1="132.167" y1="150.791" x2="132.427" y2="158.428" gradientUnits="userSpaceOnUse">
<stop stop-color="#FFBA42"/>
<stop offset="0.526042" stop-color="#FFC800"/>
<stop offset="1" stop-color="#FFCE00"/>
</linearGradient>
<linearGradient id="paint26_linear" x1="141.827" y1="129.834" x2="142.373" y2="145.839" gradientUnits="userSpaceOnUse">
<stop stop-color="#FFBA42"/>
<stop offset="0.526042" stop-color="#FFC800"/>
<stop offset="1" stop-color="#FFCE00"/>
</linearGradient>
<linearGradient id="paint27_linear" x1="146.457" y1="142.456" x2="146.706" y2="149.753" gradientUnits="userSpaceOnUse">
<stop stop-color="#FFBA42"/>
<stop offset="0.526042" stop-color="#FFC800"/>
<stop offset="1" stop-color="#FFCE00"/>
</linearGradient>
<linearGradient id="paint28_linear" x1="153.428" y1="117.971" x2="154.048" y2="136.151" gradientUnits="userSpaceOnUse">
<stop stop-color="#FFBA42"/>
<stop offset="0.526042" stop-color="#FFC800"/>
<stop offset="1" stop-color="#FFCE00"/>
</linearGradient>
<linearGradient id="paint29_linear" x1="159.96" y1="130.167" x2="160.221" y2="137.811" gradientUnits="userSpaceOnUse">
<stop stop-color="#FFBA42"/>
<stop offset="0.526042" stop-color="#FFC800"/>
<stop offset="1" stop-color="#FFCE00"/>
</linearGradient>
<linearGradient id="paint30_linear" x1="162.737" y1="104.111" x2="163.394" y2="123.362" gradientUnits="userSpaceOnUse">
<stop stop-color="#FFBA42"/>
<stop offset="0.526042" stop-color="#FFC800"/>
<stop offset="1" stop-color="#FFCE00"/>
</linearGradient>
<linearGradient id="paint31_linear" x1="170.71" y1="114.392" x2="171.022" y2="123.554" gradientUnits="userSpaceOnUse">
<stop stop-color="#FFBA42"/>
<stop offset="0.526042" stop-color="#FFC800"/>
<stop offset="1" stop-color="#FFCE00"/>
</linearGradient>
<linearGradient id="paint32_linear" x1="169.131" y1="89.5537" x2="169.79" y2="108.87" gradientUnits="userSpaceOnUse">
<stop stop-color="#FFBA42"/>
<stop offset="0.526042" stop-color="#FFC800"/>
<stop offset="1" stop-color="#FFCE00"/>
</linearGradient>
<linearGradient id="paint33_linear" x1="177.95" y1="96.9864" x2="178.345" y2="108.587" gradientUnits="userSpaceOnUse">
<stop stop-color="#FFBA42"/>
<stop offset="0.526042" stop-color="#FFC800"/>
<stop offset="1" stop-color="#FFCE00"/>
</linearGradient>
<linearGradient id="paint34_linear" x1="172.567" y1="75.4008" x2="173.208" y2="94.2189" gradientUnits="userSpaceOnUse">
<stop stop-color="#FFBA42"/>
<stop offset="0.526042" stop-color="#FFC800"/>
<stop offset="1" stop-color="#FFCE00"/>
</linearGradient>
<linearGradient id="paint35_linear" x1="181.796" y1="80.0136" x2="182.269" y2="93.9091" gradientUnits="userSpaceOnUse">
<stop stop-color="#FFBA42"/>
<stop offset="0.526042" stop-color="#FFC800"/>
<stop offset="1" stop-color="#FFCE00"/>
</linearGradient>
<linearGradient id="paint36_linear" x1="172.127" y1="60.6811" x2="172.711" y2="77.8071" gradientUnits="userSpaceOnUse">
<stop stop-color="#FFBA42"/>
<stop offset="0.526042" stop-color="#FFC800"/>
<stop offset="1" stop-color="#FFCE00"/>
</linearGradient>
<linearGradient id="paint37_linear" x1="181.532" y1="60.7279" x2="182.103" y2="77.4871" gradientUnits="userSpaceOnUse">
<stop stop-color="#FFBA42"/>
<stop offset="0.526042" stop-color="#FFC800"/>
<stop offset="1" stop-color="#FFCE00"/>
</linearGradient>
<linearGradient id="paint38_linear" x1="168.352" y1="46.0005" x2="168.847" y2="60.5144" gradientUnits="userSpaceOnUse">
<stop stop-color="#FFBA42"/>
<stop offset="0.526042" stop-color="#FFC800"/>
<stop offset="1" stop-color="#FFCE00"/>
</linearGradient>
<linearGradient id="paint39_linear" x1="177.391" y1="41.6224" x2="178.024" y2="60.2014" gradientUnits="userSpaceOnUse">
<stop stop-color="#FFBA42"/>
<stop offset="0.526042" stop-color="#FFC800"/>
<stop offset="1" stop-color="#FFCE00"/>
</linearGradient>
<linearGradient id="paint40_linear" x1="162.041" y1="34.8455" x2="162.425" y2="46.0975" gradientUnits="userSpaceOnUse">
<stop stop-color="#FFBA42"/>
<stop offset="0.526042" stop-color="#FFC800"/>
<stop offset="1" stop-color="#FFCE00"/>
</linearGradient>
<linearGradient id="paint41_linear" x1="170.243" y1="26.4341" x2="170.903" y2="45.7835" gradientUnits="userSpaceOnUse">
<stop stop-color="#FFBA42"/>
<stop offset="0.526042" stop-color="#FFC800"/>
<stop offset="1" stop-color="#FFCE00"/>
</linearGradient>
<linearGradient id="paint42_linear" x1="153.954" y1="24.42" x2="154.272" y2="33.7473" gradientUnits="userSpaceOnUse">
<stop stop-color="#FFBA42"/>
<stop offset="0.526042" stop-color="#FFC800"/>
<stop offset="1" stop-color="#FFCE00"/>
</linearGradient>
<linearGradient id="paint43_linear" x1="161.331" y1="13.8133" x2="161.989" y2="33.0993" gradientUnits="userSpaceOnUse">
<stop stop-color="#FFBA42"/>
<stop offset="0.526042" stop-color="#FFC800"/>
<stop offset="1" stop-color="#FFCE00"/>
</linearGradient>
<linearGradient id="paint44_linear" x1="92.0208" y1="18.1225" x2="96.8046" y2="158.424" gradientUnits="userSpaceOnUse">
<stop stop-color="#FFBA42"/>
<stop offset="0.526042" stop-color="#FFC800"/>
<stop offset="1" stop-color="#FFCE00"/>
</linearGradient>
<linearGradient id="paint45_linear" x1="42.0302" y1="18.1318" x2="42.292" y2="25.8098" gradientUnits="userSpaceOnUse">
<stop stop-color="#FFBA42"/>
<stop offset="0.526042" stop-color="#FFC800"/>
<stop offset="1" stop-color="#FFCE00"/>
</linearGradient>
<linearGradient id="paint46_linear" x1="35.4348" y1="5.98173" x2="36.0567" y2="24.2222" gradientUnits="userSpaceOnUse">
<stop stop-color="#FFBA42"/>
<stop offset="0.526042" stop-color="#FFC800"/>
<stop offset="1" stop-color="#FFCE00"/>
</linearGradient>
<linearGradient id="paint47_linear" x1="142.248" y1="14.7148" x2="142.51" y2="22.3928" gradientUnits="userSpaceOnUse">
<stop stop-color="#FFBA42"/>
<stop offset="0.526042" stop-color="#FFC800"/>
<stop offset="1" stop-color="#FFCE00"/>
</linearGradient>
<linearGradient id="paint48_linear" x1="148.03" y1="2.14285" x2="148.651" y2="20.3833" gradientUnits="userSpaceOnUse">
<stop stop-color="#FFBA42"/>
<stop offset="0.526042" stop-color="#FFC800"/>
<stop offset="1" stop-color="#FFCE00"/>
</linearGradient>
</defs>
</svg>
