<svg width="189" height="167" viewBox="0 0 189 167" fill="none" xmlns="http://www.w3.org/2000/svg">
<path d="M83.3784 149.288C87.6621 152.488 88.9577 158.006 88.9577 158.006C88.9577 158.006 83.3083 158.331 79.0245 155.13C74.74 151.93 73.4438 146.416 73.4438 146.416C73.4438 146.416 79.0923 146.087 83.3784 149.288Z" fill="url(#paint0_linear)"/>
<path d="M78.6165 158.147C83.5964 156.195 88.9576 158.005 88.9576 158.005C88.9576 158.005 86.2435 162.979 81.2613 164.934C76.2814 166.886 70.9195 165.077 70.9195 165.077C70.9195 165.077 73.6343 160.101 78.6165 158.147Z" fill="url(#paint1_linear)"/>
<path d="M66.936 145.349C70.7402 149.11 71.2651 154.752 71.2651 154.752C71.2651 154.752 65.6247 154.297 61.822 150.536C58.0194 146.776 57.4929 141.132 57.4929 141.132C57.4929 141.132 63.1333 141.587 66.936 145.349Z" fill="url(#paint2_linear)"/>
<path d="M61.0032 153.468C66.2045 152.221 71.2649 154.752 71.2649 154.752C71.2649 154.752 67.8932 159.307 62.6912 160.554C57.49 161.803 52.4304 159.271 52.4304 159.271C52.4304 159.271 55.802 154.716 61.0032 153.468Z" fill="url(#paint3_linear)"/>
<path d="M53.901 139.329C57.0605 143.646 56.6862 149.302 56.6862 149.302C56.6862 149.302 51.1916 147.96 48.0313 143.642C44.8711 139.325 45.243 133.669 45.243 133.669C45.243 133.669 50.7407 135.011 53.901 139.329Z" fill="url(#paint4_linear)"/>
<path d="M46.7595 146.408C52.0916 146.001 56.6871 149.303 56.6871 149.303C56.6871 149.303 52.6384 153.266 47.3055 153.674C41.9733 154.082 37.3778 150.78 37.3778 150.78C37.3778 150.78 41.4273 146.816 46.7595 146.408Z" fill="url(#paint5_linear)"/>
<path d="M41.5955 129.905C43.6135 134.861 41.8816 140.26 41.8816 140.26C41.8816 140.26 36.8762 137.62 34.8582 132.663C32.8386 127.705 34.5698 122.308 34.5698 122.308C34.5698 122.308 39.5759 124.947 41.5955 129.905Z" fill="url(#paint6_linear)"/>
<path d="M32.954 135.036C38.2244 135.937 41.882 140.259 41.882 140.259C41.882 140.259 36.9937 143.121 31.7234 142.221C26.4522 141.32 22.7969 136.998 22.7969 136.998C22.7969 136.998 27.6836 134.136 32.954 135.036Z" fill="url(#paint7_linear)"/>
<path d="M32.1629 118.82C32.9616 124.114 30.0102 128.954 30.0102 128.954C30.0102 128.954 25.7664 125.21 24.9692 119.915C24.1705 114.62 27.1211 109.781 27.1211 109.781C27.1211 109.781 31.3657 113.525 32.1629 118.82Z" fill="url(#paint8_linear)"/>
<path d="M22.5611 121.776C27.4714 123.893 30.0102 128.955 30.0102 128.955C30.0102 128.955 24.5895 130.587 19.6792 128.47C14.7705 126.355 12.2302 121.292 12.2302 121.292C12.2302 121.292 17.6523 119.66 22.5611 121.776Z" fill="url(#paint9_linear)"/>
<path d="M23.9617 104.742C23.6922 110.091 19.8403 114.248 19.8403 114.248C19.8403 114.248 16.4252 109.732 16.6947 104.383C16.9643 99.0334 20.8147 94.8769 20.8147 94.8769C20.8147 94.8769 24.2312 99.3921 23.9617 104.742Z" fill="url(#paint10_linear)"/>
<path d="M13.9668 105.727C18.3582 108.779 19.8403 114.248 19.8403 114.248C19.8403 114.248 14.205 114.768 9.81359 111.716C5.4237 108.663 3.94086 103.195 3.94086 103.195C3.94086 103.195 9.57695 102.676 13.9668 105.727Z" fill="url(#paint11_linear)"/>
<path d="M19.5212 91.2032C18.4101 96.4432 13.9505 99.9386 13.9505 99.9386C13.9505 99.9386 11.2927 94.937 12.4038 89.6969C13.5165 84.4576 17.9738 80.9623 17.9738 80.9623C17.9738 80.9623 20.6323 85.9632 19.5212 91.2032Z" fill="url(#paint12_linear)"/>
<path d="M9.49825 90.5927C13.3509 94.3029 13.9504 99.9389 13.9504 99.9389C13.9504 99.9389 8.30474 99.5594 4.45212 95.8492C0.600266 92.1389 0 86.5029 0 86.5029C0 86.5029 5.6464 86.8824 9.49825 90.5927Z" fill="url(#paint13_linear)"/>
<path d="M18.5853 75.9794C16.239 80.7939 11.0657 83.1013 11.0657 83.1013C11.0657 83.1013 9.70139 77.6028 12.0469 72.7876C14.3947 67.973 19.5656 65.6648 19.5656 65.6648C19.5656 65.6648 20.9331 71.1648 18.5853 75.9794Z" fill="url(#paint14_linear)"/>
<path d="M9.01469 72.9496C11.8507 77.4862 11.0664 83.1004 11.0664 83.1004C11.0664 83.1004 5.68434 81.3591 2.84681 76.8226C0.00927647 72.2861 0.793537 66.6719 0.793537 66.6719C0.793537 66.6719 6.17716 68.4131 9.01469 72.9496Z" fill="url(#paint15_linear)"/>
<path d="M20.7488 60.5064C17.3384 64.6345 11.7707 65.6616 11.7707 65.6616C11.7707 65.6616 11.7345 59.9938 15.1463 55.8648C18.5567 51.7367 24.1237 50.7105 24.1237 50.7105C24.1237 50.7105 24.1615 56.3782 20.7488 60.5064Z" fill="url(#paint16_linear)"/>
<path d="M12.1577 55.3087C13.8505 60.3872 11.7715 65.6618 11.7715 65.6618C11.7715 65.6618 6.94825 62.7011 5.25618 57.6217C3.56416 52.544 5.64321 47.2702 5.64321 47.2702C5.64321 47.2702 10.4656 50.2302 12.1577 55.3087Z" fill="url(#paint17_linear)"/>
<path d="M25.8052 47.674C21.5447 50.9162 15.8933 50.6444 15.8933 50.6444C15.8933 50.6444 17.1468 45.1163 21.4066 41.8741C25.6664 38.6319 31.3185 38.9037 31.3185 38.9037C31.3185 38.9037 30.0643 44.4326 25.8052 47.674Z" fill="url(#paint18_linear)"/>
<path d="M18.6244 40.6517C19.116 45.9838 15.8928 50.6454 15.8928 50.6454C15.8928 50.6454 11.8708 46.6624 11.38 41.3295C10.8884 35.9974 14.1123 31.335 14.1123 31.335C14.1123 31.335 18.1328 35.3188 18.6244 40.6517Z" fill="url(#paint19_linear)"/>
<path d="M32.269 36C27.5517 38.5273 22.0143 37.3634 22.0143 37.3634C22.0143 37.3634 24.1262 32.1026 28.8428 29.5761C33.5617 27.0487 39.0975 28.2119 39.0975 28.2119C39.0975 28.2119 36.9864 33.4734 32.269 36Z" fill="url(#paint20_linear)"/>
<path d="M26.2908 27.9257C25.934 33.2695 22.0144 37.3624 22.0144 37.3624C22.0144 37.3624 18.6746 32.7905 19.0314 27.4467C19.389 22.1021 23.3086 18.0092 23.3086 18.0092C23.3086 18.0092 26.6491 22.5811 26.2908 27.9257Z" fill="url(#paint21_linear)"/>
<path d="M112.342 147.58C108.276 151.066 107.347 156.657 107.347 156.657C107.347 156.657 113.006 156.598 117.069 153.114C121.134 149.629 122.064 144.037 122.064 144.037C122.064 144.037 116.406 144.095 112.342 147.58Z" fill="url(#paint22_linear)"/>
<path d="M117.676 156.096C112.578 154.487 107.347 156.657 107.347 156.657C107.347 156.657 110.383 161.437 115.481 163.047C120.579 164.656 125.809 162.486 125.809 162.486C125.809 162.486 122.774 157.705 117.676 156.096Z" fill="url(#paint23_linear)"/>
<path d="M126.448 143.32C122.9 147.332 122.746 152.998 122.746 152.998C122.746 152.998 128.345 152.16 131.891 148.148C135.438 144.137 135.591 138.47 135.591 138.47C135.591 138.47 129.995 139.308 126.448 143.32Z" fill="url(#paint24_linear)"/>
<path d="M132.901 151.017C127.63 150.127 122.747 152.997 122.747 152.997C122.747 152.997 126.412 157.311 131.683 158.202C136.956 159.094 141.838 156.223 141.838 156.223C141.838 156.223 138.174 151.907 132.901 151.017Z" fill="url(#paint25_linear)"/>
<path d="M139.02 135.885C136.152 140.407 136.896 146.026 136.896 146.026C136.896 146.026 142.29 144.31 145.16 139.787C148.029 135.266 147.286 129.648 147.286 129.648C147.286 129.648 141.89 131.362 139.02 135.885Z" fill="url(#paint26_linear)"/>
<path d="M146.611 142.461C141.263 142.418 136.895 146.026 136.895 146.026C136.895 146.026 141.196 149.705 146.544 149.748C151.891 149.792 156.259 146.183 156.259 146.183C156.259 146.183 151.958 142.505 146.611 142.461Z" fill="url(#paint27_linear)"/>
<path d="M150.276 125.914C148.587 130.998 150.671 136.266 150.671 136.266C150.671 136.266 155.491 133.291 157.18 128.208C158.868 123.123 156.784 117.856 156.784 117.856C156.784 117.856 151.964 120.831 150.276 125.914Z" fill="url(#paint28_linear)"/>
<path d="M159.235 130.447C154.036 131.705 150.672 136.266 150.672 136.266C150.672 136.266 155.735 138.789 160.935 137.531C166.135 136.274 169.5 131.713 169.5 131.713C169.5 131.713 164.435 129.19 159.235 130.447Z" fill="url(#paint29_linear)"/>
<path d="M159.428 113.435C158.981 118.773 162.243 123.402 162.243 123.402C162.243 123.402 166.231 119.376 166.68 114.039C167.127 108.701 163.866 104.072 163.866 104.072C163.866 104.072 159.878 108.099 159.428 113.435Z" fill="url(#paint30_linear)"/>
<path d="M169.203 115.731C164.444 118.177 162.243 123.402 162.243 123.402C162.243 123.402 167.76 124.66 172.519 122.214C177.28 119.768 179.479 114.545 179.479 114.545C179.479 114.545 173.962 113.286 169.203 115.731Z" fill="url(#paint31_linear)"/>
<path d="M165.836 99.6389C166.456 104.958 170.573 108.844 170.573 108.844C170.573 108.844 173.683 104.104 173.063 98.7867C172.442 93.4668 168.325 89.5812 168.325 89.5812C168.325 89.5812 165.216 94.3197 165.836 99.6389Z" fill="url(#paint32_linear)"/>
<path d="M175.872 99.9416C171.692 103.286 170.572 108.843 170.572 108.843C170.572 108.843 176.229 108.977 180.41 105.632C184.589 102.289 185.709 96.7313 185.709 96.7313C185.709 96.7313 180.052 96.597 175.872 99.9416Z" fill="url(#paint33_linear)"/>
<path d="M169.375 85.8041C170.828 90.9567 175.507 94.1405 175.507 94.1405C175.507 94.1405 177.831 88.969 176.378 83.8164C174.923 78.6638 170.245 75.48 170.245 75.48C170.245 75.48 167.922 80.6507 169.375 85.8041Z" fill="url(#paint34_linear)"/>
<path d="M179.335 84.5119C175.735 88.4762 175.506 94.1397 175.506 94.1397C175.506 94.1397 181.115 93.3756 184.715 89.4113C188.314 85.447 188.543 79.7836 188.543 79.7836C188.543 79.7836 182.934 80.5476 179.335 84.5119Z" fill="url(#paint35_linear)"/>
<path d="M169.252 71.0595C171.911 75.7033 177.222 77.6533 177.222 77.6533C177.222 77.6533 178.225 72.0741 175.565 67.4295C172.906 62.7849 167.594 60.8357 167.594 60.8357C167.594 60.8357 166.593 66.4156 169.252 71.0595Z" fill="url(#paint36_linear)"/>
<path d="M178.603 67.3857C176.071 72.1053 177.222 77.6535 177.222 77.6535C177.222 77.6535 182.479 75.5496 185.011 70.8299C187.544 66.1103 186.393 60.5621 186.393 60.5621C186.393 60.5621 181.136 62.6661 178.603 67.3857Z" fill="url(#paint37_linear)"/>
<path d="M165.948 55.7641C169.623 59.6507 175.244 60.2962 175.244 60.2962C175.244 60.2962 174.909 54.6379 171.234 50.7513C167.56 46.8648 161.938 46.2192 161.938 46.2192C161.938 46.2192 162.273 51.8776 165.948 55.7641Z" fill="url(#paint38_linear)"/>
<path d="M174.178 49.9926C172.824 55.175 175.244 60.2962 175.244 60.2962C175.244 60.2962 179.862 57.0128 181.216 51.8304C182.57 46.6488 180.149 41.5284 180.149 41.5284C180.149 41.5284 175.532 44.8094 174.178 49.9926Z" fill="url(#paint39_linear)"/>
<path d="M160.223 43.5146C164.686 46.4602 170.307 45.804 170.307 45.804C170.307 45.804 168.694 40.3736 164.23 37.4281C159.767 34.4833 154.146 35.1395 154.146 35.1395C154.146 35.1395 155.759 40.5706 160.223 43.5146Z" fill="url(#paint40_linear)"/>
<path d="M166.925 36.0178C166.785 41.3715 170.307 45.8038 170.307 45.8038C170.307 45.8038 174.058 41.555 174.198 36.2006C174.338 30.8462 170.815 26.4146 170.815 26.4146C170.815 26.4146 167.064 30.6642 166.925 36.0178Z" fill="url(#paint41_linear)"/>
<path d="M152.609 32.4054C157.482 34.6057 162.931 33.0672 162.931 33.0672C162.931 33.0672 160.478 27.962 155.605 25.7617C150.731 23.5622 145.284 25.1006 145.284 25.1006C145.284 25.1006 147.736 30.2058 152.609 32.4054Z" fill="url(#paint42_linear)"/>
<path d="M158.043 23.9429C158.751 29.2504 162.931 33.0672 162.931 33.0672C162.931 33.0672 165.963 28.2779 165.254 22.9705C164.547 17.6622 160.367 13.8462 160.367 13.8462C160.367 13.8462 157.335 18.6347 158.043 23.9429Z" fill="url(#paint43_linear)"/>
<path d="M148.215 16.2065C148.006 16.4427 147.766 16.6784 147.485 16.9124C147.404 16.9803 147.321 17.0271 147.237 17.0865C164.475 31.0388 175.718 51.6986 176.487 75.0452C177.926 118.769 142.088 155.602 96.5971 157.153C51.1058 158.704 12.9267 124.395 11.4875 80.6711C10.7531 58.3599 19.7291 37.8455 34.7372 22.8949C34.2924 22.779 33.8431 22.6186 33.389 22.4081C18.3761 37.5644 9.42019 58.2421 10.1599 80.7163C11.6222 125.143 50.4163 160.005 96.6391 158.429C142.861 156.853 179.277 119.426 177.814 74.9999C177.035 51.3336 165.661 30.3832 148.215 16.2065Z" fill="url(#paint44_linear)"/>
<path d="M43.0404 25.5048C37.8518 26.8092 32.764 24.3345 32.764 24.3345C32.764 24.3345 36.0858 19.7426 41.2728 18.4374C46.4614 17.1322 51.5492 19.6076 51.5492 19.6076C51.5492 19.6076 48.2274 24.1996 43.0404 25.5048Z" fill="url(#paint45_linear)"/>
<path d="M39.1969 16.2169C37.5561 21.3157 32.764 24.3344 32.764 24.3344C32.764 24.3344 30.6316 19.0865 32.2723 13.9869C33.9138 8.88809 38.7068 5.87016 38.7068 5.87016C38.7068 5.87016 40.8384 11.1173 39.1969 16.2169Z" fill="url(#paint46_linear)"/>
<path d="M141.726 22.14C146.988 23.0881 151.902 20.2724 151.902 20.2724C151.902 20.2724 148.284 15.9171 143.023 14.9682C137.762 14.0192 132.847 16.8357 132.847 16.8357C132.847 16.8357 136.465 21.1911 141.726 22.14Z" fill="url(#paint47_linear)"/>
<path d="M144.949 12.6114C146.923 17.5869 151.902 20.2724 151.902 20.2724C151.902 20.2724 153.683 14.8911 151.712 9.91468C149.738 4.93912 144.757 2.25443 144.757 2.25443C144.757 2.25443 142.975 7.63502 144.949 12.6114Z" fill="url(#paint48_linear)"/>
<path d="M65.642 45.388C64.718 48.622 63.134 51.812 61.418 53.88C61.814 54.584 62.474 56.08 62.672 56.696C63.134 56.146 63.596 55.508 64.058 54.826V65.892H66.544V50.118C67.138 48.798 67.622 47.434 68.04 46.114L65.642 45.388ZM77.566 56.916C77.72 57.07 77.896 57.224 78.05 57.4C77.654 57.29 77.258 57.158 77.016 57.026C76.95 57.664 76.84 57.774 76.4 57.774H74.464C73.87 57.774 73.738 57.708 73.738 57.268V56.278H71.692V56.718L70.658 56.19C70.416 56.564 70.108 56.938 69.756 57.312V55.816H74.42L73.76 56.168C74.354 56.608 75.058 57.312 75.432 57.752L76.884 56.894C76.62 56.586 76.158 56.19 75.696 55.816H79.92V57.114C79.59 56.74 79.238 56.432 78.908 56.124L77.566 56.916ZM72.418 61.404L76.95 61.382C76.356 61.8 75.608 62.196 74.728 62.504C73.87 62.218 73.078 61.844 72.418 61.404ZM71.868 53.638H77.962V54.342H71.868V53.638ZM77.962 50.162V50.822H71.868V50.162H77.962ZM77.962 52.582H71.868V51.878H77.962V52.582ZM82.252 54.342H80.404V48.886H75.696L76.026 48.116H81.812V46.246H68.194V48.116H73.32C73.276 48.38 73.232 48.644 73.166 48.886H69.536V54.342H67.534V57.466H69.602C69.272 57.796 68.92 58.104 68.568 58.324L69.998 59.446C70.658 58.984 71.23 58.346 71.714 57.686C71.758 58.302 71.956 58.676 72.374 58.896C71.978 59.336 71.472 59.776 70.878 60.216C70.702 60.018 70.526 59.82 70.372 59.622L68.48 60.282C68.7 60.612 68.964 60.898 69.25 61.206C68.678 61.492 68.106 61.778 67.446 62.02C67.908 62.328 68.568 63.01 68.854 63.494C69.536 63.186 70.152 62.856 70.724 62.526C71.12 62.812 71.538 63.076 71.978 63.34C70.548 63.67 68.876 63.934 67.072 64.11C67.534 64.638 68.084 65.43 68.326 66.002C70.746 65.672 72.88 65.21 74.728 64.594C76.576 65.232 78.666 65.65 80.976 65.892C81.262 65.32 81.768 64.462 82.23 63.978C80.558 63.846 78.996 63.648 77.544 63.34C78.908 62.592 79.942 61.668 80.646 60.612L79.084 59.732L78.644 59.82H74.178C74.376 59.6 74.552 59.38 74.75 59.16H76.664C77.83 59.16 78.358 58.874 78.578 57.95C79.062 58.478 79.524 59.072 79.788 59.49L81.196 58.61C80.976 58.302 80.646 57.884 80.25 57.466H82.252V54.342ZM99.654 57.62H96.948V58.698H84.21V60.832H89.006L87.73 61.734C88.874 62.746 90.37 64.154 91.074 65.012L93.01 63.494C92.35 62.768 91.14 61.69 90.106 60.832H96.948V63.428C96.948 63.736 96.816 63.824 96.486 63.824C96.156 63.846 94.77 63.846 93.692 63.78C93.978 64.418 94.242 65.232 94.33 65.892C96.156 65.892 97.498 65.892 98.422 65.606C99.368 65.32 99.654 64.792 99.654 63.538V60.832H103.812V58.698H99.654V57.62ZM95.342 51.724V51.504C95.958 50.822 96.552 49.964 97.08 48.974H98.752L97.85 49.722C98.422 50.316 99.17 51.108 99.632 51.724H95.342ZM98.136 46.752C98.268 46.422 98.356 46.07 98.466 45.74L96.09 45.168C95.54 47.016 94.528 48.864 93.34 50.03C93.582 50.184 93.912 50.404 94.22 50.646H92.614V51.724H90.546L92.064 50.338C91.756 49.942 91.228 49.436 90.678 48.974H93.758V46.752H88.874C89.006 46.444 89.16 46.158 89.292 45.85L86.982 45.168C86.278 46.818 85.002 48.49 83.682 49.568C84.188 49.986 85.046 50.888 85.42 51.35C86.124 50.712 86.828 49.898 87.488 48.974H89.05L88.28 49.656C89.006 50.272 89.864 51.13 90.348 51.724H84.892V53.946H92.614V55.222H86.102V57.202H101.788V55.222H95.342V53.946H103.13V51.724H100.226L101.612 50.514C101.304 50.096 100.754 49.502 100.182 48.974H104.164V46.752H98.136ZM110.61 53.902V57.95H112.986V45.41H110.61V48.688H108.96V45.916H106.782V50.668H110.61V51.878H105.924V53.902H107.156C107.134 54.716 106.892 56.256 105.704 57.18C106.298 57.422 107.244 57.95 107.684 58.302C109.136 57.092 109.444 54.936 109.444 53.902H110.61ZM116.418 52.318C118.068 52.01 119.608 51.57 120.994 50.954V52.318H116.418ZM122.38 47.874C121.918 48.358 121.346 48.776 120.708 49.15C120.29 48.732 119.806 48.27 119.322 47.874H122.38ZM126.252 61.448V59.292H122.6L123.106 58.786C122.71 58.368 122.05 57.862 121.39 57.422C121.852 57.378 122.248 57.312 122.556 57.18C123.282 56.872 123.48 56.41 123.48 55.376V54.012H125.966V52.318H123.48V50.91H121.082C122.952 50.052 124.492 48.842 125.46 47.082L124.118 46.4L123.7 46.466H120.642C120.972 46.224 121.28 45.982 121.588 45.718L119.432 45.278C118.288 46.136 116.308 46.906 113.668 47.434C114.086 47.742 114.68 48.446 114.944 48.908C115.802 48.666 116.616 48.402 117.32 48.138C117.98 48.666 118.662 49.304 119.146 49.854C117.518 50.492 115.626 50.888 113.646 51.086C113.932 51.394 114.284 51.878 114.504 52.318H113.646V54.012H115.824L114.922 54.694C115.736 55.222 116.66 56.058 117.078 56.63L118.794 55.332C118.486 54.914 117.914 54.452 117.342 54.012H120.994V55.288C120.994 55.508 120.928 55.574 120.686 55.596C120.444 55.596 119.63 55.596 118.926 55.552C119.19 56.124 119.476 56.85 119.564 57.444H120.4L119.608 58.192C120.07 58.5 120.598 58.896 121.06 59.292H117.232C117.254 59.116 117.254 58.962 117.254 58.786V57.246H114.658V58.698C114.658 58.896 114.636 59.094 114.614 59.292H105.792V61.448H113.14C111.886 62.438 109.642 63.34 105.682 63.934C106.166 64.506 106.826 65.43 107.134 66.046C112.986 65.1 115.56 63.296 116.594 61.448H117.254L116.572 62.548C119.322 63.494 123.238 64.99 125.152 65.936L126.34 63.89C124.778 63.208 122.116 62.24 119.762 61.448H126.252ZM117.628 48.886C116.352 48.974 115.274 49.062 114.35 49.128L114.57 50.448C115.56 50.338 116.572 50.228 117.65 50.118L117.628 48.886Z" fill="#5B5555"/>
<path d="M81.1856 8.78C81.1856 9.28667 81.0856 9.77333 80.8856 10.24C80.6856 10.7067 80.4256 11.16 80.1056 11.6C79.7856 12.0267 79.4256 12.44 79.0256 12.84C78.6256 13.24 78.2323 13.62 77.8456 13.98C77.6456 14.1667 77.4256 14.38 77.1856 14.62C76.959 14.8467 76.739 15.08 76.5256 15.32C76.3123 15.56 76.119 15.7867 75.9456 16C75.7856 16.2 75.6856 16.3667 75.6456 16.5H81.6056V19H72.3656C72.339 18.8533 72.3256 18.6667 72.3256 18.44C72.3256 18.2133 72.3256 18.0533 72.3256 17.96C72.3256 17.32 72.4256 16.7333 72.6256 16.2C72.839 15.6667 73.1123 15.1733 73.4456 14.72C73.779 14.2533 74.1523 13.82 74.5656 13.42C74.9923 13.02 75.4123 12.62 75.8256 12.22C76.1456 11.9133 76.4456 11.6267 76.7256 11.36C77.0056 11.08 77.2523 10.8133 77.4656 10.56C77.679 10.2933 77.8456 10.0333 77.9656 9.78C78.0856 9.51333 78.1456 9.24667 78.1456 8.98C78.1456 8.39333 77.979 7.98 77.6456 7.74C77.3123 7.5 76.899 7.38 76.4056 7.38C76.0456 7.38 75.7056 7.44 75.3856 7.56C75.079 7.66667 74.7923 7.8 74.5256 7.96C74.2723 8.10667 74.0523 8.26 73.8656 8.42C73.679 8.56667 73.539 8.68667 73.4456 8.78L71.9656 6.7C72.5523 6.15333 73.2323 5.70667 74.0056 5.36C74.7923 5 75.6323 4.82 76.5256 4.82C77.339 4.82 78.039 4.91333 78.6256 5.1C79.2123 5.28667 79.6923 5.55333 80.0656 5.9C80.4523 6.23333 80.7323 6.64667 80.9056 7.14C81.0923 7.62 81.1856 8.16667 81.1856 8.78ZM93.3128 12.04C93.3128 14.3733 92.8661 16.1667 91.9728 17.42C91.0928 18.66 89.8728 19.28 88.3128 19.28C86.7528 19.28 85.5261 18.66 84.6328 17.42C83.7528 16.1667 83.3128 14.3733 83.3128 12.04C83.3128 10.88 83.4261 9.85333 83.6528 8.96C83.8928 8.06667 84.2328 7.31333 84.6728 6.7C85.1128 6.08667 85.6395 5.62 86.2528 5.3C86.8661 4.98 87.5528 4.82 88.3128 4.82C89.8728 4.82 91.0928 5.44667 91.9728 6.7C92.8661 7.94 93.3128 9.72 93.3128 12.04ZM90.2728 12.04C90.2728 11.3467 90.2395 10.72 90.1728 10.16C90.1061 9.58667 89.9995 9.09333 89.8528 8.68C89.7061 8.26667 89.5061 7.94667 89.2528 7.72C88.9995 7.49333 88.6861 7.38 88.3128 7.38C87.9395 7.38 87.6261 7.49333 87.3728 7.72C87.1328 7.94667 86.9328 8.26667 86.7728 8.68C86.6261 9.09333 86.5195 9.58667 86.4528 10.16C86.3861 10.72 86.3528 11.3467 86.3528 12.04C86.3528 12.7333 86.3861 13.3667 86.4528 13.94C86.5195 14.5133 86.6261 15.0067 86.7728 15.42C86.9328 15.8333 87.1328 16.1533 87.3728 16.38C87.6261 16.6067 87.9395 16.72 88.3128 16.72C88.6861 16.72 88.9995 16.6067 89.2528 16.38C89.5061 16.1533 89.7061 15.8333 89.8528 15.42C89.9995 15.0067 90.1061 14.5133 90.1728 13.94C90.2395 13.3667 90.2728 12.7333 90.2728 12.04ZM103.92 8.78C103.92 9.28667 103.82 9.77333 103.62 10.24C103.42 10.7067 103.16 11.16 102.84 11.6C102.52 12.0267 102.16 12.44 101.76 12.84C101.36 13.24 100.967 13.62 100.58 13.98C100.38 14.1667 100.16 14.38 99.92 14.62C99.6933 14.8467 99.4733 15.08 99.26 15.32C99.0467 15.56 98.8533 15.7867 98.68 16C98.52 16.2 98.42 16.3667 98.38 16.5H104.34V19H95.1C95.0733 18.8533 95.06 18.6667 95.06 18.44C95.06 18.2133 95.06 18.0533 95.06 17.96C95.06 17.32 95.16 16.7333 95.36 16.2C95.5733 15.6667 95.8467 15.1733 96.18 14.72C96.5133 14.2533 96.8867 13.82 97.3 13.42C97.7267 13.02 98.1467 12.62 98.56 12.22C98.88 11.9133 99.18 11.6267 99.46 11.36C99.74 11.08 99.9867 10.8133 100.2 10.56C100.413 10.2933 100.58 10.0333 100.7 9.78C100.82 9.51333 100.88 9.24667 100.88 8.98C100.88 8.39333 100.713 7.98 100.38 7.74C100.047 7.5 99.6333 7.38 99.14 7.38C98.78 7.38 98.44 7.44 98.12 7.56C97.8133 7.66667 97.5267 7.8 97.26 7.96C97.0067 8.10667 96.7867 8.26 96.6 8.42C96.4133 8.56667 96.2733 8.68667 96.18 8.78L94.7 6.7C95.2867 6.15333 95.9667 5.70667 96.74 5.36C97.5267 5 98.3667 4.82 99.26 4.82C100.073 4.82 100.773 4.91333 101.36 5.1C101.947 5.28667 102.427 5.55333 102.8 5.9C103.187 6.23333 103.467 6.64667 103.64 7.14C103.827 7.62 103.92 8.16667 103.92 8.78ZM116.047 12.04C116.047 14.3733 115.601 16.1667 114.707 17.42C113.827 18.66 112.607 19.28 111.047 19.28C109.487 19.28 108.261 18.66 107.367 17.42C106.487 16.1667 106.047 14.3733 106.047 12.04C106.047 10.88 106.161 9.85333 106.387 8.96C106.627 8.06667 106.967 7.31333 107.407 6.7C107.847 6.08667 108.374 5.62 108.987 5.3C109.601 4.98 110.287 4.82 111.047 4.82C112.607 4.82 113.827 5.44667 114.707 6.7C115.601 7.94 116.047 9.72 116.047 12.04ZM113.007 12.04C113.007 11.3467 112.974 10.72 112.907 10.16C112.841 9.58667 112.734 9.09333 112.587 8.68C112.441 8.26667 112.241 7.94667 111.987 7.72C111.734 7.49333 111.421 7.38 111.047 7.38C110.674 7.38 110.361 7.49333 110.107 7.72C109.867 7.94667 109.667 8.26667 109.507 8.68C109.361 9.09333 109.254 9.58667 109.187 10.16C109.121 10.72 109.087 11.3467 109.087 12.04C109.087 12.7333 109.121 13.3667 109.187 13.94C109.254 14.5133 109.361 15.0067 109.507 15.42C109.667 15.8333 109.867 16.1533 110.107 16.38C110.361 16.6067 110.674 16.72 111.047 16.72C111.421 16.72 111.734 16.6067 111.987 16.38C112.241 16.1533 112.441 15.8333 112.587 15.42C112.734 15.0067 112.841 14.5133 112.907 13.94C112.974 13.3667 113.007 12.7333 113.007 12.04Z" fill="#5B5555"/>
<path d="M53.076 83.684V79.484H53.208C53.796 81.044 54.636 82.532 55.644 83.684H53.076ZM49.284 83.684C50.304 82.532 51.156 81.056 51.744 79.484H51.9V83.684H49.284ZM57.732 79.484V78.356H53.076V75.932H51.9V78.356H47.304V79.484H50.616C49.8 81.416 48.444 83.24 46.932 84.2C47.208 84.428 47.568 84.824 47.76 85.112C48.276 84.728 48.768 84.272 49.248 83.744V84.812H51.9V86.936H53.076V84.812H55.728V83.768C56.172 84.272 56.664 84.716 57.18 85.076C57.372 84.752 57.78 84.32 58.056 84.092C56.52 83.156 55.152 81.38 54.324 79.484H57.732ZM66.624 80.144C66.444 80.84 66.204 81.476 65.88 82.052C65.736 81.38 65.616 80.564 65.532 79.7H67.908V78.872H67.176L67.704 78.32C67.44 78.056 66.912 77.732 66.48 77.528L65.964 78.044C66.396 78.26 66.912 78.596 67.152 78.872H65.46C65.436 78.5 65.412 78.104 65.4 77.72H64.476C64.5 78.104 64.524 78.488 64.548 78.872H61.104V79.7H64.62C64.74 80.972 64.92 82.136 65.208 83.048C64.992 83.324 64.752 83.576 64.488 83.804L64.464 83.06C63.168 83.264 61.86 83.468 60.984 83.588L61.104 84.428C62.064 84.26 63.276 84.032 64.452 83.84C64.164 84.08 63.852 84.296 63.528 84.488C63.708 84.644 64.032 85.004 64.152 85.172C64.68 84.836 65.16 84.428 65.58 83.972C65.868 84.5 66.228 84.848 66.672 84.968C67.368 85.244 67.872 84.776 68.04 83.408C67.848 83.3 67.512 83.06 67.332 82.88C67.26 83.624 67.152 84.116 67.008 84.068C66.696 84.008 66.432 83.684 66.228 83.168C66.78 82.364 67.224 81.416 67.512 80.324L66.624 80.144ZM63.348 82.004H62.22V80.972H63.348V82.004ZM61.476 80.336V82.64H64.128V80.336H61.476ZM60.552 85.448V77.468H68.4V85.448H60.552ZM59.496 76.46V86.984H60.552V86.456H68.4V86.984H69.504V76.46H59.496ZM73.98 84.968V81.992H75.6V81.02H73.98V79.892H75.132V78.944H72.348C72.804 78.5 73.248 77.996 73.644 77.468C74.268 78.008 74.94 78.644 75.36 79.1L76.032 78.308C75.6 77.84 74.88 77.204 74.172 76.664C74.256 76.532 74.328 76.388 74.4 76.268L73.476 75.92C72.888 77 71.88 78.032 70.92 78.68C71.064 78.944 71.328 79.52 71.4 79.748C71.556 79.64 71.724 79.496 71.892 79.352V79.892H73.008V81.02H71.268V81.992H73.008V85.172C72.276 85.316 71.616 85.448 71.088 85.544L71.364 86.624C72.588 86.336 74.208 85.928 75.732 85.556L75.636 84.62L73.98 84.968ZM71.508 82.688C71.712 83.384 71.928 84.296 71.976 84.884L72.78 84.656C72.708 84.068 72.492 83.192 72.264 82.508L71.508 82.688ZM74.844 84.656C75.06 84.116 75.312 83.276 75.54 82.58L74.7 82.34C74.592 82.964 74.364 83.864 74.184 84.44L74.844 84.656ZM77.352 79.544H80.424V80.792H77.352V79.544ZM80.424 77.408V78.632H77.352V77.408H80.424ZM81.204 82.04C80.82 82.412 80.232 82.88 79.716 83.24C79.5 82.772 79.32 82.28 79.164 81.764H81.504V76.448H76.272V85.28C76.272 85.724 76.02 85.916 75.792 86.012C75.948 86.24 76.116 86.708 76.176 86.972C76.416 86.78 76.812 86.624 79.248 85.88C79.2 85.628 79.152 85.196 79.152 84.896L77.352 85.388V81.764H78.192C78.756 84.008 79.716 85.856 81.336 86.804C81.504 86.504 81.84 86.072 82.104 85.856C81.324 85.472 80.688 84.836 80.172 84.056C80.736 83.708 81.396 83.24 81.924 82.808L81.204 82.04ZM93.6 76.628H87.78V77.696H93.6V76.628ZM85.668 75.92C85.08 76.784 83.928 77.852 82.932 78.5C83.136 78.716 83.436 79.148 83.568 79.4C84.672 78.62 85.92 77.432 86.736 76.364L85.668 75.92ZM86.136 78.488C85.332 79.844 84.036 81.212 82.812 82.088C83.04 82.304 83.436 82.796 83.58 83.036C83.964 82.724 84.372 82.352 84.768 81.956V86.972H85.884V80.72C86.376 80.12 86.82 79.496 87.192 78.884L86.136 78.488ZM93.936 79.904H87.276V80.972H91.068V85.58C91.068 85.748 90.996 85.808 90.768 85.808C90.552 85.82 89.748 85.82 88.98 85.796C89.136 86.12 89.292 86.588 89.34 86.912C90.456 86.912 91.164 86.9 91.608 86.732C92.064 86.552 92.208 86.228 92.208 85.592V80.972H93.936V79.904ZM97.92 78.08C97.932 77.372 97.944 76.652 97.944 75.968H96.816C96.816 76.652 96.816 77.372 96.804 78.08H95.232V79.172H96.768C96.66 81.884 96.288 84.5 94.944 86.132C95.244 86.312 95.628 86.648 95.832 86.924C97.296 85.064 97.728 82.172 97.872 79.172H99.336C99.168 83.42 98.964 85.004 98.664 85.364C98.532 85.532 98.424 85.58 98.244 85.58C98.028 85.58 97.608 85.568 97.14 85.532C97.32 85.856 97.452 86.348 97.464 86.672C97.98 86.696 98.472 86.696 98.796 86.648C99.156 86.588 99.396 86.468 99.648 86.12C100.08 85.556 100.26 83.756 100.476 78.632C100.476 78.476 100.488 78.08 100.488 78.08H97.92ZM102.336 84.812V78.44H104.34V84.812H102.336ZM101.232 77.36V86.744H102.336V85.88H104.34V86.648H105.492V77.36H101.232ZM117.9 79.436C117.516 78.728 116.664 77.684 115.932 76.928L115.14 77.408C115.392 77.708 115.68 78.02 115.956 78.368L112.86 78.62C113.46 77.948 114.06 77.096 114.54 76.268L113.388 75.992C112.932 76.988 112.188 77.996 111.948 78.272C111.732 78.548 111.528 78.728 111.324 78.776C111.444 79.04 111.636 79.52 111.696 79.724C112.02 79.592 112.536 79.544 116.568 79.196C116.76 79.484 116.928 79.76 117.048 80L117.9 79.436ZM108.228 81.908C108.288 81.404 108.348 80.852 108.408 80.312H110.952V76.568H107.232V77.576H109.92V79.292H107.52C107.424 80.456 107.232 81.956 107.064 82.904H109.932C109.812 84.764 109.668 85.532 109.464 85.748C109.356 85.868 109.236 85.88 109.044 85.88C108.84 85.88 108.348 85.88 107.82 85.832C107.988 86.12 108.12 86.552 108.132 86.852C108.696 86.888 109.236 86.876 109.548 86.84C109.908 86.804 110.16 86.72 110.388 86.456C110.724 86.072 110.892 85.016 111.048 82.352C111.06 82.208 111.072 81.908 111.072 81.908H108.228ZM112.548 82.928V81.5H113.928V82.928H112.548ZM116.388 81.5V82.928H114.984V81.5H116.388ZM118.116 86.564C117.876 85.856 117.252 84.776 116.664 83.96L115.752 84.356C115.944 84.644 116.136 84.968 116.328 85.292L114.984 85.376V83.84H117.408V80.6H114.984V79.52H113.928V80.6H111.576V83.84H113.928V85.436C112.86 85.496 111.876 85.544 111.12 85.58L111.264 86.672C112.74 86.576 114.828 86.432 116.832 86.264C116.964 86.54 117.072 86.792 117.144 87.02L118.116 86.564ZM129.864 77.456H128.724C128.556 77.012 128.292 76.436 128.052 75.98L127.128 76.256C127.32 76.616 127.512 77.06 127.644 77.456H126.348V78.368H129.864V77.456ZM127.788 80.432C127.776 79.904 127.608 79.112 127.392 78.5L126.648 78.692C126.852 79.316 126.996 80.132 127.008 80.648L127.788 80.432ZM122.544 77.48H121.452C121.308 77.06 121.068 76.496 120.816 76.064L119.892 76.34C120.072 76.676 120.252 77.108 120.384 77.48H119.112V78.392H122.544V77.48ZM120.492 80.42C120.468 79.916 120.324 79.136 120.12 78.548L119.376 78.728C119.568 79.34 119.7 80.132 119.7 80.636L120.492 80.42ZM122.388 83.756V82.844H121.284V81.596H122.592V80.684H121.68C121.86 80.096 122.064 79.34 122.256 78.668L121.392 78.488C121.308 79.136 121.092 80.06 120.912 80.684H119.028V81.596H120.3V82.844H119.172V83.756H120.276C120.216 84.644 119.976 85.64 119.112 86.264C119.328 86.432 119.628 86.768 119.772 86.984C120.828 86.132 121.176 84.884 121.26 83.756H122.388ZM125.88 78.596H124.308C124.332 77.744 124.344 76.868 124.344 75.944H123.468C123.468 76.856 123.468 77.744 123.456 78.596H122.784V79.556H123.432C123.324 82.4 122.964 84.74 121.86 86.312C122.052 86.468 122.46 86.804 122.58 86.972C123.78 85.124 124.152 82.64 124.284 79.556H124.968C124.908 83.888 124.848 85.364 124.668 85.676C124.584 85.832 124.5 85.868 124.368 85.868C124.212 85.868 123.924 85.868 123.6 85.844C123.732 86.096 123.828 86.492 123.84 86.756C124.212 86.768 124.56 86.78 124.8 86.732C125.1 86.684 125.292 86.576 125.472 86.276C125.748 85.82 125.808 84.164 125.88 79.064V78.596ZM130.008 81.608V80.696H129.096C129.276 80.096 129.48 79.316 129.636 78.644L128.784 78.452C128.7 79.1 128.484 80.06 128.292 80.696H126.3V81.608H127.668V83.024H126.516V83.936H127.668V86.924H128.676V83.936H129.864V83.024H128.676V81.608H130.008ZM134.784 83.444C134.376 83.588 133.944 83.72 133.536 83.852V81.14H134.676V80.108H133.536V77.72H134.868V76.688H131.052V77.72H132.468V80.108H131.172V81.14H132.468V84.188C131.892 84.368 131.364 84.512 130.932 84.632L131.196 85.772C132.276 85.424 133.668 84.956 134.976 84.5L134.784 83.444ZM136.404 79.604H137.976V80.924H136.404V79.604ZM136.404 77.42H137.976V78.716H136.404V77.42ZM140.46 78.716H138.924V77.42H140.46V78.716ZM140.46 80.924H138.924V79.604H140.46V80.924ZM139.02 85.544V84.116H141.684V83.108H139.02V81.872H141.528V76.472H135.384V81.872H137.88V83.108H135.276V84.116H137.88V85.544H134.4V86.564H142.068V85.544H139.02ZM37.7063 98.028V95.124H40.8263V98.028H37.7063ZM33.4343 98.028V95.124H36.5423V98.028H33.4343ZM37.7063 94.032V91.944H36.5423V94.032H32.3183V99.828H33.4343V99.12H36.5423V102.936H37.7063V99.12H40.8263V99.768H41.9903V94.032H37.7063ZM48.5903 92.1V101.472C48.5903 101.712 48.5063 101.784 48.2543 101.796C48.0023 101.808 47.1263 101.808 46.3103 101.772C46.4903 102.096 46.6823 102.624 46.7543 102.936C47.8943 102.948 48.6623 102.912 49.1423 102.732C49.6103 102.54 49.8023 102.216 49.8023 101.472V92.1H48.5903ZM51.4583 95.16C52.4303 96.888 53.3783 99.12 53.6303 100.536L54.8423 100.056C54.5423 98.604 53.5583 96.42 52.5383 94.752L51.4583 95.16ZM45.4823 94.848C45.2063 96.432 44.5703 98.496 43.5623 99.744C43.8623 99.852 44.3543 100.128 44.6303 100.332C45.6743 99 46.3463 96.828 46.7423 95.076L45.4823 94.848ZM61.8383 98.868H65.1743V97.872H61.8383V95.244H60.6623V101.592H58.6463V97.296H57.5543V101.592H56.1263V102.612H66.2663V101.592H61.8383V98.868ZM61.0583 91.824C59.8703 93.624 57.7103 95.172 55.5383 96.024C55.8263 96.288 56.1383 96.684 56.3063 96.972C58.1063 96.156 59.8583 94.932 61.1663 93.456C62.7503 95.208 64.3703 96.168 66.1103 96.984C66.2423 96.636 66.5543 96.252 66.8303 96.012C65.0423 95.292 63.3023 94.38 61.7903 92.688C61.8863 92.556 61.9823 92.436 62.0663 92.304L61.0583 91.824ZM71.3183 100.668C70.5503 101.16 69.0983 101.604 67.8863 101.784C68.1143 101.988 68.4023 102.36 68.5583 102.6C69.7943 102.324 71.2943 101.7 72.1343 101.052L71.3183 100.668ZM74.3423 101.16C75.4343 101.58 76.8983 102.216 77.6423 102.588L78.3863 101.94C77.5823 101.556 76.1183 100.98 75.0623 100.596L74.3423 101.16ZM74.9783 94.872C74.8103 95.184 74.5343 95.64 74.3063 95.94L74.7383 96.072H71.4623L72.0023 95.928C71.9063 95.652 71.6783 95.208 71.4383 94.872H74.9783ZM73.6823 99.228V98.508H77.3663V97.668H73.6823V96.948H77.9303V96.072H75.3863C75.6263 95.796 75.9023 95.472 76.1663 95.112L75.2303 94.872H78.3743V93.984H76.6583C76.9703 93.54 77.3303 92.94 77.6543 92.352L76.5023 92.052C76.3223 92.592 75.9503 93.348 75.6623 93.828L76.1303 93.984H74.8223V91.92H73.7663V93.984H72.5783V91.92H71.5343V93.984H70.1903L70.8263 93.744C70.6583 93.276 70.2383 92.544 69.8663 92.028L68.8943 92.364C69.2303 92.856 69.5903 93.516 69.7703 93.984H67.9823V94.872H71.0423L70.3463 95.04C70.5503 95.352 70.7543 95.772 70.8743 96.072H68.4623V96.948H72.5903V97.668H69.0503V98.508H72.5903V99.228H67.9343V100.164H72.5903V102.948H73.6823V100.164H78.4103V99.228H73.6823ZM83.1863 93.492C83.0783 93.06 82.8143 92.4 82.5743 91.896L81.5903 92.16C81.8063 92.664 82.0583 93.36 82.1663 93.792L83.1863 93.492ZM86.7383 95.16H88.6943C88.4903 96.504 88.1903 97.644 87.7223 98.64C87.2663 97.632 86.9423 96.492 86.7023 95.244L86.7383 95.16ZM90.6743 95.16V94.128H87.0623C87.2303 93.48 87.3863 92.796 87.5183 92.112L86.3783 91.932C86.0423 93.936 85.4303 95.868 84.4943 97.092L84.5063 96.732C84.5183 96.588 84.5183 96.252 84.5183 96.252H82.0703V94.848H84.9743V93.804H79.7183V94.848H81.0263V97.248C81.0263 98.868 80.8463 100.68 79.4663 102.192C79.7423 102.384 80.1023 102.684 80.2943 102.924C81.8303 101.256 82.0703 99.228 82.0703 97.272H83.4383C83.3783 100.344 83.2943 101.448 83.1023 101.7C83.0303 101.832 82.9223 101.868 82.7543 101.868C82.5623 101.868 82.1663 101.868 81.7343 101.82C81.8783 102.108 81.9863 102.54 82.0223 102.84C82.5143 102.864 83.0183 102.864 83.3063 102.816C83.6423 102.768 83.8463 102.66 84.0503 102.384C84.3383 101.988 84.4223 100.728 84.4943 97.284C84.7583 97.512 85.1063 97.884 85.2623 98.088C85.5383 97.716 85.8023 97.296 86.0303 96.828C86.3063 97.908 86.6423 98.904 87.0863 99.768C86.4263 100.728 85.5263 101.472 84.3503 102.012C84.5663 102.228 84.8783 102.732 84.9863 102.984C86.1023 102.408 86.9903 101.688 87.6983 100.8C88.3103 101.688 89.0663 102.408 90.0383 102.912C90.1943 102.6 90.5543 102.168 90.7943 101.952C89.7863 101.484 88.9823 100.728 88.3583 99.78C89.0543 98.52 89.5103 97.008 89.8103 95.16H90.6743ZM96.9383 96.432H92.1743V97.344H96.9383V96.936C97.2023 97.104 97.5623 97.356 97.7303 97.512C98.1263 96.852 98.4503 96.036 98.7263 95.1H101.354C101.21 95.88 101.006 96.66 100.814 97.212L101.726 97.488C102.038 96.66 102.386 95.388 102.602 94.272L101.846 94.044L101.678 94.092H98.9783C99.1223 93.456 99.2423 92.784 99.3383 92.1L98.2463 91.956C98.0303 93.744 97.6343 95.472 96.9383 96.66V96.432ZM94.0223 94.764H92.0663V95.676H97.0583V94.764H95.0663V93.912H97.3103V93H95.0663V92.004H94.0223V93H91.7903V93.912H94.0223V94.764ZM92.5343 99.36C92.2943 100.176 91.9223 101.1 91.5263 101.724C91.7783 101.808 92.1983 102 92.4023 102.132C92.7623 101.472 93.1703 100.476 93.4583 99.588L92.5343 99.36ZM97.4303 99.036V98.112H91.6343V99.036H94.0343V102.936H95.0903V99.036H97.4303ZM95.6183 99.684C95.9303 100.296 96.2783 101.1 96.4223 101.604L97.3223 101.196C97.1543 100.728 96.7823 99.936 96.4583 99.348L95.6183 99.684ZM100.214 95.94H99.1583V96.492C99.1583 98.064 98.9783 100.404 96.9143 102.216C97.1903 102.372 97.5743 102.732 97.7663 102.972C98.8463 102 99.4463 100.872 99.7943 99.768C100.274 101.16 100.994 102.276 102.038 102.924C102.206 102.636 102.542 102.216 102.794 101.988C101.414 101.256 100.574 99.588 100.178 97.668C100.202 97.248 100.214 96.876 100.214 96.528V95.94ZM114.398 95.016V93.924H109.466L110.27 93.576C110.102 93.096 109.73 92.376 109.418 91.836L108.326 92.244C108.602 92.76 108.926 93.444 109.082 93.924H103.946V95.016H107.09C106.97 97.656 106.694 100.572 103.718 102.084C104.018 102.312 104.366 102.696 104.534 102.996C106.754 101.796 107.63 99.864 108.014 97.8H112.058C111.866 100.248 111.65 101.364 111.314 101.64C111.158 101.76 111.002 101.784 110.738 101.784C110.402 101.784 109.586 101.772 108.734 101.7C108.962 102.012 109.118 102.468 109.13 102.792C109.934 102.84 110.714 102.852 111.158 102.816C111.662 102.768 111.974 102.672 112.298 102.348C112.778 101.856 113.006 100.536 113.234 97.224C113.27 97.068 113.282 96.72 113.282 96.72H108.182C108.254 96.156 108.29 95.58 108.326 95.016H114.398ZM125.15 94.548H126.218V92.784H121.898C121.742 92.496 121.526 92.172 121.37 91.908L120.218 92.172C120.314 92.364 120.434 92.568 120.554 92.784H116.138V94.548H117.17V93.72H125.15V94.548ZM122.582 95.832C122.246 96.204 121.826 96.528 121.322 96.78C120.614 96.636 119.882 96.504 119.15 96.384C119.33 96.204 119.522 96.024 119.714 95.832H122.582ZM126.326 98.052C125.378 97.74 124.13 97.404 122.738 97.08C123.218 96.744 123.614 96.324 123.938 95.832H126.398V94.944H124.406C124.478 94.764 124.55 94.584 124.61 94.392L123.518 94.164C123.422 94.44 123.326 94.704 123.194 94.944H120.518C120.782 94.644 121.01 94.344 121.214 94.056L120.158 93.72C119.906 94.116 119.606 94.524 119.258 94.944H115.934V95.832H118.478C118.094 96.228 117.722 96.624 117.386 96.924C118.166 97.044 118.946 97.188 119.702 97.332C118.658 97.56 117.41 97.68 115.886 97.74C116.042 97.98 116.198 98.34 116.282 98.664C118.538 98.52 120.278 98.268 121.574 97.728C123.062 98.052 124.322 98.424 125.246 98.772L126.326 98.052ZM118.634 100.272C118.034 100.932 116.93 101.532 115.886 101.892C116.162 102.072 116.606 102.432 116.822 102.648C117.842 102.192 119.042 101.448 119.738 100.632L118.634 100.272ZM126.518 99.204H121.682V98.292H120.566V99.204H115.826V100.128H120.566V102.936H121.682V100.128H123.218L122.462 100.824C123.518 101.34 124.862 102.168 125.51 102.744L126.362 101.952C125.666 101.376 124.298 100.608 123.254 100.128H126.518V99.204ZM132.694 104.388L133.558 104.004C132.526 102.288 132.046 100.26 132.046 98.244C132.046 96.24 132.526 94.212 133.558 92.484L132.694 92.112C131.578 93.924 130.918 95.88 130.918 98.244C130.918 100.632 131.578 102.564 132.694 104.388ZM136.611 98.388L136.971 97.2C137.259 96.24 137.535 95.268 137.787 94.26H137.835C138.111 95.256 138.375 96.24 138.675 97.2L139.023 98.388H136.611ZM140.103 102H141.579L138.651 93.168H137.043L134.115 102H135.531L136.287 99.48H139.359L140.103 102ZM146.872 98.928C146.74 98.292 146.416 97.248 146.092 96.444L145.252 96.696C145.372 97.008 145.492 97.368 145.588 97.716L143.812 97.944C144.784 96.888 145.744 95.58 146.524 94.272L145.576 93.696C145.312 94.224 145 94.752 144.676 95.232L143.512 95.328C144.172 94.464 144.832 93.36 145.348 92.292L144.352 91.872C143.848 93.168 142.996 94.524 142.744 94.86C142.48 95.22 142.276 95.46 142.048 95.508C142.168 95.784 142.324 96.276 142.384 96.48C142.564 96.396 142.828 96.336 144.004 96.204C143.596 96.768 143.248 97.212 143.056 97.404C142.672 97.824 142.384 98.112 142.12 98.184C142.24 98.46 142.408 98.988 142.468 99.204C142.72 99.06 143.14 98.964 145.828 98.568C145.9 98.82 145.948 99.048 145.984 99.24L146.872 98.928ZM142.6 99.648C142.504 100.62 142.336 101.676 142.072 102.396C142.3 102.468 142.756 102.612 142.96 102.72C143.224 101.976 143.428 100.848 143.524 99.816L142.6 99.648ZM144.04 99.78C144.184 100.596 144.316 101.676 144.34 102.372L145.252 102.18C145.204 101.472 145.06 100.428 144.916 99.612L144.04 99.78ZM145.396 99.54C145.6 100.176 145.852 101.016 145.948 101.556L146.812 101.256C146.704 100.716 146.452 99.912 146.212 99.288L145.396 99.54ZM148.396 99.6H151.228V101.712H148.396V99.6ZM151.228 93.552V95.556H148.396V93.552H151.228ZM151.228 98.604H148.396V96.552H151.228V98.604ZM152.296 101.712V92.532H147.376V101.712H146.38V102.72H153.076V101.712H152.296ZM154.996 104.388C156.124 102.564 156.784 100.632 156.784 98.244C156.784 95.88 156.124 93.924 154.996 92.112L154.132 92.484C155.164 94.212 155.644 96.24 155.644 98.244C155.644 100.26 155.164 102.288 154.132 104.004L154.996 104.388Z" fill="#5B5555"/>
<defs>
<linearGradient id="paint0_linear" x1="81.0015" y1="146.157" x2="81.4143" y2="158.263" gradientUnits="userSpaceOnUse">
<stop stop-color="#FFBA42"/>
<stop offset="0.526042" stop-color="#FFC800"/>
<stop offset="1" stop-color="#FFCE00"/>
</linearGradient>
<linearGradient id="paint1_linear" x1="79.8011" y1="157.366" x2="80.0858" y2="165.715" gradientUnits="userSpaceOnUse">
<stop stop-color="#FFBA42"/>
<stop offset="0.526042" stop-color="#FFC800"/>
<stop offset="1" stop-color="#FFCE00"/>
</linearGradient>
<linearGradient id="paint2_linear" x1="64.1474" y1="140.905" x2="64.6272" y2="154.979" gradientUnits="userSpaceOnUse">
<stop stop-color="#FFBA42"/>
<stop offset="0.526042" stop-color="#FFC800"/>
<stop offset="1" stop-color="#FFCE00"/>
</linearGradient>
<linearGradient id="paint3_linear" x1="61.7219" y1="153.193" x2="61.9823" y2="160.83" gradientUnits="userSpaceOnUse">
<stop stop-color="#FFBA42"/>
<stop offset="0.526042" stop-color="#FFC800"/>
<stop offset="1" stop-color="#FFCE00"/>
</linearGradient>
<linearGradient id="paint4_linear" x1="50.7014" y1="133.482" x2="51.2472" y2="149.488" gradientUnits="userSpaceOnUse">
<stop stop-color="#FFBA42"/>
<stop offset="0.526042" stop-color="#FFC800"/>
<stop offset="1" stop-color="#FFCE00"/>
</linearGradient>
<linearGradient id="paint5_linear" x1="46.9124" y1="146.393" x2="47.1612" y2="153.69" gradientUnits="userSpaceOnUse">
<stop stop-color="#FFBA42"/>
<stop offset="0.526042" stop-color="#FFC800"/>
<stop offset="1" stop-color="#FFCE00"/>
</linearGradient>
<linearGradient id="paint6_linear" x1="37.927" y1="122.194" x2="38.5469" y2="140.374" gradientUnits="userSpaceOnUse">
<stop stop-color="#FFBA42"/>
<stop offset="0.526042" stop-color="#FFC800"/>
<stop offset="1" stop-color="#FFCE00"/>
</linearGradient>
<linearGradient id="paint7_linear" x1="32.2136" y1="134.806" x2="32.4743" y2="142.451" gradientUnits="userSpaceOnUse">
<stop stop-color="#FFBA42"/>
<stop offset="0.526042" stop-color="#FFC800"/>
<stop offset="1" stop-color="#FFCE00"/>
</linearGradient>
<linearGradient id="paint8_linear" x1="28.2492" y1="109.742" x2="28.9056" y2="128.992" gradientUnits="userSpaceOnUse">
<stop stop-color="#FFBA42"/>
<stop offset="0.526042" stop-color="#FFC800"/>
<stop offset="1" stop-color="#FFCE00"/>
</linearGradient>
<linearGradient id="paint9_linear" x1="20.9694" y1="120.542" x2="21.2818" y2="129.705" gradientUnits="userSpaceOnUse">
<stop stop-color="#FFBA42"/>
<stop offset="0.526042" stop-color="#FFC800"/>
<stop offset="1" stop-color="#FFCE00"/>
</linearGradient>
<linearGradient id="paint10_linear" x1="20.0103" y1="94.9043" x2="20.6689" y2="114.22" gradientUnits="userSpaceOnUse">
<stop stop-color="#FFBA42"/>
<stop offset="0.526042" stop-color="#FFC800"/>
<stop offset="1" stop-color="#FFCE00"/>
</linearGradient>
<linearGradient id="paint11_linear" x1="11.6997" y1="102.921" x2="12.0952" y2="114.521" gradientUnits="userSpaceOnUse">
<stop stop-color="#FFBA42"/>
<stop offset="0.526042" stop-color="#FFC800"/>
<stop offset="1" stop-color="#FFCE00"/>
</linearGradient>
<linearGradient id="paint12_linear" x1="15.6528" y1="81.0414" x2="16.2944" y2="99.8587" gradientUnits="userSpaceOnUse">
<stop stop-color="#FFBA42"/>
<stop offset="0.526042" stop-color="#FFC800"/>
<stop offset="1" stop-color="#FFCE00"/>
</linearGradient>
<linearGradient id="paint13_linear" x1="6.74649" y1="86.2729" x2="7.22028" y2="100.168" gradientUnits="userSpaceOnUse">
<stop stop-color="#FFBA42"/>
<stop offset="0.526042" stop-color="#FFC800"/>
<stop offset="1" stop-color="#FFCE00"/>
</linearGradient>
<linearGradient id="paint14_linear" x1="15.0344" y1="65.8193" x2="15.6184" y2="82.9461" gradientUnits="userSpaceOnUse">
<stop stop-color="#FFBA42"/>
<stop offset="0.526042" stop-color="#FFC800"/>
<stop offset="1" stop-color="#FFCE00"/>
</linearGradient>
<linearGradient id="paint15_linear" x1="5.65421" y1="66.5062" x2="6.22564" y2="83.2654" gradientUnits="userSpaceOnUse">
<stop stop-color="#FFBA42"/>
<stop offset="0.526042" stop-color="#FFC800"/>
<stop offset="1" stop-color="#FFCE00"/>
</linearGradient>
<linearGradient id="paint16_linear" x1="17.7083" y1="50.9292" x2="18.2032" y2="65.4422" gradientUnits="userSpaceOnUse">
<stop stop-color="#FFBA42"/>
<stop offset="0.526042" stop-color="#FFC800"/>
<stop offset="1" stop-color="#FFCE00"/>
</linearGradient>
<linearGradient id="paint17_linear" x1="8.4014" y1="47.1761" x2="9.03488" y2="65.7551" gradientUnits="userSpaceOnUse">
<stop stop-color="#FFBA42"/>
<stop offset="0.526042" stop-color="#FFC800"/>
<stop offset="1" stop-color="#FFCE00"/>
</linearGradient>
<linearGradient id="paint18_linear" x1="23.4208" y1="39.1482" x2="23.8044" y2="50.3994" gradientUnits="userSpaceOnUse">
<stop stop-color="#FFBA42"/>
<stop offset="0.526042" stop-color="#FFC800"/>
<stop offset="1" stop-color="#FFCE00"/>
</linearGradient>
<linearGradient id="paint19_linear" x1="14.6837" y1="31.3155" x2="15.3434" y2="50.6641" gradientUnits="userSpaceOnUse">
<stop stop-color="#FFBA42"/>
<stop offset="0.526042" stop-color="#FFC800"/>
<stop offset="1" stop-color="#FFCE00"/>
</linearGradient>
<linearGradient id="paint20_linear" x1="30.4024" y1="28.1239" x2="30.7204" y2="37.4514" gradientUnits="userSpaceOnUse">
<stop stop-color="#FFBA42"/>
<stop offset="0.526042" stop-color="#FFC800"/>
<stop offset="1" stop-color="#FFCE00"/>
</linearGradient>
<linearGradient id="paint21_linear" x1="22.3439" y1="18.0421" x2="23.0015" y2="37.3288" gradientUnits="userSpaceOnUse">
<stop stop-color="#FFBA42"/>
<stop offset="0.526042" stop-color="#FFC800"/>
<stop offset="1" stop-color="#FFCE00"/>
</linearGradient>
<linearGradient id="paint22_linear" x1="114.507" y1="144.294" x2="114.919" y2="156.4" gradientUnits="userSpaceOnUse">
<stop stop-color="#FFBA42"/>
<stop offset="0.526042" stop-color="#FFC800"/>
<stop offset="1" stop-color="#FFCE00"/>
</linearGradient>
<linearGradient id="paint23_linear" x1="116.441" y1="155.396" x2="116.725" y2="163.746" gradientUnits="userSpaceOnUse">
<stop stop-color="#FFBA42"/>
<stop offset="0.526042" stop-color="#FFC800"/>
<stop offset="1" stop-color="#FFCE00"/>
</linearGradient>
<linearGradient id="paint24_linear" x1="128.937" y1="138.697" x2="129.417" y2="152.77" gradientUnits="userSpaceOnUse">
<stop stop-color="#FFBA42"/>
<stop offset="0.526042" stop-color="#FFC800"/>
<stop offset="1" stop-color="#FFCE00"/>
</linearGradient>
<linearGradient id="paint25_linear" x1="132.167" y1="150.791" x2="132.427" y2="158.428" gradientUnits="userSpaceOnUse">
<stop stop-color="#FFBA42"/>
<stop offset="0.526042" stop-color="#FFC800"/>
<stop offset="1" stop-color="#FFCE00"/>
</linearGradient>
<linearGradient id="paint26_linear" x1="141.827" y1="129.834" x2="142.373" y2="145.839" gradientUnits="userSpaceOnUse">
<stop stop-color="#FFBA42"/>
<stop offset="0.526042" stop-color="#FFC800"/>
<stop offset="1" stop-color="#FFCE00"/>
</linearGradient>
<linearGradient id="paint27_linear" x1="146.457" y1="142.456" x2="146.706" y2="149.753" gradientUnits="userSpaceOnUse">
<stop stop-color="#FFBA42"/>
<stop offset="0.526042" stop-color="#FFC800"/>
<stop offset="1" stop-color="#FFCE00"/>
</linearGradient>
<linearGradient id="paint28_linear" x1="153.428" y1="117.971" x2="154.048" y2="136.151" gradientUnits="userSpaceOnUse">
<stop stop-color="#FFBA42"/>
<stop offset="0.526042" stop-color="#FFC800"/>
<stop offset="1" stop-color="#FFCE00"/>
</linearGradient>
<linearGradient id="paint29_linear" x1="159.96" y1="130.167" x2="160.221" y2="137.811" gradientUnits="userSpaceOnUse">
<stop stop-color="#FFBA42"/>
<stop offset="0.526042" stop-color="#FFC800"/>
<stop offset="1" stop-color="#FFCE00"/>
</linearGradient>
<linearGradient id="paint30_linear" x1="162.737" y1="104.111" x2="163.394" y2="123.362" gradientUnits="userSpaceOnUse">
<stop stop-color="#FFBA42"/>
<stop offset="0.526042" stop-color="#FFC800"/>
<stop offset="1" stop-color="#FFCE00"/>
</linearGradient>
<linearGradient id="paint31_linear" x1="170.71" y1="114.392" x2="171.022" y2="123.554" gradientUnits="userSpaceOnUse">
<stop stop-color="#FFBA42"/>
<stop offset="0.526042" stop-color="#FFC800"/>
<stop offset="1" stop-color="#FFCE00"/>
</linearGradient>
<linearGradient id="paint32_linear" x1="169.131" y1="89.5537" x2="169.79" y2="108.87" gradientUnits="userSpaceOnUse">
<stop stop-color="#FFBA42"/>
<stop offset="0.526042" stop-color="#FFC800"/>
<stop offset="1" stop-color="#FFCE00"/>
</linearGradient>
<linearGradient id="paint33_linear" x1="177.95" y1="96.9864" x2="178.345" y2="108.587" gradientUnits="userSpaceOnUse">
<stop stop-color="#FFBA42"/>
<stop offset="0.526042" stop-color="#FFC800"/>
<stop offset="1" stop-color="#FFCE00"/>
</linearGradient>
<linearGradient id="paint34_linear" x1="172.567" y1="75.4008" x2="173.208" y2="94.2189" gradientUnits="userSpaceOnUse">
<stop stop-color="#FFBA42"/>
<stop offset="0.526042" stop-color="#FFC800"/>
<stop offset="1" stop-color="#FFCE00"/>
</linearGradient>
<linearGradient id="paint35_linear" x1="181.796" y1="80.0136" x2="182.269" y2="93.9091" gradientUnits="userSpaceOnUse">
<stop stop-color="#FFBA42"/>
<stop offset="0.526042" stop-color="#FFC800"/>
<stop offset="1" stop-color="#FFCE00"/>
</linearGradient>
<linearGradient id="paint36_linear" x1="172.127" y1="60.6811" x2="172.711" y2="77.8071" gradientUnits="userSpaceOnUse">
<stop stop-color="#FFBA42"/>
<stop offset="0.526042" stop-color="#FFC800"/>
<stop offset="1" stop-color="#FFCE00"/>
</linearGradient>
<linearGradient id="paint37_linear" x1="181.532" y1="60.7279" x2="182.103" y2="77.4871" gradientUnits="userSpaceOnUse">
<stop stop-color="#FFBA42"/>
<stop offset="0.526042" stop-color="#FFC800"/>
<stop offset="1" stop-color="#FFCE00"/>
</linearGradient>
<linearGradient id="paint38_linear" x1="168.352" y1="46.0005" x2="168.847" y2="60.5144" gradientUnits="userSpaceOnUse">
<stop stop-color="#FFBA42"/>
<stop offset="0.526042" stop-color="#FFC800"/>
<stop offset="1" stop-color="#FFCE00"/>
</linearGradient>
<linearGradient id="paint39_linear" x1="177.391" y1="41.6224" x2="178.024" y2="60.2014" gradientUnits="userSpaceOnUse">
<stop stop-color="#FFBA42"/>
<stop offset="0.526042" stop-color="#FFC800"/>
<stop offset="1" stop-color="#FFCE00"/>
</linearGradient>
<linearGradient id="paint40_linear" x1="162.041" y1="34.8455" x2="162.425" y2="46.0975" gradientUnits="userSpaceOnUse">
<stop stop-color="#FFBA42"/>
<stop offset="0.526042" stop-color="#FFC800"/>
<stop offset="1" stop-color="#FFCE00"/>
</linearGradient>
<linearGradient id="paint41_linear" x1="170.243" y1="26.4341" x2="170.903" y2="45.7835" gradientUnits="userSpaceOnUse">
<stop stop-color="#FFBA42"/>
<stop offset="0.526042" stop-color="#FFC800"/>
<stop offset="1" stop-color="#FFCE00"/>
</linearGradient>
<linearGradient id="paint42_linear" x1="153.954" y1="24.42" x2="154.272" y2="33.7473" gradientUnits="userSpaceOnUse">
<stop stop-color="#FFBA42"/>
<stop offset="0.526042" stop-color="#FFC800"/>
<stop offset="1" stop-color="#FFCE00"/>
</linearGradient>
<linearGradient id="paint43_linear" x1="161.331" y1="13.8133" x2="161.989" y2="33.0993" gradientUnits="userSpaceOnUse">
<stop stop-color="#FFBA42"/>
<stop offset="0.526042" stop-color="#FFC800"/>
<stop offset="1" stop-color="#FFCE00"/>
</linearGradient>
<linearGradient id="paint44_linear" x1="92.0209" y1="18.1225" x2="96.8047" y2="158.424" gradientUnits="userSpaceOnUse">
<stop stop-color="#FFBA42"/>
<stop offset="0.526042" stop-color="#FFC800"/>
<stop offset="1" stop-color="#FFCE00"/>
</linearGradient>
<linearGradient id="paint45_linear" x1="42.0302" y1="18.1318" x2="42.292" y2="25.8098" gradientUnits="userSpaceOnUse">
<stop stop-color="#FFBA42"/>
<stop offset="0.526042" stop-color="#FFC800"/>
<stop offset="1" stop-color="#FFCE00"/>
</linearGradient>
<linearGradient id="paint46_linear" x1="35.4348" y1="5.98173" x2="36.0567" y2="24.2222" gradientUnits="userSpaceOnUse">
<stop stop-color="#FFBA42"/>
<stop offset="0.526042" stop-color="#FFC800"/>
<stop offset="1" stop-color="#FFCE00"/>
</linearGradient>
<linearGradient id="paint47_linear" x1="142.248" y1="14.7148" x2="142.51" y2="22.3928" gradientUnits="userSpaceOnUse">
<stop stop-color="#FFBA42"/>
<stop offset="0.526042" stop-color="#FFC800"/>
<stop offset="1" stop-color="#FFCE00"/>
</linearGradient>
<linearGradient id="paint48_linear" x1="148.03" y1="2.14285" x2="148.651" y2="20.3833" gradientUnits="userSpaceOnUse">
<stop stop-color="#FFBA42"/>
<stop offset="0.526042" stop-color="#FFC800"/>
<stop offset="1" stop-color="#FFCE00"/>
</linearGradient>
</defs>
</svg>
