<svg width="189" height="167" viewBox="0 0 189 167" fill="none" xmlns="http://www.w3.org/2000/svg">
<path d="M83.3782 149.288C87.662 152.488 88.9576 158.006 88.9576 158.006C88.9576 158.006 83.3082 158.331 79.0244 155.13C74.7399 151.93 73.4436 146.416 73.4436 146.416C73.4436 146.416 79.0922 146.087 83.3782 149.288Z" fill="url(#paint0_linear)"/>
<path d="M78.6164 158.147C83.5963 156.195 88.9575 158.005 88.9575 158.005C88.9575 158.005 86.2434 162.979 81.2612 164.934C76.2813 166.886 70.9194 165.077 70.9194 165.077C70.9194 165.077 73.6342 160.101 78.6164 158.147Z" fill="url(#paint1_linear)"/>
<path d="M66.936 145.349C70.7402 149.11 71.2651 154.752 71.2651 154.752C71.2651 154.752 65.6247 154.297 61.822 150.536C58.0194 146.776 57.4929 141.132 57.4929 141.132C57.4929 141.132 63.1333 141.587 66.936 145.349Z" fill="url(#paint2_linear)"/>
<path d="M61.0032 153.468C66.2045 152.221 71.2649 154.752 71.2649 154.752C71.2649 154.752 67.8932 159.307 62.6912 160.554C57.49 161.803 52.4304 159.271 52.4304 159.271C52.4304 159.271 55.802 154.716 61.0032 153.468Z" fill="url(#paint3_linear)"/>
<path d="M53.901 139.329C57.0605 143.646 56.6862 149.302 56.6862 149.302C56.6862 149.302 51.1916 147.96 48.0313 143.642C44.8711 139.325 45.243 133.669 45.243 133.669C45.243 133.669 50.7407 135.011 53.901 139.329Z" fill="url(#paint4_linear)"/>
<path d="M46.7596 146.408C52.0918 146.001 56.6872 149.303 56.6872 149.303C56.6872 149.303 52.6385 153.266 47.3056 153.674C41.9734 154.082 37.378 150.78 37.378 150.78C37.378 150.78 41.4274 146.816 46.7596 146.408Z" fill="url(#paint5_linear)"/>
<path d="M41.5954 129.905C43.6134 134.861 41.8815 140.26 41.8815 140.26C41.8815 140.26 36.8761 137.62 34.8581 132.663C32.8385 127.705 34.5697 122.308 34.5697 122.308C34.5697 122.308 39.5758 124.947 41.5954 129.905Z" fill="url(#paint6_linear)"/>
<path d="M32.954 135.036C38.2244 135.937 41.882 140.259 41.882 140.259C41.882 140.259 36.9937 143.121 31.7234 142.221C26.4522 141.32 22.7969 136.998 22.7969 136.998C22.7969 136.998 27.6836 134.136 32.954 135.036Z" fill="url(#paint7_linear)"/>
<path d="M32.1629 118.82C32.9616 124.114 30.0102 128.954 30.0102 128.954C30.0102 128.954 25.7664 125.21 24.9692 119.915C24.1705 114.62 27.1211 109.781 27.1211 109.781C27.1211 109.781 31.3657 113.525 32.1629 118.82Z" fill="url(#paint8_linear)"/>
<path d="M22.5611 121.776C27.4714 123.893 30.0102 128.955 30.0102 128.955C30.0102 128.955 24.5895 130.587 19.6792 128.47C14.7705 126.355 12.2302 121.292 12.2302 121.292C12.2302 121.292 17.6523 119.66 22.5611 121.776Z" fill="url(#paint9_linear)"/>
<path d="M23.9618 104.742C23.6923 110.091 19.8404 114.248 19.8404 114.248C19.8404 114.248 16.4253 109.732 16.6949 104.383C16.9644 99.0334 20.8148 94.8769 20.8148 94.8769C20.8148 94.8769 24.2313 99.3921 23.9618 104.742Z" fill="url(#paint10_linear)"/>
<path d="M13.9667 105.727C18.3581 108.779 19.8402 114.248 19.8402 114.248C19.8402 114.248 14.2049 114.768 9.81347 111.716C5.42357 108.663 3.94074 103.195 3.94074 103.195C3.94074 103.195 9.57683 102.676 13.9667 105.727Z" fill="url(#paint11_linear)"/>
<path d="M19.5213 91.2032C18.4102 96.4432 13.9506 99.9386 13.9506 99.9386C13.9506 99.9386 11.2928 94.937 12.4039 89.6969C13.5166 84.4576 17.9739 80.9623 17.9739 80.9623C17.9739 80.9623 20.6324 85.9632 19.5213 91.2032Z" fill="url(#paint12_linear)"/>
<path d="M9.49825 90.5927C13.3509 94.3029 13.9504 99.9389 13.9504 99.9389C13.9504 99.9389 8.30474 99.5594 4.45212 95.8492C0.600266 92.1389 0 86.5029 0 86.5029C0 86.5029 5.6464 86.8824 9.49825 90.5927Z" fill="url(#paint13_linear)"/>
<path d="M18.5853 75.9794C16.239 80.7939 11.0657 83.1013 11.0657 83.1013C11.0657 83.1013 9.70139 77.6028 12.0469 72.7876C14.3947 67.973 19.5656 65.6648 19.5656 65.6648C19.5656 65.6648 20.9331 71.1648 18.5853 75.9794Z" fill="url(#paint14_linear)"/>
<path d="M9.01481 72.9496C11.8508 77.4862 11.0665 83.1004 11.0665 83.1004C11.0665 83.1004 5.68446 81.3591 2.84693 76.8226C0.00939854 72.2861 0.79366 66.6719 0.79366 66.6719C0.79366 66.6719 6.17728 68.4131 9.01481 72.9496Z" fill="url(#paint15_linear)"/>
<path d="M20.7488 60.5064C17.3384 64.6345 11.7707 65.6616 11.7707 65.6616C11.7707 65.6616 11.7345 59.9938 15.1463 55.8648C18.5567 51.7367 24.1237 50.7105 24.1237 50.7105C24.1237 50.7105 24.1615 56.3782 20.7488 60.5064Z" fill="url(#paint16_linear)"/>
<path d="M12.1577 55.3087C13.8505 60.3872 11.7715 65.6618 11.7715 65.6618C11.7715 65.6618 6.94825 62.7011 5.25618 57.6217C3.56416 52.544 5.64321 47.2702 5.64321 47.2702C5.64321 47.2702 10.4656 50.2302 12.1577 55.3087Z" fill="url(#paint17_linear)"/>
<path d="M25.8054 47.674C21.5448 50.9162 15.8935 50.6444 15.8935 50.6444C15.8935 50.6444 17.147 45.1163 21.4068 41.8741C25.6666 38.6319 31.3187 38.9037 31.3187 38.9037C31.3187 38.9037 30.0644 44.4326 25.8054 47.674Z" fill="url(#paint18_linear)"/>
<path d="M18.6243 40.6517C19.1158 45.9838 15.8926 50.6454 15.8926 50.6454C15.8926 50.6454 11.8707 46.6624 11.3798 41.3295C10.8883 35.9974 14.1122 31.335 14.1122 31.335C14.1122 31.335 18.1326 35.3188 18.6243 40.6517Z" fill="url(#paint19_linear)"/>
<path d="M32.269 36C27.5517 38.5273 22.0143 37.3634 22.0143 37.3634C22.0143 37.3634 24.1262 32.1026 28.8428 29.5761C33.5617 27.0487 39.0975 28.2119 39.0975 28.2119C39.0975 28.2119 36.9864 33.4734 32.269 36Z" fill="url(#paint20_linear)"/>
<path d="M26.2908 27.9257C25.934 33.2695 22.0144 37.3624 22.0144 37.3624C22.0144 37.3624 18.6746 32.7905 19.0314 27.4467C19.389 22.1021 23.3086 18.0092 23.3086 18.0092C23.3086 18.0092 26.6491 22.5811 26.2908 27.9257Z" fill="url(#paint21_linear)"/>
<path d="M112.342 147.58C108.277 151.066 107.347 156.657 107.347 156.657C107.347 156.657 113.006 156.598 117.069 153.114C121.135 149.629 122.064 144.037 122.064 144.037C122.064 144.037 116.406 144.095 112.342 147.58Z" fill="url(#paint22_linear)"/>
<path d="M117.676 156.096C112.578 154.487 107.347 156.657 107.347 156.657C107.347 156.657 110.383 161.437 115.481 163.047C120.579 164.656 125.809 162.486 125.809 162.486C125.809 162.486 122.774 157.705 117.676 156.096Z" fill="url(#paint23_linear)"/>
<path d="M126.448 143.32C122.9 147.332 122.746 152.998 122.746 152.998C122.746 152.998 128.345 152.16 131.891 148.148C135.438 144.137 135.591 138.47 135.591 138.47C135.591 138.47 129.995 139.308 126.448 143.32Z" fill="url(#paint24_linear)"/>
<path d="M132.901 151.017C127.63 150.127 122.747 152.997 122.747 152.997C122.747 152.997 126.412 157.311 131.683 158.202C136.956 159.094 141.838 156.223 141.838 156.223C141.838 156.223 138.174 151.907 132.901 151.017Z" fill="url(#paint25_linear)"/>
<path d="M139.02 135.885C136.152 140.407 136.896 146.026 136.896 146.026C136.896 146.026 142.29 144.31 145.16 139.787C148.029 135.266 147.286 129.648 147.286 129.648C147.286 129.648 141.889 131.362 139.02 135.885Z" fill="url(#paint26_linear)"/>
<path d="M146.611 142.461C141.263 142.418 136.895 146.026 136.895 146.026C136.895 146.026 141.196 149.705 146.544 149.748C151.891 149.792 156.259 146.183 156.259 146.183C156.259 146.183 151.958 142.505 146.611 142.461Z" fill="url(#paint27_linear)"/>
<path d="M150.276 125.914C148.587 130.998 150.671 136.266 150.671 136.266C150.671 136.266 155.491 133.291 157.18 128.208C158.868 123.123 156.784 117.856 156.784 117.856C156.784 117.856 151.964 120.831 150.276 125.914Z" fill="url(#paint28_linear)"/>
<path d="M159.235 130.447C154.036 131.705 150.672 136.266 150.672 136.266C150.672 136.266 155.735 138.789 160.936 137.531C166.135 136.274 169.5 131.713 169.5 131.713C169.5 131.713 164.435 129.19 159.235 130.447Z" fill="url(#paint29_linear)"/>
<path d="M159.428 113.435C158.981 118.773 162.243 123.402 162.243 123.402C162.243 123.402 166.231 119.376 166.68 114.039C167.127 108.701 163.866 104.072 163.866 104.072C163.866 104.072 159.878 108.099 159.428 113.435Z" fill="url(#paint30_linear)"/>
<path d="M169.203 115.731C164.444 118.177 162.243 123.402 162.243 123.402C162.243 123.402 167.76 124.66 172.519 122.214C177.28 119.768 179.479 114.545 179.479 114.545C179.479 114.545 173.962 113.286 169.203 115.731Z" fill="url(#paint31_linear)"/>
<path d="M165.836 99.6389C166.456 104.958 170.573 108.844 170.573 108.844C170.573 108.844 173.683 104.104 173.063 98.7867C172.442 93.4668 168.326 89.5812 168.326 89.5812C168.326 89.5812 165.216 94.3197 165.836 99.6389Z" fill="url(#paint32_linear)"/>
<path d="M175.872 99.9416C171.692 103.286 170.572 108.843 170.572 108.843C170.572 108.843 176.229 108.977 180.41 105.632C184.589 102.289 185.709 96.7313 185.709 96.7313C185.709 96.7313 180.052 96.597 175.872 99.9416Z" fill="url(#paint33_linear)"/>
<path d="M169.375 85.8041C170.828 90.9567 175.507 94.1405 175.507 94.1405C175.507 94.1405 177.831 88.969 176.377 83.8164C174.923 78.6638 170.245 75.48 170.245 75.48C170.245 75.48 167.922 80.6507 169.375 85.8041Z" fill="url(#paint34_linear)"/>
<path d="M179.335 84.5119C175.735 88.4762 175.506 94.1397 175.506 94.1397C175.506 94.1397 181.115 93.3756 184.715 89.4113C188.314 85.447 188.543 79.7836 188.543 79.7836C188.543 79.7836 182.934 80.5476 179.335 84.5119Z" fill="url(#paint35_linear)"/>
<path d="M169.252 71.0595C171.91 75.7033 177.222 77.6533 177.222 77.6533C177.222 77.6533 178.224 72.0741 175.565 67.4295C172.906 62.7849 167.594 60.8357 167.594 60.8357C167.594 60.8357 166.593 66.4156 169.252 71.0595Z" fill="url(#paint36_linear)"/>
<path d="M178.603 67.3857C176.071 72.1053 177.222 77.6535 177.222 77.6535C177.222 77.6535 182.479 75.5496 185.011 70.8299C187.544 66.1103 186.393 60.5621 186.393 60.5621C186.393 60.5621 181.136 62.6661 178.603 67.3857Z" fill="url(#paint37_linear)"/>
<path d="M165.948 55.7641C169.623 59.6507 175.244 60.2962 175.244 60.2962C175.244 60.2962 174.909 54.6379 171.234 50.7513C167.56 46.8648 161.938 46.2192 161.938 46.2192C161.938 46.2192 162.273 51.8776 165.948 55.7641Z" fill="url(#paint38_linear)"/>
<path d="M174.178 49.9926C172.823 55.175 175.244 60.2962 175.244 60.2962C175.244 60.2962 179.862 57.0128 181.216 51.8304C182.569 46.6488 180.149 41.5284 180.149 41.5284C180.149 41.5284 175.532 44.8094 174.178 49.9926Z" fill="url(#paint39_linear)"/>
<path d="M160.223 43.5146C164.686 46.4602 170.307 45.804 170.307 45.804C170.307 45.804 168.694 40.3736 164.23 37.4281C159.767 34.4833 154.146 35.1395 154.146 35.1395C154.146 35.1395 155.759 40.5706 160.223 43.5146Z" fill="url(#paint40_linear)"/>
<path d="M166.925 36.0178C166.785 41.3715 170.307 45.8038 170.307 45.8038C170.307 45.8038 174.058 41.555 174.198 36.2006C174.338 30.8462 170.815 26.4146 170.815 26.4146C170.815 26.4146 167.064 30.6642 166.925 36.0178Z" fill="url(#paint41_linear)"/>
<path d="M152.609 32.4054C157.482 34.6057 162.93 33.0672 162.93 33.0672C162.93 33.0672 160.477 27.962 155.605 25.7617C150.731 23.5622 145.284 25.1006 145.284 25.1006C145.284 25.1006 147.736 30.2058 152.609 32.4054Z" fill="url(#paint42_linear)"/>
<path d="M158.043 23.9429C158.751 29.2504 162.931 33.0672 162.931 33.0672C162.931 33.0672 165.963 28.2779 165.254 22.9705C164.547 17.6622 160.367 13.8462 160.367 13.8462C160.367 13.8462 157.335 18.6347 158.043 23.9429Z" fill="url(#paint43_linear)"/>
<path d="M148.215 16.2065C148.005 16.4427 147.766 16.6784 147.485 16.9124C147.404 16.9803 147.321 17.0271 147.236 17.0865C164.475 31.0388 175.718 51.6986 176.487 75.0452C177.926 118.769 142.087 155.602 96.597 157.153C51.1057 158.704 12.9266 124.395 11.4874 80.6711C10.753 58.3599 19.729 37.8455 34.7371 22.8949C34.2923 22.779 33.843 22.6186 33.3889 22.4081C18.376 37.5644 9.42007 58.2421 10.1598 80.7163C11.6221 125.143 50.4161 160.005 96.639 158.429C142.861 156.853 179.276 119.426 177.814 74.9999C177.035 51.3336 165.661 30.3832 148.215 16.2065Z" fill="url(#paint44_linear)"/>
<path d="M43.0402 25.5048C37.8517 26.8092 32.7639 24.3345 32.7639 24.3345C32.7639 24.3345 36.0857 19.7426 41.2727 18.4374C46.4612 17.1322 51.5491 19.6076 51.5491 19.6076C51.5491 19.6076 48.2272 24.1996 43.0402 25.5048Z" fill="url(#paint45_linear)"/>
<path d="M39.1969 16.2169C37.5561 21.3157 32.764 24.3344 32.764 24.3344C32.764 24.3344 30.6316 19.0865 32.2723 13.9869C33.9138 8.88809 38.7068 5.87016 38.7068 5.87016C38.7068 5.87016 40.8384 11.1173 39.1969 16.2169Z" fill="url(#paint46_linear)"/>
<path d="M141.726 22.14C146.988 23.0881 151.902 20.2724 151.902 20.2724C151.902 20.2724 148.284 15.9171 143.023 14.9682C137.762 14.0192 132.847 16.8357 132.847 16.8357C132.847 16.8357 136.465 21.1911 141.726 22.14Z" fill="url(#paint47_linear)"/>
<path d="M144.949 12.6114C146.923 17.5869 151.902 20.2724 151.902 20.2724C151.902 20.2724 153.683 14.8911 151.712 9.91468C149.738 4.93912 144.757 2.25443 144.757 2.25443C144.757 2.25443 142.975 7.63502 144.949 12.6114Z" fill="url(#paint48_linear)"/>
<path d="M51.7894 54.584L50.0074 55.09V51.922H52.0094V49.524H50.0074V45.388H47.6314V49.524H45.3214V51.922H47.6314V55.728C46.6414 55.97 45.7174 56.212 44.9694 56.366L45.5414 58.874C46.1794 58.698 46.9054 58.5 47.6314 58.28V63.142C47.6314 63.428 47.5214 63.516 47.2574 63.516C46.9934 63.538 46.2234 63.538 45.4534 63.494C45.7394 64.198 46.0254 65.276 46.0914 65.914C47.5434 65.936 48.4674 65.848 49.1494 65.43C49.8094 65.012 50.0074 64.352 50.0074 63.142V57.576C50.7114 57.378 51.4154 57.158 52.1194 56.938L51.7894 54.584ZM55.5514 48.952H52.2954V51.306H55.5514V53.572H52.4934V55.86H55.5294C55.5074 56.564 55.4634 57.268 55.3754 57.95C53.7694 58.456 52.2514 58.918 51.1514 59.204L52.1414 61.47C52.9554 61.162 53.8354 60.832 54.7154 60.458C54.1654 61.866 53.2414 63.12 51.7234 64.176C52.2514 64.572 53.1534 65.386 53.5934 65.914C57.4214 63.164 57.8834 59.05 57.8834 54.628V45.366H55.5514V48.952ZM65.6934 58.28H61.8874V55.86H65.0994V53.572H61.8874V51.306H65.3194V48.952H61.8874V45.366H59.4234V65.892H61.8874V60.634H65.6934V58.28ZM74.3394 62.592V58.434H82.5894V62.592H74.3394ZM81.3134 49.898C80.2354 51.306 78.8274 52.56 77.1994 53.616C76.2314 52.692 74.7134 51.504 73.4374 50.58C73.7234 50.36 73.9874 50.14 74.2734 49.898H81.3134ZM85.2954 56.058H78.1894C81.2254 54.144 83.7334 51.636 85.2514 48.468L83.4474 47.39L83.0074 47.522H76.5834C77.0234 46.972 77.4194 46.422 77.8154 45.872L74.8894 45.256C73.5474 47.324 71.1274 49.524 67.5414 51.086C68.1354 51.548 68.9494 52.538 69.3454 53.176C70.0494 52.846 70.7094 52.45 71.3254 52.054C72.5134 52.978 73.8334 54.1 74.7794 55.024C72.4254 56.19 69.7854 57.07 67.1234 57.598C67.6074 58.192 68.2234 59.314 68.4654 60.018C69.5654 59.754 70.6434 59.468 71.7214 59.094V65.914H74.3394V64.946H82.5894V65.914H85.2954V56.058ZM93.1714 59.424C93.2154 58.918 93.2374 58.456 93.2374 57.994H96.8454V59.424H93.1714ZM96.8454 54.54V56.058H93.2374V54.54H96.8454ZM99.3754 52.494H90.8834V57.532C90.8834 59.688 90.7514 62.46 89.3874 64.44C89.9154 64.704 90.9494 65.496 91.3454 65.914C92.2254 64.66 92.7314 63.01 92.9734 61.338H96.8454V63.296C96.8454 63.56 96.7574 63.648 96.4934 63.648C96.2074 63.67 95.3274 63.67 94.5134 63.626C94.8434 64.22 95.2174 65.188 95.3494 65.848C96.6914 65.848 97.7034 65.804 98.4074 65.43C99.1554 65.056 99.3754 64.44 99.3754 63.318V52.494ZM105.645 62.988C105.645 63.296 105.535 63.384 105.183 63.384C104.809 63.406 103.665 63.406 102.543 63.362C102.939 64.044 103.357 65.122 103.489 65.826C105.073 65.848 106.261 65.782 107.097 65.386C107.977 64.968 108.219 64.33 108.219 63.032V52.098H105.645V62.988ZM103.665 52.714H101.267V61.69H103.665V52.714ZM104.919 48.622C105.469 47.852 106.063 46.994 106.591 46.136L103.753 45.3C103.313 46.312 102.609 47.61 101.949 48.622H95.8334L97.0434 48.204C96.6694 47.368 95.7894 46.18 94.9974 45.344L92.5114 46.202C93.1274 46.928 93.7654 47.874 94.1614 48.622H89.4754V50.976H109.385V48.622H104.919ZM116.513 64.308C119.527 64.308 122.211 62.218 122.211 58.588C122.211 55.046 119.923 53.418 117.195 53.418C116.447 53.418 115.875 53.572 115.237 53.88L115.545 50.426H121.463V47.72H112.751L112.311 55.618L113.785 56.586C114.731 55.97 115.259 55.728 116.227 55.728C117.877 55.728 118.977 56.784 118.977 58.676C118.977 60.59 117.789 61.668 116.095 61.668C114.577 61.668 113.433 60.92 112.509 60.018L111.013 62.086C112.223 63.296 113.939 64.308 116.513 64.308ZM128.06 57.73C130.392 57.73 132.042 55.816 132.042 52.538C132.042 49.282 130.392 47.412 128.06 47.412C125.728 47.412 124.1 49.282 124.1 52.538C124.1 55.816 125.728 57.73 128.06 57.73ZM128.06 55.904C127.114 55.904 126.388 54.936 126.388 52.538C126.388 50.14 127.114 49.238 128.06 49.238C129.006 49.238 129.754 50.14 129.754 52.538C129.754 54.936 129.006 55.904 128.06 55.904ZM128.61 64.308H130.502L139.368 47.412H137.454L128.61 64.308ZM139.896 64.308C142.206 64.308 143.878 62.372 143.878 59.116C143.878 55.838 142.206 53.968 139.896 53.968C137.586 53.968 135.936 55.838 135.936 59.116C135.936 62.372 137.586 64.308 139.896 64.308ZM139.896 62.46C138.95 62.46 138.202 61.514 138.202 59.116C138.202 56.718 138.95 55.794 139.896 55.794C140.842 55.794 141.59 56.718 141.59 59.116C141.59 61.514 140.842 62.46 139.896 62.46Z" fill="#5B5555"/>
<path d="M81.1856 8.78C81.1856 9.28667 81.0856 9.77333 80.8856 10.24C80.6856 10.7067 80.4256 11.16 80.1056 11.6C79.7856 12.0267 79.4256 12.44 79.0256 12.84C78.6256 13.24 78.2323 13.62 77.8456 13.98C77.6456 14.1667 77.4256 14.38 77.1856 14.62C76.959 14.8467 76.739 15.08 76.5256 15.32C76.3123 15.56 76.119 15.7867 75.9456 16C75.7856 16.2 75.6856 16.3667 75.6456 16.5H81.6056V19H72.3656C72.339 18.8533 72.3256 18.6667 72.3256 18.44C72.3256 18.2133 72.3256 18.0533 72.3256 17.96C72.3256 17.32 72.4256 16.7333 72.6256 16.2C72.839 15.6667 73.1123 15.1733 73.4456 14.72C73.779 14.2533 74.1523 13.82 74.5656 13.42C74.9923 13.02 75.4123 12.62 75.8256 12.22C76.1456 11.9133 76.4456 11.6267 76.7256 11.36C77.0056 11.08 77.2523 10.8133 77.4656 10.56C77.679 10.2933 77.8456 10.0333 77.9656 9.78C78.0856 9.51333 78.1456 9.24667 78.1456 8.98C78.1456 8.39333 77.979 7.98 77.6456 7.74C77.3123 7.5 76.899 7.38 76.4056 7.38C76.0456 7.38 75.7056 7.44 75.3856 7.56C75.079 7.66667 74.7923 7.8 74.5256 7.96C74.2723 8.10667 74.0523 8.26 73.8656 8.42C73.679 8.56667 73.539 8.68667 73.4456 8.78L71.9656 6.7C72.5523 6.15333 73.2323 5.70667 74.0056 5.36C74.7923 5 75.6323 4.82 76.5256 4.82C77.339 4.82 78.039 4.91333 78.6256 5.1C79.2123 5.28667 79.6923 5.55333 80.0656 5.9C80.4523 6.23333 80.7323 6.64667 80.9056 7.14C81.0923 7.62 81.1856 8.16667 81.1856 8.78ZM93.3128 12.04C93.3128 14.3733 92.8661 16.1667 91.9728 17.42C91.0928 18.66 89.8728 19.28 88.3128 19.28C86.7528 19.28 85.5261 18.66 84.6328 17.42C83.7528 16.1667 83.3128 14.3733 83.3128 12.04C83.3128 10.88 83.4261 9.85333 83.6528 8.96C83.8928 8.06667 84.2328 7.31333 84.6728 6.7C85.1128 6.08667 85.6395 5.62 86.2528 5.3C86.8661 4.98 87.5528 4.82 88.3128 4.82C89.8728 4.82 91.0928 5.44667 91.9728 6.7C92.8661 7.94 93.3128 9.72 93.3128 12.04ZM90.2728 12.04C90.2728 11.3467 90.2395 10.72 90.1728 10.16C90.1061 9.58667 89.9995 9.09333 89.8528 8.68C89.7061 8.26667 89.5061 7.94667 89.2528 7.72C88.9995 7.49333 88.6861 7.38 88.3128 7.38C87.9395 7.38 87.6261 7.49333 87.3728 7.72C87.1328 7.94667 86.9328 8.26667 86.7728 8.68C86.6261 9.09333 86.5195 9.58667 86.4528 10.16C86.3861 10.72 86.3528 11.3467 86.3528 12.04C86.3528 12.7333 86.3861 13.3667 86.4528 13.94C86.5195 14.5133 86.6261 15.0067 86.7728 15.42C86.9328 15.8333 87.1328 16.1533 87.3728 16.38C87.6261 16.6067 87.9395 16.72 88.3128 16.72C88.6861 16.72 88.9995 16.6067 89.2528 16.38C89.5061 16.1533 89.7061 15.8333 89.8528 15.42C89.9995 15.0067 90.1061 14.5133 90.1728 13.94C90.2395 13.3667 90.2728 12.7333 90.2728 12.04ZM95.4 8.02C95.7867 7.86 96.1867 7.68 96.6 7.48C97.0267 7.26667 97.44 7.04 97.84 6.8C98.24 6.54667 98.62 6.28667 98.98 6.02C99.3533 5.74 99.6867 5.44667 99.98 5.14H102.06V19H99.08V9.02C98.68 9.28667 98.2333 9.53333 97.74 9.76C97.2467 9.97333 96.7667 10.16 96.3 10.32L95.4 8.02ZM111.147 11.56C111.454 11.56 111.774 11.5333 112.107 11.48C112.441 11.4133 112.687 11.3267 112.847 11.22V11.04C112.847 10.9867 112.847 10.9333 112.847 10.88C112.861 10.8267 112.867 10.78 112.867 10.74C112.854 10.26 112.814 9.81333 112.747 9.4C112.681 8.97333 112.567 8.60667 112.407 8.3C112.247 7.98 112.027 7.73333 111.747 7.56C111.481 7.37333 111.147 7.28 110.747 7.28C110.427 7.28 110.147 7.34667 109.907 7.48C109.667 7.61333 109.474 7.78667 109.327 8C109.181 8.21333 109.067 8.44667 108.987 8.7C108.921 8.95333 108.887 9.2 108.887 9.44C108.887 10.16 109.061 10.6933 109.407 11.04C109.767 11.3867 110.347 11.56 111.147 11.56ZM112.607 13.5C112.327 13.6333 112.014 13.7333 111.667 13.8C111.334 13.8533 111.047 13.88 110.807 13.88C109.941 13.88 109.201 13.78 108.587 13.58C107.974 13.3667 107.467 13.0733 107.067 12.7C106.681 12.3133 106.394 11.8533 106.207 11.32C106.021 10.7867 105.927 10.2 105.927 9.56C105.927 9.02667 106.014 8.48 106.187 7.92C106.374 7.36 106.661 6.85333 107.047 6.4C107.434 5.93333 107.921 5.55333 108.507 5.26C109.107 4.95333 109.827 4.8 110.667 4.8C112.387 4.8 113.681 5.33333 114.547 6.4C115.427 7.45333 115.867 8.97333 115.867 10.96C115.867 12.2667 115.694 13.42 115.347 14.42C115.014 15.42 114.487 16.26 113.767 16.94C113.061 17.62 112.154 18.14 111.047 18.5C109.941 18.8467 108.627 19.0267 107.107 19.04C107.094 18.6133 107.074 18.2 107.047 17.8C107.021 17.4 106.994 16.9867 106.967 16.56C107.727 16.5467 108.414 16.4933 109.027 16.4C109.641 16.2933 110.181 16.1267 110.647 15.9C111.114 15.66 111.507 15.3467 111.827 14.96C112.161 14.5733 112.421 14.0867 112.607 13.5Z" fill="#5B5555"/>
<path d="M74.544 78.816L73.952 79.312C74.48 79.808 75.168 80.496 75.488 80.928L76.448 80.08C76.16 79.744 75.664 79.216 75.168 78.816H77.856V77.648H74.032C74.176 77.376 74.304 77.104 74.4 76.832L73.072 76.448C72.576 77.744 71.68 79.04 70.736 79.888C71.024 80.112 71.536 80.624 71.744 80.864C72.304 80.32 72.88 79.616 73.376 78.816H74.544ZM77.136 84.736V85.984H73.792C73.856 85.584 73.92 85.168 73.968 84.736H77.136ZM78.608 82.256H82.368V83.504H78.608V82.256ZM78.608 85.984V84.736H83.824V81.024H72.144V82.256H77.136V83.504H72.704C72.576 84.72 72.352 86.24 72.128 87.248H75.984C74.704 88.448 72.832 89.52 71.056 90.064C71.392 90.336 71.792 90.896 72.016 91.232C73.824 90.544 75.76 89.312 77.136 87.856V91.248H78.608V87.248H82.864C82.72 88.432 82.576 88.96 82.384 89.168C82.256 89.28 82.096 89.296 81.824 89.296C81.552 89.312 80.816 89.296 80.096 89.216C80.32 89.6 80.496 90.16 80.512 90.576C81.328 90.624 82.112 90.608 82.512 90.576C82.992 90.544 83.312 90.432 83.616 90.112C84.032 89.696 84.224 88.72 84.416 86.56C84.448 86.352 84.464 85.984 84.464 85.984H78.608ZM80.624 77.648C80.752 77.36 80.864 77.088 80.976 76.784L79.616 76.464C79.216 77.6 78.48 78.704 77.616 79.424C77.952 79.632 78.496 80.064 78.736 80.304C79.152 79.904 79.584 79.392 79.952 78.816H81.552L80.848 79.376C81.44 79.84 82.144 80.496 82.48 80.912L83.488 80.048C83.184 79.696 82.608 79.2 82.096 78.816H85.248V77.648H80.624ZM96.8 84.144C96.704 85.552 96.544 87.376 96.352 88.976H92.4C92.672 87.6 92.976 85.904 93.264 84.144H96.8ZM97.92 88.976C98.16 86.912 98.368 84.512 98.48 82.72L97.328 82.624L97.04 82.688H93.52C93.68 81.616 93.84 80.56 93.984 79.552H100V78.096H87.936V79.552H92.352C92.208 80.56 92.064 81.616 91.904 82.688H88.816V84.144H91.664C91.36 85.888 91.056 87.584 90.768 88.976H86.96V90.448H101.088V88.976H97.92ZM114.688 78.704V80.352H105.744V78.704H114.688ZM116.176 81.712V77.344H104.256V82.016C104.256 84.528 104.112 88.048 102.528 90.512C102.912 90.656 103.568 91.04 103.856 91.28C105.504 88.704 105.744 84.704 105.744 82.016V81.712H116.176ZM108.512 87.008V88.224H114.464V87.008H112.192V84.992H114.144V83.776H112.192V82.096H110.832V83.776H108.928V84.992H110.832V87.008H108.512ZM115.04 83.072V89.312H107.936V83.088H106.496V90.624H115.04V91.248H116.464V83.072H115.04ZM50.944 98.008C49.968 100.36 48.304 102.696 46.56 104.136C46.944 104.44 47.616 105.064 47.872 105.368C49.632 103.752 51.44 101.128 52.576 98.52L50.944 98.008ZM55.632 106.632C56.192 107.432 56.816 108.36 57.408 109.288L50.704 109.688C52.304 107.848 53.904 105.528 55.216 103.192L53.488 102.488C52.208 105.16 50.176 107.944 49.52 108.648C48.896 109.384 48.464 109.864 47.984 109.992C48.208 110.424 48.512 111.256 48.576 111.592C49.28 111.32 50.24 111.256 58.256 110.664C58.608 111.24 58.88 111.752 59.104 112.216L60.608 111.4C59.856 109.96 58.352 107.72 57.072 105.992L55.632 106.632ZM53.456 97.976V99.496H56.24C57.12 101.768 58.592 104.008 60.4 105.368C60.672 104.904 61.2 104.232 61.552 103.896C59.648 102.712 58.112 100.376 57.376 97.976H53.456ZM70.56 105.512V108.12H65.92V105.512H70.56ZM72.016 109.416V104.232H64.48V110.584H65.92V109.416H72.016ZM73.008 101.432H63.552V102.744H73.008V101.432ZM76.256 98.568H63.424V99.992H74.736V110.2C74.736 110.504 74.64 110.584 74.336 110.6C74.032 110.616 72.96 110.616 71.936 110.568C72.144 111 72.384 111.752 72.448 112.184C73.872 112.2 74.864 112.168 75.472 111.896C76.064 111.656 76.256 111.16 76.256 110.216V98.568ZM83.504 99.4C82.8 98.936 81.456 98.216 80.48 97.768L79.648 98.856C80.64 99.352 81.968 100.12 82.64 100.632L83.504 99.4ZM82.464 103.704C81.792 103.224 80.432 102.536 79.504 102.104L78.704 103.208C79.664 103.704 81.008 104.456 81.648 104.92L82.464 103.704ZM80.336 112.056C81.264 110.568 82.336 108.648 83.168 106.984L82.064 106.008C81.152 107.816 79.92 109.848 79.056 111.064L80.336 112.056ZM93.168 104.12C92.544 102.84 91.184 100.952 89.92 99.544L88.656 100.184C89.264 100.888 89.92 101.752 90.48 102.584L85.2 102.904C86.272 101.496 87.312 99.768 88.192 98.008L86.656 97.56C85.792 99.592 84.448 101.672 84.016 102.232C83.584 102.792 83.264 103.144 82.912 103.224C83.088 103.64 83.328 104.344 83.408 104.632C83.952 104.424 84.768 104.36 91.312 103.896C91.52 104.264 91.68 104.584 91.808 104.872L93.168 104.12ZM90.528 107.16V110.216H85.36V107.16H90.528ZM83.92 112.264H85.36V111.592H90.528V112.216H92.032V105.784H83.92V112.264ZM99.712 107.592C99.168 107.784 98.592 107.96 98.048 108.136V104.52H99.568V103.144H98.048V99.96H99.824V98.584H94.736V99.96H96.624V103.144H94.896V104.52H96.624V108.584C95.856 108.824 95.152 109.016 94.576 109.176L94.928 110.696C96.368 110.232 98.224 109.608 99.968 109L99.712 107.592ZM101.872 102.472H103.968V104.232H101.872V102.472ZM101.872 99.56H103.968V101.288H101.872V99.56ZM107.28 101.288H105.232V99.56H107.28V101.288ZM107.28 104.232H105.232V102.472H107.28V104.232ZM105.36 110.392V108.488H108.912V107.144H105.36V105.496H108.704V98.296H100.512V105.496H103.84V107.144H100.368V108.488H103.84V110.392H99.2V111.752H109.424V110.392H105.36ZM116.576 100.248H113.52L114.592 99.592C114.368 99.016 113.888 98.168 113.488 97.496L112.416 98.088C112.816 98.744 113.264 99.656 113.488 100.248H110.784V101.432H116.576V100.248ZM115.936 103.544V102.376H111.408V103.544H115.936ZM114.752 107.848V110.136H112.608V107.848H114.752ZM115.952 106.648H111.424V112.056H112.608V111.336H115.952V106.648ZM111.408 105.64H115.952V104.488H111.408V105.64ZM125.36 105.272H121.728V99.8H125.056V98.424H117.152V99.8H120.272V105.272H116.576V106.68H120.272V112.264H121.728V106.68H125.36V105.272ZM117.424 100.872C117.776 102.088 118.096 103.672 118.16 104.712L119.424 104.408C119.328 103.368 119.008 101.816 118.608 100.584L117.424 100.872ZM123.632 104.696C124.016 103.704 124.48 102.104 124.864 100.776L123.456 100.456C123.248 101.64 122.848 103.336 122.48 104.376L123.632 104.696ZM136 102.28H133.776V101.16H136V102.28ZM134.8 104.312H133.776V103.24H134.8V104.312ZM134.8 99.144V100.2H133.776V99.144H134.8ZM134.208 107.656H135.312V110.296H134.208V107.656ZM137.376 107.656V110.296H136.272V107.656H137.376ZM139.44 107.656V110.296H138.336V107.656H139.44ZM141.36 99.864H139.136C139.28 99.224 139.408 98.552 139.52 97.896L138.224 97.64C138.016 99.288 137.6 100.968 136.992 102.136V100.2H135.84V99.144H137.104V98.024H132.672V100.296C132.096 99.816 131.264 99.16 130.464 98.584C130.592 98.376 130.704 98.136 130.8 97.912L129.68 97.496C128.976 98.984 127.728 100.408 126.544 101.336C126.72 101.704 126.976 102.488 127.008 102.808C127.2 102.648 127.392 102.472 127.6 102.28V102.776H129.056V104.2H126.912V105.464H129.056V110.088C128.176 110.248 127.36 110.408 126.704 110.52L127.04 111.848C128.464 111.56 130.304 111.192 132.08 110.808V111.56H141.328V110.296H140.688V106.456H133.024V110.296H132.432L132.352 109.48L130.304 109.864V105.464H132.128V104.2H130.304V102.776H131.84V101.544H128.336C128.848 100.984 129.344 100.36 129.776 99.704C130.576 100.344 131.488 101.096 132.032 101.592L132.672 100.68V105.432H137.28V104.312H135.84V103.24H136.992V102.376C137.328 102.536 137.792 102.808 138.016 103C138.288 102.488 138.56 101.848 138.784 101.144H141.36V99.864ZM137.664 104.936H141.184V103.688H137.664V104.936ZM131.536 109.096C131.76 108.392 132.016 107.304 132.272 106.36L131.2 106.104C131.088 106.888 130.832 108.104 130.608 108.84L131.536 109.096ZM127.104 106.472C127.312 107.4 127.52 108.6 127.6 109.384L128.608 109.144C128.528 108.36 128.288 107.16 128.064 106.248L127.104 106.472Z" fill="#5B5555"/>
<defs>
<linearGradient id="paint0_linear" x1="81.0014" y1="146.157" x2="81.4141" y2="158.263" gradientUnits="userSpaceOnUse">
<stop stop-color="#FFBA42"/>
<stop offset="0.526042" stop-color="#FFC800"/>
<stop offset="1" stop-color="#FFCE00"/>
</linearGradient>
<linearGradient id="paint1_linear" x1="79.801" y1="157.366" x2="80.0857" y2="165.715" gradientUnits="userSpaceOnUse">
<stop stop-color="#FFBA42"/>
<stop offset="0.526042" stop-color="#FFC800"/>
<stop offset="1" stop-color="#FFCE00"/>
</linearGradient>
<linearGradient id="paint2_linear" x1="64.1474" y1="140.905" x2="64.6272" y2="154.979" gradientUnits="userSpaceOnUse">
<stop stop-color="#FFBA42"/>
<stop offset="0.526042" stop-color="#FFC800"/>
<stop offset="1" stop-color="#FFCE00"/>
</linearGradient>
<linearGradient id="paint3_linear" x1="61.7219" y1="153.193" x2="61.9823" y2="160.83" gradientUnits="userSpaceOnUse">
<stop stop-color="#FFBA42"/>
<stop offset="0.526042" stop-color="#FFC800"/>
<stop offset="1" stop-color="#FFCE00"/>
</linearGradient>
<linearGradient id="paint4_linear" x1="50.7014" y1="133.482" x2="51.2472" y2="149.488" gradientUnits="userSpaceOnUse">
<stop stop-color="#FFBA42"/>
<stop offset="0.526042" stop-color="#FFC800"/>
<stop offset="1" stop-color="#FFCE00"/>
</linearGradient>
<linearGradient id="paint5_linear" x1="46.9125" y1="146.393" x2="47.1613" y2="153.69" gradientUnits="userSpaceOnUse">
<stop stop-color="#FFBA42"/>
<stop offset="0.526042" stop-color="#FFC800"/>
<stop offset="1" stop-color="#FFCE00"/>
</linearGradient>
<linearGradient id="paint6_linear" x1="37.9269" y1="122.194" x2="38.5468" y2="140.374" gradientUnits="userSpaceOnUse">
<stop stop-color="#FFBA42"/>
<stop offset="0.526042" stop-color="#FFC800"/>
<stop offset="1" stop-color="#FFCE00"/>
</linearGradient>
<linearGradient id="paint7_linear" x1="32.2136" y1="134.806" x2="32.4743" y2="142.451" gradientUnits="userSpaceOnUse">
<stop stop-color="#FFBA42"/>
<stop offset="0.526042" stop-color="#FFC800"/>
<stop offset="1" stop-color="#FFCE00"/>
</linearGradient>
<linearGradient id="paint8_linear" x1="28.2492" y1="109.742" x2="28.9056" y2="128.992" gradientUnits="userSpaceOnUse">
<stop stop-color="#FFBA42"/>
<stop offset="0.526042" stop-color="#FFC800"/>
<stop offset="1" stop-color="#FFCE00"/>
</linearGradient>
<linearGradient id="paint9_linear" x1="20.9694" y1="120.542" x2="21.2818" y2="129.705" gradientUnits="userSpaceOnUse">
<stop stop-color="#FFBA42"/>
<stop offset="0.526042" stop-color="#FFC800"/>
<stop offset="1" stop-color="#FFCE00"/>
</linearGradient>
<linearGradient id="paint10_linear" x1="20.0104" y1="94.9043" x2="20.669" y2="114.22" gradientUnits="userSpaceOnUse">
<stop stop-color="#FFBA42"/>
<stop offset="0.526042" stop-color="#FFC800"/>
<stop offset="1" stop-color="#FFCE00"/>
</linearGradient>
<linearGradient id="paint11_linear" x1="11.6996" y1="102.921" x2="12.0951" y2="114.521" gradientUnits="userSpaceOnUse">
<stop stop-color="#FFBA42"/>
<stop offset="0.526042" stop-color="#FFC800"/>
<stop offset="1" stop-color="#FFCE00"/>
</linearGradient>
<linearGradient id="paint12_linear" x1="15.6529" y1="81.0414" x2="16.2945" y2="99.8587" gradientUnits="userSpaceOnUse">
<stop stop-color="#FFBA42"/>
<stop offset="0.526042" stop-color="#FFC800"/>
<stop offset="1" stop-color="#FFCE00"/>
</linearGradient>
<linearGradient id="paint13_linear" x1="6.74649" y1="86.2729" x2="7.22028" y2="100.168" gradientUnits="userSpaceOnUse">
<stop stop-color="#FFBA42"/>
<stop offset="0.526042" stop-color="#FFC800"/>
<stop offset="1" stop-color="#FFCE00"/>
</linearGradient>
<linearGradient id="paint14_linear" x1="15.0344" y1="65.8193" x2="15.6184" y2="82.9461" gradientUnits="userSpaceOnUse">
<stop stop-color="#FFBA42"/>
<stop offset="0.526042" stop-color="#FFC800"/>
<stop offset="1" stop-color="#FFCE00"/>
</linearGradient>
<linearGradient id="paint15_linear" x1="5.65433" y1="66.5062" x2="6.22576" y2="83.2654" gradientUnits="userSpaceOnUse">
<stop stop-color="#FFBA42"/>
<stop offset="0.526042" stop-color="#FFC800"/>
<stop offset="1" stop-color="#FFCE00"/>
</linearGradient>
<linearGradient id="paint16_linear" x1="17.7083" y1="50.9292" x2="18.2032" y2="65.4422" gradientUnits="userSpaceOnUse">
<stop stop-color="#FFBA42"/>
<stop offset="0.526042" stop-color="#FFC800"/>
<stop offset="1" stop-color="#FFCE00"/>
</linearGradient>
<linearGradient id="paint17_linear" x1="8.4014" y1="47.1761" x2="9.03488" y2="65.7551" gradientUnits="userSpaceOnUse">
<stop stop-color="#FFBA42"/>
<stop offset="0.526042" stop-color="#FFC800"/>
<stop offset="1" stop-color="#FFCE00"/>
</linearGradient>
<linearGradient id="paint18_linear" x1="23.4209" y1="39.1482" x2="23.8045" y2="50.3994" gradientUnits="userSpaceOnUse">
<stop stop-color="#FFBA42"/>
<stop offset="0.526042" stop-color="#FFC800"/>
<stop offset="1" stop-color="#FFCE00"/>
</linearGradient>
<linearGradient id="paint19_linear" x1="14.6836" y1="31.3155" x2="15.3433" y2="50.6641" gradientUnits="userSpaceOnUse">
<stop stop-color="#FFBA42"/>
<stop offset="0.526042" stop-color="#FFC800"/>
<stop offset="1" stop-color="#FFCE00"/>
</linearGradient>
<linearGradient id="paint20_linear" x1="30.4024" y1="28.1239" x2="30.7204" y2="37.4514" gradientUnits="userSpaceOnUse">
<stop stop-color="#FFBA42"/>
<stop offset="0.526042" stop-color="#FFC800"/>
<stop offset="1" stop-color="#FFCE00"/>
</linearGradient>
<linearGradient id="paint21_linear" x1="22.3439" y1="18.0421" x2="23.0015" y2="37.3288" gradientUnits="userSpaceOnUse">
<stop stop-color="#FFBA42"/>
<stop offset="0.526042" stop-color="#FFC800"/>
<stop offset="1" stop-color="#FFCE00"/>
</linearGradient>
<linearGradient id="paint22_linear" x1="114.507" y1="144.294" x2="114.92" y2="156.4" gradientUnits="userSpaceOnUse">
<stop stop-color="#FFBA42"/>
<stop offset="0.526042" stop-color="#FFC800"/>
<stop offset="1" stop-color="#FFCE00"/>
</linearGradient>
<linearGradient id="paint23_linear" x1="116.441" y1="155.396" x2="116.725" y2="163.746" gradientUnits="userSpaceOnUse">
<stop stop-color="#FFBA42"/>
<stop offset="0.526042" stop-color="#FFC800"/>
<stop offset="1" stop-color="#FFCE00"/>
</linearGradient>
<linearGradient id="paint24_linear" x1="128.937" y1="138.697" x2="129.417" y2="152.77" gradientUnits="userSpaceOnUse">
<stop stop-color="#FFBA42"/>
<stop offset="0.526042" stop-color="#FFC800"/>
<stop offset="1" stop-color="#FFCE00"/>
</linearGradient>
<linearGradient id="paint25_linear" x1="132.167" y1="150.791" x2="132.427" y2="158.428" gradientUnits="userSpaceOnUse">
<stop stop-color="#FFBA42"/>
<stop offset="0.526042" stop-color="#FFC800"/>
<stop offset="1" stop-color="#FFCE00"/>
</linearGradient>
<linearGradient id="paint26_linear" x1="141.827" y1="129.834" x2="142.373" y2="145.839" gradientUnits="userSpaceOnUse">
<stop stop-color="#FFBA42"/>
<stop offset="0.526042" stop-color="#FFC800"/>
<stop offset="1" stop-color="#FFCE00"/>
</linearGradient>
<linearGradient id="paint27_linear" x1="146.457" y1="142.456" x2="146.706" y2="149.753" gradientUnits="userSpaceOnUse">
<stop stop-color="#FFBA42"/>
<stop offset="0.526042" stop-color="#FFC800"/>
<stop offset="1" stop-color="#FFCE00"/>
</linearGradient>
<linearGradient id="paint28_linear" x1="153.428" y1="117.971" x2="154.048" y2="136.151" gradientUnits="userSpaceOnUse">
<stop stop-color="#FFBA42"/>
<stop offset="0.526042" stop-color="#FFC800"/>
<stop offset="1" stop-color="#FFCE00"/>
</linearGradient>
<linearGradient id="paint29_linear" x1="159.96" y1="130.167" x2="160.221" y2="137.811" gradientUnits="userSpaceOnUse">
<stop stop-color="#FFBA42"/>
<stop offset="0.526042" stop-color="#FFC800"/>
<stop offset="1" stop-color="#FFCE00"/>
</linearGradient>
<linearGradient id="paint30_linear" x1="162.737" y1="104.111" x2="163.394" y2="123.362" gradientUnits="userSpaceOnUse">
<stop stop-color="#FFBA42"/>
<stop offset="0.526042" stop-color="#FFC800"/>
<stop offset="1" stop-color="#FFCE00"/>
</linearGradient>
<linearGradient id="paint31_linear" x1="170.71" y1="114.392" x2="171.022" y2="123.554" gradientUnits="userSpaceOnUse">
<stop stop-color="#FFBA42"/>
<stop offset="0.526042" stop-color="#FFC800"/>
<stop offset="1" stop-color="#FFCE00"/>
</linearGradient>
<linearGradient id="paint32_linear" x1="169.131" y1="89.5537" x2="169.79" y2="108.87" gradientUnits="userSpaceOnUse">
<stop stop-color="#FFBA42"/>
<stop offset="0.526042" stop-color="#FFC800"/>
<stop offset="1" stop-color="#FFCE00"/>
</linearGradient>
<linearGradient id="paint33_linear" x1="177.95" y1="96.9864" x2="178.345" y2="108.587" gradientUnits="userSpaceOnUse">
<stop stop-color="#FFBA42"/>
<stop offset="0.526042" stop-color="#FFC800"/>
<stop offset="1" stop-color="#FFCE00"/>
</linearGradient>
<linearGradient id="paint34_linear" x1="172.566" y1="75.4008" x2="173.208" y2="94.2189" gradientUnits="userSpaceOnUse">
<stop stop-color="#FFBA42"/>
<stop offset="0.526042" stop-color="#FFC800"/>
<stop offset="1" stop-color="#FFCE00"/>
</linearGradient>
<linearGradient id="paint35_linear" x1="181.796" y1="80.0136" x2="182.269" y2="93.9091" gradientUnits="userSpaceOnUse">
<stop stop-color="#FFBA42"/>
<stop offset="0.526042" stop-color="#FFC800"/>
<stop offset="1" stop-color="#FFCE00"/>
</linearGradient>
<linearGradient id="paint36_linear" x1="172.127" y1="60.6811" x2="172.711" y2="77.8071" gradientUnits="userSpaceOnUse">
<stop stop-color="#FFBA42"/>
<stop offset="0.526042" stop-color="#FFC800"/>
<stop offset="1" stop-color="#FFCE00"/>
</linearGradient>
<linearGradient id="paint37_linear" x1="181.532" y1="60.7279" x2="182.103" y2="77.4871" gradientUnits="userSpaceOnUse">
<stop stop-color="#FFBA42"/>
<stop offset="0.526042" stop-color="#FFC800"/>
<stop offset="1" stop-color="#FFCE00"/>
</linearGradient>
<linearGradient id="paint38_linear" x1="168.352" y1="46.0005" x2="168.847" y2="60.5144" gradientUnits="userSpaceOnUse">
<stop stop-color="#FFBA42"/>
<stop offset="0.526042" stop-color="#FFC800"/>
<stop offset="1" stop-color="#FFCE00"/>
</linearGradient>
<linearGradient id="paint39_linear" x1="177.391" y1="41.6224" x2="178.024" y2="60.2014" gradientUnits="userSpaceOnUse">
<stop stop-color="#FFBA42"/>
<stop offset="0.526042" stop-color="#FFC800"/>
<stop offset="1" stop-color="#FFCE00"/>
</linearGradient>
<linearGradient id="paint40_linear" x1="162.041" y1="34.8455" x2="162.425" y2="46.0975" gradientUnits="userSpaceOnUse">
<stop stop-color="#FFBA42"/>
<stop offset="0.526042" stop-color="#FFC800"/>
<stop offset="1" stop-color="#FFCE00"/>
</linearGradient>
<linearGradient id="paint41_linear" x1="170.243" y1="26.4341" x2="170.903" y2="45.7835" gradientUnits="userSpaceOnUse">
<stop stop-color="#FFBA42"/>
<stop offset="0.526042" stop-color="#FFC800"/>
<stop offset="1" stop-color="#FFCE00"/>
</linearGradient>
<linearGradient id="paint42_linear" x1="153.954" y1="24.42" x2="154.272" y2="33.7473" gradientUnits="userSpaceOnUse">
<stop stop-color="#FFBA42"/>
<stop offset="0.526042" stop-color="#FFC800"/>
<stop offset="1" stop-color="#FFCE00"/>
</linearGradient>
<linearGradient id="paint43_linear" x1="161.331" y1="13.8133" x2="161.989" y2="33.0993" gradientUnits="userSpaceOnUse">
<stop stop-color="#FFBA42"/>
<stop offset="0.526042" stop-color="#FFC800"/>
<stop offset="1" stop-color="#FFCE00"/>
</linearGradient>
<linearGradient id="paint44_linear" x1="92.0208" y1="18.1225" x2="96.8045" y2="158.424" gradientUnits="userSpaceOnUse">
<stop stop-color="#FFBA42"/>
<stop offset="0.526042" stop-color="#FFC800"/>
<stop offset="1" stop-color="#FFCE00"/>
</linearGradient>
<linearGradient id="paint45_linear" x1="42.0301" y1="18.1318" x2="42.2919" y2="25.8098" gradientUnits="userSpaceOnUse">
<stop stop-color="#FFBA42"/>
<stop offset="0.526042" stop-color="#FFC800"/>
<stop offset="1" stop-color="#FFCE00"/>
</linearGradient>
<linearGradient id="paint46_linear" x1="35.4348" y1="5.98173" x2="36.0567" y2="24.2222" gradientUnits="userSpaceOnUse">
<stop stop-color="#FFBA42"/>
<stop offset="0.526042" stop-color="#FFC800"/>
<stop offset="1" stop-color="#FFCE00"/>
</linearGradient>
<linearGradient id="paint47_linear" x1="142.248" y1="14.7148" x2="142.51" y2="22.3928" gradientUnits="userSpaceOnUse">
<stop stop-color="#FFBA42"/>
<stop offset="0.526042" stop-color="#FFC800"/>
<stop offset="1" stop-color="#FFCE00"/>
</linearGradient>
<linearGradient id="paint48_linear" x1="148.03" y1="2.14285" x2="148.652" y2="20.3833" gradientUnits="userSpaceOnUse">
<stop stop-color="#FFBA42"/>
<stop offset="0.526042" stop-color="#FFC800"/>
<stop offset="1" stop-color="#FFCE00"/>
</linearGradient>
</defs>
</svg>
