<svg width="189" height="167" viewBox="0 0 189 167" fill="none" xmlns="http://www.w3.org/2000/svg">
<path d="M83.3784 149.288C87.6621 152.488 88.9577 158.006 88.9577 158.006C88.9577 158.006 83.3083 158.331 79.0245 155.13C74.74 151.93 73.4438 146.416 73.4438 146.416C73.4438 146.416 79.0923 146.087 83.3784 149.288Z" fill="url(#paint0_linear)"/>
<path d="M78.6165 158.147C83.5964 156.195 88.9576 158.005 88.9576 158.005C88.9576 158.005 86.2435 162.979 81.2613 164.934C76.2814 166.886 70.9195 165.077 70.9195 165.077C70.9195 165.077 73.6343 160.101 78.6165 158.147Z" fill="url(#paint1_linear)"/>
<path d="M66.936 145.349C70.7402 149.11 71.2651 154.752 71.2651 154.752C71.2651 154.752 65.6247 154.297 61.822 150.536C58.0194 146.776 57.4929 141.132 57.4929 141.132C57.4929 141.132 63.1333 141.587 66.936 145.349Z" fill="url(#paint2_linear)"/>
<path d="M61.0032 153.468C66.2045 152.221 71.2649 154.752 71.2649 154.752C71.2649 154.752 67.8932 159.307 62.6912 160.554C57.49 161.803 52.4304 159.271 52.4304 159.271C52.4304 159.271 55.802 154.716 61.0032 153.468Z" fill="url(#paint3_linear)"/>
<path d="M53.901 139.329C57.0605 143.646 56.6862 149.302 56.6862 149.302C56.6862 149.302 51.1916 147.96 48.0313 143.642C44.8711 139.325 45.243 133.669 45.243 133.669C45.243 133.669 50.7407 135.011 53.901 139.329Z" fill="url(#paint4_linear)"/>
<path d="M46.7595 146.408C52.0916 146.001 56.6871 149.303 56.6871 149.303C56.6871 149.303 52.6384 153.266 47.3055 153.674C41.9733 154.082 37.3778 150.78 37.3778 150.78C37.3778 150.78 41.4273 146.816 46.7595 146.408Z" fill="url(#paint5_linear)"/>
<path d="M41.5955 129.905C43.6135 134.861 41.8816 140.26 41.8816 140.26C41.8816 140.26 36.8762 137.62 34.8582 132.663C32.8386 127.705 34.5698 122.308 34.5698 122.308C34.5698 122.308 39.5759 124.947 41.5955 129.905Z" fill="url(#paint6_linear)"/>
<path d="M32.954 135.036C38.2244 135.937 41.882 140.259 41.882 140.259C41.882 140.259 36.9937 143.121 31.7234 142.221C26.4522 141.32 22.7969 136.998 22.7969 136.998C22.7969 136.998 27.6836 134.136 32.954 135.036Z" fill="url(#paint7_linear)"/>
<path d="M32.1629 118.82C32.9616 124.114 30.0102 128.954 30.0102 128.954C30.0102 128.954 25.7664 125.21 24.9692 119.915C24.1705 114.62 27.1211 109.781 27.1211 109.781C27.1211 109.781 31.3657 113.525 32.1629 118.82Z" fill="url(#paint8_linear)"/>
<path d="M22.5611 121.776C27.4714 123.893 30.0102 128.955 30.0102 128.955C30.0102 128.955 24.5895 130.587 19.6792 128.47C14.7705 126.355 12.2302 121.292 12.2302 121.292C12.2302 121.292 17.6523 119.66 22.5611 121.776Z" fill="url(#paint9_linear)"/>
<path d="M23.9617 104.742C23.6922 110.091 19.8403 114.248 19.8403 114.248C19.8403 114.248 16.4252 109.732 16.6947 104.383C16.9643 99.0334 20.8147 94.8769 20.8147 94.8769C20.8147 94.8769 24.2312 99.3921 23.9617 104.742Z" fill="url(#paint10_linear)"/>
<path d="M13.9668 105.727C18.3582 108.779 19.8403 114.248 19.8403 114.248C19.8403 114.248 14.205 114.768 9.81359 111.716C5.4237 108.663 3.94086 103.195 3.94086 103.195C3.94086 103.195 9.57695 102.676 13.9668 105.727Z" fill="url(#paint11_linear)"/>
<path d="M19.5212 91.2032C18.4101 96.4432 13.9505 99.9386 13.9505 99.9386C13.9505 99.9386 11.2927 94.937 12.4038 89.6969C13.5165 84.4576 17.9738 80.9623 17.9738 80.9623C17.9738 80.9623 20.6323 85.9632 19.5212 91.2032Z" fill="url(#paint12_linear)"/>
<path d="M9.49825 90.5927C13.3509 94.3029 13.9504 99.9389 13.9504 99.9389C13.9504 99.9389 8.30474 99.5594 4.45212 95.8492C0.600266 92.1389 0 86.5029 0 86.5029C0 86.5029 5.6464 86.8824 9.49825 90.5927Z" fill="url(#paint13_linear)"/>
<path d="M18.5853 75.9794C16.239 80.7939 11.0657 83.1013 11.0657 83.1013C11.0657 83.1013 9.70139 77.6028 12.0469 72.7876C14.3947 67.973 19.5656 65.6648 19.5656 65.6648C19.5656 65.6648 20.9331 71.1648 18.5853 75.9794Z" fill="url(#paint14_linear)"/>
<path d="M9.01469 72.9496C11.8507 77.4862 11.0664 83.1004 11.0664 83.1004C11.0664 83.1004 5.68434 81.3591 2.84681 76.8226C0.00927647 72.2861 0.793537 66.6719 0.793537 66.6719C0.793537 66.6719 6.17716 68.4131 9.01469 72.9496Z" fill="url(#paint15_linear)"/>
<path d="M20.7488 60.5064C17.3384 64.6345 11.7707 65.6616 11.7707 65.6616C11.7707 65.6616 11.7345 59.9938 15.1463 55.8648C18.5567 51.7367 24.1237 50.7105 24.1237 50.7105C24.1237 50.7105 24.1615 56.3782 20.7488 60.5064Z" fill="url(#paint16_linear)"/>
<path d="M12.1577 55.3087C13.8505 60.3872 11.7715 65.6618 11.7715 65.6618C11.7715 65.6618 6.94825 62.7011 5.25618 57.6217C3.56416 52.544 5.64321 47.2702 5.64321 47.2702C5.64321 47.2702 10.4656 50.2302 12.1577 55.3087Z" fill="url(#paint17_linear)"/>
<path d="M25.8052 47.674C21.5447 50.9162 15.8933 50.6444 15.8933 50.6444C15.8933 50.6444 17.1468 45.1163 21.4066 41.8741C25.6664 38.6319 31.3185 38.9037 31.3185 38.9037C31.3185 38.9037 30.0643 44.4326 25.8052 47.674Z" fill="url(#paint18_linear)"/>
<path d="M18.6244 40.6517C19.116 45.9838 15.8928 50.6454 15.8928 50.6454C15.8928 50.6454 11.8708 46.6624 11.38 41.3295C10.8884 35.9974 14.1123 31.335 14.1123 31.335C14.1123 31.335 18.1328 35.3188 18.6244 40.6517Z" fill="url(#paint19_linear)"/>
<path d="M32.269 36C27.5517 38.5273 22.0143 37.3634 22.0143 37.3634C22.0143 37.3634 24.1262 32.1026 28.8428 29.5761C33.5617 27.0487 39.0975 28.2119 39.0975 28.2119C39.0975 28.2119 36.9864 33.4734 32.269 36Z" fill="url(#paint20_linear)"/>
<path d="M26.2908 27.9257C25.934 33.2695 22.0144 37.3624 22.0144 37.3624C22.0144 37.3624 18.6746 32.7905 19.0314 27.4467C19.389 22.1021 23.3086 18.0092 23.3086 18.0092C23.3086 18.0092 26.6491 22.5811 26.2908 27.9257Z" fill="url(#paint21_linear)"/>
<path d="M112.342 147.58C108.276 151.066 107.347 156.657 107.347 156.657C107.347 156.657 113.006 156.598 117.069 153.114C121.134 149.629 122.064 144.037 122.064 144.037C122.064 144.037 116.406 144.095 112.342 147.58Z" fill="url(#paint22_linear)"/>
<path d="M117.676 156.096C112.578 154.487 107.347 156.657 107.347 156.657C107.347 156.657 110.383 161.437 115.481 163.047C120.579 164.656 125.809 162.486 125.809 162.486C125.809 162.486 122.774 157.705 117.676 156.096Z" fill="url(#paint23_linear)"/>
<path d="M126.448 143.32C122.9 147.332 122.746 152.998 122.746 152.998C122.746 152.998 128.345 152.16 131.891 148.148C135.438 144.137 135.591 138.47 135.591 138.47C135.591 138.47 129.995 139.308 126.448 143.32Z" fill="url(#paint24_linear)"/>
<path d="M132.901 151.017C127.63 150.127 122.747 152.997 122.747 152.997C122.747 152.997 126.412 157.311 131.683 158.202C136.956 159.094 141.838 156.223 141.838 156.223C141.838 156.223 138.174 151.907 132.901 151.017Z" fill="url(#paint25_linear)"/>
<path d="M139.02 135.885C136.152 140.407 136.896 146.026 136.896 146.026C136.896 146.026 142.29 144.31 145.16 139.787C148.029 135.266 147.286 129.648 147.286 129.648C147.286 129.648 141.89 131.362 139.02 135.885Z" fill="url(#paint26_linear)"/>
<path d="M146.611 142.461C141.263 142.418 136.895 146.026 136.895 146.026C136.895 146.026 141.196 149.705 146.544 149.748C151.891 149.792 156.259 146.183 156.259 146.183C156.259 146.183 151.958 142.505 146.611 142.461Z" fill="url(#paint27_linear)"/>
<path d="M150.276 125.914C148.587 130.998 150.671 136.266 150.671 136.266C150.671 136.266 155.491 133.291 157.18 128.208C158.868 123.123 156.784 117.856 156.784 117.856C156.784 117.856 151.964 120.831 150.276 125.914Z" fill="url(#paint28_linear)"/>
<path d="M159.235 130.447C154.036 131.705 150.672 136.266 150.672 136.266C150.672 136.266 155.735 138.789 160.935 137.531C166.135 136.274 169.5 131.713 169.5 131.713C169.5 131.713 164.435 129.19 159.235 130.447Z" fill="url(#paint29_linear)"/>
<path d="M159.428 113.435C158.981 118.773 162.243 123.402 162.243 123.402C162.243 123.402 166.231 119.376 166.68 114.039C167.127 108.701 163.866 104.072 163.866 104.072C163.866 104.072 159.878 108.099 159.428 113.435Z" fill="url(#paint30_linear)"/>
<path d="M169.203 115.731C164.444 118.177 162.243 123.402 162.243 123.402C162.243 123.402 167.76 124.66 172.519 122.214C177.28 119.768 179.479 114.545 179.479 114.545C179.479 114.545 173.962 113.286 169.203 115.731Z" fill="url(#paint31_linear)"/>
<path d="M165.836 99.6389C166.456 104.958 170.573 108.844 170.573 108.844C170.573 108.844 173.683 104.104 173.063 98.7867C172.442 93.4668 168.325 89.5812 168.325 89.5812C168.325 89.5812 165.216 94.3197 165.836 99.6389Z" fill="url(#paint32_linear)"/>
<path d="M175.872 99.9416C171.692 103.286 170.572 108.843 170.572 108.843C170.572 108.843 176.229 108.977 180.41 105.632C184.589 102.289 185.709 96.7313 185.709 96.7313C185.709 96.7313 180.052 96.597 175.872 99.9416Z" fill="url(#paint33_linear)"/>
<path d="M169.375 85.8041C170.828 90.9567 175.507 94.1405 175.507 94.1405C175.507 94.1405 177.831 88.969 176.378 83.8164C174.923 78.6638 170.245 75.48 170.245 75.48C170.245 75.48 167.922 80.6507 169.375 85.8041Z" fill="url(#paint34_linear)"/>
<path d="M179.335 84.5119C175.735 88.4762 175.506 94.1397 175.506 94.1397C175.506 94.1397 181.115 93.3756 184.715 89.4113C188.314 85.447 188.543 79.7836 188.543 79.7836C188.543 79.7836 182.934 80.5476 179.335 84.5119Z" fill="url(#paint35_linear)"/>
<path d="M169.252 71.0595C171.911 75.7033 177.222 77.6533 177.222 77.6533C177.222 77.6533 178.225 72.0741 175.565 67.4295C172.906 62.7849 167.594 60.8357 167.594 60.8357C167.594 60.8357 166.593 66.4156 169.252 71.0595Z" fill="url(#paint36_linear)"/>
<path d="M178.603 67.3857C176.071 72.1053 177.222 77.6535 177.222 77.6535C177.222 77.6535 182.479 75.5496 185.011 70.8299C187.544 66.1103 186.393 60.5621 186.393 60.5621C186.393 60.5621 181.136 62.6661 178.603 67.3857Z" fill="url(#paint37_linear)"/>
<path d="M165.948 55.7641C169.623 59.6507 175.244 60.2962 175.244 60.2962C175.244 60.2962 174.909 54.6379 171.234 50.7513C167.56 46.8648 161.938 46.2192 161.938 46.2192C161.938 46.2192 162.273 51.8776 165.948 55.7641Z" fill="url(#paint38_linear)"/>
<path d="M174.178 49.9926C172.824 55.175 175.244 60.2962 175.244 60.2962C175.244 60.2962 179.862 57.0128 181.216 51.8304C182.57 46.6488 180.149 41.5284 180.149 41.5284C180.149 41.5284 175.532 44.8094 174.178 49.9926Z" fill="url(#paint39_linear)"/>
<path d="M160.223 43.5146C164.686 46.4602 170.307 45.804 170.307 45.804C170.307 45.804 168.694 40.3736 164.23 37.4281C159.767 34.4833 154.146 35.1395 154.146 35.1395C154.146 35.1395 155.759 40.5706 160.223 43.5146Z" fill="url(#paint40_linear)"/>
<path d="M166.925 36.0178C166.785 41.3715 170.307 45.8038 170.307 45.8038C170.307 45.8038 174.058 41.555 174.198 36.2006C174.338 30.8462 170.815 26.4146 170.815 26.4146C170.815 26.4146 167.064 30.6642 166.925 36.0178Z" fill="url(#paint41_linear)"/>
<path d="M152.609 32.4054C157.482 34.6057 162.931 33.0672 162.931 33.0672C162.931 33.0672 160.478 27.962 155.605 25.7617C150.731 23.5622 145.284 25.1006 145.284 25.1006C145.284 25.1006 147.736 30.2058 152.609 32.4054Z" fill="url(#paint42_linear)"/>
<path d="M158.043 23.9429C158.751 29.2504 162.931 33.0672 162.931 33.0672C162.931 33.0672 165.963 28.2779 165.254 22.9705C164.547 17.6622 160.367 13.8462 160.367 13.8462C160.367 13.8462 157.335 18.6347 158.043 23.9429Z" fill="url(#paint43_linear)"/>
<path d="M148.215 16.2065C148.006 16.4427 147.766 16.6784 147.485 16.9124C147.404 16.9803 147.321 17.0271 147.237 17.0865C164.475 31.0388 175.718 51.6986 176.487 75.0452C177.926 118.769 142.088 155.602 96.5971 157.153C51.1058 158.704 12.9267 124.395 11.4875 80.6711C10.7531 58.3599 19.7291 37.8455 34.7372 22.8949C34.2924 22.779 33.8431 22.6186 33.389 22.4081C18.3761 37.5644 9.42019 58.2421 10.1599 80.7163C11.6222 125.143 50.4163 160.005 96.6391 158.429C142.861 156.853 179.277 119.426 177.814 74.9999C177.035 51.3336 165.661 30.3832 148.215 16.2065Z" fill="url(#paint44_linear)"/>
<path d="M43.0404 25.5048C37.8518 26.8092 32.764 24.3345 32.764 24.3345C32.764 24.3345 36.0858 19.7426 41.2728 18.4374C46.4614 17.1322 51.5492 19.6076 51.5492 19.6076C51.5492 19.6076 48.2274 24.1996 43.0404 25.5048Z" fill="url(#paint45_linear)"/>
<path d="M39.1969 16.2169C37.5561 21.3157 32.764 24.3344 32.764 24.3344C32.764 24.3344 30.6316 19.0865 32.2723 13.9869C33.9138 8.88809 38.7068 5.87016 38.7068 5.87016C38.7068 5.87016 40.8384 11.1173 39.1969 16.2169Z" fill="url(#paint46_linear)"/>
<path d="M141.726 22.14C146.988 23.0881 151.902 20.2724 151.902 20.2724C151.902 20.2724 148.284 15.9171 143.023 14.9682C137.762 14.0192 132.847 16.8357 132.847 16.8357C132.847 16.8357 136.465 21.1911 141.726 22.14Z" fill="url(#paint47_linear)"/>
<path d="M144.949 12.6114C146.923 17.5869 151.902 20.2724 151.902 20.2724C151.902 20.2724 153.683 14.8911 151.712 9.91468C149.738 4.93912 144.757 2.25443 144.757 2.25443C144.757 2.25443 142.975 7.63502 144.949 12.6114Z" fill="url(#paint48_linear)"/>
<path d="M79.502 51.724C80.8 50.888 82.01 49.964 83.066 48.864C84.188 49.898 85.486 50.866 86.872 51.724H79.502ZM87.598 58.764C87.158 59.908 86.344 61.448 85.662 62.438L87.136 63.054H84.386V58.764H87.598ZM81.57 58.764V63.054H78.358L80.162 62.262C79.854 61.294 79.018 59.842 78.248 58.764H81.57ZM88.808 54.122V52.824C89.798 53.308 90.81 53.748 91.8 54.1C92.196 53.418 93.01 52.384 93.604 51.812C90.304 50.888 86.74 49.062 84.584 47.126C84.804 46.818 85.002 46.532 85.2 46.246L82.714 45.124C80.624 48.402 76.664 50.624 72.528 51.812C73.188 52.472 73.914 53.462 74.266 54.232C75.234 53.88 76.18 53.484 77.104 53.044V54.122H81.57V56.41H74.574V58.764H77.764L76.026 59.49C76.752 60.59 77.5 62.042 77.852 63.054H73.518V65.452H92.548V63.054H87.818C88.5 62.108 89.358 60.788 90.128 59.556L87.928 58.764H91.404V56.41H84.386V54.122H88.808ZM99.61 53.902V57.95H101.986V45.41H99.61V48.688H97.96V45.916H95.782V50.668H99.61V51.878H94.924V53.902H96.156C96.134 54.716 95.892 56.256 94.704 57.18C95.298 57.422 96.244 57.95 96.684 58.302C98.136 57.092 98.444 54.936 98.444 53.902H99.61ZM105.418 52.318C107.068 52.01 108.608 51.57 109.994 50.954V52.318H105.418ZM111.38 47.874C110.918 48.358 110.346 48.776 109.708 49.15C109.29 48.732 108.806 48.27 108.322 47.874H111.38ZM115.252 61.448V59.292H111.6L112.106 58.786C111.71 58.368 111.05 57.862 110.39 57.422C110.852 57.378 111.248 57.312 111.556 57.18C112.282 56.872 112.48 56.41 112.48 55.376V54.012H114.966V52.318H112.48V50.91H110.082C111.952 50.052 113.492 48.842 114.46 47.082L113.118 46.4L112.7 46.466H109.642C109.972 46.224 110.28 45.982 110.588 45.718L108.432 45.278C107.288 46.136 105.308 46.906 102.668 47.434C103.086 47.742 103.68 48.446 103.944 48.908C104.802 48.666 105.616 48.402 106.32 48.138C106.98 48.666 107.662 49.304 108.146 49.854C106.518 50.492 104.626 50.888 102.646 51.086C102.932 51.394 103.284 51.878 103.504 52.318H102.646V54.012H104.824L103.922 54.694C104.736 55.222 105.66 56.058 106.078 56.63L107.794 55.332C107.486 54.914 106.914 54.452 106.342 54.012H109.994V55.288C109.994 55.508 109.928 55.574 109.686 55.596C109.444 55.596 108.63 55.596 107.926 55.552C108.19 56.124 108.476 56.85 108.564 57.444H109.4L108.608 58.192C109.07 58.5 109.598 58.896 110.06 59.292H106.232C106.254 59.116 106.254 58.962 106.254 58.786V57.246H103.658V58.698C103.658 58.896 103.636 59.094 103.614 59.292H94.792V61.448H102.14C100.886 62.438 98.642 63.34 94.682 63.934C95.166 64.506 95.826 65.43 96.134 66.046C101.986 65.1 104.56 63.296 105.594 61.448H106.254L105.572 62.548C108.322 63.494 112.238 64.99 114.152 65.936L115.34 63.89C113.778 63.208 111.116 62.24 108.762 61.448H115.252ZM106.628 48.886C105.352 48.974 104.274 49.062 103.35 49.128L103.57 50.448C104.56 50.338 105.572 50.228 106.65 50.118L106.628 48.886Z" fill="#5B5555"/>
<path d="M81.1856 8.78C81.1856 9.28667 81.0856 9.77333 80.8856 10.24C80.6856 10.7067 80.4256 11.16 80.1056 11.6C79.7856 12.0267 79.4256 12.44 79.0256 12.84C78.6256 13.24 78.2323 13.62 77.8456 13.98C77.6456 14.1667 77.4256 14.38 77.1856 14.62C76.959 14.8467 76.739 15.08 76.5256 15.32C76.3123 15.56 76.119 15.7867 75.9456 16C75.7856 16.2 75.6856 16.3667 75.6456 16.5H81.6056V19H72.3656C72.339 18.8533 72.3256 18.6667 72.3256 18.44C72.3256 18.2133 72.3256 18.0533 72.3256 17.96C72.3256 17.32 72.4256 16.7333 72.6256 16.2C72.839 15.6667 73.1123 15.1733 73.4456 14.72C73.779 14.2533 74.1523 13.82 74.5656 13.42C74.9923 13.02 75.4123 12.62 75.8256 12.22C76.1456 11.9133 76.4456 11.6267 76.7256 11.36C77.0056 11.08 77.2523 10.8133 77.4656 10.56C77.679 10.2933 77.8456 10.0333 77.9656 9.78C78.0856 9.51333 78.1456 9.24667 78.1456 8.98C78.1456 8.39333 77.979 7.98 77.6456 7.74C77.3123 7.5 76.899 7.38 76.4056 7.38C76.0456 7.38 75.7056 7.44 75.3856 7.56C75.079 7.66667 74.7923 7.8 74.5256 7.96C74.2723 8.10667 74.0523 8.26 73.8656 8.42C73.679 8.56667 73.539 8.68667 73.4456 8.78L71.9656 6.7C72.5523 6.15333 73.2323 5.70667 74.0056 5.36C74.7923 5 75.6323 4.82 76.5256 4.82C77.339 4.82 78.039 4.91333 78.6256 5.1C79.2123 5.28667 79.6923 5.55333 80.0656 5.9C80.4523 6.23333 80.7323 6.64667 80.9056 7.14C81.0923 7.62 81.1856 8.16667 81.1856 8.78ZM93.3128 12.04C93.3128 14.3733 92.8661 16.1667 91.9728 17.42C91.0928 18.66 89.8728 19.28 88.3128 19.28C86.7528 19.28 85.5261 18.66 84.6328 17.42C83.7528 16.1667 83.3128 14.3733 83.3128 12.04C83.3128 10.88 83.4261 9.85333 83.6528 8.96C83.8928 8.06667 84.2328 7.31333 84.6728 6.7C85.1128 6.08667 85.6395 5.62 86.2528 5.3C86.8661 4.98 87.5528 4.82 88.3128 4.82C89.8728 4.82 91.0928 5.44667 91.9728 6.7C92.8661 7.94 93.3128 9.72 93.3128 12.04ZM90.2728 12.04C90.2728 11.3467 90.2395 10.72 90.1728 10.16C90.1061 9.58667 89.9995 9.09333 89.8528 8.68C89.7061 8.26667 89.5061 7.94667 89.2528 7.72C88.9995 7.49333 88.6861 7.38 88.3128 7.38C87.9395 7.38 87.6261 7.49333 87.3728 7.72C87.1328 7.94667 86.9328 8.26667 86.7728 8.68C86.6261 9.09333 86.5195 9.58667 86.4528 10.16C86.3861 10.72 86.3528 11.3467 86.3528 12.04C86.3528 12.7333 86.3861 13.3667 86.4528 13.94C86.5195 14.5133 86.6261 15.0067 86.7728 15.42C86.9328 15.8333 87.1328 16.1533 87.3728 16.38C87.6261 16.6067 87.9395 16.72 88.3128 16.72C88.6861 16.72 88.9995 16.6067 89.2528 16.38C89.5061 16.1533 89.7061 15.8333 89.8528 15.42C89.9995 15.0067 90.1061 14.5133 90.1728 13.94C90.2395 13.3667 90.2728 12.7333 90.2728 12.04ZM103.92 8.78C103.92 9.28667 103.82 9.77333 103.62 10.24C103.42 10.7067 103.16 11.16 102.84 11.6C102.52 12.0267 102.16 12.44 101.76 12.84C101.36 13.24 100.967 13.62 100.58 13.98C100.38 14.1667 100.16 14.38 99.92 14.62C99.6933 14.8467 99.4733 15.08 99.26 15.32C99.0467 15.56 98.8533 15.7867 98.68 16C98.52 16.2 98.42 16.3667 98.38 16.5H104.34V19H95.1C95.0733 18.8533 95.06 18.6667 95.06 18.44C95.06 18.2133 95.06 18.0533 95.06 17.96C95.06 17.32 95.16 16.7333 95.36 16.2C95.5733 15.6667 95.8467 15.1733 96.18 14.72C96.5133 14.2533 96.8867 13.82 97.3 13.42C97.7267 13.02 98.1467 12.62 98.56 12.22C98.88 11.9133 99.18 11.6267 99.46 11.36C99.74 11.08 99.9867 10.8133 100.2 10.56C100.413 10.2933 100.58 10.0333 100.7 9.78C100.82 9.51333 100.88 9.24667 100.88 8.98C100.88 8.39333 100.713 7.98 100.38 7.74C100.047 7.5 99.6333 7.38 99.14 7.38C98.78 7.38 98.44 7.44 98.12 7.56C97.8133 7.66667 97.5267 7.8 97.26 7.96C97.0067 8.10667 96.7867 8.26 96.6 8.42C96.4133 8.56667 96.2733 8.68667 96.18 8.78L94.7 6.7C95.2867 6.15333 95.9667 5.70667 96.74 5.36C97.5267 5 98.3667 4.82 99.26 4.82C100.073 4.82 100.773 4.91333 101.36 5.1C101.947 5.28667 102.427 5.55333 102.8 5.9C103.187 6.23333 103.467 6.64667 103.64 7.14C103.827 7.62 103.92 8.16667 103.92 8.78ZM116.047 12.04C116.047 14.3733 115.601 16.1667 114.707 17.42C113.827 18.66 112.607 19.28 111.047 19.28C109.487 19.28 108.261 18.66 107.367 17.42C106.487 16.1667 106.047 14.3733 106.047 12.04C106.047 10.88 106.161 9.85333 106.387 8.96C106.627 8.06667 106.967 7.31333 107.407 6.7C107.847 6.08667 108.374 5.62 108.987 5.3C109.601 4.98 110.287 4.82 111.047 4.82C112.607 4.82 113.827 5.44667 114.707 6.7C115.601 7.94 116.047 9.72 116.047 12.04ZM113.007 12.04C113.007 11.3467 112.974 10.72 112.907 10.16C112.841 9.58667 112.734 9.09333 112.587 8.68C112.441 8.26667 112.241 7.94667 111.987 7.72C111.734 7.49333 111.421 7.38 111.047 7.38C110.674 7.38 110.361 7.49333 110.107 7.72C109.867 7.94667 109.667 8.26667 109.507 8.68C109.361 9.09333 109.254 9.58667 109.187 10.16C109.121 10.72 109.087 11.3467 109.087 12.04C109.087 12.7333 109.121 13.3667 109.187 13.94C109.254 14.5133 109.361 15.0067 109.507 15.42C109.667 15.8333 109.867 16.1533 110.107 16.38C110.361 16.6067 110.674 16.72 111.047 16.72C111.421 16.72 111.734 16.6067 111.987 16.38C112.241 16.1533 112.441 15.8333 112.587 15.42C112.734 15.0067 112.841 14.5133 112.907 13.94C112.974 13.3667 113.007 12.7333 113.007 12.04Z" fill="#5B5555"/>
<path d="M46.912 85.824H51.36V84.496H46.912V80.992H45.344V89.456H42.656V83.728H41.2V89.456H39.296V90.816H52.816V89.456H46.912V85.824ZM45.872 76.432C44.288 78.832 41.408 80.896 38.512 82.032C38.896 82.384 39.312 82.912 39.536 83.296C41.936 82.208 44.272 80.576 46.016 78.608C48.128 80.944 50.288 82.224 52.608 83.312C52.784 82.848 53.2 82.336 53.568 82.016C51.184 81.056 48.864 79.84 46.848 77.584C46.976 77.408 47.104 77.248 47.216 77.072L45.872 76.432ZM59.552 88.224C58.528 88.88 56.592 89.472 54.976 89.712C55.28 89.984 55.664 90.48 55.872 90.8C57.52 90.432 59.52 89.6 60.64 88.736L59.552 88.224ZM63.584 88.88C65.04 89.44 66.992 90.288 67.984 90.784L68.976 89.92C67.904 89.408 65.952 88.64 64.544 88.128L63.584 88.88ZM64.432 80.496C64.208 80.912 63.84 81.52 63.536 81.92L64.112 82.096H59.744L60.464 81.904C60.336 81.536 60.032 80.944 59.712 80.496H64.432ZM62.704 86.304V85.344H67.616V84.224H62.704V83.264H68.368V82.096H64.976C65.296 81.728 65.664 81.296 66.016 80.816L64.768 80.496H68.96V79.312H66.672C67.088 78.72 67.568 77.92 68 77.136L66.464 76.736C66.224 77.456 65.728 78.464 65.344 79.104L65.968 79.312H64.224V76.56H62.816V79.312H61.232V76.56H59.84V79.312H58.048L58.896 78.992C58.672 78.368 58.112 77.392 57.616 76.704L56.32 77.152C56.768 77.808 57.248 78.688 57.488 79.312H55.104V80.496H59.184L58.256 80.72C58.528 81.136 58.8 81.696 58.96 82.096H55.744V83.264H61.248V84.224H56.528V85.344H61.248V86.304H55.04V87.552H61.248V91.264H62.704V87.552H69.008V86.304H62.704ZM81.024 78.624C79.68 77.888 77.056 77.04 75.152 76.608L74.416 77.84C76.368 78.336 78.96 79.28 80.24 80.016L81.024 78.624ZM75.328 82.864L75.072 82.912H70.944V84.32H74.432C73.664 86.48 72.224 88.192 70.592 89.168C70.944 89.392 71.52 89.968 71.776 90.288C73.76 88.992 75.52 86.576 76.32 83.28L75.328 82.864ZM83.52 80.992C82.656 82 81.312 83.248 80.112 84.16C79.6 83.232 79.2 82.192 78.864 81.088V79.808H73.04V81.232H77.264V89.424C77.264 89.696 77.184 89.776 76.896 89.792C76.624 89.792 75.648 89.792 74.768 89.76C74.992 90.16 75.232 90.832 75.296 91.248C76.608 91.248 77.504 91.232 78.096 90.976C78.672 90.736 78.864 90.304 78.864 89.456V84.704C80.096 87.232 81.888 89.184 84.4 90.288C84.64 89.888 85.104 89.28 85.44 88.976C83.488 88.24 81.968 86.944 80.816 85.296C82.096 84.416 83.648 83.136 84.88 81.984L83.52 80.992ZM95.856 79.072H92.544V80.032H100.496V79.072H97.312V78.368H101.056V77.36H97.312V76.576H95.856V77.36H91.92V78.368H95.856V79.072ZM93.232 81.536H94.736V82.688H93.232V81.536ZM99.696 82.688H98.4V81.536H99.696V82.688ZM95.872 82.688V81.536H97.264V82.688H95.872ZM92 83.648H100.992V80.576H92V83.648ZM92.16 86.064C92.032 85.232 91.648 83.824 91.28 82.72L90.256 82.992C90.4 83.424 90.544 83.92 90.672 84.4L88.72 84.656C89.904 83.168 91.056 81.36 91.952 79.568L90.8 78.896C90.48 79.616 90.096 80.368 89.728 81.056L88.384 81.168C89.168 79.968 89.936 78.496 90.512 77.056L89.264 76.544C88.72 78.272 87.744 80.096 87.424 80.56C87.12 81.056 86.88 81.376 86.592 81.44C86.736 81.776 86.944 82.384 87.008 82.656C87.232 82.56 87.584 82.464 88.96 82.304C88.48 83.088 88.048 83.696 87.84 83.952C87.376 84.56 87.04 84.944 86.704 85.04C86.864 85.376 87.056 86 87.12 86.272C87.44 86.096 87.92 85.984 90.912 85.536C90.976 85.872 91.04 86.16 91.072 86.416L92.16 86.064ZM87.312 86.864C87.168 88.256 86.944 89.76 86.576 90.784C86.88 90.864 87.44 91.024 87.696 91.168C88.032 90.144 88.32 88.56 88.48 87.072L87.312 86.864ZM88.88 87.008C89.056 88.176 89.2 89.696 89.216 90.704L90.32 90.496C90.272 89.488 90.112 88 89.904 86.832L88.88 87.008ZM90.336 86.704C90.656 87.648 90.976 88.88 91.12 89.664L92.128 89.344C91.984 88.56 91.6 87.344 91.296 86.432L90.336 86.704ZM93.856 87.504H99.088V88.144H93.856V87.504ZM93.856 86.288H99.088V86.88H93.856V86.288ZM93.856 85.088H99.088V85.664H93.856V85.088ZM100.464 88.96V84.256H92.528V88.96H94.864C93.968 89.408 92.576 89.984 91.616 90.304C91.824 90.608 92.064 91.056 92.176 91.344C93.296 90.928 94.848 90.336 96.064 89.776L95.184 88.96H97.776L97.296 89.792C98.496 90.24 99.84 90.848 100.688 91.248L101.296 90.192C100.512 89.84 99.312 89.36 98.176 88.96H100.464ZM107.712 82.016C107.488 82.624 107.12 83.456 106.768 84.096H104.88L105.648 83.84C105.536 83.36 105.232 82.592 104.896 82.016H107.712ZM107.024 85.36H109.424V84.096H108.064C108.368 83.552 108.704 82.88 109.008 82.288L107.968 82.016H109.728V80.752H107.024V79.376H109.344V78.128H107.024V76.624H105.648V78.128H103.248V79.376H105.648V80.752H102.784V82.016H104.768L103.776 82.32C104.064 82.864 104.352 83.584 104.464 84.096H103.12V85.36H105.648V86.896H102.784V88.16H105.648V91.2H107.024V88.16H109.744V86.896H107.024V85.36ZM111.616 83.984C112.064 85.504 112.688 86.912 113.472 88.112C112.944 88.848 112.32 89.488 111.616 90.016V83.984ZM115.36 83.904C115.12 84.944 114.752 85.952 114.24 86.88C113.664 85.984 113.184 84.976 112.832 83.904H115.36ZM116.048 82.64L115.792 82.704H111.616V78.608H115.2V80.304C115.2 80.48 115.136 80.528 114.88 80.544C114.656 80.56 113.808 80.56 112.896 80.528C113.088 80.88 113.28 81.424 113.344 81.808C114.544 81.808 115.36 81.808 115.888 81.584C116.432 81.392 116.576 81.008 116.576 80.32V77.296H110.256V91.232H111.616V90.592C111.856 90.816 112.08 91.056 112.224 91.28C113.024 90.736 113.728 90.064 114.32 89.28C114.976 90.048 115.712 90.688 116.528 91.152C116.752 90.784 117.184 90.224 117.52 89.968C116.624 89.52 115.84 88.864 115.136 88.08C116.032 86.576 116.624 84.832 116.96 82.976L116.048 82.64ZM129.728 86.496V89.136H122.448V86.496H129.728ZM120.944 91.36H122.448V90.512H129.728V91.328H131.28V85.12H120.944V91.36ZM127.168 82.336V80.128H131.904V78.768H127.168V76.592H125.6V78.768H122.624C122.88 78.208 123.12 77.616 123.328 77.04L121.84 76.688C121.264 78.432 120.256 80.224 119.104 81.312C119.472 81.504 120.144 81.904 120.464 82.112C120.944 81.568 121.424 80.896 121.888 80.128H125.6V82.336H119.04V83.728H133.008V82.336H127.168ZM145.76 87.248V88.048H138.384V87.248H145.76ZM138.384 89.824V88.976H145.76V89.824H138.384ZM136.928 91.296H138.384V90.816H145.76V91.28H147.264V86.288H136.928V91.296ZM142.688 80.368H145.712V81.152H142.688V80.368ZM142.688 78.528H145.712V79.296H142.688V78.528ZM142.688 84.56V83.792H147.968V82.832H142.688V82.096H147.184V80.368H149.072V79.296H147.184V77.616H142.688V76.528H141.184V77.616H136.592V78.528H141.184V79.296H134.928V80.368H141.184V81.152H136.4V82.096H141.184V82.832H136.016V83.792H141.184V84.56H134.912V85.632H149.088V84.56H142.688ZM63.542 114.184L64.694 113.672C63.318 111.384 62.678 108.68 62.678 105.992C62.678 103.32 63.318 100.616 64.694 98.312L63.542 97.816C62.054 100.232 61.174 102.84 61.174 105.992C61.174 109.176 62.054 111.752 63.542 114.184ZM72.4295 105.304V104.248H74.5255V105.304H72.4295ZM72.4295 102.2H74.5255V103.24H72.4295V102.2ZM78.1255 102.2V103.24H75.9655V102.2H78.1255ZM78.1255 105.304H75.9655V104.248H78.1255V105.304ZM74.5255 110.28H75.9655V108.568H80.5255V107.352H75.9655V106.376H79.5495V101.128H75.9655V100.104H80.3175V98.888H75.9655V97.592H74.5255V98.888H70.3655V100.104H74.5255V101.128H71.0535V106.376H74.5255V107.352H70.3655V108.568H74.5255V110.28ZM69.2135 100.216C69.0215 99.528 68.6375 98.472 68.3335 97.64L67.0375 98.024C67.2935 98.872 67.6775 99.992 67.8695 100.696L69.2135 100.216ZM69.5815 104.856L69.3575 104.92H68.4615C68.8615 103.816 69.3095 102.504 69.6615 101.368H66.2055V102.712H67.8215C67.4215 103.96 66.9415 105.256 66.5575 106.2H68.6055C68.3495 107.288 67.9815 108.44 67.5495 109.304C67.0535 109.624 66.4935 110.248 65.9495 110.968L66.9415 112.344C67.3895 111.368 67.9335 110.328 68.3015 110.328C68.6375 110.328 69.2135 110.888 69.8695 111.256C71.0215 111.928 72.3975 112.104 74.4935 112.104C76.3655 112.104 79.2935 112.008 80.5415 111.928C80.5735 111.528 80.7975 110.792 80.9735 110.392C79.1975 110.616 76.5095 110.76 74.5575 110.76C72.6855 110.76 71.2295 110.664 70.1095 109.992C69.5975 109.672 69.2455 109.4 68.9575 109.24C69.5175 108.04 69.9495 106.536 70.2535 105.112L69.5815 104.856ZM91.2935 100.072H87.9815V101.032H95.9335V100.072H92.7495V99.368H96.4935V98.36H92.7495V97.576H91.2935V98.36H87.3575V99.368H91.2935V100.072ZM88.6695 102.536H90.1735V103.688H88.6695V102.536ZM95.1335 103.688H93.8375V102.536H95.1335V103.688ZM91.3095 103.688V102.536H92.7015V103.688H91.3095ZM87.4375 104.648H96.4295V101.576H87.4375V104.648ZM87.5975 107.064C87.4695 106.232 87.0855 104.824 86.7175 103.72L85.6935 103.992C85.8375 104.424 85.9815 104.92 86.1095 105.4L84.1575 105.656C85.3415 104.168 86.4935 102.36 87.3895 100.568L86.2375 99.896C85.9175 100.616 85.5335 101.368 85.1655 102.056L83.8215 102.168C84.6055 100.968 85.3735 99.496 85.9495 98.056L84.7015 97.544C84.1575 99.272 83.1815 101.096 82.8615 101.56C82.5575 102.056 82.3175 102.376 82.0295 102.44C82.1735 102.776 82.3815 103.384 82.4455 103.656C82.6695 103.56 83.0215 103.464 84.3975 103.304C83.9175 104.088 83.4855 104.696 83.2775 104.952C82.8135 105.56 82.4775 105.944 82.1415 106.04C82.3015 106.376 82.4935 107 82.5575 107.272C82.8775 107.096 83.3575 106.984 86.3495 106.536C86.4135 106.872 86.4775 107.16 86.5095 107.416L87.5975 107.064ZM82.7495 107.864C82.6055 109.256 82.3815 110.76 82.0135 111.784C82.3175 111.864 82.8775 112.024 83.1335 112.168C83.4695 111.144 83.7575 109.56 83.9175 108.072L82.7495 107.864ZM84.3175 108.008C84.4935 109.176 84.6375 110.696 84.6535 111.704L85.7575 111.496C85.7095 110.488 85.5495 109 85.3415 107.832L84.3175 108.008ZM85.7735 107.704C86.0935 108.648 86.4135 109.88 86.5575 110.664L87.5655 110.344C87.4215 109.56 87.0375 108.344 86.7335 107.432L85.7735 107.704ZM89.2935 108.504H94.5255V109.144H89.2935V108.504ZM89.2935 107.288H94.5255V107.88H89.2935V107.288ZM89.2935 106.088H94.5255V106.664H89.2935V106.088ZM95.9015 109.96V105.256H87.9655V109.96H90.3015C89.4055 110.408 88.0135 110.984 87.0535 111.304C87.2615 111.608 87.5015 112.056 87.6135 112.344C88.7335 111.928 90.2855 111.336 91.5015 110.776L90.6215 109.96H93.2135L92.7335 110.792C93.9335 111.24 95.2775 111.848 96.1255 112.248L96.7335 111.192C95.9495 110.84 94.7495 110.36 93.6135 109.96H95.9015ZM101.726 111.208C103.79 111.208 105.694 109.736 105.694 107.128C105.694 104.552 104.078 103.384 102.11 103.384C101.47 103.384 100.99 103.544 100.494 103.8L100.766 100.776H105.134V99.224H99.1655L98.8135 104.808L99.7095 105.4C100.398 104.952 100.846 104.728 101.598 104.728C102.942 104.728 103.838 105.624 103.838 107.192C103.838 108.76 102.83 109.704 101.502 109.704C100.27 109.704 99.4215 109.112 98.7495 108.44L97.8695 109.64C98.7015 110.456 99.8695 111.208 101.726 111.208ZM111.411 107.288V104.456H114.627V107.288H111.411ZM121.779 107.288H116.163V104.456H120.627V103.064H116.163V100.856H120.995V99.416H111.731C111.939 98.936 112.163 98.408 112.355 97.912L110.851 97.512C110.115 99.64 108.835 101.672 107.363 102.936C107.731 103.16 108.371 103.64 108.659 103.896C109.475 103.096 110.275 102.04 110.963 100.856H114.627V103.064H109.923V107.288H107.347V108.728H114.627V112.264H116.163V108.728H121.779V107.288ZM124.451 114.184C125.955 111.752 126.835 109.176 126.835 105.992C126.835 102.84 125.955 100.232 124.451 97.816L123.299 98.312C124.674 100.616 125.315 103.32 125.315 105.992C125.315 108.68 124.674 111.384 123.299 113.672L124.451 114.184Z" fill="#5B5555"/>
<defs>
<linearGradient id="paint0_linear" x1="81.0015" y1="146.157" x2="81.4143" y2="158.263" gradientUnits="userSpaceOnUse">
<stop stop-color="#FFBA42"/>
<stop offset="0.526042" stop-color="#FFC800"/>
<stop offset="1" stop-color="#FFCE00"/>
</linearGradient>
<linearGradient id="paint1_linear" x1="79.8011" y1="157.366" x2="80.0858" y2="165.715" gradientUnits="userSpaceOnUse">
<stop stop-color="#FFBA42"/>
<stop offset="0.526042" stop-color="#FFC800"/>
<stop offset="1" stop-color="#FFCE00"/>
</linearGradient>
<linearGradient id="paint2_linear" x1="64.1474" y1="140.905" x2="64.6272" y2="154.979" gradientUnits="userSpaceOnUse">
<stop stop-color="#FFBA42"/>
<stop offset="0.526042" stop-color="#FFC800"/>
<stop offset="1" stop-color="#FFCE00"/>
</linearGradient>
<linearGradient id="paint3_linear" x1="61.7219" y1="153.193" x2="61.9823" y2="160.83" gradientUnits="userSpaceOnUse">
<stop stop-color="#FFBA42"/>
<stop offset="0.526042" stop-color="#FFC800"/>
<stop offset="1" stop-color="#FFCE00"/>
</linearGradient>
<linearGradient id="paint4_linear" x1="50.7014" y1="133.482" x2="51.2472" y2="149.488" gradientUnits="userSpaceOnUse">
<stop stop-color="#FFBA42"/>
<stop offset="0.526042" stop-color="#FFC800"/>
<stop offset="1" stop-color="#FFCE00"/>
</linearGradient>
<linearGradient id="paint5_linear" x1="46.9124" y1="146.393" x2="47.1612" y2="153.69" gradientUnits="userSpaceOnUse">
<stop stop-color="#FFBA42"/>
<stop offset="0.526042" stop-color="#FFC800"/>
<stop offset="1" stop-color="#FFCE00"/>
</linearGradient>
<linearGradient id="paint6_linear" x1="37.927" y1="122.194" x2="38.5469" y2="140.374" gradientUnits="userSpaceOnUse">
<stop stop-color="#FFBA42"/>
<stop offset="0.526042" stop-color="#FFC800"/>
<stop offset="1" stop-color="#FFCE00"/>
</linearGradient>
<linearGradient id="paint7_linear" x1="32.2136" y1="134.806" x2="32.4743" y2="142.451" gradientUnits="userSpaceOnUse">
<stop stop-color="#FFBA42"/>
<stop offset="0.526042" stop-color="#FFC800"/>
<stop offset="1" stop-color="#FFCE00"/>
</linearGradient>
<linearGradient id="paint8_linear" x1="28.2492" y1="109.742" x2="28.9056" y2="128.992" gradientUnits="userSpaceOnUse">
<stop stop-color="#FFBA42"/>
<stop offset="0.526042" stop-color="#FFC800"/>
<stop offset="1" stop-color="#FFCE00"/>
</linearGradient>
<linearGradient id="paint9_linear" x1="20.9694" y1="120.542" x2="21.2818" y2="129.705" gradientUnits="userSpaceOnUse">
<stop stop-color="#FFBA42"/>
<stop offset="0.526042" stop-color="#FFC800"/>
<stop offset="1" stop-color="#FFCE00"/>
</linearGradient>
<linearGradient id="paint10_linear" x1="20.0103" y1="94.9043" x2="20.6689" y2="114.22" gradientUnits="userSpaceOnUse">
<stop stop-color="#FFBA42"/>
<stop offset="0.526042" stop-color="#FFC800"/>
<stop offset="1" stop-color="#FFCE00"/>
</linearGradient>
<linearGradient id="paint11_linear" x1="11.6997" y1="102.921" x2="12.0952" y2="114.521" gradientUnits="userSpaceOnUse">
<stop stop-color="#FFBA42"/>
<stop offset="0.526042" stop-color="#FFC800"/>
<stop offset="1" stop-color="#FFCE00"/>
</linearGradient>
<linearGradient id="paint12_linear" x1="15.6528" y1="81.0414" x2="16.2944" y2="99.8587" gradientUnits="userSpaceOnUse">
<stop stop-color="#FFBA42"/>
<stop offset="0.526042" stop-color="#FFC800"/>
<stop offset="1" stop-color="#FFCE00"/>
</linearGradient>
<linearGradient id="paint13_linear" x1="6.74649" y1="86.2729" x2="7.22028" y2="100.168" gradientUnits="userSpaceOnUse">
<stop stop-color="#FFBA42"/>
<stop offset="0.526042" stop-color="#FFC800"/>
<stop offset="1" stop-color="#FFCE00"/>
</linearGradient>
<linearGradient id="paint14_linear" x1="15.0344" y1="65.8193" x2="15.6184" y2="82.9461" gradientUnits="userSpaceOnUse">
<stop stop-color="#FFBA42"/>
<stop offset="0.526042" stop-color="#FFC800"/>
<stop offset="1" stop-color="#FFCE00"/>
</linearGradient>
<linearGradient id="paint15_linear" x1="5.65421" y1="66.5062" x2="6.22564" y2="83.2654" gradientUnits="userSpaceOnUse">
<stop stop-color="#FFBA42"/>
<stop offset="0.526042" stop-color="#FFC800"/>
<stop offset="1" stop-color="#FFCE00"/>
</linearGradient>
<linearGradient id="paint16_linear" x1="17.7083" y1="50.9292" x2="18.2032" y2="65.4422" gradientUnits="userSpaceOnUse">
<stop stop-color="#FFBA42"/>
<stop offset="0.526042" stop-color="#FFC800"/>
<stop offset="1" stop-color="#FFCE00"/>
</linearGradient>
<linearGradient id="paint17_linear" x1="8.4014" y1="47.1761" x2="9.03488" y2="65.7551" gradientUnits="userSpaceOnUse">
<stop stop-color="#FFBA42"/>
<stop offset="0.526042" stop-color="#FFC800"/>
<stop offset="1" stop-color="#FFCE00"/>
</linearGradient>
<linearGradient id="paint18_linear" x1="23.4208" y1="39.1482" x2="23.8044" y2="50.3994" gradientUnits="userSpaceOnUse">
<stop stop-color="#FFBA42"/>
<stop offset="0.526042" stop-color="#FFC800"/>
<stop offset="1" stop-color="#FFCE00"/>
</linearGradient>
<linearGradient id="paint19_linear" x1="14.6837" y1="31.3155" x2="15.3434" y2="50.6641" gradientUnits="userSpaceOnUse">
<stop stop-color="#FFBA42"/>
<stop offset="0.526042" stop-color="#FFC800"/>
<stop offset="1" stop-color="#FFCE00"/>
</linearGradient>
<linearGradient id="paint20_linear" x1="30.4024" y1="28.1239" x2="30.7204" y2="37.4514" gradientUnits="userSpaceOnUse">
<stop stop-color="#FFBA42"/>
<stop offset="0.526042" stop-color="#FFC800"/>
<stop offset="1" stop-color="#FFCE00"/>
</linearGradient>
<linearGradient id="paint21_linear" x1="22.3439" y1="18.0421" x2="23.0015" y2="37.3288" gradientUnits="userSpaceOnUse">
<stop stop-color="#FFBA42"/>
<stop offset="0.526042" stop-color="#FFC800"/>
<stop offset="1" stop-color="#FFCE00"/>
</linearGradient>
<linearGradient id="paint22_linear" x1="114.507" y1="144.294" x2="114.919" y2="156.4" gradientUnits="userSpaceOnUse">
<stop stop-color="#FFBA42"/>
<stop offset="0.526042" stop-color="#FFC800"/>
<stop offset="1" stop-color="#FFCE00"/>
</linearGradient>
<linearGradient id="paint23_linear" x1="116.441" y1="155.396" x2="116.725" y2="163.746" gradientUnits="userSpaceOnUse">
<stop stop-color="#FFBA42"/>
<stop offset="0.526042" stop-color="#FFC800"/>
<stop offset="1" stop-color="#FFCE00"/>
</linearGradient>
<linearGradient id="paint24_linear" x1="128.937" y1="138.697" x2="129.417" y2="152.77" gradientUnits="userSpaceOnUse">
<stop stop-color="#FFBA42"/>
<stop offset="0.526042" stop-color="#FFC800"/>
<stop offset="1" stop-color="#FFCE00"/>
</linearGradient>
<linearGradient id="paint25_linear" x1="132.167" y1="150.791" x2="132.427" y2="158.428" gradientUnits="userSpaceOnUse">
<stop stop-color="#FFBA42"/>
<stop offset="0.526042" stop-color="#FFC800"/>
<stop offset="1" stop-color="#FFCE00"/>
</linearGradient>
<linearGradient id="paint26_linear" x1="141.827" y1="129.834" x2="142.373" y2="145.839" gradientUnits="userSpaceOnUse">
<stop stop-color="#FFBA42"/>
<stop offset="0.526042" stop-color="#FFC800"/>
<stop offset="1" stop-color="#FFCE00"/>
</linearGradient>
<linearGradient id="paint27_linear" x1="146.457" y1="142.456" x2="146.706" y2="149.753" gradientUnits="userSpaceOnUse">
<stop stop-color="#FFBA42"/>
<stop offset="0.526042" stop-color="#FFC800"/>
<stop offset="1" stop-color="#FFCE00"/>
</linearGradient>
<linearGradient id="paint28_linear" x1="153.428" y1="117.971" x2="154.048" y2="136.151" gradientUnits="userSpaceOnUse">
<stop stop-color="#FFBA42"/>
<stop offset="0.526042" stop-color="#FFC800"/>
<stop offset="1" stop-color="#FFCE00"/>
</linearGradient>
<linearGradient id="paint29_linear" x1="159.96" y1="130.167" x2="160.221" y2="137.811" gradientUnits="userSpaceOnUse">
<stop stop-color="#FFBA42"/>
<stop offset="0.526042" stop-color="#FFC800"/>
<stop offset="1" stop-color="#FFCE00"/>
</linearGradient>
<linearGradient id="paint30_linear" x1="162.737" y1="104.111" x2="163.394" y2="123.362" gradientUnits="userSpaceOnUse">
<stop stop-color="#FFBA42"/>
<stop offset="0.526042" stop-color="#FFC800"/>
<stop offset="1" stop-color="#FFCE00"/>
</linearGradient>
<linearGradient id="paint31_linear" x1="170.71" y1="114.392" x2="171.022" y2="123.554" gradientUnits="userSpaceOnUse">
<stop stop-color="#FFBA42"/>
<stop offset="0.526042" stop-color="#FFC800"/>
<stop offset="1" stop-color="#FFCE00"/>
</linearGradient>
<linearGradient id="paint32_linear" x1="169.131" y1="89.5537" x2="169.79" y2="108.87" gradientUnits="userSpaceOnUse">
<stop stop-color="#FFBA42"/>
<stop offset="0.526042" stop-color="#FFC800"/>
<stop offset="1" stop-color="#FFCE00"/>
</linearGradient>
<linearGradient id="paint33_linear" x1="177.95" y1="96.9864" x2="178.345" y2="108.587" gradientUnits="userSpaceOnUse">
<stop stop-color="#FFBA42"/>
<stop offset="0.526042" stop-color="#FFC800"/>
<stop offset="1" stop-color="#FFCE00"/>
</linearGradient>
<linearGradient id="paint34_linear" x1="172.567" y1="75.4008" x2="173.208" y2="94.2189" gradientUnits="userSpaceOnUse">
<stop stop-color="#FFBA42"/>
<stop offset="0.526042" stop-color="#FFC800"/>
<stop offset="1" stop-color="#FFCE00"/>
</linearGradient>
<linearGradient id="paint35_linear" x1="181.796" y1="80.0136" x2="182.269" y2="93.9091" gradientUnits="userSpaceOnUse">
<stop stop-color="#FFBA42"/>
<stop offset="0.526042" stop-color="#FFC800"/>
<stop offset="1" stop-color="#FFCE00"/>
</linearGradient>
<linearGradient id="paint36_linear" x1="172.127" y1="60.6811" x2="172.711" y2="77.8071" gradientUnits="userSpaceOnUse">
<stop stop-color="#FFBA42"/>
<stop offset="0.526042" stop-color="#FFC800"/>
<stop offset="1" stop-color="#FFCE00"/>
</linearGradient>
<linearGradient id="paint37_linear" x1="181.532" y1="60.7279" x2="182.103" y2="77.4871" gradientUnits="userSpaceOnUse">
<stop stop-color="#FFBA42"/>
<stop offset="0.526042" stop-color="#FFC800"/>
<stop offset="1" stop-color="#FFCE00"/>
</linearGradient>
<linearGradient id="paint38_linear" x1="168.352" y1="46.0005" x2="168.847" y2="60.5144" gradientUnits="userSpaceOnUse">
<stop stop-color="#FFBA42"/>
<stop offset="0.526042" stop-color="#FFC800"/>
<stop offset="1" stop-color="#FFCE00"/>
</linearGradient>
<linearGradient id="paint39_linear" x1="177.391" y1="41.6224" x2="178.024" y2="60.2014" gradientUnits="userSpaceOnUse">
<stop stop-color="#FFBA42"/>
<stop offset="0.526042" stop-color="#FFC800"/>
<stop offset="1" stop-color="#FFCE00"/>
</linearGradient>
<linearGradient id="paint40_linear" x1="162.041" y1="34.8455" x2="162.425" y2="46.0975" gradientUnits="userSpaceOnUse">
<stop stop-color="#FFBA42"/>
<stop offset="0.526042" stop-color="#FFC800"/>
<stop offset="1" stop-color="#FFCE00"/>
</linearGradient>
<linearGradient id="paint41_linear" x1="170.243" y1="26.4341" x2="170.903" y2="45.7835" gradientUnits="userSpaceOnUse">
<stop stop-color="#FFBA42"/>
<stop offset="0.526042" stop-color="#FFC800"/>
<stop offset="1" stop-color="#FFCE00"/>
</linearGradient>
<linearGradient id="paint42_linear" x1="153.954" y1="24.42" x2="154.272" y2="33.7473" gradientUnits="userSpaceOnUse">
<stop stop-color="#FFBA42"/>
<stop offset="0.526042" stop-color="#FFC800"/>
<stop offset="1" stop-color="#FFCE00"/>
</linearGradient>
<linearGradient id="paint43_linear" x1="161.331" y1="13.8133" x2="161.989" y2="33.0993" gradientUnits="userSpaceOnUse">
<stop stop-color="#FFBA42"/>
<stop offset="0.526042" stop-color="#FFC800"/>
<stop offset="1" stop-color="#FFCE00"/>
</linearGradient>
<linearGradient id="paint44_linear" x1="92.0209" y1="18.1225" x2="96.8047" y2="158.424" gradientUnits="userSpaceOnUse">
<stop stop-color="#FFBA42"/>
<stop offset="0.526042" stop-color="#FFC800"/>
<stop offset="1" stop-color="#FFCE00"/>
</linearGradient>
<linearGradient id="paint45_linear" x1="42.0302" y1="18.1318" x2="42.292" y2="25.8098" gradientUnits="userSpaceOnUse">
<stop stop-color="#FFBA42"/>
<stop offset="0.526042" stop-color="#FFC800"/>
<stop offset="1" stop-color="#FFCE00"/>
</linearGradient>
<linearGradient id="paint46_linear" x1="35.4348" y1="5.98173" x2="36.0567" y2="24.2222" gradientUnits="userSpaceOnUse">
<stop stop-color="#FFBA42"/>
<stop offset="0.526042" stop-color="#FFC800"/>
<stop offset="1" stop-color="#FFCE00"/>
</linearGradient>
<linearGradient id="paint47_linear" x1="142.248" y1="14.7148" x2="142.51" y2="22.3928" gradientUnits="userSpaceOnUse">
<stop stop-color="#FFBA42"/>
<stop offset="0.526042" stop-color="#FFC800"/>
<stop offset="1" stop-color="#FFCE00"/>
</linearGradient>
<linearGradient id="paint48_linear" x1="148.03" y1="2.14285" x2="148.651" y2="20.3833" gradientUnits="userSpaceOnUse">
<stop stop-color="#FFBA42"/>
<stop offset="0.526042" stop-color="#FFC800"/>
<stop offset="1" stop-color="#FFCE00"/>
</linearGradient>
</defs>
</svg>
