<svg width="189" height="167" viewBox="0 0 189 167" fill="none" xmlns="http://www.w3.org/2000/svg">
<path d="M83.3782 149.288C87.662 152.488 88.9576 158.006 88.9576 158.006C88.9576 158.006 83.3082 158.331 79.0244 155.13C74.7399 151.93 73.4436 146.416 73.4436 146.416C73.4436 146.416 79.0922 146.087 83.3782 149.288Z" fill="url(#paint0_linear)"/>
<path d="M78.6164 158.147C83.5963 156.195 88.9575 158.005 88.9575 158.005C88.9575 158.005 86.2434 162.979 81.2612 164.934C76.2813 166.886 70.9194 165.077 70.9194 165.077C70.9194 165.077 73.6342 160.101 78.6164 158.147Z" fill="url(#paint1_linear)"/>
<path d="M66.936 145.349C70.7402 149.11 71.2651 154.752 71.2651 154.752C71.2651 154.752 65.6247 154.297 61.822 150.536C58.0194 146.776 57.4929 141.132 57.4929 141.132C57.4929 141.132 63.1333 141.587 66.936 145.349Z" fill="url(#paint2_linear)"/>
<path d="M61.0032 153.468C66.2045 152.221 71.2649 154.752 71.2649 154.752C71.2649 154.752 67.8932 159.307 62.6912 160.554C57.49 161.803 52.4304 159.271 52.4304 159.271C52.4304 159.271 55.802 154.716 61.0032 153.468Z" fill="url(#paint3_linear)"/>
<path d="M53.901 139.329C57.0605 143.646 56.6862 149.302 56.6862 149.302C56.6862 149.302 51.1916 147.96 48.0313 143.642C44.8711 139.325 45.243 133.669 45.243 133.669C45.243 133.669 50.7407 135.011 53.901 139.329Z" fill="url(#paint4_linear)"/>
<path d="M46.7596 146.408C52.0918 146.001 56.6872 149.303 56.6872 149.303C56.6872 149.303 52.6385 153.266 47.3056 153.674C41.9734 154.082 37.378 150.78 37.378 150.78C37.378 150.78 41.4274 146.816 46.7596 146.408Z" fill="url(#paint5_linear)"/>
<path d="M41.5954 129.905C43.6134 134.861 41.8815 140.26 41.8815 140.26C41.8815 140.26 36.8761 137.62 34.8581 132.663C32.8385 127.705 34.5697 122.308 34.5697 122.308C34.5697 122.308 39.5758 124.947 41.5954 129.905Z" fill="url(#paint6_linear)"/>
<path d="M32.954 135.036C38.2244 135.937 41.882 140.259 41.882 140.259C41.882 140.259 36.9937 143.121 31.7234 142.221C26.4522 141.32 22.7969 136.998 22.7969 136.998C22.7969 136.998 27.6836 134.136 32.954 135.036Z" fill="url(#paint7_linear)"/>
<path d="M32.1629 118.82C32.9616 124.114 30.0102 128.954 30.0102 128.954C30.0102 128.954 25.7664 125.21 24.9692 119.915C24.1705 114.62 27.1211 109.781 27.1211 109.781C27.1211 109.781 31.3657 113.525 32.1629 118.82Z" fill="url(#paint8_linear)"/>
<path d="M22.5611 121.776C27.4714 123.893 30.0102 128.955 30.0102 128.955C30.0102 128.955 24.5895 130.587 19.6792 128.47C14.7705 126.355 12.2302 121.292 12.2302 121.292C12.2302 121.292 17.6523 119.66 22.5611 121.776Z" fill="url(#paint9_linear)"/>
<path d="M23.9618 104.742C23.6923 110.091 19.8404 114.248 19.8404 114.248C19.8404 114.248 16.4253 109.732 16.6949 104.383C16.9644 99.0334 20.8148 94.8769 20.8148 94.8769C20.8148 94.8769 24.2313 99.3921 23.9618 104.742Z" fill="url(#paint10_linear)"/>
<path d="M13.9667 105.727C18.3581 108.779 19.8402 114.248 19.8402 114.248C19.8402 114.248 14.2049 114.768 9.81347 111.716C5.42357 108.663 3.94074 103.195 3.94074 103.195C3.94074 103.195 9.57683 102.676 13.9667 105.727Z" fill="url(#paint11_linear)"/>
<path d="M19.5213 91.2032C18.4102 96.4432 13.9506 99.9386 13.9506 99.9386C13.9506 99.9386 11.2928 94.937 12.4039 89.6969C13.5166 84.4576 17.9739 80.9623 17.9739 80.9623C17.9739 80.9623 20.6324 85.9632 19.5213 91.2032Z" fill="url(#paint12_linear)"/>
<path d="M9.49825 90.5927C13.3509 94.3029 13.9504 99.9389 13.9504 99.9389C13.9504 99.9389 8.30474 99.5594 4.45212 95.8492C0.600266 92.1389 0 86.5029 0 86.5029C0 86.5029 5.6464 86.8824 9.49825 90.5927Z" fill="url(#paint13_linear)"/>
<path d="M18.5853 75.9794C16.239 80.7939 11.0657 83.1013 11.0657 83.1013C11.0657 83.1013 9.70139 77.6028 12.0469 72.7876C14.3947 67.973 19.5656 65.6648 19.5656 65.6648C19.5656 65.6648 20.9331 71.1648 18.5853 75.9794Z" fill="url(#paint14_linear)"/>
<path d="M9.01481 72.9496C11.8508 77.4862 11.0665 83.1004 11.0665 83.1004C11.0665 83.1004 5.68446 81.3591 2.84693 76.8226C0.00939854 72.2861 0.79366 66.6719 0.79366 66.6719C0.79366 66.6719 6.17728 68.4131 9.01481 72.9496Z" fill="url(#paint15_linear)"/>
<path d="M20.7488 60.5064C17.3384 64.6345 11.7707 65.6616 11.7707 65.6616C11.7707 65.6616 11.7345 59.9938 15.1463 55.8648C18.5567 51.7367 24.1237 50.7105 24.1237 50.7105C24.1237 50.7105 24.1615 56.3782 20.7488 60.5064Z" fill="url(#paint16_linear)"/>
<path d="M12.1577 55.3087C13.8505 60.3872 11.7715 65.6618 11.7715 65.6618C11.7715 65.6618 6.94825 62.7011 5.25618 57.6217C3.56416 52.544 5.64321 47.2702 5.64321 47.2702C5.64321 47.2702 10.4656 50.2302 12.1577 55.3087Z" fill="url(#paint17_linear)"/>
<path d="M25.8054 47.674C21.5448 50.9162 15.8935 50.6444 15.8935 50.6444C15.8935 50.6444 17.147 45.1163 21.4068 41.8741C25.6666 38.6319 31.3187 38.9037 31.3187 38.9037C31.3187 38.9037 30.0644 44.4326 25.8054 47.674Z" fill="url(#paint18_linear)"/>
<path d="M18.6243 40.6517C19.1158 45.9838 15.8926 50.6454 15.8926 50.6454C15.8926 50.6454 11.8707 46.6624 11.3798 41.3295C10.8883 35.9974 14.1122 31.335 14.1122 31.335C14.1122 31.335 18.1326 35.3188 18.6243 40.6517Z" fill="url(#paint19_linear)"/>
<path d="M32.269 36C27.5517 38.5273 22.0143 37.3634 22.0143 37.3634C22.0143 37.3634 24.1262 32.1026 28.8428 29.5761C33.5617 27.0487 39.0975 28.2119 39.0975 28.2119C39.0975 28.2119 36.9864 33.4734 32.269 36Z" fill="url(#paint20_linear)"/>
<path d="M26.2908 27.9257C25.934 33.2695 22.0144 37.3624 22.0144 37.3624C22.0144 37.3624 18.6746 32.7905 19.0314 27.4467C19.389 22.1021 23.3086 18.0092 23.3086 18.0092C23.3086 18.0092 26.6491 22.5811 26.2908 27.9257Z" fill="url(#paint21_linear)"/>
<path d="M112.342 147.58C108.277 151.066 107.347 156.657 107.347 156.657C107.347 156.657 113.006 156.598 117.069 153.114C121.135 149.629 122.064 144.037 122.064 144.037C122.064 144.037 116.406 144.095 112.342 147.58Z" fill="url(#paint22_linear)"/>
<path d="M117.676 156.096C112.578 154.487 107.347 156.657 107.347 156.657C107.347 156.657 110.383 161.437 115.481 163.047C120.579 164.656 125.809 162.486 125.809 162.486C125.809 162.486 122.774 157.705 117.676 156.096Z" fill="url(#paint23_linear)"/>
<path d="M126.448 143.32C122.9 147.332 122.746 152.998 122.746 152.998C122.746 152.998 128.345 152.16 131.891 148.148C135.438 144.137 135.591 138.47 135.591 138.47C135.591 138.47 129.995 139.308 126.448 143.32Z" fill="url(#paint24_linear)"/>
<path d="M132.901 151.017C127.63 150.127 122.747 152.997 122.747 152.997C122.747 152.997 126.412 157.311 131.683 158.202C136.956 159.094 141.838 156.223 141.838 156.223C141.838 156.223 138.174 151.907 132.901 151.017Z" fill="url(#paint25_linear)"/>
<path d="M139.02 135.885C136.152 140.407 136.896 146.026 136.896 146.026C136.896 146.026 142.29 144.31 145.16 139.787C148.029 135.266 147.286 129.648 147.286 129.648C147.286 129.648 141.889 131.362 139.02 135.885Z" fill="url(#paint26_linear)"/>
<path d="M146.611 142.461C141.263 142.418 136.895 146.026 136.895 146.026C136.895 146.026 141.196 149.705 146.544 149.748C151.891 149.792 156.259 146.183 156.259 146.183C156.259 146.183 151.958 142.505 146.611 142.461Z" fill="url(#paint27_linear)"/>
<path d="M150.276 125.914C148.587 130.998 150.671 136.266 150.671 136.266C150.671 136.266 155.491 133.291 157.18 128.208C158.868 123.123 156.784 117.856 156.784 117.856C156.784 117.856 151.964 120.831 150.276 125.914Z" fill="url(#paint28_linear)"/>
<path d="M159.235 130.447C154.036 131.705 150.672 136.266 150.672 136.266C150.672 136.266 155.735 138.789 160.936 137.531C166.135 136.274 169.5 131.713 169.5 131.713C169.5 131.713 164.435 129.19 159.235 130.447Z" fill="url(#paint29_linear)"/>
<path d="M159.428 113.435C158.981 118.773 162.243 123.402 162.243 123.402C162.243 123.402 166.231 119.376 166.68 114.039C167.127 108.701 163.866 104.072 163.866 104.072C163.866 104.072 159.878 108.099 159.428 113.435Z" fill="url(#paint30_linear)"/>
<path d="M169.203 115.731C164.444 118.177 162.243 123.402 162.243 123.402C162.243 123.402 167.76 124.66 172.519 122.214C177.28 119.768 179.479 114.545 179.479 114.545C179.479 114.545 173.962 113.286 169.203 115.731Z" fill="url(#paint31_linear)"/>
<path d="M165.836 99.6389C166.456 104.958 170.573 108.844 170.573 108.844C170.573 108.844 173.683 104.104 173.063 98.7867C172.442 93.4668 168.326 89.5812 168.326 89.5812C168.326 89.5812 165.216 94.3197 165.836 99.6389Z" fill="url(#paint32_linear)"/>
<path d="M175.872 99.9416C171.692 103.286 170.572 108.843 170.572 108.843C170.572 108.843 176.229 108.977 180.41 105.632C184.589 102.289 185.709 96.7313 185.709 96.7313C185.709 96.7313 180.052 96.597 175.872 99.9416Z" fill="url(#paint33_linear)"/>
<path d="M169.375 85.8041C170.828 90.9567 175.507 94.1405 175.507 94.1405C175.507 94.1405 177.831 88.969 176.377 83.8164C174.923 78.6638 170.245 75.48 170.245 75.48C170.245 75.48 167.922 80.6507 169.375 85.8041Z" fill="url(#paint34_linear)"/>
<path d="M179.335 84.5119C175.735 88.4762 175.506 94.1397 175.506 94.1397C175.506 94.1397 181.115 93.3756 184.715 89.4113C188.314 85.447 188.543 79.7836 188.543 79.7836C188.543 79.7836 182.934 80.5476 179.335 84.5119Z" fill="url(#paint35_linear)"/>
<path d="M169.252 71.0595C171.91 75.7033 177.222 77.6533 177.222 77.6533C177.222 77.6533 178.224 72.0741 175.565 67.4295C172.906 62.7849 167.594 60.8357 167.594 60.8357C167.594 60.8357 166.593 66.4156 169.252 71.0595Z" fill="url(#paint36_linear)"/>
<path d="M178.603 67.3857C176.071 72.1053 177.222 77.6535 177.222 77.6535C177.222 77.6535 182.479 75.5496 185.011 70.8299C187.544 66.1103 186.393 60.5621 186.393 60.5621C186.393 60.5621 181.136 62.6661 178.603 67.3857Z" fill="url(#paint37_linear)"/>
<path d="M165.948 55.7641C169.623 59.6507 175.244 60.2962 175.244 60.2962C175.244 60.2962 174.909 54.6379 171.234 50.7513C167.56 46.8648 161.938 46.2192 161.938 46.2192C161.938 46.2192 162.273 51.8776 165.948 55.7641Z" fill="url(#paint38_linear)"/>
<path d="M174.178 49.9926C172.823 55.175 175.244 60.2962 175.244 60.2962C175.244 60.2962 179.862 57.0128 181.216 51.8304C182.569 46.6488 180.149 41.5284 180.149 41.5284C180.149 41.5284 175.532 44.8094 174.178 49.9926Z" fill="url(#paint39_linear)"/>
<path d="M160.223 43.5146C164.686 46.4602 170.307 45.804 170.307 45.804C170.307 45.804 168.694 40.3736 164.23 37.4281C159.767 34.4833 154.146 35.1395 154.146 35.1395C154.146 35.1395 155.759 40.5706 160.223 43.5146Z" fill="url(#paint40_linear)"/>
<path d="M166.925 36.0178C166.785 41.3715 170.307 45.8038 170.307 45.8038C170.307 45.8038 174.058 41.555 174.198 36.2006C174.338 30.8462 170.815 26.4146 170.815 26.4146C170.815 26.4146 167.064 30.6642 166.925 36.0178Z" fill="url(#paint41_linear)"/>
<path d="M152.609 32.4054C157.482 34.6057 162.93 33.0672 162.93 33.0672C162.93 33.0672 160.477 27.962 155.605 25.7617C150.731 23.5622 145.284 25.1006 145.284 25.1006C145.284 25.1006 147.736 30.2058 152.609 32.4054Z" fill="url(#paint42_linear)"/>
<path d="M158.043 23.9429C158.751 29.2504 162.931 33.0672 162.931 33.0672C162.931 33.0672 165.963 28.2779 165.254 22.9705C164.547 17.6622 160.367 13.8462 160.367 13.8462C160.367 13.8462 157.335 18.6347 158.043 23.9429Z" fill="url(#paint43_linear)"/>
<path d="M148.215 16.2065C148.005 16.4427 147.766 16.6784 147.485 16.9124C147.404 16.9803 147.321 17.0271 147.236 17.0865C164.475 31.0388 175.718 51.6986 176.487 75.0452C177.926 118.769 142.087 155.602 96.597 157.153C51.1057 158.704 12.9266 124.395 11.4874 80.6711C10.753 58.3599 19.729 37.8455 34.7371 22.8949C34.2923 22.779 33.843 22.6186 33.3889 22.4081C18.376 37.5644 9.42007 58.2421 10.1598 80.7163C11.6221 125.143 50.4161 160.005 96.639 158.429C142.861 156.853 179.276 119.426 177.814 74.9999C177.035 51.3336 165.661 30.3832 148.215 16.2065Z" fill="url(#paint44_linear)"/>
<path d="M43.0402 25.5048C37.8517 26.8092 32.7639 24.3345 32.7639 24.3345C32.7639 24.3345 36.0857 19.7426 41.2727 18.4374C46.4612 17.1322 51.5491 19.6076 51.5491 19.6076C51.5491 19.6076 48.2272 24.1996 43.0402 25.5048Z" fill="url(#paint45_linear)"/>
<path d="M39.1969 16.2169C37.5561 21.3157 32.764 24.3344 32.764 24.3344C32.764 24.3344 30.6316 19.0865 32.2723 13.9869C33.9138 8.88809 38.7068 5.87016 38.7068 5.87016C38.7068 5.87016 40.8384 11.1173 39.1969 16.2169Z" fill="url(#paint46_linear)"/>
<path d="M141.726 22.14C146.988 23.0881 151.902 20.2724 151.902 20.2724C151.902 20.2724 148.284 15.9171 143.023 14.9682C137.762 14.0192 132.847 16.8357 132.847 16.8357C132.847 16.8357 136.465 21.1911 141.726 22.14Z" fill="url(#paint47_linear)"/>
<path d="M144.949 12.6114C146.923 17.5869 151.902 20.2724 151.902 20.2724C151.902 20.2724 153.683 14.8911 151.712 9.91468C149.738 4.93912 144.757 2.25443 144.757 2.25443C144.757 2.25443 142.975 7.63502 144.949 12.6114Z" fill="url(#paint48_linear)"/>
<path d="M65.642 45.388C64.718 48.622 63.134 51.812 61.418 53.88C61.814 54.584 62.474 56.08 62.672 56.696C63.134 56.146 63.596 55.508 64.058 54.826V65.892H66.544V50.118C67.138 48.798 67.622 47.434 68.04 46.114L65.642 45.388ZM77.566 56.916C77.72 57.07 77.896 57.224 78.05 57.4C77.654 57.29 77.258 57.158 77.016 57.026C76.95 57.664 76.84 57.774 76.4 57.774H74.464C73.87 57.774 73.738 57.708 73.738 57.268V56.278H71.692V56.718L70.658 56.19C70.416 56.564 70.108 56.938 69.756 57.312V55.816H74.42L73.76 56.168C74.354 56.608 75.058 57.312 75.432 57.752L76.884 56.894C76.62 56.586 76.158 56.19 75.696 55.816H79.92V57.114C79.59 56.74 79.238 56.432 78.908 56.124L77.566 56.916ZM72.418 61.404L76.95 61.382C76.356 61.8 75.608 62.196 74.728 62.504C73.87 62.218 73.078 61.844 72.418 61.404ZM71.868 53.638H77.962V54.342H71.868V53.638ZM77.962 50.162V50.822H71.868V50.162H77.962ZM77.962 52.582H71.868V51.878H77.962V52.582ZM82.252 54.342H80.404V48.886H75.696L76.026 48.116H81.812V46.246H68.194V48.116H73.32C73.276 48.38 73.232 48.644 73.166 48.886H69.536V54.342H67.534V57.466H69.602C69.272 57.796 68.92 58.104 68.568 58.324L69.998 59.446C70.658 58.984 71.23 58.346 71.714 57.686C71.758 58.302 71.956 58.676 72.374 58.896C71.978 59.336 71.472 59.776 70.878 60.216C70.702 60.018 70.526 59.82 70.372 59.622L68.48 60.282C68.7 60.612 68.964 60.898 69.25 61.206C68.678 61.492 68.106 61.778 67.446 62.02C67.908 62.328 68.568 63.01 68.854 63.494C69.536 63.186 70.152 62.856 70.724 62.526C71.12 62.812 71.538 63.076 71.978 63.34C70.548 63.67 68.876 63.934 67.072 64.11C67.534 64.638 68.084 65.43 68.326 66.002C70.746 65.672 72.88 65.21 74.728 64.594C76.576 65.232 78.666 65.65 80.976 65.892C81.262 65.32 81.768 64.462 82.23 63.978C80.558 63.846 78.996 63.648 77.544 63.34C78.908 62.592 79.942 61.668 80.646 60.612L79.084 59.732L78.644 59.82H74.178C74.376 59.6 74.552 59.38 74.75 59.16H76.664C77.83 59.16 78.358 58.874 78.578 57.95C79.062 58.478 79.524 59.072 79.788 59.49L81.196 58.61C80.976 58.302 80.646 57.884 80.25 57.466H82.252V54.342ZM99.654 57.62H96.948V58.698H84.21V60.832H89.006L87.73 61.734C88.874 62.746 90.37 64.154 91.074 65.012L93.01 63.494C92.35 62.768 91.14 61.69 90.106 60.832H96.948V63.428C96.948 63.736 96.816 63.824 96.486 63.824C96.156 63.846 94.77 63.846 93.692 63.78C93.978 64.418 94.242 65.232 94.33 65.892C96.156 65.892 97.498 65.892 98.422 65.606C99.368 65.32 99.654 64.792 99.654 63.538V60.832H103.812V58.698H99.654V57.62ZM95.342 51.724V51.504C95.958 50.822 96.552 49.964 97.08 48.974H98.752L97.85 49.722C98.422 50.316 99.17 51.108 99.632 51.724H95.342ZM98.136 46.752C98.268 46.422 98.356 46.07 98.466 45.74L96.09 45.168C95.54 47.016 94.528 48.864 93.34 50.03C93.582 50.184 93.912 50.404 94.22 50.646H92.614V51.724H90.546L92.064 50.338C91.756 49.942 91.228 49.436 90.678 48.974H93.758V46.752H88.874C89.006 46.444 89.16 46.158 89.292 45.85L86.982 45.168C86.278 46.818 85.002 48.49 83.682 49.568C84.188 49.986 85.046 50.888 85.42 51.35C86.124 50.712 86.828 49.898 87.488 48.974H89.05L88.28 49.656C89.006 50.272 89.864 51.13 90.348 51.724H84.892V53.946H92.614V55.222H86.102V57.202H101.788V55.222H95.342V53.946H103.13V51.724H100.226L101.612 50.514C101.304 50.096 100.754 49.502 100.182 48.974H104.164V46.752H98.136ZM110.61 53.902V57.95H112.986V45.41H110.61V48.688H108.96V45.916H106.782V50.668H110.61V51.878H105.924V53.902H107.156C107.134 54.716 106.892 56.256 105.704 57.18C106.298 57.422 107.244 57.95 107.684 58.302C109.136 57.092 109.444 54.936 109.444 53.902H110.61ZM116.418 52.318C118.068 52.01 119.608 51.57 120.994 50.954V52.318H116.418ZM122.38 47.874C121.918 48.358 121.346 48.776 120.708 49.15C120.29 48.732 119.806 48.27 119.322 47.874H122.38ZM126.252 61.448V59.292H122.6L123.106 58.786C122.71 58.368 122.05 57.862 121.39 57.422C121.852 57.378 122.248 57.312 122.556 57.18C123.282 56.872 123.48 56.41 123.48 55.376V54.012H125.966V52.318H123.48V50.91H121.082C122.952 50.052 124.492 48.842 125.46 47.082L124.118 46.4L123.7 46.466H120.642C120.972 46.224 121.28 45.982 121.588 45.718L119.432 45.278C118.288 46.136 116.308 46.906 113.668 47.434C114.086 47.742 114.68 48.446 114.944 48.908C115.802 48.666 116.616 48.402 117.32 48.138C117.98 48.666 118.662 49.304 119.146 49.854C117.518 50.492 115.626 50.888 113.646 51.086C113.932 51.394 114.284 51.878 114.504 52.318H113.646V54.012H115.824L114.922 54.694C115.736 55.222 116.66 56.058 117.078 56.63L118.794 55.332C118.486 54.914 117.914 54.452 117.342 54.012H120.994V55.288C120.994 55.508 120.928 55.574 120.686 55.596C120.444 55.596 119.63 55.596 118.926 55.552C119.19 56.124 119.476 56.85 119.564 57.444H120.4L119.608 58.192C120.07 58.5 120.598 58.896 121.06 59.292H117.232C117.254 59.116 117.254 58.962 117.254 58.786V57.246H114.658V58.698C114.658 58.896 114.636 59.094 114.614 59.292H105.792V61.448H113.14C111.886 62.438 109.642 63.34 105.682 63.934C106.166 64.506 106.826 65.43 107.134 66.046C112.986 65.1 115.56 63.296 116.594 61.448H117.254L116.572 62.548C119.322 63.494 123.238 64.99 125.152 65.936L126.34 63.89C124.778 63.208 122.116 62.24 119.762 61.448H126.252ZM117.628 48.886C116.352 48.974 115.274 49.062 114.35 49.128L114.57 50.448C115.56 50.338 116.572 50.228 117.65 50.118L117.628 48.886Z" fill="#5B5555"/>
<path d="M81.1856 8.78C81.1856 9.28667 81.0856 9.77333 80.8856 10.24C80.6856 10.7067 80.4256 11.16 80.1056 11.6C79.7856 12.0267 79.4256 12.44 79.0256 12.84C78.6256 13.24 78.2323 13.62 77.8456 13.98C77.6456 14.1667 77.4256 14.38 77.1856 14.62C76.959 14.8467 76.739 15.08 76.5256 15.32C76.3123 15.56 76.119 15.7867 75.9456 16C75.7856 16.2 75.6856 16.3667 75.6456 16.5H81.6056V19H72.3656C72.339 18.8533 72.3256 18.6667 72.3256 18.44C72.3256 18.2133 72.3256 18.0533 72.3256 17.96C72.3256 17.32 72.4256 16.7333 72.6256 16.2C72.839 15.6667 73.1123 15.1733 73.4456 14.72C73.779 14.2533 74.1523 13.82 74.5656 13.42C74.9923 13.02 75.4123 12.62 75.8256 12.22C76.1456 11.9133 76.4456 11.6267 76.7256 11.36C77.0056 11.08 77.2523 10.8133 77.4656 10.56C77.679 10.2933 77.8456 10.0333 77.9656 9.78C78.0856 9.51333 78.1456 9.24667 78.1456 8.98C78.1456 8.39333 77.979 7.98 77.6456 7.74C77.3123 7.5 76.899 7.38 76.4056 7.38C76.0456 7.38 75.7056 7.44 75.3856 7.56C75.079 7.66667 74.7923 7.8 74.5256 7.96C74.2723 8.10667 74.0523 8.26 73.8656 8.42C73.679 8.56667 73.539 8.68667 73.4456 8.78L71.9656 6.7C72.5523 6.15333 73.2323 5.70667 74.0056 5.36C74.7923 5 75.6323 4.82 76.5256 4.82C77.339 4.82 78.039 4.91333 78.6256 5.1C79.2123 5.28667 79.6923 5.55333 80.0656 5.9C80.4523 6.23333 80.7323 6.64667 80.9056 7.14C81.0923 7.62 81.1856 8.16667 81.1856 8.78ZM93.3128 12.04C93.3128 14.3733 92.8661 16.1667 91.9728 17.42C91.0928 18.66 89.8728 19.28 88.3128 19.28C86.7528 19.28 85.5261 18.66 84.6328 17.42C83.7528 16.1667 83.3128 14.3733 83.3128 12.04C83.3128 10.88 83.4261 9.85333 83.6528 8.96C83.8928 8.06667 84.2328 7.31333 84.6728 6.7C85.1128 6.08667 85.6395 5.62 86.2528 5.3C86.8661 4.98 87.5528 4.82 88.3128 4.82C89.8728 4.82 91.0928 5.44667 91.9728 6.7C92.8661 7.94 93.3128 9.72 93.3128 12.04ZM90.2728 12.04C90.2728 11.3467 90.2395 10.72 90.1728 10.16C90.1061 9.58667 89.9995 9.09333 89.8528 8.68C89.7061 8.26667 89.5061 7.94667 89.2528 7.72C88.9995 7.49333 88.6861 7.38 88.3128 7.38C87.9395 7.38 87.6261 7.49333 87.3728 7.72C87.1328 7.94667 86.9328 8.26667 86.7728 8.68C86.6261 9.09333 86.5195 9.58667 86.4528 10.16C86.3861 10.72 86.3528 11.3467 86.3528 12.04C86.3528 12.7333 86.3861 13.3667 86.4528 13.94C86.5195 14.5133 86.6261 15.0067 86.7728 15.42C86.9328 15.8333 87.1328 16.1533 87.3728 16.38C87.6261 16.6067 87.9395 16.72 88.3128 16.72C88.6861 16.72 88.9995 16.6067 89.2528 16.38C89.5061 16.1533 89.7061 15.8333 89.8528 15.42C89.9995 15.0067 90.1061 14.5133 90.1728 13.94C90.2395 13.3667 90.2728 12.7333 90.2728 12.04ZM103.92 8.78C103.92 9.28667 103.82 9.77333 103.62 10.24C103.42 10.7067 103.16 11.16 102.84 11.6C102.52 12.0267 102.16 12.44 101.76 12.84C101.36 13.24 100.967 13.62 100.58 13.98C100.38 14.1667 100.16 14.38 99.92 14.62C99.6933 14.8467 99.4733 15.08 99.26 15.32C99.0467 15.56 98.8533 15.7867 98.68 16C98.52 16.2 98.42 16.3667 98.38 16.5H104.34V19H95.1C95.0733 18.8533 95.06 18.6667 95.06 18.44C95.06 18.2133 95.06 18.0533 95.06 17.96C95.06 17.32 95.16 16.7333 95.36 16.2C95.5733 15.6667 95.8467 15.1733 96.18 14.72C96.5133 14.2533 96.8867 13.82 97.3 13.42C97.7267 13.02 98.1467 12.62 98.56 12.22C98.88 11.9133 99.18 11.6267 99.46 11.36C99.74 11.08 99.9867 10.8133 100.2 10.56C100.413 10.2933 100.58 10.0333 100.7 9.78C100.82 9.51333 100.88 9.24667 100.88 8.98C100.88 8.39333 100.713 7.98 100.38 7.74C100.047 7.5 99.6333 7.38 99.14 7.38C98.78 7.38 98.44 7.44 98.12 7.56C97.8133 7.66667 97.5267 7.8 97.26 7.96C97.0067 8.10667 96.7867 8.26 96.6 8.42C96.4133 8.56667 96.2733 8.68667 96.18 8.78L94.7 6.7C95.2867 6.15333 95.9667 5.70667 96.74 5.36C97.5267 5 98.3667 4.82 99.26 4.82C100.073 4.82 100.773 4.91333 101.36 5.1C101.947 5.28667 102.427 5.55333 102.8 5.9C103.187 6.23333 103.467 6.64667 103.64 7.14C103.827 7.62 103.92 8.16667 103.92 8.78ZM116.047 12.04C116.047 14.3733 115.601 16.1667 114.707 17.42C113.827 18.66 112.607 19.28 111.047 19.28C109.487 19.28 108.261 18.66 107.367 17.42C106.487 16.1667 106.047 14.3733 106.047 12.04C106.047 10.88 106.161 9.85333 106.387 8.96C106.627 8.06667 106.967 7.31333 107.407 6.7C107.847 6.08667 108.374 5.62 108.987 5.3C109.601 4.98 110.287 4.82 111.047 4.82C112.607 4.82 113.827 5.44667 114.707 6.7C115.601 7.94 116.047 9.72 116.047 12.04ZM113.007 12.04C113.007 11.3467 112.974 10.72 112.907 10.16C112.841 9.58667 112.734 9.09333 112.587 8.68C112.441 8.26667 112.241 7.94667 111.987 7.72C111.734 7.49333 111.421 7.38 111.047 7.38C110.674 7.38 110.361 7.49333 110.107 7.72C109.867 7.94667 109.667 8.26667 109.507 8.68C109.361 9.09333 109.254 9.58667 109.187 10.16C109.121 10.72 109.087 11.3467 109.087 12.04C109.087 12.7333 109.121 13.3667 109.187 13.94C109.254 14.5133 109.361 15.0067 109.507 15.42C109.667 15.8333 109.867 16.1533 110.107 16.38C110.361 16.6067 110.674 16.72 111.047 16.72C111.421 16.72 111.734 16.6067 111.987 16.38C112.241 16.1533 112.441 15.8333 112.587 15.42C112.734 15.0067 112.841 14.5133 112.907 13.94C112.974 13.3667 113.007 12.7333 113.007 12.04Z" fill="#5B5555"/>
<path d="M35.8313 81.264C37.0313 80.544 38.1193 79.68 39.0473 78.672C40.0073 79.632 41.1913 80.512 42.4393 81.264H35.8313ZM43.1593 82.64V81.664C43.9593 82.112 44.7593 82.48 45.5433 82.768C45.7673 82.368 46.2313 81.776 46.5673 81.472C44.1673 80.752 41.4793 79.232 39.9113 77.664C40.0553 77.472 40.1833 77.264 40.3273 77.056L38.9353 76.432C37.4153 78.784 34.5193 80.544 31.5433 81.456C31.9113 81.824 32.3273 82.4 32.5353 82.832C33.3353 82.544 34.1033 82.208 34.8553 81.808V82.64H38.1993V84.576H32.9193V85.92H38.1993V89.488H32.1833V90.848H45.9113V89.488H39.7833V85.92H45.1433V84.576H39.7833V82.64H43.1593ZM42.1353 89.424C42.6793 88.704 43.3833 87.616 43.9913 86.608L42.5513 86.08C42.2153 86.96 41.5433 88.176 40.9993 88.944L42.1353 89.424ZM34.1353 86.56C34.7113 87.456 35.3353 88.656 35.5593 89.408L36.8553 88.848C36.5993 88.096 35.9593 86.928 35.3513 86.08L34.1353 86.56ZM51.5753 78.816L50.9833 79.312C51.4953 79.76 52.1513 80.416 52.4393 80.832L53.3993 80C53.1273 79.664 52.6633 79.2 52.1993 78.816H54.8873V77.648H51.0633C51.2073 77.376 51.3353 77.104 51.4473 76.832L50.1033 76.448C49.5913 77.744 48.6953 79.04 47.7353 79.872C48.0233 80.112 48.5353 80.608 48.7433 80.848C49.3033 80.304 49.8953 79.616 50.3913 78.816H51.5753ZM59.1273 88.4V89.648H51.8473V88.4H59.1273ZM58.3113 84.112V85.232H51.8473V84.112H58.3113ZM51.8473 86.336H59.7513V82.992H50.3433V91.28H51.8473V90.784H59.1273V91.248H60.5993V87.28H51.8473V86.336ZM53.9593 80.048C54.1193 80.336 54.2793 80.672 54.4233 80.992H48.5353V83.696H49.9593V82.16H60.1993V83.696H61.7033V80.992H55.9273C55.7673 80.608 55.5273 80.144 55.2713 79.776L53.9593 80.048ZM57.6233 77.648C57.7673 77.36 57.8953 77.088 58.0073 76.8L56.6473 76.464C56.2473 77.52 55.5113 78.528 54.6633 79.2C54.9993 79.408 55.5433 79.856 55.7833 80.096C56.1673 79.744 56.5673 79.312 56.9193 78.816H58.5673L57.8793 79.376C58.4713 79.856 59.2393 80.544 59.5913 80.976L60.5833 80.128C60.2793 79.744 59.6713 79.232 59.1273 78.816H62.2633V77.648H57.6233ZM74.1353 86.944V87.824H68.0073V86.944H74.1353ZM68.0073 89.744V88.848H74.1353V89.744H68.0073ZM66.5353 91.248H68.0073V90.752H74.1353V91.184H75.6553V85.92H66.5353V91.248ZM65.9593 81.12C66.7593 80.816 67.5433 80.48 68.2793 80.064V80.448H73.8153V79.984C74.6313 80.448 75.5113 80.816 76.3753 81.12H65.9593ZM75.1273 84.304H73.4313C73.7193 83.84 74.0713 83.168 74.4233 82.48L73.1753 82.128C72.9993 82.672 72.6633 83.488 72.3753 84L73.3673 84.304H71.5753V82.096H75.1273V84.304ZM67.6713 82.512C68.0073 83.072 68.3113 83.808 68.4233 84.304H66.8873V82.096H70.3593V84.304H68.4713L69.5273 83.952C69.4153 83.472 69.0633 82.736 68.7113 82.192L67.6713 82.512ZM69.3673 79.424C69.9913 79.024 70.5993 78.56 71.1112 78.08C71.6233 78.56 72.2153 79.024 72.8713 79.424H69.3673ZM70.8233 76.496C69.3673 78.368 66.5353 79.76 63.6393 80.496C63.8953 80.752 64.3113 81.36 64.4393 81.632C64.8393 81.52 65.2233 81.392 65.6233 81.248V85.28H76.4393V81.136C76.8393 81.28 77.2553 81.408 77.6393 81.52C77.8633 81.168 78.2793 80.64 78.5833 80.384C76.0873 79.856 73.3833 78.64 71.8953 77.264C71.9913 77.168 72.0553 77.056 72.1353 76.96L70.8233 76.496ZM94.1833 78.608H92.6633C92.4393 78.016 92.0873 77.248 91.7673 76.64L90.5353 77.008C90.7913 77.488 91.0473 78.08 91.2233 78.608H89.4953V79.824H94.1833V78.608ZM91.4153 82.576C91.3993 81.872 91.1753 80.816 90.8873 80L89.8953 80.256C90.1673 81.088 90.3593 82.176 90.3753 82.864L91.4153 82.576ZM84.4233 78.64H82.9673C82.7753 78.08 82.4553 77.328 82.1193 76.752L80.8873 77.12C81.1273 77.568 81.3673 78.144 81.5433 78.64H79.8473V79.856H84.4233V78.64ZM81.6873 82.56C81.6553 81.888 81.4633 80.848 81.1913 80.064L80.1993 80.304C80.4553 81.12 80.6313 82.176 80.6313 82.848L81.6873 82.56ZM84.2153 87.008V85.792H82.7433V84.128H84.4873V82.912H83.2713C83.5113 82.128 83.7833 81.12 84.0393 80.224L82.8873 79.984C82.7753 80.848 82.4873 82.08 82.2473 82.912H79.7353V84.128H81.4313V85.792H79.9273V87.008H81.3993C81.3193 88.192 80.9993 89.52 79.8473 90.352C80.1353 90.576 80.5353 91.024 80.7273 91.312C82.1353 90.176 82.5993 88.512 82.7113 87.008H84.2153ZM88.8713 80.128H86.7753C86.8073 78.992 86.8233 77.824 86.8233 76.592H85.6553C85.6553 77.808 85.6553 78.992 85.6393 80.128H84.7433V81.408H85.6073C85.4633 85.2 84.9833 88.32 83.5113 90.416C83.7673 90.624 84.3113 91.072 84.4713 91.296C86.0713 88.832 86.5673 85.52 86.7433 81.408H87.6553C87.5753 87.184 87.4953 89.152 87.2552 89.568C87.1433 89.776 87.0312 89.824 86.8553 89.824C86.6473 89.824 86.2633 89.824 85.8313 89.792C86.0073 90.128 86.1353 90.656 86.1513 91.008C86.6473 91.024 87.1112 91.04 87.4313 90.976C87.8313 90.912 88.0873 90.768 88.3273 90.368C88.6953 89.76 88.7753 87.552 88.8713 80.752V80.128ZM94.3753 84.144V82.928H93.1593C93.3993 82.128 93.6713 81.088 93.8793 80.192L92.7433 79.936C92.6313 80.8 92.3433 82.08 92.0873 82.928H89.4313V84.144H91.2553V86.032H89.7193V87.248H91.2553V91.232H92.5993V87.248H94.1833V86.032H92.5993V84.144H94.3753ZM100.743 86.592C100.199 86.784 99.6233 86.96 99.0793 87.136V83.52H100.599V82.144H99.0793V78.96H100.855V77.584H95.7673V78.96H97.6553V82.144H95.9273V83.52H97.6553V87.584C96.8873 87.824 96.1833 88.016 95.6073 88.176L95.9593 89.696C97.3993 89.232 99.2552 88.608 100.999 88L100.743 86.592ZM102.903 81.472H104.999V83.232H102.903V81.472ZM102.903 78.56H104.999V80.288H102.903V78.56ZM108.311 80.288H106.263V78.56H108.311V80.288ZM108.311 83.232H106.263V81.472H108.311V83.232ZM106.391 89.392V87.488H109.943V86.144H106.391V84.496H109.735V77.296H101.543V84.496H104.871V86.144H101.399V87.488H104.871V89.392H100.231V90.752H110.455V89.392H106.391ZM118.417 93.184L119.569 92.672C118.193 90.384 117.553 87.68 117.553 84.992C117.553 82.32 118.193 79.616 119.569 77.312L118.417 76.816C116.929 79.232 116.049 81.84 116.049 84.992C116.049 88.176 116.929 90.752 118.417 93.184ZM124.601 90.208C126.665 90.208 128.569 88.736 128.569 86.128C128.569 83.552 126.953 82.384 124.985 82.384C124.345 82.384 123.865 82.544 123.369 82.8L123.641 79.776H128.009V78.224H122.041L121.689 83.808L122.585 84.4C123.273 83.952 123.721 83.728 124.473 83.728C125.817 83.728 126.713 84.624 126.713 86.192C126.713 87.76 125.705 88.704 124.377 88.704C123.145 88.704 122.297 88.112 121.625 87.44L120.745 88.64C121.577 89.456 122.745 90.208 124.601 90.208ZM133.294 88.192H134.702V84.736H137.95V83.392H134.702V79.936H133.294V83.392H130.046V84.736H133.294V88.192ZM139.267 90H146.867V88.432H143.923C143.347 88.432 142.611 88.48 142.003 88.544C144.499 86.16 146.307 83.808 146.307 81.536C146.307 79.408 144.915 78 142.755 78C141.219 78 140.179 78.672 139.171 79.76L140.211 80.784C140.835 80.064 141.603 79.472 142.531 79.472C143.843 79.472 144.531 80.352 144.531 81.632C144.531 83.568 142.739 85.856 139.267 88.928V90ZM149.576 93.184C151.08 90.752 151.96 88.176 151.96 84.992C151.96 81.84 151.08 79.232 149.576 76.816L148.424 77.312C149.799 79.616 150.44 82.32 150.44 84.992C150.44 87.68 149.799 90.384 148.424 92.672L149.576 93.184ZM38.048 99.208H35.632C35.424 98.68 35.104 98.008 34.832 97.464L33.36 97.848C33.552 98.248 33.76 98.76 33.936 99.208H31.008V100.44H38.048V99.208ZM32.128 107.432C31.792 108.456 31.248 109.544 30.656 110.296C30.96 110.456 31.44 110.808 31.68 111C32.256 110.184 32.896 108.904 33.296 107.784L32.128 107.432ZM38.08 106.744V105.48H35.36V104.024H38.304V102.776H36.432C36.704 102.184 36.976 101.448 37.248 100.744L35.872 100.456C35.712 101.128 35.376 102.104 35.088 102.776H32.56L33.744 102.44C33.664 101.912 33.408 101.096 33.152 100.472L31.936 100.776C32.208 101.4 32.432 102.232 32.496 102.776H30.752V104.024H33.92V105.48H30.848V106.744H33.92V112.168H35.36V106.744H38.08ZM35.92 107.848C36.4 108.616 36.944 109.656 37.2 110.328L38.24 109.704C37.984 109.064 37.44 108.056 36.912 107.304L35.92 107.848ZM45.328 102.888H40.368V100.088C42 99.8 43.728 99.416 45.04 98.904L43.872 97.816C42.72 98.312 40.752 98.808 38.976 99.112V104.648C38.976 106.744 38.864 109.448 37.6 111.304C37.904 111.464 38.512 111.912 38.736 112.184C40.16 110.152 40.368 106.952 40.368 104.648V104.264H42.24V112.184H43.696V104.264H45.328V102.888ZM53.344 103.592V104.44H49.344V103.592H53.344ZM49.28 106.264C49.296 105.96 49.312 105.656 49.328 105.368H53.344V106.264H49.28ZM53.76 109.016V110.456H50.32V109.016H53.76ZM54.688 107.336V102.52H47.952V104.536C47.952 106.344 47.808 109.064 46.56 111.032C46.928 111.16 47.568 111.448 47.84 111.656C48.464 110.632 48.832 109.384 49.056 108.152V112.168H50.32V111.592H53.76V112.136H55.072V107.96H49.072C49.104 107.752 49.136 107.544 49.168 107.336H54.688ZM51.168 97.64C50.176 99.192 48.368 100.52 46.576 101.352C46.832 101.672 47.232 102.408 47.376 102.744C48.208 102.296 49.04 101.752 49.824 101.128V101.832H53.136V100.904H50.08C50.56 100.504 51.008 100.072 51.424 99.624C52.656 100.408 54.096 101.352 54.864 101.976L55.632 100.728C54.88 100.152 53.472 99.288 52.256 98.568C52.352 98.424 52.448 98.296 52.528 98.152L51.168 97.64ZM57.664 99.288H56.272V108.088H57.664V99.288ZM59.2 97.64V110.376C59.2 110.664 59.104 110.744 58.832 110.744C58.576 110.76 57.744 110.76 56.832 110.728C57.04 111.144 57.248 111.816 57.312 112.216C58.608 112.216 59.44 112.168 59.936 111.912C60.448 111.688 60.64 111.256 60.64 110.392V97.64H59.2ZM66.016 106.328V105.352H69.184V106.328H66.016ZM66.016 103.416H69.184V104.408H66.016V103.416ZM74.032 103.416V104.408H70.672V103.416H74.032ZM74.032 106.328H70.672V105.352H74.032V106.328ZM70.672 110.584V109.448H76.144V108.28H70.672V107.368H75.552V102.392H70.672V101.576H77.056V100.392H70.672V99.336C72.48 99.208 74.192 99.032 75.568 98.792L74.816 97.624C72.24 98.072 67.84 98.36 64.16 98.456C64.272 98.76 64.448 99.272 64.464 99.624C65.952 99.592 67.584 99.544 69.184 99.448V100.392H62.96V101.576H69.184V102.392H64.56V107.368H69.184V108.28H64.064V109.448H69.184V110.584H62.88V111.784H77.168V110.584H70.672ZM83.6 102.328C83.872 101.736 84.176 100.76 84.48 99.96L83.664 99.656C83.536 100.36 83.248 101.448 83.008 102.104L83.6 102.328ZM80.496 99.88C80.752 100.632 80.928 101.624 80.96 102.264L81.68 102.04C81.648 101.432 81.424 100.44 81.168 99.704L80.496 99.88ZM80.368 99.144H81.92V102.824H80.368V99.144ZM84.512 102.824H82.88V99.144H84.512V102.824ZM78.88 108.36C80.752 108.248 83.408 108.12 85.952 107.944L86 106.76C85.024 106.808 84.032 106.856 83.072 106.904V105.928H85.728V104.776H83.072V103.864H85.68V98.104H79.248V103.864H81.744V104.776H79.184V105.928H81.744V106.968C80.64 107.016 79.632 107.048 78.816 107.08L78.88 108.36ZM79.504 112.264C80.176 111.544 80.448 110.328 80.624 109.16L79.6 108.888C79.456 109.944 79.136 111.08 78.528 111.736L79.504 112.264ZM80.96 108.936C81.152 109.832 81.296 110.968 81.296 111.72L82.288 111.592C82.288 110.84 82.128 109.704 81.888 108.84L80.96 108.936ZM82.496 108.872C82.832 109.704 83.152 110.776 83.232 111.48L84.192 111.256C84.08 110.552 83.76 109.496 83.408 108.696L82.496 108.872ZM84.032 108.696C84.544 109.448 85.072 110.488 85.28 111.176L86.256 110.76C86.032 110.088 85.488 109.08 84.928 108.344L84.032 108.696ZM91.344 110.2H87.792V106.44H91.344V110.2ZM93.36 102.344V100.968H90.096V97.592H88.656V105.08H86.432V112.248H87.792V111.56H91.344V112.184H92.752V105.08H90.096V102.344H93.36ZM102.912 106.824H107.36V105.496H102.912V101.992H101.344V110.456H98.656V104.728H97.2V110.456H95.296V111.816H108.816V110.456H102.912V106.824ZM101.872 97.432C100.288 99.832 97.408 101.896 94.512 103.032C94.896 103.384 95.312 103.912 95.536 104.296C97.936 103.208 100.272 101.576 102.016 99.608C104.128 101.944 106.288 103.224 108.608 104.312C108.784 103.848 109.2 103.336 109.568 103.016C107.184 102.056 104.864 100.84 102.848 98.584C102.976 98.408 103.104 98.248 103.216 98.072L101.872 97.432ZM115.552 109.224C114.528 109.88 112.592 110.472 110.976 110.712C111.28 110.984 111.664 111.48 111.872 111.8C113.52 111.432 115.52 110.6 116.64 109.736L115.552 109.224ZM119.584 109.88C121.04 110.44 122.992 111.288 123.984 111.784L124.976 110.92C123.904 110.408 121.952 109.64 120.544 109.128L119.584 109.88ZM120.432 101.496C120.208 101.912 119.84 102.52 119.536 102.92L120.112 103.096H115.744L116.464 102.904C116.336 102.536 116.032 101.944 115.712 101.496H120.432ZM118.704 107.304V106.344H123.616V105.224H118.704V104.264H124.368V103.096H120.976C121.296 102.728 121.664 102.296 122.016 101.816L120.768 101.496H124.96V100.312H122.672C123.088 99.72 123.568 98.92 124 98.136L122.464 97.736C122.224 98.456 121.728 99.464 121.344 100.104L121.968 100.312H120.224V97.56H118.816V100.312H117.232V97.56H115.84V100.312H114.048L114.896 99.992C114.672 99.368 114.112 98.392 113.616 97.704L112.32 98.152C112.768 98.808 113.248 99.688 113.488 100.312H111.104V101.496H115.184L114.256 101.72C114.528 102.136 114.8 102.696 114.96 103.096H111.744V104.264H117.248V105.224H112.528V106.344H117.248V107.304H111.04V108.552H117.248V112.264H118.704V108.552H125.008V107.304H118.704ZM131.376 99.656C131.232 99.08 130.88 98.2 130.56 97.528L129.248 97.88C129.536 98.552 129.872 99.48 130.016 100.056L131.376 99.656ZM136.112 101.88H138.72C138.448 103.672 138.048 105.192 137.424 106.52C136.816 105.176 136.384 103.656 136.064 101.992L136.112 101.88ZM141.36 101.88V100.504H136.544C136.768 99.64 136.976 98.728 137.152 97.816L135.632 97.576C135.184 100.248 134.368 102.824 133.12 104.456L133.136 103.976C133.152 103.784 133.152 103.336 133.152 103.336H129.888V101.464H133.76V100.072H126.752V101.464H128.496V104.664C128.496 106.824 128.256 109.24 126.416 111.256C126.784 111.512 127.264 111.912 127.52 112.232C129.568 110.008 129.888 107.304 129.888 104.696H131.712C131.632 108.792 131.52 110.264 131.264 110.6C131.168 110.776 131.024 110.824 130.8 110.824C130.544 110.824 130.016 110.824 129.44 110.76C129.632 111.144 129.776 111.72 129.824 112.12C130.48 112.152 131.152 112.152 131.536 112.088C131.984 112.024 132.256 111.88 132.528 111.512C132.912 110.984 133.024 109.304 133.12 104.712C133.472 105.016 133.936 105.512 134.144 105.784C134.512 105.288 134.864 104.728 135.168 104.104C135.536 105.544 135.984 106.872 136.576 108.024C135.696 109.304 134.496 110.296 132.928 111.016C133.216 111.304 133.632 111.976 133.776 112.312C135.264 111.544 136.448 110.584 137.392 109.4C138.208 110.584 139.216 111.544 140.512 112.216C140.72 111.8 141.2 111.224 141.52 110.936C140.176 110.312 139.104 109.304 138.272 108.04C139.2 106.36 139.808 104.344 140.208 101.88H141.36ZM149.712 103.576H143.36V104.792H149.712V104.248C150.064 104.472 150.544 104.808 150.768 105.016C151.296 104.136 151.728 103.048 152.096 101.8H155.6C155.408 102.84 155.136 103.88 154.88 104.616L156.096 104.984C156.512 103.88 156.976 102.184 157.264 100.696L156.256 100.392L156.032 100.456H152.432C152.624 99.608 152.784 98.712 152.912 97.8L151.456 97.608C151.168 99.992 150.64 102.296 149.712 103.88V103.576ZM145.824 101.352H143.216V102.568H149.872V101.352H147.216V100.216H150.208V99H147.216V97.672H145.824V99H142.848V100.216H145.824V101.352ZM143.84 107.48C143.52 108.568 143.024 109.8 142.496 110.632C142.832 110.744 143.392 111 143.664 111.176C144.144 110.296 144.688 108.968 145.072 107.784L143.84 107.48ZM150.368 107.048V105.816H142.64V107.048H145.84V112.248H147.248V107.048H150.368ZM147.952 107.912C148.368 108.728 148.832 109.8 149.024 110.472L150.224 109.928C150 109.304 149.504 108.248 149.072 107.464L147.952 107.912ZM154.08 102.92H152.672V103.656C152.672 105.752 152.432 108.872 149.68 111.288C150.048 111.496 150.56 111.976 150.816 112.296C152.256 111 153.056 109.496 153.52 108.024C154.16 109.88 155.12 111.368 156.512 112.232C156.736 111.848 157.184 111.288 157.52 110.984C155.68 110.008 154.56 107.784 154.032 105.224C154.064 104.664 154.08 104.168 154.08 103.704V102.92Z" fill="#5B5555"/>
<defs>
<linearGradient id="paint0_linear" x1="81.0014" y1="146.157" x2="81.4141" y2="158.263" gradientUnits="userSpaceOnUse">
<stop stop-color="#FFBA42"/>
<stop offset="0.526042" stop-color="#FFC800"/>
<stop offset="1" stop-color="#FFCE00"/>
</linearGradient>
<linearGradient id="paint1_linear" x1="79.801" y1="157.366" x2="80.0857" y2="165.715" gradientUnits="userSpaceOnUse">
<stop stop-color="#FFBA42"/>
<stop offset="0.526042" stop-color="#FFC800"/>
<stop offset="1" stop-color="#FFCE00"/>
</linearGradient>
<linearGradient id="paint2_linear" x1="64.1474" y1="140.905" x2="64.6272" y2="154.979" gradientUnits="userSpaceOnUse">
<stop stop-color="#FFBA42"/>
<stop offset="0.526042" stop-color="#FFC800"/>
<stop offset="1" stop-color="#FFCE00"/>
</linearGradient>
<linearGradient id="paint3_linear" x1="61.7219" y1="153.193" x2="61.9823" y2="160.83" gradientUnits="userSpaceOnUse">
<stop stop-color="#FFBA42"/>
<stop offset="0.526042" stop-color="#FFC800"/>
<stop offset="1" stop-color="#FFCE00"/>
</linearGradient>
<linearGradient id="paint4_linear" x1="50.7014" y1="133.482" x2="51.2472" y2="149.488" gradientUnits="userSpaceOnUse">
<stop stop-color="#FFBA42"/>
<stop offset="0.526042" stop-color="#FFC800"/>
<stop offset="1" stop-color="#FFCE00"/>
</linearGradient>
<linearGradient id="paint5_linear" x1="46.9125" y1="146.393" x2="47.1613" y2="153.69" gradientUnits="userSpaceOnUse">
<stop stop-color="#FFBA42"/>
<stop offset="0.526042" stop-color="#FFC800"/>
<stop offset="1" stop-color="#FFCE00"/>
</linearGradient>
<linearGradient id="paint6_linear" x1="37.9269" y1="122.194" x2="38.5468" y2="140.374" gradientUnits="userSpaceOnUse">
<stop stop-color="#FFBA42"/>
<stop offset="0.526042" stop-color="#FFC800"/>
<stop offset="1" stop-color="#FFCE00"/>
</linearGradient>
<linearGradient id="paint7_linear" x1="32.2136" y1="134.806" x2="32.4743" y2="142.451" gradientUnits="userSpaceOnUse">
<stop stop-color="#FFBA42"/>
<stop offset="0.526042" stop-color="#FFC800"/>
<stop offset="1" stop-color="#FFCE00"/>
</linearGradient>
<linearGradient id="paint8_linear" x1="28.2492" y1="109.742" x2="28.9056" y2="128.992" gradientUnits="userSpaceOnUse">
<stop stop-color="#FFBA42"/>
<stop offset="0.526042" stop-color="#FFC800"/>
<stop offset="1" stop-color="#FFCE00"/>
</linearGradient>
<linearGradient id="paint9_linear" x1="20.9694" y1="120.542" x2="21.2818" y2="129.705" gradientUnits="userSpaceOnUse">
<stop stop-color="#FFBA42"/>
<stop offset="0.526042" stop-color="#FFC800"/>
<stop offset="1" stop-color="#FFCE00"/>
</linearGradient>
<linearGradient id="paint10_linear" x1="20.0104" y1="94.9043" x2="20.669" y2="114.22" gradientUnits="userSpaceOnUse">
<stop stop-color="#FFBA42"/>
<stop offset="0.526042" stop-color="#FFC800"/>
<stop offset="1" stop-color="#FFCE00"/>
</linearGradient>
<linearGradient id="paint11_linear" x1="11.6996" y1="102.921" x2="12.0951" y2="114.521" gradientUnits="userSpaceOnUse">
<stop stop-color="#FFBA42"/>
<stop offset="0.526042" stop-color="#FFC800"/>
<stop offset="1" stop-color="#FFCE00"/>
</linearGradient>
<linearGradient id="paint12_linear" x1="15.6529" y1="81.0414" x2="16.2945" y2="99.8587" gradientUnits="userSpaceOnUse">
<stop stop-color="#FFBA42"/>
<stop offset="0.526042" stop-color="#FFC800"/>
<stop offset="1" stop-color="#FFCE00"/>
</linearGradient>
<linearGradient id="paint13_linear" x1="6.74649" y1="86.2729" x2="7.22028" y2="100.168" gradientUnits="userSpaceOnUse">
<stop stop-color="#FFBA42"/>
<stop offset="0.526042" stop-color="#FFC800"/>
<stop offset="1" stop-color="#FFCE00"/>
</linearGradient>
<linearGradient id="paint14_linear" x1="15.0344" y1="65.8193" x2="15.6184" y2="82.9461" gradientUnits="userSpaceOnUse">
<stop stop-color="#FFBA42"/>
<stop offset="0.526042" stop-color="#FFC800"/>
<stop offset="1" stop-color="#FFCE00"/>
</linearGradient>
<linearGradient id="paint15_linear" x1="5.65433" y1="66.5062" x2="6.22576" y2="83.2654" gradientUnits="userSpaceOnUse">
<stop stop-color="#FFBA42"/>
<stop offset="0.526042" stop-color="#FFC800"/>
<stop offset="1" stop-color="#FFCE00"/>
</linearGradient>
<linearGradient id="paint16_linear" x1="17.7083" y1="50.9292" x2="18.2032" y2="65.4422" gradientUnits="userSpaceOnUse">
<stop stop-color="#FFBA42"/>
<stop offset="0.526042" stop-color="#FFC800"/>
<stop offset="1" stop-color="#FFCE00"/>
</linearGradient>
<linearGradient id="paint17_linear" x1="8.4014" y1="47.1761" x2="9.03488" y2="65.7551" gradientUnits="userSpaceOnUse">
<stop stop-color="#FFBA42"/>
<stop offset="0.526042" stop-color="#FFC800"/>
<stop offset="1" stop-color="#FFCE00"/>
</linearGradient>
<linearGradient id="paint18_linear" x1="23.4209" y1="39.1482" x2="23.8045" y2="50.3994" gradientUnits="userSpaceOnUse">
<stop stop-color="#FFBA42"/>
<stop offset="0.526042" stop-color="#FFC800"/>
<stop offset="1" stop-color="#FFCE00"/>
</linearGradient>
<linearGradient id="paint19_linear" x1="14.6836" y1="31.3155" x2="15.3433" y2="50.6641" gradientUnits="userSpaceOnUse">
<stop stop-color="#FFBA42"/>
<stop offset="0.526042" stop-color="#FFC800"/>
<stop offset="1" stop-color="#FFCE00"/>
</linearGradient>
<linearGradient id="paint20_linear" x1="30.4024" y1="28.1239" x2="30.7204" y2="37.4514" gradientUnits="userSpaceOnUse">
<stop stop-color="#FFBA42"/>
<stop offset="0.526042" stop-color="#FFC800"/>
<stop offset="1" stop-color="#FFCE00"/>
</linearGradient>
<linearGradient id="paint21_linear" x1="22.3439" y1="18.0421" x2="23.0015" y2="37.3288" gradientUnits="userSpaceOnUse">
<stop stop-color="#FFBA42"/>
<stop offset="0.526042" stop-color="#FFC800"/>
<stop offset="1" stop-color="#FFCE00"/>
</linearGradient>
<linearGradient id="paint22_linear" x1="114.507" y1="144.294" x2="114.92" y2="156.4" gradientUnits="userSpaceOnUse">
<stop stop-color="#FFBA42"/>
<stop offset="0.526042" stop-color="#FFC800"/>
<stop offset="1" stop-color="#FFCE00"/>
</linearGradient>
<linearGradient id="paint23_linear" x1="116.441" y1="155.396" x2="116.725" y2="163.746" gradientUnits="userSpaceOnUse">
<stop stop-color="#FFBA42"/>
<stop offset="0.526042" stop-color="#FFC800"/>
<stop offset="1" stop-color="#FFCE00"/>
</linearGradient>
<linearGradient id="paint24_linear" x1="128.937" y1="138.697" x2="129.417" y2="152.77" gradientUnits="userSpaceOnUse">
<stop stop-color="#FFBA42"/>
<stop offset="0.526042" stop-color="#FFC800"/>
<stop offset="1" stop-color="#FFCE00"/>
</linearGradient>
<linearGradient id="paint25_linear" x1="132.167" y1="150.791" x2="132.427" y2="158.428" gradientUnits="userSpaceOnUse">
<stop stop-color="#FFBA42"/>
<stop offset="0.526042" stop-color="#FFC800"/>
<stop offset="1" stop-color="#FFCE00"/>
</linearGradient>
<linearGradient id="paint26_linear" x1="141.827" y1="129.834" x2="142.373" y2="145.839" gradientUnits="userSpaceOnUse">
<stop stop-color="#FFBA42"/>
<stop offset="0.526042" stop-color="#FFC800"/>
<stop offset="1" stop-color="#FFCE00"/>
</linearGradient>
<linearGradient id="paint27_linear" x1="146.457" y1="142.456" x2="146.706" y2="149.753" gradientUnits="userSpaceOnUse">
<stop stop-color="#FFBA42"/>
<stop offset="0.526042" stop-color="#FFC800"/>
<stop offset="1" stop-color="#FFCE00"/>
</linearGradient>
<linearGradient id="paint28_linear" x1="153.428" y1="117.971" x2="154.048" y2="136.151" gradientUnits="userSpaceOnUse">
<stop stop-color="#FFBA42"/>
<stop offset="0.526042" stop-color="#FFC800"/>
<stop offset="1" stop-color="#FFCE00"/>
</linearGradient>
<linearGradient id="paint29_linear" x1="159.96" y1="130.167" x2="160.221" y2="137.811" gradientUnits="userSpaceOnUse">
<stop stop-color="#FFBA42"/>
<stop offset="0.526042" stop-color="#FFC800"/>
<stop offset="1" stop-color="#FFCE00"/>
</linearGradient>
<linearGradient id="paint30_linear" x1="162.737" y1="104.111" x2="163.394" y2="123.362" gradientUnits="userSpaceOnUse">
<stop stop-color="#FFBA42"/>
<stop offset="0.526042" stop-color="#FFC800"/>
<stop offset="1" stop-color="#FFCE00"/>
</linearGradient>
<linearGradient id="paint31_linear" x1="170.71" y1="114.392" x2="171.022" y2="123.554" gradientUnits="userSpaceOnUse">
<stop stop-color="#FFBA42"/>
<stop offset="0.526042" stop-color="#FFC800"/>
<stop offset="1" stop-color="#FFCE00"/>
</linearGradient>
<linearGradient id="paint32_linear" x1="169.131" y1="89.5537" x2="169.79" y2="108.87" gradientUnits="userSpaceOnUse">
<stop stop-color="#FFBA42"/>
<stop offset="0.526042" stop-color="#FFC800"/>
<stop offset="1" stop-color="#FFCE00"/>
</linearGradient>
<linearGradient id="paint33_linear" x1="177.95" y1="96.9864" x2="178.345" y2="108.587" gradientUnits="userSpaceOnUse">
<stop stop-color="#FFBA42"/>
<stop offset="0.526042" stop-color="#FFC800"/>
<stop offset="1" stop-color="#FFCE00"/>
</linearGradient>
<linearGradient id="paint34_linear" x1="172.566" y1="75.4008" x2="173.208" y2="94.2189" gradientUnits="userSpaceOnUse">
<stop stop-color="#FFBA42"/>
<stop offset="0.526042" stop-color="#FFC800"/>
<stop offset="1" stop-color="#FFCE00"/>
</linearGradient>
<linearGradient id="paint35_linear" x1="181.796" y1="80.0136" x2="182.269" y2="93.9091" gradientUnits="userSpaceOnUse">
<stop stop-color="#FFBA42"/>
<stop offset="0.526042" stop-color="#FFC800"/>
<stop offset="1" stop-color="#FFCE00"/>
</linearGradient>
<linearGradient id="paint36_linear" x1="172.127" y1="60.6811" x2="172.711" y2="77.8071" gradientUnits="userSpaceOnUse">
<stop stop-color="#FFBA42"/>
<stop offset="0.526042" stop-color="#FFC800"/>
<stop offset="1" stop-color="#FFCE00"/>
</linearGradient>
<linearGradient id="paint37_linear" x1="181.532" y1="60.7279" x2="182.103" y2="77.4871" gradientUnits="userSpaceOnUse">
<stop stop-color="#FFBA42"/>
<stop offset="0.526042" stop-color="#FFC800"/>
<stop offset="1" stop-color="#FFCE00"/>
</linearGradient>
<linearGradient id="paint38_linear" x1="168.352" y1="46.0005" x2="168.847" y2="60.5144" gradientUnits="userSpaceOnUse">
<stop stop-color="#FFBA42"/>
<stop offset="0.526042" stop-color="#FFC800"/>
<stop offset="1" stop-color="#FFCE00"/>
</linearGradient>
<linearGradient id="paint39_linear" x1="177.391" y1="41.6224" x2="178.024" y2="60.2014" gradientUnits="userSpaceOnUse">
<stop stop-color="#FFBA42"/>
<stop offset="0.526042" stop-color="#FFC800"/>
<stop offset="1" stop-color="#FFCE00"/>
</linearGradient>
<linearGradient id="paint40_linear" x1="162.041" y1="34.8455" x2="162.425" y2="46.0975" gradientUnits="userSpaceOnUse">
<stop stop-color="#FFBA42"/>
<stop offset="0.526042" stop-color="#FFC800"/>
<stop offset="1" stop-color="#FFCE00"/>
</linearGradient>
<linearGradient id="paint41_linear" x1="170.243" y1="26.4341" x2="170.903" y2="45.7835" gradientUnits="userSpaceOnUse">
<stop stop-color="#FFBA42"/>
<stop offset="0.526042" stop-color="#FFC800"/>
<stop offset="1" stop-color="#FFCE00"/>
</linearGradient>
<linearGradient id="paint42_linear" x1="153.954" y1="24.42" x2="154.272" y2="33.7473" gradientUnits="userSpaceOnUse">
<stop stop-color="#FFBA42"/>
<stop offset="0.526042" stop-color="#FFC800"/>
<stop offset="1" stop-color="#FFCE00"/>
</linearGradient>
<linearGradient id="paint43_linear" x1="161.331" y1="13.8133" x2="161.989" y2="33.0993" gradientUnits="userSpaceOnUse">
<stop stop-color="#FFBA42"/>
<stop offset="0.526042" stop-color="#FFC800"/>
<stop offset="1" stop-color="#FFCE00"/>
</linearGradient>
<linearGradient id="paint44_linear" x1="92.0208" y1="18.1225" x2="96.8045" y2="158.424" gradientUnits="userSpaceOnUse">
<stop stop-color="#FFBA42"/>
<stop offset="0.526042" stop-color="#FFC800"/>
<stop offset="1" stop-color="#FFCE00"/>
</linearGradient>
<linearGradient id="paint45_linear" x1="42.0301" y1="18.1318" x2="42.2919" y2="25.8098" gradientUnits="userSpaceOnUse">
<stop stop-color="#FFBA42"/>
<stop offset="0.526042" stop-color="#FFC800"/>
<stop offset="1" stop-color="#FFCE00"/>
</linearGradient>
<linearGradient id="paint46_linear" x1="35.4348" y1="5.98173" x2="36.0567" y2="24.2222" gradientUnits="userSpaceOnUse">
<stop stop-color="#FFBA42"/>
<stop offset="0.526042" stop-color="#FFC800"/>
<stop offset="1" stop-color="#FFCE00"/>
</linearGradient>
<linearGradient id="paint47_linear" x1="142.248" y1="14.7148" x2="142.51" y2="22.3928" gradientUnits="userSpaceOnUse">
<stop stop-color="#FFBA42"/>
<stop offset="0.526042" stop-color="#FFC800"/>
<stop offset="1" stop-color="#FFCE00"/>
</linearGradient>
<linearGradient id="paint48_linear" x1="148.03" y1="2.14285" x2="148.652" y2="20.3833" gradientUnits="userSpaceOnUse">
<stop stop-color="#FFBA42"/>
<stop offset="0.526042" stop-color="#FFC800"/>
<stop offset="1" stop-color="#FFCE00"/>
</linearGradient>
</defs>
</svg>
