<svg width="189" height="167" viewBox="0 0 189 167" fill="none" xmlns="http://www.w3.org/2000/svg">
<path d="M83.3783 149.288C87.662 152.488 88.9576 158.006 88.9576 158.006C88.9576 158.006 83.3082 158.331 79.0245 155.13C74.7399 151.93 73.4437 146.416 73.4437 146.416C73.4437 146.416 79.0922 146.087 83.3783 149.288Z" fill="url(#paint0_linear)"/>
<path d="M78.6165 158.147C83.5964 156.195 88.9576 158.005 88.9576 158.005C88.9576 158.005 86.2435 162.979 81.2613 164.934C76.2814 166.886 70.9195 165.077 70.9195 165.077C70.9195 165.077 73.6343 160.101 78.6165 158.147Z" fill="url(#paint1_linear)"/>
<path d="M66.9359 145.349C70.7401 149.11 71.265 154.752 71.265 154.752C71.265 154.752 65.6246 154.297 61.822 150.536C58.0194 146.776 57.4929 141.132 57.4929 141.132C57.4929 141.132 63.1333 141.587 66.9359 145.349Z" fill="url(#paint2_linear)"/>
<path d="M61.0032 153.468C66.2044 152.221 71.2648 154.752 71.2648 154.752C71.2648 154.752 67.8931 159.307 62.6911 160.554C57.49 161.803 52.4303 159.271 52.4303 159.271C52.4303 159.271 55.802 154.716 61.0032 153.468Z" fill="url(#paint3_linear)"/>
<path d="M53.901 139.329C57.0605 143.646 56.6862 149.302 56.6862 149.302C56.6862 149.302 51.1916 147.96 48.0313 143.642C44.871 139.325 45.243 133.669 45.243 133.669C45.243 133.669 50.7407 135.011 53.901 139.329Z" fill="url(#paint4_linear)"/>
<path d="M46.7595 146.408C52.0917 146.001 56.6872 149.303 56.6872 149.303C56.6872 149.303 52.6384 153.266 47.3055 153.674C41.9734 154.082 37.3779 150.78 37.3779 150.78C37.3779 150.78 41.4274 146.816 46.7595 146.408Z" fill="url(#paint5_linear)"/>
<path d="M41.5955 129.905C43.6135 134.861 41.8816 140.26 41.8816 140.26C41.8816 140.26 36.8762 137.62 34.8582 132.663C32.8386 127.705 34.5698 122.308 34.5698 122.308C34.5698 122.308 39.5759 124.947 41.5955 129.905Z" fill="url(#paint6_linear)"/>
<path d="M32.9539 135.036C38.2243 135.937 41.882 140.259 41.882 140.259C41.882 140.259 36.9937 143.121 31.7234 142.221C26.4522 141.32 22.7968 136.998 22.7968 136.998C22.7968 136.998 27.6836 134.136 32.9539 135.036Z" fill="url(#paint7_linear)"/>
<path d="M32.1629 118.82C32.9616 124.114 30.0102 128.954 30.0102 128.954C30.0102 128.954 25.7664 125.21 24.9692 119.915C24.1704 114.62 27.1211 109.781 27.1211 109.781C27.1211 109.781 31.3657 113.525 32.1629 118.82Z" fill="url(#paint8_linear)"/>
<path d="M22.5611 121.776C27.4714 123.893 30.0102 128.955 30.0102 128.955C30.0102 128.955 24.5895 130.587 19.6792 128.47C14.7705 126.355 12.2302 121.292 12.2302 121.292C12.2302 121.292 17.6523 119.66 22.5611 121.776Z" fill="url(#paint9_linear)"/>
<path d="M23.9617 104.742C23.6922 110.091 19.8403 114.248 19.8403 114.248C19.8403 114.248 16.4252 109.732 16.6947 104.383C16.9643 99.0334 20.8147 94.8769 20.8147 94.8769C20.8147 94.8769 24.2312 99.3921 23.9617 104.742Z" fill="url(#paint10_linear)"/>
<path d="M13.9668 105.727C18.3582 108.779 19.8403 114.248 19.8403 114.248C19.8403 114.248 14.205 114.768 9.81356 111.716C5.42367 108.663 3.94083 103.195 3.94083 103.195C3.94083 103.195 9.57692 102.676 13.9668 105.727Z" fill="url(#paint11_linear)"/>
<path d="M19.5212 91.2032C18.4101 96.4432 13.9505 99.9386 13.9505 99.9386C13.9505 99.9386 11.2927 94.937 12.4038 89.6969C13.5165 84.4576 17.9738 80.9623 17.9738 80.9623C17.9738 80.9623 20.6323 85.9632 19.5212 91.2032Z" fill="url(#paint12_linear)"/>
<path d="M9.49825 90.5927C13.3509 94.3029 13.9504 99.9389 13.9504 99.9389C13.9504 99.9389 8.30474 99.5594 4.45212 95.8492C0.600266 92.1389 0 86.5029 0 86.5029C0 86.5029 5.6464 86.8824 9.49825 90.5927Z" fill="url(#paint13_linear)"/>
<path d="M18.5853 75.9794C16.239 80.7939 11.0657 83.1013 11.0657 83.1013C11.0657 83.1013 9.70139 77.6028 12.0469 72.7876C14.3947 67.973 19.5656 65.6648 19.5656 65.6648C19.5656 65.6648 20.9331 71.1648 18.5853 75.9794Z" fill="url(#paint14_linear)"/>
<path d="M9.01472 72.9496C11.8507 77.4862 11.0665 83.1004 11.0665 83.1004C11.0665 83.1004 5.68437 81.3591 2.84684 76.8226C0.00930699 72.2861 0.793568 66.6719 0.793568 66.6719C0.793568 66.6719 6.17719 68.4131 9.01472 72.9496Z" fill="url(#paint15_linear)"/>
<path d="M20.7488 60.5064C17.3384 64.6345 11.7707 65.6616 11.7707 65.6616C11.7707 65.6616 11.7345 59.9938 15.1464 55.8648C18.5568 51.7367 24.1237 50.7105 24.1237 50.7105C24.1237 50.7105 24.1615 56.3782 20.7488 60.5064Z" fill="url(#paint16_linear)"/>
<path d="M12.1576 55.3087C13.8505 60.3872 11.7714 65.6618 11.7714 65.6618C11.7714 65.6618 6.94822 62.7011 5.25615 57.6217C3.56412 52.544 5.64318 47.2702 5.64318 47.2702C5.64318 47.2702 10.4656 50.2302 12.1576 55.3087Z" fill="url(#paint17_linear)"/>
<path d="M25.8053 47.674C21.5447 50.9162 15.8934 50.6444 15.8934 50.6444C15.8934 50.6444 17.1469 45.1163 21.4067 41.8741C25.6665 38.6319 31.3186 38.9037 31.3186 38.9037C31.3186 38.9037 30.0644 44.4326 25.8053 47.674Z" fill="url(#paint18_linear)"/>
<path d="M18.6243 40.6517C19.1159 45.9838 15.8927 50.6454 15.8927 50.6454C15.8927 50.6454 11.8707 46.6624 11.3799 41.3295C10.8883 35.9974 14.1123 31.335 14.1123 31.335C14.1123 31.335 18.1327 35.3188 18.6243 40.6517Z" fill="url(#paint19_linear)"/>
<path d="M32.269 36C27.5516 38.5273 22.0143 37.3634 22.0143 37.3634C22.0143 37.3634 24.1262 32.1026 28.8428 29.5761C33.5617 27.0487 39.0974 28.2119 39.0974 28.2119C39.0974 28.2119 36.9864 33.4734 32.269 36Z" fill="url(#paint20_linear)"/>
<path d="M26.2908 27.9257C25.9339 33.2695 22.0144 37.3624 22.0144 37.3624C22.0144 37.3624 18.6746 32.7905 19.0314 27.4467C19.3889 22.1021 23.3085 18.0092 23.3085 18.0092C23.3085 18.0092 26.6491 22.5811 26.2908 27.9257Z" fill="url(#paint21_linear)"/>
<path d="M112.342 147.58C108.277 151.066 107.347 156.657 107.347 156.657C107.347 156.657 113.006 156.598 117.069 153.114C121.134 149.629 122.064 144.037 122.064 144.037C122.064 144.037 116.406 144.095 112.342 147.58Z" fill="url(#paint22_linear)"/>
<path d="M117.676 156.096C112.578 154.487 107.347 156.657 107.347 156.657C107.347 156.657 110.383 161.437 115.481 163.047C120.579 164.656 125.809 162.486 125.809 162.486C125.809 162.486 122.774 157.705 117.676 156.096Z" fill="url(#paint23_linear)"/>
<path d="M126.448 143.32C122.9 147.332 122.746 152.998 122.746 152.998C122.746 152.998 128.345 152.16 131.891 148.148C135.438 144.137 135.591 138.47 135.591 138.47C135.591 138.47 129.995 139.308 126.448 143.32Z" fill="url(#paint24_linear)"/>
<path d="M132.901 151.017C127.63 150.127 122.747 152.997 122.747 152.997C122.747 152.997 126.412 157.311 131.683 158.202C136.956 159.094 141.838 156.223 141.838 156.223C141.838 156.223 138.174 151.907 132.901 151.017Z" fill="url(#paint25_linear)"/>
<path d="M139.02 135.885C136.152 140.407 136.896 146.026 136.896 146.026C136.896 146.026 142.29 144.31 145.16 139.787C148.029 135.266 147.286 129.648 147.286 129.648C147.286 129.648 141.89 131.362 139.02 135.885Z" fill="url(#paint26_linear)"/>
<path d="M146.611 142.461C141.264 142.418 136.896 146.026 136.896 146.026C136.896 146.026 141.196 149.705 146.544 149.748C151.891 149.792 156.259 146.183 156.259 146.183C156.259 146.183 151.958 142.505 146.611 142.461Z" fill="url(#paint27_linear)"/>
<path d="M150.276 125.914C148.587 130.998 150.671 136.266 150.671 136.266C150.671 136.266 155.49 133.291 157.18 128.208C158.868 123.123 156.784 117.856 156.784 117.856C156.784 117.856 151.963 120.831 150.276 125.914Z" fill="url(#paint28_linear)"/>
<path d="M159.235 130.447C154.036 131.705 150.672 136.266 150.672 136.266C150.672 136.266 155.735 138.789 160.935 137.531C166.135 136.274 169.5 131.713 169.5 131.713C169.5 131.713 164.435 129.19 159.235 130.447Z" fill="url(#paint29_linear)"/>
<path d="M159.428 113.435C158.981 118.773 162.243 123.402 162.243 123.402C162.243 123.402 166.231 119.376 166.68 114.039C167.127 108.701 163.866 104.072 163.866 104.072C163.866 104.072 159.878 108.099 159.428 113.435Z" fill="url(#paint30_linear)"/>
<path d="M169.203 115.731C164.444 118.177 162.243 123.402 162.243 123.402C162.243 123.402 167.76 124.66 172.519 122.214C177.28 119.768 179.479 114.545 179.479 114.545C179.479 114.545 173.962 113.286 169.203 115.731Z" fill="url(#paint31_linear)"/>
<path d="M165.836 99.6389C166.456 104.958 170.573 108.844 170.573 108.844C170.573 108.844 173.683 104.104 173.063 98.7867C172.442 93.4668 168.325 89.5812 168.325 89.5812C168.325 89.5812 165.216 94.3197 165.836 99.6389Z" fill="url(#paint32_linear)"/>
<path d="M175.872 99.9416C171.692 103.286 170.572 108.843 170.572 108.843C170.572 108.843 176.229 108.977 180.41 105.632C184.589 102.289 185.709 96.7313 185.709 96.7313C185.709 96.7313 180.052 96.597 175.872 99.9416Z" fill="url(#paint33_linear)"/>
<path d="M169.375 85.8041C170.828 90.9567 175.507 94.1405 175.507 94.1405C175.507 94.1405 177.831 88.969 176.377 83.8164C174.923 78.6638 170.245 75.48 170.245 75.48C170.245 75.48 167.922 80.6507 169.375 85.8041Z" fill="url(#paint34_linear)"/>
<path d="M179.335 84.5119C175.735 88.4762 175.506 94.1397 175.506 94.1397C175.506 94.1397 181.115 93.3756 184.715 89.4113C188.314 85.447 188.543 79.7836 188.543 79.7836C188.543 79.7836 182.934 80.5476 179.335 84.5119Z" fill="url(#paint35_linear)"/>
<path d="M169.252 71.0595C171.911 75.7033 177.222 77.6533 177.222 77.6533C177.222 77.6533 178.224 72.0741 175.565 67.4295C172.906 62.7849 167.594 60.8357 167.594 60.8357C167.594 60.8357 166.593 66.4156 169.252 71.0595Z" fill="url(#paint36_linear)"/>
<path d="M178.603 67.3857C176.071 72.1053 177.222 77.6535 177.222 77.6535C177.222 77.6535 182.479 75.5496 185.012 70.8299C187.544 66.1103 186.393 60.5621 186.393 60.5621C186.393 60.5621 181.136 62.6661 178.603 67.3857Z" fill="url(#paint37_linear)"/>
<path d="M165.948 55.7641C169.623 59.6507 175.244 60.2962 175.244 60.2962C175.244 60.2962 174.909 54.6379 171.234 50.7513C167.56 46.8648 161.938 46.2192 161.938 46.2192C161.938 46.2192 162.273 51.8776 165.948 55.7641Z" fill="url(#paint38_linear)"/>
<path d="M174.178 49.9926C172.824 55.175 175.244 60.2962 175.244 60.2962C175.244 60.2962 179.862 57.0128 181.216 51.8304C182.57 46.6488 180.149 41.5284 180.149 41.5284C180.149 41.5284 175.532 44.8094 174.178 49.9926Z" fill="url(#paint39_linear)"/>
<path d="M160.223 43.5146C164.686 46.4602 170.307 45.804 170.307 45.804C170.307 45.804 168.694 40.3736 164.23 37.4281C159.767 34.4833 154.146 35.1395 154.146 35.1395C154.146 35.1395 155.759 40.5706 160.223 43.5146Z" fill="url(#paint40_linear)"/>
<path d="M166.925 36.0178C166.785 41.3715 170.307 45.8038 170.307 45.8038C170.307 45.8038 174.058 41.555 174.198 36.2006C174.338 30.8462 170.815 26.4146 170.815 26.4146C170.815 26.4146 167.064 30.6642 166.925 36.0178Z" fill="url(#paint41_linear)"/>
<path d="M152.609 32.4054C157.482 34.6057 162.931 33.0672 162.931 33.0672C162.931 33.0672 160.478 27.962 155.605 25.7617C150.731 23.5622 145.284 25.1006 145.284 25.1006C145.284 25.1006 147.736 30.2058 152.609 32.4054Z" fill="url(#paint42_linear)"/>
<path d="M158.043 23.9429C158.751 29.2504 162.931 33.0672 162.931 33.0672C162.931 33.0672 165.963 28.2779 165.254 22.9705C164.547 17.6622 160.367 13.8462 160.367 13.8462C160.367 13.8462 157.335 18.6347 158.043 23.9429Z" fill="url(#paint43_linear)"/>
<path d="M148.215 16.2065C148.006 16.4427 147.766 16.6784 147.485 16.9124C147.404 16.9803 147.321 17.0271 147.237 17.0865C164.475 31.0388 175.718 51.6986 176.487 75.0452C177.926 118.769 142.088 155.602 96.597 157.153C51.1058 158.704 12.9266 124.395 11.4875 80.6711C10.7531 58.3599 19.729 37.8455 34.7371 22.8949C34.2924 22.779 33.843 22.6186 33.389 22.4081C18.3761 37.5644 9.42013 58.2421 10.1599 80.7163C11.6222 125.143 50.4162 160.005 96.639 158.429C142.861 156.853 179.276 119.426 177.814 74.9999C177.035 51.3336 165.661 30.3832 148.215 16.2065Z" fill="url(#paint44_linear)"/>
<path d="M43.0404 25.5048C37.8518 26.8092 32.764 24.3345 32.764 24.3345C32.764 24.3345 36.0858 19.7426 41.2728 18.4374C46.4614 17.1322 51.5492 19.6076 51.5492 19.6076C51.5492 19.6076 48.2274 24.1996 43.0404 25.5048Z" fill="url(#paint45_linear)"/>
<path d="M39.1969 16.2169C37.5561 21.3157 32.764 24.3344 32.764 24.3344C32.764 24.3344 30.6316 19.0865 32.2723 13.9869C33.9138 8.88809 38.7068 5.87016 38.7068 5.87016C38.7068 5.87016 40.8384 11.1173 39.1969 16.2169Z" fill="url(#paint46_linear)"/>
<path d="M141.726 22.14C146.988 23.0881 151.902 20.2724 151.902 20.2724C151.902 20.2724 148.284 15.9171 143.023 14.9682C137.762 14.0192 132.847 16.8357 132.847 16.8357C132.847 16.8357 136.465 21.1911 141.726 22.14Z" fill="url(#paint47_linear)"/>
<path d="M144.949 12.6114C146.923 17.5869 151.902 20.2724 151.902 20.2724C151.902 20.2724 153.683 14.8911 151.712 9.91468C149.738 4.93912 144.757 2.25443 144.757 2.25443C144.757 2.25443 142.975 7.63502 144.949 12.6114Z" fill="url(#paint48_linear)"/>
<path d="M51.518 58.566H57.392V56.212H51.518V51.68H48.746V62.966H45.666V55.288H43.07V62.966H40.694V65.32H59.394V62.966H51.518V58.566ZM49.626 45.168C47.426 48.468 43.4 51.086 39.462 52.626C40.122 53.22 40.87 54.166 41.244 54.848C44.434 53.396 47.558 51.328 50 48.732C52.992 51.922 55.896 53.528 58.932 54.848C59.24 54.056 59.944 53.132 60.582 52.582C57.458 51.482 54.4 49.986 51.518 46.95C51.672 46.752 51.826 46.532 51.98 46.334L49.626 45.168ZM68.304 61.646C66.962 62.46 64.41 63.208 62.21 63.516C62.738 64 63.42 64.858 63.75 65.408C66.016 64.88 68.656 63.736 70.152 62.482L68.304 61.646ZM74.222 62.746C76.07 63.516 78.644 64.682 79.92 65.408L81.768 63.978C80.36 63.274 77.764 62.174 75.982 61.514L74.222 62.746ZM75.146 50.998C74.838 51.526 74.376 52.186 74.024 52.692L74.816 52.934H68.81L69.998 52.648C69.822 52.186 69.47 51.548 69.118 50.998H75.146ZM73.276 58.764V57.796H79.876V55.904H73.276V54.914H80.91V52.934H76.664C77.06 52.538 77.522 52.054 78.006 51.526L75.938 50.998H81.746V48.952H78.908C79.458 48.182 80.052 47.192 80.668 46.18L77.918 45.542C77.61 46.488 77.016 47.83 76.51 48.71L77.302 48.952H75.344V45.366H72.88V48.952H71.23V45.366H68.81V48.952H66.786L67.842 48.556C67.556 47.72 66.83 46.4 66.17 45.476L63.926 46.224C64.432 47.06 65.004 48.116 65.334 48.952H62.342V50.998H67.952L66.478 51.328C66.764 51.812 67.094 52.428 67.292 52.934H63.244V54.914H70.68V55.904H64.344V57.796H70.68V58.764H62.298V60.92H70.68V65.936H73.276V60.92H81.812V58.764H73.276ZM93.472 45.894V48.6H96.992C98.224 51.504 100.182 54.452 102.69 56.366C103.13 55.552 104.076 54.298 104.67 53.726C101.964 52.076 99.962 48.974 99.016 45.894H93.472ZM89.512 45.85C88.192 49.04 85.882 52.23 83.55 54.188C84.21 54.716 85.376 55.86 85.882 56.432C88.258 54.122 90.832 50.404 92.438 46.796L89.512 45.85ZM96.046 58.06C96.728 59.028 97.454 60.172 98.158 61.272L90.084 61.8C92.218 59.424 94.33 56.476 96.024 53.506L92.966 52.23C91.228 55.882 88.478 59.622 87.554 60.568C86.674 61.536 86.08 62.13 85.354 62.328C85.75 63.098 86.256 64.572 86.432 65.122C87.51 64.726 89.006 64.594 99.632 63.758C100.094 64.55 100.49 65.276 100.776 65.914L103.482 64.484C102.404 62.438 100.38 59.314 98.598 56.894L96.046 58.06ZM110.83 55.992V53.506H115.67C115.736 54.364 115.846 55.178 116 55.992H110.83ZM121.434 48.776V51.086H110.83V48.776H121.434ZM125.658 58.434V55.992H118.706C118.552 55.178 118.42 54.364 118.354 53.506H124.096V46.356H108.08V61.822C108.08 62.79 107.442 63.406 106.958 63.714C107.354 64.22 107.948 65.364 108.124 66.024C108.806 65.65 109.884 65.43 116.352 63.934C116.22 63.34 116.088 62.196 116.066 61.448L110.83 62.548V58.434H116.572C117.782 62.614 120.092 65.65 122.842 65.65C124.822 65.65 125.768 64.836 126.142 61.184C125.416 60.964 124.47 60.48 123.876 59.952C123.744 62.13 123.524 63.054 122.974 63.054C121.764 63.054 120.334 61.162 119.366 58.434H125.658ZM132.61 53.902V57.95H134.986V45.41H132.61V48.688H130.96V45.916H128.782V50.668H132.61V51.878H127.924V53.902H129.156C129.134 54.716 128.892 56.256 127.704 57.18C128.298 57.422 129.244 57.95 129.684 58.302C131.136 57.092 131.444 54.936 131.444 53.902H132.61ZM138.418 52.318C140.068 52.01 141.608 51.57 142.994 50.954V52.318H138.418ZM144.38 47.874C143.918 48.358 143.346 48.776 142.708 49.15C142.29 48.732 141.806 48.27 141.322 47.874H144.38ZM148.252 61.448V59.292H144.6L145.106 58.786C144.71 58.368 144.05 57.862 143.39 57.422C143.852 57.378 144.248 57.312 144.556 57.18C145.282 56.872 145.48 56.41 145.48 55.376V54.012H147.966V52.318H145.48V50.91H143.082C144.952 50.052 146.492 48.842 147.46 47.082L146.118 46.4L145.7 46.466H142.642C142.972 46.224 143.28 45.982 143.588 45.718L141.432 45.278C140.288 46.136 138.308 46.906 135.668 47.434C136.086 47.742 136.68 48.446 136.944 48.908C137.802 48.666 138.616 48.402 139.32 48.138C139.98 48.666 140.662 49.304 141.146 49.854C139.518 50.492 137.626 50.888 135.646 51.086C135.932 51.394 136.284 51.878 136.504 52.318H135.646V54.012H137.824L136.922 54.694C137.736 55.222 138.66 56.058 139.078 56.63L140.794 55.332C140.486 54.914 139.914 54.452 139.342 54.012H142.994V55.288C142.994 55.508 142.928 55.574 142.686 55.596C142.444 55.596 141.63 55.596 140.926 55.552C141.19 56.124 141.476 56.85 141.564 57.444H142.4L141.608 58.192C142.07 58.5 142.598 58.896 143.06 59.292H139.232C139.254 59.116 139.254 58.962 139.254 58.786V57.246H136.658V58.698C136.658 58.896 136.636 59.094 136.614 59.292H127.792V61.448H135.14C133.886 62.438 131.642 63.34 127.682 63.934C128.166 64.506 128.826 65.43 129.134 66.046C134.986 65.1 137.56 63.296 138.594 61.448H139.254L138.572 62.548C141.322 63.494 145.238 64.99 147.152 65.936L148.34 63.89C146.778 63.208 144.116 62.24 141.762 61.448H148.252ZM139.628 48.886C138.352 48.974 137.274 49.062 136.35 49.128L136.57 50.448C137.56 50.338 138.572 50.228 139.65 50.118L139.628 48.886Z" fill="#5B5555"/>
<path d="M81.1856 8.78C81.1856 9.28667 81.0856 9.77333 80.8856 10.24C80.6856 10.7067 80.4256 11.16 80.1056 11.6C79.7856 12.0267 79.4256 12.44 79.0256 12.84C78.6256 13.24 78.2323 13.62 77.8456 13.98C77.6456 14.1667 77.4256 14.38 77.1856 14.62C76.959 14.8467 76.739 15.08 76.5256 15.32C76.3123 15.56 76.119 15.7867 75.9456 16C75.7856 16.2 75.6856 16.3667 75.6456 16.5H81.6056V19H72.3656C72.339 18.8533 72.3256 18.6667 72.3256 18.44C72.3256 18.2133 72.3256 18.0533 72.3256 17.96C72.3256 17.32 72.4256 16.7333 72.6256 16.2C72.839 15.6667 73.1123 15.1733 73.4456 14.72C73.779 14.2533 74.1523 13.82 74.5656 13.42C74.9923 13.02 75.4123 12.62 75.8256 12.22C76.1456 11.9133 76.4456 11.6267 76.7256 11.36C77.0056 11.08 77.2523 10.8133 77.4656 10.56C77.679 10.2933 77.8456 10.0333 77.9656 9.78C78.0856 9.51333 78.1456 9.24667 78.1456 8.98C78.1456 8.39333 77.979 7.98 77.6456 7.74C77.3123 7.5 76.899 7.38 76.4056 7.38C76.0456 7.38 75.7056 7.44 75.3856 7.56C75.079 7.66667 74.7923 7.8 74.5256 7.96C74.2723 8.10667 74.0523 8.26 73.8656 8.42C73.679 8.56667 73.539 8.68667 73.4456 8.78L71.9656 6.7C72.5523 6.15333 73.2323 5.70667 74.0056 5.36C74.7923 5 75.6323 4.82 76.5256 4.82C77.339 4.82 78.039 4.91333 78.6256 5.1C79.2123 5.28667 79.6923 5.55333 80.0656 5.9C80.4523 6.23333 80.7323 6.64667 80.9056 7.14C81.0923 7.62 81.1856 8.16667 81.1856 8.78ZM93.3128 12.04C93.3128 14.3733 92.8661 16.1667 91.9728 17.42C91.0928 18.66 89.8728 19.28 88.3128 19.28C86.7528 19.28 85.5261 18.66 84.6328 17.42C83.7528 16.1667 83.3128 14.3733 83.3128 12.04C83.3128 10.88 83.4261 9.85333 83.6528 8.96C83.8928 8.06667 84.2328 7.31333 84.6728 6.7C85.1128 6.08667 85.6395 5.62 86.2528 5.3C86.8661 4.98 87.5528 4.82 88.3128 4.82C89.8728 4.82 91.0928 5.44667 91.9728 6.7C92.8661 7.94 93.3128 9.72 93.3128 12.04ZM90.2728 12.04C90.2728 11.3467 90.2395 10.72 90.1728 10.16C90.1061 9.58667 89.9995 9.09333 89.8528 8.68C89.7061 8.26667 89.5061 7.94667 89.2528 7.72C88.9995 7.49333 88.6861 7.38 88.3128 7.38C87.9395 7.38 87.6261 7.49333 87.3728 7.72C87.1328 7.94667 86.9328 8.26667 86.7728 8.68C86.6261 9.09333 86.5195 9.58667 86.4528 10.16C86.3861 10.72 86.3528 11.3467 86.3528 12.04C86.3528 12.7333 86.3861 13.3667 86.4528 13.94C86.5195 14.5133 86.6261 15.0067 86.7728 15.42C86.9328 15.8333 87.1328 16.1533 87.3728 16.38C87.6261 16.6067 87.9395 16.72 88.3128 16.72C88.6861 16.72 88.9995 16.6067 89.2528 16.38C89.5061 16.1533 89.7061 15.8333 89.8528 15.42C89.9995 15.0067 90.1061 14.5133 90.1728 13.94C90.2395 13.3667 90.2728 12.7333 90.2728 12.04ZM103.92 8.78C103.92 9.28667 103.82 9.77333 103.62 10.24C103.42 10.7067 103.16 11.16 102.84 11.6C102.52 12.0267 102.16 12.44 101.76 12.84C101.36 13.24 100.967 13.62 100.58 13.98C100.38 14.1667 100.16 14.38 99.92 14.62C99.6933 14.8467 99.4733 15.08 99.26 15.32C99.0467 15.56 98.8533 15.7867 98.68 16C98.52 16.2 98.42 16.3667 98.38 16.5H104.34V19H95.1C95.0733 18.8533 95.06 18.6667 95.06 18.44C95.06 18.2133 95.06 18.0533 95.06 17.96C95.06 17.32 95.16 16.7333 95.36 16.2C95.5733 15.6667 95.8467 15.1733 96.18 14.72C96.5133 14.2533 96.8867 13.82 97.3 13.42C97.7267 13.02 98.1467 12.62 98.56 12.22C98.88 11.9133 99.18 11.6267 99.46 11.36C99.74 11.08 99.9867 10.8133 100.2 10.56C100.413 10.2933 100.58 10.0333 100.7 9.78C100.82 9.51333 100.88 9.24667 100.88 8.98C100.88 8.39333 100.713 7.98 100.38 7.74C100.047 7.5 99.6333 7.38 99.14 7.38C98.78 7.38 98.44 7.44 98.12 7.56C97.8133 7.66667 97.5267 7.8 97.26 7.96C97.0067 8.10667 96.7867 8.26 96.6 8.42C96.4133 8.56667 96.2733 8.68667 96.18 8.78L94.7 6.7C95.2867 6.15333 95.9667 5.70667 96.74 5.36C97.5267 5 98.3667 4.82 99.26 4.82C100.073 4.82 100.773 4.91333 101.36 5.1C101.947 5.28667 102.427 5.55333 102.8 5.9C103.187 6.23333 103.467 6.64667 103.64 7.14C103.827 7.62 103.92 8.16667 103.92 8.78ZM116.047 12.04C116.047 14.3733 115.601 16.1667 114.707 17.42C113.827 18.66 112.607 19.28 111.047 19.28C109.487 19.28 108.261 18.66 107.367 17.42C106.487 16.1667 106.047 14.3733 106.047 12.04C106.047 10.88 106.161 9.85333 106.387 8.96C106.627 8.06667 106.967 7.31333 107.407 6.7C107.847 6.08667 108.374 5.62 108.987 5.3C109.601 4.98 110.287 4.82 111.047 4.82C112.607 4.82 113.827 5.44667 114.707 6.7C115.601 7.94 116.047 9.72 116.047 12.04ZM113.007 12.04C113.007 11.3467 112.974 10.72 112.907 10.16C112.841 9.58667 112.734 9.09333 112.587 8.68C112.441 8.26667 112.241 7.94667 111.987 7.72C111.734 7.49333 111.421 7.38 111.047 7.38C110.674 7.38 110.361 7.49333 110.107 7.72C109.867 7.94667 109.667 8.26667 109.507 8.68C109.361 9.09333 109.254 9.58667 109.187 10.16C109.121 10.72 109.087 11.3467 109.087 12.04C109.087 12.7333 109.121 13.3667 109.187 13.94C109.254 14.5133 109.361 15.0067 109.507 15.42C109.667 15.8333 109.867 16.1533 110.107 16.38C110.361 16.6067 110.674 16.72 111.047 16.72C111.421 16.72 111.734 16.6067 111.987 16.38C112.241 16.1533 112.441 15.8333 112.587 15.42C112.734 15.0067 112.841 14.5133 112.907 13.94C112.974 13.3667 113.007 12.7333 113.007 12.04Z" fill="#5B5555"/>
<path d="M78.3573 84.08V82.56H72.0373C72.0853 82.032 72.1013 81.504 72.1013 81.024V79.264H77.7013V77.728H65.1413V79.264H70.5493V81.008C70.5493 81.488 70.5333 82.016 70.4693 82.56H64.5653V84.08H70.1813C69.5733 86.224 68.0053 88.448 64.1013 89.952C64.4373 90.24 64.8853 90.848 65.0773 91.216C68.9013 89.712 70.6773 87.52 71.4773 85.28C72.7733 88.16 74.8213 90.176 77.8933 91.2C78.1013 90.768 78.5653 90.144 78.9013 89.824C75.7333 88.96 73.6213 86.88 72.5013 84.08H78.3573ZM94.5173 79.248V77.728H80.3893V79.248H86.3253V91.232H87.9093V83.184C89.6373 84.144 91.6373 85.392 92.6613 86.256L93.7493 84.896C92.5173 83.936 90.0053 82.512 88.1813 81.632L87.9093 81.952V79.248H94.5173ZM101.589 90.208C103.109 90.208 104.309 89.6 105.253 88.512L104.261 87.344C103.557 88.112 102.725 88.592 101.653 88.592C99.5733 88.592 98.2613 86.88 98.2613 84.08C98.2613 81.312 99.6693 79.616 101.701 79.616C102.661 79.616 103.397 80.048 104.005 80.672L105.013 79.488C104.293 78.704 103.141 78 101.669 78C98.6933 78 96.3573 80.304 96.3573 84.144C96.3573 88 98.6293 90.208 101.589 90.208ZM110.248 90.208C112.824 90.208 114.392 88.672 114.392 86.784C114.392 85.056 113.384 84.192 111.992 83.6L110.376 82.912C109.416 82.528 108.472 82.144 108.472 81.136C108.472 80.192 109.256 79.616 110.456 79.616C111.496 79.616 112.312 80.016 113.048 80.672L114.024 79.488C113.128 78.576 111.832 78 110.456 78C108.216 78 106.584 79.392 106.584 81.248C106.584 82.96 107.848 83.856 108.984 84.336L110.616 85.04C111.704 85.52 112.504 85.856 112.504 86.928C112.504 87.92 111.704 88.592 110.28 88.592C109.144 88.592 107.992 88.048 107.144 87.2L106.056 88.48C107.128 89.568 108.632 90.208 110.248 90.208ZM118.478 79.712H120.254C121.966 79.712 122.894 80.208 122.894 81.632C122.894 83.056 121.966 83.76 120.254 83.76H118.478V79.712ZM125.15 90L122.27 85.008C123.758 84.544 124.734 83.456 124.734 81.632C124.734 79.088 122.91 78.224 120.478 78.224H116.622V90H118.478V85.248H120.382L123.054 90H125.15ZM54.1881 103.544V102.008H47.7401C47.9321 100.424 47.9481 98.888 47.9641 97.592H46.3481C46.3321 98.872 46.3481 100.408 46.1561 102.008H40.2041V103.544H45.8841C45.2441 106.44 43.6921 109.32 39.8841 110.984C40.3001 111.304 40.7801 111.832 41.0201 112.232C44.6521 110.52 46.3801 107.752 47.1961 104.856C48.4441 108.248 50.3801 110.84 53.3721 112.232C53.6121 111.784 54.1081 111.16 54.4761 110.84C51.4521 109.576 49.4361 106.872 48.3481 103.544H54.1881ZM69.4841 97.72H68.0761V104.648C68.0761 104.856 68.0121 104.92 67.7561 104.92C67.5321 104.936 66.7481 104.936 65.9321 104.904C66.1241 105.272 66.3161 105.864 66.3801 106.248C67.5161 106.248 68.3001 106.216 68.8121 106.008C69.3401 105.784 69.4841 105.416 69.4841 104.664V97.72ZM66.5081 98.504H65.1481V103.832H66.5081V98.504ZM59.5481 101.464V99.512H61.2441V101.464H59.5481ZM63.9801 110.344V108.648H68.6841V107.288H63.9801V105.752H62.6361V102.792H64.3001V101.464H62.6361V99.512H63.9481V98.2H56.7801V99.512H58.1721V101.464H56.2361V102.792H58.0441C57.8361 103.736 57.3241 104.664 56.0281 105.4C56.3001 105.608 56.8121 106.168 57.0041 106.44C58.6041 105.512 59.2281 104.136 59.4521 102.792H61.2441V106.04H62.4441V107.288H57.6441V108.648H62.4441V110.344H56.0121V111.72H70.3161V110.344H63.9801ZM80.0761 106.824H84.5241V105.496H80.0761V101.992H78.5081V110.456H75.8201V104.728H74.3641V110.456H72.4601V111.816H85.9801V110.456H80.0761V106.824ZM79.0361 97.432C77.4521 99.832 74.5721 101.896 71.6761 103.032C72.0601 103.384 72.4761 103.912 72.7001 104.296C75.1001 103.208 77.4361 101.576 79.1801 99.608C81.2921 101.944 83.4521 103.224 85.7721 104.312C85.9481 103.848 86.3641 103.336 86.7321 103.016C84.3481 102.056 82.0281 100.84 80.0121 98.584C80.1401 98.408 80.2681 98.248 80.3801 98.072L79.0361 97.432ZM92.7161 109.224C91.6921 109.88 89.7561 110.472 88.1401 110.712C88.4441 110.984 88.8281 111.48 89.0361 111.8C90.6841 111.432 92.6841 110.6 93.8041 109.736L92.7161 109.224ZM96.7481 109.88C98.2041 110.44 100.156 111.288 101.148 111.784L102.14 110.92C101.068 110.408 99.1161 109.64 97.7081 109.128L96.7481 109.88ZM97.5961 101.496C97.3721 101.912 97.0041 102.52 96.7001 102.92L97.2761 103.096H92.9081L93.6281 102.904C93.5001 102.536 93.1961 101.944 92.8761 101.496H97.5961ZM95.8681 107.304V106.344H100.78V105.224H95.8681V104.264H101.532V103.096H98.1401C98.4601 102.728 98.8281 102.296 99.1801 101.816L97.9321 101.496H102.124V100.312H99.8361C100.252 99.72 100.732 98.92 101.164 98.136L99.6281 97.736C99.3881 98.456 98.8921 99.464 98.5081 100.104L99.1321 100.312H97.3881V97.56H95.9801V100.312H94.3961V97.56H93.0041V100.312H91.2121L92.0601 99.992C91.8361 99.368 91.2761 98.392 90.7801 97.704L89.4841 98.152C89.9321 98.808 90.4121 99.688 90.6521 100.312H88.2681V101.496H92.3481L91.4201 101.72C91.6921 102.136 91.9641 102.696 92.1241 103.096H88.9081V104.264H94.4121V105.224H89.6921V106.344H94.4121V107.304H88.2041V108.552H94.4121V112.264H95.8681V108.552H102.172V107.304H95.8681ZM107.116 111H108.972V100.776H112.444V99.224H103.66V100.776H107.116V111ZM116.592 111.208C118.768 111.208 120.736 109.528 120.736 106.616C120.736 103.672 118.768 101.976 116.592 101.976C114.416 101.976 112.448 103.672 112.448 106.616C112.448 109.528 114.416 111.208 116.592 111.208ZM116.592 109.704C115.216 109.704 114.352 108.472 114.352 106.616C114.352 104.744 115.216 103.496 116.592 103.496C117.984 103.496 118.848 104.744 118.848 106.616C118.848 108.472 117.984 109.704 116.592 109.704ZM122.9 114.568H124.724V111.72L124.676 110.216C125.428 110.856 126.212 111.208 126.996 111.208C128.98 111.208 130.788 109.48 130.788 106.456C130.788 103.752 129.54 101.976 127.3 101.976C126.324 101.976 125.364 102.52 124.596 103.16H124.548L124.404 102.2H122.9V114.568ZM126.644 109.688C126.1 109.688 125.412 109.48 124.724 108.888V104.584C125.476 103.864 126.132 103.512 126.82 103.512C128.292 103.512 128.884 104.648 128.884 106.488C128.884 108.552 127.924 109.688 126.644 109.688ZM135.874 111.208C137.938 111.208 139.842 109.736 139.842 107.128C139.842 104.552 138.226 103.384 136.258 103.384C135.618 103.384 135.138 103.544 134.642 103.8L134.914 100.776H139.282V99.224H133.314L132.962 104.808L133.858 105.4C134.546 104.952 134.994 104.728 135.746 104.728C137.09 104.728 137.986 105.624 137.986 107.192C137.986 108.76 136.978 109.704 135.65 109.704C134.418 109.704 133.57 109.112 132.898 108.44L132.018 109.64C132.85 110.456 134.018 111.208 135.874 111.208ZM145.271 111.208C147.575 111.208 149.079 109.16 149.079 105.064C149.079 101 147.575 99 145.271 99C142.951 99 141.463 100.984 141.463 105.064C141.463 109.16 142.951 111.208 145.271 111.208ZM145.271 109.752C144.071 109.752 143.223 108.472 143.223 105.064C143.223 101.688 144.071 100.456 145.271 100.456C146.471 100.456 147.319 101.688 147.319 105.064C147.319 108.472 146.471 109.752 145.271 109.752Z" fill="#5B5555"/>
<defs>
<linearGradient id="paint0_linear" x1="81.0014" y1="146.157" x2="81.4142" y2="158.263" gradientUnits="userSpaceOnUse">
<stop stop-color="#FFBA42"/>
<stop offset="0.526042" stop-color="#FFC800"/>
<stop offset="1" stop-color="#FFCE00"/>
</linearGradient>
<linearGradient id="paint1_linear" x1="79.8011" y1="157.366" x2="80.0858" y2="165.715" gradientUnits="userSpaceOnUse">
<stop stop-color="#FFBA42"/>
<stop offset="0.526042" stop-color="#FFC800"/>
<stop offset="1" stop-color="#FFCE00"/>
</linearGradient>
<linearGradient id="paint2_linear" x1="64.1473" y1="140.905" x2="64.6272" y2="154.979" gradientUnits="userSpaceOnUse">
<stop stop-color="#FFBA42"/>
<stop offset="0.526042" stop-color="#FFC800"/>
<stop offset="1" stop-color="#FFCE00"/>
</linearGradient>
<linearGradient id="paint3_linear" x1="61.7219" y1="153.193" x2="61.9823" y2="160.83" gradientUnits="userSpaceOnUse">
<stop stop-color="#FFBA42"/>
<stop offset="0.526042" stop-color="#FFC800"/>
<stop offset="1" stop-color="#FFCE00"/>
</linearGradient>
<linearGradient id="paint4_linear" x1="50.7014" y1="133.482" x2="51.2471" y2="149.488" gradientUnits="userSpaceOnUse">
<stop stop-color="#FFBA42"/>
<stop offset="0.526042" stop-color="#FFC800"/>
<stop offset="1" stop-color="#FFCE00"/>
</linearGradient>
<linearGradient id="paint5_linear" x1="46.9124" y1="146.393" x2="47.1612" y2="153.69" gradientUnits="userSpaceOnUse">
<stop stop-color="#FFBA42"/>
<stop offset="0.526042" stop-color="#FFC800"/>
<stop offset="1" stop-color="#FFCE00"/>
</linearGradient>
<linearGradient id="paint6_linear" x1="37.927" y1="122.194" x2="38.5469" y2="140.374" gradientUnits="userSpaceOnUse">
<stop stop-color="#FFBA42"/>
<stop offset="0.526042" stop-color="#FFC800"/>
<stop offset="1" stop-color="#FFCE00"/>
</linearGradient>
<linearGradient id="paint7_linear" x1="32.2136" y1="134.806" x2="32.4742" y2="142.451" gradientUnits="userSpaceOnUse">
<stop stop-color="#FFBA42"/>
<stop offset="0.526042" stop-color="#FFC800"/>
<stop offset="1" stop-color="#FFCE00"/>
</linearGradient>
<linearGradient id="paint8_linear" x1="28.2492" y1="109.742" x2="28.9056" y2="128.992" gradientUnits="userSpaceOnUse">
<stop stop-color="#FFBA42"/>
<stop offset="0.526042" stop-color="#FFC800"/>
<stop offset="1" stop-color="#FFCE00"/>
</linearGradient>
<linearGradient id="paint9_linear" x1="20.9694" y1="120.542" x2="21.2818" y2="129.705" gradientUnits="userSpaceOnUse">
<stop stop-color="#FFBA42"/>
<stop offset="0.526042" stop-color="#FFC800"/>
<stop offset="1" stop-color="#FFCE00"/>
</linearGradient>
<linearGradient id="paint10_linear" x1="20.0103" y1="94.9043" x2="20.6689" y2="114.22" gradientUnits="userSpaceOnUse">
<stop stop-color="#FFBA42"/>
<stop offset="0.526042" stop-color="#FFC800"/>
<stop offset="1" stop-color="#FFCE00"/>
</linearGradient>
<linearGradient id="paint11_linear" x1="11.6996" y1="102.921" x2="12.0952" y2="114.521" gradientUnits="userSpaceOnUse">
<stop stop-color="#FFBA42"/>
<stop offset="0.526042" stop-color="#FFC800"/>
<stop offset="1" stop-color="#FFCE00"/>
</linearGradient>
<linearGradient id="paint12_linear" x1="15.6528" y1="81.0414" x2="16.2944" y2="99.8587" gradientUnits="userSpaceOnUse">
<stop stop-color="#FFBA42"/>
<stop offset="0.526042" stop-color="#FFC800"/>
<stop offset="1" stop-color="#FFCE00"/>
</linearGradient>
<linearGradient id="paint13_linear" x1="6.74649" y1="86.2729" x2="7.22028" y2="100.168" gradientUnits="userSpaceOnUse">
<stop stop-color="#FFBA42"/>
<stop offset="0.526042" stop-color="#FFC800"/>
<stop offset="1" stop-color="#FFCE00"/>
</linearGradient>
<linearGradient id="paint14_linear" x1="15.0344" y1="65.8193" x2="15.6184" y2="82.9461" gradientUnits="userSpaceOnUse">
<stop stop-color="#FFBA42"/>
<stop offset="0.526042" stop-color="#FFC800"/>
<stop offset="1" stop-color="#FFCE00"/>
</linearGradient>
<linearGradient id="paint15_linear" x1="5.65424" y1="66.5062" x2="6.22567" y2="83.2654" gradientUnits="userSpaceOnUse">
<stop stop-color="#FFBA42"/>
<stop offset="0.526042" stop-color="#FFC800"/>
<stop offset="1" stop-color="#FFCE00"/>
</linearGradient>
<linearGradient id="paint16_linear" x1="17.7084" y1="50.9292" x2="18.2032" y2="65.4422" gradientUnits="userSpaceOnUse">
<stop stop-color="#FFBA42"/>
<stop offset="0.526042" stop-color="#FFC800"/>
<stop offset="1" stop-color="#FFCE00"/>
</linearGradient>
<linearGradient id="paint17_linear" x1="8.40137" y1="47.1761" x2="9.03485" y2="65.7551" gradientUnits="userSpaceOnUse">
<stop stop-color="#FFBA42"/>
<stop offset="0.526042" stop-color="#FFC800"/>
<stop offset="1" stop-color="#FFCE00"/>
</linearGradient>
<linearGradient id="paint18_linear" x1="23.4208" y1="39.1482" x2="23.8045" y2="50.3994" gradientUnits="userSpaceOnUse">
<stop stop-color="#FFBA42"/>
<stop offset="0.526042" stop-color="#FFC800"/>
<stop offset="1" stop-color="#FFCE00"/>
</linearGradient>
<linearGradient id="paint19_linear" x1="14.6837" y1="31.3155" x2="15.3434" y2="50.6641" gradientUnits="userSpaceOnUse">
<stop stop-color="#FFBA42"/>
<stop offset="0.526042" stop-color="#FFC800"/>
<stop offset="1" stop-color="#FFCE00"/>
</linearGradient>
<linearGradient id="paint20_linear" x1="30.4024" y1="28.1239" x2="30.7204" y2="37.4514" gradientUnits="userSpaceOnUse">
<stop stop-color="#FFBA42"/>
<stop offset="0.526042" stop-color="#FFC800"/>
<stop offset="1" stop-color="#FFCE00"/>
</linearGradient>
<linearGradient id="paint21_linear" x1="22.3438" y1="18.0421" x2="23.0014" y2="37.3288" gradientUnits="userSpaceOnUse">
<stop stop-color="#FFBA42"/>
<stop offset="0.526042" stop-color="#FFC800"/>
<stop offset="1" stop-color="#FFCE00"/>
</linearGradient>
<linearGradient id="paint22_linear" x1="114.507" y1="144.294" x2="114.919" y2="156.4" gradientUnits="userSpaceOnUse">
<stop stop-color="#FFBA42"/>
<stop offset="0.526042" stop-color="#FFC800"/>
<stop offset="1" stop-color="#FFCE00"/>
</linearGradient>
<linearGradient id="paint23_linear" x1="116.441" y1="155.396" x2="116.725" y2="163.746" gradientUnits="userSpaceOnUse">
<stop stop-color="#FFBA42"/>
<stop offset="0.526042" stop-color="#FFC800"/>
<stop offset="1" stop-color="#FFCE00"/>
</linearGradient>
<linearGradient id="paint24_linear" x1="128.937" y1="138.697" x2="129.417" y2="152.77" gradientUnits="userSpaceOnUse">
<stop stop-color="#FFBA42"/>
<stop offset="0.526042" stop-color="#FFC800"/>
<stop offset="1" stop-color="#FFCE00"/>
</linearGradient>
<linearGradient id="paint25_linear" x1="132.167" y1="150.791" x2="132.427" y2="158.428" gradientUnits="userSpaceOnUse">
<stop stop-color="#FFBA42"/>
<stop offset="0.526042" stop-color="#FFC800"/>
<stop offset="1" stop-color="#FFCE00"/>
</linearGradient>
<linearGradient id="paint26_linear" x1="141.827" y1="129.834" x2="142.373" y2="145.839" gradientUnits="userSpaceOnUse">
<stop stop-color="#FFBA42"/>
<stop offset="0.526042" stop-color="#FFC800"/>
<stop offset="1" stop-color="#FFCE00"/>
</linearGradient>
<linearGradient id="paint27_linear" x1="146.457" y1="142.456" x2="146.706" y2="149.753" gradientUnits="userSpaceOnUse">
<stop stop-color="#FFBA42"/>
<stop offset="0.526042" stop-color="#FFC800"/>
<stop offset="1" stop-color="#FFCE00"/>
</linearGradient>
<linearGradient id="paint28_linear" x1="153.428" y1="117.971" x2="154.048" y2="136.151" gradientUnits="userSpaceOnUse">
<stop stop-color="#FFBA42"/>
<stop offset="0.526042" stop-color="#FFC800"/>
<stop offset="1" stop-color="#FFCE00"/>
</linearGradient>
<linearGradient id="paint29_linear" x1="159.96" y1="130.167" x2="160.221" y2="137.811" gradientUnits="userSpaceOnUse">
<stop stop-color="#FFBA42"/>
<stop offset="0.526042" stop-color="#FFC800"/>
<stop offset="1" stop-color="#FFCE00"/>
</linearGradient>
<linearGradient id="paint30_linear" x1="162.737" y1="104.111" x2="163.394" y2="123.362" gradientUnits="userSpaceOnUse">
<stop stop-color="#FFBA42"/>
<stop offset="0.526042" stop-color="#FFC800"/>
<stop offset="1" stop-color="#FFCE00"/>
</linearGradient>
<linearGradient id="paint31_linear" x1="170.71" y1="114.392" x2="171.022" y2="123.554" gradientUnits="userSpaceOnUse">
<stop stop-color="#FFBA42"/>
<stop offset="0.526042" stop-color="#FFC800"/>
<stop offset="1" stop-color="#FFCE00"/>
</linearGradient>
<linearGradient id="paint32_linear" x1="169.131" y1="89.5537" x2="169.79" y2="108.87" gradientUnits="userSpaceOnUse">
<stop stop-color="#FFBA42"/>
<stop offset="0.526042" stop-color="#FFC800"/>
<stop offset="1" stop-color="#FFCE00"/>
</linearGradient>
<linearGradient id="paint33_linear" x1="177.95" y1="96.9864" x2="178.345" y2="108.587" gradientUnits="userSpaceOnUse">
<stop stop-color="#FFBA42"/>
<stop offset="0.526042" stop-color="#FFC800"/>
<stop offset="1" stop-color="#FFCE00"/>
</linearGradient>
<linearGradient id="paint34_linear" x1="172.567" y1="75.4008" x2="173.208" y2="94.2189" gradientUnits="userSpaceOnUse">
<stop stop-color="#FFBA42"/>
<stop offset="0.526042" stop-color="#FFC800"/>
<stop offset="1" stop-color="#FFCE00"/>
</linearGradient>
<linearGradient id="paint35_linear" x1="181.796" y1="80.0136" x2="182.269" y2="93.9091" gradientUnits="userSpaceOnUse">
<stop stop-color="#FFBA42"/>
<stop offset="0.526042" stop-color="#FFC800"/>
<stop offset="1" stop-color="#FFCE00"/>
</linearGradient>
<linearGradient id="paint36_linear" x1="172.127" y1="60.6811" x2="172.711" y2="77.8071" gradientUnits="userSpaceOnUse">
<stop stop-color="#FFBA42"/>
<stop offset="0.526042" stop-color="#FFC800"/>
<stop offset="1" stop-color="#FFCE00"/>
</linearGradient>
<linearGradient id="paint37_linear" x1="181.532" y1="60.7279" x2="182.103" y2="77.4871" gradientUnits="userSpaceOnUse">
<stop stop-color="#FFBA42"/>
<stop offset="0.526042" stop-color="#FFC800"/>
<stop offset="1" stop-color="#FFCE00"/>
</linearGradient>
<linearGradient id="paint38_linear" x1="168.352" y1="46.0005" x2="168.847" y2="60.5144" gradientUnits="userSpaceOnUse">
<stop stop-color="#FFBA42"/>
<stop offset="0.526042" stop-color="#FFC800"/>
<stop offset="1" stop-color="#FFCE00"/>
</linearGradient>
<linearGradient id="paint39_linear" x1="177.391" y1="41.6224" x2="178.024" y2="60.2014" gradientUnits="userSpaceOnUse">
<stop stop-color="#FFBA42"/>
<stop offset="0.526042" stop-color="#FFC800"/>
<stop offset="1" stop-color="#FFCE00"/>
</linearGradient>
<linearGradient id="paint40_linear" x1="162.041" y1="34.8455" x2="162.425" y2="46.0975" gradientUnits="userSpaceOnUse">
<stop stop-color="#FFBA42"/>
<stop offset="0.526042" stop-color="#FFC800"/>
<stop offset="1" stop-color="#FFCE00"/>
</linearGradient>
<linearGradient id="paint41_linear" x1="170.243" y1="26.4341" x2="170.903" y2="45.7835" gradientUnits="userSpaceOnUse">
<stop stop-color="#FFBA42"/>
<stop offset="0.526042" stop-color="#FFC800"/>
<stop offset="1" stop-color="#FFCE00"/>
</linearGradient>
<linearGradient id="paint42_linear" x1="153.954" y1="24.42" x2="154.272" y2="33.7473" gradientUnits="userSpaceOnUse">
<stop stop-color="#FFBA42"/>
<stop offset="0.526042" stop-color="#FFC800"/>
<stop offset="1" stop-color="#FFCE00"/>
</linearGradient>
<linearGradient id="paint43_linear" x1="161.331" y1="13.8133" x2="161.989" y2="33.0993" gradientUnits="userSpaceOnUse">
<stop stop-color="#FFBA42"/>
<stop offset="0.526042" stop-color="#FFC800"/>
<stop offset="1" stop-color="#FFCE00"/>
</linearGradient>
<linearGradient id="paint44_linear" x1="92.0208" y1="18.1225" x2="96.8046" y2="158.424" gradientUnits="userSpaceOnUse">
<stop stop-color="#FFBA42"/>
<stop offset="0.526042" stop-color="#FFC800"/>
<stop offset="1" stop-color="#FFCE00"/>
</linearGradient>
<linearGradient id="paint45_linear" x1="42.0302" y1="18.1318" x2="42.292" y2="25.8098" gradientUnits="userSpaceOnUse">
<stop stop-color="#FFBA42"/>
<stop offset="0.526042" stop-color="#FFC800"/>
<stop offset="1" stop-color="#FFCE00"/>
</linearGradient>
<linearGradient id="paint46_linear" x1="35.4348" y1="5.98173" x2="36.0567" y2="24.2222" gradientUnits="userSpaceOnUse">
<stop stop-color="#FFBA42"/>
<stop offset="0.526042" stop-color="#FFC800"/>
<stop offset="1" stop-color="#FFCE00"/>
</linearGradient>
<linearGradient id="paint47_linear" x1="142.248" y1="14.7148" x2="142.51" y2="22.3928" gradientUnits="userSpaceOnUse">
<stop stop-color="#FFBA42"/>
<stop offset="0.526042" stop-color="#FFC800"/>
<stop offset="1" stop-color="#FFCE00"/>
</linearGradient>
<linearGradient id="paint48_linear" x1="148.03" y1="2.14285" x2="148.651" y2="20.3833" gradientUnits="userSpaceOnUse">
<stop stop-color="#FFBA42"/>
<stop offset="0.526042" stop-color="#FFC800"/>
<stop offset="1" stop-color="#FFCE00"/>
</linearGradient>
</defs>
</svg>
