<svg width="189" height="167" viewBox="0 0 189 167" fill="none" xmlns="http://www.w3.org/2000/svg">
<path d="M83.3782 149.288C87.662 152.488 88.9576 158.006 88.9576 158.006C88.9576 158.006 83.3082 158.331 79.0244 155.13C74.7399 151.93 73.4436 146.416 73.4436 146.416C73.4436 146.416 79.0922 146.087 83.3782 149.288Z" fill="url(#paint0_linear)"/>
<path d="M78.6164 158.147C83.5963 156.195 88.9575 158.005 88.9575 158.005C88.9575 158.005 86.2434 162.979 81.2612 164.934C76.2813 166.886 70.9194 165.077 70.9194 165.077C70.9194 165.077 73.6342 160.101 78.6164 158.147Z" fill="url(#paint1_linear)"/>
<path d="M66.936 145.349C70.7402 149.11 71.2651 154.752 71.2651 154.752C71.2651 154.752 65.6247 154.297 61.822 150.536C58.0194 146.776 57.4929 141.132 57.4929 141.132C57.4929 141.132 63.1333 141.587 66.936 145.349Z" fill="url(#paint2_linear)"/>
<path d="M61.0032 153.468C66.2045 152.221 71.2649 154.752 71.2649 154.752C71.2649 154.752 67.8932 159.307 62.6912 160.554C57.49 161.803 52.4304 159.271 52.4304 159.271C52.4304 159.271 55.802 154.716 61.0032 153.468Z" fill="url(#paint3_linear)"/>
<path d="M53.901 139.329C57.0605 143.646 56.6862 149.302 56.6862 149.302C56.6862 149.302 51.1916 147.96 48.0313 143.642C44.8711 139.325 45.243 133.669 45.243 133.669C45.243 133.669 50.7407 135.011 53.901 139.329Z" fill="url(#paint4_linear)"/>
<path d="M46.7596 146.408C52.0918 146.001 56.6872 149.303 56.6872 149.303C56.6872 149.303 52.6385 153.266 47.3056 153.674C41.9734 154.082 37.378 150.78 37.378 150.78C37.378 150.78 41.4274 146.816 46.7596 146.408Z" fill="url(#paint5_linear)"/>
<path d="M41.5954 129.905C43.6134 134.861 41.8815 140.26 41.8815 140.26C41.8815 140.26 36.8761 137.62 34.8581 132.663C32.8385 127.705 34.5697 122.308 34.5697 122.308C34.5697 122.308 39.5758 124.947 41.5954 129.905Z" fill="url(#paint6_linear)"/>
<path d="M32.954 135.036C38.2244 135.937 41.882 140.259 41.882 140.259C41.882 140.259 36.9937 143.121 31.7234 142.221C26.4522 141.32 22.7969 136.998 22.7969 136.998C22.7969 136.998 27.6836 134.136 32.954 135.036Z" fill="url(#paint7_linear)"/>
<path d="M32.1629 118.82C32.9616 124.114 30.0102 128.954 30.0102 128.954C30.0102 128.954 25.7664 125.21 24.9692 119.915C24.1705 114.62 27.1211 109.781 27.1211 109.781C27.1211 109.781 31.3657 113.525 32.1629 118.82Z" fill="url(#paint8_linear)"/>
<path d="M22.5611 121.776C27.4714 123.893 30.0102 128.955 30.0102 128.955C30.0102 128.955 24.5895 130.587 19.6792 128.47C14.7705 126.355 12.2302 121.292 12.2302 121.292C12.2302 121.292 17.6523 119.66 22.5611 121.776Z" fill="url(#paint9_linear)"/>
<path d="M23.9618 104.742C23.6923 110.091 19.8404 114.248 19.8404 114.248C19.8404 114.248 16.4253 109.732 16.6949 104.383C16.9644 99.0334 20.8148 94.8769 20.8148 94.8769C20.8148 94.8769 24.2313 99.3921 23.9618 104.742Z" fill="url(#paint10_linear)"/>
<path d="M13.9667 105.727C18.3581 108.779 19.8402 114.248 19.8402 114.248C19.8402 114.248 14.2049 114.768 9.81347 111.716C5.42357 108.663 3.94074 103.195 3.94074 103.195C3.94074 103.195 9.57683 102.676 13.9667 105.727Z" fill="url(#paint11_linear)"/>
<path d="M19.5213 91.2032C18.4102 96.4432 13.9506 99.9386 13.9506 99.9386C13.9506 99.9386 11.2928 94.937 12.4039 89.6969C13.5166 84.4576 17.9739 80.9623 17.9739 80.9623C17.9739 80.9623 20.6324 85.9632 19.5213 91.2032Z" fill="url(#paint12_linear)"/>
<path d="M9.49825 90.5927C13.3509 94.3029 13.9504 99.9389 13.9504 99.9389C13.9504 99.9389 8.30474 99.5594 4.45212 95.8492C0.600266 92.1389 0 86.5029 0 86.5029C0 86.5029 5.6464 86.8824 9.49825 90.5927Z" fill="url(#paint13_linear)"/>
<path d="M18.5853 75.9794C16.239 80.7939 11.0657 83.1013 11.0657 83.1013C11.0657 83.1013 9.70139 77.6028 12.0469 72.7876C14.3947 67.973 19.5656 65.6648 19.5656 65.6648C19.5656 65.6648 20.9331 71.1648 18.5853 75.9794Z" fill="url(#paint14_linear)"/>
<path d="M9.01481 72.9496C11.8508 77.4862 11.0665 83.1004 11.0665 83.1004C11.0665 83.1004 5.68446 81.3591 2.84693 76.8226C0.00939854 72.2861 0.79366 66.6719 0.79366 66.6719C0.79366 66.6719 6.17728 68.4131 9.01481 72.9496Z" fill="url(#paint15_linear)"/>
<path d="M20.7488 60.5064C17.3384 64.6345 11.7707 65.6616 11.7707 65.6616C11.7707 65.6616 11.7345 59.9938 15.1463 55.8648C18.5567 51.7367 24.1237 50.7105 24.1237 50.7105C24.1237 50.7105 24.1615 56.3782 20.7488 60.5064Z" fill="url(#paint16_linear)"/>
<path d="M12.1577 55.3087C13.8505 60.3872 11.7715 65.6618 11.7715 65.6618C11.7715 65.6618 6.94825 62.7011 5.25618 57.6217C3.56416 52.544 5.64321 47.2702 5.64321 47.2702C5.64321 47.2702 10.4656 50.2302 12.1577 55.3087Z" fill="url(#paint17_linear)"/>
<path d="M25.8054 47.674C21.5448 50.9162 15.8935 50.6444 15.8935 50.6444C15.8935 50.6444 17.147 45.1163 21.4068 41.8741C25.6666 38.6319 31.3187 38.9037 31.3187 38.9037C31.3187 38.9037 30.0644 44.4326 25.8054 47.674Z" fill="url(#paint18_linear)"/>
<path d="M18.6243 40.6517C19.1158 45.9838 15.8926 50.6454 15.8926 50.6454C15.8926 50.6454 11.8707 46.6624 11.3798 41.3295C10.8883 35.9974 14.1122 31.335 14.1122 31.335C14.1122 31.335 18.1326 35.3188 18.6243 40.6517Z" fill="url(#paint19_linear)"/>
<path d="M32.269 36C27.5517 38.5273 22.0143 37.3634 22.0143 37.3634C22.0143 37.3634 24.1262 32.1026 28.8428 29.5761C33.5617 27.0487 39.0975 28.2119 39.0975 28.2119C39.0975 28.2119 36.9864 33.4734 32.269 36Z" fill="url(#paint20_linear)"/>
<path d="M26.2908 27.9257C25.934 33.2695 22.0144 37.3624 22.0144 37.3624C22.0144 37.3624 18.6746 32.7905 19.0314 27.4467C19.389 22.1021 23.3086 18.0092 23.3086 18.0092C23.3086 18.0092 26.6491 22.5811 26.2908 27.9257Z" fill="url(#paint21_linear)"/>
<path d="M112.342 147.58C108.277 151.066 107.347 156.657 107.347 156.657C107.347 156.657 113.006 156.598 117.069 153.114C121.135 149.629 122.064 144.037 122.064 144.037C122.064 144.037 116.406 144.095 112.342 147.58Z" fill="url(#paint22_linear)"/>
<path d="M117.676 156.096C112.578 154.487 107.347 156.657 107.347 156.657C107.347 156.657 110.383 161.437 115.481 163.047C120.579 164.656 125.809 162.486 125.809 162.486C125.809 162.486 122.774 157.705 117.676 156.096Z" fill="url(#paint23_linear)"/>
<path d="M126.448 143.32C122.9 147.332 122.746 152.998 122.746 152.998C122.746 152.998 128.345 152.16 131.891 148.148C135.438 144.137 135.591 138.47 135.591 138.47C135.591 138.47 129.995 139.308 126.448 143.32Z" fill="url(#paint24_linear)"/>
<path d="M132.901 151.017C127.63 150.127 122.747 152.997 122.747 152.997C122.747 152.997 126.412 157.311 131.683 158.202C136.956 159.094 141.838 156.223 141.838 156.223C141.838 156.223 138.174 151.907 132.901 151.017Z" fill="url(#paint25_linear)"/>
<path d="M139.02 135.885C136.152 140.407 136.896 146.026 136.896 146.026C136.896 146.026 142.29 144.31 145.16 139.787C148.029 135.266 147.286 129.648 147.286 129.648C147.286 129.648 141.889 131.362 139.02 135.885Z" fill="url(#paint26_linear)"/>
<path d="M146.611 142.461C141.263 142.418 136.895 146.026 136.895 146.026C136.895 146.026 141.196 149.705 146.544 149.748C151.891 149.792 156.259 146.183 156.259 146.183C156.259 146.183 151.958 142.505 146.611 142.461Z" fill="url(#paint27_linear)"/>
<path d="M150.276 125.914C148.587 130.998 150.671 136.266 150.671 136.266C150.671 136.266 155.491 133.291 157.18 128.208C158.868 123.123 156.784 117.856 156.784 117.856C156.784 117.856 151.964 120.831 150.276 125.914Z" fill="url(#paint28_linear)"/>
<path d="M159.235 130.447C154.036 131.705 150.672 136.266 150.672 136.266C150.672 136.266 155.735 138.789 160.936 137.531C166.135 136.274 169.5 131.713 169.5 131.713C169.5 131.713 164.435 129.19 159.235 130.447Z" fill="url(#paint29_linear)"/>
<path d="M159.428 113.435C158.981 118.773 162.243 123.402 162.243 123.402C162.243 123.402 166.231 119.376 166.68 114.039C167.127 108.701 163.866 104.072 163.866 104.072C163.866 104.072 159.878 108.099 159.428 113.435Z" fill="url(#paint30_linear)"/>
<path d="M169.203 115.731C164.444 118.177 162.243 123.402 162.243 123.402C162.243 123.402 167.76 124.66 172.519 122.214C177.28 119.768 179.479 114.545 179.479 114.545C179.479 114.545 173.962 113.286 169.203 115.731Z" fill="url(#paint31_linear)"/>
<path d="M165.836 99.6389C166.456 104.958 170.573 108.844 170.573 108.844C170.573 108.844 173.683 104.104 173.063 98.7867C172.442 93.4668 168.326 89.5812 168.326 89.5812C168.326 89.5812 165.216 94.3197 165.836 99.6389Z" fill="url(#paint32_linear)"/>
<path d="M175.872 99.9416C171.692 103.286 170.572 108.843 170.572 108.843C170.572 108.843 176.229 108.977 180.41 105.632C184.589 102.289 185.709 96.7313 185.709 96.7313C185.709 96.7313 180.052 96.597 175.872 99.9416Z" fill="url(#paint33_linear)"/>
<path d="M169.375 85.8041C170.828 90.9567 175.507 94.1405 175.507 94.1405C175.507 94.1405 177.831 88.969 176.377 83.8164C174.923 78.6638 170.245 75.48 170.245 75.48C170.245 75.48 167.922 80.6507 169.375 85.8041Z" fill="url(#paint34_linear)"/>
<path d="M179.335 84.5119C175.735 88.4762 175.506 94.1397 175.506 94.1397C175.506 94.1397 181.115 93.3756 184.715 89.4113C188.314 85.447 188.543 79.7836 188.543 79.7836C188.543 79.7836 182.934 80.5476 179.335 84.5119Z" fill="url(#paint35_linear)"/>
<path d="M169.252 71.0595C171.91 75.7033 177.222 77.6533 177.222 77.6533C177.222 77.6533 178.224 72.0741 175.565 67.4295C172.906 62.7849 167.594 60.8357 167.594 60.8357C167.594 60.8357 166.593 66.4156 169.252 71.0595Z" fill="url(#paint36_linear)"/>
<path d="M178.603 67.3857C176.071 72.1053 177.222 77.6535 177.222 77.6535C177.222 77.6535 182.479 75.5496 185.011 70.8299C187.544 66.1103 186.393 60.5621 186.393 60.5621C186.393 60.5621 181.136 62.6661 178.603 67.3857Z" fill="url(#paint37_linear)"/>
<path d="M165.948 55.7641C169.623 59.6507 175.244 60.2962 175.244 60.2962C175.244 60.2962 174.909 54.6379 171.234 50.7513C167.56 46.8648 161.938 46.2192 161.938 46.2192C161.938 46.2192 162.273 51.8776 165.948 55.7641Z" fill="url(#paint38_linear)"/>
<path d="M174.178 49.9926C172.823 55.175 175.244 60.2962 175.244 60.2962C175.244 60.2962 179.862 57.0128 181.216 51.8304C182.569 46.6488 180.149 41.5284 180.149 41.5284C180.149 41.5284 175.532 44.8094 174.178 49.9926Z" fill="url(#paint39_linear)"/>
<path d="M160.223 43.5146C164.686 46.4602 170.307 45.804 170.307 45.804C170.307 45.804 168.694 40.3736 164.23 37.4281C159.767 34.4833 154.146 35.1395 154.146 35.1395C154.146 35.1395 155.759 40.5706 160.223 43.5146Z" fill="url(#paint40_linear)"/>
<path d="M166.925 36.0178C166.785 41.3715 170.307 45.8038 170.307 45.8038C170.307 45.8038 174.058 41.555 174.198 36.2006C174.338 30.8462 170.815 26.4146 170.815 26.4146C170.815 26.4146 167.064 30.6642 166.925 36.0178Z" fill="url(#paint41_linear)"/>
<path d="M152.609 32.4054C157.482 34.6057 162.93 33.0672 162.93 33.0672C162.93 33.0672 160.477 27.962 155.605 25.7617C150.731 23.5622 145.284 25.1006 145.284 25.1006C145.284 25.1006 147.736 30.2058 152.609 32.4054Z" fill="url(#paint42_linear)"/>
<path d="M158.043 23.9429C158.751 29.2504 162.931 33.0672 162.931 33.0672C162.931 33.0672 165.963 28.2779 165.254 22.9705C164.547 17.6622 160.367 13.8462 160.367 13.8462C160.367 13.8462 157.335 18.6347 158.043 23.9429Z" fill="url(#paint43_linear)"/>
<path d="M148.215 16.2065C148.005 16.4427 147.766 16.6784 147.485 16.9124C147.404 16.9803 147.321 17.0271 147.236 17.0865C164.475 31.0388 175.718 51.6986 176.487 75.0452C177.926 118.769 142.087 155.602 96.597 157.153C51.1057 158.704 12.9266 124.395 11.4874 80.6711C10.753 58.3599 19.729 37.8455 34.7371 22.8949C34.2923 22.779 33.843 22.6186 33.3889 22.4081C18.376 37.5644 9.42007 58.2421 10.1598 80.7163C11.6221 125.143 50.4161 160.005 96.639 158.429C142.861 156.853 179.276 119.426 177.814 74.9999C177.035 51.3336 165.661 30.3832 148.215 16.2065Z" fill="url(#paint44_linear)"/>
<path d="M43.0402 25.5048C37.8517 26.8092 32.7639 24.3345 32.7639 24.3345C32.7639 24.3345 36.0857 19.7426 41.2727 18.4374C46.4612 17.1322 51.5491 19.6076 51.5491 19.6076C51.5491 19.6076 48.2272 24.1996 43.0402 25.5048Z" fill="url(#paint45_linear)"/>
<path d="M39.1969 16.2169C37.5561 21.3157 32.764 24.3344 32.764 24.3344C32.764 24.3344 30.6316 19.0865 32.2723 13.9869C33.9138 8.88809 38.7068 5.87016 38.7068 5.87016C38.7068 5.87016 40.8384 11.1173 39.1969 16.2169Z" fill="url(#paint46_linear)"/>
<path d="M141.726 22.14C146.988 23.0881 151.902 20.2724 151.902 20.2724C151.902 20.2724 148.284 15.9171 143.023 14.9682C137.762 14.0192 132.847 16.8357 132.847 16.8357C132.847 16.8357 136.465 21.1911 141.726 22.14Z" fill="url(#paint47_linear)"/>
<path d="M144.949 12.6114C146.923 17.5869 151.902 20.2724 151.902 20.2724C151.902 20.2724 153.683 14.8911 151.712 9.91468C149.738 4.93912 144.757 2.25443 144.757 2.25443C144.757 2.25443 142.975 7.63502 144.949 12.6114Z" fill="url(#paint48_linear)"/>
<path d="M74.596 51.57H71.274V53.99H80.844V51.57H77.192V49.7H81.592V47.324H77.192V45.366H74.596V47.324H70.46V49.7H74.596V51.57ZM69.778 56.014L67.952 56.432V52.142H69.844V49.656H67.952V45.388H65.466V49.656H64.586C64.696 48.886 64.784 48.138 64.85 47.368L62.87 47.06C62.672 49.744 62.254 52.582 61.55 54.364C62.034 54.518 62.958 54.87 63.398 55.068C63.706 54.276 63.97 53.242 64.19 52.142H65.466V56.982C64.146 57.246 62.892 57.51 61.924 57.686L62.562 60.348L65.466 59.6V65.914H67.952V58.984L70.064 58.434L69.778 56.014ZM71.384 59.644C72.33 60.7 73.43 62.174 73.892 63.098L75.96 61.756C75.432 60.832 74.266 59.424 73.32 58.456L71.384 59.644ZM82.076 55.992H79.964V54.452H77.368V55.992H70.372V58.39H77.368V62.922C77.368 63.208 77.28 63.296 76.95 63.296C76.598 63.296 75.41 63.296 74.376 63.252C74.706 64 75.058 65.078 75.168 65.848C76.774 65.848 78.006 65.782 78.842 65.386C79.722 64.968 79.964 64.286 79.964 62.988V58.39H82.076V55.992ZM87.268 48.688H91.404V51.702H87.268V48.688ZM89.512 55.838C89.556 55.244 89.6 54.628 89.644 54.034H93.934V46.378H84.892V54.034H87.092C86.916 57.686 86.476 61.646 83.594 64.022C84.21 64.462 84.958 65.276 85.332 65.936C87.664 63.956 88.698 61.14 89.204 58.126H91.646C91.492 61.602 91.294 63.01 90.964 63.384C90.766 63.626 90.568 63.67 90.238 63.67C89.842 63.67 88.962 63.67 88.082 63.56C88.456 64.198 88.72 65.144 88.742 65.826C89.798 65.87 90.81 65.848 91.404 65.76C92.108 65.672 92.614 65.474 93.054 64.946C93.67 64.198 93.89 62.086 94.11 56.784C94.11 56.476 94.132 55.838 94.132 55.838H89.512ZM98.136 48.028H95.584V60.414H98.136V48.028ZM100.754 45.806V62.746C100.754 63.142 100.578 63.274 100.16 63.274C99.698 63.274 98.29 63.274 96.86 63.23C97.256 63.956 97.652 65.166 97.762 65.936C99.764 65.936 101.238 65.848 102.14 65.43C103.042 65.012 103.35 64.286 103.35 62.746V45.806H100.754ZM110.61 53.902V57.95H112.986V45.41H110.61V48.688H108.96V45.916H106.782V50.668H110.61V51.878H105.924V53.902H107.156C107.134 54.716 106.892 56.256 105.704 57.18C106.298 57.422 107.244 57.95 107.684 58.302C109.136 57.092 109.444 54.936 109.444 53.902H110.61ZM116.418 52.318C118.068 52.01 119.608 51.57 120.994 50.954V52.318H116.418ZM122.38 47.874C121.918 48.358 121.346 48.776 120.708 49.15C120.29 48.732 119.806 48.27 119.322 47.874H122.38ZM126.252 61.448V59.292H122.6L123.106 58.786C122.71 58.368 122.05 57.862 121.39 57.422C121.852 57.378 122.248 57.312 122.556 57.18C123.282 56.872 123.48 56.41 123.48 55.376V54.012H125.966V52.318H123.48V50.91H121.082C122.952 50.052 124.492 48.842 125.46 47.082L124.118 46.4L123.7 46.466H120.642C120.972 46.224 121.28 45.982 121.588 45.718L119.432 45.278C118.288 46.136 116.308 46.906 113.668 47.434C114.086 47.742 114.68 48.446 114.944 48.908C115.802 48.666 116.616 48.402 117.32 48.138C117.98 48.666 118.662 49.304 119.146 49.854C117.518 50.492 115.626 50.888 113.646 51.086C113.932 51.394 114.284 51.878 114.504 52.318H113.646V54.012H115.824L114.922 54.694C115.736 55.222 116.66 56.058 117.078 56.63L118.794 55.332C118.486 54.914 117.914 54.452 117.342 54.012H120.994V55.288C120.994 55.508 120.928 55.574 120.686 55.596C120.444 55.596 119.63 55.596 118.926 55.552C119.19 56.124 119.476 56.85 119.564 57.444H120.4L119.608 58.192C120.07 58.5 120.598 58.896 121.06 59.292H117.232C117.254 59.116 117.254 58.962 117.254 58.786V57.246H114.658V58.698C114.658 58.896 114.636 59.094 114.614 59.292H105.792V61.448H113.14C111.886 62.438 109.642 63.34 105.682 63.934C106.166 64.506 106.826 65.43 107.134 66.046C112.986 65.1 115.56 63.296 116.594 61.448H117.254L116.572 62.548C119.322 63.494 123.238 64.99 125.152 65.936L126.34 63.89C124.778 63.208 122.116 62.24 119.762 61.448H126.252ZM117.628 48.886C116.352 48.974 115.274 49.062 114.35 49.128L114.57 50.448C115.56 50.338 116.572 50.228 117.65 50.118L117.628 48.886Z" fill="#5B5555"/>
<path d="M81.1856 8.78C81.1856 9.28667 81.0856 9.77333 80.8856 10.24C80.6856 10.7067 80.4256 11.16 80.1056 11.6C79.7856 12.0267 79.4256 12.44 79.0256 12.84C78.6256 13.24 78.2323 13.62 77.8456 13.98C77.6456 14.1667 77.4256 14.38 77.1856 14.62C76.959 14.8467 76.739 15.08 76.5256 15.32C76.3123 15.56 76.119 15.7867 75.9456 16C75.7856 16.2 75.6856 16.3667 75.6456 16.5H81.6056V19H72.3656C72.339 18.8533 72.3256 18.6667 72.3256 18.44C72.3256 18.2133 72.3256 18.0533 72.3256 17.96C72.3256 17.32 72.4256 16.7333 72.6256 16.2C72.839 15.6667 73.1123 15.1733 73.4456 14.72C73.779 14.2533 74.1523 13.82 74.5656 13.42C74.9923 13.02 75.4123 12.62 75.8256 12.22C76.1456 11.9133 76.4456 11.6267 76.7256 11.36C77.0056 11.08 77.2523 10.8133 77.4656 10.56C77.679 10.2933 77.8456 10.0333 77.9656 9.78C78.0856 9.51333 78.1456 9.24667 78.1456 8.98C78.1456 8.39333 77.979 7.98 77.6456 7.74C77.3123 7.5 76.899 7.38 76.4056 7.38C76.0456 7.38 75.7056 7.44 75.3856 7.56C75.079 7.66667 74.7923 7.8 74.5256 7.96C74.2723 8.10667 74.0523 8.26 73.8656 8.42C73.679 8.56667 73.539 8.68667 73.4456 8.78L71.9656 6.7C72.5523 6.15333 73.2323 5.70667 74.0056 5.36C74.7923 5 75.6323 4.82 76.5256 4.82C77.339 4.82 78.039 4.91333 78.6256 5.1C79.2123 5.28667 79.6923 5.55333 80.0656 5.9C80.4523 6.23333 80.7323 6.64667 80.9056 7.14C81.0923 7.62 81.1856 8.16667 81.1856 8.78ZM93.3128 12.04C93.3128 14.3733 92.8661 16.1667 91.9728 17.42C91.0928 18.66 89.8728 19.28 88.3128 19.28C86.7528 19.28 85.5261 18.66 84.6328 17.42C83.7528 16.1667 83.3128 14.3733 83.3128 12.04C83.3128 10.88 83.4261 9.85333 83.6528 8.96C83.8928 8.06667 84.2328 7.31333 84.6728 6.7C85.1128 6.08667 85.6395 5.62 86.2528 5.3C86.8661 4.98 87.5528 4.82 88.3128 4.82C89.8728 4.82 91.0928 5.44667 91.9728 6.7C92.8661 7.94 93.3128 9.72 93.3128 12.04ZM90.2728 12.04C90.2728 11.3467 90.2395 10.72 90.1728 10.16C90.1061 9.58667 89.9995 9.09333 89.8528 8.68C89.7061 8.26667 89.5061 7.94667 89.2528 7.72C88.9995 7.49333 88.6861 7.38 88.3128 7.38C87.9395 7.38 87.6261 7.49333 87.3728 7.72C87.1328 7.94667 86.9328 8.26667 86.7728 8.68C86.6261 9.09333 86.5195 9.58667 86.4528 10.16C86.3861 10.72 86.3528 11.3467 86.3528 12.04C86.3528 12.7333 86.3861 13.3667 86.4528 13.94C86.5195 14.5133 86.6261 15.0067 86.7728 15.42C86.9328 15.8333 87.1328 16.1533 87.3728 16.38C87.6261 16.6067 87.9395 16.72 88.3128 16.72C88.6861 16.72 88.9995 16.6067 89.2528 16.38C89.5061 16.1533 89.7061 15.8333 89.8528 15.42C89.9995 15.0067 90.1061 14.5133 90.1728 13.94C90.2395 13.3667 90.2728 12.7333 90.2728 12.04ZM103.92 8.78C103.92 9.28667 103.82 9.77333 103.62 10.24C103.42 10.7067 103.16 11.16 102.84 11.6C102.52 12.0267 102.16 12.44 101.76 12.84C101.36 13.24 100.967 13.62 100.58 13.98C100.38 14.1667 100.16 14.38 99.92 14.62C99.6933 14.8467 99.4733 15.08 99.26 15.32C99.0467 15.56 98.8533 15.7867 98.68 16C98.52 16.2 98.42 16.3667 98.38 16.5H104.34V19H95.1C95.0733 18.8533 95.06 18.6667 95.06 18.44C95.06 18.2133 95.06 18.0533 95.06 17.96C95.06 17.32 95.16 16.7333 95.36 16.2C95.5733 15.6667 95.8467 15.1733 96.18 14.72C96.5133 14.2533 96.8867 13.82 97.3 13.42C97.7267 13.02 98.1467 12.62 98.56 12.22C98.88 11.9133 99.18 11.6267 99.46 11.36C99.74 11.08 99.9867 10.8133 100.2 10.56C100.413 10.2933 100.58 10.0333 100.7 9.78C100.82 9.51333 100.88 9.24667 100.88 8.98C100.88 8.39333 100.713 7.98 100.38 7.74C100.047 7.5 99.6333 7.38 99.14 7.38C98.78 7.38 98.44 7.44 98.12 7.56C97.8133 7.66667 97.5267 7.8 97.26 7.96C97.0067 8.10667 96.7867 8.26 96.6 8.42C96.4133 8.56667 96.2733 8.68667 96.18 8.78L94.7 6.7C95.2867 6.15333 95.9667 5.70667 96.74 5.36C97.5267 5 98.3667 4.82 99.26 4.82C100.073 4.82 100.773 4.91333 101.36 5.1C101.947 5.28667 102.427 5.55333 102.8 5.9C103.187 6.23333 103.467 6.64667 103.64 7.14C103.827 7.62 103.92 8.16667 103.92 8.78ZM116.047 12.04C116.047 14.3733 115.601 16.1667 114.707 17.42C113.827 18.66 112.607 19.28 111.047 19.28C109.487 19.28 108.261 18.66 107.367 17.42C106.487 16.1667 106.047 14.3733 106.047 12.04C106.047 10.88 106.161 9.85333 106.387 8.96C106.627 8.06667 106.967 7.31333 107.407 6.7C107.847 6.08667 108.374 5.62 108.987 5.3C109.601 4.98 110.287 4.82 111.047 4.82C112.607 4.82 113.827 5.44667 114.707 6.7C115.601 7.94 116.047 9.72 116.047 12.04ZM113.007 12.04C113.007 11.3467 112.974 10.72 112.907 10.16C112.841 9.58667 112.734 9.09333 112.587 8.68C112.441 8.26667 112.241 7.94667 111.987 7.72C111.734 7.49333 111.421 7.38 111.047 7.38C110.674 7.38 110.361 7.49333 110.107 7.72C109.867 7.94667 109.667 8.26667 109.507 8.68C109.361 9.09333 109.254 9.58667 109.187 10.16C109.121 10.72 109.087 11.3467 109.087 12.04C109.087 12.7333 109.121 13.3667 109.187 13.94C109.254 14.5133 109.361 15.0067 109.507 15.42C109.667 15.8333 109.867 16.1533 110.107 16.38C110.361 16.6067 110.674 16.72 111.047 16.72C111.421 16.72 111.734 16.6067 111.987 16.38C112.241 16.1533 112.441 15.8333 112.587 15.42C112.734 15.0067 112.841 14.5133 112.907 13.94C112.974 13.3667 113.007 12.7333 113.007 12.04Z" fill="#5B5555"/>
<path d="M74.8 81.264C76 80.544 77.088 79.68 78.016 78.672C78.976 79.632 80.16 80.512 81.408 81.264H74.8ZM82.128 82.64V81.664C82.928 82.112 83.728 82.48 84.512 82.768C84.736 82.368 85.2 81.776 85.536 81.472C83.136 80.752 80.448 79.232 78.88 77.664C79.024 77.472 79.152 77.264 79.296 77.056L77.904 76.432C76.384 78.784 73.488 80.544 70.512 81.456C70.88 81.824 71.296 82.4 71.504 82.832C72.304 82.544 73.072 82.208 73.824 81.808V82.64H77.168V84.576H71.888V85.92H77.168V89.488H71.152V90.848H84.88V89.488H78.752V85.92H84.112V84.576H78.752V82.64H82.128ZM81.104 89.424C81.648 88.704 82.352 87.616 82.96 86.608L81.52 86.08C81.184 86.96 80.512 88.176 79.968 88.944L81.104 89.424ZM73.104 86.56C73.68 87.456 74.304 88.656 74.528 89.408L75.824 88.848C75.568 88.096 74.928 86.928 74.32 86.08L73.104 86.56ZM90.544 78.816L89.952 79.312C90.464 79.76 91.12 80.416 91.408 80.832L92.368 80C92.096 79.664 91.632 79.2 91.168 78.816H93.856V77.648H90.032C90.176 77.376 90.304 77.104 90.416 76.832L89.072 76.448C88.56 77.744 87.664 79.04 86.704 79.872C86.992 80.112 87.504 80.608 87.712 80.848C88.272 80.304 88.864 79.616 89.36 78.816H90.544ZM98.096 88.4V89.648H90.816V88.4H98.096ZM97.28 84.112V85.232H90.816V84.112H97.28ZM90.816 86.336H98.72V82.992H89.312V91.28H90.816V90.784H98.096V91.248H99.568V87.28H90.816V86.336ZM92.928 80.048C93.088 80.336 93.248 80.672 93.392 80.992H87.504V83.696H88.928V82.16H99.168V83.696H100.672V80.992H94.896C94.736 80.608 94.496 80.144 94.24 79.776L92.928 80.048ZM96.592 77.648C96.736 77.36 96.864 77.088 96.976 76.8L95.616 76.464C95.216 77.52 94.48 78.528 93.632 79.2C93.968 79.408 94.512 79.856 94.752 80.096C95.136 79.744 95.536 79.312 95.888 78.816H97.536L96.848 79.376C97.44 79.856 98.208 80.544 98.56 80.976L99.552 80.128C99.248 79.744 98.64 79.232 98.096 78.816H101.232V77.648H96.592ZM113.104 86.944V87.824H106.976V86.944H113.104ZM106.976 89.744V88.848H113.104V89.744H106.976ZM105.504 91.248H106.976V90.752H113.104V91.184H114.624V85.92H105.504V91.248ZM104.928 81.12C105.728 80.816 106.512 80.48 107.248 80.064V80.448H112.784V79.984C113.6 80.448 114.48 80.816 115.344 81.12H104.928ZM114.096 84.304H112.4C112.688 83.84 113.04 83.168 113.392 82.48L112.144 82.128C111.968 82.672 111.632 83.488 111.344 84L112.336 84.304H110.544V82.096H114.096V84.304ZM106.64 82.512C106.976 83.072 107.28 83.808 107.392 84.304H105.856V82.096H109.328V84.304H107.44L108.496 83.952C108.384 83.472 108.032 82.736 107.68 82.192L106.64 82.512ZM108.336 79.424C108.96 79.024 109.568 78.56 110.08 78.08C110.592 78.56 111.184 79.024 111.84 79.424H108.336ZM109.792 76.496C108.336 78.368 105.504 79.76 102.608 80.496C102.864 80.752 103.28 81.36 103.408 81.632C103.808 81.52 104.192 81.392 104.592 81.248V85.28H115.408V81.136C115.808 81.28 116.224 81.408 116.608 81.52C116.832 81.168 117.248 80.64 117.552 80.384C115.056 79.856 112.352 78.64 110.864 77.264C110.96 77.168 111.024 77.056 111.104 76.96L109.792 76.496ZM72.832 103.192C72.592 104.12 72.272 104.968 71.84 105.736C71.648 104.84 71.488 103.752 71.376 102.6H74.544V101.496H73.568L74.272 100.76C73.92 100.408 73.216 99.976 72.64 99.704L71.952 100.392C72.528 100.68 73.216 101.128 73.536 101.496H71.28C71.248 101 71.216 100.472 71.2 99.96H69.968C70 100.472 70.032 100.984 70.064 101.496H65.472V102.6H70.16C70.32 104.296 70.56 105.848 70.944 107.064C70.656 107.432 70.336 107.768 69.984 108.072L69.952 107.08C68.224 107.352 66.48 107.624 65.312 107.784L65.472 108.904C66.752 108.68 68.368 108.376 69.936 108.12C69.552 108.44 69.136 108.728 68.704 108.984C68.944 109.192 69.376 109.672 69.536 109.896C70.24 109.448 70.88 108.904 71.44 108.296C71.824 109 72.304 109.464 72.896 109.624C73.824 109.992 74.496 109.368 74.72 107.544C74.464 107.4 74.016 107.08 73.776 106.84C73.68 107.832 73.536 108.488 73.344 108.424C72.928 108.344 72.576 107.912 72.304 107.224C73.04 106.152 73.632 104.888 74.016 103.432L72.832 103.192ZM68.464 105.672H66.96V104.296H68.464V105.672ZM65.968 103.448V106.52H69.504V103.448H65.968ZM64.736 110.264V99.624H75.2V110.264H64.736ZM63.328 98.28V112.312H64.736V111.608H75.2V112.312H76.672V98.28H63.328ZM83.376 98.2L83.168 98.264H79.328V112.28H80.72V99.592H82.64C82.336 100.696 81.888 102.2 81.472 103.32C82.56 104.52 82.832 105.56 82.832 106.392C82.832 106.872 82.736 107.256 82.512 107.416C82.384 107.512 82.208 107.56 82 107.576C81.776 107.576 81.488 107.576 81.136 107.544C81.36 107.912 81.472 108.504 81.488 108.888C81.856 108.904 82.288 108.904 82.608 108.856C82.944 108.808 83.248 108.712 83.488 108.536C83.984 108.2 84.176 107.528 84.176 106.568C84.176 105.592 83.936 104.456 82.8 103.16C83.328 101.864 83.92 100.152 84.4 98.792L83.376 98.2ZM93.2 101.576V100.184H88.448L89.68 99.848C89.536 99.256 89.184 98.296 88.896 97.56L87.536 97.896C87.792 98.616 88.112 99.592 88.224 100.184H84.08V101.576H86.4C86.288 105.784 86 109.256 82.528 111.112C82.88 111.368 83.312 111.88 83.504 112.232C86.288 110.68 87.264 108.168 87.632 105.128H90.784C90.64 108.84 90.464 110.28 90.176 110.632C90.016 110.792 89.872 110.856 89.6 110.84C89.28 110.84 88.528 110.84 87.744 110.76C88 111.176 88.176 111.784 88.192 112.232C89.008 112.264 89.84 112.28 90.304 112.2C90.816 112.152 91.152 112.008 91.472 111.608C91.936 111.016 92.112 109.224 92.288 104.424V103.784H87.76C87.808 103.08 87.84 102.328 87.872 101.576H93.2ZM99.088 103.064C100.336 102.792 101.68 102.472 102.992 102.072C104.144 102.424 105.232 102.76 106.08 103.064H99.088ZM105.536 100.136C104.864 100.472 104.016 100.776 103.072 101.064C101.856 100.728 100.592 100.408 99.424 100.136H105.536ZM104.096 110.584V109.272H107.824V108.104H104.096V106.936H108.24V105.752H104.096V104.568H102.624V105.752H100.24C100.384 105.448 100.512 105.16 100.624 104.856L99.344 104.488C98.912 105.704 98.16 106.856 97.312 107.656C97.36 107.144 97.376 106.648 97.376 106.184V104.28H109.104V103.064H106.784L107.52 102.424C106.736 102.152 105.744 101.832 104.672 101.528C105.504 101.224 106.272 100.904 106.928 100.584L106.224 100.136H108.608V98.968H103.184C102.928 98.488 102.464 97.88 102.064 97.432L101.024 97.928C101.28 98.232 101.536 98.6 101.76 98.968H96.064V100.136H98.704L97.888 100.76C98.944 100.984 100.096 101.272 101.248 101.592C99.936 101.912 98.544 102.216 97.328 102.424C97.52 102.568 97.776 102.84 97.984 103.064H95.936V106.168C95.936 107.784 95.792 109.944 94.512 111.48C94.8 111.624 95.424 112.152 95.648 112.424C96.752 111.128 97.168 109.304 97.312 107.656C97.552 107.96 97.92 108.696 98.032 108.968C98.608 108.44 99.152 107.72 99.616 106.936H102.624V108.104H99.072V109.272H102.624V110.584H97.6V111.8H109.328V110.584H104.096ZM115.552 109.224C114.528 109.88 112.592 110.472 110.976 110.712C111.28 110.984 111.664 111.48 111.872 111.8C113.52 111.432 115.52 110.6 116.64 109.736L115.552 109.224ZM119.584 109.88C121.04 110.44 122.992 111.288 123.984 111.784L124.976 110.92C123.904 110.408 121.952 109.64 120.544 109.128L119.584 109.88ZM120.432 101.496C120.208 101.912 119.84 102.52 119.536 102.92L120.112 103.096H115.744L116.464 102.904C116.336 102.536 116.032 101.944 115.712 101.496H120.432ZM118.704 107.304V106.344H123.616V105.224H118.704V104.264H124.368V103.096H120.976C121.296 102.728 121.664 102.296 122.016 101.816L120.768 101.496H124.96V100.312H122.672C123.088 99.72 123.568 98.92 124 98.136L122.464 97.736C122.224 98.456 121.728 99.464 121.344 100.104L121.968 100.312H120.224V97.56H118.816V100.312H117.232V97.56H115.84V100.312H114.048L114.896 99.992C114.672 99.368 114.112 98.392 113.616 97.704L112.32 98.152C112.768 98.808 113.248 99.688 113.488 100.312H111.104V101.496H115.184L114.256 101.72C114.528 102.136 114.8 102.696 114.96 103.096H111.744V104.264H117.248V105.224H112.528V106.344H117.248V107.304H111.04V108.552H117.248V112.264H118.704V108.552H125.008V107.304H118.704Z" fill="#5B5555"/>
<defs>
<linearGradient id="paint0_linear" x1="81.0014" y1="146.157" x2="81.4141" y2="158.263" gradientUnits="userSpaceOnUse">
<stop stop-color="#FFBA42"/>
<stop offset="0.526042" stop-color="#FFC800"/>
<stop offset="1" stop-color="#FFCE00"/>
</linearGradient>
<linearGradient id="paint1_linear" x1="79.801" y1="157.366" x2="80.0857" y2="165.715" gradientUnits="userSpaceOnUse">
<stop stop-color="#FFBA42"/>
<stop offset="0.526042" stop-color="#FFC800"/>
<stop offset="1" stop-color="#FFCE00"/>
</linearGradient>
<linearGradient id="paint2_linear" x1="64.1474" y1="140.905" x2="64.6272" y2="154.979" gradientUnits="userSpaceOnUse">
<stop stop-color="#FFBA42"/>
<stop offset="0.526042" stop-color="#FFC800"/>
<stop offset="1" stop-color="#FFCE00"/>
</linearGradient>
<linearGradient id="paint3_linear" x1="61.7219" y1="153.193" x2="61.9823" y2="160.83" gradientUnits="userSpaceOnUse">
<stop stop-color="#FFBA42"/>
<stop offset="0.526042" stop-color="#FFC800"/>
<stop offset="1" stop-color="#FFCE00"/>
</linearGradient>
<linearGradient id="paint4_linear" x1="50.7014" y1="133.482" x2="51.2472" y2="149.488" gradientUnits="userSpaceOnUse">
<stop stop-color="#FFBA42"/>
<stop offset="0.526042" stop-color="#FFC800"/>
<stop offset="1" stop-color="#FFCE00"/>
</linearGradient>
<linearGradient id="paint5_linear" x1="46.9125" y1="146.393" x2="47.1613" y2="153.69" gradientUnits="userSpaceOnUse">
<stop stop-color="#FFBA42"/>
<stop offset="0.526042" stop-color="#FFC800"/>
<stop offset="1" stop-color="#FFCE00"/>
</linearGradient>
<linearGradient id="paint6_linear" x1="37.9269" y1="122.194" x2="38.5468" y2="140.374" gradientUnits="userSpaceOnUse">
<stop stop-color="#FFBA42"/>
<stop offset="0.526042" stop-color="#FFC800"/>
<stop offset="1" stop-color="#FFCE00"/>
</linearGradient>
<linearGradient id="paint7_linear" x1="32.2136" y1="134.806" x2="32.4743" y2="142.451" gradientUnits="userSpaceOnUse">
<stop stop-color="#FFBA42"/>
<stop offset="0.526042" stop-color="#FFC800"/>
<stop offset="1" stop-color="#FFCE00"/>
</linearGradient>
<linearGradient id="paint8_linear" x1="28.2492" y1="109.742" x2="28.9056" y2="128.992" gradientUnits="userSpaceOnUse">
<stop stop-color="#FFBA42"/>
<stop offset="0.526042" stop-color="#FFC800"/>
<stop offset="1" stop-color="#FFCE00"/>
</linearGradient>
<linearGradient id="paint9_linear" x1="20.9694" y1="120.542" x2="21.2818" y2="129.705" gradientUnits="userSpaceOnUse">
<stop stop-color="#FFBA42"/>
<stop offset="0.526042" stop-color="#FFC800"/>
<stop offset="1" stop-color="#FFCE00"/>
</linearGradient>
<linearGradient id="paint10_linear" x1="20.0104" y1="94.9043" x2="20.669" y2="114.22" gradientUnits="userSpaceOnUse">
<stop stop-color="#FFBA42"/>
<stop offset="0.526042" stop-color="#FFC800"/>
<stop offset="1" stop-color="#FFCE00"/>
</linearGradient>
<linearGradient id="paint11_linear" x1="11.6996" y1="102.921" x2="12.0951" y2="114.521" gradientUnits="userSpaceOnUse">
<stop stop-color="#FFBA42"/>
<stop offset="0.526042" stop-color="#FFC800"/>
<stop offset="1" stop-color="#FFCE00"/>
</linearGradient>
<linearGradient id="paint12_linear" x1="15.6529" y1="81.0414" x2="16.2945" y2="99.8587" gradientUnits="userSpaceOnUse">
<stop stop-color="#FFBA42"/>
<stop offset="0.526042" stop-color="#FFC800"/>
<stop offset="1" stop-color="#FFCE00"/>
</linearGradient>
<linearGradient id="paint13_linear" x1="6.74649" y1="86.2729" x2="7.22028" y2="100.168" gradientUnits="userSpaceOnUse">
<stop stop-color="#FFBA42"/>
<stop offset="0.526042" stop-color="#FFC800"/>
<stop offset="1" stop-color="#FFCE00"/>
</linearGradient>
<linearGradient id="paint14_linear" x1="15.0344" y1="65.8193" x2="15.6184" y2="82.9461" gradientUnits="userSpaceOnUse">
<stop stop-color="#FFBA42"/>
<stop offset="0.526042" stop-color="#FFC800"/>
<stop offset="1" stop-color="#FFCE00"/>
</linearGradient>
<linearGradient id="paint15_linear" x1="5.65433" y1="66.5062" x2="6.22576" y2="83.2654" gradientUnits="userSpaceOnUse">
<stop stop-color="#FFBA42"/>
<stop offset="0.526042" stop-color="#FFC800"/>
<stop offset="1" stop-color="#FFCE00"/>
</linearGradient>
<linearGradient id="paint16_linear" x1="17.7083" y1="50.9292" x2="18.2032" y2="65.4422" gradientUnits="userSpaceOnUse">
<stop stop-color="#FFBA42"/>
<stop offset="0.526042" stop-color="#FFC800"/>
<stop offset="1" stop-color="#FFCE00"/>
</linearGradient>
<linearGradient id="paint17_linear" x1="8.4014" y1="47.1761" x2="9.03488" y2="65.7551" gradientUnits="userSpaceOnUse">
<stop stop-color="#FFBA42"/>
<stop offset="0.526042" stop-color="#FFC800"/>
<stop offset="1" stop-color="#FFCE00"/>
</linearGradient>
<linearGradient id="paint18_linear" x1="23.4209" y1="39.1482" x2="23.8045" y2="50.3994" gradientUnits="userSpaceOnUse">
<stop stop-color="#FFBA42"/>
<stop offset="0.526042" stop-color="#FFC800"/>
<stop offset="1" stop-color="#FFCE00"/>
</linearGradient>
<linearGradient id="paint19_linear" x1="14.6836" y1="31.3155" x2="15.3433" y2="50.6641" gradientUnits="userSpaceOnUse">
<stop stop-color="#FFBA42"/>
<stop offset="0.526042" stop-color="#FFC800"/>
<stop offset="1" stop-color="#FFCE00"/>
</linearGradient>
<linearGradient id="paint20_linear" x1="30.4024" y1="28.1239" x2="30.7204" y2="37.4514" gradientUnits="userSpaceOnUse">
<stop stop-color="#FFBA42"/>
<stop offset="0.526042" stop-color="#FFC800"/>
<stop offset="1" stop-color="#FFCE00"/>
</linearGradient>
<linearGradient id="paint21_linear" x1="22.3439" y1="18.0421" x2="23.0015" y2="37.3288" gradientUnits="userSpaceOnUse">
<stop stop-color="#FFBA42"/>
<stop offset="0.526042" stop-color="#FFC800"/>
<stop offset="1" stop-color="#FFCE00"/>
</linearGradient>
<linearGradient id="paint22_linear" x1="114.507" y1="144.294" x2="114.92" y2="156.4" gradientUnits="userSpaceOnUse">
<stop stop-color="#FFBA42"/>
<stop offset="0.526042" stop-color="#FFC800"/>
<stop offset="1" stop-color="#FFCE00"/>
</linearGradient>
<linearGradient id="paint23_linear" x1="116.441" y1="155.396" x2="116.725" y2="163.746" gradientUnits="userSpaceOnUse">
<stop stop-color="#FFBA42"/>
<stop offset="0.526042" stop-color="#FFC800"/>
<stop offset="1" stop-color="#FFCE00"/>
</linearGradient>
<linearGradient id="paint24_linear" x1="128.937" y1="138.697" x2="129.417" y2="152.77" gradientUnits="userSpaceOnUse">
<stop stop-color="#FFBA42"/>
<stop offset="0.526042" stop-color="#FFC800"/>
<stop offset="1" stop-color="#FFCE00"/>
</linearGradient>
<linearGradient id="paint25_linear" x1="132.167" y1="150.791" x2="132.427" y2="158.428" gradientUnits="userSpaceOnUse">
<stop stop-color="#FFBA42"/>
<stop offset="0.526042" stop-color="#FFC800"/>
<stop offset="1" stop-color="#FFCE00"/>
</linearGradient>
<linearGradient id="paint26_linear" x1="141.827" y1="129.834" x2="142.373" y2="145.839" gradientUnits="userSpaceOnUse">
<stop stop-color="#FFBA42"/>
<stop offset="0.526042" stop-color="#FFC800"/>
<stop offset="1" stop-color="#FFCE00"/>
</linearGradient>
<linearGradient id="paint27_linear" x1="146.457" y1="142.456" x2="146.706" y2="149.753" gradientUnits="userSpaceOnUse">
<stop stop-color="#FFBA42"/>
<stop offset="0.526042" stop-color="#FFC800"/>
<stop offset="1" stop-color="#FFCE00"/>
</linearGradient>
<linearGradient id="paint28_linear" x1="153.428" y1="117.971" x2="154.048" y2="136.151" gradientUnits="userSpaceOnUse">
<stop stop-color="#FFBA42"/>
<stop offset="0.526042" stop-color="#FFC800"/>
<stop offset="1" stop-color="#FFCE00"/>
</linearGradient>
<linearGradient id="paint29_linear" x1="159.96" y1="130.167" x2="160.221" y2="137.811" gradientUnits="userSpaceOnUse">
<stop stop-color="#FFBA42"/>
<stop offset="0.526042" stop-color="#FFC800"/>
<stop offset="1" stop-color="#FFCE00"/>
</linearGradient>
<linearGradient id="paint30_linear" x1="162.737" y1="104.111" x2="163.394" y2="123.362" gradientUnits="userSpaceOnUse">
<stop stop-color="#FFBA42"/>
<stop offset="0.526042" stop-color="#FFC800"/>
<stop offset="1" stop-color="#FFCE00"/>
</linearGradient>
<linearGradient id="paint31_linear" x1="170.71" y1="114.392" x2="171.022" y2="123.554" gradientUnits="userSpaceOnUse">
<stop stop-color="#FFBA42"/>
<stop offset="0.526042" stop-color="#FFC800"/>
<stop offset="1" stop-color="#FFCE00"/>
</linearGradient>
<linearGradient id="paint32_linear" x1="169.131" y1="89.5537" x2="169.79" y2="108.87" gradientUnits="userSpaceOnUse">
<stop stop-color="#FFBA42"/>
<stop offset="0.526042" stop-color="#FFC800"/>
<stop offset="1" stop-color="#FFCE00"/>
</linearGradient>
<linearGradient id="paint33_linear" x1="177.95" y1="96.9864" x2="178.345" y2="108.587" gradientUnits="userSpaceOnUse">
<stop stop-color="#FFBA42"/>
<stop offset="0.526042" stop-color="#FFC800"/>
<stop offset="1" stop-color="#FFCE00"/>
</linearGradient>
<linearGradient id="paint34_linear" x1="172.566" y1="75.4008" x2="173.208" y2="94.2189" gradientUnits="userSpaceOnUse">
<stop stop-color="#FFBA42"/>
<stop offset="0.526042" stop-color="#FFC800"/>
<stop offset="1" stop-color="#FFCE00"/>
</linearGradient>
<linearGradient id="paint35_linear" x1="181.796" y1="80.0136" x2="182.269" y2="93.9091" gradientUnits="userSpaceOnUse">
<stop stop-color="#FFBA42"/>
<stop offset="0.526042" stop-color="#FFC800"/>
<stop offset="1" stop-color="#FFCE00"/>
</linearGradient>
<linearGradient id="paint36_linear" x1="172.127" y1="60.6811" x2="172.711" y2="77.8071" gradientUnits="userSpaceOnUse">
<stop stop-color="#FFBA42"/>
<stop offset="0.526042" stop-color="#FFC800"/>
<stop offset="1" stop-color="#FFCE00"/>
</linearGradient>
<linearGradient id="paint37_linear" x1="181.532" y1="60.7279" x2="182.103" y2="77.4871" gradientUnits="userSpaceOnUse">
<stop stop-color="#FFBA42"/>
<stop offset="0.526042" stop-color="#FFC800"/>
<stop offset="1" stop-color="#FFCE00"/>
</linearGradient>
<linearGradient id="paint38_linear" x1="168.352" y1="46.0005" x2="168.847" y2="60.5144" gradientUnits="userSpaceOnUse">
<stop stop-color="#FFBA42"/>
<stop offset="0.526042" stop-color="#FFC800"/>
<stop offset="1" stop-color="#FFCE00"/>
</linearGradient>
<linearGradient id="paint39_linear" x1="177.391" y1="41.6224" x2="178.024" y2="60.2014" gradientUnits="userSpaceOnUse">
<stop stop-color="#FFBA42"/>
<stop offset="0.526042" stop-color="#FFC800"/>
<stop offset="1" stop-color="#FFCE00"/>
</linearGradient>
<linearGradient id="paint40_linear" x1="162.041" y1="34.8455" x2="162.425" y2="46.0975" gradientUnits="userSpaceOnUse">
<stop stop-color="#FFBA42"/>
<stop offset="0.526042" stop-color="#FFC800"/>
<stop offset="1" stop-color="#FFCE00"/>
</linearGradient>
<linearGradient id="paint41_linear" x1="170.243" y1="26.4341" x2="170.903" y2="45.7835" gradientUnits="userSpaceOnUse">
<stop stop-color="#FFBA42"/>
<stop offset="0.526042" stop-color="#FFC800"/>
<stop offset="1" stop-color="#FFCE00"/>
</linearGradient>
<linearGradient id="paint42_linear" x1="153.954" y1="24.42" x2="154.272" y2="33.7473" gradientUnits="userSpaceOnUse">
<stop stop-color="#FFBA42"/>
<stop offset="0.526042" stop-color="#FFC800"/>
<stop offset="1" stop-color="#FFCE00"/>
</linearGradient>
<linearGradient id="paint43_linear" x1="161.331" y1="13.8133" x2="161.989" y2="33.0993" gradientUnits="userSpaceOnUse">
<stop stop-color="#FFBA42"/>
<stop offset="0.526042" stop-color="#FFC800"/>
<stop offset="1" stop-color="#FFCE00"/>
</linearGradient>
<linearGradient id="paint44_linear" x1="92.0208" y1="18.1225" x2="96.8045" y2="158.424" gradientUnits="userSpaceOnUse">
<stop stop-color="#FFBA42"/>
<stop offset="0.526042" stop-color="#FFC800"/>
<stop offset="1" stop-color="#FFCE00"/>
</linearGradient>
<linearGradient id="paint45_linear" x1="42.0301" y1="18.1318" x2="42.2919" y2="25.8098" gradientUnits="userSpaceOnUse">
<stop stop-color="#FFBA42"/>
<stop offset="0.526042" stop-color="#FFC800"/>
<stop offset="1" stop-color="#FFCE00"/>
</linearGradient>
<linearGradient id="paint46_linear" x1="35.4348" y1="5.98173" x2="36.0567" y2="24.2222" gradientUnits="userSpaceOnUse">
<stop stop-color="#FFBA42"/>
<stop offset="0.526042" stop-color="#FFC800"/>
<stop offset="1" stop-color="#FFCE00"/>
</linearGradient>
<linearGradient id="paint47_linear" x1="142.248" y1="14.7148" x2="142.51" y2="22.3928" gradientUnits="userSpaceOnUse">
<stop stop-color="#FFBA42"/>
<stop offset="0.526042" stop-color="#FFC800"/>
<stop offset="1" stop-color="#FFCE00"/>
</linearGradient>
<linearGradient id="paint48_linear" x1="148.03" y1="2.14285" x2="148.652" y2="20.3833" gradientUnits="userSpaceOnUse">
<stop stop-color="#FFBA42"/>
<stop offset="0.526042" stop-color="#FFC800"/>
<stop offset="1" stop-color="#FFCE00"/>
</linearGradient>
</defs>
</svg>
