<svg width="189" height="167" viewBox="0 0 189 167" fill="none" xmlns="http://www.w3.org/2000/svg">
<path d="M83.3782 149.288C87.662 152.488 88.9576 158.006 88.9576 158.006C88.9576 158.006 83.3082 158.331 79.0244 155.13C74.7399 151.93 73.4436 146.416 73.4436 146.416C73.4436 146.416 79.0922 146.087 83.3782 149.288Z" fill="url(#paint0_linear)"/>
<path d="M78.6164 158.147C83.5963 156.195 88.9575 158.005 88.9575 158.005C88.9575 158.005 86.2434 162.979 81.2612 164.934C76.2813 166.886 70.9194 165.077 70.9194 165.077C70.9194 165.077 73.6342 160.101 78.6164 158.147Z" fill="url(#paint1_linear)"/>
<path d="M66.936 145.349C70.7402 149.11 71.2651 154.752 71.2651 154.752C71.2651 154.752 65.6247 154.297 61.822 150.536C58.0194 146.776 57.4929 141.132 57.4929 141.132C57.4929 141.132 63.1333 141.587 66.936 145.349Z" fill="url(#paint2_linear)"/>
<path d="M61.0032 153.468C66.2045 152.221 71.2649 154.752 71.2649 154.752C71.2649 154.752 67.8932 159.307 62.6912 160.554C57.49 161.803 52.4304 159.271 52.4304 159.271C52.4304 159.271 55.802 154.716 61.0032 153.468Z" fill="url(#paint3_linear)"/>
<path d="M53.901 139.329C57.0605 143.646 56.6862 149.302 56.6862 149.302C56.6862 149.302 51.1916 147.96 48.0313 143.642C44.8711 139.325 45.243 133.669 45.243 133.669C45.243 133.669 50.7407 135.011 53.901 139.329Z" fill="url(#paint4_linear)"/>
<path d="M46.7596 146.408C52.0918 146.001 56.6872 149.303 56.6872 149.303C56.6872 149.303 52.6385 153.266 47.3056 153.674C41.9734 154.082 37.378 150.78 37.378 150.78C37.378 150.78 41.4274 146.816 46.7596 146.408Z" fill="url(#paint5_linear)"/>
<path d="M41.5954 129.905C43.6134 134.861 41.8815 140.26 41.8815 140.26C41.8815 140.26 36.8761 137.62 34.8581 132.663C32.8385 127.705 34.5697 122.308 34.5697 122.308C34.5697 122.308 39.5758 124.947 41.5954 129.905Z" fill="url(#paint6_linear)"/>
<path d="M32.954 135.036C38.2244 135.937 41.882 140.259 41.882 140.259C41.882 140.259 36.9937 143.121 31.7234 142.221C26.4522 141.32 22.7969 136.998 22.7969 136.998C22.7969 136.998 27.6836 134.136 32.954 135.036Z" fill="url(#paint7_linear)"/>
<path d="M32.1629 118.82C32.9616 124.114 30.0102 128.954 30.0102 128.954C30.0102 128.954 25.7664 125.21 24.9692 119.915C24.1705 114.62 27.1211 109.781 27.1211 109.781C27.1211 109.781 31.3657 113.525 32.1629 118.82Z" fill="url(#paint8_linear)"/>
<path d="M22.5611 121.776C27.4714 123.893 30.0102 128.955 30.0102 128.955C30.0102 128.955 24.5895 130.587 19.6792 128.47C14.7705 126.355 12.2302 121.292 12.2302 121.292C12.2302 121.292 17.6523 119.66 22.5611 121.776Z" fill="url(#paint9_linear)"/>
<path d="M23.9618 104.742C23.6923 110.091 19.8404 114.248 19.8404 114.248C19.8404 114.248 16.4253 109.732 16.6949 104.383C16.9644 99.0334 20.8148 94.8769 20.8148 94.8769C20.8148 94.8769 24.2313 99.3921 23.9618 104.742Z" fill="url(#paint10_linear)"/>
<path d="M13.9667 105.727C18.3581 108.779 19.8402 114.248 19.8402 114.248C19.8402 114.248 14.2049 114.768 9.81347 111.716C5.42357 108.663 3.94074 103.195 3.94074 103.195C3.94074 103.195 9.57683 102.676 13.9667 105.727Z" fill="url(#paint11_linear)"/>
<path d="M19.5213 91.2032C18.4102 96.4432 13.9506 99.9386 13.9506 99.9386C13.9506 99.9386 11.2928 94.937 12.4039 89.6969C13.5166 84.4576 17.9739 80.9623 17.9739 80.9623C17.9739 80.9623 20.6324 85.9632 19.5213 91.2032Z" fill="url(#paint12_linear)"/>
<path d="M9.49825 90.5927C13.3509 94.3029 13.9504 99.9389 13.9504 99.9389C13.9504 99.9389 8.30474 99.5594 4.45212 95.8492C0.600266 92.1389 0 86.5029 0 86.5029C0 86.5029 5.6464 86.8824 9.49825 90.5927Z" fill="url(#paint13_linear)"/>
<path d="M18.5853 75.9794C16.239 80.7939 11.0657 83.1013 11.0657 83.1013C11.0657 83.1013 9.70139 77.6028 12.0469 72.7876C14.3947 67.973 19.5656 65.6648 19.5656 65.6648C19.5656 65.6648 20.9331 71.1648 18.5853 75.9794Z" fill="url(#paint14_linear)"/>
<path d="M9.01481 72.9496C11.8508 77.4862 11.0665 83.1004 11.0665 83.1004C11.0665 83.1004 5.68446 81.3591 2.84693 76.8226C0.00939854 72.2861 0.79366 66.6719 0.79366 66.6719C0.79366 66.6719 6.17728 68.4131 9.01481 72.9496Z" fill="url(#paint15_linear)"/>
<path d="M20.7488 60.5064C17.3384 64.6345 11.7707 65.6616 11.7707 65.6616C11.7707 65.6616 11.7345 59.9938 15.1463 55.8648C18.5567 51.7367 24.1237 50.7105 24.1237 50.7105C24.1237 50.7105 24.1615 56.3782 20.7488 60.5064Z" fill="url(#paint16_linear)"/>
<path d="M12.1577 55.3087C13.8505 60.3872 11.7715 65.6618 11.7715 65.6618C11.7715 65.6618 6.94825 62.7011 5.25618 57.6217C3.56416 52.544 5.64321 47.2702 5.64321 47.2702C5.64321 47.2702 10.4656 50.2302 12.1577 55.3087Z" fill="url(#paint17_linear)"/>
<path d="M25.8054 47.674C21.5448 50.9162 15.8935 50.6444 15.8935 50.6444C15.8935 50.6444 17.147 45.1163 21.4068 41.8741C25.6666 38.6319 31.3187 38.9037 31.3187 38.9037C31.3187 38.9037 30.0644 44.4326 25.8054 47.674Z" fill="url(#paint18_linear)"/>
<path d="M18.6243 40.6517C19.1158 45.9838 15.8926 50.6454 15.8926 50.6454C15.8926 50.6454 11.8707 46.6624 11.3798 41.3295C10.8883 35.9974 14.1122 31.335 14.1122 31.335C14.1122 31.335 18.1326 35.3188 18.6243 40.6517Z" fill="url(#paint19_linear)"/>
<path d="M32.269 36C27.5517 38.5273 22.0143 37.3634 22.0143 37.3634C22.0143 37.3634 24.1262 32.1026 28.8428 29.5761C33.5617 27.0487 39.0975 28.2119 39.0975 28.2119C39.0975 28.2119 36.9864 33.4734 32.269 36Z" fill="url(#paint20_linear)"/>
<path d="M26.2908 27.9257C25.934 33.2695 22.0144 37.3624 22.0144 37.3624C22.0144 37.3624 18.6746 32.7905 19.0314 27.4467C19.389 22.1021 23.3086 18.0092 23.3086 18.0092C23.3086 18.0092 26.6491 22.5811 26.2908 27.9257Z" fill="url(#paint21_linear)"/>
<path d="M112.342 147.58C108.277 151.066 107.347 156.657 107.347 156.657C107.347 156.657 113.006 156.598 117.069 153.114C121.135 149.629 122.064 144.037 122.064 144.037C122.064 144.037 116.406 144.095 112.342 147.58Z" fill="url(#paint22_linear)"/>
<path d="M117.676 156.096C112.578 154.487 107.347 156.657 107.347 156.657C107.347 156.657 110.383 161.437 115.481 163.047C120.579 164.656 125.809 162.486 125.809 162.486C125.809 162.486 122.774 157.705 117.676 156.096Z" fill="url(#paint23_linear)"/>
<path d="M126.448 143.32C122.9 147.332 122.746 152.998 122.746 152.998C122.746 152.998 128.345 152.16 131.891 148.148C135.438 144.137 135.591 138.47 135.591 138.47C135.591 138.47 129.995 139.308 126.448 143.32Z" fill="url(#paint24_linear)"/>
<path d="M132.901 151.017C127.63 150.127 122.747 152.997 122.747 152.997C122.747 152.997 126.412 157.311 131.683 158.202C136.956 159.094 141.838 156.223 141.838 156.223C141.838 156.223 138.174 151.907 132.901 151.017Z" fill="url(#paint25_linear)"/>
<path d="M139.02 135.885C136.152 140.407 136.896 146.026 136.896 146.026C136.896 146.026 142.29 144.31 145.16 139.787C148.029 135.266 147.286 129.648 147.286 129.648C147.286 129.648 141.889 131.362 139.02 135.885Z" fill="url(#paint26_linear)"/>
<path d="M146.611 142.461C141.263 142.418 136.895 146.026 136.895 146.026C136.895 146.026 141.196 149.705 146.544 149.748C151.891 149.792 156.259 146.183 156.259 146.183C156.259 146.183 151.958 142.505 146.611 142.461Z" fill="url(#paint27_linear)"/>
<path d="M150.276 125.914C148.587 130.998 150.671 136.266 150.671 136.266C150.671 136.266 155.491 133.291 157.18 128.208C158.868 123.123 156.784 117.856 156.784 117.856C156.784 117.856 151.964 120.831 150.276 125.914Z" fill="url(#paint28_linear)"/>
<path d="M159.235 130.447C154.036 131.705 150.672 136.266 150.672 136.266C150.672 136.266 155.735 138.789 160.936 137.531C166.135 136.274 169.5 131.713 169.5 131.713C169.5 131.713 164.435 129.19 159.235 130.447Z" fill="url(#paint29_linear)"/>
<path d="M159.428 113.435C158.981 118.773 162.243 123.402 162.243 123.402C162.243 123.402 166.231 119.376 166.68 114.039C167.127 108.701 163.866 104.072 163.866 104.072C163.866 104.072 159.878 108.099 159.428 113.435Z" fill="url(#paint30_linear)"/>
<path d="M169.203 115.731C164.444 118.177 162.243 123.402 162.243 123.402C162.243 123.402 167.76 124.66 172.519 122.214C177.28 119.768 179.479 114.545 179.479 114.545C179.479 114.545 173.962 113.286 169.203 115.731Z" fill="url(#paint31_linear)"/>
<path d="M165.836 99.6389C166.456 104.958 170.573 108.844 170.573 108.844C170.573 108.844 173.683 104.104 173.063 98.7867C172.442 93.4668 168.326 89.5812 168.326 89.5812C168.326 89.5812 165.216 94.3197 165.836 99.6389Z" fill="url(#paint32_linear)"/>
<path d="M175.872 99.9416C171.692 103.286 170.572 108.843 170.572 108.843C170.572 108.843 176.229 108.977 180.41 105.632C184.589 102.289 185.709 96.7313 185.709 96.7313C185.709 96.7313 180.052 96.597 175.872 99.9416Z" fill="url(#paint33_linear)"/>
<path d="M169.375 85.8041C170.828 90.9567 175.507 94.1405 175.507 94.1405C175.507 94.1405 177.831 88.969 176.377 83.8164C174.923 78.6638 170.245 75.48 170.245 75.48C170.245 75.48 167.922 80.6507 169.375 85.8041Z" fill="url(#paint34_linear)"/>
<path d="M179.335 84.5119C175.735 88.4762 175.506 94.1397 175.506 94.1397C175.506 94.1397 181.115 93.3756 184.715 89.4113C188.314 85.447 188.543 79.7836 188.543 79.7836C188.543 79.7836 182.934 80.5476 179.335 84.5119Z" fill="url(#paint35_linear)"/>
<path d="M169.252 71.0595C171.91 75.7033 177.222 77.6533 177.222 77.6533C177.222 77.6533 178.224 72.0741 175.565 67.4295C172.906 62.7849 167.594 60.8357 167.594 60.8357C167.594 60.8357 166.593 66.4156 169.252 71.0595Z" fill="url(#paint36_linear)"/>
<path d="M178.603 67.3857C176.071 72.1053 177.222 77.6535 177.222 77.6535C177.222 77.6535 182.479 75.5496 185.011 70.8299C187.544 66.1103 186.393 60.5621 186.393 60.5621C186.393 60.5621 181.136 62.6661 178.603 67.3857Z" fill="url(#paint37_linear)"/>
<path d="M165.948 55.7641C169.623 59.6507 175.244 60.2962 175.244 60.2962C175.244 60.2962 174.909 54.6379 171.234 50.7513C167.56 46.8648 161.938 46.2192 161.938 46.2192C161.938 46.2192 162.273 51.8776 165.948 55.7641Z" fill="url(#paint38_linear)"/>
<path d="M174.178 49.9926C172.823 55.175 175.244 60.2962 175.244 60.2962C175.244 60.2962 179.862 57.0128 181.216 51.8304C182.569 46.6488 180.149 41.5284 180.149 41.5284C180.149 41.5284 175.532 44.8094 174.178 49.9926Z" fill="url(#paint39_linear)"/>
<path d="M160.223 43.5146C164.686 46.4602 170.307 45.804 170.307 45.804C170.307 45.804 168.694 40.3736 164.23 37.4281C159.767 34.4833 154.146 35.1395 154.146 35.1395C154.146 35.1395 155.759 40.5706 160.223 43.5146Z" fill="url(#paint40_linear)"/>
<path d="M166.925 36.0178C166.785 41.3715 170.307 45.8038 170.307 45.8038C170.307 45.8038 174.058 41.555 174.198 36.2006C174.338 30.8462 170.815 26.4146 170.815 26.4146C170.815 26.4146 167.064 30.6642 166.925 36.0178Z" fill="url(#paint41_linear)"/>
<path d="M152.609 32.4054C157.482 34.6057 162.93 33.0672 162.93 33.0672C162.93 33.0672 160.477 27.962 155.605 25.7617C150.731 23.5622 145.284 25.1006 145.284 25.1006C145.284 25.1006 147.736 30.2058 152.609 32.4054Z" fill="url(#paint42_linear)"/>
<path d="M158.043 23.9429C158.751 29.2504 162.931 33.0672 162.931 33.0672C162.931 33.0672 165.963 28.2779 165.254 22.9705C164.547 17.6622 160.367 13.8462 160.367 13.8462C160.367 13.8462 157.335 18.6347 158.043 23.9429Z" fill="url(#paint43_linear)"/>
<path d="M148.215 16.2065C148.005 16.4427 147.766 16.6784 147.485 16.9124C147.404 16.9803 147.321 17.0271 147.236 17.0865C164.475 31.0388 175.718 51.6986 176.487 75.0452C177.926 118.769 142.087 155.602 96.597 157.153C51.1057 158.704 12.9266 124.395 11.4874 80.6711C10.753 58.3599 19.729 37.8455 34.7371 22.8949C34.2923 22.779 33.843 22.6186 33.3889 22.4081C18.376 37.5644 9.42007 58.2421 10.1598 80.7163C11.6221 125.143 50.4161 160.005 96.639 158.429C142.861 156.853 179.276 119.426 177.814 74.9999C177.035 51.3336 165.661 30.3832 148.215 16.2065Z" fill="url(#paint44_linear)"/>
<path d="M43.0402 25.5048C37.8517 26.8092 32.7639 24.3345 32.7639 24.3345C32.7639 24.3345 36.0857 19.7426 41.2727 18.4374C46.4612 17.1322 51.5491 19.6076 51.5491 19.6076C51.5491 19.6076 48.2272 24.1996 43.0402 25.5048Z" fill="url(#paint45_linear)"/>
<path d="M39.1969 16.2169C37.5561 21.3157 32.764 24.3344 32.764 24.3344C32.764 24.3344 30.6316 19.0865 32.2723 13.9869C33.9138 8.88809 38.7068 5.87016 38.7068 5.87016C38.7068 5.87016 40.8384 11.1173 39.1969 16.2169Z" fill="url(#paint46_linear)"/>
<path d="M141.726 22.14C146.988 23.0881 151.902 20.2724 151.902 20.2724C151.902 20.2724 148.284 15.9171 143.023 14.9682C137.762 14.0192 132.847 16.8357 132.847 16.8357C132.847 16.8357 136.465 21.1911 141.726 22.14Z" fill="url(#paint47_linear)"/>
<path d="M144.949 12.6114C146.923 17.5869 151.902 20.2724 151.902 20.2724C151.902 20.2724 153.683 14.8911 151.712 9.91468C149.738 4.93912 144.757 2.25443 144.757 2.25443C144.757 2.25443 142.975 7.63502 144.949 12.6114Z" fill="url(#paint48_linear)"/>
<path d="M41.926 51.832H38.506V53.164H41.926V53.794H37.516V55.306H48.244V53.794H43.978V53.164H47.218V51.832H43.978V51.22H47.56V49.816H43.978V48.754H41.926V49.816H38.092V51.22H41.926V51.832ZM38.164 59.554C38.02 58.6 37.606 56.998 37.228 55.792L35.788 56.17C35.914 56.584 36.058 57.07 36.166 57.574L34.492 57.772C35.824 56.152 37.12 54.19 38.092 52.3L36.418 51.274C36.058 52.102 35.626 52.93 35.194 53.704L33.988 53.794C34.852 52.498 35.662 50.932 36.274 49.42L34.456 48.7C33.862 50.59 32.818 52.624 32.458 53.128C32.116 53.686 31.828 54.046 31.486 54.136C31.684 54.604 32.008 55.486 32.098 55.864C32.368 55.738 32.764 55.648 34.114 55.468C33.628 56.224 33.214 56.764 32.998 57.016C32.44 57.7 32.044 58.132 31.594 58.24C31.828 58.726 32.134 59.662 32.242 60.022C32.638 59.842 33.232 59.662 36.508 59.176C36.58 59.5 36.616 59.77 36.652 60.022L38.164 59.554ZM32.278 60.58C32.17 62.128 31.954 63.802 31.522 64.936C31.936 65.026 32.674 65.26 33.034 65.422C33.394 64.288 33.682 62.506 33.808 60.814L32.278 60.58ZM34.258 60.634C34.438 61.966 34.6 63.694 34.582 64.846L36.022 64.594C35.986 63.442 35.824 61.75 35.608 60.4L34.258 60.634ZM36.076 60.418C36.382 61.408 36.76 62.686 36.904 63.514L38.182 63.082C38.038 62.254 37.66 60.994 37.318 60.04L36.076 60.418ZM40.558 60.67H45.22V61.336H40.558V60.67ZM40.558 58.87H45.22V59.554H40.558V58.87ZM40.558 57.106H45.22V57.772H40.558V57.106ZM47.272 62.596V55.864H38.614V62.596H40.828C39.784 63.118 38.2 63.748 37.066 64.126C37.48 64.522 38.056 65.152 38.38 65.548C39.586 65.134 41.368 64.45 42.7 63.856L41.224 62.596H44.932L43.564 63.568C44.608 64.198 45.868 65.044 46.552 65.548L48.442 64.54C47.632 64.018 46.246 63.244 45.094 62.596H47.272ZM63.328 53.866C63.076 55.702 62.68 57.304 62.104 58.672C61.564 57.538 61.15 56.296 60.826 55C60.97 54.64 61.096 54.262 61.222 53.866H63.328ZM66.226 53.866V51.886H61.78C61.996 50.968 62.194 50.014 62.32 49.06L60.358 48.736C59.98 51.436 59.332 54.046 58.252 55.936C57.802 55.054 57.1 54.01 56.398 53.146H58.45V51.22H54.31L55.444 50.77C55.264 50.194 54.796 49.33 54.328 48.682L52.51 49.33C52.852 49.906 53.23 50.626 53.446 51.22H49.882V53.146H56.056L54.742 53.884C55.3 54.604 55.876 55.486 56.308 56.296L54.598 55.972C54.454 56.638 54.256 57.268 54.04 57.862C53.644 57.43 53.23 57.016 52.834 56.62L51.502 57.61C52.24 56.458 53.032 55.036 53.572 53.74L51.754 53.164C51.196 54.604 50.278 56.17 49.378 57.196C49.81 57.52 50.512 58.186 50.836 58.546C50.998 58.33 51.16 58.096 51.34 57.844C51.934 58.456 52.546 59.14 53.158 59.824C52.258 61.426 51.052 62.74 49.504 63.64C49.918 64 50.656 64.792 50.926 65.206C52.348 64.27 53.554 62.992 54.49 61.462C55.156 62.326 55.696 63.136 56.056 63.802L57.766 62.452C57.262 61.588 56.452 60.562 55.534 59.482C55.912 58.636 56.254 57.7 56.524 56.71C56.65 56.998 56.758 57.25 56.83 57.484L57.64 57.016C58.054 57.448 58.684 58.258 58.882 58.672C59.152 58.33 59.404 57.934 59.638 57.556C60.016 58.69 60.448 59.77 60.952 60.76C59.944 62.2 58.576 63.28 56.74 64.072C57.172 64.45 57.946 65.26 58.216 65.656C59.782 64.846 61.042 63.856 62.068 62.614C62.896 63.82 63.904 64.81 65.074 65.584C65.416 65.044 66.064 64.27 66.55 63.874C65.272 63.136 64.174 62.074 63.292 60.778C64.3 58.906 64.966 56.62 65.38 53.866H66.226ZM70.798 48.772C70.042 51.418 68.746 54.028 67.342 55.72C67.666 56.296 68.206 57.52 68.368 58.024C68.746 57.574 69.124 57.052 69.502 56.494V65.548H71.536V52.642C72.022 51.562 72.418 50.446 72.76 49.366L70.798 48.772ZM80.554 58.204C80.68 58.33 80.824 58.456 80.95 58.6C80.626 58.51 80.302 58.402 80.104 58.294C80.05 58.816 79.96 58.906 79.6 58.906H78.016C77.53 58.906 77.422 58.852 77.422 58.492V57.682H75.748V58.042L74.902 57.61C74.704 57.916 74.452 58.222 74.164 58.528V57.304H77.98L77.44 57.592C77.926 57.952 78.502 58.528 78.808 58.888L79.996 58.186C79.78 57.934 79.402 57.61 79.024 57.304H82.48V58.366C82.21 58.06 81.922 57.808 81.652 57.556L80.554 58.204ZM76.342 61.876L80.05 61.858C79.564 62.2 78.952 62.524 78.232 62.776C77.53 62.542 76.882 62.236 76.342 61.876ZM75.892 55.522H80.878V56.098H75.892V55.522ZM80.878 52.678V53.218H75.892V52.678H80.878ZM80.878 54.658H75.892V54.082H80.878V54.658ZM84.388 56.098H82.876V51.634H79.024L79.294 51.004H84.028V49.474H72.886V51.004H77.08C77.044 51.22 77.008 51.436 76.954 51.634H73.984V56.098H72.346V58.654H74.038C73.768 58.924 73.48 59.176 73.192 59.356L74.362 60.274C74.902 59.896 75.37 59.374 75.766 58.834C75.802 59.338 75.964 59.644 76.306 59.824C75.982 60.184 75.568 60.544 75.082 60.904C74.938 60.742 74.794 60.58 74.668 60.418L73.12 60.958C73.3 61.228 73.516 61.462 73.75 61.714C73.282 61.948 72.814 62.182 72.274 62.38C72.652 62.632 73.192 63.19 73.426 63.586C73.984 63.334 74.488 63.064 74.956 62.794C75.28 63.028 75.622 63.244 75.982 63.46C74.812 63.73 73.444 63.946 71.968 64.09C72.346 64.522 72.796 65.17 72.994 65.638C74.974 65.368 76.72 64.99 78.232 64.486C79.744 65.008 81.454 65.35 83.344 65.548C83.578 65.08 83.992 64.378 84.37 63.982C83.002 63.874 81.724 63.712 80.536 63.46C81.652 62.848 82.498 62.092 83.074 61.228L81.796 60.508L81.436 60.58H77.782C77.944 60.4 78.088 60.22 78.25 60.04H79.816C80.77 60.04 81.202 59.806 81.382 59.05C81.778 59.482 82.156 59.968 82.372 60.31L83.524 59.59C83.344 59.338 83.074 58.996 82.75 58.654H84.388V56.098ZM90.148 55.324H97.78V56.746H90.148V55.324ZM97.78 52.282V53.614H90.148V52.282H97.78ZM99.508 58.672C98.752 59.374 97.6 60.202 96.556 60.868C95.746 60.202 95.08 59.464 94.576 58.618H99.976V50.41H95.404C95.242 49.816 95.008 49.15 94.756 48.592L92.542 49.06C92.704 49.474 92.866 49.942 92.992 50.41H87.898V62.092C87.898 63.064 87.232 63.748 86.782 64.09C87.142 64.432 87.736 65.242 87.934 65.71C88.474 65.422 89.302 65.242 94.36 64.072C94.252 63.586 94.144 62.686 94.144 62.074L90.148 62.956V58.618H92.272C93.964 62.074 96.7 64.306 100.93 65.296C101.2 64.72 101.83 63.82 102.298 63.352C100.804 63.082 99.454 62.632 98.32 62.02C99.31 61.426 100.408 60.742 101.308 60.04L99.508 58.672ZM106.168 53.272C106.726 52.696 107.248 52.084 107.734 51.436C108.436 52.03 109.138 52.696 109.696 53.272H106.168ZM110.776 61.678L109.75 61.894C110.038 61.138 110.398 59.986 110.722 58.978L109.156 58.582C109.03 59.464 108.724 60.778 108.49 61.606L109.606 61.93L108.4 62.182V58.222H110.776V56.368H108.4V55.09H109.984V53.578L110.218 53.848L111.496 52.336C110.884 51.652 109.822 50.698 108.778 49.888C108.886 49.708 108.994 49.528 109.066 49.348L107.338 48.7C106.456 50.302 104.926 51.814 103.486 52.786C103.774 53.29 104.206 54.424 104.332 54.874C104.566 54.694 104.8 54.514 105.034 54.316V55.09H106.546V56.368H104.062V58.222H106.546V62.578C105.484 62.776 104.494 62.956 103.738 63.1L104.224 65.17C106.132 64.684 108.616 64.09 110.938 63.478L110.776 61.678ZM104.296 59.212C104.602 60.22 104.908 61.534 104.98 62.38L106.438 61.966C106.33 61.12 106.024 59.824 105.7 58.834L104.296 59.212ZM113.674 54.442H117.742V55.882H113.674V54.442ZM117.742 51.31V52.714H113.674V51.31H117.742ZM118.948 57.916C118.498 58.42 117.778 59.032 117.094 59.554C116.842 58.96 116.626 58.366 116.446 57.718H119.83V49.456H111.604V62.65C111.604 63.352 111.226 63.64 110.866 63.802C111.154 64.216 111.478 65.098 111.568 65.62C111.982 65.314 112.63 65.026 116.194 63.946C116.104 63.496 116.014 62.632 116.014 62.074L113.674 62.686V57.718H114.61C115.402 61.12 116.734 63.892 119.146 65.368C119.47 64.792 120.136 63.946 120.622 63.532C119.524 62.974 118.66 62.164 117.958 61.12C118.732 60.634 119.596 60.022 120.352 59.428L118.948 57.916ZM137.794 49.78H129.046V51.814H137.794V49.78ZM125.59 48.754C124.726 50.014 123.016 51.634 121.522 52.588C121.9 53.002 122.44 53.866 122.71 54.334C124.42 53.146 126.364 51.292 127.66 49.6L125.59 48.754ZM126.274 52.642C125.122 54.676 123.16 56.764 121.324 58.024C121.756 58.474 122.476 59.446 122.782 59.878C123.268 59.482 123.754 59.032 124.258 58.546V65.584H126.4V56.188C127.12 55.288 127.786 54.352 128.326 53.434L126.274 52.642ZM138.244 54.73H128.29V56.764H133.6V63.028C133.6 63.298 133.474 63.37 133.15 63.37C132.826 63.388 131.638 63.388 130.612 63.334C130.9 63.946 131.17 64.882 131.26 65.512C132.862 65.512 134.014 65.476 134.77 65.152C135.562 64.828 135.778 64.234 135.778 63.082V56.764H138.244V54.73ZM143.59 55.738V59.05H145.534V48.79H143.59V51.472H142.24V49.204H140.458V53.092H143.59V54.082H139.756V55.738H140.764C140.746 56.404 140.548 57.664 139.576 58.42C140.062 58.618 140.836 59.05 141.196 59.338C142.384 58.348 142.636 56.584 142.636 55.738H143.59ZM148.342 54.442C149.692 54.19 150.952 53.83 152.086 53.326V54.442H148.342ZM153.22 50.806C152.842 51.202 152.374 51.544 151.852 51.85C151.51 51.508 151.114 51.13 150.718 50.806H153.22ZM156.388 61.912V60.148H153.4L153.814 59.734C153.49 59.392 152.95 58.978 152.41 58.618C152.788 58.582 153.112 58.528 153.364 58.42C153.958 58.168 154.12 57.79 154.12 56.944V55.828H156.154V54.442H154.12V53.29H152.158C153.688 52.588 154.948 51.598 155.74 50.158L154.642 49.6L154.3 49.654H151.798C152.068 49.456 152.32 49.258 152.572 49.042L150.808 48.682C149.872 49.384 148.252 50.014 146.092 50.446C146.434 50.698 146.92 51.274 147.136 51.652C147.838 51.454 148.504 51.238 149.08 51.022C149.62 51.454 150.178 51.976 150.574 52.426C149.242 52.948 147.694 53.272 146.074 53.434C146.308 53.686 146.596 54.082 146.776 54.442H146.074V55.828H147.856L147.118 56.386C147.784 56.818 148.54 57.502 148.882 57.97L150.286 56.908C150.034 56.566 149.566 56.188 149.098 55.828H152.086V56.872C152.086 57.052 152.032 57.106 151.834 57.124C151.636 57.124 150.97 57.124 150.394 57.088C150.61 57.556 150.844 58.15 150.916 58.636H151.6L150.952 59.248C151.33 59.5 151.762 59.824 152.14 60.148H149.008C149.026 60.004 149.026 59.878 149.026 59.734V58.474H146.902V59.662C146.902 59.824 146.884 59.986 146.866 60.148H139.648V61.912H145.66C144.634 62.722 142.798 63.46 139.558 63.946C139.954 64.414 140.494 65.17 140.746 65.674C145.534 64.9 147.64 63.424 148.486 61.912H149.026L148.468 62.812C150.718 63.586 153.922 64.81 155.488 65.584L156.46 63.91C155.182 63.352 153.004 62.56 151.078 61.912H156.388ZM149.332 51.634C148.288 51.706 147.406 51.778 146.65 51.832L146.83 52.912C147.64 52.822 148.468 52.732 149.35 52.642L149.332 51.634Z" fill="#5B5555"/>
<path d="M81.1856 8.78C81.1856 9.28667 81.0856 9.77333 80.8856 10.24C80.6856 10.7067 80.4256 11.16 80.1056 11.6C79.7856 12.0267 79.4256 12.44 79.0256 12.84C78.6256 13.24 78.2323 13.62 77.8456 13.98C77.6456 14.1667 77.4256 14.38 77.1856 14.62C76.959 14.8467 76.739 15.08 76.5256 15.32C76.3123 15.56 76.119 15.7867 75.9456 16C75.7856 16.2 75.6856 16.3667 75.6456 16.5H81.6056V19H72.3656C72.339 18.8533 72.3256 18.6667 72.3256 18.44C72.3256 18.2133 72.3256 18.0533 72.3256 17.96C72.3256 17.32 72.4256 16.7333 72.6256 16.2C72.839 15.6667 73.1123 15.1733 73.4456 14.72C73.779 14.2533 74.1523 13.82 74.5656 13.42C74.9923 13.02 75.4123 12.62 75.8256 12.22C76.1456 11.9133 76.4456 11.6267 76.7256 11.36C77.0056 11.08 77.2523 10.8133 77.4656 10.56C77.679 10.2933 77.8456 10.0333 77.9656 9.78C78.0856 9.51333 78.1456 9.24667 78.1456 8.98C78.1456 8.39333 77.979 7.98 77.6456 7.74C77.3123 7.5 76.899 7.38 76.4056 7.38C76.0456 7.38 75.7056 7.44 75.3856 7.56C75.079 7.66667 74.7923 7.8 74.5256 7.96C74.2723 8.10667 74.0523 8.26 73.8656 8.42C73.679 8.56667 73.539 8.68667 73.4456 8.78L71.9656 6.7C72.5523 6.15333 73.2323 5.70667 74.0056 5.36C74.7923 5 75.6323 4.82 76.5256 4.82C77.339 4.82 78.039 4.91333 78.6256 5.1C79.2123 5.28667 79.6923 5.55333 80.0656 5.9C80.4523 6.23333 80.7323 6.64667 80.9056 7.14C81.0923 7.62 81.1856 8.16667 81.1856 8.78ZM93.3128 12.04C93.3128 14.3733 92.8661 16.1667 91.9728 17.42C91.0928 18.66 89.8728 19.28 88.3128 19.28C86.7528 19.28 85.5261 18.66 84.6328 17.42C83.7528 16.1667 83.3128 14.3733 83.3128 12.04C83.3128 10.88 83.4261 9.85333 83.6528 8.96C83.8928 8.06667 84.2328 7.31333 84.6728 6.7C85.1128 6.08667 85.6395 5.62 86.2528 5.3C86.8661 4.98 87.5528 4.82 88.3128 4.82C89.8728 4.82 91.0928 5.44667 91.9728 6.7C92.8661 7.94 93.3128 9.72 93.3128 12.04ZM90.2728 12.04C90.2728 11.3467 90.2395 10.72 90.1728 10.16C90.1061 9.58667 89.9995 9.09333 89.8528 8.68C89.7061 8.26667 89.5061 7.94667 89.2528 7.72C88.9995 7.49333 88.6861 7.38 88.3128 7.38C87.9395 7.38 87.6261 7.49333 87.3728 7.72C87.1328 7.94667 86.9328 8.26667 86.7728 8.68C86.6261 9.09333 86.5195 9.58667 86.4528 10.16C86.3861 10.72 86.3528 11.3467 86.3528 12.04C86.3528 12.7333 86.3861 13.3667 86.4528 13.94C86.5195 14.5133 86.6261 15.0067 86.7728 15.42C86.9328 15.8333 87.1328 16.1533 87.3728 16.38C87.6261 16.6067 87.9395 16.72 88.3128 16.72C88.6861 16.72 88.9995 16.6067 89.2528 16.38C89.5061 16.1533 89.7061 15.8333 89.8528 15.42C89.9995 15.0067 90.1061 14.5133 90.1728 13.94C90.2395 13.3667 90.2728 12.7333 90.2728 12.04ZM95.4 8.02C95.7867 7.86 96.1867 7.68 96.6 7.48C97.0267 7.26667 97.44 7.04 97.84 6.8C98.24 6.54667 98.62 6.28667 98.98 6.02C99.3533 5.74 99.6867 5.44667 99.98 5.14H102.06V19H99.08V9.02C98.68 9.28667 98.2333 9.53333 97.74 9.76C97.2467 9.97333 96.7667 10.16 96.3 10.32L95.4 8.02ZM111.147 11.56C111.454 11.56 111.774 11.5333 112.107 11.48C112.441 11.4133 112.687 11.3267 112.847 11.22V11.04C112.847 10.9867 112.847 10.9333 112.847 10.88C112.861 10.8267 112.867 10.78 112.867 10.74C112.854 10.26 112.814 9.81333 112.747 9.4C112.681 8.97333 112.567 8.60667 112.407 8.3C112.247 7.98 112.027 7.73333 111.747 7.56C111.481 7.37333 111.147 7.28 110.747 7.28C110.427 7.28 110.147 7.34667 109.907 7.48C109.667 7.61333 109.474 7.78667 109.327 8C109.181 8.21333 109.067 8.44667 108.987 8.7C108.921 8.95333 108.887 9.2 108.887 9.44C108.887 10.16 109.061 10.6933 109.407 11.04C109.767 11.3867 110.347 11.56 111.147 11.56ZM112.607 13.5C112.327 13.6333 112.014 13.7333 111.667 13.8C111.334 13.8533 111.047 13.88 110.807 13.88C109.941 13.88 109.201 13.78 108.587 13.58C107.974 13.3667 107.467 13.0733 107.067 12.7C106.681 12.3133 106.394 11.8533 106.207 11.32C106.021 10.7867 105.927 10.2 105.927 9.56C105.927 9.02667 106.014 8.48 106.187 7.92C106.374 7.36 106.661 6.85333 107.047 6.4C107.434 5.93333 107.921 5.55333 108.507 5.26C109.107 4.95333 109.827 4.8 110.667 4.8C112.387 4.8 113.681 5.33333 114.547 6.4C115.427 7.45333 115.867 8.97333 115.867 10.96C115.867 12.2667 115.694 13.42 115.347 14.42C115.014 15.42 114.487 16.26 113.767 16.94C113.061 17.62 112.154 18.14 111.047 18.5C109.941 18.8467 108.627 19.0267 107.107 19.04C107.094 18.6133 107.074 18.2 107.047 17.8C107.021 17.4 106.994 16.9867 106.967 16.56C107.727 16.5467 108.414 16.4933 109.027 16.4C109.641 16.2933 110.181 16.1267 110.647 15.9C111.114 15.66 111.507 15.3467 111.827 14.96C112.161 14.5733 112.421 14.0867 112.607 13.5Z" fill="#5B5555"/>
<path d="M39.984 87.344V88.576H35.888V87.344H39.984ZM41.296 89.648V86.272H34.512V90.384H35.888V89.648H41.296ZM44.512 84.256H31.504V91.264H32.96V85.488H43.008V89.792C43.008 89.984 42.928 90.048 42.72 90.048C42.544 90.064 41.744 90.064 41.072 90.032C41.248 90.352 41.456 90.8 41.536 91.136C42.608 91.152 43.344 91.136 43.84 90.96C44.336 90.768 44.512 90.496 44.512 89.792V84.256ZM41.312 82.432H34.752V81.248H41.312V82.432ZM33.28 80.208V83.488H42.88V80.208H33.28ZM39.024 78.176C38.864 77.664 38.608 77.024 38.4 76.512L36.896 76.864C37.04 77.264 37.2 77.744 37.344 78.176H30.992V79.44H44.944V78.176H39.024ZM54.032 80.064H51.104V79.024H53.568V77.904H51.104V76.592H49.888V80.064H48.816V77.472H47.68V80.064H46.672V81.232H54.032V80.064ZM48.208 89.28V88.704C48.384 88.864 48.608 89.104 48.704 89.232C48.976 88.944 49.2 88.576 49.36 88.176C49.552 88.448 49.744 88.72 49.872 88.928L50.08 88.688C50.256 88.848 50.48 89.072 50.576 89.2C50.864 88.928 51.12 88.56 51.312 88.144C51.584 88.528 51.872 88.944 52.048 89.216L52.528 88.656V89.28H48.208ZM52.528 88.528C52.304 88.208 51.936 87.728 51.584 87.344C51.696 86.976 51.776 86.592 51.824 86.192L51.056 86.096C50.96 86.928 50.752 87.664 50.352 88.256C50.176 88 49.904 87.648 49.632 87.344C49.728 86.976 49.792 86.576 49.84 86.176L49.072 86.08C48.96 87.104 48.752 87.968 48.208 88.592V85.888H52.528V88.528ZM50.048 84.048C50.24 84.192 50.464 84.448 50.56 84.592C50.848 84.32 51.088 83.952 51.296 83.536C51.568 83.92 51.856 84.32 52.016 84.592L52.528 84V84.768H48.208V84.112C48.4 84.256 48.624 84.512 48.72 84.64C48.976 84.352 49.2 84 49.376 83.6C49.536 83.84 49.712 84.112 49.808 84.304L50.048 84.048ZM52.528 83.968C52.304 83.648 51.936 83.168 51.568 82.752C51.68 82.4 51.76 82.016 51.808 81.632L51.04 81.52C50.944 82.336 50.736 83.072 50.336 83.632C50.16 83.408 49.904 83.056 49.632 82.752C49.728 82.4 49.792 82 49.84 81.6L49.072 81.504C48.976 82.528 48.752 83.392 48.208 84V81.68H47.152V90.384H52.528V90.928H53.6V81.712H52.528V83.968ZM60.064 83.952L59.856 84.032H54.56V85.296H59.184C58.64 86.256 57.904 87.296 57.248 88.064C56.832 87.648 56.4 87.248 56.032 86.896L55.152 87.728C56.256 88.816 57.744 90.384 58.448 91.312L59.408 90.336C59.056 89.936 58.624 89.456 58.128 88.96C59.072 87.808 60.256 86.16 60.96 84.688L60.064 83.952ZM56.048 81.392C56.576 80.64 57.04 79.808 57.472 78.944C57.936 79.808 58.496 80.656 59.056 81.392H56.048ZM57.088 76.576C56.416 78.512 55.136 80.72 53.664 82.096C53.936 82.352 54.384 82.88 54.608 83.168C55.024 82.736 55.424 82.256 55.808 81.712V82.672H59.232V81.616C59.664 82.16 60.112 82.64 60.528 83.024C60.736 82.656 61.136 82.128 61.408 81.856C60.24 80.976 58.848 79.312 58.016 77.744C58.112 77.504 58.176 77.264 58.272 77.04L57.088 76.576ZM69.68 81.536V79.744H72.816C72.16 80.368 71.472 80.976 70.72 81.536H69.68ZM73.648 86.928H67.616V85.6H73.648V86.928ZM67.616 89.504V88.096H73.648V89.504H67.616ZM77.088 82.864V81.536H72.896C74.224 80.384 75.424 79.136 76.432 77.76L75.152 77.088C74.64 77.808 74.048 78.496 73.408 79.152V78.448H69.68V76.576H68.208V78.448H64.304V79.744H68.208V81.536H62.912V82.864H68.768C66.848 84.08 64.72 85.072 62.512 85.808C62.784 86.112 63.248 86.704 63.424 87.04C64.336 86.688 65.248 86.304 66.144 85.888V91.264H67.616V90.768H73.648V91.2H75.184V84.368H68.976C69.744 83.888 70.496 83.408 71.216 82.864H77.088ZM90.624 83.216C90.048 84.784 89.152 86.064 88.032 87.12C86.896 86.032 86.016 84.72 85.408 83.216H90.624ZM83.696 78.736H87.504C87.264 79.792 87.008 80.896 86.736 81.808H83.648C83.68 81.216 83.696 80.64 83.696 80.096V78.736ZM91.552 81.728L91.264 81.808H88.384C88.72 80.496 89.088 78.752 89.392 77.296H79.472V78.736H82.16V80.08C82.16 82.8 81.872 86.768 78.592 89.744C78.912 90.016 79.44 90.624 79.664 91.008C82.224 88.672 83.184 85.808 83.52 83.216H83.968C84.656 85.136 85.616 86.752 86.864 88.08C85.52 89.008 83.952 89.664 82.272 90.048C82.56 90.368 82.96 91.008 83.136 91.44C84.944 90.912 86.608 90.192 88.032 89.152C89.248 90.096 90.688 90.816 92.384 91.296C92.608 90.864 93.056 90.208 93.408 89.872C91.824 89.52 90.448 88.912 89.28 88.128C90.816 86.656 91.968 84.72 92.624 82.176L91.552 81.728ZM98.832 84.048H104.928V84.784L104.8 84.896C102.784 85.056 100.704 85.2 98.832 85.328V84.048ZM104.928 79.408V80.656H98.832V79.408H104.928ZM98.832 81.76H104.928V82.944H98.832V81.76ZM107.664 81.68C107.312 82.224 106.896 82.752 106.464 83.264V78.112H102.256C102.512 77.696 102.768 77.232 103.008 76.784L101.2 76.544C101.072 76.992 100.848 77.584 100.624 78.112H97.344V85.44C96.608 85.488 95.92 85.536 95.328 85.568L95.488 86.896C97.488 86.736 100.16 86.528 102.928 86.304C100.592 87.856 97.776 89.008 94.768 89.76C95.088 90.08 95.568 90.784 95.776 91.12C99.152 90.144 102.288 88.704 104.928 86.704V89.264C104.928 89.584 104.816 89.68 104.496 89.696C104.16 89.712 102.992 89.728 101.856 89.664C102.08 90.08 102.304 90.8 102.384 91.232C103.952 91.232 104.992 91.216 105.632 90.96C106.256 90.704 106.464 90.224 106.464 89.28V85.424C107.456 84.512 108.352 83.488 109.104 82.384L107.664 81.68ZM115.408 78C116.896 79.024 118.8 80.576 119.68 81.568L120.784 80.432C119.84 79.424 117.888 77.984 116.416 77.008L115.408 78ZM121.968 82.208C122.832 84.096 123.68 86.608 123.968 88.24L125.456 87.616C125.12 85.984 124.272 83.568 123.344 81.664L121.968 82.208ZM112.08 82.128C111.872 84.112 111.36 86.544 110.736 88.192L112.224 88.816C112.832 87.072 113.296 84.368 113.536 82.4L112.08 82.128ZM114.752 81.056V88.688C114.752 90.448 115.28 90.96 117.152 90.96H120.112C121.968 90.96 122.4 90.048 122.576 87.04C122.192 86.944 121.536 86.672 121.184 86.4C121.072 89.04 120.928 89.568 120.016 89.568H117.312C116.464 89.568 116.288 89.44 116.288 88.688V81.056H114.752ZM133.728 79.2C133.856 79.536 134.016 79.92 134.112 80.272H131.744V81.456H141.2V80.272H138.832L139.376 79.248L137.92 78.944C137.808 79.312 137.616 79.84 137.424 80.272H135.184L135.488 80.176C135.408 79.84 135.216 79.344 135.008 78.944H140.656V77.776H137.232C137.104 77.376 136.928 76.88 136.736 76.496L135.424 76.832C135.52 77.12 135.648 77.456 135.744 77.776H132.384V78.944H134.656L133.728 79.2ZM131.056 77.168L130.848 77.216H127.12V91.216H128.432V78.56H130.32C130 79.616 129.568 80.96 129.136 82C130.256 83.2 130.528 84.272 130.528 85.088C130.528 85.568 130.432 85.968 130.208 86.128C130.064 86.224 129.904 86.256 129.712 86.272C129.472 86.288 129.168 86.288 128.848 86.24C129.04 86.608 129.168 87.184 129.184 87.536C129.568 87.552 129.984 87.552 130.288 87.52C130.64 87.456 130.928 87.36 131.168 87.2C131.648 86.848 131.856 86.176 131.856 85.248C131.84 84.288 131.584 83.136 130.464 81.84C130.976 80.608 131.552 79.04 132.048 77.728L131.056 77.168ZM134.176 84.976H138.752V85.872H134.176V84.976ZM134.176 83.232H138.752V84.112H134.176V83.232ZM141.264 87.824H137.296V86.848H140.192V82.24H132.8V86.848H135.84V87.824H131.776V89.056H135.84V91.248H137.296V89.056H141.264V87.824ZM152.288 79.696C153.344 80.32 154.72 81.248 155.392 81.872L156.176 80.976C155.888 80.736 155.52 80.448 155.072 80.144C155.856 79.44 156.672 78.512 157.248 77.632L156.432 77.008L156.192 77.088H151.936V78.256H155.296C154.944 78.72 154.56 79.2 154.16 79.568C153.76 79.344 153.376 79.12 153.024 78.928L152.288 79.696ZM150.752 81.52C151.104 81.52 151.488 81.504 151.712 81.424C151.664 81.152 151.616 80.688 151.6 80.368C151.376 80.432 150.976 80.448 150.736 80.448H149.344C149.072 80.448 149.008 80.304 149.008 79.872V79.072H151.424V77.968H149.008V76.608H147.84V79.856C147.84 81.072 148.112 81.52 149.296 81.52H150.752ZM146.064 87.856H144.848V83.504H146.064V87.856ZM151.584 88.976C151.296 88.512 150.672 87.792 150.16 87.28L150.128 87.312L150.16 87.024H151.76V85.824H150.24V85.728V84.128H151.648V82.96H149.168C149.264 82.608 149.36 82.256 149.424 81.904L148.32 81.712C148.112 82.88 147.744 84.08 147.2 84.928V82.208H144.992C145.248 81.088 145.456 79.92 145.616 78.704H147.536V77.376H142.736V78.704H144.272C143.968 81.328 143.44 83.808 142.432 85.456C142.672 85.808 143.04 86.528 143.168 86.848C143.344 86.576 143.52 86.256 143.696 85.936V90.4H144.848V89.136H147.2V84.992C147.472 85.104 147.952 85.344 148.144 85.488C148.384 85.12 148.592 84.64 148.784 84.128H149.088V85.712V85.824H147.504V87.024H149.008C148.848 88.192 148.368 89.536 147.024 90.496C147.296 90.704 147.648 91.04 147.824 91.312C148.912 90.48 149.536 89.456 149.856 88.432C150.224 88.848 150.576 89.328 150.768 89.68L151.584 88.976ZM155.168 86.784H157.152V85.616H155.168V83.152H156.08C156 83.584 155.92 84 155.84 84.336L156.8 84.656C157.024 84 157.216 82.992 157.408 82.112L156.608 81.888L156.416 81.936H151.824V83.152H154V88.976C153.648 88.56 153.36 87.984 153.136 87.136C153.232 86.32 153.264 85.456 153.296 84.544H152.24C152.176 87.04 151.968 89.216 150.928 90.464C151.184 90.656 151.536 91.008 151.696 91.28C152.208 90.688 152.56 89.936 152.784 89.04C153.584 90.672 154.688 91.056 156.032 91.056H157.136C157.184 90.736 157.344 90.144 157.52 89.84C157.184 89.856 156.352 89.856 156.128 89.856C155.792 89.856 155.488 89.824 155.168 89.728V86.784ZM51.696 101.16H48.848V99.4H51.696V101.16ZM51.696 104.104H48.848V102.312H51.696V104.104ZM51.696 107.048H48.848V105.224H51.696V107.048ZM53.152 98.184H47.44V108.248H53.152V98.184ZM48.48 108.504C48.096 109.608 47.36 110.696 46.544 111.4C46.864 111.608 47.456 112.04 47.728 112.28C48.576 111.464 49.408 110.152 49.904 108.856L48.48 108.504ZM50.688 109.032C51.344 109.832 52.048 110.952 52.368 111.688L53.632 111.032C53.312 110.312 52.576 109.256 51.904 108.488L50.688 109.032ZM61.376 101.32H59.472V97.624H58V101.32H53.6V102.712H57.456C56.48 105.096 54.896 107.432 53.184 108.664C53.52 108.92 53.968 109.416 54.208 109.736C55.648 108.568 56.976 106.696 58 104.616V110.488C58 110.744 57.904 110.824 57.648 110.824C57.424 110.84 56.672 110.84 55.84 110.808C56.064 111.208 56.304 111.864 56.368 112.264C57.536 112.264 58.304 112.2 58.8 111.976C59.28 111.72 59.472 111.288 59.472 110.488V102.712H61.376V101.32ZM67.088 103.064C68.336 102.792 69.68 102.472 70.992 102.072C72.144 102.424 73.232 102.76 74.08 103.064H67.088ZM73.536 100.136C72.864 100.472 72.016 100.776 71.072 101.064C69.856 100.728 68.592 100.408 67.424 100.136H73.536ZM72.096 110.584V109.272H75.824V108.104H72.096V106.936H76.24V105.752H72.096V104.568H70.624V105.752H68.24C68.384 105.448 68.512 105.16 68.624 104.856L67.344 104.488C66.912 105.704 66.16 106.856 65.312 107.656C65.36 107.144 65.376 106.648 65.376 106.184V104.28H77.104V103.064H74.784L75.52 102.424C74.736 102.152 73.744 101.832 72.672 101.528C73.504 101.224 74.272 100.904 74.928 100.584L74.224 100.136H76.608V98.968H71.184C70.928 98.488 70.464 97.88 70.064 97.432L69.024 97.928C69.28 98.232 69.536 98.6 69.76 98.968H64.064V100.136H66.704L65.888 100.76C66.944 100.984 68.096 101.272 69.248 101.592C67.936 101.912 66.544 102.216 65.328 102.424C65.52 102.568 65.776 102.84 65.984 103.064H63.936V106.168C63.936 107.784 63.792 109.944 62.512 111.48C62.8 111.624 63.424 112.152 63.648 112.424C64.752 111.128 65.168 109.304 65.312 107.656C65.552 107.96 65.92 108.696 66.032 108.968C66.608 108.44 67.152 107.72 67.616 106.936H70.624V108.104H67.072V109.272H70.624V110.584H65.6V111.8H77.328V110.584H72.096ZM82 97.64C81.216 99.96 79.936 102.296 78.544 103.8C78.784 104.136 79.2 104.904 79.344 105.224C79.792 104.696 80.256 104.104 80.688 103.432V112.296H82.048V101.064C82.528 100.088 82.976 99.048 83.344 98.04L82 97.64ZM90.816 108.264V110.472H85.2V108.264H90.816ZM83.936 112.248H85.2V111.672H90.816V112.2H92.128V107.064H83.936V112.248ZM84.16 105.896H91.952V104.712H84.16V105.896ZM91.952 102.456H84.16V103.64H91.952V102.456ZM87.92 100.136L89.072 99.64C88.832 99.064 88.352 98.2 87.92 97.56L86.64 98.056C87.04 98.696 87.488 99.56 87.712 100.136H83.024V101.352H93.168V100.136H87.92ZM100.672 100.248H97.472L98.608 99.592C98.368 99.016 97.872 98.168 97.44 97.496L96.32 98.088C96.752 98.744 97.216 99.656 97.44 100.248H94.64V101.432H100.672V100.248ZM99.984 103.544V102.376H95.28V103.544H99.984ZM98.784 107.848V110.136H96.624V107.848H98.784ZM100.016 106.648H95.296V112.056H96.624V111.336H100.016V106.648ZM95.28 105.64H100.016V104.488H95.28V105.64ZM105.568 110.728C105.04 110.728 104.944 110.616 104.944 109.896V105.32L109.28 104.664L109.04 103.304L104.944 103.912V99.96C106.192 99.672 107.392 99.304 108.368 98.904L107.104 97.768C105.6 98.472 102.944 99.096 100.576 99.496C100.736 99.816 100.96 100.376 101.024 100.712C101.808 100.584 102.64 100.456 103.456 100.296V104.136L100.416 104.584L100.656 105.992L103.456 105.56V109.896C103.456 111.64 103.872 112.136 105.36 112.136H107.424C108.816 112.136 109.184 111.304 109.344 108.84C108.928 108.744 108.32 108.488 107.984 108.216C107.92 110.248 107.824 110.728 107.312 110.728H105.568ZM116.576 100.248H113.52L114.592 99.592C114.368 99.016 113.888 98.168 113.488 97.496L112.416 98.088C112.816 98.744 113.264 99.656 113.488 100.248H110.784V101.432H116.576V100.248ZM115.936 103.544V102.376H111.408V103.544H115.936ZM114.752 107.848V110.136H112.608V107.848H114.752ZM115.952 106.648H111.424V112.056H112.608V111.336H115.952V106.648ZM111.408 105.64H115.952V104.488H111.408V105.64ZM125.36 105.272H121.728V99.8H125.056V98.424H117.152V99.8H120.272V105.272H116.576V106.68H120.272V112.264H121.728V106.68H125.36V105.272ZM117.424 100.872C117.776 102.088 118.096 103.672 118.16 104.712L119.424 104.408C119.328 103.368 119.008 101.816 118.608 100.584L117.424 100.872ZM123.632 104.696C124.016 103.704 124.48 102.104 124.864 100.776L123.456 100.456C123.248 101.64 122.848 103.336 122.48 104.376L123.632 104.696ZM136 102.28H133.776V101.16H136V102.28ZM134.8 104.312H133.776V103.24H134.8V104.312ZM134.8 99.144V100.2H133.776V99.144H134.8ZM134.208 107.656H135.312V110.296H134.208V107.656ZM137.376 107.656V110.296H136.272V107.656H137.376ZM139.44 107.656V110.296H138.336V107.656H139.44ZM141.36 99.864H139.136C139.28 99.224 139.408 98.552 139.52 97.896L138.224 97.64C138.016 99.288 137.6 100.968 136.992 102.136V100.2H135.84V99.144H137.104V98.024H132.672V100.296C132.096 99.816 131.264 99.16 130.464 98.584C130.592 98.376 130.704 98.136 130.8 97.912L129.68 97.496C128.976 98.984 127.728 100.408 126.544 101.336C126.72 101.704 126.976 102.488 127.008 102.808C127.2 102.648 127.392 102.472 127.6 102.28V102.776H129.056V104.2H126.912V105.464H129.056V110.088C128.176 110.248 127.36 110.408 126.704 110.52L127.04 111.848C128.464 111.56 130.304 111.192 132.08 110.808V111.56H141.328V110.296H140.688V106.456H133.024V110.296H132.432L132.352 109.48L130.304 109.864V105.464H132.128V104.2H130.304V102.776H131.84V101.544H128.336C128.848 100.984 129.344 100.36 129.776 99.704C130.576 100.344 131.488 101.096 132.032 101.592L132.672 100.68V105.432H137.28V104.312H135.84V103.24H136.992V102.376C137.328 102.536 137.792 102.808 138.016 103C138.288 102.488 138.56 101.848 138.784 101.144H141.36V99.864ZM137.664 104.936H141.184V103.688H137.664V104.936ZM131.536 109.096C131.76 108.392 132.016 107.304 132.272 106.36L131.2 106.104C131.088 106.888 130.832 108.104 130.608 108.84L131.536 109.096ZM127.104 106.472C127.312 107.4 127.52 108.6 127.6 109.384L128.608 109.144C128.528 108.36 128.288 107.16 128.064 106.248L127.104 106.472Z" fill="#5B5555"/>
<defs>
<linearGradient id="paint0_linear" x1="81.0014" y1="146.157" x2="81.4141" y2="158.263" gradientUnits="userSpaceOnUse">
<stop stop-color="#FFBA42"/>
<stop offset="0.526042" stop-color="#FFC800"/>
<stop offset="1" stop-color="#FFCE00"/>
</linearGradient>
<linearGradient id="paint1_linear" x1="79.801" y1="157.366" x2="80.0857" y2="165.715" gradientUnits="userSpaceOnUse">
<stop stop-color="#FFBA42"/>
<stop offset="0.526042" stop-color="#FFC800"/>
<stop offset="1" stop-color="#FFCE00"/>
</linearGradient>
<linearGradient id="paint2_linear" x1="64.1474" y1="140.905" x2="64.6272" y2="154.979" gradientUnits="userSpaceOnUse">
<stop stop-color="#FFBA42"/>
<stop offset="0.526042" stop-color="#FFC800"/>
<stop offset="1" stop-color="#FFCE00"/>
</linearGradient>
<linearGradient id="paint3_linear" x1="61.7219" y1="153.193" x2="61.9823" y2="160.83" gradientUnits="userSpaceOnUse">
<stop stop-color="#FFBA42"/>
<stop offset="0.526042" stop-color="#FFC800"/>
<stop offset="1" stop-color="#FFCE00"/>
</linearGradient>
<linearGradient id="paint4_linear" x1="50.7014" y1="133.482" x2="51.2472" y2="149.488" gradientUnits="userSpaceOnUse">
<stop stop-color="#FFBA42"/>
<stop offset="0.526042" stop-color="#FFC800"/>
<stop offset="1" stop-color="#FFCE00"/>
</linearGradient>
<linearGradient id="paint5_linear" x1="46.9125" y1="146.393" x2="47.1613" y2="153.69" gradientUnits="userSpaceOnUse">
<stop stop-color="#FFBA42"/>
<stop offset="0.526042" stop-color="#FFC800"/>
<stop offset="1" stop-color="#FFCE00"/>
</linearGradient>
<linearGradient id="paint6_linear" x1="37.9269" y1="122.194" x2="38.5468" y2="140.374" gradientUnits="userSpaceOnUse">
<stop stop-color="#FFBA42"/>
<stop offset="0.526042" stop-color="#FFC800"/>
<stop offset="1" stop-color="#FFCE00"/>
</linearGradient>
<linearGradient id="paint7_linear" x1="32.2136" y1="134.806" x2="32.4743" y2="142.451" gradientUnits="userSpaceOnUse">
<stop stop-color="#FFBA42"/>
<stop offset="0.526042" stop-color="#FFC800"/>
<stop offset="1" stop-color="#FFCE00"/>
</linearGradient>
<linearGradient id="paint8_linear" x1="28.2492" y1="109.742" x2="28.9056" y2="128.992" gradientUnits="userSpaceOnUse">
<stop stop-color="#FFBA42"/>
<stop offset="0.526042" stop-color="#FFC800"/>
<stop offset="1" stop-color="#FFCE00"/>
</linearGradient>
<linearGradient id="paint9_linear" x1="20.9694" y1="120.542" x2="21.2818" y2="129.705" gradientUnits="userSpaceOnUse">
<stop stop-color="#FFBA42"/>
<stop offset="0.526042" stop-color="#FFC800"/>
<stop offset="1" stop-color="#FFCE00"/>
</linearGradient>
<linearGradient id="paint10_linear" x1="20.0104" y1="94.9043" x2="20.669" y2="114.22" gradientUnits="userSpaceOnUse">
<stop stop-color="#FFBA42"/>
<stop offset="0.526042" stop-color="#FFC800"/>
<stop offset="1" stop-color="#FFCE00"/>
</linearGradient>
<linearGradient id="paint11_linear" x1="11.6996" y1="102.921" x2="12.0951" y2="114.521" gradientUnits="userSpaceOnUse">
<stop stop-color="#FFBA42"/>
<stop offset="0.526042" stop-color="#FFC800"/>
<stop offset="1" stop-color="#FFCE00"/>
</linearGradient>
<linearGradient id="paint12_linear" x1="15.6529" y1="81.0414" x2="16.2945" y2="99.8587" gradientUnits="userSpaceOnUse">
<stop stop-color="#FFBA42"/>
<stop offset="0.526042" stop-color="#FFC800"/>
<stop offset="1" stop-color="#FFCE00"/>
</linearGradient>
<linearGradient id="paint13_linear" x1="6.74649" y1="86.2729" x2="7.22028" y2="100.168" gradientUnits="userSpaceOnUse">
<stop stop-color="#FFBA42"/>
<stop offset="0.526042" stop-color="#FFC800"/>
<stop offset="1" stop-color="#FFCE00"/>
</linearGradient>
<linearGradient id="paint14_linear" x1="15.0344" y1="65.8193" x2="15.6184" y2="82.9461" gradientUnits="userSpaceOnUse">
<stop stop-color="#FFBA42"/>
<stop offset="0.526042" stop-color="#FFC800"/>
<stop offset="1" stop-color="#FFCE00"/>
</linearGradient>
<linearGradient id="paint15_linear" x1="5.65433" y1="66.5062" x2="6.22576" y2="83.2654" gradientUnits="userSpaceOnUse">
<stop stop-color="#FFBA42"/>
<stop offset="0.526042" stop-color="#FFC800"/>
<stop offset="1" stop-color="#FFCE00"/>
</linearGradient>
<linearGradient id="paint16_linear" x1="17.7083" y1="50.9292" x2="18.2032" y2="65.4422" gradientUnits="userSpaceOnUse">
<stop stop-color="#FFBA42"/>
<stop offset="0.526042" stop-color="#FFC800"/>
<stop offset="1" stop-color="#FFCE00"/>
</linearGradient>
<linearGradient id="paint17_linear" x1="8.4014" y1="47.1761" x2="9.03488" y2="65.7551" gradientUnits="userSpaceOnUse">
<stop stop-color="#FFBA42"/>
<stop offset="0.526042" stop-color="#FFC800"/>
<stop offset="1" stop-color="#FFCE00"/>
</linearGradient>
<linearGradient id="paint18_linear" x1="23.4209" y1="39.1482" x2="23.8045" y2="50.3994" gradientUnits="userSpaceOnUse">
<stop stop-color="#FFBA42"/>
<stop offset="0.526042" stop-color="#FFC800"/>
<stop offset="1" stop-color="#FFCE00"/>
</linearGradient>
<linearGradient id="paint19_linear" x1="14.6836" y1="31.3155" x2="15.3433" y2="50.6641" gradientUnits="userSpaceOnUse">
<stop stop-color="#FFBA42"/>
<stop offset="0.526042" stop-color="#FFC800"/>
<stop offset="1" stop-color="#FFCE00"/>
</linearGradient>
<linearGradient id="paint20_linear" x1="30.4024" y1="28.1239" x2="30.7204" y2="37.4514" gradientUnits="userSpaceOnUse">
<stop stop-color="#FFBA42"/>
<stop offset="0.526042" stop-color="#FFC800"/>
<stop offset="1" stop-color="#FFCE00"/>
</linearGradient>
<linearGradient id="paint21_linear" x1="22.3439" y1="18.0421" x2="23.0015" y2="37.3288" gradientUnits="userSpaceOnUse">
<stop stop-color="#FFBA42"/>
<stop offset="0.526042" stop-color="#FFC800"/>
<stop offset="1" stop-color="#FFCE00"/>
</linearGradient>
<linearGradient id="paint22_linear" x1="114.507" y1="144.294" x2="114.92" y2="156.4" gradientUnits="userSpaceOnUse">
<stop stop-color="#FFBA42"/>
<stop offset="0.526042" stop-color="#FFC800"/>
<stop offset="1" stop-color="#FFCE00"/>
</linearGradient>
<linearGradient id="paint23_linear" x1="116.441" y1="155.396" x2="116.725" y2="163.746" gradientUnits="userSpaceOnUse">
<stop stop-color="#FFBA42"/>
<stop offset="0.526042" stop-color="#FFC800"/>
<stop offset="1" stop-color="#FFCE00"/>
</linearGradient>
<linearGradient id="paint24_linear" x1="128.937" y1="138.697" x2="129.417" y2="152.77" gradientUnits="userSpaceOnUse">
<stop stop-color="#FFBA42"/>
<stop offset="0.526042" stop-color="#FFC800"/>
<stop offset="1" stop-color="#FFCE00"/>
</linearGradient>
<linearGradient id="paint25_linear" x1="132.167" y1="150.791" x2="132.427" y2="158.428" gradientUnits="userSpaceOnUse">
<stop stop-color="#FFBA42"/>
<stop offset="0.526042" stop-color="#FFC800"/>
<stop offset="1" stop-color="#FFCE00"/>
</linearGradient>
<linearGradient id="paint26_linear" x1="141.827" y1="129.834" x2="142.373" y2="145.839" gradientUnits="userSpaceOnUse">
<stop stop-color="#FFBA42"/>
<stop offset="0.526042" stop-color="#FFC800"/>
<stop offset="1" stop-color="#FFCE00"/>
</linearGradient>
<linearGradient id="paint27_linear" x1="146.457" y1="142.456" x2="146.706" y2="149.753" gradientUnits="userSpaceOnUse">
<stop stop-color="#FFBA42"/>
<stop offset="0.526042" stop-color="#FFC800"/>
<stop offset="1" stop-color="#FFCE00"/>
</linearGradient>
<linearGradient id="paint28_linear" x1="153.428" y1="117.971" x2="154.048" y2="136.151" gradientUnits="userSpaceOnUse">
<stop stop-color="#FFBA42"/>
<stop offset="0.526042" stop-color="#FFC800"/>
<stop offset="1" stop-color="#FFCE00"/>
</linearGradient>
<linearGradient id="paint29_linear" x1="159.96" y1="130.167" x2="160.221" y2="137.811" gradientUnits="userSpaceOnUse">
<stop stop-color="#FFBA42"/>
<stop offset="0.526042" stop-color="#FFC800"/>
<stop offset="1" stop-color="#FFCE00"/>
</linearGradient>
<linearGradient id="paint30_linear" x1="162.737" y1="104.111" x2="163.394" y2="123.362" gradientUnits="userSpaceOnUse">
<stop stop-color="#FFBA42"/>
<stop offset="0.526042" stop-color="#FFC800"/>
<stop offset="1" stop-color="#FFCE00"/>
</linearGradient>
<linearGradient id="paint31_linear" x1="170.71" y1="114.392" x2="171.022" y2="123.554" gradientUnits="userSpaceOnUse">
<stop stop-color="#FFBA42"/>
<stop offset="0.526042" stop-color="#FFC800"/>
<stop offset="1" stop-color="#FFCE00"/>
</linearGradient>
<linearGradient id="paint32_linear" x1="169.131" y1="89.5537" x2="169.79" y2="108.87" gradientUnits="userSpaceOnUse">
<stop stop-color="#FFBA42"/>
<stop offset="0.526042" stop-color="#FFC800"/>
<stop offset="1" stop-color="#FFCE00"/>
</linearGradient>
<linearGradient id="paint33_linear" x1="177.95" y1="96.9864" x2="178.345" y2="108.587" gradientUnits="userSpaceOnUse">
<stop stop-color="#FFBA42"/>
<stop offset="0.526042" stop-color="#FFC800"/>
<stop offset="1" stop-color="#FFCE00"/>
</linearGradient>
<linearGradient id="paint34_linear" x1="172.566" y1="75.4008" x2="173.208" y2="94.2189" gradientUnits="userSpaceOnUse">
<stop stop-color="#FFBA42"/>
<stop offset="0.526042" stop-color="#FFC800"/>
<stop offset="1" stop-color="#FFCE00"/>
</linearGradient>
<linearGradient id="paint35_linear" x1="181.796" y1="80.0136" x2="182.269" y2="93.9091" gradientUnits="userSpaceOnUse">
<stop stop-color="#FFBA42"/>
<stop offset="0.526042" stop-color="#FFC800"/>
<stop offset="1" stop-color="#FFCE00"/>
</linearGradient>
<linearGradient id="paint36_linear" x1="172.127" y1="60.6811" x2="172.711" y2="77.8071" gradientUnits="userSpaceOnUse">
<stop stop-color="#FFBA42"/>
<stop offset="0.526042" stop-color="#FFC800"/>
<stop offset="1" stop-color="#FFCE00"/>
</linearGradient>
<linearGradient id="paint37_linear" x1="181.532" y1="60.7279" x2="182.103" y2="77.4871" gradientUnits="userSpaceOnUse">
<stop stop-color="#FFBA42"/>
<stop offset="0.526042" stop-color="#FFC800"/>
<stop offset="1" stop-color="#FFCE00"/>
</linearGradient>
<linearGradient id="paint38_linear" x1="168.352" y1="46.0005" x2="168.847" y2="60.5144" gradientUnits="userSpaceOnUse">
<stop stop-color="#FFBA42"/>
<stop offset="0.526042" stop-color="#FFC800"/>
<stop offset="1" stop-color="#FFCE00"/>
</linearGradient>
<linearGradient id="paint39_linear" x1="177.391" y1="41.6224" x2="178.024" y2="60.2014" gradientUnits="userSpaceOnUse">
<stop stop-color="#FFBA42"/>
<stop offset="0.526042" stop-color="#FFC800"/>
<stop offset="1" stop-color="#FFCE00"/>
</linearGradient>
<linearGradient id="paint40_linear" x1="162.041" y1="34.8455" x2="162.425" y2="46.0975" gradientUnits="userSpaceOnUse">
<stop stop-color="#FFBA42"/>
<stop offset="0.526042" stop-color="#FFC800"/>
<stop offset="1" stop-color="#FFCE00"/>
</linearGradient>
<linearGradient id="paint41_linear" x1="170.243" y1="26.4341" x2="170.903" y2="45.7835" gradientUnits="userSpaceOnUse">
<stop stop-color="#FFBA42"/>
<stop offset="0.526042" stop-color="#FFC800"/>
<stop offset="1" stop-color="#FFCE00"/>
</linearGradient>
<linearGradient id="paint42_linear" x1="153.954" y1="24.42" x2="154.272" y2="33.7473" gradientUnits="userSpaceOnUse">
<stop stop-color="#FFBA42"/>
<stop offset="0.526042" stop-color="#FFC800"/>
<stop offset="1" stop-color="#FFCE00"/>
</linearGradient>
<linearGradient id="paint43_linear" x1="161.331" y1="13.8133" x2="161.989" y2="33.0993" gradientUnits="userSpaceOnUse">
<stop stop-color="#FFBA42"/>
<stop offset="0.526042" stop-color="#FFC800"/>
<stop offset="1" stop-color="#FFCE00"/>
</linearGradient>
<linearGradient id="paint44_linear" x1="92.0208" y1="18.1225" x2="96.8045" y2="158.424" gradientUnits="userSpaceOnUse">
<stop stop-color="#FFBA42"/>
<stop offset="0.526042" stop-color="#FFC800"/>
<stop offset="1" stop-color="#FFCE00"/>
</linearGradient>
<linearGradient id="paint45_linear" x1="42.0301" y1="18.1318" x2="42.2919" y2="25.8098" gradientUnits="userSpaceOnUse">
<stop stop-color="#FFBA42"/>
<stop offset="0.526042" stop-color="#FFC800"/>
<stop offset="1" stop-color="#FFCE00"/>
</linearGradient>
<linearGradient id="paint46_linear" x1="35.4348" y1="5.98173" x2="36.0567" y2="24.2222" gradientUnits="userSpaceOnUse">
<stop stop-color="#FFBA42"/>
<stop offset="0.526042" stop-color="#FFC800"/>
<stop offset="1" stop-color="#FFCE00"/>
</linearGradient>
<linearGradient id="paint47_linear" x1="142.248" y1="14.7148" x2="142.51" y2="22.3928" gradientUnits="userSpaceOnUse">
<stop stop-color="#FFBA42"/>
<stop offset="0.526042" stop-color="#FFC800"/>
<stop offset="1" stop-color="#FFCE00"/>
</linearGradient>
<linearGradient id="paint48_linear" x1="148.03" y1="2.14285" x2="148.652" y2="20.3833" gradientUnits="userSpaceOnUse">
<stop stop-color="#FFBA42"/>
<stop offset="0.526042" stop-color="#FFC800"/>
<stop offset="1" stop-color="#FFCE00"/>
</linearGradient>
</defs>
</svg>
