<svg width="189" height="167" viewBox="0 0 189 167" fill="none" xmlns="http://www.w3.org/2000/svg">
<path d="M83.3783 149.288C87.662 152.488 88.9576 158.006 88.9576 158.006C88.9576 158.006 83.3082 158.331 79.0245 155.13C74.7399 151.93 73.4437 146.416 73.4437 146.416C73.4437 146.416 79.0922 146.087 83.3783 149.288Z" fill="url(#paint0_linear)"/>
<path d="M78.6165 158.147C83.5964 156.195 88.9576 158.005 88.9576 158.005C88.9576 158.005 86.2435 162.979 81.2613 164.934C76.2814 166.886 70.9195 165.077 70.9195 165.077C70.9195 165.077 73.6343 160.101 78.6165 158.147Z" fill="url(#paint1_linear)"/>
<path d="M66.9359 145.349C70.7401 149.11 71.265 154.752 71.265 154.752C71.265 154.752 65.6246 154.297 61.822 150.536C58.0194 146.776 57.4929 141.132 57.4929 141.132C57.4929 141.132 63.1333 141.587 66.9359 145.349Z" fill="url(#paint2_linear)"/>
<path d="M61.0032 153.468C66.2044 152.221 71.2648 154.752 71.2648 154.752C71.2648 154.752 67.8931 159.307 62.6911 160.554C57.49 161.803 52.4303 159.271 52.4303 159.271C52.4303 159.271 55.802 154.716 61.0032 153.468Z" fill="url(#paint3_linear)"/>
<path d="M53.901 139.329C57.0605 143.646 56.6862 149.302 56.6862 149.302C56.6862 149.302 51.1915 147.96 48.0313 143.642C44.871 139.325 45.243 133.669 45.243 133.669C45.243 133.669 50.7407 135.011 53.901 139.329Z" fill="url(#paint4_linear)"/>
<path d="M46.7595 146.408C52.0917 146.001 56.6872 149.303 56.6872 149.303C56.6872 149.303 52.6384 153.266 47.3055 153.674C41.9734 154.082 37.3779 150.78 37.3779 150.78C37.3779 150.78 41.4274 146.816 46.7595 146.408Z" fill="url(#paint5_linear)"/>
<path d="M41.5954 129.905C43.6134 134.861 41.8815 140.26 41.8815 140.26C41.8815 140.26 36.8762 137.62 34.8582 132.663C32.8386 127.705 34.5697 122.308 34.5697 122.308C34.5697 122.308 39.5759 124.947 41.5954 129.905Z" fill="url(#paint6_linear)"/>
<path d="M32.954 135.036C38.2244 135.937 41.882 140.259 41.882 140.259C41.882 140.259 36.9937 143.121 31.7234 142.221C26.4522 141.32 22.7969 136.998 22.7969 136.998C22.7969 136.998 27.6836 134.136 32.954 135.036Z" fill="url(#paint7_linear)"/>
<path d="M32.1628 118.82C32.9615 124.114 30.0102 128.954 30.0102 128.954C30.0102 128.954 25.7663 125.21 24.9691 119.915C24.1704 114.62 27.121 109.781 27.121 109.781C27.121 109.781 31.3657 113.525 32.1628 118.82Z" fill="url(#paint8_linear)"/>
<path d="M22.5611 121.776C27.4714 123.893 30.0102 128.955 30.0102 128.955C30.0102 128.955 24.5895 130.587 19.6792 128.47C14.7705 126.355 12.2302 121.292 12.2302 121.292C12.2302 121.292 17.6523 119.66 22.5611 121.776Z" fill="url(#paint9_linear)"/>
<path d="M23.9617 104.742C23.6922 110.091 19.8403 114.248 19.8403 114.248C19.8403 114.248 16.4252 109.732 16.6947 104.383C16.9643 99.0334 20.8147 94.8769 20.8147 94.8769C20.8147 94.8769 24.2312 99.3921 23.9617 104.742Z" fill="url(#paint10_linear)"/>
<path d="M13.9668 105.727C18.3582 108.779 19.8403 114.248 19.8403 114.248C19.8403 114.248 14.205 114.768 9.81359 111.716C5.4237 108.663 3.94086 103.195 3.94086 103.195C3.94086 103.195 9.57695 102.676 13.9668 105.727Z" fill="url(#paint11_linear)"/>
<path d="M19.5212 91.2032C18.4101 96.4432 13.9505 99.9386 13.9505 99.9386C13.9505 99.9386 11.2927 94.937 12.4038 89.6969C13.5165 84.4576 17.9738 80.9623 17.9738 80.9623C17.9738 80.9623 20.6323 85.9632 19.5212 91.2032Z" fill="url(#paint12_linear)"/>
<path d="M9.49825 90.5927C13.3509 94.3029 13.9504 99.9389 13.9504 99.9389C13.9504 99.9389 8.30474 99.5594 4.45212 95.8492C0.600266 92.1389 0 86.5029 0 86.5029C0 86.5029 5.6464 86.8824 9.49825 90.5927Z" fill="url(#paint13_linear)"/>
<path d="M18.5853 75.9794C16.239 80.7939 11.0657 83.1013 11.0657 83.1013C11.0657 83.1013 9.70139 77.6028 12.0469 72.7876C14.3947 67.973 19.5656 65.6648 19.5656 65.6648C19.5656 65.6648 20.9331 71.1648 18.5853 75.9794Z" fill="url(#paint14_linear)"/>
<path d="M9.01475 72.9496C11.8507 77.4862 11.0665 83.1004 11.0665 83.1004C11.0665 83.1004 5.6844 81.3591 2.84687 76.8226C0.0093375 72.2861 0.793599 66.6719 0.793599 66.6719C0.793599 66.6719 6.17722 68.4131 9.01475 72.9496Z" fill="url(#paint15_linear)"/>
<path d="M20.7488 60.5064C17.3385 64.6345 11.7707 65.6616 11.7707 65.6616C11.7707 65.6616 11.7345 59.9938 15.1464 55.8648C18.5568 51.7367 24.1238 50.7105 24.1238 50.7105C24.1238 50.7105 24.1615 56.3782 20.7488 60.5064Z" fill="url(#paint16_linear)"/>
<path d="M12.1576 55.3087C13.8504 60.3872 11.7714 65.6618 11.7714 65.6618C11.7714 65.6618 6.94819 62.7011 5.25612 57.6217C3.56409 52.544 5.64314 47.2702 5.64314 47.2702C5.64314 47.2702 10.4656 50.2302 12.1576 55.3087Z" fill="url(#paint17_linear)"/>
<path d="M25.8053 47.674C21.5447 50.9162 15.8934 50.6444 15.8934 50.6444C15.8934 50.6444 17.1469 45.1163 21.4067 41.8741C25.6665 38.6319 31.3186 38.9037 31.3186 38.9037C31.3186 38.9037 30.0644 44.4326 25.8053 47.674Z" fill="url(#paint18_linear)"/>
<path d="M18.6243 40.6517C19.1159 45.9838 15.8927 50.6454 15.8927 50.6454C15.8927 50.6454 11.8707 46.6624 11.3799 41.3295C10.8883 35.9974 14.1123 31.335 14.1123 31.335C14.1123 31.335 18.1327 35.3188 18.6243 40.6517Z" fill="url(#paint19_linear)"/>
<path d="M32.2689 36C27.5516 38.5273 22.0143 37.3634 22.0143 37.3634C22.0143 37.3634 24.1261 32.1026 28.8428 29.5761C33.5616 27.0487 39.0974 28.2119 39.0974 28.2119C39.0974 28.2119 36.9863 33.4734 32.2689 36Z" fill="url(#paint20_linear)"/>
<path d="M26.2908 27.9257C25.9339 33.2695 22.0144 37.3624 22.0144 37.3624C22.0144 37.3624 18.6746 32.7905 19.0314 27.4467C19.3889 22.1021 23.3085 18.0092 23.3085 18.0092C23.3085 18.0092 26.6491 22.5811 26.2908 27.9257Z" fill="url(#paint21_linear)"/>
<path d="M112.342 147.58C108.276 151.066 107.347 156.657 107.347 156.657C107.347 156.657 113.006 156.598 117.069 153.114C121.134 149.629 122.064 144.037 122.064 144.037C122.064 144.037 116.406 144.095 112.342 147.58Z" fill="url(#paint22_linear)"/>
<path d="M117.676 156.096C112.578 154.487 107.347 156.657 107.347 156.657C107.347 156.657 110.383 161.437 115.481 163.047C120.579 164.656 125.809 162.486 125.809 162.486C125.809 162.486 122.774 157.705 117.676 156.096Z" fill="url(#paint23_linear)"/>
<path d="M126.448 143.32C122.9 147.332 122.746 152.998 122.746 152.998C122.746 152.998 128.345 152.16 131.891 148.148C135.438 144.137 135.591 138.47 135.591 138.47C135.591 138.47 129.995 139.308 126.448 143.32Z" fill="url(#paint24_linear)"/>
<path d="M132.901 151.017C127.63 150.127 122.747 152.997 122.747 152.997C122.747 152.997 126.412 157.311 131.683 158.202C136.956 159.094 141.838 156.223 141.838 156.223C141.838 156.223 138.174 151.907 132.901 151.017Z" fill="url(#paint25_linear)"/>
<path d="M139.02 135.885C136.152 140.407 136.896 146.026 136.896 146.026C136.896 146.026 142.29 144.31 145.16 139.787C148.029 135.266 147.286 129.648 147.286 129.648C147.286 129.648 141.89 131.362 139.02 135.885Z" fill="url(#paint26_linear)"/>
<path d="M146.611 142.461C141.264 142.418 136.896 146.026 136.896 146.026C136.896 146.026 141.196 149.705 146.544 149.748C151.891 149.792 156.259 146.183 156.259 146.183C156.259 146.183 151.958 142.505 146.611 142.461Z" fill="url(#paint27_linear)"/>
<path d="M150.276 125.914C148.587 130.998 150.671 136.266 150.671 136.266C150.671 136.266 155.49 133.291 157.18 128.208C158.868 123.123 156.784 117.856 156.784 117.856C156.784 117.856 151.963 120.831 150.276 125.914Z" fill="url(#paint28_linear)"/>
<path d="M159.235 130.447C154.036 131.705 150.672 136.266 150.672 136.266C150.672 136.266 155.735 138.789 160.935 137.531C166.135 136.274 169.5 131.713 169.5 131.713C169.5 131.713 164.435 129.19 159.235 130.447Z" fill="url(#paint29_linear)"/>
<path d="M159.428 113.435C158.981 118.773 162.243 123.402 162.243 123.402C162.243 123.402 166.231 119.376 166.68 114.039C167.127 108.701 163.866 104.072 163.866 104.072C163.866 104.072 159.878 108.099 159.428 113.435Z" fill="url(#paint30_linear)"/>
<path d="M169.203 115.731C164.444 118.177 162.243 123.402 162.243 123.402C162.243 123.402 167.76 124.66 172.519 122.214C177.28 119.768 179.479 114.545 179.479 114.545C179.479 114.545 173.962 113.286 169.203 115.731Z" fill="url(#paint31_linear)"/>
<path d="M165.836 99.6389C166.456 104.958 170.573 108.844 170.573 108.844C170.573 108.844 173.683 104.104 173.063 98.7867C172.442 93.4668 168.325 89.5812 168.325 89.5812C168.325 89.5812 165.216 94.3197 165.836 99.6389Z" fill="url(#paint32_linear)"/>
<path d="M175.872 99.9416C171.692 103.286 170.572 108.843 170.572 108.843C170.572 108.843 176.229 108.977 180.41 105.632C184.589 102.289 185.709 96.7313 185.709 96.7313C185.709 96.7313 180.052 96.597 175.872 99.9416Z" fill="url(#paint33_linear)"/>
<path d="M169.375 85.8041C170.828 90.9567 175.507 94.1405 175.507 94.1405C175.507 94.1405 177.831 88.969 176.377 83.8164C174.923 78.6638 170.245 75.48 170.245 75.48C170.245 75.48 167.922 80.6507 169.375 85.8041Z" fill="url(#paint34_linear)"/>
<path d="M179.335 84.5119C175.735 88.4762 175.506 94.1397 175.506 94.1397C175.506 94.1397 181.115 93.3756 184.715 89.4113C188.314 85.447 188.543 79.7836 188.543 79.7836C188.543 79.7836 182.934 80.5476 179.335 84.5119Z" fill="url(#paint35_linear)"/>
<path d="M169.252 71.0595C171.911 75.7033 177.222 77.6533 177.222 77.6533C177.222 77.6533 178.224 72.0741 175.565 67.4295C172.906 62.7849 167.594 60.8357 167.594 60.8357C167.594 60.8357 166.593 66.4156 169.252 71.0595Z" fill="url(#paint36_linear)"/>
<path d="M178.603 67.3857C176.071 72.1053 177.222 77.6535 177.222 77.6535C177.222 77.6535 182.479 75.5496 185.012 70.8299C187.544 66.1103 186.393 60.5621 186.393 60.5621C186.393 60.5621 181.136 62.6661 178.603 67.3857Z" fill="url(#paint37_linear)"/>
<path d="M165.948 55.7641C169.623 59.6507 175.244 60.2962 175.244 60.2962C175.244 60.2962 174.909 54.6379 171.234 50.7513C167.56 46.8648 161.938 46.2192 161.938 46.2192C161.938 46.2192 162.273 51.8776 165.948 55.7641Z" fill="url(#paint38_linear)"/>
<path d="M174.178 49.9926C172.824 55.175 175.244 60.2962 175.244 60.2962C175.244 60.2962 179.862 57.0128 181.216 51.8304C182.57 46.6488 180.149 41.5284 180.149 41.5284C180.149 41.5284 175.532 44.8094 174.178 49.9926Z" fill="url(#paint39_linear)"/>
<path d="M160.223 43.5146C164.686 46.4602 170.307 45.804 170.307 45.804C170.307 45.804 168.694 40.3736 164.23 37.4281C159.767 34.4833 154.146 35.1395 154.146 35.1395C154.146 35.1395 155.759 40.5706 160.223 43.5146Z" fill="url(#paint40_linear)"/>
<path d="M166.925 36.0178C166.785 41.3715 170.307 45.8038 170.307 45.8038C170.307 45.8038 174.058 41.555 174.198 36.2006C174.338 30.8462 170.815 26.4146 170.815 26.4146C170.815 26.4146 167.064 30.6642 166.925 36.0178Z" fill="url(#paint41_linear)"/>
<path d="M152.609 32.4054C157.482 34.6057 162.931 33.0672 162.931 33.0672C162.931 33.0672 160.478 27.962 155.605 25.7617C150.731 23.5622 145.284 25.1006 145.284 25.1006C145.284 25.1006 147.736 30.2058 152.609 32.4054Z" fill="url(#paint42_linear)"/>
<path d="M158.043 23.9429C158.751 29.2504 162.931 33.0672 162.931 33.0672C162.931 33.0672 165.963 28.2779 165.254 22.9705C164.547 17.6622 160.367 13.8462 160.367 13.8462C160.367 13.8462 157.335 18.6347 158.043 23.9429Z" fill="url(#paint43_linear)"/>
<path d="M148.215 16.2065C148.006 16.4427 147.766 16.6784 147.485 16.9124C147.404 16.9803 147.321 17.0271 147.237 17.0865C164.475 31.0388 175.718 51.6986 176.487 75.0452C177.926 118.769 142.088 155.602 96.597 157.153C51.1058 158.704 12.9266 124.395 11.4875 80.6711C10.7531 58.3599 19.729 37.8455 34.7371 22.8949C34.2924 22.779 33.843 22.6186 33.389 22.4081C18.3761 37.5644 9.42013 58.2421 10.1599 80.7163C11.6222 125.143 50.4162 160.005 96.639 158.429C142.861 156.853 179.276 119.426 177.814 74.9999C177.035 51.3336 165.661 30.3832 148.215 16.2065Z" fill="url(#paint44_linear)"/>
<path d="M43.0404 25.5048C37.8518 26.8092 32.764 24.3345 32.764 24.3345C32.764 24.3345 36.0858 19.7426 41.2728 18.4374C46.4614 17.1322 51.5492 19.6076 51.5492 19.6076C51.5492 19.6076 48.2274 24.1996 43.0404 25.5048Z" fill="url(#paint45_linear)"/>
<path d="M39.1969 16.2169C37.5561 21.3157 32.764 24.3344 32.764 24.3344C32.764 24.3344 30.6316 19.0865 32.2723 13.9869C33.9138 8.88809 38.7068 5.87016 38.7068 5.87016C38.7068 5.87016 40.8384 11.1173 39.1969 16.2169Z" fill="url(#paint46_linear)"/>
<path d="M141.726 22.14C146.988 23.0881 151.902 20.2724 151.902 20.2724C151.902 20.2724 148.284 15.9171 143.023 14.9682C137.762 14.0192 132.847 16.8357 132.847 16.8357C132.847 16.8357 136.465 21.1911 141.726 22.14Z" fill="url(#paint47_linear)"/>
<path d="M144.949 12.6114C146.923 17.5869 151.902 20.2724 151.902 20.2724C151.902 20.2724 153.683 14.8911 151.712 9.91468C149.738 4.93912 144.757 2.25443 144.757 2.25443C144.757 2.25443 142.975 7.63502 144.949 12.6114Z" fill="url(#paint48_linear)"/>
<path d="M65.642 45.388C64.718 48.622 63.134 51.812 61.418 53.88C61.814 54.584 62.474 56.08 62.672 56.696C63.134 56.146 63.596 55.508 64.058 54.826V65.892H66.544V50.118C67.138 48.798 67.622 47.434 68.04 46.114L65.642 45.388ZM77.566 56.916C77.72 57.07 77.896 57.224 78.05 57.4C77.654 57.29 77.258 57.158 77.016 57.026C76.95 57.664 76.84 57.774 76.4 57.774H74.464C73.87 57.774 73.738 57.708 73.738 57.268V56.278H71.692V56.718L70.658 56.19C70.416 56.564 70.108 56.938 69.756 57.312V55.816H74.42L73.76 56.168C74.354 56.608 75.058 57.312 75.432 57.752L76.884 56.894C76.62 56.586 76.158 56.19 75.696 55.816H79.92V57.114C79.59 56.74 79.238 56.432 78.908 56.124L77.566 56.916ZM72.418 61.404L76.95 61.382C76.356 61.8 75.608 62.196 74.728 62.504C73.87 62.218 73.078 61.844 72.418 61.404ZM71.868 53.638H77.962V54.342H71.868V53.638ZM77.962 50.162V50.822H71.868V50.162H77.962ZM77.962 52.582H71.868V51.878H77.962V52.582ZM82.252 54.342H80.404V48.886H75.696L76.026 48.116H81.812V46.246H68.194V48.116H73.32C73.276 48.38 73.232 48.644 73.166 48.886H69.536V54.342H67.534V57.466H69.602C69.272 57.796 68.92 58.104 68.568 58.324L69.998 59.446C70.658 58.984 71.23 58.346 71.714 57.686C71.758 58.302 71.956 58.676 72.374 58.896C71.978 59.336 71.472 59.776 70.878 60.216C70.702 60.018 70.526 59.82 70.372 59.622L68.48 60.282C68.7 60.612 68.964 60.898 69.25 61.206C68.678 61.492 68.106 61.778 67.446 62.02C67.908 62.328 68.568 63.01 68.854 63.494C69.536 63.186 70.152 62.856 70.724 62.526C71.12 62.812 71.538 63.076 71.978 63.34C70.548 63.67 68.876 63.934 67.072 64.11C67.534 64.638 68.084 65.43 68.326 66.002C70.746 65.672 72.88 65.21 74.728 64.594C76.576 65.232 78.666 65.65 80.976 65.892C81.262 65.32 81.768 64.462 82.23 63.978C80.558 63.846 78.996 63.648 77.544 63.34C78.908 62.592 79.942 61.668 80.646 60.612L79.084 59.732L78.644 59.82H74.178C74.376 59.6 74.552 59.38 74.75 59.16H76.664C77.83 59.16 78.358 58.874 78.578 57.95C79.062 58.478 79.524 59.072 79.788 59.49L81.196 58.61C80.976 58.302 80.646 57.884 80.25 57.466H82.252V54.342ZM99.654 57.62H96.948V58.698H84.21V60.832H89.006L87.73 61.734C88.874 62.746 90.37 64.154 91.074 65.012L93.01 63.494C92.35 62.768 91.14 61.69 90.106 60.832H96.948V63.428C96.948 63.736 96.816 63.824 96.486 63.824C96.156 63.846 94.77 63.846 93.692 63.78C93.978 64.418 94.242 65.232 94.33 65.892C96.156 65.892 97.498 65.892 98.422 65.606C99.368 65.32 99.654 64.792 99.654 63.538V60.832H103.812V58.698H99.654V57.62ZM95.342 51.724V51.504C95.958 50.822 96.552 49.964 97.08 48.974H98.752L97.85 49.722C98.422 50.316 99.17 51.108 99.632 51.724H95.342ZM98.136 46.752C98.268 46.422 98.356 46.07 98.466 45.74L96.09 45.168C95.54 47.016 94.528 48.864 93.34 50.03C93.582 50.184 93.912 50.404 94.22 50.646H92.614V51.724H90.546L92.064 50.338C91.756 49.942 91.228 49.436 90.678 48.974H93.758V46.752H88.874C89.006 46.444 89.16 46.158 89.292 45.85L86.982 45.168C86.278 46.818 85.002 48.49 83.682 49.568C84.188 49.986 85.046 50.888 85.42 51.35C86.124 50.712 86.828 49.898 87.488 48.974H89.05L88.28 49.656C89.006 50.272 89.864 51.13 90.348 51.724H84.892V53.946H92.614V55.222H86.102V57.202H101.788V55.222H95.342V53.946H103.13V51.724H100.226L101.612 50.514C101.304 50.096 100.754 49.502 100.182 48.974H104.164V46.752H98.136ZM110.61 53.902V57.95H112.986V45.41H110.61V48.688H108.96V45.916H106.782V50.668H110.61V51.878H105.924V53.902H107.156C107.134 54.716 106.892 56.256 105.704 57.18C106.298 57.422 107.244 57.95 107.684 58.302C109.136 57.092 109.444 54.936 109.444 53.902H110.61ZM116.418 52.318C118.068 52.01 119.608 51.57 120.994 50.954V52.318H116.418ZM122.38 47.874C121.918 48.358 121.346 48.776 120.708 49.15C120.29 48.732 119.806 48.27 119.322 47.874H122.38ZM126.252 61.448V59.292H122.6L123.106 58.786C122.71 58.368 122.05 57.862 121.39 57.422C121.852 57.378 122.248 57.312 122.556 57.18C123.282 56.872 123.48 56.41 123.48 55.376V54.012H125.966V52.318H123.48V50.91H121.082C122.952 50.052 124.492 48.842 125.46 47.082L124.118 46.4L123.7 46.466H120.642C120.972 46.224 121.28 45.982 121.588 45.718L119.432 45.278C118.288 46.136 116.308 46.906 113.668 47.434C114.086 47.742 114.68 48.446 114.944 48.908C115.802 48.666 116.616 48.402 117.32 48.138C117.98 48.666 118.662 49.304 119.146 49.854C117.518 50.492 115.626 50.888 113.646 51.086C113.932 51.394 114.284 51.878 114.504 52.318H113.646V54.012H115.824L114.922 54.694C115.736 55.222 116.66 56.058 117.078 56.63L118.794 55.332C118.486 54.914 117.914 54.452 117.342 54.012H120.994V55.288C120.994 55.508 120.928 55.574 120.686 55.596C120.444 55.596 119.63 55.596 118.926 55.552C119.19 56.124 119.476 56.85 119.564 57.444H120.4L119.608 58.192C120.07 58.5 120.598 58.896 121.06 59.292H117.232C117.254 59.116 117.254 58.962 117.254 58.786V57.246H114.658V58.698C114.658 58.896 114.636 59.094 114.614 59.292H105.792V61.448H113.14C111.886 62.438 109.642 63.34 105.682 63.934C106.166 64.506 106.826 65.43 107.134 66.046C112.986 65.1 115.56 63.296 116.594 61.448H117.254L116.572 62.548C119.322 63.494 123.238 64.99 125.152 65.936L126.34 63.89C124.778 63.208 122.116 62.24 119.762 61.448H126.252ZM117.628 48.886C116.352 48.974 115.274 49.062 114.35 49.128L114.57 50.448C115.56 50.338 116.572 50.228 117.65 50.118L117.628 48.886Z" fill="#5B5555"/>
<path d="M81.1856 8.78C81.1856 9.28667 81.0856 9.77333 80.8856 10.24C80.6856 10.7067 80.4256 11.16 80.1056 11.6C79.7856 12.0267 79.4256 12.44 79.0256 12.84C78.6256 13.24 78.2323 13.62 77.8456 13.98C77.6456 14.1667 77.4256 14.38 77.1856 14.62C76.959 14.8467 76.739 15.08 76.5256 15.32C76.3123 15.56 76.119 15.7867 75.9456 16C75.7856 16.2 75.6856 16.3667 75.6456 16.5H81.6056V19H72.3656C72.339 18.8533 72.3256 18.6667 72.3256 18.44C72.3256 18.2133 72.3256 18.0533 72.3256 17.96C72.3256 17.32 72.4256 16.7333 72.6256 16.2C72.839 15.6667 73.1123 15.1733 73.4456 14.72C73.779 14.2533 74.1523 13.82 74.5656 13.42C74.9923 13.02 75.4123 12.62 75.8256 12.22C76.1456 11.9133 76.4456 11.6267 76.7256 11.36C77.0056 11.08 77.2523 10.8133 77.4656 10.56C77.679 10.2933 77.8456 10.0333 77.9656 9.78C78.0856 9.51333 78.1456 9.24667 78.1456 8.98C78.1456 8.39333 77.979 7.98 77.6456 7.74C77.3123 7.5 76.899 7.38 76.4056 7.38C76.0456 7.38 75.7056 7.44 75.3856 7.56C75.079 7.66667 74.7923 7.8 74.5256 7.96C74.2723 8.10667 74.0523 8.26 73.8656 8.42C73.679 8.56667 73.539 8.68667 73.4456 8.78L71.9656 6.7C72.5523 6.15333 73.2323 5.70667 74.0056 5.36C74.7923 5 75.6323 4.82 76.5256 4.82C77.339 4.82 78.039 4.91333 78.6256 5.1C79.2123 5.28667 79.6923 5.55333 80.0656 5.9C80.4523 6.23333 80.7323 6.64667 80.9056 7.14C81.0923 7.62 81.1856 8.16667 81.1856 8.78ZM93.3128 12.04C93.3128 14.3733 92.8661 16.1667 91.9728 17.42C91.0928 18.66 89.8728 19.28 88.3128 19.28C86.7528 19.28 85.5261 18.66 84.6328 17.42C83.7528 16.1667 83.3128 14.3733 83.3128 12.04C83.3128 10.88 83.4261 9.85333 83.6528 8.96C83.8928 8.06667 84.2328 7.31333 84.6728 6.7C85.1128 6.08667 85.6395 5.62 86.2528 5.3C86.8661 4.98 87.5528 4.82 88.3128 4.82C89.8728 4.82 91.0928 5.44667 91.9728 6.7C92.8661 7.94 93.3128 9.72 93.3128 12.04ZM90.2728 12.04C90.2728 11.3467 90.2395 10.72 90.1728 10.16C90.1061 9.58667 89.9995 9.09333 89.8528 8.68C89.7061 8.26667 89.5061 7.94667 89.2528 7.72C88.9995 7.49333 88.6861 7.38 88.3128 7.38C87.9395 7.38 87.6261 7.49333 87.3728 7.72C87.1328 7.94667 86.9328 8.26667 86.7728 8.68C86.6261 9.09333 86.5195 9.58667 86.4528 10.16C86.3861 10.72 86.3528 11.3467 86.3528 12.04C86.3528 12.7333 86.3861 13.3667 86.4528 13.94C86.5195 14.5133 86.6261 15.0067 86.7728 15.42C86.9328 15.8333 87.1328 16.1533 87.3728 16.38C87.6261 16.6067 87.9395 16.72 88.3128 16.72C88.6861 16.72 88.9995 16.6067 89.2528 16.38C89.5061 16.1533 89.7061 15.8333 89.8528 15.42C89.9995 15.0067 90.1061 14.5133 90.1728 13.94C90.2395 13.3667 90.2728 12.7333 90.2728 12.04ZM103.92 8.78C103.92 9.28667 103.82 9.77333 103.62 10.24C103.42 10.7067 103.16 11.16 102.84 11.6C102.52 12.0267 102.16 12.44 101.76 12.84C101.36 13.24 100.967 13.62 100.58 13.98C100.38 14.1667 100.16 14.38 99.92 14.62C99.6933 14.8467 99.4733 15.08 99.26 15.32C99.0467 15.56 98.8533 15.7867 98.68 16C98.52 16.2 98.42 16.3667 98.38 16.5H104.34V19H95.1C95.0733 18.8533 95.06 18.6667 95.06 18.44C95.06 18.2133 95.06 18.0533 95.06 17.96C95.06 17.32 95.16 16.7333 95.36 16.2C95.5733 15.6667 95.8467 15.1733 96.18 14.72C96.5133 14.2533 96.8867 13.82 97.3 13.42C97.7267 13.02 98.1467 12.62 98.56 12.22C98.88 11.9133 99.18 11.6267 99.46 11.36C99.74 11.08 99.9867 10.8133 100.2 10.56C100.413 10.2933 100.58 10.0333 100.7 9.78C100.82 9.51333 100.88 9.24667 100.88 8.98C100.88 8.39333 100.713 7.98 100.38 7.74C100.047 7.5 99.6333 7.38 99.14 7.38C98.78 7.38 98.44 7.44 98.12 7.56C97.8133 7.66667 97.5267 7.8 97.26 7.96C97.0067 8.10667 96.7867 8.26 96.6 8.42C96.4133 8.56667 96.2733 8.68667 96.18 8.78L94.7 6.7C95.2867 6.15333 95.9667 5.70667 96.74 5.36C97.5267 5 98.3667 4.82 99.26 4.82C100.073 4.82 100.773 4.91333 101.36 5.1C101.947 5.28667 102.427 5.55333 102.8 5.9C103.187 6.23333 103.467 6.64667 103.64 7.14C103.827 7.62 103.92 8.16667 103.92 8.78ZM116.047 12.04C116.047 14.3733 115.601 16.1667 114.707 17.42C113.827 18.66 112.607 19.28 111.047 19.28C109.487 19.28 108.261 18.66 107.367 17.42C106.487 16.1667 106.047 14.3733 106.047 12.04C106.047 10.88 106.161 9.85333 106.387 8.96C106.627 8.06667 106.967 7.31333 107.407 6.7C107.847 6.08667 108.374 5.62 108.987 5.3C109.601 4.98 110.287 4.82 111.047 4.82C112.607 4.82 113.827 5.44667 114.707 6.7C115.601 7.94 116.047 9.72 116.047 12.04ZM113.007 12.04C113.007 11.3467 112.974 10.72 112.907 10.16C112.841 9.58667 112.734 9.09333 112.587 8.68C112.441 8.26667 112.241 7.94667 111.987 7.72C111.734 7.49333 111.421 7.38 111.047 7.38C110.674 7.38 110.361 7.49333 110.107 7.72C109.867 7.94667 109.667 8.26667 109.507 8.68C109.361 9.09333 109.254 9.58667 109.187 10.16C109.121 10.72 109.087 11.3467 109.087 12.04C109.087 12.7333 109.121 13.3667 109.187 13.94C109.254 14.5133 109.361 15.0067 109.507 15.42C109.667 15.8333 109.867 16.1533 110.107 16.38C110.361 16.6067 110.674 16.72 111.047 16.72C111.421 16.72 111.734 16.6067 111.987 16.38C112.241 16.1533 112.441 15.8333 112.587 15.42C112.734 15.0067 112.841 14.5133 112.907 13.94C112.974 13.3667 113.007 12.7333 113.007 12.04Z" fill="#5B5555"/>
<path d="M58.8 81.264C60 80.544 61.088 79.68 62.016 78.672C62.976 79.632 64.16 80.512 65.408 81.264H58.8ZM66.128 82.64V81.664C66.928 82.112 67.728 82.48 68.512 82.768C68.736 82.368 69.2 81.776 69.536 81.472C67.136 80.752 64.448 79.232 62.88 77.664C63.024 77.472 63.152 77.264 63.296 77.056L61.904 76.432C60.384 78.784 57.488 80.544 54.512 81.456C54.88 81.824 55.296 82.4 55.504 82.832C56.304 82.544 57.072 82.208 57.824 81.808V82.64H61.168V84.576H55.888V85.92H61.168V89.488H55.152V90.848H68.88V89.488H62.752V85.92H68.112V84.576H62.752V82.64H66.128ZM65.104 89.424C65.648 88.704 66.352 87.616 66.96 86.608L65.52 86.08C65.184 86.96 64.512 88.176 63.968 88.944L65.104 89.424ZM57.104 86.56C57.68 87.456 58.304 88.656 58.528 89.408L59.824 88.848C59.568 88.096 58.928 86.928 58.32 86.08L57.104 86.56ZM74.544 78.816L73.952 79.312C74.464 79.76 75.12 80.416 75.408 80.832L76.368 80C76.096 79.664 75.632 79.2 75.168 78.816H77.856V77.648H74.032C74.176 77.376 74.304 77.104 74.416 76.832L73.072 76.448C72.56 77.744 71.664 79.04 70.704 79.872C70.992 80.112 71.504 80.608 71.712 80.848C72.272 80.304 72.864 79.616 73.36 78.816H74.544ZM82.096 88.4V89.648H74.816V88.4H82.096ZM81.28 84.112V85.232H74.816V84.112H81.28ZM74.816 86.336H82.72V82.992H73.312V91.28H74.816V90.784H82.096V91.248H83.568V87.28H74.816V86.336ZM76.928 80.048C77.088 80.336 77.248 80.672 77.392 80.992H71.504V83.696H72.928V82.16H83.168V83.696H84.672V80.992H78.896C78.736 80.608 78.496 80.144 78.24 79.776L76.928 80.048ZM80.592 77.648C80.736 77.36 80.864 77.088 80.976 76.8L79.616 76.464C79.216 77.52 78.48 78.528 77.632 79.2C77.968 79.408 78.512 79.856 78.752 80.096C79.136 79.744 79.536 79.312 79.888 78.816H81.536L80.848 79.376C81.44 79.856 82.208 80.544 82.56 80.976L83.552 80.128C83.248 79.744 82.64 79.232 82.096 78.816H85.232V77.648H80.592ZM97.104 86.944V87.824H90.976V86.944H97.104ZM90.976 89.744V88.848H97.104V89.744H90.976ZM89.504 91.248H90.976V90.752H97.104V91.184H98.624V85.92H89.504V91.248ZM88.928 81.12C89.728 80.816 90.512 80.48 91.248 80.064V80.448H96.784V79.984C97.6 80.448 98.48 80.816 99.344 81.12H88.928ZM98.096 84.304H96.4C96.688 83.84 97.04 83.168 97.392 82.48L96.144 82.128C95.968 82.672 95.632 83.488 95.344 84L96.336 84.304H94.544V82.096H98.096V84.304ZM90.64 82.512C90.976 83.072 91.28 83.808 91.392 84.304H89.856V82.096H93.328V84.304H91.44L92.496 83.952C92.384 83.472 92.032 82.736 91.68 82.192L90.64 82.512ZM92.336 79.424C92.96 79.024 93.568 78.56 94.08 78.08C94.592 78.56 95.184 79.024 95.84 79.424H92.336ZM93.792 76.496C92.336 78.368 89.504 79.76 86.608 80.496C86.864 80.752 87.28 81.36 87.408 81.632C87.808 81.52 88.192 81.392 88.592 81.248V85.28H99.408V81.136C99.808 81.28 100.224 81.408 100.608 81.52C100.832 81.168 101.248 80.64 101.552 80.384C99.056 79.856 96.352 78.64 94.864 77.264C94.96 77.168 95.024 77.056 95.104 76.96L93.792 76.496ZM117.152 78.608H115.632C115.408 78.016 115.056 77.248 114.736 76.64L113.504 77.008C113.76 77.488 114.016 78.08 114.192 78.608H112.464V79.824H117.152V78.608ZM114.384 82.576C114.368 81.872 114.144 80.816 113.856 80L112.864 80.256C113.136 81.088 113.328 82.176 113.344 82.864L114.384 82.576ZM107.392 78.64H105.936C105.744 78.08 105.424 77.328 105.088 76.752L103.856 77.12C104.096 77.568 104.336 78.144 104.512 78.64H102.816V79.856H107.392V78.64ZM104.656 82.56C104.624 81.888 104.432 80.848 104.16 80.064L103.168 80.304C103.424 81.12 103.6 82.176 103.6 82.848L104.656 82.56ZM107.184 87.008V85.792H105.712V84.128H107.456V82.912H106.24C106.48 82.128 106.752 81.12 107.008 80.224L105.856 79.984C105.744 80.848 105.456 82.08 105.216 82.912H102.704V84.128H104.4V85.792H102.896V87.008H104.368C104.288 88.192 103.968 89.52 102.816 90.352C103.104 90.576 103.504 91.024 103.696 91.312C105.104 90.176 105.568 88.512 105.68 87.008H107.184ZM111.84 80.128H109.744C109.776 78.992 109.792 77.824 109.792 76.592H108.624C108.624 77.808 108.624 78.992 108.608 80.128H107.712V81.408H108.576C108.432 85.2 107.952 88.32 106.48 90.416C106.736 90.624 107.28 91.072 107.44 91.296C109.04 88.832 109.536 85.52 109.712 81.408H110.624C110.544 87.184 110.464 89.152 110.224 89.568C110.112 89.776 110 89.824 109.824 89.824C109.616 89.824 109.232 89.824 108.8 89.792C108.976 90.128 109.104 90.656 109.12 91.008C109.616 91.024 110.08 91.04 110.4 90.976C110.8 90.912 111.056 90.768 111.296 90.368C111.664 89.76 111.744 87.552 111.84 80.752V80.128ZM117.344 84.144V82.928H116.128C116.368 82.128 116.64 81.088 116.848 80.192L115.712 79.936C115.6 80.8 115.312 82.08 115.056 82.928H112.4V84.144H114.224V86.032H112.688V87.248H114.224V91.232H115.568V87.248H117.152V86.032H115.568V84.144H117.344ZM123.712 86.592C123.168 86.784 122.592 86.96 122.048 87.136V83.52H123.568V82.144H122.048V78.96H123.824V77.584H118.736V78.96H120.624V82.144H118.896V83.52H120.624V87.584C119.856 87.824 119.152 88.016 118.576 88.176L118.928 89.696C120.368 89.232 122.224 88.608 123.968 88L123.712 86.592ZM125.872 81.472H127.968V83.232H125.872V81.472ZM125.872 78.56H127.968V80.288H125.872V78.56ZM131.28 80.288H129.232V78.56H131.28V80.288ZM131.28 83.232H129.232V81.472H131.28V83.232ZM129.36 89.392V87.488H132.912V86.144H129.36V84.496H132.704V77.296H124.512V84.496H127.84V86.144H124.368V87.488H127.84V89.392H123.2V90.752H133.424V89.392H129.36ZM54.736 105.704V101.832H58.896V105.704H54.736ZM49.04 105.704V101.832H53.184V105.704H49.04ZM54.736 100.376V97.592H53.184V100.376H47.552V108.104H49.04V107.16H53.184V112.248H54.736V107.16H58.896V108.024H60.448V100.376H54.736ZM69.248 97.8V110.296C69.248 110.616 69.136 110.712 68.8 110.728C68.464 110.744 67.296 110.744 66.208 110.696C66.448 111.128 66.704 111.832 66.8 112.248C68.32 112.264 69.344 112.216 69.984 111.976C70.608 111.72 70.864 111.288 70.864 110.296V97.8H69.248ZM73.072 101.88C74.368 104.184 75.632 107.16 75.968 109.048L77.584 108.408C77.184 106.472 75.872 103.56 74.512 101.336L73.072 101.88ZM65.104 101.464C64.736 103.576 63.888 106.328 62.544 107.992C62.944 108.136 63.6 108.504 63.968 108.776C65.36 107 66.256 104.104 66.784 101.768L65.104 101.464ZM86.912 106.824H91.36V105.496H86.912V101.992H85.344V110.456H82.656V104.728H81.2V110.456H79.296V111.816H92.816V110.456H86.912V106.824ZM85.872 97.432C84.288 99.832 81.408 101.896 78.512 103.032C78.896 103.384 79.312 103.912 79.536 104.296C81.936 103.208 84.272 101.576 86.016 99.608C88.128 101.944 90.288 103.224 92.608 104.312C92.784 103.848 93.2 103.336 93.568 103.016C91.184 102.056 88.864 100.84 86.848 98.584C86.976 98.408 87.104 98.248 87.216 98.072L85.872 97.432ZM99.552 109.224C98.528 109.88 96.592 110.472 94.976 110.712C95.28 110.984 95.664 111.48 95.872 111.8C97.52 111.432 99.52 110.6 100.64 109.736L99.552 109.224ZM103.584 109.88C105.04 110.44 106.992 111.288 107.984 111.784L108.976 110.92C107.904 110.408 105.952 109.64 104.544 109.128L103.584 109.88ZM104.432 101.496C104.208 101.912 103.84 102.52 103.536 102.92L104.112 103.096H99.744L100.464 102.904C100.336 102.536 100.032 101.944 99.712 101.496H104.432ZM102.704 107.304V106.344H107.616V105.224H102.704V104.264H108.368V103.096H104.976C105.296 102.728 105.664 102.296 106.016 101.816L104.768 101.496H108.96V100.312H106.672C107.088 99.72 107.568 98.92 108 98.136L106.464 97.736C106.224 98.456 105.728 99.464 105.344 100.104L105.968 100.312H104.224V97.56H102.816V100.312H101.232V97.56H99.84V100.312H98.048L98.896 99.992C98.672 99.368 98.112 98.392 97.616 97.704L96.32 98.152C96.768 98.808 97.248 99.688 97.488 100.312H95.104V101.496H99.184L98.256 101.72C98.528 102.136 98.8 102.696 98.96 103.096H95.744V104.264H101.248V105.224H96.528V106.344H101.248V107.304H95.04V108.552H101.248V112.264H102.704V108.552H109.008V107.304H102.704ZM115.376 99.656C115.232 99.08 114.88 98.2 114.56 97.528L113.248 97.88C113.536 98.552 113.872 99.48 114.016 100.056L115.376 99.656ZM120.112 101.88H122.72C122.448 103.672 122.048 105.192 121.424 106.52C120.816 105.176 120.384 103.656 120.064 101.992L120.112 101.88ZM125.36 101.88V100.504H120.544C120.768 99.64 120.976 98.728 121.152 97.816L119.632 97.576C119.184 100.248 118.368 102.824 117.12 104.456L117.136 103.976C117.152 103.784 117.152 103.336 117.152 103.336H113.888V101.464H117.76V100.072H110.752V101.464H112.496V104.664C112.496 106.824 112.256 109.24 110.416 111.256C110.784 111.512 111.264 111.912 111.52 112.232C113.568 110.008 113.888 107.304 113.888 104.696H115.712C115.632 108.792 115.52 110.264 115.264 110.6C115.168 110.776 115.024 110.824 114.8 110.824C114.544 110.824 114.016 110.824 113.44 110.76C113.632 111.144 113.776 111.72 113.824 112.12C114.48 112.152 115.152 112.152 115.536 112.088C115.984 112.024 116.256 111.88 116.528 111.512C116.912 110.984 117.024 109.304 117.12 104.712C117.472 105.016 117.936 105.512 118.144 105.784C118.512 105.288 118.864 104.728 119.168 104.104C119.536 105.544 119.984 106.872 120.576 108.024C119.696 109.304 118.496 110.296 116.928 111.016C117.216 111.304 117.632 111.976 117.776 112.312C119.264 111.544 120.448 110.584 121.392 109.4C122.208 110.584 123.216 111.544 124.512 112.216C124.72 111.8 125.2 111.224 125.52 110.936C124.176 110.312 123.104 109.304 122.272 108.04C123.2 106.36 123.808 104.344 124.208 101.88H125.36ZM133.712 103.576H127.36V104.792H133.712V104.248C134.064 104.472 134.544 104.808 134.768 105.016C135.296 104.136 135.728 103.048 136.096 101.8H139.6C139.408 102.84 139.136 103.88 138.88 104.616L140.096 104.984C140.512 103.88 140.976 102.184 141.264 100.696L140.256 100.392L140.032 100.456H136.432C136.624 99.608 136.784 98.712 136.912 97.8L135.456 97.608C135.168 99.992 134.64 102.296 133.712 103.88V103.576ZM129.824 101.352H127.216V102.568H133.872V101.352H131.216V100.216H134.208V99H131.216V97.672H129.824V99H126.848V100.216H129.824V101.352ZM127.84 107.48C127.52 108.568 127.024 109.8 126.496 110.632C126.832 110.744 127.392 111 127.664 111.176C128.144 110.296 128.688 108.968 129.072 107.784L127.84 107.48ZM134.368 107.048V105.816H126.64V107.048H129.84V112.248H131.248V107.048H134.368ZM131.952 107.912C132.368 108.728 132.832 109.8 133.024 110.472L134.224 109.928C134 109.304 133.504 108.248 133.072 107.464L131.952 107.912ZM138.08 102.92H136.672V103.656C136.672 105.752 136.432 108.872 133.68 111.288C134.048 111.496 134.56 111.976 134.816 112.296C136.256 111 137.056 109.496 137.52 108.024C138.16 109.88 139.12 111.368 140.512 112.232C140.736 111.848 141.184 111.288 141.52 110.984C139.68 110.008 138.56 107.784 138.032 105.224C138.064 104.664 138.08 104.168 138.08 103.704V102.92Z" fill="#5B5555"/>
<defs>
<linearGradient id="paint0_linear" x1="81.0014" y1="146.157" x2="81.4142" y2="158.263" gradientUnits="userSpaceOnUse">
<stop stop-color="#FFBA42"/>
<stop offset="0.526042" stop-color="#FFC800"/>
<stop offset="1" stop-color="#FFCE00"/>
</linearGradient>
<linearGradient id="paint1_linear" x1="79.8011" y1="157.366" x2="80.0858" y2="165.715" gradientUnits="userSpaceOnUse">
<stop stop-color="#FFBA42"/>
<stop offset="0.526042" stop-color="#FFC800"/>
<stop offset="1" stop-color="#FFCE00"/>
</linearGradient>
<linearGradient id="paint2_linear" x1="64.1473" y1="140.905" x2="64.6272" y2="154.979" gradientUnits="userSpaceOnUse">
<stop stop-color="#FFBA42"/>
<stop offset="0.526042" stop-color="#FFC800"/>
<stop offset="1" stop-color="#FFCE00"/>
</linearGradient>
<linearGradient id="paint3_linear" x1="61.7219" y1="153.193" x2="61.9823" y2="160.83" gradientUnits="userSpaceOnUse">
<stop stop-color="#FFBA42"/>
<stop offset="0.526042" stop-color="#FFC800"/>
<stop offset="1" stop-color="#FFCE00"/>
</linearGradient>
<linearGradient id="paint4_linear" x1="50.7014" y1="133.482" x2="51.2471" y2="149.488" gradientUnits="userSpaceOnUse">
<stop stop-color="#FFBA42"/>
<stop offset="0.526042" stop-color="#FFC800"/>
<stop offset="1" stop-color="#FFCE00"/>
</linearGradient>
<linearGradient id="paint5_linear" x1="46.9124" y1="146.393" x2="47.1612" y2="153.69" gradientUnits="userSpaceOnUse">
<stop stop-color="#FFBA42"/>
<stop offset="0.526042" stop-color="#FFC800"/>
<stop offset="1" stop-color="#FFCE00"/>
</linearGradient>
<linearGradient id="paint6_linear" x1="37.927" y1="122.194" x2="38.5468" y2="140.374" gradientUnits="userSpaceOnUse">
<stop stop-color="#FFBA42"/>
<stop offset="0.526042" stop-color="#FFC800"/>
<stop offset="1" stop-color="#FFCE00"/>
</linearGradient>
<linearGradient id="paint7_linear" x1="32.2136" y1="134.806" x2="32.4743" y2="142.451" gradientUnits="userSpaceOnUse">
<stop stop-color="#FFBA42"/>
<stop offset="0.526042" stop-color="#FFC800"/>
<stop offset="1" stop-color="#FFCE00"/>
</linearGradient>
<linearGradient id="paint8_linear" x1="28.2492" y1="109.742" x2="28.9055" y2="128.992" gradientUnits="userSpaceOnUse">
<stop stop-color="#FFBA42"/>
<stop offset="0.526042" stop-color="#FFC800"/>
<stop offset="1" stop-color="#FFCE00"/>
</linearGradient>
<linearGradient id="paint9_linear" x1="20.9694" y1="120.542" x2="21.2818" y2="129.705" gradientUnits="userSpaceOnUse">
<stop stop-color="#FFBA42"/>
<stop offset="0.526042" stop-color="#FFC800"/>
<stop offset="1" stop-color="#FFCE00"/>
</linearGradient>
<linearGradient id="paint10_linear" x1="20.0103" y1="94.9043" x2="20.6689" y2="114.22" gradientUnits="userSpaceOnUse">
<stop stop-color="#FFBA42"/>
<stop offset="0.526042" stop-color="#FFC800"/>
<stop offset="1" stop-color="#FFCE00"/>
</linearGradient>
<linearGradient id="paint11_linear" x1="11.6997" y1="102.921" x2="12.0952" y2="114.521" gradientUnits="userSpaceOnUse">
<stop stop-color="#FFBA42"/>
<stop offset="0.526042" stop-color="#FFC800"/>
<stop offset="1" stop-color="#FFCE00"/>
</linearGradient>
<linearGradient id="paint12_linear" x1="15.6528" y1="81.0414" x2="16.2944" y2="99.8587" gradientUnits="userSpaceOnUse">
<stop stop-color="#FFBA42"/>
<stop offset="0.526042" stop-color="#FFC800"/>
<stop offset="1" stop-color="#FFCE00"/>
</linearGradient>
<linearGradient id="paint13_linear" x1="6.74649" y1="86.2729" x2="7.22028" y2="100.168" gradientUnits="userSpaceOnUse">
<stop stop-color="#FFBA42"/>
<stop offset="0.526042" stop-color="#FFC800"/>
<stop offset="1" stop-color="#FFCE00"/>
</linearGradient>
<linearGradient id="paint14_linear" x1="15.0344" y1="65.8193" x2="15.6184" y2="82.9461" gradientUnits="userSpaceOnUse">
<stop stop-color="#FFBA42"/>
<stop offset="0.526042" stop-color="#FFC800"/>
<stop offset="1" stop-color="#FFCE00"/>
</linearGradient>
<linearGradient id="paint15_linear" x1="5.65427" y1="66.5062" x2="6.2257" y2="83.2654" gradientUnits="userSpaceOnUse">
<stop stop-color="#FFBA42"/>
<stop offset="0.526042" stop-color="#FFC800"/>
<stop offset="1" stop-color="#FFCE00"/>
</linearGradient>
<linearGradient id="paint16_linear" x1="17.7084" y1="50.9292" x2="18.2032" y2="65.4422" gradientUnits="userSpaceOnUse">
<stop stop-color="#FFBA42"/>
<stop offset="0.526042" stop-color="#FFC800"/>
<stop offset="1" stop-color="#FFCE00"/>
</linearGradient>
<linearGradient id="paint17_linear" x1="8.40134" y1="47.1761" x2="9.03482" y2="65.7551" gradientUnits="userSpaceOnUse">
<stop stop-color="#FFBA42"/>
<stop offset="0.526042" stop-color="#FFC800"/>
<stop offset="1" stop-color="#FFCE00"/>
</linearGradient>
<linearGradient id="paint18_linear" x1="23.4208" y1="39.1482" x2="23.8045" y2="50.3994" gradientUnits="userSpaceOnUse">
<stop stop-color="#FFBA42"/>
<stop offset="0.526042" stop-color="#FFC800"/>
<stop offset="1" stop-color="#FFCE00"/>
</linearGradient>
<linearGradient id="paint19_linear" x1="14.6837" y1="31.3155" x2="15.3434" y2="50.6641" gradientUnits="userSpaceOnUse">
<stop stop-color="#FFBA42"/>
<stop offset="0.526042" stop-color="#FFC800"/>
<stop offset="1" stop-color="#FFCE00"/>
</linearGradient>
<linearGradient id="paint20_linear" x1="30.4023" y1="28.1239" x2="30.7204" y2="37.4514" gradientUnits="userSpaceOnUse">
<stop stop-color="#FFBA42"/>
<stop offset="0.526042" stop-color="#FFC800"/>
<stop offset="1" stop-color="#FFCE00"/>
</linearGradient>
<linearGradient id="paint21_linear" x1="22.3438" y1="18.0421" x2="23.0014" y2="37.3288" gradientUnits="userSpaceOnUse">
<stop stop-color="#FFBA42"/>
<stop offset="0.526042" stop-color="#FFC800"/>
<stop offset="1" stop-color="#FFCE00"/>
</linearGradient>
<linearGradient id="paint22_linear" x1="114.507" y1="144.294" x2="114.919" y2="156.4" gradientUnits="userSpaceOnUse">
<stop stop-color="#FFBA42"/>
<stop offset="0.526042" stop-color="#FFC800"/>
<stop offset="1" stop-color="#FFCE00"/>
</linearGradient>
<linearGradient id="paint23_linear" x1="116.441" y1="155.396" x2="116.725" y2="163.746" gradientUnits="userSpaceOnUse">
<stop stop-color="#FFBA42"/>
<stop offset="0.526042" stop-color="#FFC800"/>
<stop offset="1" stop-color="#FFCE00"/>
</linearGradient>
<linearGradient id="paint24_linear" x1="128.937" y1="138.697" x2="129.417" y2="152.77" gradientUnits="userSpaceOnUse">
<stop stop-color="#FFBA42"/>
<stop offset="0.526042" stop-color="#FFC800"/>
<stop offset="1" stop-color="#FFCE00"/>
</linearGradient>
<linearGradient id="paint25_linear" x1="132.167" y1="150.791" x2="132.427" y2="158.428" gradientUnits="userSpaceOnUse">
<stop stop-color="#FFBA42"/>
<stop offset="0.526042" stop-color="#FFC800"/>
<stop offset="1" stop-color="#FFCE00"/>
</linearGradient>
<linearGradient id="paint26_linear" x1="141.827" y1="129.834" x2="142.373" y2="145.839" gradientUnits="userSpaceOnUse">
<stop stop-color="#FFBA42"/>
<stop offset="0.526042" stop-color="#FFC800"/>
<stop offset="1" stop-color="#FFCE00"/>
</linearGradient>
<linearGradient id="paint27_linear" x1="146.457" y1="142.456" x2="146.706" y2="149.753" gradientUnits="userSpaceOnUse">
<stop stop-color="#FFBA42"/>
<stop offset="0.526042" stop-color="#FFC800"/>
<stop offset="1" stop-color="#FFCE00"/>
</linearGradient>
<linearGradient id="paint28_linear" x1="153.428" y1="117.971" x2="154.048" y2="136.151" gradientUnits="userSpaceOnUse">
<stop stop-color="#FFBA42"/>
<stop offset="0.526042" stop-color="#FFC800"/>
<stop offset="1" stop-color="#FFCE00"/>
</linearGradient>
<linearGradient id="paint29_linear" x1="159.96" y1="130.167" x2="160.221" y2="137.811" gradientUnits="userSpaceOnUse">
<stop stop-color="#FFBA42"/>
<stop offset="0.526042" stop-color="#FFC800"/>
<stop offset="1" stop-color="#FFCE00"/>
</linearGradient>
<linearGradient id="paint30_linear" x1="162.737" y1="104.111" x2="163.394" y2="123.362" gradientUnits="userSpaceOnUse">
<stop stop-color="#FFBA42"/>
<stop offset="0.526042" stop-color="#FFC800"/>
<stop offset="1" stop-color="#FFCE00"/>
</linearGradient>
<linearGradient id="paint31_linear" x1="170.71" y1="114.392" x2="171.022" y2="123.554" gradientUnits="userSpaceOnUse">
<stop stop-color="#FFBA42"/>
<stop offset="0.526042" stop-color="#FFC800"/>
<stop offset="1" stop-color="#FFCE00"/>
</linearGradient>
<linearGradient id="paint32_linear" x1="169.131" y1="89.5537" x2="169.79" y2="108.87" gradientUnits="userSpaceOnUse">
<stop stop-color="#FFBA42"/>
<stop offset="0.526042" stop-color="#FFC800"/>
<stop offset="1" stop-color="#FFCE00"/>
</linearGradient>
<linearGradient id="paint33_linear" x1="177.95" y1="96.9864" x2="178.345" y2="108.587" gradientUnits="userSpaceOnUse">
<stop stop-color="#FFBA42"/>
<stop offset="0.526042" stop-color="#FFC800"/>
<stop offset="1" stop-color="#FFCE00"/>
</linearGradient>
<linearGradient id="paint34_linear" x1="172.567" y1="75.4008" x2="173.208" y2="94.2189" gradientUnits="userSpaceOnUse">
<stop stop-color="#FFBA42"/>
<stop offset="0.526042" stop-color="#FFC800"/>
<stop offset="1" stop-color="#FFCE00"/>
</linearGradient>
<linearGradient id="paint35_linear" x1="181.796" y1="80.0136" x2="182.269" y2="93.9091" gradientUnits="userSpaceOnUse">
<stop stop-color="#FFBA42"/>
<stop offset="0.526042" stop-color="#FFC800"/>
<stop offset="1" stop-color="#FFCE00"/>
</linearGradient>
<linearGradient id="paint36_linear" x1="172.127" y1="60.6811" x2="172.711" y2="77.8071" gradientUnits="userSpaceOnUse">
<stop stop-color="#FFBA42"/>
<stop offset="0.526042" stop-color="#FFC800"/>
<stop offset="1" stop-color="#FFCE00"/>
</linearGradient>
<linearGradient id="paint37_linear" x1="181.532" y1="60.7279" x2="182.103" y2="77.4871" gradientUnits="userSpaceOnUse">
<stop stop-color="#FFBA42"/>
<stop offset="0.526042" stop-color="#FFC800"/>
<stop offset="1" stop-color="#FFCE00"/>
</linearGradient>
<linearGradient id="paint38_linear" x1="168.352" y1="46.0005" x2="168.847" y2="60.5144" gradientUnits="userSpaceOnUse">
<stop stop-color="#FFBA42"/>
<stop offset="0.526042" stop-color="#FFC800"/>
<stop offset="1" stop-color="#FFCE00"/>
</linearGradient>
<linearGradient id="paint39_linear" x1="177.391" y1="41.6224" x2="178.024" y2="60.2014" gradientUnits="userSpaceOnUse">
<stop stop-color="#FFBA42"/>
<stop offset="0.526042" stop-color="#FFC800"/>
<stop offset="1" stop-color="#FFCE00"/>
</linearGradient>
<linearGradient id="paint40_linear" x1="162.041" y1="34.8455" x2="162.425" y2="46.0975" gradientUnits="userSpaceOnUse">
<stop stop-color="#FFBA42"/>
<stop offset="0.526042" stop-color="#FFC800"/>
<stop offset="1" stop-color="#FFCE00"/>
</linearGradient>
<linearGradient id="paint41_linear" x1="170.243" y1="26.4341" x2="170.903" y2="45.7835" gradientUnits="userSpaceOnUse">
<stop stop-color="#FFBA42"/>
<stop offset="0.526042" stop-color="#FFC800"/>
<stop offset="1" stop-color="#FFCE00"/>
</linearGradient>
<linearGradient id="paint42_linear" x1="153.954" y1="24.42" x2="154.272" y2="33.7473" gradientUnits="userSpaceOnUse">
<stop stop-color="#FFBA42"/>
<stop offset="0.526042" stop-color="#FFC800"/>
<stop offset="1" stop-color="#FFCE00"/>
</linearGradient>
<linearGradient id="paint43_linear" x1="161.331" y1="13.8133" x2="161.989" y2="33.0993" gradientUnits="userSpaceOnUse">
<stop stop-color="#FFBA42"/>
<stop offset="0.526042" stop-color="#FFC800"/>
<stop offset="1" stop-color="#FFCE00"/>
</linearGradient>
<linearGradient id="paint44_linear" x1="92.0208" y1="18.1225" x2="96.8046" y2="158.424" gradientUnits="userSpaceOnUse">
<stop stop-color="#FFBA42"/>
<stop offset="0.526042" stop-color="#FFC800"/>
<stop offset="1" stop-color="#FFCE00"/>
</linearGradient>
<linearGradient id="paint45_linear" x1="42.0302" y1="18.1318" x2="42.292" y2="25.8098" gradientUnits="userSpaceOnUse">
<stop stop-color="#FFBA42"/>
<stop offset="0.526042" stop-color="#FFC800"/>
<stop offset="1" stop-color="#FFCE00"/>
</linearGradient>
<linearGradient id="paint46_linear" x1="35.4348" y1="5.98173" x2="36.0567" y2="24.2222" gradientUnits="userSpaceOnUse">
<stop stop-color="#FFBA42"/>
<stop offset="0.526042" stop-color="#FFC800"/>
<stop offset="1" stop-color="#FFCE00"/>
</linearGradient>
<linearGradient id="paint47_linear" x1="142.248" y1="14.7148" x2="142.51" y2="22.3928" gradientUnits="userSpaceOnUse">
<stop stop-color="#FFBA42"/>
<stop offset="0.526042" stop-color="#FFC800"/>
<stop offset="1" stop-color="#FFCE00"/>
</linearGradient>
<linearGradient id="paint48_linear" x1="148.03" y1="2.14285" x2="148.651" y2="20.3833" gradientUnits="userSpaceOnUse">
<stop stop-color="#FFBA42"/>
<stop offset="0.526042" stop-color="#FFC800"/>
<stop offset="1" stop-color="#FFCE00"/>
</linearGradient>
</defs>
</svg>
