<svg width="21" height="21" viewBox="0 0 21 21" fill="none" xmlns="http://www.w3.org/2000/svg">
<path d="M20.5589 5.42781C20.437 4.99189 20.2045 4.59483 19.8841 4.2751C19.5637 3.95537 19.1662 3.72378 18.73 3.60278C17.0926 3.16506 10.5104 3.16506 10.5104 3.16506C10.5104 3.16506 3.94071 3.15456 2.28631 3.60278C1.85082 3.72432 1.45405 3.95614 1.13434 4.27585C0.814639 4.59555 0.582814 4.99232 0.461277 5.42781C0.150345 7.10402 -0.00279301 8.80568 0.00387052 10.5105C0.000836618 12.2071 0.153951 13.9003 0.461277 15.5688C0.583207 16.0046 0.815101 16.4016 1.13469 16.7219C1.45429 17.0422 1.85085 17.2749 2.28631 17.3978C3.92365 17.8355 10.5104 17.8355 10.5104 17.8355C10.5104 17.8355 17.0762 17.8355 18.73 17.3978C19.1661 17.2755 19.5635 17.043 19.8838 16.7227C20.2041 16.4023 20.4366 16.005 20.5589 15.5688C20.8602 13.9013 21.0072 12.2056 20.9967 10.5105C21.0072 8.80422 20.8634 7.10584 20.5589 5.42781ZM8.40781 13.6519V7.35522L13.8868 10.5105L8.40781 13.6519Z" fill="white"/>
</svg>
