<svg width="419" height="42" viewBox="0 0 419 42" fill="none" xmlns="http://www.w3.org/2000/svg">
<g clip-path="url(#clip0)">
<path d="M77.2467 0.578857H0.589111V41.4212H77.2467V0.578857Z" stroke="black" stroke-miterlimit="10"/>
<path d="M20.6339 15.1349H16.8632V15.8294H20.3841V17.1573H16.8703V17.8518H21.4823V19.4123H10.4153V17.8518H14.741V17.1573H11.2943V15.8318H14.741V15.1372H10.9703V13.7758H14.741V13.1114H10.7193V9.30964H14.741V8.63014H12.2064V6.3218H10.4495V7.13215H4.67554V5.42235H6.77064C6.6693 5.05731 6.50591 4.48193 6.28045 3.69629L8.42622 3.51343C8.46 3.69093 8.58412 4.32723 8.79858 5.42235H10.268V4.75903H12.2111V3.66272H14.272V4.75903H17.3475V3.66272H19.4096V4.75903H21.3268V6.31834H19.4014V8.62667H16.8667V9.30617H20.8731V13.1078H16.8667V13.7724H20.6375L20.6339 15.1349ZM9.97222 9.67316H5.20816V8.07909H9.97222V9.67316ZM9.97222 12.1957H5.20816V10.6027H9.97222V12.1957ZM5.29182 19.6659V13.1426H9.88738V19.5165H8.28247V18.6031H6.89791V19.6659H5.29182ZM8.28247 14.835H6.89791V16.9107H8.28247V14.835ZM12.7095 11.7812H14.7375V10.6363H12.7095V11.7812ZM17.3393 7.24909V6.323H14.2638V7.24909H17.3393ZM18.877 10.6363H16.8667V11.7812H18.877V10.6363Z" fill="#231815"/>
<path d="M21.7981 11.6296C22.0793 10.2582 22.315 8.62598 22.5051 6.73286L23.9745 6.8486C23.7718 8.80731 23.5362 10.4894 23.2675 11.8947C22.7176 11.7743 22.2278 11.686 21.7981 11.6296ZM24.0959 3.69521H26.191V6.98171C26.7095 7.18083 27.2727 7.40236 27.8807 7.64624L27.3399 9.40579L26.191 8.84089V20.0294H24.0959V3.69521ZM33.4897 18.5013L34.1826 17.1573H31.2768L32.1016 18.4851C30.558 19.1025 29.0088 19.6504 27.4542 20.1289L26.5586 18.3022C28.0237 17.9595 29.415 17.5779 30.7323 17.1573H26.9475V15.4811H28.0634V6.93197H31.7964V6.12162H27.3705V4.44537H31.7964V3.59912H33.9434V4.44537H38.4882V6.12162H33.9434V6.93197H37.7447V15.4811H38.8052V17.1573H34.6421C36.6359 17.6451 38.0385 18.0213 38.85 18.286L38.0393 20.0954C36.4949 19.5212 34.9791 18.9906 33.492 18.5036L33.4897 18.5013ZM35.5848 8.42995H30.2292V9.19283H35.5848V8.42995ZM30.2292 11.2847H35.5848V10.5206H30.2292V11.2847ZM30.2292 13.3765H35.5848V12.6124H30.2292V13.3765ZM30.2292 15.4845H35.5848V14.7043H30.2292V15.4845Z" fill="#231815"/>
<path d="M39.6937 19.0847L39.2224 16.7277L41.2339 16.2798V12.1956H39.6113V10.1374H41.2339V6.65175H39.5441V4.5599H45.0824V6.65175H43.3926V10.1374H44.9645V12.1956H43.3926V15.7403C43.9959 15.579 44.5815 15.4158 45.1495 15.2506C45.1047 16.0077 45.0992 16.7665 45.133 17.5242H49.3232V16.0806H45.4712V14.1879H49.3232V12.9932H45.5525V4.37817H55.2503V12.9932H51.4796V14.1879H55.3316V16.0806H51.4926V17.5242H56.0881V19.4169H44.4967V17.6654C43.0065 18.069 41.4055 18.5421 39.6937 19.0847ZM47.6688 7.81397H49.3185V6.23728H47.6688V7.81397ZM47.6688 11.1341H49.3185V9.54582H47.6688V11.1341ZM53.1434 6.23728H51.4938V7.80938H53.1434V6.23728ZM53.1434 11.1341V9.54582H51.4938V11.1399L53.1434 11.1341Z" fill="#231815"/>
<path d="M58.6181 15.8642L60.5271 16.6942C59.8625 17.912 59.1527 19.0962 58.3978 20.2469L56.6067 19.1344C57.3399 18.0828 58.0115 16.9909 58.6181 15.8642ZM64.7456 6.71885H69.3576V3.64185H71.5882V6.71306H73.3628V8.73778H71.5882V17.2197C71.6409 17.5822 71.6068 17.9518 71.4886 18.2991C71.3704 18.6464 71.1714 18.9618 70.9073 19.2203C70.6433 19.4788 70.3216 19.6732 69.9676 19.7881C69.6137 19.903 69.2374 19.9353 68.8686 19.8823C68.2401 19.9039 67.519 19.9147 66.7051 19.9147C66.4797 18.5988 66.3332 17.8518 66.2656 17.6735C66.8552 17.7325 67.4476 17.7604 68.0402 17.7569C68.9412 17.7901 69.3804 17.3586 69.3576 16.4626V11.5485C68.3706 13.4433 67.0942 15.1787 65.5727 16.6942C65.0331 16.0189 64.601 15.4933 64.2766 15.1175V15.7148H57.3844V4.21141H64.2777V14.6197C66.1693 12.9876 67.6943 10.9864 68.7555 8.74358H64.7491L64.7456 6.71885ZM62.2156 6.10414H59.4441V7.53154H62.2156V6.10414ZM59.4441 10.6687H62.2156V9.24135H59.4441V10.6687ZM62.2156 13.8291V12.4017H59.4441V13.8291H62.2156ZM61.3036 16.7L63.0711 15.8375C63.815 16.9658 64.5024 18.0667 65.1332 19.1402L63.1218 20.1196C62.5772 18.9475 61.9707 17.8041 61.3048 16.6942L61.3036 16.7Z" fill="#231815"/>
<path d="M7.5732 21.6047L9.80382 22.1836C9.3804 23.511 8.94833 24.7531 8.50763 25.91V37.9204H6.36185V30.5914C5.96122 31.3099 5.55547 31.9713 5.14462 32.5756C5.0205 31.6896 4.84022 30.6477 4.60376 29.45C5.87161 26.9447 6.86693 24.3151 7.5732 21.6047ZM21.3952 25.3566H9.58464V23.4639H14.1119C13.9092 22.9831 13.6782 22.4741 13.419 21.937L15.9371 21.489C16.2129 21.9984 16.5228 22.6567 16.8668 23.4639H21.3952V25.3566ZM10.2433 37.9227V31.5488H20.4149V37.9227H18.0994V37.0591H12.5612V37.9227H10.2433ZM20.4149 28.0458H10.2811V26.27H20.4149V28.0458ZM20.4149 30.669H10.2811V28.892H20.4149V30.669ZM18.0994 33.5075H12.5612V35.1004H18.0994V33.5075Z" fill="#231815"/>
<path d="M37.7166 35.3333C37.7546 35.9168 37.5809 36.4947 37.2264 36.9644C37.0345 37.1692 36.8033 37.3347 36.5461 37.4515C36.2889 37.5683 36.0107 37.6341 35.7276 37.6451C34.8441 37.7205 33.9569 37.7468 33.0704 37.7238C32.8893 36.9102 32.6635 36.1067 32.394 35.3171C33.5551 35.3834 34.1859 35.4166 34.2864 35.4166C34.4282 35.4382 34.573 35.4271 34.7096 35.3843C34.8462 35.3414 34.9708 35.268 35.0737 35.1698C35.1765 35.0716 35.2547 34.9513 35.3021 34.8184C35.3495 34.6854 35.3649 34.5435 35.347 34.4037V32.8988H31.8319V37.5467H29.4576V32.8988H25.8047C25.8251 34.7006 25.3302 36.4718 24.3765 38.0109C23.6554 37.5023 22.9291 37.0393 22.1978 36.6217C23.1098 35.4039 23.5489 33.2403 23.5151 30.1309V22.303H37.7249L37.7166 35.3333ZM25.8718 26.5515H29.454V24.4932H25.8718V26.5515ZM25.8718 30.7514H29.454V28.6931H25.8718V30.7514ZM35.3517 24.4932H31.8366V26.5515H35.3493L35.3517 24.4932ZM31.8366 30.7514H35.3493V28.6931H31.8343L31.8366 30.7514Z" fill="#231815"/>
<path d="M39.4063 31.6149H42.1094V29.4073H39.9448V27.4486H42.1071V25.6555C41.6756 26.2007 41.2134 26.7216 40.7225 27.2159C40.3949 26.7397 39.9271 26.1312 39.3191 25.3904C40.4964 24.2545 41.4679 22.9297 42.1919 21.4729L44.439 21.936C44.2144 22.399 43.9787 22.8416 43.732 23.2638H55.3741V25.2225H53.6337V27.4474H55.1538V29.4062H53.6337V31.6138H55.8973V33.5725H39.4063V31.6149ZM41.3494 33.657L43.3267 34.619C42.7878 35.8014 42.184 36.9541 41.5179 38.0722L39.5418 36.8764C40.2223 35.8473 40.8264 34.7714 41.3494 33.657ZM44.036 27.4486H45.3028V25.2236H44.036V27.4486ZM44.036 31.6161H45.3028V29.4084H44.036V31.6161ZM46.097 33.9232C46.7168 35.3286 47.1394 36.3632 47.3649 37.0269L45.2356 37.7909C44.8868 36.6958 44.4983 35.6388 44.0702 34.6201L46.097 33.9232ZM47.2294 27.4498H48.4973V25.2248H47.2294V27.4498ZM47.2294 31.6172H48.4973V29.4096H47.2294V31.6172ZM50.0574 33.8411C50.5979 34.7928 51.0704 35.7803 51.4714 36.7965L49.3763 37.7423C48.9844 36.7027 48.5388 35.6834 48.0412 34.6884L50.0574 33.8411ZM50.4286 27.4509H51.713V25.2259H50.4286V27.4509ZM50.4286 31.6184H51.713V29.4108H50.4286V31.6184ZM53.9672 33.6732C54.7103 34.8023 55.3411 35.8592 55.8596 36.8439L53.9 38.0016C53.3022 36.8439 52.6769 35.7376 52.0241 34.6826L53.9672 33.6732Z" fill="#231815"/>
<path d="M58.9551 21.5227L61.0172 21.9707C60.6786 23.2989 60.3251 24.5437 59.9567 25.7052V37.9078H58.0714V30.4527C57.7328 31.1279 57.3832 31.7531 57.0226 32.328C56.8993 31.3247 56.7422 30.2682 56.5513 29.1584C57.6695 26.7201 58.4769 24.1555 58.9551 21.5227ZM65.0719 35.3668L66.1702 36.6773C64.6155 37.1202 62.8641 37.5574 60.9159 37.9888C60.6649 37.4278 60.3653 36.8891 60.0203 36.3786C61.6653 36.1023 63.3492 35.765 65.0719 35.3668ZM61.0655 24.6263H64.2471V23.6469H61.1834V22.142H72.9268V23.6469H69.4801V24.6263H72.6617V28.0795H61.0703L61.0655 24.6263ZM61.5051 28.693H72.1833V35.2453H61.5086L61.5051 28.693ZM62.9191 26.8339H64.2377V25.8684H62.9226L62.9191 26.8339ZM69.9821 29.8553H63.6968V30.602H69.9927L69.9821 29.8553ZM63.6968 32.3454H69.9927V31.5987H63.7074L63.6968 32.3454ZM69.9927 34.0876V33.3409H63.7074V34.0876H69.9927ZM66.2079 24.6263H67.5182V23.6469H66.2008L66.2079 24.6263ZM66.2079 26.8339H67.5182V25.8684H66.2008L66.2079 26.8339ZM68.3536 35.3494C70.1447 35.6705 71.8062 35.9969 73.338 36.3288C72.9775 36.9933 72.7025 37.53 72.5132 37.939C70.9146 37.4629 69.259 37.0384 67.5465 36.6657L68.3536 35.3494ZM70.8034 26.8339V25.8684H69.486V26.8304L70.8034 26.8339Z" fill="#231815"/>
<path d="M83.5979 5.89588C84.7954 4.14159 85.6971 2.20902 86.268 0.172589L87.2107 0.434158C86.8844 1.4361 86.5012 2.41932 86.063 3.37918V11.8889H85.1687V5.11796C84.815 5.72591 84.4213 6.31063 83.9903 6.86832C83.8662 6.5357 83.7354 6.21153 83.5979 5.89588ZM87.0893 1.77585H91.0345C90.7925 1.36836 90.5407 0.964782 90.2791 0.565014L91.0887 0.149414C91.3786 0.576966 91.6645 1.02806 91.9465 1.50269L91.421 1.77585H95.5959V2.60705H87.0893V1.77585ZM87.754 3.7114H94.883V4.52176H87.754V3.7114ZM87.754 5.62152H94.883V6.43188H87.754V5.62152ZM87.8871 7.54436H94.7628V11.8889H93.8319V11.177H88.8168V11.8889H87.8871V7.54436ZM93.8319 8.35472H88.8168V10.3724H93.8319V8.35472Z" fill="#231815"/>
<path d="M101.782 11.6644V7.88926H98.2731C98.198 9.36413 97.6901 10.7862 96.8108 11.9839C96.6011 11.723 96.3634 11.4502 96.0979 11.1654C96.6195 10.4397 96.9808 9.61474 97.1584 8.74364C97.3639 7.54414 97.453 6.32817 97.4247 5.11212V0.874023H107.272V10.3111C107.272 11.2518 106.817 11.7226 105.906 11.7233C105.352 11.7233 104.728 11.7114 104.034 11.6875C103.993 11.4274 103.933 11.099 103.853 10.7023C104.554 10.7501 105.122 10.7737 105.557 10.773C106.055 10.773 106.306 10.5414 106.306 10.0783V7.89393H102.751V11.6689L101.782 11.6644ZM98.3332 7.03383H101.782V4.81346H98.391C98.4149 5.55443 98.3956 6.29615 98.3332 7.03496V7.03383ZM98.3874 1.75037V3.95915H101.782V1.75037H98.3874ZM106.302 1.75037H102.751V3.95915H106.304L106.302 1.75037ZM102.75 7.03383H106.302V4.81346H102.751L102.75 7.03383Z" fill="#231815"/>
<path d="M108.561 4.743H113.382V0.208496H114.398V1.97857H119.473V2.85718H114.398V4.743H120.234V5.64591H108.561V4.743ZM113.37 6.0731H114.385V7.4391L114.881 6.80934C116.798 7.67139 118.356 8.43504 119.556 9.10029L118.928 9.9789C117.833 9.32291 116.318 8.53539 114.385 7.61623V11.8994H113.37V6.0731Z" fill="#231815"/>
<path d="M120.717 7.14161C121.752 6.05909 122.623 4.83562 123.303 3.50897L124.089 3.93615C123.766 4.51034 123.443 5.04242 123.121 5.53249V11.8543H122.24V6.77929C121.888 7.23845 121.509 7.67643 121.104 8.09088C120.995 7.76703 120.866 7.45002 120.717 7.14161ZM120.754 3.48586C121.827 2.54855 122.715 1.424 123.372 0.169189L124.182 0.620682C123.383 1.98945 122.381 3.23369 121.209 4.3124C121.085 4.02304 120.932 3.74623 120.754 3.48586ZM128.608 1.86515H129.477V3.07606H132.607V3.88634H129.477V5.02666H131.822V11.7918H130.951V11.0799H127.12V11.7918H126.251V5.03125H128.608V3.891H125.478V5.54181C125.628 7.71571 125.19 9.88987 124.209 11.8439C123.96 11.5857 123.684 11.3552 123.384 11.1563C124.188 10.0882 124.591 8.24832 124.592 5.63671V1.09535C127.13 0.98499 129.595 0.802803 131.987 0.548896L132.144 1.41599C130.404 1.57034 128.181 1.72085 125.474 1.86748V3.07832H128.604L128.608 1.86515ZM130.951 5.80112H127.12V6.81052H130.951V5.80112ZM127.12 8.55509H130.951V7.54682H127.12V8.55509ZM127.12 10.2915H130.951V9.29479H127.12V10.2915Z" fill="#231815"/>
<path d="M133.066 9.46722C133.566 9.34065 134.086 9.20634 134.625 9.06434V5.82298H133.32V4.99179H134.625V2.17875H133.248V1.34755H136.848V2.17875H135.47V4.99179H136.649V5.82298H135.47V8.83859L136.933 8.42186C136.933 8.7869 136.937 9.09982 136.944 9.36067C136.3 9.51502 135.1 9.85116 133.345 10.369L133.066 9.46722ZM144.291 8.23314L144.799 8.8629C144.179 9.22639 143.562 9.56253 142.95 9.87123C143.613 10.2815 144.34 10.5825 145.102 10.7626C144.882 11.0048 144.68 11.2625 144.498 11.5336C142.835 10.9917 141.418 9.89592 140.491 8.43578C140.249 8.67271 140.007 8.90227 139.765 9.12454V10.8193L141.349 10.2023C141.34 10.5033 141.34 10.7803 141.349 11.0335C140.878 11.1917 140.426 11.3541 139.995 11.5208C139.729 11.6345 139.471 11.7652 139.222 11.9121L138.702 11.2592C138.879 11.1643 138.969 10.927 138.969 10.5473V9.76355C138.283 10.2848 137.546 10.7381 136.769 11.1168C136.6 10.8714 136.419 10.6221 136.226 10.369C137.617 9.82177 138.882 9.00614 139.947 7.97037H138.569V8.37438H137.773V5.56134H144.165V8.22388H143.368V7.97383H141.047C141.391 8.52688 141.829 9.01699 142.344 9.42207C143.016 9.06286 143.666 8.66586 144.291 8.23314ZM137.041 4.16179H144.871V4.85054H137.041V4.16179ZM137.524 0.718994H144.376V3.71142H143.628V3.38966H138.274V3.73693H137.524V0.718994ZM138.274 2.74944H139.591V1.36034H138.274V2.74944ZM143.362 7.30705V6.22813H138.563V7.30705H143.362ZM140.298 2.74944H141.615V1.36034H140.298V2.74944ZM143.634 1.36034H142.315V2.74944H143.634V1.36034Z" fill="#231815"/>
<path d="M145.464 5.89588C146.661 4.14159 147.563 2.20902 148.134 0.172589L149.076 0.434158C148.751 1.43628 148.367 2.41953 147.929 3.37918V11.8889H147.034V5.11796C146.681 5.72592 146.287 6.31063 145.856 6.86832C145.733 6.53608 145.599 6.21191 145.464 5.89588ZM148.955 1.77585H152.9C152.658 1.36836 152.406 0.964782 152.145 0.565014L152.956 0.149414C153.245 0.576966 153.531 1.02806 153.812 1.50269L153.287 1.77585H157.462V2.60705H148.955V1.77585ZM149.621 3.7114H156.749V4.52176H149.621V3.7114ZM149.621 5.62152H156.749V6.43188H149.621V5.62152ZM149.753 7.54436H156.629V11.8889H155.698V11.177H150.684V11.8889H149.753V7.54436ZM155.698 8.35472H150.684V10.3724H155.698V8.35472Z" fill="#231815"/>
<path d="M163.649 11.6644V7.88926H160.137C160.062 9.36427 159.554 10.7865 158.674 11.9839C158.465 11.723 158.23 11.4502 157.967 11.1654C158.488 10.4393 158.85 9.61455 159.028 8.74364C159.233 7.54414 159.322 6.32817 159.294 5.11212V0.874023H169.14V10.3111C169.14 11.2518 168.686 11.7226 167.776 11.7233C167.22 11.7233 166.595 11.7114 165.902 11.6875C165.862 11.4274 165.802 11.099 165.722 10.7023C166.423 10.7501 166.99 10.7737 167.425 10.773C167.924 10.773 168.174 10.5414 168.174 10.0783V7.89393H164.614V11.6689L163.649 11.6644ZM160.199 7.03383H163.649V4.81346H160.254C160.28 5.55439 160.261 6.29614 160.199 7.03496V7.03383ZM160.254 1.75037V3.95915H163.649V1.75037H160.254ZM168.168 1.75037H164.614V3.95915H168.167L168.168 1.75037ZM164.616 7.03383H168.168V4.81346H164.614L164.616 7.03383Z" fill="#231815"/>
<path d="M170.283 7.84197H172.228V4.45238H176.505V2.3339H172.952C172.425 3.27227 171.815 4.16329 171.129 4.99651C170.898 4.75601 170.647 4.53379 170.38 4.33198C171.51 3.08789 172.383 1.64037 172.952 0.0695801L173.943 0.342808C173.774 0.734859 173.597 1.11457 173.412 1.48193H181.725V2.33743H177.483V4.45238H181.519V5.28245H177.483V7.84656H182.268V8.70087H177.483V11.9064H176.504V8.70087H170.282L170.283 7.84197ZM173.183 7.84197H176.505V5.27779H173.183V7.84197Z" fill="#231815"/>
<path d="M182.57 8.8628C183.721 7.59752 184.645 6.14911 185.301 4.57956H182.631V3.71366H185.531V1.93327C184.701 2.01044 183.88 2.08527 183.066 2.15781C183.008 1.85247 182.929 1.55123 182.83 1.25603C184.764 1.10168 186.737 0.899495 188.751 0.649447L188.993 1.55236C188.138 1.65501 187.292 1.75033 186.455 1.83831V3.71366H189.198V4.57956H186.449V6.17017L186.982 5.67126C187.738 6.3041 188.491 6.98476 189.24 7.7133L188.504 8.44954C188.012 7.88693 187.327 7.19466 186.449 6.37274V11.8437H185.531V5.90853C184.894 7.35359 184.062 8.70752 183.056 9.9336C182.837 9.41807 182.675 9.06114 182.57 8.8628ZM190.085 1.58592H191.004V9.08742H190.085V1.58592ZM192.95 0.398193H193.904V10.2867C193.934 10.4921 193.914 10.7013 193.846 10.8976C193.778 11.094 193.665 11.272 193.514 11.4174C193.364 11.5629 193.181 11.6717 192.98 11.735C192.779 11.7984 192.566 11.8146 192.357 11.7824C192.027 11.7824 191.492 11.7785 190.751 11.7708C190.703 11.4455 190.642 11.0901 190.57 10.7023C191.063 10.7626 191.559 10.7985 192.056 10.8099C192.178 10.8275 192.303 10.8164 192.421 10.7776C192.539 10.7388 192.645 10.6733 192.732 10.5865C192.819 10.4998 192.884 10.3941 192.922 10.278C192.96 10.162 192.969 10.0389 192.95 9.91855V0.398193Z" fill="#231815"/>
<path d="M195.078 8.38829H200.588V7.34639H201.541V8.38829H206.93V9.21949H201.541V11.8889H200.588V9.21949H195.078V8.38829ZM198.123 5.19435L198.558 5.89589C197.599 6.44924 196.62 7.01458 195.621 7.59185L195.113 6.79768C195.951 6.41026 196.954 5.87581 198.123 5.19435ZM199.681 6.45273C199.806 6.44424 200.709 6.39866 202.391 6.31609C202.189 6.03941 201.995 5.78015 201.802 5.53936L202.453 5.13535C203.032 5.76584 203.57 6.43202 204.062 7.1299L203.288 7.60457C203.146 7.39388 203.007 7.19128 202.871 6.99332C201.339 7.07513 200.073 7.15619 199.07 7.23645C198.855 7.25849 198.641 7.2944 198.431 7.34406L198.128 6.53378C198.317 6.47724 198.499 6.40158 198.672 6.30803C199.383 5.83338 200.057 5.3079 200.689 4.73593C200.107 4.75908 199.607 4.78883 199.192 4.8251C199.022 4.84825 198.838 4.88298 198.636 4.93045L198.274 4.20693C198.479 4.13343 198.668 4.02051 198.829 3.8747C199.403 3.39243 199.914 2.84219 200.351 2.23661H195.251V1.40548H200.665C200.467 1.05356 200.281 0.744804 200.109 0.47932L200.979 0.0637207C201.293 0.536034 201.568 0.981789 201.794 1.40548H206.743V2.23661H200.707L201.282 2.53301C200.629 3.19055 200.079 3.71296 199.632 4.10038C200.092 4.0888 200.693 4.07381 201.433 4.05876C201.755 3.74157 202.076 3.40817 202.399 3.05509L203.234 3.53089C202.121 4.58586 200.934 5.56223 199.681 6.45273ZM195.5 3.36647L196.117 2.78766C196.785 3.30936 197.369 3.80368 197.868 4.27059L197.192 4.92465C196.656 4.37695 196.091 3.85686 195.5 3.36647ZM204.188 5.18283C205.34 5.82416 206.238 6.37015 206.882 6.82085L206.35 7.59185C205.503 6.94764 204.615 6.35716 203.692 5.82411L204.188 5.18283ZM206.387 3.44638C205.756 3.98262 205.09 4.47791 204.393 4.92925L203.778 4.30182C204.467 3.86815 205.111 3.36705 205.697 2.80617L206.387 3.44638Z" fill="#231815"/>
<path d="M214.851 5.52668H208.694V4.63062H214.851V5.52668ZM214.851 8.26906H208.694V7.37306H214.851V8.26906Z" fill="#231815"/>
<path d="M228.493 8.74366C228.283 8.94972 228.008 9.22673 227.668 9.57479C225.689 8.06274 224.092 6.12136 223.004 3.90244V8.60242H225.771V9.43362H223.004V11.8646H222.061V9.43362H219.197V8.60242H222.061V3.90244C220.871 6.115 219.268 8.08792 217.336 9.71836C217.022 9.42509 216.756 9.18779 216.54 9.00643C218.623 7.39732 220.369 5.406 221.681 3.14303H216.805V2.26435H222.061V0.126221H223.004V2.26435H228.259V3.14303H223.348C224.543 5.41447 226.315 7.34382 228.493 8.74366Z" fill="#231815"/>
<path d="M228.916 7.27234C230.313 6.08361 231.469 4.64556 232.322 3.03424L233.168 3.54473C232.768 4.22722 232.328 4.887 231.852 5.52084V11.8068H230.848V6.74326C230.376 7.26972 229.872 7.76726 229.339 8.23312C229.209 7.90049 229.068 7.58027 228.916 7.27234ZM228.976 3.50884C230.216 2.57983 231.266 1.42762 232.069 0.113525L232.94 0.636805C231.984 2.06729 230.81 3.3445 229.459 4.42341C229.314 4.12243 229.153 3.81754 228.976 3.50884ZM233.288 4.61326H240.938V5.50346H238.593V10.1444C238.622 10.3453 238.602 10.55 238.536 10.7421C238.47 10.9343 238.359 11.1087 238.213 11.2516C238.066 11.3944 237.888 11.5018 237.692 11.5652C237.495 11.6286 237.287 11.6463 237.083 11.6169C236.406 11.6169 235.718 11.6127 235.017 11.6042C234.968 11.2878 234.908 10.9316 234.836 10.5357C235.466 10.5992 236.099 10.631 236.733 10.6306C236.845 10.6474 236.96 10.6381 237.069 10.6035C237.177 10.5688 237.276 10.5098 237.356 10.431C237.437 10.3523 237.498 10.2561 237.535 10.15C237.571 10.044 237.582 9.93106 237.566 9.82027V5.5H233.288V4.61326ZM233.995 1.02457H240.264V1.91596H233.993L233.995 1.02457Z" fill="#231815"/>
<path d="M253.312 8.94523C253.046 9.27014 252.828 9.55525 252.659 9.80067C251.933 9.46599 251.248 9.05167 250.617 8.56553V9.21959H247.729V10.4536H252.453V11.2246H242.099V10.4536H246.823V9.21959H243.898V8.57125C243.275 9.08753 242.604 9.54677 241.895 9.94311C241.702 9.68099 241.492 9.43114 241.267 9.19521C242.465 8.63196 243.554 7.86897 244.486 6.94015H241.4V6.16802H243.804V2.19156H241.773V1.41943H243.799V0.137939H244.707V1.41943H249.891V0.137939H250.799V1.41943H252.829V2.19156H250.799V6.16802H253.167V6.94015H249.986C250.926 7.84703 252.063 8.53264 253.312 8.94523ZM246.823 7.32452H247.729V8.47523H250.496C249.919 8.01916 249.39 7.50635 248.919 6.94481H245.59C245.104 7.49044 244.579 8.00185 244.02 8.47523H246.823V7.32452ZM244.709 3.02735H249.894V2.19622H244.709V3.02735ZM244.709 4.59479H249.894V3.75787H244.709V4.59479ZM244.709 6.17268H249.894V5.3299H244.709V6.17268Z" fill="#231815"/>
<path d="M253.867 3.08177L254.375 2.36977C255.004 2.70239 255.68 3.07823 256.405 3.4973L255.824 4.30765C255.221 3.88628 254.569 3.47768 253.867 3.08177ZM253.904 8.83982H259.341V7.94842H260.283V8.83982H265.502V9.65011H260.283V11.8612H259.341V9.64205H253.904V8.83982ZM254.242 8.04332C254.853 6.95206 255.413 5.86774 255.922 4.79038C256.204 4.95707 256.481 5.11223 256.755 5.25346C256.174 6.35321 255.642 7.42942 255.16 8.48209L254.242 8.04332ZM254.677 0.84981L255.185 0.15526C255.965 0.592073 256.618 0.991854 257.142 1.35458L256.599 2.11399C255.994 1.67486 255.354 1.25344 254.677 0.84981ZM256.586 3.85969C257.524 2.72324 258.32 1.47938 258.954 0.15526L259.837 0.415699C259.635 0.795402 259.425 1.17283 259.209 1.54443H261.781C261.545 1.21181 261.292 0.867211 261.021 0.510661L261.721 0.0961914C262.044 0.499819 262.338 0.883402 262.602 1.2469L262.084 1.54443H265.128V2.30377H262.252V3.27734H264.813V4.03676H262.252V5.01033H264.813V5.76974H262.252V6.83827H265.245V7.59769H258.744V8.04911H257.898V3.56216C257.633 3.92566 257.362 4.28686 257.089 4.64341C256.94 4.36907 256.772 4.10526 256.586 3.8539V3.85969ZM258.749 3.28088H261.407V2.30731H258.749V3.28088ZM258.749 5.01732H261.407V4.04375H258.749V5.01732ZM258.749 6.8452H261.407V5.77667H258.749V6.8452Z" fill="#231815"/>
<path d="M265.987 8.8628C267.137 7.59717 268.06 6.14883 268.717 4.57956H266.047V3.71366H268.947V1.93327C268.117 2.01044 267.295 2.08527 266.481 2.15781C266.423 1.85247 266.344 1.55123 266.246 1.25603C268.179 1.10168 270.153 0.899495 272.167 0.649447L272.403 1.55236C271.548 1.65501 270.702 1.75033 269.866 1.83831V3.71366H272.608V4.57956H269.866V6.17017L270.397 5.67126C271.154 6.3041 271.907 6.98476 272.656 7.7133L271.92 8.44954C271.429 7.88693 270.744 7.19466 269.866 6.37274V11.8437H268.947V5.90853C268.31 7.35359 267.478 8.70752 266.472 9.9336C266.252 9.41807 266.09 9.06114 265.987 8.8628ZM273.501 1.58592H274.42V9.08742H273.501V1.58592ZM276.365 0.398193H277.32V10.2867C277.349 10.4921 277.329 10.7013 277.262 10.8976C277.194 11.094 277.08 11.272 276.93 11.4174C276.779 11.5629 276.596 11.6717 276.395 11.735C276.195 11.7984 275.981 11.8146 275.773 11.7824C275.443 11.7824 274.907 11.7785 274.167 11.7708C274.118 11.4455 274.057 11.0901 273.985 10.7023C274.478 10.7626 274.974 10.7985 275.471 10.8099C275.594 10.8275 275.719 10.8164 275.837 10.7776C275.954 10.7388 276.061 10.6733 276.148 10.5865C276.235 10.4998 276.3 10.3941 276.338 10.278C276.376 10.162 276.385 10.0389 276.365 9.91855V0.398193Z" fill="#231815"/>
<path d="M278.494 8.38829H284.004V7.34639H284.957V8.38829H290.344V9.21949H284.956V11.8889H284.002V9.21949H278.492L278.494 8.38829ZM281.538 5.19435L281.973 5.89589C281.014 6.44924 280.035 7.01458 279.037 7.59185L278.529 6.79768C279.366 6.41026 280.37 5.87581 281.538 5.19435ZM283.096 6.45273C283.221 6.44424 284.125 6.39866 285.806 6.31609C285.605 6.03941 285.411 5.78015 285.217 5.53936L285.869 5.13535C286.448 5.76584 286.985 6.43202 287.477 7.1299L286.703 7.60457C286.562 7.39388 286.423 7.19128 286.286 6.99332C284.755 7.07513 283.488 7.15619 282.486 7.23645C282.27 7.25849 282.057 7.2944 281.846 7.34406L281.544 6.53378C281.733 6.47707 281.915 6.40142 282.088 6.30803C282.798 5.83339 283.473 5.30791 284.105 4.73593C283.522 4.75908 283.023 4.78883 282.607 4.8251C282.438 4.84825 282.254 4.88298 282.051 4.93045L281.689 4.20693C281.895 4.13343 282.084 4.02051 282.244 3.8747C282.819 3.39242 283.33 2.84218 283.767 2.23661H278.656V1.40548H284.07C283.872 1.05356 283.686 0.744804 283.513 0.47932L284.384 0.0637207C284.698 0.536034 284.973 0.981789 285.198 1.40548H290.147V2.23661H284.112L284.687 2.53301C284.034 3.19055 283.484 3.71296 283.037 4.10038C283.497 4.0888 284.098 4.07381 284.838 4.05876C285.16 3.74157 285.481 3.40817 285.804 3.05509L286.638 3.53089C285.529 4.58547 284.345 5.56183 283.096 6.45273ZM278.915 3.36647L279.533 2.78766C280.201 3.30936 280.785 3.80368 281.284 4.27059L280.608 4.92465C280.071 4.37692 279.506 3.85683 278.914 3.36647H278.915ZM287.603 5.18283C288.756 5.82416 289.654 6.37015 290.297 6.82085L289.766 7.59185C288.919 6.94764 288.031 6.35716 287.107 5.82411L287.603 5.18283ZM289.802 3.44638C289.171 3.98262 288.505 4.47791 287.808 4.92925L287.193 4.30182C287.883 3.86815 288.526 3.36705 289.113 2.80617L289.802 3.44638Z" fill="#231815"/>
<path d="M293.548 12.359C292.179 10.8099 291.453 8.81233 291.512 6.76186C291.463 4.68571 292.187 2.66344 293.548 1.07446H294.593C293.25 2.66783 292.526 4.67794 292.55 6.74681C292.518 8.79539 293.239 10.7866 294.58 12.3556L293.548 12.359Z" fill="#231815"/>
<path d="M297.819 7.82924C297.639 9.35576 297.006 10.7968 296 11.9736C295.735 11.7223 295.457 11.4843 295.167 11.2605C295.951 10.4267 296.493 9.40229 296.738 8.29345C296.95 7.1344 297.043 5.9574 297.016 4.78008V0.671631H305.087V9.93268C305.087 11.1042 304.519 11.6896 303.384 11.6888C302.913 11.6888 302.3 11.6811 301.547 11.6657C301.507 11.3809 301.445 11.0486 301.365 10.6689C302.106 10.7168 302.69 10.7403 303.118 10.7396C303.249 10.7595 303.383 10.7492 303.509 10.7095C303.635 10.6698 303.75 10.6018 303.845 10.5109C303.94 10.4199 304.012 10.3085 304.055 10.1854C304.099 10.0624 304.113 9.93106 304.096 9.80189V7.83391L297.819 7.82924ZM297.915 6.96335H304.096V4.68398H298.004C298.004 5.4758 297.974 6.23559 297.915 6.96335ZM298.006 1.56183V3.81809H304.096V1.55837L298.006 1.56183Z" fill="#231815"/>
<path d="M311.624 2.64285H307.298V1.8325H309.485C309.257 1.37474 308.995 0.934078 308.701 0.513984L309.401 0.134277C309.701 0.550569 309.971 0.986882 310.21 1.44007L309.582 1.8325H311.624V2.64285ZM311.201 4.48232H307.72V3.67196H311.201V4.48232ZM311.201 6.28589H307.72V5.50337H311.201V6.28589ZM307.72 11.7268V7.32778H311.201V11.0183H308.531V11.7314L307.72 11.7268ZM310.392 10.2068V8.13001H308.531V10.2068H310.392ZM312.844 1.73181V6.30447C312.987 8.24975 312.622 10.1988 311.783 11.9664C311.587 11.6961 311.369 11.4421 311.13 11.207C311.847 9.6947 312.155 8.02663 312.025 6.36347V0.922588H318.694V10.2879C318.711 10.4755 318.687 10.6646 318.623 10.8423C318.56 11.02 318.458 11.1823 318.325 11.3184C318.193 11.4544 318.032 11.5611 317.854 11.6311C317.676 11.7011 317.485 11.7329 317.293 11.7244C317.019 11.7325 316.557 11.7245 315.904 11.6886C315.87 11.3808 315.818 11.0754 315.746 10.774C316.39 10.8296 316.834 10.8585 317.075 10.8585C317.183 10.871 317.292 10.8593 317.395 10.8243C317.497 10.7893 317.59 10.7319 317.667 10.6565C317.744 10.5811 317.802 10.4896 317.838 10.3889C317.874 10.2881 317.886 10.1807 317.873 10.0748V1.72948L312.844 1.73181ZM313.122 4.98475H314.946V3.89191H313.44V3.14529H314.949V2.02122H315.774V3.13716H317.26V3.88386H315.774V4.97663H317.564V5.73604H313.122V4.98475ZM313.654 6.69343H317V9.70904H314.427V10.2543H313.654V6.69343ZM316.227 7.45284H314.427V8.95775H316.227V7.45284Z" fill="#231815"/>
<path d="M319.611 8.8628C320.762 7.59722 321.685 6.14888 322.342 4.57956H319.672V3.71366H322.572V1.93327C321.742 2.01044 320.921 2.08527 320.107 2.15781C320.048 1.85259 319.969 1.55139 319.871 1.25603C321.805 1.10168 323.778 0.899495 325.792 0.649447L326.028 1.55236C325.173 1.65501 324.327 1.75033 323.49 1.83831V3.71366H326.232V4.57956H323.49V6.17017L324.021 5.67126C324.779 6.3041 325.532 6.98476 326.28 7.7133L325.544 8.44954C325.053 7.88693 324.368 7.19466 323.49 6.37274V11.8437H322.572V5.90853C321.936 7.35384 321.104 8.70783 320.097 9.9336C319.878 9.41807 319.716 9.06114 319.611 8.8628ZM327.126 1.58592H328.045V9.08742H327.126V1.58592ZM329.991 0.398193H330.944V10.2867C330.974 10.492 330.954 10.7012 330.887 10.8976C330.819 11.0939 330.705 11.2721 330.555 11.4175C330.405 11.563 330.222 11.6717 330.021 11.7351C329.82 11.7985 329.607 11.8147 329.398 11.7824C329.068 11.7824 328.533 11.7785 327.792 11.7708C327.744 11.4455 327.683 11.0901 327.609 10.7023C328.103 10.7626 328.599 10.7985 329.097 10.8099C329.219 10.8275 329.345 10.8164 329.462 10.7776C329.58 10.7388 329.686 10.6733 329.773 10.5865C329.86 10.4998 329.925 10.3941 329.963 10.278C330.001 10.162 330.011 10.0389 329.991 9.91855V0.398193Z" fill="#231815"/>
<path d="M332.118 8.38829H337.627V7.34639H338.581V8.38829H343.97V9.21949H338.581V11.8889H337.627V9.21949H332.118V8.38829ZM335.163 5.19435L335.598 5.89589C334.638 6.44924 333.66 7.01458 332.661 7.59185L332.153 6.79768C332.991 6.41026 333.994 5.87581 335.163 5.19435ZM336.721 6.45273C336.845 6.44424 337.749 6.39866 339.431 6.31609C339.229 6.03941 339.035 5.78015 338.842 5.53936L339.493 5.13535C340.072 5.76614 340.609 6.4323 341.102 7.1299L340.328 7.60457C340.186 7.39388 340.047 7.19128 339.91 6.99332C338.379 7.07513 337.113 7.15619 336.11 7.23645C335.895 7.25849 335.681 7.2944 335.47 7.34406L335.168 6.53378C335.356 6.47703 335.539 6.40138 335.712 6.30803C336.423 5.8331 337.097 5.30764 337.729 4.73593C337.146 4.75908 336.647 4.78883 336.232 4.8251C336.062 4.84825 335.878 4.88298 335.675 4.93045L335.312 4.20693C335.518 4.13357 335.708 4.02064 335.869 3.8747C336.443 3.39241 336.954 2.84218 337.391 2.23661H332.281V1.40548H337.694C337.496 1.05356 337.311 0.744804 337.138 0.47932L338.008 0.0637207C338.322 0.536034 338.598 0.981789 338.823 1.40548H343.772V2.23661H337.736L338.31 2.53301C337.658 3.19055 337.108 3.71296 336.66 4.10038C337.12 4.0888 337.721 4.07381 338.46 4.05876C338.783 3.74157 339.104 3.40817 339.427 3.05509L340.262 3.53089C339.153 4.58542 337.969 5.56179 336.721 6.45273ZM332.54 3.36647L333.156 2.78766C333.825 3.30936 334.409 3.80368 334.908 4.27059L334.232 4.92465C333.696 4.37695 333.131 3.85686 332.54 3.36647ZM341.228 5.18283C342.38 5.82416 343.278 6.37015 343.921 6.82085L343.39 7.59185C342.543 6.94764 341.655 6.35716 340.732 5.82411L341.228 5.18283ZM343.427 3.44638C342.795 3.98262 342.129 4.47791 341.433 4.92925L340.817 4.30182C341.507 3.86843 342.15 3.36731 342.737 2.80617L343.427 3.44638Z" fill="#231815"/>
<path d="M344.362 12.359C345.709 10.7926 346.432 8.80021 346.399 6.75023C346.425 4.68015 345.699 2.66897 344.35 1.07788H345.401C346.769 2.66342 347.496 4.68756 347.444 6.76528C347.506 8.81736 346.777 10.8169 345.401 12.3624L344.362 12.359Z" fill="#231815"/>
<path d="M356.024 6.90431H353.395V9.47309H352.483V6.90431H349.867V5.99553H352.483V3.42676H353.395V5.99553H356.024V6.90431Z" fill="#231815"/>
<path d="M357.97 2.3339H359.655C359.663 1.69721 359.665 0.988739 359.662 0.208496H360.615C360.615 0.997229 360.611 1.7057 360.603 2.3339H363.418C363.378 5.37307 363.326 7.759 363.262 9.49159C363.23 10.9155 362.683 11.6 361.619 11.5452C361.305 11.5452 360.841 11.5332 360.229 11.5093C360.172 11.1771 360.111 10.8333 360.035 10.4779C360.492 10.5405 360.952 10.5757 361.413 10.5832C361.953 10.5994 362.247 10.2239 362.296 9.45682C362.383 7.58146 362.436 5.50816 362.452 3.23689H360.592C360.584 3.84117 360.572 4.35556 360.555 4.78002C360.697 7.35269 359.891 9.88941 358.284 11.926C358.082 11.6806 357.845 11.4144 357.57 11.1296C359.04 9.30363 359.768 7.0069 359.614 4.68393C359.629 4.26718 359.641 3.78448 359.649 3.23576H357.97V2.3339ZM364.603 1.75509H369.198V11.5371H368.245V10.339H365.558V11.5371H364.603V1.75509ZM368.24 2.63377H365.558V9.48346H368.24V2.63377Z" fill="#231815"/>
<path d="M370.001 6.42841C370.917 5.04062 371.599 3.51585 372.018 1.91362H370.368V1.0697H374.415V1.91362H372.917C372.713 2.78337 372.43 3.63342 372.071 4.4535H374.101V9.98581H371.998V10.8633H371.173V6.22351C370.963 6.57928 370.742 6.93119 370.51 7.27925C370.349 6.98135 370.179 6.69775 370.001 6.42841ZM373.274 9.18237V5.26265H371.993V9.17891L373.274 9.18237ZM375.812 8.30489C375.563 9.30818 375.301 10.242 375.028 11.1063C374.767 10.9966 374.495 10.9133 374.217 10.8575C374.548 9.95972 374.826 9.04406 375.051 8.11504L375.812 8.30489ZM381.527 0.789551V1.59991H379.002V2.70313H381.262V3.46254H379.002V4.5669H381.262V5.32631H379.002V6.42954H381.721C381.649 8.31262 381.601 9.42474 381.576 9.76585C381.552 10.969 380.996 11.6022 379.908 11.6655C379.587 11.6887 378.935 11.7002 377.951 11.7002C377.894 11.3143 377.838 10.9783 377.781 10.6919C378.474 10.7228 379.074 10.7387 379.582 10.7394C380.298 10.7479 380.681 10.3682 380.73 9.60031C380.763 9.00605 380.799 8.21846 380.838 7.23756H375.897V7.64044H375.028V0.790752L381.527 0.789551ZM375.897 2.702H378.156V1.59878H375.897V2.702ZM375.897 4.56577H378.156V3.46134H375.897V4.56577ZM375.897 6.42841H378.156V5.32518H375.897V6.42841ZM376.899 8.12663C377.043 8.66686 377.205 9.37497 377.383 10.2509L376.598 10.5253C376.46 9.66167 376.319 8.93737 376.174 8.35238L376.899 8.12663ZM378.362 7.92406C378.609 8.50454 378.819 9.09956 378.99 9.70565L378.217 10.0136C378.068 9.39284 377.878 8.78229 377.648 8.1857L378.362 7.92406ZM379.788 7.65203C380.054 8.19843 380.289 8.73862 380.495 9.27267L379.77 9.59451C379.561 8.97711 379.347 8.42302 379.131 7.93218L379.788 7.65203Z" fill="#231815"/>
<path d="M382.412 8.8628C383.563 7.59722 384.486 6.14888 385.144 4.57956H382.473V3.71366H385.373V1.93327C384.544 2.01044 383.722 2.08527 382.908 2.15781C382.849 1.85258 382.771 1.55138 382.673 1.25603C384.606 1.10168 386.579 0.899495 388.593 0.649447L388.835 1.55236C387.981 1.65501 387.135 1.75033 386.297 1.83831V3.71366H389.039V4.57956H386.297V6.17017L386.829 5.67126C387.586 6.3041 388.339 6.98476 389.087 7.7133L388.351 8.44954C387.86 7.88693 387.175 7.19466 386.297 6.37274V11.8437H385.379V5.90853C384.743 7.35383 383.911 8.70782 382.905 9.9336C382.682 9.41807 382.517 9.06114 382.412 8.8628ZM389.928 1.58592H390.846V9.08742H389.928V1.58592ZM392.792 0.398193H393.746V10.2867C393.775 10.492 393.755 10.7012 393.688 10.8976C393.62 11.0939 393.507 11.2721 393.356 11.4175C393.206 11.563 393.023 11.6717 392.822 11.7351C392.621 11.7985 392.408 11.8147 392.2 11.7824C391.87 11.7824 391.334 11.7785 390.593 11.7708C390.545 11.4455 390.484 11.0901 390.411 10.7023C390.904 10.7626 391.401 10.7985 391.898 10.8099C392.021 10.8275 392.146 10.8164 392.263 10.7776C392.381 10.7388 392.488 10.6733 392.575 10.5865C392.662 10.4998 392.727 10.3941 392.764 10.278C392.802 10.162 392.812 10.0389 392.792 9.91855V0.398193Z" fill="#231815"/>
<path d="M394.919 8.38829H400.429V7.34639H401.384V8.38829H406.772V9.21949H401.384V11.8889H400.429V9.21949H394.919V8.38829ZM397.964 5.19435L398.4 5.89589L395.462 7.59185L394.956 6.79768C395.793 6.41026 396.796 5.87581 397.964 5.19435ZM399.523 6.45273C399.648 6.44424 400.551 6.39866 402.233 6.31609C402.033 6.03941 401.838 5.78015 401.644 5.53936L402.297 5.13535C402.875 5.76616 403.412 6.43232 403.904 7.1299L403.131 7.60457C402.99 7.39388 402.851 7.19128 402.714 6.99332C401.183 7.07513 399.916 7.15619 398.914 7.23645C398.698 7.25849 398.485 7.2944 398.274 7.34406L397.971 6.53378C398.16 6.47701 398.342 6.40136 398.516 6.30803C399.226 5.83309 399.9 5.30763 400.533 4.73593C399.95 4.75908 399.451 4.78883 399.035 4.8251C398.865 4.84825 398.682 4.88298 398.479 4.93045L398.116 4.20693C398.322 4.13335 398.511 4.02044 398.672 3.8747C399.247 3.39241 399.758 2.84218 400.195 2.23661H395.084V1.40548H400.497C400.3 1.05356 400.114 0.744804 399.941 0.47932L400.811 0.0637207C401.126 0.536034 401.4 0.981789 401.626 1.40548H406.575V2.23661H400.543L401.117 2.53301C400.465 3.19055 399.915 3.71296 399.468 4.10038C399.927 4.0888 400.528 4.07381 401.267 4.05876C401.59 3.74157 401.912 3.40817 402.234 3.05509L403.069 3.53089C401.958 4.5856 400.773 5.56197 399.523 6.45273ZM395.342 3.36647L395.959 2.78766C396.628 3.30936 397.212 3.80368 397.711 4.27059L397.033 4.92465C396.497 4.37694 395.933 3.85684 395.342 3.36647ZM404.03 5.18283C405.181 5.82416 406.079 6.37015 406.724 6.82085L406.192 7.59185C405.346 6.94764 404.458 6.35716 403.534 5.82411L404.03 5.18283ZM406.229 3.44638C405.598 3.98262 404.932 4.47791 404.235 4.92925L403.619 4.30182C404.309 3.86843 404.953 3.36731 405.54 2.80617L406.229 3.44638Z" fill="#231815"/>
<path d="M86.4012 26.9451C85.035 25.3971 84.3096 23.4019 84.3686 21.3538C84.3198 19.278 85.0438 17.256 86.4047 15.6675H87.4499C86.1068 17.261 85.3832 19.2712 85.4079 21.3399C85.3757 23.3886 86.0965 25.3799 87.4382 26.9486L86.4012 26.9451Z" fill="#231815"/>
<path d="M88.4375 23.3217C89.0542 23.8011 89.8193 24.0589 90.6057 24.0522C91.1562 24.0823 91.6995 23.918 92.1375 23.5891C92.3225 23.4371 92.4696 23.2455 92.5674 23.029C92.6653 22.8125 92.7113 22.5768 92.7019 22.34C92.7019 21.1762 91.8543 20.5943 90.1591 20.5943H89.3802V19.6335H90.1225C91.6245 19.6335 92.3759 19.0875 92.3767 17.9955C92.3767 16.986 91.8025 16.4812 90.654 16.4812C89.9786 16.4879 89.3252 16.7179 88.7992 17.1342V16.0286C89.4541 15.6703 90.1944 15.4901 90.9439 15.5065C91.6395 15.473 92.3235 15.6918 92.8657 16.1212C93.1008 16.316 93.288 16.5605 93.4134 16.8363C93.5389 17.1121 93.5994 17.4121 93.5904 17.7141C93.6203 18.259 93.4463 18.7958 93.1012 19.2233C92.756 19.6509 92.2637 19.9396 91.7168 20.0352V20.0595C92.3202 20.0973 92.8897 20.3466 93.3217 20.7621C93.5159 20.9588 93.6681 21.1916 93.7692 21.4469C93.8704 21.7021 93.9186 21.9747 93.9109 22.2485C93.924 22.6279 93.8489 23.0053 93.6912 23.352C93.5336 23.6986 93.2976 24.0053 93.0013 24.2489C92.3155 24.7824 91.4557 25.0527 90.5821 25.0095C89.8353 25.043 89.0935 24.8744 88.4375 24.5222V23.3217Z" fill="#231815"/>
<path d="M113.733 20.0305C113.737 20.5791 113.544 21.1116 113.19 21.5354C113.023 21.7116 112.82 21.85 112.593 21.9412C112.367 22.0324 112.123 22.074 111.878 22.0633C111.248 22.0053 110.649 21.7661 110.157 21.3757C109.858 21.1447 109.501 20.9986 109.123 20.9531C108.523 20.9531 108.211 21.3251 108.188 22.0691H107.245C107.235 21.5195 107.428 20.9849 107.788 20.5642C107.957 20.389 108.162 20.2513 108.389 20.1602C108.616 20.0692 108.86 20.027 109.106 20.0363C109.661 20.0717 110.193 20.2657 110.637 20.5943C111.005 20.8882 111.445 21.0825 111.912 21.158C112.036 21.1617 112.158 21.1356 112.269 21.0819C112.379 21.0282 112.475 20.9486 112.546 20.8501C112.715 20.6094 112.802 20.3226 112.795 20.0305H113.733Z" fill="#231815"/>
<path d="M117.34 24.8555V16.9917C117.057 17.2389 116.74 17.4447 116.397 17.6029C116.01 17.8083 115.6 17.9677 115.174 18.0776V16.9385C115.726 16.7806 116.259 16.5649 116.764 16.2949C117.227 16.0654 117.661 15.7854 118.06 15.4602H118.507V24.8555H117.34Z" fill="#231815"/>
<path d="M127.52 22.0182C127.537 22.4234 127.464 22.8274 127.307 23.2024C127.15 23.5774 126.912 23.9147 126.61 24.1911C125.935 24.7664 125.06 25.0623 124.167 25.0165C123.489 25.0597 122.812 24.9263 122.203 24.6298V23.4433C122.773 23.8272 123.446 24.0377 124.137 24.0487C124.713 24.0749 125.278 23.8849 125.717 23.5173C125.916 23.3399 126.073 23.1216 126.177 22.8779C126.281 22.6343 126.329 22.3713 126.318 22.1074C126.331 21.8471 126.281 21.5876 126.172 21.3499C126.064 21.1123 125.899 20.9033 125.692 20.7402C125.177 20.3843 124.553 20.2116 123.925 20.2505C123.394 20.2477 122.863 20.2732 122.335 20.3269L122.68 15.6616H127.053V16.6839H123.676L123.483 19.2885L124.335 19.2538C125.178 19.2059 126.009 19.4646 126.67 19.9808C126.957 20.2368 127.183 20.5526 127.33 20.9051C127.477 21.2576 127.542 21.6379 127.52 22.0182Z" fill="#231815"/>
<path d="M128.934 17.9826C128.899 17.3305 129.118 16.6899 129.546 16.1906C129.756 15.9688 130.012 15.7946 130.297 15.6798C130.582 15.5651 130.889 15.5126 131.196 15.5261C131.485 15.5105 131.774 15.557 132.042 15.6624C132.311 15.7677 132.553 15.9294 132.752 16.1362C133.149 16.6153 133.348 17.2235 133.31 17.8402C133.34 18.4834 133.119 19.1136 132.694 19.6033C132.488 19.8272 132.235 20.0039 131.952 20.1207C131.669 20.2376 131.364 20.2917 131.057 20.2793C130.768 20.2917 130.48 20.2419 130.213 20.1333C129.945 20.0247 129.706 19.86 129.51 19.6508C129.109 19.1872 128.902 18.5904 128.934 17.9826ZM129.865 17.9236C129.837 18.3439 129.957 18.7608 130.203 19.1055C130.313 19.2414 130.453 19.3498 130.614 19.4218C130.775 19.4939 130.95 19.5275 131.127 19.5199C131.306 19.5288 131.485 19.4941 131.648 19.419C131.811 19.3439 131.952 19.2307 132.06 19.0893C132.301 18.7308 132.417 18.305 132.39 17.8761C132.416 17.4572 132.302 17.0413 132.066 16.6918C131.96 16.5547 131.823 16.4449 131.664 16.3718C131.506 16.2988 131.332 16.2648 131.157 16.2728C130.976 16.2666 130.796 16.303 130.632 16.3789C130.468 16.4548 130.325 16.5681 130.215 16.7092C129.963 17.064 129.839 17.4917 129.865 17.9236ZM137.392 15.6615L131.382 24.9156H130.374L136.383 15.6615H137.392ZM134.54 22.7011C134.506 22.0463 134.725 21.403 135.153 20.8998C135.361 20.6755 135.616 20.4988 135.901 20.3823C136.187 20.2659 136.494 20.2126 136.803 20.2261C137.092 20.211 137.38 20.2581 137.649 20.3643C137.917 20.4705 138.158 20.6331 138.356 20.8408C138.732 21.349 138.93 21.9639 138.919 22.5923C138.908 23.2208 138.689 23.8287 138.296 24.3241C138.091 24.5459 137.84 24.7211 137.559 24.8375C137.278 24.9539 136.975 25.0086 136.671 24.9978C136.381 25.0106 136.091 24.9602 135.823 24.8501C135.555 24.74 135.316 24.573 135.121 24.3611C134.722 23.8994 134.514 23.3066 134.54 22.7011ZM135.464 22.6479C135.439 23.0633 135.558 23.4747 135.802 23.8148C135.912 23.9512 136.053 24.0602 136.214 24.1328C136.375 24.2055 136.55 24.2397 136.727 24.2327C136.907 24.2413 137.087 24.2062 137.249 24.1305C137.412 24.0548 137.553 23.9408 137.661 23.7986C137.901 23.4405 138.016 23.0157 137.991 22.5877C138.019 22.1692 137.902 21.7537 137.661 21.4081C137.554 21.2739 137.417 21.1665 137.259 21.0951C137.102 21.0236 136.93 20.99 136.757 20.9971C136.574 20.9884 136.391 21.0237 136.225 21.0997C136.059 21.1757 135.914 21.2903 135.802 21.4335C135.557 21.791 135.438 22.2176 135.464 22.6479Z" fill="#231815"/>
<path d="M95.4875 17.9828C95.4524 17.3306 95.6715 16.6899 96.1003 16.1908C96.3097 15.9691 96.5657 15.7948 96.8506 15.68C97.1355 15.5653 97.4424 15.5128 97.75 15.5264C98.0388 15.5108 98.3276 15.5574 98.5963 15.6627C98.8649 15.7681 99.1069 15.9297 99.3054 16.1364C99.7025 16.6155 99.9019 17.2237 99.8639 17.8404C99.8934 18.4836 99.6731 19.1138 99.2477 19.6035C99.0422 19.8274 98.789 20.0041 98.5061 20.1209C98.2232 20.2378 97.9176 20.2919 97.6109 20.2795C97.322 20.2919 97.0338 20.2421 96.7665 20.1335C96.4993 20.0249 96.2594 19.8603 96.0638 19.651C95.6624 19.1874 95.4562 18.5907 95.4875 17.9828ZM96.4185 17.9238C96.3911 18.3441 96.5104 18.761 96.7566 19.1057C96.8663 19.2416 97.0072 19.35 97.1678 19.4221C97.3284 19.4941 97.5041 19.5277 97.6805 19.5201C97.86 19.529 98.0391 19.4943 98.2018 19.4192C98.3645 19.3441 98.506 19.2309 98.6137 19.0895C98.8544 18.7308 98.9702 18.3051 98.9437 17.8763C98.97 17.4574 98.8562 17.0415 98.6196 16.692C98.5143 16.5549 98.3765 16.4451 98.2181 16.372C98.0598 16.299 97.8858 16.265 97.7111 16.273C97.53 16.2667 97.3499 16.3031 97.1859 16.379C97.022 16.4549 96.8788 16.5682 96.7684 16.7094C96.5165 17.0642 96.3933 17.4919 96.4185 17.9238ZM103.946 15.6617L97.9362 24.9159H96.9275L102.937 15.6617H103.946ZM101.094 22.7014C101.06 22.0465 101.279 21.4032 101.707 20.9C101.915 20.6757 102.17 20.499 102.455 20.3826C102.74 20.2661 103.048 20.2128 103.357 20.2263C103.645 20.2112 103.934 20.2583 104.202 20.3645C104.471 20.4707 104.712 20.6333 104.91 20.841C105.286 21.3492 105.484 21.9641 105.473 22.5925C105.462 23.221 105.243 23.8289 104.85 24.3243C104.645 24.5461 104.394 24.7212 104.113 24.8376C103.832 24.9539 103.529 25.0087 103.225 24.998C102.935 25.0108 102.645 24.9604 102.377 24.8503C102.109 24.7402 101.87 24.5732 101.675 24.3614C101.275 23.8996 101.068 23.3068 101.094 22.7014ZM102.018 22.6481C101.993 23.0635 102.112 23.4749 102.356 23.815C102.466 23.9514 102.607 24.0604 102.768 24.1331C102.928 24.2057 103.104 24.2399 103.281 24.2329C103.461 24.2416 103.64 24.2065 103.803 24.1307C103.966 24.055 104.107 23.941 104.214 23.7988C104.455 23.4407 104.57 23.0159 104.544 22.5879C104.572 22.1694 104.456 21.7539 104.214 21.4083C104.108 21.2741 103.97 21.1667 103.813 21.0953C103.656 21.0238 103.484 20.9902 103.311 20.9973C103.127 20.9887 102.945 21.0239 102.779 21.0999C102.612 21.176 102.467 21.2905 102.356 21.4337C102.111 21.7912 101.992 22.2178 102.018 22.6481Z" fill="#231815"/>
<path d="M139.567 26.9452C140.912 25.3781 141.635 23.386 141.602 21.3365C141.628 19.2665 140.902 17.2553 139.554 15.6641H140.605C141.973 17.2489 142.7 19.2729 142.647 21.3503C142.711 23.4025 141.981 25.4023 140.605 26.9475L139.567 26.9452Z" fill="#231815"/>
<path d="M149.589 19.6334C149.724 19.6297 149.857 19.653 149.982 19.702C150.107 19.751 150.22 19.8245 150.315 19.9182C150.48 20.1192 150.566 20.3721 150.557 20.6302C150.559 21.064 150.443 21.4905 150.218 21.8642C149.948 22.2192 149.601 22.5114 149.203 22.7197L149.009 22.4882C149.246 22.3648 149.449 22.1871 149.6 21.9703C149.752 21.7534 149.848 21.5037 149.88 21.2426C149.864 21.116 149.739 21.0327 149.505 20.9925C149.341 20.9781 149.189 20.9026 149.079 20.7815C148.97 20.6603 148.911 20.5027 148.916 20.3408C148.919 20.1608 148.987 19.9877 149.11 19.8534C149.167 19.7835 149.241 19.7274 149.324 19.6893C149.407 19.6512 149.497 19.6321 149.589 19.6334Z" fill="#231815"/>
<path d="M156.236 24.7664H160.972V14.9624H162.072V18.5348H167.038V19.4852H162.072V24.7664H167.992V25.7168H156.236V24.7664Z" fill="#231815"/>
<path d="M172.693 21.8168C172.929 23.3271 172.546 24.1737 171.546 24.3567C171.143 24.4284 170.731 24.4362 170.326 24.3798C170.258 24.0425 170.169 23.7097 170.059 23.3831C170.421 23.4808 170.797 23.5129 171.171 23.478C171.72 23.3753 171.906 22.8093 171.727 21.7798C171.538 20.9923 171.161 20.2602 170.627 19.6439C170.918 18.7803 171.297 17.6289 171.763 16.1896H169.976V26.5515H169.068V15.3572H172.731V16.1896C172.338 17.3055 171.959 18.4056 171.595 19.4899C172.153 20.1633 172.53 20.9633 172.693 21.8168ZM173.467 15.3943H179.194V21.3051H178.3V20.9856H176.259C176.496 21.6753 176.843 22.3242 177.285 22.9084C178.087 22.401 178.854 21.8418 179.58 21.2345L180.221 21.9823C179.335 22.5912 178.546 23.1137 177.853 23.5498C178.608 24.2803 179.509 24.8498 180.498 25.2225C180.216 25.4898 179.958 25.7799 179.725 26.0896C178.678 25.5884 177.75 24.8741 177.004 23.9942C176.259 23.1143 175.712 22.0888 175.4 20.9856H174.36V25.0211C174.9 24.7834 175.605 24.4362 176.475 23.9793C176.484 24.3428 176.504 24.6549 176.536 24.9158C175.819 25.2561 175.123 25.6243 174.446 26.0202C174.211 26.1629 173.992 26.3302 173.794 26.5191L173.104 25.6289C173.221 25.5334 173.314 25.4133 173.377 25.2777C173.439 25.142 173.47 24.9942 173.467 24.8452V15.3943ZM178.298 16.2046H174.359V17.7836H178.298V16.2046ZM178.298 20.1822V18.5754H174.359V20.1788L178.298 20.1822Z" fill="#231815"/>
<path d="M181.273 17.3125H184.619C184.855 16.4813 185.051 15.6108 185.208 14.7009H186.176C186.006 15.6108 185.81 16.4813 185.586 17.3125H191.277L190.817 19.5444H191.748L191.47 21.788H192.401C192.328 23.2751 192.275 24.2286 192.243 24.6484C192.212 25.7566 191.684 26.3104 190.66 26.3097C190.105 26.3097 189.445 26.3019 188.68 26.2865C188.647 25.9461 188.607 25.6258 188.562 25.3256C189.198 25.3812 189.794 25.4086 190.351 25.4078C190.979 25.4078 191.309 25.1428 191.342 24.6126C191.382 24.1704 191.421 23.4858 191.459 22.5589H183.468C182.896 23.569 182.211 24.513 181.426 25.3731C181.25 25.0881 181.057 24.8144 180.846 24.5535C182.476 22.6666 183.681 20.462 184.381 18.0847H181.264L181.273 17.3125ZM181.949 15.5193L182.674 15.0447C183.142 15.5229 183.578 16.0307 183.979 16.5647L183.194 17.088C182.806 16.5448 182.391 16.0212 181.949 15.5193ZM183.931 23.507L184.776 23.7814C184.491 24.5532 184.156 25.3064 183.774 26.0364C183.51 25.8948 183.23 25.7833 182.94 25.7042C183.341 25.005 183.673 24.2696 183.931 23.5081V23.507ZM190.765 20.3154H184.567C184.358 20.8294 184.133 21.3198 183.891 21.7868H190.56L190.765 20.3154ZM190.21 18.0835H185.365C185.22 18.5898 185.055 19.0764 184.869 19.5433H189.909L190.21 18.0835ZM186.066 23.6864C186.276 24.1842 186.497 24.817 186.729 25.5849L185.885 25.8165C185.73 25.1699 185.54 24.5319 185.317 23.9052L186.066 23.6864ZM187.903 23.3067C188.219 23.8497 188.497 24.4128 188.736 24.9923L187.962 25.277C187.663 24.5639 187.406 23.9979 187.189 23.5788L187.903 23.3067ZM189.812 22.9849C190.12 23.4614 190.395 23.9571 190.637 24.469L189.864 24.8024C189.637 24.2909 189.383 23.7915 189.101 23.3067L189.812 22.9849Z" fill="#231815"/>
<path d="M196.485 24.8555V16.9917C196.202 17.2387 195.885 17.4444 195.542 17.6029C195.155 17.8083 194.745 17.9677 194.319 18.0776V16.9385C194.871 16.7807 195.404 16.5649 195.909 16.2949C196.371 16.0648 196.806 15.7849 197.205 15.4602H197.652V24.8555H196.485Z" fill="#231815"/>
<path d="M206.665 22.0182C206.682 22.4233 206.609 22.8271 206.452 23.2021C206.295 23.5771 206.058 23.9145 205.756 24.1911C205.081 24.7662 204.205 25.0621 203.312 25.0165C202.635 25.0599 201.958 24.9264 201.349 24.6298V23.4433C201.919 23.8273 202.591 24.0379 203.282 24.0487C203.858 24.0749 204.423 23.8849 204.862 23.5173C205.061 23.3399 205.218 23.1216 205.322 22.8779C205.426 22.6343 205.474 22.3713 205.463 22.1074C205.476 21.8473 205.426 21.5878 205.318 21.3502C205.209 21.1126 205.045 20.9036 204.838 20.7402C204.323 20.3848 203.7 20.2121 203.071 20.2505C202.54 20.2477 202.009 20.2732 201.481 20.3269L201.825 15.6616H206.199V16.6839H202.823L202.63 19.2885L203.481 19.2538C204.324 19.2059 205.155 19.4647 205.816 19.9808C206.103 20.2369 206.328 20.5527 206.475 20.9052C206.622 21.2577 206.687 21.638 206.665 22.0182Z" fill="#231815"/>
<path d="M208.079 17.9826C208.044 17.3304 208.263 16.6896 208.692 16.1906C208.901 15.9688 209.157 15.7946 209.442 15.6798C209.727 15.5651 210.034 15.5126 210.341 15.5261C210.63 15.5105 210.919 15.557 211.187 15.6624C211.455 15.7677 211.697 15.9295 211.896 16.1362C212.293 16.6153 212.492 17.2235 212.454 17.8402C212.484 18.4832 212.264 19.1134 211.839 19.6033C211.633 19.8273 211.38 20.004 211.097 20.1208C210.814 20.2377 210.508 20.2918 210.201 20.2793C209.912 20.2916 209.624 20.2417 209.357 20.1331C209.09 20.0246 208.851 19.8599 208.655 19.6508C208.254 19.1872 208.048 18.5904 208.079 17.9826ZM209.009 17.9236C208.981 18.3439 209.101 18.7608 209.347 19.1055C209.457 19.2414 209.598 19.3498 209.759 19.4218C209.919 19.4939 210.095 19.5275 210.272 19.5199C210.451 19.5286 210.63 19.4938 210.793 19.4187C210.956 19.3437 211.097 19.2305 211.205 19.0893C211.445 18.7304 211.561 18.3048 211.534 17.8761C211.56 17.4573 211.447 17.0414 211.211 16.6918C211.105 16.5547 210.967 16.4448 210.809 16.3718C210.65 16.2988 210.476 16.2648 210.301 16.2728C210.12 16.2663 209.94 16.3026 209.776 16.3785C209.612 16.4545 209.469 16.5678 209.359 16.7092C209.106 17.0638 208.983 17.4916 209.009 17.9236ZM216.536 15.6615L210.526 24.9156H209.516L215.526 15.6615H216.536ZM213.685 22.7011C213.651 22.0463 213.87 21.403 214.298 20.8998C214.506 20.6755 214.761 20.4988 215.047 20.3823C215.332 20.2659 215.639 20.2126 215.948 20.2261C216.237 20.211 216.525 20.2582 216.794 20.3644C217.062 20.4706 217.303 20.6332 217.501 20.8408C217.876 21.3497 218.073 21.9644 218.061 22.5925C218.05 23.2206 217.832 23.8282 217.44 24.3241C217.235 24.5461 216.984 24.7214 216.703 24.8378C216.422 24.9542 216.119 25.0088 215.815 24.9978C215.525 25.0105 215.235 24.96 214.967 24.8499C214.7 24.7399 214.46 24.5729 214.265 24.3611C213.866 23.899 213.659 23.3064 213.685 22.7011ZM214.609 22.6479C214.583 23.0633 214.703 23.475 214.947 23.8147C215.057 23.9512 215.198 24.0602 215.358 24.1328C215.519 24.2055 215.695 24.2397 215.871 24.2327C216.051 24.2412 216.231 24.2061 216.394 24.1304C216.557 24.0547 216.698 23.9407 216.806 23.7986C217.045 23.4401 217.16 23.0155 217.134 22.5877C217.162 22.1694 217.047 21.754 216.806 21.4081C216.699 21.2739 216.562 21.1667 216.404 21.0952C216.247 21.0237 216.075 20.9901 215.902 20.997C215.719 20.9883 215.536 21.0235 215.37 21.0996C215.204 21.1756 215.059 21.2902 214.947 21.4335C214.702 21.7908 214.583 22.2176 214.609 22.6479Z" fill="#231815"/>
<path d="M224.65 19.8234C224.823 19.817 224.996 19.8459 225.157 19.908C225.318 19.9702 225.464 20.0643 225.587 20.1846C225.71 20.3048 225.805 20.4487 225.869 20.607C225.932 20.7654 225.962 20.9348 225.956 21.1049C225.96 21.3653 225.885 21.621 225.741 21.8395C225.596 22.0579 225.389 22.2291 225.145 22.3311C224.901 22.4331 224.632 22.4614 224.372 22.4123C224.111 22.3631 223.872 22.2388 223.684 22.0553C223.558 21.9303 223.459 21.7818 223.392 21.6185C223.326 21.4553 223.294 21.2806 223.297 21.1049C223.295 20.9382 223.328 20.7729 223.394 20.6195C223.461 20.4662 223.559 20.3283 223.684 20.2147C223.808 20.0868 223.958 19.9859 224.125 19.9185C224.291 19.8511 224.47 19.8187 224.65 19.8234ZM224.65 22.0229C224.765 22.0248 224.879 22.0014 224.984 21.9543C225.088 21.9072 225.181 21.8377 225.254 21.7508C225.345 21.6701 225.417 21.571 225.465 21.4603C225.513 21.3495 225.536 21.2298 225.532 21.1095C225.533 20.9961 225.511 20.8836 225.466 20.7788C225.422 20.6741 225.357 20.579 225.275 20.4994C225.192 20.4198 225.095 20.3572 224.987 20.3152C224.88 20.2732 224.765 20.2528 224.65 20.2551C224.529 20.249 224.409 20.2663 224.295 20.306C224.181 20.3457 224.076 20.4072 223.987 20.4867C223.824 20.6522 223.732 20.8734 223.732 21.1037C223.726 21.2222 223.746 21.3406 223.79 21.4511C223.833 21.5616 223.901 21.6617 223.987 21.745C224.072 21.8327 224.175 21.9023 224.289 21.9493C224.403 21.9963 224.526 22.0197 224.65 22.0182V22.0229Z" fill="#231815"/>
<path d="M231.682 17.4906L232.262 16.9685C232.576 17.2533 232.891 17.55 233.205 17.8587L234.582 16.1223H231.283V15.312H235.68V16.1223L233.783 18.4376L234.061 18.734L233.578 19.1611H235.995V19.9923C235.827 20.6336 235.642 21.3027 235.427 21.9996C235.156 21.9088 234.877 21.8411 234.594 21.797C234.795 21.1557 234.968 20.5541 235.113 19.9923H233.88V25.0384C233.907 25.2175 233.891 25.4005 233.834 25.5725C233.776 25.7445 233.678 25.9008 233.547 26.0289C233.417 26.1569 233.258 26.2531 233.083 26.3096C232.908 26.3662 232.721 26.3816 232.539 26.3546H231.427C231.378 26.0073 231.321 25.6948 231.258 25.4181C231.7 25.4494 232.083 25.4656 232.418 25.4656C232.819 25.4656 233.022 25.234 233.022 24.764V19.9923H231.124V19.1611H233.226C232.743 18.577 232.228 18.0193 231.682 17.4906ZM235.597 25.7758C236.584 25.3222 237.541 24.8069 238.461 24.2327L238.969 24.9458C238.059 25.5565 237.101 26.096 236.105 26.5595C235.943 26.2828 235.775 26.0212 235.597 25.7758ZM236.564 17.3355H238.388L238.624 16.113H236.182V15.334H243.106V16.1177H239.59L239.3 17.3401H242.551V24.2014H241.678V23.8217H237.436V24.2014H236.567L236.564 17.3355ZM241.675 18.0961H237.433V19.2537H241.675V18.0961ZM237.433 21.158H241.675V19.9946H237.433V21.158ZM237.433 23.0577H241.675V21.8943H237.433V23.0577ZM239.994 24.9689L240.442 24.2211C241.505 24.7667 242.435 25.2572 243.232 25.6925L242.786 26.5121C241.771 25.9109 240.841 25.3965 239.996 24.9689H239.994Z" fill="#231815"/>
<path d="M243.513 20.1962C244.697 18.5355 245.614 16.7059 246.231 14.7715L247.174 15.091C246.809 16.0804 246.422 16.9945 246.015 17.8334V26.3929H245.095V19.5317C244.735 20.1347 244.335 20.7147 243.899 21.2681C243.762 20.8386 243.634 20.4821 243.513 20.1962ZM246.859 18.9494H248.902V17.2639H247.343V16.4535H248.902V14.8155H249.821V16.4535H252.224V14.8155H253.142V16.4535H254.978V17.2639H253.142V18.9494H255.414V19.7597H246.863L246.859 18.9494ZM247.79 20.7426H254.287V26.3929H253.369V25.7632H248.705V26.3929H247.787L247.79 20.7426ZM253.372 21.5529H248.708V22.8703H253.372V21.5529ZM248.708 24.9586H253.372V23.6528H248.708V24.9586ZM249.821 18.9528H252.224V17.2673H249.821V18.9528Z" fill="#231815"/>
<path d="M255.861 23.7453L257.588 23.4131V20.1613H256.031V19.307H257.586V16.4812H255.943V15.6269H260.099V16.4812H258.48V19.307H259.967V20.1613H258.48V23.2128C259.068 23.0854 259.648 22.9546 260.221 22.8204C260.196 23.1839 260.188 23.4894 260.196 23.7349C258.98 23.9872 257.578 24.3153 255.992 24.7189L255.861 23.7453ZM260.501 15.342H266.857V22.9627H265.986V22.4881H264.972V24.6367C264.972 25.1422 265.197 25.3954 265.648 25.3961H265.986C266.078 25.4082 266.171 25.402 266.26 25.3778C266.349 25.3537 266.433 25.312 266.505 25.2555C266.577 25.1989 266.637 25.1286 266.681 25.0487C266.725 24.9688 266.752 24.8811 266.761 24.7907C266.855 24.324 266.924 23.8525 266.964 23.3783C267.239 23.4941 267.554 23.6098 267.895 23.7256C267.834 24.2136 267.741 24.6973 267.617 25.1738C267.573 25.4967 267.401 25.7894 267.139 25.9892C266.877 26.1889 266.546 26.2798 266.216 26.2423H265.455C264.537 26.2423 264.078 25.7438 264.077 24.7467V22.4881H263.098C263.168 23.0118 263.116 23.5441 262.947 24.0453C262.778 24.5465 262.495 25.0036 262.12 25.3822C261.368 25.9368 260.502 26.3253 259.583 26.5213C259.424 26.2108 259.247 25.9097 259.052 25.6195C259.868 25.5007 260.651 25.2233 261.357 24.8034C261.936 24.4631 262.222 23.6913 262.214 22.4881H261.368V22.9627H260.499L260.501 15.342ZM265.986 16.1524H261.371V17.471H265.986V16.1524ZM261.371 19.5836H265.986V18.2535H261.371V19.5836ZM261.371 21.6836H265.986V20.3546H261.371V21.6836Z" fill="#231815"/>
<path d="M268.632 25.1229H273.755V22.2288H269.43V21.3629H273.755V19.6982H270.614V18.8682C270.043 19.224 269.423 19.5798 268.753 19.9355C268.576 19.6238 268.374 19.3261 268.149 19.0453C270.394 18.1468 272.358 16.6806 273.84 14.7957H275.157L274.88 15.1279C276.311 16.8405 278.191 18.1373 280.317 18.8787C280.1 19.1796 279.886 19.4964 279.675 19.8291C279.043 19.5655 278.433 19.2519 277.853 18.8914V19.7017H274.722V21.3641H279.024V22.23H274.722V25.124H279.87V26.0027H268.632V25.1229ZM269.986 22.9512L270.699 22.3932C271.286 22.9782 271.862 23.5875 272.426 24.2211L271.601 24.8613C271.121 24.2361 270.582 23.5995 269.986 22.9512ZM274.252 15.804C273.23 16.9976 272.018 18.02 270.662 18.8312H277.756C276.441 17.9988 275.26 16.9785 274.252 15.804ZM275.967 24.316C276.568 23.7099 277.119 23.0589 277.617 22.3689L278.463 22.9037C277.9 23.5921 277.308 24.2527 276.687 24.8856L275.967 24.316Z" fill="#231815"/>
<path d="M280.692 21.6454H286.142V19.52H281.538V18.5835H286.142V16.4396C284.615 16.4998 283.064 16.5495 281.49 16.5889C281.441 16.2567 281.382 15.9314 281.309 15.6142C285.424 15.5517 288.763 15.4093 291.325 15.187L291.483 16.1606C290.069 16.2486 288.627 16.3258 287.157 16.3921V18.5835H291.543V19.52H287.157V21.6454H292.577V22.5831H287.157V24.7664C287.183 24.9653 287.162 25.1674 287.096 25.357C287.03 25.5467 286.92 25.7188 286.775 25.8601C286.63 26.0014 286.454 26.108 286.261 26.1716C286.067 26.2353 285.861 26.2544 285.659 26.2273C285.152 26.2273 284.447 26.2231 283.544 26.2146C283.503 25.8513 283.439 25.4909 283.351 25.1357C284.252 25.1982 284.932 25.2299 285.393 25.2306C285.892 25.2306 286.142 24.9651 286.142 24.4341V22.582H280.692V21.6454Z" fill="#231815"/>
<path d="M294.286 23.5081C294.142 24.3425 293.945 25.1671 293.697 25.9774L292.96 25.7458C293.24 24.9662 293.45 24.164 293.588 23.3484L294.286 23.5081ZM296.289 20.1371C296.659 20.929 296.997 21.6887 297.304 22.4165L296.566 22.7371L296.349 22.1583C295.33 22.2769 294.318 22.4477 293.317 22.67L293.111 21.8388C293.813 21.1041 294.414 20.2821 294.899 19.3939C294.222 19.4417 293.659 19.485 293.208 19.5236L293.003 18.8C293.839 17.5616 294.525 16.2304 295.044 14.834L295.914 15.1431C295.133 16.6796 294.476 17.867 293.945 18.7051C294.243 18.7051 294.702 18.697 295.323 18.682C295.573 18.2536 295.834 17.7825 296.108 17.2685L296.917 17.6482C296.131 19.0294 295.266 20.3652 294.325 21.649L296.053 21.4175C295.917 21.0856 295.772 20.753 295.619 20.4196L296.289 20.1371ZM295.419 23.331C295.565 24.0989 295.689 24.807 295.793 25.4553L295.02 25.6104C294.963 25.0085 294.871 24.2842 294.743 23.4376L295.419 23.331ZM296.627 23.0104C296.894 23.6193 297.135 24.2089 297.352 24.7792L296.652 25.0513C296.451 24.4339 296.233 23.8327 295.999 23.2477L296.627 23.0104ZM296.784 25.8003C297.887 25.5619 298.973 25.2524 300.035 24.8741L300.457 25.5688C299.41 25.9168 298.31 26.2413 297.157 26.5423C297.051 26.2872 296.927 26.0393 296.786 25.8003H296.784ZM297.412 16.8969H300.53V16.2197H296.965V15.627H300.53V14.8167H301.326V15.627H304.916V16.2197H301.326V16.8969H304.457V17.4908H297.414L297.412 16.8969ZM297.267 18.0962H304.626V20.4694H303.925V20.2216H297.968V20.4694H297.261L297.267 18.0962ZM297.727 20.7785H304.191V24.9691H303.424V24.7318H298.506V24.9807H297.733L297.727 20.7785ZM297.962 19.6509H299.508V18.6658H297.962V19.6509ZM303.412 21.3249H298.494V21.9303H303.424L303.412 21.3249ZM298.494 23.0613H303.424V22.4559H298.506L298.494 23.0613ZM298.494 24.1888H303.424V23.5834H298.506L298.494 24.1888ZM300.161 19.6544H301.708V18.6692H300.161V19.6544ZM301.623 25.5664L301.925 24.8892C302.981 25.1578 304.016 25.4545 305.031 25.7795L304.717 26.54C303.893 26.2467 302.864 25.9211 301.632 25.563L301.623 25.5664ZM303.919 18.6692H302.363V19.6544H303.922L303.919 18.6692Z" fill="#231815"/>
<path d="M305.993 15.7971H309.645C309.645 15.4891 309.645 15.1639 309.658 14.8247H310.456C310.448 15.1639 310.443 15.4891 310.443 15.7971H312.667V14.8351H313.463V15.7971H316.473V18.0892H315.7V17.7917H313.461V18.5754H316.965C316.966 18.8767 316.95 19.1777 316.917 19.4772C316.914 19.622 316.879 19.7644 316.815 19.8948C316.751 20.0252 316.659 20.1404 316.546 20.2328C316.432 20.3252 316.3 20.3925 316.158 20.4301C316.015 20.4677 315.866 20.4747 315.721 20.4508V24.903H314.876V24.6287H307.866V24.903H307.02V20.8907C306.667 21.001 306.28 21.1037 305.861 21.1986C305.742 20.9245 305.596 20.6624 305.426 20.4161C306.687 20.3352 307.9 19.9116 308.93 19.1925H306.272L306.634 17.1747H309.607C309.615 16.937 309.623 16.6838 309.63 16.4152H305.993V15.7971ZM309.835 24.771L310.343 25.4367C308.873 25.8927 307.378 26.2691 305.865 26.5642C305.747 26.3327 305.611 26.0815 305.442 25.8048C306.934 25.5806 308.403 25.2333 309.835 24.7665V24.771ZM307.153 18.5754H309.352C309.462 18.3257 309.536 18.0618 309.57 17.7917H307.298L307.153 18.5754ZM314.875 20.8548H307.866V21.5193H314.875V20.8548ZM307.866 22.7533H314.875V22.0888H307.866V22.7533ZM307.866 23.9885H314.875V23.3217H307.866V23.9885ZM314.669 19.6671C315.014 19.7018 315.361 19.7138 315.708 19.703C315.998 19.696 316.143 19.5247 316.143 19.1925H313.46V20.1185H312.663V19.1925H309.92C309.637 19.6384 309.227 19.9932 308.742 20.2134H314.854C314.802 20.0502 314.736 19.8685 314.669 19.6625V19.6671ZM310.198 18.5754H312.663V17.7917H310.367C310.339 18.058 310.282 18.3207 310.198 18.5754ZM310.434 16.4152C310.426 16.6526 310.417 16.9049 310.41 17.1747H312.669V16.4152H310.434ZM312.572 25.4124L312.886 24.7838C314.408 25.0925 315.862 25.4398 317.246 25.8257L316.908 26.5388C315.407 26.1089 313.96 25.7311 312.567 25.4055L312.572 25.4124ZM315.702 16.4152H313.463V17.1747H315.702V16.4152Z" fill="#231815"/>
<path d="M325.223 20.1139H319.066V19.2168H325.223V20.1139ZM325.223 22.8564H319.066V21.9592H325.223V22.8564Z" fill="#231815"/>
<path d="M326.916 18.1667C328.082 17.2027 329.036 16.0151 329.719 14.6765H330.806C330.618 15.0446 330.418 15.3969 330.208 15.7334H338.625V16.5889H329.641C329.035 17.4442 328.322 18.222 327.52 18.9042C327.35 18.6738 327.15 18.4283 326.916 18.1667ZM326.964 20.6718H328.741L329.284 17.7048H337.271C337.226 18.7652 337.184 19.7542 337.145 20.6718H338.902V21.5262H337.108C337.071 22.298 337.037 23.0184 337.006 23.6875H338.467V24.5175H336.935C336.904 24.9755 336.733 25.4138 336.446 25.7758C336.223 25.9679 335.962 26.1124 335.679 26.2003C335.396 26.2881 335.098 26.3175 334.803 26.2864C334.352 26.2864 333.776 26.2705 333.075 26.2389C333.035 25.9692 332.975 25.6496 332.893 25.278C333.718 25.3487 334.319 25.3846 334.682 25.3846C334.86 25.4079 335.041 25.3944 335.214 25.3452C335.387 25.2959 335.547 25.212 335.685 25.0987C335.819 24.9312 335.905 24.7312 335.933 24.5198H328.193V23.6296L328.579 21.5285H326.96L326.964 20.6718ZM336.13 21.5262H329.568L329.187 23.6875H336.022C336.065 22.9806 336.101 22.2601 336.13 21.5262ZM336.248 18.5349H330.11L329.729 20.6718H336.176C336.197 19.9765 336.219 19.2642 336.243 18.5349H336.248ZM331.694 22.215L332.262 21.598C332.873 22.061 333.413 22.4921 333.881 22.8911L333.241 23.5925C332.616 23.0222 332.099 22.563 331.689 22.215H331.694ZM331.79 19.2052L332.358 18.5881C332.97 19.0512 333.509 19.4822 333.977 19.8812L333.325 20.5931C332.822 20.1077 332.309 19.6435 331.786 19.2005L331.79 19.2052Z" fill="#231815"/>
<path d="M343.016 18.1796C342.71 17.7837 342.376 17.38 342.014 16.9687L342.558 16.589H341.433C340.982 17.1584 340.463 17.6722 339.887 18.1194C339.726 17.9295 339.524 17.708 339.282 17.4549C340.239 16.7195 341.026 15.7926 341.591 14.7356H342.63C342.436 15.1203 342.218 15.493 341.977 15.8515H345.512V16.589H342.698C343.06 16.9363 343.405 17.2835 343.725 17.6447L343.016 18.1796ZM339.585 24.4817H344.526V23.6158H340.503V22.9039H344.526V22.0484H340.424V21.3352H344.532V20.5157H339.53V19.8037H344.532V18.9853H340.617V18.2734H344.532V17.3716H345.403V18.2734H349.655V19.8037H351.081V20.5157H349.655V22.3447H348.79V22.0484H345.407V22.9027H349.851V23.6147H345.405V24.4806H351.072V25.1925H345.405V26.511H344.534V25.1925H339.593L339.585 24.4817ZM348.744 18.1796C348.495 17.8624 348.141 17.4545 347.684 16.956L348.203 16.589H346.959C346.686 16.9996 346.392 17.3989 346.077 17.7871C345.849 17.5736 345.602 17.3799 345.34 17.2083C346 16.474 346.534 15.6398 346.923 14.7379H347.962C347.792 15.1176 347.608 15.4915 347.406 15.8539H351.272V16.5913H348.385C348.778 16.9625 349.128 17.3098 349.436 17.6331L348.744 18.1796ZM348.78 18.9899H345.397V19.8084H348.79L348.78 18.9899ZM345.397 21.3399H348.79V20.5203H345.407L345.397 21.3399Z" fill="#231815"/>
<path d="M360.319 24.8555H358.887L354.18 17.7049C354.055 17.5148 353.947 17.3137 353.86 17.1041H353.824C353.867 17.5322 353.883 17.9624 353.873 18.3925V24.8555H352.679V15.6616H354.195L358.773 22.6897C358.914 22.8941 359.044 23.1058 359.161 23.324H359.185C359.135 22.8789 359.115 22.4311 359.125 21.9834V15.6616H360.322L360.319 24.8555Z" fill="#231815"/>
<path d="M368.391 16.7232H365.69V24.8602H364.475V16.7232H361.788V15.6663H368.386L368.391 16.7232Z" fill="#231815"/>
<path d="M372.68 26.1984H371.973V24.8555C371.173 24.886 370.381 24.6925 369.688 24.2975V23.1052C370.34 23.6089 371.144 23.8847 371.973 23.8889V20.7124C371.254 20.4413 370.608 20.0135 370.082 19.461C369.788 19.061 369.635 18.5776 369.647 18.0845C369.64 17.4842 369.874 16.9053 370.296 16.4719C370.738 16.0108 371.333 15.7194 371.973 15.6501V14.4924H372.68V15.6269C373.302 15.5985 373.922 15.7247 374.481 15.9939V17.1584C373.956 16.7893 373.326 16.5921 372.68 16.5947V19.8708C373.39 20.1406 374.033 20.5566 374.566 21.0909C374.919 21.5094 375.101 22.0421 375.076 22.5852C375.051 23.1283 374.822 23.6429 374.432 24.029C373.948 24.4619 373.337 24.733 372.686 24.8034L372.68 26.1984ZM371.973 16.6294C371.643 16.6605 371.338 16.8157 371.122 17.0625C370.906 17.3092 370.795 17.6286 370.813 17.9537C370.801 18.2571 370.887 18.5562 371.06 18.808C371.312 19.1012 371.623 19.3398 371.973 19.5085V16.6294ZM372.68 23.8402C373.5 23.6666 373.908 23.2375 373.907 22.553C373.907 21.9788 373.498 21.4771 372.68 21.0481V23.8402Z" fill="#231815"/>
<path d="M379.32 24.8555V16.9917C379.037 17.2386 378.72 17.4444 378.377 17.6029C377.99 17.8083 377.58 17.9677 377.154 18.0776V16.9385C377.706 16.7806 378.239 16.5649 378.744 16.2949C379.206 16.0648 379.641 15.7849 380.04 15.4602H380.487V24.8555H379.32Z" fill="#231815"/>
<path d="M389.5 22.0182C389.516 22.4234 389.444 22.8273 389.287 23.2023C389.13 23.5773 388.892 23.9145 388.59 24.1911C387.915 24.7662 387.039 25.0621 386.146 25.0165C385.469 25.0599 384.791 24.9264 384.183 24.6298V23.4433C384.753 23.8275 385.426 24.0381 386.117 24.0487C386.693 24.075 387.257 23.8849 387.696 23.5173C387.895 23.3399 388.052 23.1216 388.156 22.8779C388.26 22.6343 388.308 22.3713 388.297 22.1074C388.31 21.8473 388.26 21.5878 388.151 21.3502C388.043 21.1126 387.879 20.9036 387.672 20.7402C387.157 20.3848 386.533 20.2121 385.905 20.2505C385.374 20.2477 384.843 20.2732 384.315 20.3269L384.659 15.6616H389.033V16.6839H385.657L385.464 19.2885L386.315 19.2538C387.158 19.2059 387.989 19.4647 388.65 19.9808C388.937 20.2369 389.162 20.5527 389.309 20.9052C389.456 21.2576 389.521 21.6379 389.5 22.0182Z" fill="#231815"/>
<path d="M390.938 20.4403C390.856 19.1607 391.142 17.8844 391.762 16.7567C392.01 16.3591 392.361 16.0336 392.779 15.814C393.197 15.5944 393.668 15.4885 394.141 15.5075C396.123 15.5075 397.114 17.0789 397.114 20.2214C397.192 21.4618 396.902 22.6978 396.278 23.7788C396.031 24.1681 395.684 24.4868 395.272 24.703C394.86 24.9191 394.397 25.0252 393.931 25.0106C393.49 25.0244 393.054 24.9234 392.666 24.7178C392.278 24.5122 391.952 24.2094 391.722 23.8402C391.135 22.8039 390.863 21.624 390.938 20.4403ZM392.146 20.387C392.146 22.8273 392.775 24.0478 394.032 24.0486C395.273 24.0486 395.893 22.808 395.893 20.3268C395.893 17.7607 395.284 16.4769 394.068 16.4753C392.787 16.4753 392.146 17.7792 392.146 20.387Z" fill="#231815"/>
<path d="M405.322 21.4903H402.694V24.0602H401.781V21.4903H399.166V20.5827H401.781V18.0127H402.694V20.5827H405.322V21.4903Z" fill="#231815"/>
<path d="M407.014 18.1667C408.18 17.2027 409.134 16.0151 409.817 14.6765H410.905C410.715 15.0446 410.516 15.3969 410.306 15.7334H418.722V16.5889H409.738C409.132 17.4442 408.419 18.222 407.617 18.9042C407.448 18.6742 407.247 18.4283 407.014 18.1667ZM407.062 20.6718H408.839L409.382 17.7048H417.37C417.325 18.7652 417.283 19.7542 417.244 20.6718H419.001V21.5262H417.205C417.17 22.298 417.136 23.0184 417.103 23.6875H418.565V24.5175H417.033C417.001 24.9754 416.831 25.4135 416.544 25.7758C416.321 25.9678 416.06 26.1122 415.777 26.2001C415.494 26.288 415.195 26.3174 414.9 26.2864C414.449 26.2864 413.873 26.2705 413.172 26.2389C413.132 25.9692 413.072 25.6496 412.991 25.278C413.821 25.349 414.417 25.3846 414.78 25.3846C414.958 25.4077 415.139 25.3942 415.312 25.345C415.484 25.2957 415.644 25.2119 415.782 25.0987C415.917 24.9315 416.003 24.7314 416.03 24.5198H408.297V23.6296L408.683 21.5285H407.064L407.062 20.6718ZM416.227 21.5262H409.666L409.286 23.6875H416.12C416.164 22.9806 416.2 22.2601 416.227 21.5262ZM416.345 18.5349H410.207L409.826 20.6718H416.272C416.297 19.9765 416.32 19.2642 416.342 18.5349H416.345ZM411.791 22.215L412.357 21.598C412.97 22.061 413.51 22.4921 413.977 22.8911L413.337 23.5925C412.715 23.0222 412.198 22.563 411.787 22.215H411.791ZM411.887 19.2052L412.454 18.5881C413.067 19.0512 413.607 19.4822 414.073 19.8812L413.42 20.5931C412.92 20.1077 412.408 19.6435 411.884 19.2005L411.887 19.2052Z" fill="#231815"/>
<path d="M87.3674 32.7658C87.0611 32.3707 86.7268 31.9674 86.3647 31.5561L86.9079 31.1752H85.7826C85.3314 31.7449 84.8119 32.2592 84.2354 32.7067C84.0783 32.5169 83.8772 32.295 83.6321 32.0411C84.5887 31.3061 85.3752 30.3796 85.9393 29.323H86.9786C86.7838 29.7074 86.5658 30.0801 86.3258 30.4389H89.8667V31.1752H87.0505C87.4134 31.524 87.7559 31.8763 88.078 32.2321L87.3674 32.7658ZM83.9361 39.0691H88.8781V38.2032H84.854V37.4913H88.8781V36.6346H84.7692V35.9226H88.8781V35.103H83.876V34.3911H88.8781V33.5727H84.9577V32.8596H88.8722V31.9578H89.7418V32.8596H93.9957V34.3911H95.4215V35.103H93.9957V36.931H93.126V36.6346H89.7418V37.4901H94.1889V38.202H89.7418V39.068H95.4097V39.7799H89.7418V41.0984H88.8722V39.7799H83.9302L83.9361 39.0691ZM93.0954 32.7658C92.8448 32.4494 92.4913 32.0419 92.0349 31.5434L92.5545 31.1752H91.3102C91.0352 31.5873 90.7411 31.9871 90.4276 32.3745C90.2 32.1606 89.9536 31.9669 89.6912 31.7957C90.3503 31.0611 90.8846 30.2269 91.2737 29.3253H92.313C92.1433 29.705 91.9579 30.077 91.7568 30.4413H95.6241V31.1775H92.7348C93.1276 31.5503 93.478 31.8976 93.7859 32.2194L93.0954 32.7658ZM93.1319 33.5761H89.7477V34.3946H93.1319V33.5761ZM89.7477 35.9261H93.1319V35.1066H89.7477V35.9261Z" fill="#231815"/>
<path d="M96.5633 32.078L97.143 31.5559C97.4572 31.8407 97.7715 32.1371 98.0857 32.445L99.4632 30.7085H96.1638V29.8982H100.563V30.7085L98.6654 33.0238L98.9435 33.3201L98.4604 33.7473H100.876V34.5785C100.707 35.2198 100.518 35.8885 100.308 36.5847C100.037 36.4943 99.7579 36.4266 99.475 36.3821C99.6768 35.7415 99.8501 35.1403 99.9946 34.5785H98.7621V39.6235C98.788 39.8024 98.7713 39.9848 98.7131 40.1563C98.6549 40.3277 98.5568 40.4836 98.4267 40.6114C98.2966 40.7393 98.138 40.8355 97.9635 40.8927C97.7889 40.9499 97.6032 40.9664 97.4211 40.9408H96.3087C96.2604 40.5935 96.205 40.281 96.1402 40.0032C96.5833 40.0356 96.9651 40.0506 97.2997 40.0506C97.7027 40.0506 97.9042 39.8171 97.9042 39.3502V34.5785H96.0071V33.7473H98.1093C97.6256 33.1633 97.1095 32.606 96.5633 32.078ZM100.478 40.3631C101.465 39.9089 102.421 39.3935 103.341 38.82L103.849 39.532C102.939 40.1438 101.982 40.6837 100.986 41.1469C100.824 40.869 100.654 40.6086 100.478 40.3631ZM101.444 31.9229H103.269L103.498 30.6993H101.057V29.9202H107.981V30.7028H104.465L104.175 31.9264H107.425V38.7877H106.556V38.408H102.314V38.7877H101.443L101.444 31.9229ZM106.556 32.6823H102.314V33.8457H106.556V32.6823ZM102.314 35.7453H106.556V34.5877H102.314V35.7453ZM102.314 37.6439H106.556V36.4805H102.314V37.6439ZM104.875 39.5563L105.322 38.8073C106.386 39.3537 107.316 39.8446 108.113 40.2798L107.667 41.0994C106.652 40.4974 105.72 39.9831 104.872 39.5563H104.875Z" fill="#231815"/>
<path d="M108.392 34.7823C109.576 33.1216 110.493 31.2915 111.11 29.3564L112.053 29.676C111.686 30.6669 111.299 31.5814 110.893 32.4195V40.9779H109.975V34.1166C109.614 34.7197 109.214 35.2997 108.778 35.8531C108.641 35.4247 108.513 35.0678 108.392 34.7823ZM111.739 33.5343H113.781V31.8488H112.222V31.0385H113.781V29.4005H114.699V31.0385H117.104V29.4005H118.022V31.0385H119.859V31.8488H118.022V33.5343H120.294V34.3447H111.739V33.5343ZM112.669 35.3275H119.17V40.9779H118.252V40.3481H113.592V40.9779H112.674L112.669 35.3275ZM118.252 36.1379H113.592V37.4541H118.257L118.252 36.1379ZM113.587 39.5436H118.252V38.2378H113.592L113.587 39.5436ZM114.699 33.5367H117.104V31.8512H114.699V33.5367Z" fill="#231815"/>
<path d="M120.741 38.3326L122.469 38.0004V34.7474H120.91V33.8931H122.469V31.0685H120.82V30.213H124.976V31.0685H123.357V33.8931H124.844V34.7474H123.357V37.799C123.946 37.6728 124.526 37.5408 125.097 37.4065C125.072 37.7712 125.065 38.0756 125.072 38.321C123.856 38.5742 122.455 38.9026 120.868 39.3062L120.741 38.3326ZM125.381 29.9282H131.738V37.5489H130.869V37.0742H129.853V39.224C129.853 39.7302 130.078 39.9834 130.529 39.9834H130.869C130.96 39.9953 131.053 39.9889 131.142 39.9646C131.231 39.9403 131.314 39.8986 131.387 39.8419C131.459 39.7853 131.519 39.7148 131.562 39.6349C131.606 39.555 131.633 39.4672 131.642 39.3768C131.737 38.9106 131.805 38.4394 131.847 37.9656C132.122 38.0837 132.432 38.1995 132.778 38.3129C132.715 38.8008 132.622 39.2845 132.499 39.7612C132.454 40.084 132.282 40.3766 132.02 40.5762C131.758 40.7757 131.427 40.8664 131.097 40.8285H130.336C129.418 40.8285 128.959 40.3299 128.959 39.3328V37.0742H127.979C128.049 37.5979 127.997 38.1302 127.828 38.6314C127.659 39.1326 127.376 39.5897 127.001 39.9683C126.249 40.5231 125.383 40.9117 124.463 41.1074C124.304 40.7967 124.127 40.4956 123.932 40.2057C124.749 40.0869 125.534 39.8087 126.24 39.3872C126.82 39.0469 127.106 38.2751 127.098 37.072H126.252V37.5466H125.375L125.381 29.9282ZM130.867 30.7386H126.251V32.056H130.867V30.7386ZM126.251 34.1686H130.867V32.8373H126.251V34.1686ZM126.251 36.2697H130.867V34.9396H126.251V36.2697Z" fill="#231815"/>
<path d="M133.513 39.7104H138.636V36.8163H134.311V35.9504H138.636V34.288H135.495V33.4568C134.922 33.8134 134.302 34.1696 133.634 34.5254C133.457 34.2132 133.255 33.9155 133.03 33.6351C135.274 32.7351 137.238 31.2693 138.721 29.3855H140.037L139.759 29.7177C141.192 31.4299 143.073 32.7265 145.199 33.4684C144.981 33.7694 144.766 34.0855 144.559 34.4177C143.925 34.1548 143.315 33.8416 142.733 33.4812V34.2915H139.603V35.9539H143.905V36.8198H139.603V39.7139H144.751V40.5914H133.513V39.7104ZM134.867 37.5387L135.574 36.9796C136.162 37.5653 136.738 38.1746 137.301 38.8074L136.476 39.4488C135.998 38.8237 135.462 38.1869 134.867 37.5387ZM139.131 30.3914C138.11 31.5845 136.898 32.6069 135.543 33.4187H142.637C141.322 32.5863 140.14 31.566 139.131 30.3914ZM140.847 38.9024C141.45 38.2968 142.004 37.6462 142.504 36.9564L143.349 37.4912C142.785 38.1789 142.193 38.8391 141.573 39.4719L140.847 38.9024Z" fill="#231815"/>
<path d="M145.887 39.7104H151.009V36.8163H146.683V35.9504H151.009V34.288H147.867V33.4568C147.296 33.8134 146.675 34.1696 146.007 34.5254C145.831 34.2127 145.629 33.9149 145.402 33.6351C147.647 32.7354 149.611 31.2695 151.095 29.3855H152.411L152.133 29.7177C153.565 31.4299 155.445 32.7265 157.571 33.4684C157.354 33.7694 157.14 34.0858 156.93 34.4177C156.297 34.1546 155.687 33.8414 155.106 33.4812V34.2915H151.976V35.9539H156.277V36.8198H151.976V39.7139H157.123V40.5914H145.887V39.7104ZM147.239 37.5387L147.953 36.9796C148.541 37.5653 149.117 38.1746 149.68 38.8074L148.855 39.4488C148.374 38.8237 147.836 38.1869 147.239 37.5387ZM151.505 30.3914C150.483 31.5845 149.271 32.6069 147.916 33.4187H155.009C153.695 32.586 152.514 31.5657 151.505 30.3914ZM153.221 38.9024C153.821 38.2966 154.373 37.646 154.87 36.9564L155.715 37.4912C155.152 38.1789 154.56 38.8391 153.94 39.4719L153.221 38.9024Z" fill="#231815"/>
<path d="M159.336 34.7371L159.783 34.0715C160.254 34.2937 160.709 34.5102 161.136 34.7244C161.555 34.314 161.917 33.8508 162.212 33.3468H159.855C159.461 33.9949 159.004 34.6036 158.49 35.1643C158.312 34.9744 158.123 34.7846 157.922 34.5947C158.723 33.7493 159.362 32.7689 159.808 31.7007L160.605 31.9611C160.488 32.1984 160.377 32.4241 160.252 32.6371H163.175V33.3619C162.826 33.9918 162.4 34.5776 161.906 35.1064C162.613 35.4545 163.258 35.7789 163.84 36.0799L163.345 36.8521C162.661 36.4663 161.96 36.0823 161.243 35.7003C160.326 36.3939 159.296 36.9315 158.198 37.2908C158.077 37.0454 157.944 36.8042 157.799 36.5673C158.744 36.2836 159.637 35.8538 160.445 35.294C160.082 35.1072 159.713 34.9216 159.336 34.7371ZM158.158 30.712H160.647C160.47 30.3408 160.281 29.9727 160.079 29.6077L160.863 29.2754C161.162 29.8218 161.408 30.3007 161.601 30.712H163.74V32.386H162.915V31.4251H158.976V32.3872H158.151L158.158 30.712ZM158.896 37.0628H163.027V40.8725H162.202V40.244H159.713V40.9385H158.889L158.896 37.0628ZM162.206 37.7991H159.717V39.5089H162.206V37.7991ZM165.741 38.7957L166.369 39.4487C165.599 40.0303 164.792 40.5617 163.952 41.0393C163.774 40.7729 163.577 40.5191 163.363 40.2799C164.203 39.8571 165.002 39.3604 165.751 38.7957H165.741ZM164.218 31.9935H165.986L166.192 30.8544H163.945V30.0441H169.719V30.8544H167.121L166.867 31.9935H169.368V38.7726H168.522V38.416H165.067V38.7842H164.221L164.218 31.9935ZM168.519 32.7541H165.064V33.9059H168.519V32.7541ZM165.064 35.7929H168.519V34.6422H165.064V35.7929ZM165.064 37.681H168.519V36.5234H165.064V37.681ZM167.143 39.4614L167.723 38.8316C168.423 39.2746 169.139 39.7574 169.873 40.2799L169.317 41.0045C168.519 40.3948 167.798 39.8805 167.154 39.4614H167.143Z" fill="#231815"/>
<path d="M176.162 32.8779L173.923 36.1853L176.129 39.4429H174.76L173.485 37.3592C173.417 37.2434 173.32 37.0778 173.194 36.8486H173.17C173.079 37.024 172.979 37.1945 172.869 37.3592L171.572 39.4429H170.213L172.484 36.22L170.315 32.8779H171.684L172.936 35.0775C173.011 35.2117 173.104 35.3854 173.213 35.5995H173.236L174.861 32.8803L176.162 32.8779Z" fill="#231815"/>
<path d="M181.478 32.6591C181.49 32.4427 181.454 32.2263 181.373 32.0248C181.291 31.8233 181.166 31.6416 181.006 31.4922C180.644 31.195 180.181 31.0435 179.71 31.0685C179.302 31.074 178.9 31.1736 178.538 31.3591C178.122 31.5691 177.748 31.8501 177.432 32.1891V31.0627C177.727 30.7566 178.081 30.5121 178.474 30.3439C178.908 30.1691 179.374 30.0843 179.842 30.0949C180.584 30.0598 181.313 30.2981 181.885 30.7629C182.143 30.9888 182.346 31.2682 182.479 31.5808C182.613 31.8934 182.674 32.2313 182.658 32.57C182.675 33.1875 182.511 33.7968 182.187 34.3261C181.754 34.933 181.202 35.4495 180.564 35.8461C180.023 36.1997 179.499 36.5799 178.996 36.9852C178.771 37.1683 178.583 37.3918 178.443 37.6439C178.333 37.8839 178.279 38.1456 178.287 38.4091H182.938V39.4428H177.054V38.9867C177.042 38.5269 177.117 38.069 177.275 37.6358C177.444 37.2329 177.691 36.866 178.003 36.5557C178.488 36.0864 179.018 35.6639 179.585 35.2939C180.157 34.9345 180.665 34.4843 181.086 33.9615C181.351 33.5776 181.488 33.1226 181.478 32.6591Z" fill="#231815"/>
<path d="M184.299 38.834C184.296 38.7336 184.315 38.6338 184.353 38.5408C184.392 38.4478 184.449 38.3636 184.522 38.2934C184.672 38.1511 184.873 38.0715 185.081 38.0715C185.289 38.0715 185.49 38.1511 185.64 38.2934C185.783 38.4354 185.864 38.6275 185.864 38.8276C185.864 39.0278 185.783 39.2198 185.64 39.3619C185.566 39.4353 185.477 39.4929 185.38 39.5311C185.282 39.5694 185.178 39.5874 185.073 39.5841C184.97 39.5869 184.867 39.5686 184.772 39.5303C184.677 39.492 184.59 39.4347 184.519 39.3619C184.448 39.2926 184.393 39.2103 184.355 39.1196C184.317 39.029 184.298 38.9319 184.299 38.834Z" fill="#231815"/>
<path d="M192.927 36.6055C192.943 37.0107 192.87 37.4145 192.713 37.7895C192.556 38.1644 192.319 38.5018 192.017 38.7784C191.341 39.353 190.466 39.6487 189.573 39.6038C188.895 39.6465 188.218 39.5132 187.61 39.2171V38.0236C188.179 38.4084 188.851 38.6195 189.542 38.6302C190.119 38.6558 190.683 38.4659 191.123 38.0989C191.322 37.9214 191.479 37.7031 191.582 37.4595C191.686 37.2159 191.734 36.9528 191.723 36.6888C191.736 36.4286 191.687 36.169 191.578 35.9312C191.47 35.6934 191.305 35.4842 191.099 35.3206C190.583 34.9656 189.96 34.7933 189.331 34.8321C188.801 34.8293 188.27 34.8547 187.742 34.9085L188.086 30.2432H192.46V31.2642H189.084L188.891 33.8689L189.741 33.8342C190.584 33.7863 191.416 34.0451 192.077 34.5612C192.365 34.8182 192.59 35.1351 192.737 35.4888C192.884 35.8425 192.949 36.2241 192.927 36.6055Z" fill="#231815"/>
<path d="M194.34 32.57C194.305 31.9178 194.524 31.2769 194.953 30.778C195.162 30.5561 195.418 30.3815 195.703 30.2665C195.988 30.1516 196.295 30.099 196.603 30.1124C196.892 30.0966 197.18 30.1431 197.449 30.2487C197.717 30.3543 197.959 30.5164 198.157 30.7236C198.555 31.2021 198.754 31.81 198.717 32.4265C198.746 33.07 198.526 33.7004 198.1 34.1907C197.895 34.4147 197.641 34.5914 197.358 34.7083C197.075 34.8251 196.769 34.8792 196.463 34.8668C196.174 34.8788 195.886 34.8289 195.619 34.7203C195.352 34.6117 195.112 34.4472 194.917 34.2382C194.515 33.7745 194.309 33.1778 194.34 32.57ZM195.27 32.511C195.243 32.9309 195.362 33.3473 195.608 33.6917C195.718 33.828 195.859 33.9367 196.02 34.009C196.181 34.0812 196.357 34.1149 196.533 34.1073C196.713 34.1162 196.892 34.0815 197.055 34.0064C197.217 33.9314 197.359 33.8181 197.467 33.6767C197.707 33.3179 197.822 32.8922 197.795 32.4635C197.822 32.0444 197.709 31.6282 197.472 31.2781C197.367 31.1412 197.229 31.0316 197.07 30.9588C196.912 30.886 196.738 30.8521 196.563 30.8602C196.382 30.8538 196.201 30.89 196.037 30.966C195.873 31.0419 195.73 31.1553 195.62 31.2966C195.368 31.6512 195.244 32.0791 195.27 32.511ZM202.799 30.249L196.789 39.5031H195.779L201.789 30.249H202.799ZM199.947 37.2885C199.913 36.6337 200.132 35.9903 200.56 35.4873C200.767 35.2627 201.023 35.0859 201.308 34.9694C201.593 34.853 201.901 34.7997 202.209 34.8135C202.498 34.7985 202.787 34.8456 203.055 34.9516C203.323 35.0576 203.565 35.2199 203.762 35.4271C204.137 35.9361 204.334 36.551 204.323 37.1793C204.312 37.8076 204.094 38.4155 203.701 38.9115C203.497 39.1335 203.245 39.3088 202.965 39.4252C202.684 39.5416 202.381 39.5962 202.076 39.5852C201.786 39.5977 201.497 39.547 201.229 39.4367C200.961 39.3265 200.721 39.1594 200.527 38.9474C200.128 38.4857 199.921 37.8934 199.947 37.2885ZM200.871 37.2353C200.845 37.6507 200.965 38.0622 201.209 38.4022C201.318 38.5386 201.459 38.6476 201.62 38.7203C201.78 38.7929 201.956 38.8271 202.133 38.82C202.313 38.8286 202.492 38.7934 202.655 38.7177C202.818 38.642 202.96 38.5281 203.067 38.3859C203.307 38.0277 203.422 37.603 203.396 37.1751C203.424 36.7568 203.309 36.3412 203.067 35.9954C202.961 35.8612 202.823 35.7538 202.666 35.6823C202.509 35.6109 202.337 35.5773 202.163 35.5845C201.98 35.5758 201.798 35.611 201.631 35.687C201.465 35.763 201.32 35.8776 201.209 36.0209C200.963 36.3782 200.845 36.805 200.871 37.2353Z" fill="#231815"/>
<path d="M210.863 34.2196C210.997 34.2159 211.131 34.2393 211.256 34.2883C211.38 34.3373 211.493 34.4109 211.588 34.5044C211.754 34.7057 211.84 34.9589 211.831 35.2175C211.833 35.6514 211.716 36.0779 211.491 36.4516C211.222 36.8065 210.875 37.0983 210.477 37.3059L210.284 37.0743C210.52 36.9508 210.722 36.7731 210.874 36.5562C211.025 36.3394 211.121 36.0898 211.153 35.8287C211.138 35.7014 211.013 35.618 210.78 35.5787C210.615 35.5643 210.463 35.4888 210.353 35.3677C210.244 35.2466 210.186 35.0889 210.19 34.927C210.193 34.7469 210.261 34.5737 210.384 34.4396C210.442 34.3696 210.515 34.3135 210.598 34.2754C210.681 34.2373 210.772 34.2182 210.863 34.2196Z" fill="#231815"/>
<path d="M221.582 38.298L222.161 39.0922C220.778 39.8544 219.345 40.525 217.871 41.0994C217.735 40.7879 217.569 40.4896 217.377 40.2081C218.839 39.7085 220.247 39.0687 221.582 38.298ZM227.26 29.4062V30.8787H229.084V31.7331H227.26V37.2526H229.35V38.1081H217.436V37.2526H219.503V31.7331H217.678V30.8787H219.503V29.4062H220.433V30.8787H226.324V29.4062H227.26ZM220.433 33.0146H226.324V31.7331H220.433V33.0146ZM220.433 35.1272H226.324V33.8457H220.433V35.1272ZM220.433 37.2526H226.324V35.9584H220.433V37.2526ZM224.53 39.0922L225.061 38.2818C227.01 39.0497 228.452 39.659 229.387 40.1097L228.879 41.0358C227.464 40.3159 226.012 39.6672 224.53 39.0922Z" fill="#231815"/>
<path d="M229.659 34.95C230.93 33.2542 231.891 31.3544 232.499 29.3354L233.478 29.655C233.109 30.6754 232.681 31.6745 232.197 32.6475V40.9917H231.278V34.2855C230.904 34.8836 230.493 35.4582 230.046 36.0057C229.93 35.6654 229.802 35.3147 229.659 34.95ZM237.006 29.4535H237.949V32.4032L241.092 31.6982C241.035 33.4547 240.991 34.669 240.958 35.3412C240.98 35.8281 240.857 36.3106 240.605 36.7304C240.456 36.8799 240.274 36.994 240.073 37.064C239.872 37.134 239.657 37.1581 239.445 37.1344C239.196 37.1344 238.879 37.1263 238.491 37.1101C238.443 36.8103 238.383 36.485 238.309 36.1377C238.656 36.1771 239.002 36.2037 239.349 36.2199C239.783 36.2431 240.009 35.9344 240.025 35.2938C240.065 34.6293 240.093 33.7985 240.11 32.8014L237.947 33.2946V38.5583H237.004V33.5088L234.974 33.9718V38.7678C234.953 38.9024 234.965 39.0398 235.008 39.1691C235.051 39.2984 235.124 39.4161 235.222 39.5128C235.319 39.6095 235.438 39.6826 235.569 39.7263C235.701 39.77 235.84 39.7831 235.977 39.7646H239.336C240.069 39.7646 240.488 39.4995 240.593 38.9693C240.697 38.4622 240.786 37.8499 240.858 37.1298C241.196 37.256 241.53 37.3671 241.861 37.462C241.776 38.1007 241.658 38.7348 241.507 39.3617C241.306 40.2322 240.634 40.6675 239.489 40.6675H235.787C235.549 40.7015 235.308 40.6809 235.08 40.6072C234.852 40.5335 234.645 40.4088 234.475 40.2429C234.305 40.0771 234.177 39.8746 234.1 39.6515C234.023 39.4285 234 39.1909 234.033 38.9577V34.1859L232.946 34.4348L232.79 33.5562L234.033 33.2772V30.8461H234.976V33.0781L237.006 32.615V29.4535Z" fill="#231815"/>
<path d="M242.764 30.3832H246.416C246.416 30.0745 246.421 29.75 246.429 29.4097H247.227C247.218 29.75 247.214 30.0745 247.214 30.3832H249.438V29.4213H250.234V30.3832H253.244V32.6742H252.471V32.3778H250.232V33.1604H253.736C253.737 33.462 253.721 33.7635 253.688 34.0634C253.685 34.2081 253.65 34.3504 253.586 34.4807C253.522 34.6111 253.43 34.7263 253.317 34.8186C253.203 34.9109 253.071 34.9781 252.928 35.0155C252.786 35.053 252.637 35.0599 252.492 35.0357V39.488H251.647V39.2148H244.636V39.488H243.791V35.4768C243.437 35.5879 243.05 35.691 242.63 35.7859C242.512 35.5114 242.366 35.249 242.196 35.0022C243.456 34.9215 244.67 34.4983 245.7 33.7797H243.042L243.403 31.7608H246.376C246.385 31.5293 246.393 31.2711 246.4 31.0014H242.764V30.3832ZM246.605 39.3572L247.113 40.0217C245.642 40.4785 244.148 40.8553 242.635 41.1503C242.517 40.9188 242.381 40.6676 242.212 40.3898C243.703 40.1658 245.173 39.8192 246.605 39.3537V39.3572ZM243.917 33.1615H246.116C246.226 32.9122 246.3 32.6487 246.334 32.379H244.062L243.917 33.1615ZM251.639 35.4409H244.636V36.1054H251.645L251.639 35.4409ZM244.63 37.3406H251.639V36.6761H244.636L244.63 37.3406ZM244.63 38.5746H251.639V37.9078H244.636L244.63 38.5746ZM251.433 34.2544C251.778 34.2891 252.125 34.3011 252.472 34.2902C252.762 34.2825 252.907 34.1123 252.907 33.7797H250.224V34.7058H249.427V33.7797H246.685C246.402 34.2251 245.992 34.5797 245.507 34.7996H251.62C251.576 34.6375 251.51 34.4546 251.439 34.2497L251.433 34.2544ZM246.962 33.1615H249.427V32.379H247.13C247.104 32.6447 247.05 32.907 246.968 33.1615H246.962ZM247.198 31.0014C247.189 31.2387 247.182 31.4923 247.174 31.7608H249.433V31.0014H247.198ZM249.337 39.9916L249.651 39.3629C251.173 39.6716 252.627 40.019 254.011 40.4048L253.673 41.1168C252.176 40.6931 250.731 40.318 249.337 39.9916ZM252.467 30.9933H250.228V31.7527H252.467V30.9933Z" fill="#231815"/>
<path d="M254.593 37.5606H260.102V36.5187H261.056V37.5606H266.445V38.3917H261.056V41.0613H260.102V38.3917H254.593V37.5606ZM257.638 34.3667L258.073 35.0682L255.136 36.7653L254.628 35.97C255.467 35.5833 256.47 35.0493 257.638 34.3679V34.3667ZM259.196 35.6251C259.321 35.6166 260.224 35.571 261.906 35.4884C261.704 35.2117 261.51 34.9525 261.317 34.7117L261.968 34.3077C262.546 34.9387 263.083 35.6048 263.576 36.3022L262.803 36.7769C262.661 36.5677 262.522 36.364 262.385 36.1656C260.855 36.2482 259.588 36.3293 258.585 36.4088C258.37 36.4313 258.156 36.4672 257.945 36.5164L257.643 35.706C257.832 35.6479 258.014 35.5704 258.187 35.4746C258.898 34.9996 259.572 34.4741 260.204 33.9025C259.621 33.9256 259.122 33.9554 258.707 33.9916C258.537 34.0148 258.353 34.0506 258.15 34.0981L257.788 33.3746C257.993 33.3004 258.182 33.1875 258.344 33.0424C258.917 32.5595 259.429 32.0093 259.866 31.4043H254.758V30.5719H260.178C259.98 30.22 259.795 29.9113 259.622 29.6458L260.492 29.2314C260.806 29.7022 261.078 30.149 261.307 30.5719H266.256V31.4043H260.221L260.795 31.6995C260.143 32.357 259.593 32.8795 259.145 33.2669C259.605 33.2553 260.205 33.2403 260.944 33.2253C261.267 32.9081 261.59 32.5739 261.912 32.2227L262.746 32.6973C261.634 33.7546 260.448 34.7334 259.196 35.6262V35.6251ZM255.015 32.5388L255.631 31.96C256.3 32.4825 256.884 32.9768 257.383 33.4429L256.707 34.097C256.17 33.55 255.606 33.0302 255.015 32.5399V32.5388ZM263.703 34.3551C264.855 34.9964 265.753 35.5428 266.397 35.9943L265.865 36.7653C265.018 36.1207 264.13 35.5299 263.207 34.9964L263.703 34.3551ZM265.902 32.6186C265.27 33.1553 264.604 33.651 263.908 34.1028L263.292 33.4741C263.982 33.0408 264.625 32.5396 265.212 31.9785L265.902 32.6186Z" fill="#231815"/>
<path d="M266.821 35.1296C267.981 33.3626 268.83 31.4165 269.333 29.3727L270.227 29.6331C269.92 30.6266 269.561 31.6037 269.152 32.5608V41.0416H268.282V34.3528C267.953 34.956 267.59 35.5404 267.194 36.1031C267.081 35.769 266.957 35.4444 266.821 35.1296ZM277.671 33.4811L278.359 34.2162C277.522 34.8892 276.623 35.5637 275.664 36.2397C276.369 37.6292 277.514 38.7563 278.927 39.451C278.637 39.7675 278.383 40.068 278.165 40.3528C276.978 39.5826 275.974 38.5711 275.219 37.3865C274.465 36.202 273.978 34.8722 273.792 33.4869C273.45 34.022 273.078 34.5387 272.68 35.0347V39.4036C273.364 39.0239 274.069 38.6163 274.795 38.1811C274.84 38.5048 274.905 38.8256 274.988 39.1419C274.158 39.5934 273.385 40.0487 272.668 40.5079C272.422 40.6778 272.188 40.8639 271.968 41.0648L271.315 40.2463C271.458 40.1078 271.57 39.941 271.642 39.757C271.715 39.5731 271.747 39.376 271.737 39.1789V36.1031C271.128 36.745 270.474 37.3442 269.78 37.8963C269.643 37.6193 269.478 37.3144 269.285 36.9818C271.028 35.6982 272.451 34.0424 273.448 32.1394H270.046V31.3291H278.796V32.1394H274.548L274.44 32.3582C274.6 33.403 274.879 34.4267 275.273 35.4097C276.105 34.8061 276.905 34.1617 277.671 33.4788V33.4811ZM273.14 29.7258L273.938 29.2407C274.357 29.7547 274.735 30.249 275.073 30.7237L274.228 31.27C273.901 30.7322 273.537 30.2163 273.14 29.7258Z" fill="#231815"/>
<path d="M291.204 37.9184C290.995 38.1233 290.721 38.4012 290.38 38.7484C288.4 37.2367 286.804 35.2952 285.716 33.076V37.7771H288.481V38.6072H285.716V41.0382H284.773V38.6072H281.908V37.7771H284.773V33.076C283.583 35.2886 281.98 37.2615 280.048 38.8919C279.733 38.6002 279.468 38.3618 279.25 38.18C281.335 36.5715 283.081 34.5801 284.392 32.3166H279.516V31.438H284.773V29.2998H285.716V31.438H290.971V32.3166H286.06C287.255 34.5882 289.027 36.5178 291.204 37.9184Z" fill="#231815"/>
<path d="M291.626 36.4457C293.025 35.2574 294.181 33.8192 295.034 32.2076L295.88 32.7181C295.48 33.4009 295.04 34.0607 294.563 34.6942V40.9801H293.56V35.9166C293.089 36.4434 292.584 36.941 292.05 37.4066C291.92 37.0743 291.779 36.7502 291.626 36.4457ZM291.687 32.6822C292.928 31.7533 293.978 30.6016 294.781 29.2881L295.65 29.8102C294.696 31.2409 293.522 32.5181 292.171 33.5968C292.026 33.2958 291.863 32.9913 291.687 32.6822ZM296 33.7866H303.649V34.6768H301.303V39.3189C301.331 39.5198 301.311 39.7243 301.245 39.9163C301.179 40.1083 301.068 40.2825 300.922 40.4252C300.775 40.5679 300.597 40.6752 300.401 40.7386C300.205 40.8019 299.996 40.8196 299.792 40.7903C299.116 40.7903 298.427 40.786 297.727 40.7776C297.678 40.4615 297.617 40.105 297.545 39.7102C298.175 39.7732 298.809 39.8049 299.442 39.8051C299.555 39.8217 299.67 39.8122 299.778 39.7775C299.886 39.7428 299.985 39.6837 300.065 39.605C300.146 39.5263 300.207 39.4302 300.244 39.3243C300.28 39.2184 300.291 39.1055 300.275 38.9948V34.6745H296V33.7866ZM296.707 30.1979H302.978V31.0882H296.707V30.1979Z" fill="#231815"/>
<path d="M305.293 38.0712C305.152 38.9651 304.955 39.8497 304.704 40.7199L303.931 40.4883C304.239 39.6601 304.45 38.7997 304.559 37.9242L305.293 38.0712ZM305.051 33.0992C305.35 33.0992 305.777 33.0911 306.332 33.0749C306.614 32.5686 306.896 32.0225 307.178 31.4368L307.987 31.8408C307.149 33.2809 306.251 34.6975 305.293 36.0905C305.849 36.0349 306.429 35.9751 307.033 35.911C306.92 35.5313 306.807 35.1559 306.694 34.7847L307.401 34.5705C307.696 35.3486 307.95 36.1411 308.162 36.9448L307.388 37.1937C307.34 37.0108 307.291 36.8337 307.243 36.66C306.274 36.7469 305.31 36.8852 304.356 37.0744L304.15 36.1727C304.816 35.4629 305.4 34.6824 305.89 33.8458C305.359 33.8665 304.83 33.9261 304.308 34.0241L304.053 33.2416C304.833 32.0425 305.474 30.761 305.962 29.4214L306.821 29.7293C306.084 31.2088 305.494 32.3321 305.051 33.0992ZM306.332 37.8709C306.493 38.8434 306.606 39.6464 306.67 40.28L305.921 40.4108C305.897 39.8327 305.819 39.0177 305.685 37.9658L306.332 37.8709ZM307.552 37.5861C307.787 38.354 307.981 39.0583 308.131 39.6988L307.358 39.8887C307.246 39.1643 307.092 38.4467 306.899 37.739L307.552 37.5861ZM309.146 40.9676H308.321V30.0002H315.561V39.5564C315.59 39.732 315.576 39.9116 315.522 40.0811C315.468 40.2507 315.374 40.4055 315.248 40.5333C315.122 40.661 314.968 40.7583 314.797 40.8172C314.627 40.8761 314.444 40.895 314.265 40.8726C313.902 40.8726 313.435 40.8568 312.864 40.8252C312.839 40.5404 312.804 40.2463 312.755 39.9234C313.188 39.9837 313.623 40.0196 314.06 40.031C314.511 40.031 314.737 39.8381 314.737 39.4522V30.8105H309.141L309.146 40.9676ZM309.485 35.3415H314.391V36.138H311.104V38.0133H314.05V38.7958H310.28V36.1333H309.483L309.485 35.3415ZM309.497 32.9799H312.046C312.489 32.1811 312.803 31.5638 312.989 31.1277L313.799 31.5086C313.517 31.9832 313.214 32.4736 312.892 32.9799H314.391V33.7636H309.497V32.9799ZM310.029 31.475L310.742 31.1277C311.065 31.578 311.355 32.0499 311.611 32.54L310.863 32.9324C310.63 32.4205 310.349 31.9314 310.023 31.4715L310.029 31.475ZM311.261 34.1225L311.968 33.8262C312.113 34.07 312.322 34.4617 312.596 35.0012L311.848 35.3218C311.686 34.9057 311.49 34.5035 311.261 34.119V34.1225Z" fill="#231815"/>
<path d="M316.362 38.9023C317.207 38.7642 318.071 38.6121 318.954 38.4462C319.454 36.7668 319.855 35.0608 320.156 33.3364L321.134 33.561C320.76 35.096 320.35 36.6646 319.902 38.2668C320.378 38.1765 320.861 38.0796 321.352 37.9762C321.363 38.2666 321.391 38.5562 321.437 38.8433C319.714 39.1836 318.099 39.5162 316.592 39.8412L316.362 38.9023ZM316.531 31.8639H321.509V32.6951H316.531V31.8639ZM316.942 33.7034L317.775 33.4892C318.129 34.7078 318.46 35.9862 318.766 37.3244L317.872 37.5618C317.605 36.256 317.295 34.9698 316.942 33.7034ZM317.872 29.5961L318.729 29.228C319.052 29.8068 319.387 30.4597 319.732 31.1867L318.826 31.5907C318.547 30.9083 318.229 30.2423 317.872 29.5961ZM321.76 35.3183H324.056V29.3414H325.022V31.7887H328.381V32.6905H325.022V35.3136H327.704V40.9999H326.786V40.2984H322.678V40.9999H321.76V35.3183ZM326.786 36.1483H322.678V39.4719H326.786V36.1483Z" fill="#231815"/>
<path d="M328.697 34.9501C330.431 33.5898 331.81 31.8439 332.721 29.8565L333.676 30.2478C332.687 32.3434 331.251 34.2057 329.465 35.7083C329.238 35.4291 328.98 35.1749 328.697 34.9501ZM336.564 36.4226C337.723 37.902 338.702 39.2472 339.499 40.4581L338.581 41.052C338.356 40.6873 338.11 40.3099 337.863 39.9175C335.204 40.0448 333.044 40.1733 331.382 40.303C331.008 40.3474 330.636 40.4151 330.27 40.5055L329.739 39.4961C330.114 39.3459 330.455 39.1239 330.743 38.8432C331.941 37.3824 332.969 35.7938 333.806 34.1073L334.846 34.5704C333.878 36.2086 332.809 37.7864 331.643 39.2947C333.307 39.243 335.19 39.1697 337.292 39.0747C336.833 38.3902 336.328 37.6682 335.775 36.9088L336.564 36.4226ZM335.524 30.0348L336.419 29.6875C337.227 31.7851 338.774 33.5286 340.779 34.6016C340.506 34.8919 340.256 35.2014 340.029 35.5277C337.966 34.22 336.387 32.2944 335.524 30.036V30.0348Z" fill="#231815"/>
<path d="M341.263 34.0126H346.991V32.0538H343.724C343.407 32.6563 343.048 33.2365 342.649 33.7903C342.383 33.6081 342.084 33.4222 341.755 33.2323C342.625 32.1196 343.292 30.8659 343.724 29.5279L344.728 29.8126C344.545 30.2873 344.356 30.7387 344.158 31.1775H346.986V29.3137H347.976V31.1775H352.157V32.0562H347.976V34.0148H353.064V34.8923H341.263V34.0126ZM342.882 36.1611H351.474V40.9178H350.507V40.3008H343.85V40.9178H342.882V36.1611ZM350.507 37.0155H343.85V39.4615H350.507V37.0155Z" fill="#231815"/>
<path d="M359.388 34.4095C359.562 34.4035 359.734 34.4326 359.895 34.495C360.056 34.5573 360.203 34.6515 360.325 34.7719C360.448 34.8922 360.544 35.036 360.607 35.1943C360.671 35.3526 360.7 35.5221 360.694 35.6921C360.698 35.9524 360.623 36.208 360.479 36.4263C360.334 36.6445 360.127 36.8155 359.883 36.9174C359.639 37.0193 359.37 37.0475 359.11 36.9983C358.85 36.9491 358.61 36.8249 358.422 36.6414C358.296 36.5167 358.197 36.3683 358.131 36.2053C358.064 36.0422 358.032 35.8677 358.036 35.6921C358.033 35.5253 358.066 35.3598 358.133 35.2062C358.199 35.0527 358.298 34.9146 358.422 34.8008C358.547 34.6732 358.697 34.5726 358.863 34.5052C359.03 34.4378 359.209 34.4052 359.388 34.4095ZM359.388 36.609C359.503 36.6109 359.618 36.5875 359.722 36.5404C359.827 36.4934 359.919 36.4238 359.993 36.337C360.084 36.2562 360.156 36.157 360.204 36.0463C360.252 35.9356 360.275 35.8159 360.271 35.6956C360.272 35.5822 360.249 35.4697 360.205 35.3649C360.161 35.2602 360.095 35.1652 360.013 35.0856C359.931 35.0059 359.833 34.9432 359.726 34.9013C359.619 34.8593 359.504 34.839 359.388 34.8413C359.267 34.836 359.146 34.8541 359.033 34.8949C358.919 34.9356 358.814 34.998 358.725 35.0786C358.562 35.2441 358.471 35.4653 358.47 35.6956C358.465 35.8141 358.484 35.9325 358.528 36.043C358.572 36.1535 358.639 36.2536 358.725 36.337C358.811 36.4238 358.914 36.4925 359.028 36.5387C359.143 36.5849 359.265 36.6076 359.388 36.6055V36.609Z" fill="#231815"/>
</g>
<defs>
<clipPath id="clip0">
<rect width="419" height="42" fill="white"/>
</clipPath>
</defs>
</svg>
