<svg xmlns="http://www.w3.org/2000/svg" width="153.165" height="35.441" viewBox="0 0 153.165 35.441">
  <g id="Group_624" data-name="Group 624" transform="translate(-3475.948 -1338.033)">
    <path id="Path_355" data-name="Path 355" d="M3728.2,1914.313l-12.847-16.282h-26.266l-12.854,16.282a2.372,2.372,0,0,0,0,2.879l12.854,16.28h26.266l12.847-16.28a2.377,2.377,0,0,0,0-2.879Zm-30.457,18.115-13.155-16.677,13.155-16.676Zm8.947,0v-33.352l13.155,16.676Z" transform="translate(-199.794 -559.998)" fill="#fff"/>
    <g id="Group_615" data-name="Group 615" transform="translate(3536.967 1342.663)">
      <g id="Group_613" data-name="Group 613" transform="translate(0 23.331)">
        <path id="Path_310" data-name="Path 310" d="M3571.478,1380.571v1.033h-2.019v5.536h-1.2V1381.6h-2.02v-1.033Z" transform="translate(-3566.236 -1379.784)" fill="#fff"/>
        <path id="Path_311" data-name="Path 311" d="M3576.458,1382.773a2.821,2.821,0,0,1,.956.142,1.537,1.537,0,0,1,.621.4,1.5,1.5,0,0,1,.332.621,3.054,3.054,0,0,1,.1.8v3.006c-.177.038-.443.084-.8.138a8.308,8.308,0,0,1-1.207.08,3.68,3.68,0,0,1-.816-.084,1.718,1.718,0,0,1-.631-.276,1.269,1.269,0,0,1-.406-.493,1.688,1.688,0,0,1-.148-.749,1.442,1.442,0,0,1,.166-.72,1.378,1.378,0,0,1,.449-.479,1.975,1.975,0,0,1,.66-.266,3.731,3.731,0,0,1,.781-.08,3.561,3.561,0,0,1,.4.024,3.961,3.961,0,0,1,.447.08v-.189a1.528,1.528,0,0,0-.047-.379.8.8,0,0,0-.167-.318.78.78,0,0,0-.312-.213,1.34,1.34,0,0,0-.489-.076,4.256,4.256,0,0,0-.73.057,3.391,3.391,0,0,0-.542.132l-.142-.928a4.487,4.487,0,0,1,.636-.151A5.017,5.017,0,0,1,3576.458,1382.773Zm.094,4.276a4.37,4.37,0,0,0,.806-.057v-1.271a2.484,2.484,0,0,0-.275-.057,2.578,2.578,0,0,0-.4-.028,2.635,2.635,0,0,0-.385.028,1.226,1.226,0,0,0-.351.1.645.645,0,0,0-.251.214.723.723,0,0,0,.162.91A1.306,1.306,0,0,0,3576.552,1387.049Z" transform="translate(-3568.901 -1380.498)" fill="#fff"/>
        <path id="Path_312" data-name="Path 312" d="M3583.4,1380.468a.659.659,0,0,1-.208.512.747.747,0,0,1-1,0,.656.656,0,0,1-.209-.512.669.669,0,0,1,.209-.522.749.749,0,0,1,1,0A.672.672,0,0,1,3583.4,1380.468Zm-.122,6.409h-1.148v-4.958h1.148Z" transform="translate(-3571.343 -1379.52)" fill="#fff"/>
        <path id="Path_313" data-name="Path 313" d="M3588.457,1384.794q-.218.836-.469,1.626t-.5,1.494h-.942q-.19-.436-.4-1t-.418-1.195q-.208-.634-.417-1.336t-.409-1.432h1.214c.056.266.124.552.2.858s.155.62.238.938.168.63.257.934.178.581.268.834c.1-.29.187-.591.279-.9s.178-.62.263-.929.158-.612.231-.9.137-.57.2-.831h.879c.058.26.12.536.191.831s.143.6.222.9.164.62.256.929.185.61.279.9q.124-.379.256-.834t.262-.934q.129-.478.243-.938c.076-.307.143-.593.2-.858h1.184q-.2.731-.408,1.432t-.418,1.336q-.208.637-.417,1.195t-.41,1h-.932q-.246-.7-.507-1.494C3588.761,1385.893,3588.6,1385.351,3588.457,1384.794Z" transform="translate(-3572.288 -1380.557)" fill="#fff"/>
        <path id="Path_314" data-name="Path 314" d="M3597.92,1382.773a2.842,2.842,0,0,1,.958.142,1.551,1.551,0,0,1,.621.4,1.511,1.511,0,0,1,.331.621,2.974,2.974,0,0,1,.1.8v3.006q-.266.057-.8.138a8.331,8.331,0,0,1-1.208.08,3.684,3.684,0,0,1-.816-.084,1.733,1.733,0,0,1-.631-.276,1.281,1.281,0,0,1-.406-.493,1.685,1.685,0,0,1-.148-.749,1.439,1.439,0,0,1,.166-.72,1.371,1.371,0,0,1,.451-.479,1.951,1.951,0,0,1,.659-.266,3.73,3.73,0,0,1,.781-.08,3.562,3.562,0,0,1,.4.024,3.928,3.928,0,0,1,.447.08v-.189a1.441,1.441,0,0,0-.047-.379.8.8,0,0,0-.166-.318.815.815,0,0,0-.312-.213,1.338,1.338,0,0,0-.489-.076,4.251,4.251,0,0,0-.73.057,3.336,3.336,0,0,0-.541.132l-.144-.928a4.543,4.543,0,0,1,.636-.151A5.041,5.041,0,0,1,3597.92,1382.773Zm.094,4.276a4.337,4.337,0,0,0,.806-.057v-1.271a2.478,2.478,0,0,0-.275-.057,2.561,2.561,0,0,0-.4-.028,2.645,2.645,0,0,0-.385.028,1.23,1.23,0,0,0-.351.1.653.653,0,0,0-.251.214.722.722,0,0,0,.163.91A1.307,1.307,0,0,0,3598.014,1387.049Z" transform="translate(-3575.858 -1380.498)" fill="#fff"/>
        <path id="Path_315" data-name="Path 315" d="M3603.648,1383.067a7.616,7.616,0,0,1,.863-.18,7.421,7.421,0,0,1,1.176-.085,2.682,2.682,0,0,1,1.012.166,1.562,1.562,0,0,1,.649.464,1.754,1.754,0,0,1,.343.72,4,4,0,0,1,.1.924v2.788h-1.146v-2.607a3.925,3.925,0,0,0-.052-.678,1.226,1.226,0,0,0-.171-.455.683.683,0,0,0-.324-.256,1.358,1.358,0,0,0-.5-.08,3.7,3.7,0,0,0-.455.028c-.159.02-.275.035-.352.047v4h-1.147Z" transform="translate(-3578.364 -1380.508)" fill="#fff"/>
        <path id="Path_316" data-name="Path 316" d="M3616.626,1387.184c-.347,0-.7-.012-1.051-.033a4.8,4.8,0,0,1-.93-.138v-6.38q.209-.038.445-.071c.159-.022.319-.04.485-.053s.326-.021.487-.028.316-.01.46-.01a6.333,6.333,0,0,1,1.109.09,2.848,2.848,0,0,1,.887.3,1.586,1.586,0,0,1,.583.55,1.6,1.6,0,0,1,.208.844,1.388,1.388,0,0,1-.223.8,1.585,1.585,0,0,1-.62.531,1.728,1.728,0,0,1,.882.587,1.637,1.637,0,0,1,.283.986,1.722,1.722,0,0,1-.74,1.521A4.046,4.046,0,0,1,3616.626,1387.184Zm-.806-3.973h.843a2.42,2.42,0,0,0,1.073-.195.71.71,0,0,0,.389-.7.694.694,0,0,0-.4-.673,2.391,2.391,0,0,0-1.049-.2c-.185,0-.346,0-.488.009s-.264.016-.365.029Zm0,.939v2q.2.019.428.028c.151.006.289.01.415.01a4.578,4.578,0,0,0,.689-.048,1.806,1.806,0,0,0,.55-.165,1,1,0,0,0,.37-.318.89.89,0,0,0,.137-.512.8.8,0,0,0-.408-.777,2.419,2.419,0,0,0-1.129-.218Z" transform="translate(-3581.929 -1379.752)" fill="#fff"/>
        <path id="Path_317" data-name="Path 317" d="M3627.536,1387.761c-.221.057-.507.116-.864.176a7.049,7.049,0,0,1-1.166.089,2.562,2.562,0,0,1-1-.171,1.6,1.6,0,0,1-.644-.474,1.859,1.859,0,0,1-.347-.725,3.926,3.926,0,0,1-.1-.925v-2.778h1.148v2.6a2.1,2.1,0,0,0,.231,1.137.913.913,0,0,0,.812.341q.208,0,.439-.018a2.339,2.339,0,0,0,.347-.048v-4.01h1.147Z" transform="translate(-3584.771 -1380.557)" fill="#fff"/>
        <path id="Path_318" data-name="Path 318" d="M3632.455,1387.029a1.5,1.5,0,0,0,.663-.109.386.386,0,0,0,.209-.374.486.486,0,0,0-.222-.407,3.3,3.3,0,0,0-.735-.351,5.409,5.409,0,0,1-.573-.241,1.938,1.938,0,0,1-.451-.3,1.233,1.233,0,0,1-.3-.412,1.432,1.432,0,0,1-.109-.592,1.293,1.293,0,0,1,.5-1.077,2.162,2.162,0,0,1,1.365-.393,4.179,4.179,0,0,1,.835.081,3.985,3.985,0,0,1,.6.156l-.208.929a2.762,2.762,0,0,0-.485-.157,2.917,2.917,0,0,0-.681-.071,1.185,1.185,0,0,0-.57.119.387.387,0,0,0-.217.364.512.512,0,0,0,.042.218.484.484,0,0,0,.147.176,1.5,1.5,0,0,0,.275.161,4.115,4.115,0,0,0,.418.166,6.367,6.367,0,0,1,.692.3,1.859,1.859,0,0,1,.469.332,1.159,1.159,0,0,1,.271.421,1.7,1.7,0,0,1,.086.57,1.224,1.224,0,0,1-.528,1.076,2.61,2.61,0,0,1-1.5.365,4.153,4.153,0,0,1-1.054-.109,5.442,5.442,0,0,1-.558-.175l.2-.958a5.223,5.223,0,0,0,.611.2A3.191,3.191,0,0,0,3632.455,1387.029Z" transform="translate(-3587.177 -1380.498)" fill="#fff"/>
        <path id="Path_319" data-name="Path 319" d="M3638.74,1380.468a.65.65,0,0,1-.212.512.7.7,0,0,1-.49.19.716.716,0,0,1-.5-.19.656.656,0,0,1-.21-.512.669.669,0,0,1,.21-.522.718.718,0,0,1,.5-.189.7.7,0,0,1,.49.189A.663.663,0,0,1,3638.74,1380.468Zm-.124,6.409h-1.148v-4.958h1.148Z" transform="translate(-3589.281 -1379.52)" fill="#fff"/>
        <path id="Path_320" data-name="Path 320" d="M3641.115,1383.067a7.564,7.564,0,0,1,.862-.18,7.447,7.447,0,0,1,1.176-.085,2.707,2.707,0,0,1,1.015.166,1.6,1.6,0,0,1,.649.464,1.758,1.758,0,0,1,.34.72,3.952,3.952,0,0,1,.1.924v2.788h-1.145v-2.607a3.771,3.771,0,0,0-.053-.678,1.182,1.182,0,0,0-.172-.455.675.675,0,0,0-.323-.256,1.355,1.355,0,0,0-.5-.08,3.688,3.688,0,0,0-.455.028c-.16.02-.276.035-.351.047v4h-1.147Z" transform="translate(-3590.51 -1380.508)" fill="#fff"/>
        <path id="Path_321" data-name="Path 321" d="M3648.635,1385.4a3.1,3.1,0,0,1,.194-1.147,2.4,2.4,0,0,1,.515-.82,2.144,2.144,0,0,1,.739-.493,2.272,2.272,0,0,1,.854-.166,2.041,2.041,0,0,1,1.6.635,2.755,2.755,0,0,1,.573,1.9c0,.063,0,.134-.005.213s-.008.15-.013.214h-3.27a1.3,1.3,0,0,0,.421.925,1.6,1.6,0,0,0,1.084.327,3.514,3.514,0,0,0,.763-.076,3.127,3.127,0,0,0,.546-.161l.151.939a1.749,1.749,0,0,1-.259.1q-.167.052-.381.1c-.141.028-.295.051-.46.071a4.579,4.579,0,0,1-.5.028,3.056,3.056,0,0,1-1.138-.194,2.13,2.13,0,0,1-.8-.541,2.236,2.236,0,0,1-.465-.815A3.359,3.359,0,0,1,3648.635,1385.4Zm3.327-.512a1.493,1.493,0,0,0-.066-.45,1.087,1.087,0,0,0-.195-.37.905.905,0,0,0-.313-.247,1,1,0,0,0-.442-.089,1.01,1.01,0,0,0-.464.1,1.05,1.05,0,0,0-.336.261,1.172,1.172,0,0,0-.213.369,1.946,1.946,0,0,0-.1.426Z" transform="translate(-3592.948 -1380.498)" fill="#fff"/>
        <path id="Path_322" data-name="Path 322" d="M3657.828,1387.029a1.507,1.507,0,0,0,.665-.109.387.387,0,0,0,.209-.374.485.485,0,0,0-.223-.407,3.285,3.285,0,0,0-.735-.351,5.5,5.5,0,0,1-.574-.241,1.894,1.894,0,0,1-.449-.3,1.2,1.2,0,0,1-.3-.412,1.412,1.412,0,0,1-.109-.592,1.292,1.292,0,0,1,.5-1.077,2.166,2.166,0,0,1,1.365-.393,4.137,4.137,0,0,1,.834.081,4,4,0,0,1,.6.156l-.209.929a2.766,2.766,0,0,0-.484-.157,2.914,2.914,0,0,0-.683-.071,1.175,1.175,0,0,0-.568.119.387.387,0,0,0-.218.364.494.494,0,0,0,.043.218.446.446,0,0,0,.145.176,1.523,1.523,0,0,0,.275.161,4.355,4.355,0,0,0,.418.166,6.355,6.355,0,0,1,.691.3,1.853,1.853,0,0,1,.469.332,1.129,1.129,0,0,1,.27.421,1.661,1.661,0,0,1,.085.57,1.225,1.225,0,0,1-.525,1.076,2.616,2.616,0,0,1-1.5.365,4.134,4.134,0,0,1-1.052-.109,5.625,5.625,0,0,1-.561-.175l.2-.958a4.959,4.959,0,0,0,.612.2A3.164,3.164,0,0,0,3657.828,1387.029Z" transform="translate(-3595.403 -1380.498)" fill="#fff"/>
        <path id="Path_323" data-name="Path 323" d="M3663.958,1387.029a1.5,1.5,0,0,0,.663-.109.386.386,0,0,0,.21-.374.484.484,0,0,0-.224-.407,3.256,3.256,0,0,0-.734-.351,5.49,5.49,0,0,1-.573-.241,1.94,1.94,0,0,1-.45-.3,1.246,1.246,0,0,1-.3-.412,1.431,1.431,0,0,1-.11-.592,1.291,1.291,0,0,1,.5-1.077,2.155,2.155,0,0,1,1.365-.393,4.176,4.176,0,0,1,.834.081,4.014,4.014,0,0,1,.6.156l-.209.929a2.833,2.833,0,0,0-.483-.157,2.935,2.935,0,0,0-.683-.071,1.177,1.177,0,0,0-.57.119.387.387,0,0,0-.217.364.5.5,0,0,0,.043.218.471.471,0,0,0,.146.176,1.532,1.532,0,0,0,.276.161,4.262,4.262,0,0,0,.417.166,6.41,6.41,0,0,1,.692.3,1.9,1.9,0,0,1,.47.332,1.129,1.129,0,0,1,.268.421,1.653,1.653,0,0,1,.087.57,1.223,1.223,0,0,1-.527,1.076,2.615,2.615,0,0,1-1.5.365,4.142,4.142,0,0,1-1.052-.109,5.438,5.438,0,0,1-.561-.175l.2-.958a5.208,5.208,0,0,0,.611.2A3.184,3.184,0,0,0,3663.958,1387.029Z" transform="translate(-3597.39 -1380.498)" fill="#fff"/>
        <path id="Path_324" data-name="Path 324" d="M3674.083,1387.184q-.52,0-1.051-.033a4.807,4.807,0,0,1-.93-.138v-6.38c.141-.025.288-.049.447-.071s.318-.04.484-.053.326-.021.487-.028.315-.01.462-.01a6.343,6.343,0,0,1,1.109.09,2.829,2.829,0,0,1,.885.3,1.57,1.57,0,0,1,.584.55,1.6,1.6,0,0,1,.208.844,1.4,1.4,0,0,1-.222.8,1.611,1.611,0,0,1-.621.531,1.735,1.735,0,0,1,.881.587,1.631,1.631,0,0,1,.284.986,1.722,1.722,0,0,1-.74,1.521A4.047,4.047,0,0,1,3674.083,1387.184Zm-.8-3.973h.842a2.426,2.426,0,0,0,1.073-.195.708.708,0,0,0,.388-.7.693.693,0,0,0-.4-.673,2.377,2.377,0,0,0-1.048-.2c-.183,0-.346,0-.488.009s-.264.016-.364.029Zm0,.939v2c.131.013.275.022.426.028s.29.01.416.01a4.537,4.537,0,0,0,.687-.048,1.822,1.822,0,0,0,.552-.165,1.01,1.01,0,0,0,.369-.318.894.894,0,0,0,.138-.512.8.8,0,0,0-.41-.777,2.409,2.409,0,0,0-1.128-.218Z" transform="translate(-3600.555 -1379.752)" fill="#fff"/>
        <path id="Path_325" data-name="Path 325" d="M3682.435,1382.773a2.851,2.851,0,0,1,.958.142,1.541,1.541,0,0,1,.619.4,1.5,1.5,0,0,1,.332.621,3,3,0,0,1,.1.8v3.006q-.266.057-.8.138a8.352,8.352,0,0,1-1.209.08,3.672,3.672,0,0,1-.816-.084,1.706,1.706,0,0,1-.631-.276,1.285,1.285,0,0,1-.407-.493,1.7,1.7,0,0,1-.147-.749,1.442,1.442,0,0,1,.166-.72,1.366,1.366,0,0,1,.451-.479,1.936,1.936,0,0,1,.658-.266,3.738,3.738,0,0,1,.782-.08,3.583,3.583,0,0,1,.4.024,3.971,3.971,0,0,1,.447.08v-.189a1.517,1.517,0,0,0-.048-.379.774.774,0,0,0-.167-.318.761.761,0,0,0-.313-.213,1.313,1.313,0,0,0-.486-.076,4.27,4.27,0,0,0-.731.057,3.313,3.313,0,0,0-.539.132l-.144-.928a4.565,4.565,0,0,1,.636-.151A5.028,5.028,0,0,1,3682.435,1382.773Zm.093,4.276a4.357,4.357,0,0,0,.807-.057v-1.271a2.28,2.28,0,0,0-.275-.057,2.562,2.562,0,0,0-.4-.028,2.636,2.636,0,0,0-.385.028,1.2,1.2,0,0,0-.35.1.636.636,0,0,0-.252.214.72.72,0,0,0,.162.91A1.307,1.307,0,0,0,3682.528,1387.049Z" transform="translate(-3603.256 -1380.498)" fill="#fff"/>
        <path id="Path_326" data-name="Path 326" d="M3688.163,1383.067a7.564,7.564,0,0,1,.863-.18,7.427,7.427,0,0,1,1.175-.085,2.7,2.7,0,0,1,1.015.166,1.584,1.584,0,0,1,.649.464,1.752,1.752,0,0,1,.342.72,4.074,4.074,0,0,1,.1.924v2.788h-1.148v-2.607a3.809,3.809,0,0,0-.051-.678,1.231,1.231,0,0,0-.17-.455.7.7,0,0,0-.323-.256,1.373,1.373,0,0,0-.5-.08,3.675,3.675,0,0,0-.455.028c-.157.02-.274.035-.351.047v4h-1.147Z" transform="translate(-3605.762 -1380.508)" fill="#fff"/>
        <path id="Path_327" data-name="Path 327" d="M3697.238,1383.739,3699,1381.8h1.355l-2.05,2.209,2.174,2.749h-1.327l-1.914-2.275v2.275h-1.146V1379.6l1.146-.189Z" transform="translate(-3608.332 -1379.407)" fill="#fff"/>
      </g>
      <g id="Group_614" data-name="Group 614" transform="translate(0 0)">
        <path id="Path_328" data-name="Path 328" d="M3575.338,1348.068h-6.787v1.139h15.9a.422.422,0,0,0,.438-.4v-.737h-6.787v-.926h7.508a.419.419,0,0,0,.436-.4v-.792h-7.944v-1.064h-2.768v1.064h-7.944v1.194h7.944Zm2.768,13.512h6.349a.422.422,0,0,0,.438-.4v-.737h-6.787v-.811h4.381a1.48,1.48,0,0,0,1.537-1.415v-.624h-2.747v.552a.363.363,0,0,1-.377.347h-8.782l1.41-1.542h10.058a.422.422,0,0,0,.438-.4v-.7h-14.6v1.1h1.219l-1.117,1.242a.842.842,0,0,0-.217.558.921.921,0,0,0,.956.881h5.074v.811h-6.787v1.14h6.787v.808h-9.1v1.368h20.531a.421.421,0,0,0,.437-.4v-.964h-9.1Zm6.323-11.658h-15.422a.455.455,0,0,0-.457.354v3.024h14.806a1.481,1.481,0,0,0,1.537-1.416v-1.535A.447.447,0,0,0,3584.43,1349.922Zm-1.809,1.987a.364.364,0,0,1-.377.347h-11.419v-1.311h11.8Zm3.051,2.1H3566.7a.446.446,0,0,0-.464.427v2.965h2.277v-2.251h16.042a.362.362,0,0,1,.376.347v1.9h2.279v-1.976A1.481,1.481,0,0,0,3585.672,1354.014Z" transform="translate(-3566.236 -1344.884)" fill="#fff"/>
        <path id="Path_329" data-name="Path 329" d="M3605.932,1349.7l-1.412-3.988a.475.475,0,0,0-.451-.29h-1.891l1.515,4.278Zm11.685-2.861v-.756h-1.791v-1.2h-2.073v1.2h-1.79v1.158h5.185A.439.439,0,0,0,3617.617,1346.835Zm-.448,1.782v-.659h-4.759v1.062h4.291A.439.439,0,0,0,3617.169,1348.617Zm-4.759,2.232h4.291a.439.439,0,0,0,.468-.4v-.66h-4.759Zm-.043,4.706h3.357a1.4,1.4,0,0,0,1.488-1.283v-2.318a.421.421,0,0,0-.448-.387h-3.956a.435.435,0,0,0-.441.322Zm1.641-3.095h1.565v1.87a.343.343,0,0,1-.366.315h-1.2Zm-7.642-1.185a.829.829,0,0,0,.876.771h1.186v3.567h1.551v-1.492l1.631.613v-.976a.421.421,0,0,0-.282-.386l-1.349-.508v-.819h.257a1.522,1.522,0,0,0,1.61-1.415v-.69h-1.875v.754a.375.375,0,0,1-.4.348h-1.091l2.568-3.314a.112.112,0,0,0,.026-.072.143.143,0,0,0-.153-.128h-2.252l1.978-2.548h-1.87a.5.5,0,0,0-.4.185l-1.883,2.427a.7.7,0,0,0-.138.414.829.829,0,0,0,.876.77h.876l-1.615,2.084A.7.7,0,0,0,3606.365,1351.275Zm-1.845.088a.475.475,0,0,0-.451-.289h-1.891l2.246,6.341-2.246,6.341h1.891a.475.475,0,0,0,.451-.29l1.948-5.5a1.569,1.569,0,0,0,0-1.1Zm17.019,8.908h-11.992l.278-.941h10.91a1.4,1.4,0,0,0,1.488-1.282v-1.425a.421.421,0,0,0-.448-.387h-14.186v1.155h12.156v.564a.344.344,0,0,1-.364.315h-11.408a.443.443,0,0,0-.44.289l-.54,1.853a.667.667,0,0,0-.026.187.832.832,0,0,0,.846.771h12.166l-.2.9a.372.372,0,0,1-.378.272h-9.591l.093.81a.523.523,0,0,0,.525.4h10.321a1.486,1.486,0,0,0,1.515-1.108l.262-1.418a.708.708,0,0,0,0-.187A.97.97,0,0,0,3621.539,1360.271Zm-13.836-5.28a10.445,10.445,0,0,0,.254-2.35H3606.7a9.8,9.8,0,0,1-.4,2.68h.929A.466.466,0,0,0,3607.7,1354.991Zm13.949-2.945a1.522,1.522,0,0,0,1.61-1.415v-.69h-1.874v.754a.375.375,0,0,1-.4.348H3619.9l2.568-3.314a.107.107,0,0,0,.026-.072.142.142,0,0,0-.153-.128h-2.25l1.976-2.548H3620.2a.5.5,0,0,0-.4.185l-1.883,2.427a.7.7,0,0,0-.138.414.829.829,0,0,0,.877.77h.875l-1.614,2.084a.7.7,0,0,0-.138.414.829.829,0,0,0,.877.771h1.185v3.567h1.551v-1.492l1.631.613v-.976a.421.421,0,0,0-.282-.386l-1.349-.508v-.819Zm-2.531,2.945a10.578,10.578,0,0,0,.253-2.35h-1.254a9.789,9.789,0,0,1-.4,2.68h.93A.468.468,0,0,0,3619.121,1354.991Z" transform="translate(-3577.888 -1344.884)" fill="#fff"/>
        <path id="Path_330" data-name="Path 330" d="M3649.975,1356.613h6.943a.421.421,0,0,0,.438-.4v-1.156h-7.38v-5.883h-2.437v13.212h-5.053a.363.363,0,0,1-.376-.347v-7.456h-2.354v7.934a1.48,1.48,0,0,0,1.536,1.416h16.4a.422.422,0,0,0,.438-.4v-1.143h-8.149Zm-8-4.91a19.876,19.876,0,0,0,2.96-4.6h7.332l2.635,4.387a1.181,1.181,0,0,0,.977.5h2.336l-3.778-6.068a1.184,1.184,0,0,0-.979-.495h-10.1a.932.932,0,0,0-.84.52,28.481,28.481,0,0,1-4.083,6.043h2.872A.919.919,0,0,0,3641.977,1351.7Z" transform="translate(-3589.641 -1345.058)" fill="#fff"/>
        <path id="Path_331" data-name="Path 331" d="M3678.775,1351.842h2.207a.413.413,0,0,0,.423-.4v-1.007h-6.989v1.409h2.224v2.444h-2.832v1.409h2.832v6.678h-.678a.363.363,0,0,1-.377-.347v-4.784h-1.776v5.125a1.479,1.479,0,0,0,1.538,1.415h6.041a.411.411,0,0,0,.421-.4v-1.006h-3.034V1355.7h2.613a.411.411,0,0,0,.421-.4v-1.008h-3.034Zm.761,9.644h1.373a.386.386,0,0,0,.38-.333l.2-4.512h-1.7Zm.843-16.554h-4.386a.732.732,0,0,0-.721.519,13.256,13.256,0,0,1-2.022,4.107h2.072a.7.7,0,0,0,.6-.281,10.391,10.391,0,0,0,1.334-2.936h1.835l.683,2.709a.663.663,0,0,0,.647.508h1.649l-1.037-4.118A.663.663,0,0,0,3680.379,1344.932Zm4.706,16.981v-7.08h5.612a1.452,1.452,0,0,0,1.485-1.415v-7.729a.437.437,0,0,0-.448-.427h-8.345a.442.442,0,0,0-.441.354v16.558a1.637,1.637,0,0,0,1.675,1.6h1.457a.7.7,0,0,0,.677-.578l.1-.888H3685.5A.4.4,0,0,1,3685.085,1361.913Zm0-11.093h3.654a.412.412,0,0,0,.421-.4v-1.142h-4.075v-2.6h4.963v6.406a.357.357,0,0,1-.365.348h-4.6Zm3.877,8.564,3.288-3.527h-2.436a.991.991,0,0,0-.718.322l-2.58,2.74a.616.616,0,0,0,0,.931l3.41,3.564a.986.986,0,0,0,.716.322h2.43Z" transform="translate(-3600.927 -1344.9)" fill="#fff"/>
      </g>
    </g>
  </g>
</svg>
