<svg width="20" height="20" viewBox="0 0 20 20" fill="none" xmlns="http://www.w3.org/2000/svg">
<path d="M16.1356 8.21947C16.2062 8.21704 16.2766 8.22884 16.3425 8.25417C16.4084 8.27951 16.4686 8.31786 16.5194 8.36694C16.5702 8.41602 16.6106 8.47482 16.6382 8.53984C16.6658 8.60486 16.68 8.67477 16.68 8.74541C16.68 8.81604 16.6658 8.88595 16.6382 8.95098C16.6106 9.016 16.5702 9.0748 16.5194 9.12388C16.4686 9.17296 16.4084 9.21131 16.3425 9.23664C16.2766 9.26198 16.2062 9.27378 16.1356 9.27135H14.6737V10.2088H16.1356C16.2066 10.2054 16.2776 10.2164 16.3443 10.2412C16.4109 10.2659 16.4718 10.304 16.5233 10.353C16.5748 10.4021 16.6158 10.4611 16.6438 10.5264C16.6718 10.5918 16.6862 10.6621 16.6862 10.7332C16.6862 10.8043 16.6718 10.8747 16.6438 10.94C16.6158 11.0054 16.5748 11.0644 16.5233 11.1134C16.4718 11.1624 16.4109 11.2005 16.3443 11.2253C16.2776 11.2501 16.2066 11.2611 16.1356 11.2576H14.15C14.0112 11.2571 13.8782 11.2017 13.7802 11.1034C13.6822 11.0051 13.627 10.872 13.6269 10.7332V6.75822C13.6269 6.46885 13.8612 6.23135 14.15 6.23135H16.1394C16.2743 6.23832 16.4014 6.29695 16.4944 6.39508C16.5873 6.49321 16.6389 6.62332 16.6385 6.75846C16.6381 6.8936 16.5857 7.0234 16.4922 7.12098C16.3987 7.21856 16.2712 7.27643 16.1362 7.2826H14.6744V8.2201L16.1356 8.21947ZM12.9269 10.7326C12.9257 10.8718 12.8697 11.0049 12.7709 11.103C12.6721 11.2011 12.5386 11.2562 12.3994 11.2563C12.317 11.2571 12.2355 11.2388 12.1614 11.2026C12.0873 11.1665 12.0226 11.1136 11.9725 11.0482L9.93812 8.28135V10.732C9.93812 10.871 9.88288 11.0044 9.78454 11.1028C9.6862 11.2011 9.55282 11.2563 9.41375 11.2563C9.27468 11.2563 9.1413 11.2011 9.04296 11.1028C8.94462 11.0044 8.88937 10.871 8.88937 10.732V6.75697C8.88937 6.5326 9.03625 6.33135 9.2475 6.25947C9.29967 6.24104 9.35468 6.23195 9.41 6.2326C9.5725 6.2326 9.7225 6.32072 9.82312 6.44447L11.8737 9.2176V6.75697C11.8737 6.4676 12.1081 6.2301 12.3981 6.2301C12.6881 6.2301 12.9256 6.4676 12.9256 6.75697L12.9269 10.7326ZM8.14188 10.7326C8.14121 10.872 8.08533 11.0055 7.98645 11.1038C7.88758 11.202 7.75379 11.2571 7.61437 11.257C7.476 11.2558 7.34368 11.2001 7.24619 11.1019C7.14869 11.0037 7.09391 10.871 7.09375 10.7326V6.7576C7.09375 6.46822 7.32812 6.23072 7.61812 6.23072C7.9075 6.23072 8.1425 6.46822 8.1425 6.7576L8.14188 10.7326ZM6.0875 11.257H4.09812C3.95886 11.2566 3.82535 11.2014 3.72659 11.1032C3.62782 11.005 3.57178 10.8719 3.57062 10.7326V6.7576C3.57062 6.46822 3.80813 6.23072 4.09812 6.23072C4.38812 6.23072 4.6225 6.46822 4.6225 6.7576V10.2082H6.0875C6.22657 10.2082 6.35995 10.2635 6.45829 10.3618C6.55663 10.4601 6.61188 10.5935 6.61188 10.7326C6.61188 10.8717 6.55663 11.005 6.45829 11.1034C6.35995 11.2017 6.22657 11.257 6.0875 11.257ZM20 8.59322C20 4.1176 15.5106 0.475098 10 0.475098C4.48937 0.475098 0 4.1176 0 8.59322C0 12.6038 3.55813 15.9632 8.3625 16.6013C8.68812 16.6695 9.13062 16.8163 9.245 17.0932C9.34562 17.3432 9.31 17.7307 9.2775 17.9951L9.14062 18.8445C9.10125 19.0951 8.93875 19.8313 10.0131 19.382C11.0906 18.9326 15.7781 15.9838 17.8775 13.5676C19.3131 11.9957 20 10.3807 20 8.59322Z" fill="white"/>
</svg>
