<svg width="66" height="66" viewBox="0 0 66 66" fill="none" xmlns="http://www.w3.org/2000/svg">
<path d="M14.718 17.0279L16.5 24.6179L14.718 32.1749L21.351 36.2669L25.41 42.9L33 41.118L40.59 42.9L44.649 36.2669L51.282 32.1749L49.5 24.6179L51.282 17.0279L44.682 12.9359L40.59 6.30295L33 8.11795L25.443 6.33595L21.318 12.9359L14.718 17.0279ZM33.033 37.9499C29.5321 37.9499 26.1746 36.5592 23.6992 34.0838C21.2237 31.6083 19.833 28.2508 19.833 24.75C19.833 21.2491 21.2237 17.8916 23.6992 15.4161C26.1746 12.9407 29.5321 11.5499 33.033 11.5499C40.293 11.5499 46.2 17.4569 46.2 24.7169C46.2 32.0429 40.293 37.9499 33.033 37.9499ZM32.967 34.65C27.489 34.65 23.1 30.2279 23.1 24.75C23.1 19.3049 27.489 14.8499 32.967 14.8499C38.445 14.8499 42.9 19.3049 42.9 24.75C42.9 30.2279 38.445 34.65 32.967 34.65ZM45.639 38.28L41.415 45.672L34.551 44.121L42.9 63.36L47.52 56.1H55.77L45.639 38.28ZM20.229 38.5109L24.354 45.936L31.383 44.2529L23.1 63.36L18.48 56.1H10.23L20.229 38.5109Z" fill="#715C54"/>
<ellipse cx="33.579" cy="24.3158" rx="10.4211" ry="10.4211" fill="#EA5004"/>
</svg>
