<svg width="73" height="40" viewBox="0 0 73 40" fill="none" xmlns="http://www.w3.org/2000/svg">
<mask id="path-1-inside-1" fill="white">
<path fill-rule="evenodd" clip-rule="evenodd" d="M10.7862 39.4331C10.8027 39.4331 10.8192 39.4332 10.8357 39.4332C10.8522 39.4332 10.8687 39.4331 10.8852 39.4331H55.1147C55.1311 39.4331 55.1476 39.4332 55.1642 39.4332C61.1486 39.4332 65.9999 34.5818 65.9999 28.5974C65.9999 22.808 61.4597 18.0791 55.7457 17.7769C54.4646 13.2207 50.2791 9.88057 45.3134 9.88057C44.0064 9.88057 42.7533 10.112 41.5931 10.5361C38.9734 5.46595 33.6824 2 27.5819 2C18.8773 2 11.8209 9.05653 11.8209 17.7612L11.8209 17.8057C11.4964 17.7765 11.1678 17.7615 10.8357 17.7615C4.85132 17.7615 0 22.6129 0 28.5974C0 34.0805 4.07261 38.6125 9.35789 39.3332V39.4331H10.7862Z"/>
</mask>
<path fill-rule="evenodd" clip-rule="evenodd" d="M10.7862 39.4331C10.8027 39.4331 10.8192 39.4332 10.8357 39.4332C10.8522 39.4332 10.8687 39.4331 10.8852 39.4331H55.1147C55.1311 39.4331 55.1476 39.4332 55.1642 39.4332C61.1486 39.4332 65.9999 34.5818 65.9999 28.5974C65.9999 22.808 61.4597 18.0791 55.7457 17.7769C54.4646 13.2207 50.2791 9.88057 45.3134 9.88057C44.0064 9.88057 42.7533 10.112 41.5931 10.5361C38.9734 5.46595 33.6824 2 27.5819 2C18.8773 2 11.8209 9.05653 11.8209 17.7612L11.8209 17.8057C11.4964 17.7765 11.1678 17.7615 10.8357 17.7615C4.85132 17.7615 0 22.6129 0 28.5974C0 34.0805 4.07261 38.6125 9.35789 39.3332V39.4331H10.7862Z" fill="white"/>
<path d="M10.7862 39.4331L10.7994 36.4331H10.7862V39.4331ZM10.8852 39.4331L10.8852 36.433L10.872 36.4331L10.8852 39.4331ZM55.1147 39.4331L55.1279 36.4331H55.1147V39.4331ZM55.7457 17.7769L52.8577 18.589L53.4398 20.6591L55.5873 20.7727L55.7457 17.7769ZM41.5931 10.5361L38.9279 11.9133L40.141 14.2611L42.6231 13.3538L41.5931 10.5361ZM11.8209 17.7612L8.82086 17.7612L8.82086 17.7654L11.8209 17.7612ZM11.8209 17.8057L11.5516 20.7936L14.8255 21.0887L14.8209 17.8016L11.8209 17.8057ZM9.35789 39.3332H12.3579V36.7146L9.76326 36.3608L9.35789 39.3332ZM9.35789 39.4331H6.35789V42.4331H9.35789V39.4331ZM10.7731 42.433C10.7937 42.4331 10.8146 42.4332 10.8357 42.4332V36.4332C10.8238 36.4332 10.8117 36.4332 10.7994 36.4331L10.7731 42.433ZM10.8357 42.4332C10.8569 42.4332 10.8777 42.4331 10.8984 42.433L10.872 36.4331C10.8597 36.4332 10.8476 36.4332 10.8357 36.4332V42.4332ZM55.1147 36.4331H10.8852V42.4331H55.1147V36.4331ZM55.1015 42.433C55.1221 42.4331 55.143 42.4332 55.1642 42.4332V36.4332C55.1523 36.4332 55.1402 36.4332 55.1279 36.4331L55.1015 42.433ZM55.1642 42.4332C62.8054 42.4332 68.9999 36.2387 68.9999 28.5974H62.9999C62.9999 32.925 59.4917 36.4332 55.1642 36.4332V42.4332ZM68.9999 28.5974C68.9999 21.2042 63.2027 15.1671 55.9041 14.7811L55.5873 20.7727C59.7167 20.9911 62.9999 24.4118 62.9999 28.5974H68.9999ZM58.6337 16.9648C56.9983 11.1488 51.6582 6.88057 45.3134 6.88057V12.8806C48.8999 12.8806 51.9308 15.2927 52.8577 18.589L58.6337 16.9648ZM45.3134 6.88057C43.6499 6.88057 42.0485 7.17549 40.5631 7.71848L42.6231 13.3538C43.4582 13.0485 44.3628 12.8806 45.3134 12.8806V6.88057ZM44.2584 9.15899C41.1438 3.13125 34.8479 -1 27.5819 -1V5C32.5169 5 36.8029 7.80065 38.9279 11.9133L44.2584 9.15899ZM27.5819 -1C17.2204 -1 8.82086 7.3997 8.82086 17.7612H14.8209C14.8209 10.7134 20.5342 5 27.5819 5V-1ZM8.82086 17.7654L8.82092 17.8099L14.8209 17.8016L14.8209 17.757L8.82086 17.7654ZM12.0902 14.8178C11.6763 14.7805 11.2579 14.7615 10.8357 14.7615V20.7615C11.0778 20.7615 11.3165 20.7724 11.5516 20.7936L12.0902 14.8178ZM10.8357 14.7615C3.19444 14.7615 -3 20.9561 -3 28.5974H3C3 24.2697 6.5082 20.7615 10.8357 20.7615V14.7615ZM-3 28.5974C-3 35.601 2.20101 41.385 8.95252 42.3057L9.76326 36.3608C5.9442 35.8399 3 32.56 3 28.5974H-3ZM12.3579 39.4331V39.3332H6.35789V39.4331H12.3579ZM10.7862 36.4331H9.35789V42.4331H10.7862V36.4331Z" fill="#675149" mask="url(#path-1-inside-1)"/>
<path d="M22.5732 20.9524L22.4815 30.1433C22.4632 31.1488 23.05 31.6604 24.0036 31.6604C25.0122 31.6604 25.544 31.1488 25.544 30.1433L25.6357 19.9292C25.6357 19.206 25.3973 18.5885 24.5904 18.3063C24.0403 18.1122 23.1784 18.1651 22.4081 18.5532L20.3909 19.5764C19.8224 19.8587 19.529 20.4761 19.7674 21.0583C20.0058 21.6404 20.5926 21.8697 21.2161 21.5875L22.5732 20.9524Z" fill="#EA5004"/>
<path d="M32.0459 29.9669C32.0092 28.9967 31.239 28.2381 30.2671 28.2381C29.2584 28.2381 28.4515 28.9967 28.4515 29.9669C28.4515 30.8842 29.2584 31.6428 30.2671 31.6781C31.239 31.7134 32.0826 30.8842 32.0459 29.9669Z" fill="#EA5004"/>
<path d="M43.3417 26.6151C43.25 24.5688 41.5996 23.2104 39.3256 23.2104C38.6837 23.2104 38.1336 23.281 37.6384 23.4398C37.6751 22.6283 37.8035 21.464 37.8585 20.6702C37.8585 20.5467 37.9685 20.4585 38.0969 20.4585L41.9113 20.4585C42.5715 20.4585 42.9566 20.0704 42.9566 19.4706C42.9566 18.8708 42.5715 18.4474 41.9113 18.4474L36.3914 18.4474C35.3828 18.4474 34.8143 18.9413 34.7593 19.841C34.6493 21.2876 34.5576 22.7518 34.5209 24.1983C34.5025 24.9922 34.7593 25.3979 35.5112 25.6272C36.1897 25.8389 36.8866 25.6449 37.3267 25.3979C37.6201 25.2391 38.0602 25.1509 38.537 25.1509C39.6373 25.1509 40.2242 25.8037 40.2425 27.0738C40.2608 28.6086 39.2889 29.667 37.4734 29.667C36.7765 29.667 36.3181 29.3848 35.9513 29.2789C35.3645 29.1025 34.8143 29.1907 34.5392 29.7199C34.2458 30.3021 34.5025 30.9019 35.1261 31.2371C35.7862 31.5899 36.7949 31.7839 37.6934 31.7663C41.4345 31.6957 43.4884 29.9846 43.3417 26.6151Z" fill="#EA5004"/>
<path d="M44.845 31.424C45.0797 31.6005 45.3145 31.5722 45.4978 31.3394L49.1215 26.7386C49.3123 26.4987 49.2756 26.28 49.0335 26.1177C48.7768 25.9413 48.5347 25.9907 48.3587 26.2165L44.7643 30.789C44.5809 31.0218 44.6029 31.2406 44.845 31.424ZM45.5639 28.7144C46.2534 28.7144 46.7889 28.2416 46.7889 27.3666C46.7889 26.5693 46.1874 26.0965 45.6005 26.0965C45.0284 26.0965 44.3535 26.5622 44.3535 27.409C44.3535 28.2557 44.9917 28.7144 45.5639 28.7144ZM45.5785 28.0582C45.4025 28.0582 45.2851 27.8465 45.2851 27.4019C45.2851 26.9574 45.4098 26.7527 45.5785 26.7527C45.7839 26.7527 45.8793 26.9785 45.8719 27.4019C45.8719 27.8253 45.7839 28.0582 45.5785 28.0582ZM48.2266 31.5228C48.9235 31.5228 49.4516 31.0501 49.4516 30.1751C49.4516 29.3777 48.8501 28.9049 48.2633 28.9049C47.6911 28.9049 47.0163 29.3706 47.0163 30.2174C47.0163 31.0642 47.6545 31.5228 48.2266 31.5228ZM48.2413 30.8595C48.0579 30.8666 47.9479 30.6549 47.9479 30.2104C47.9479 29.7658 48.0726 29.5541 48.2413 29.5541C48.4467 29.5541 48.542 29.787 48.542 30.2104C48.5274 30.6337 48.4393 30.8666 48.2413 30.8595Z" fill="#EA5004"/>
<circle cx="64" cy="9" r="8.25" stroke="#675149" stroke-width="1.5"/>
<path d="M64.8574 10.1299C64.8574 9.86296 64.7826 9.65137 64.6328 9.49512C64.4863 9.33561 64.2357 9.18913 63.8809 9.05566C63.526 8.9222 63.2201 8.79036 62.9629 8.66016C62.7057 8.52669 62.4844 8.37533 62.2988 8.20605C62.1165 8.03353 61.9733 7.83171 61.8691 7.60059C61.7682 7.36947 61.7178 7.0944 61.7178 6.77539C61.7178 6.22526 61.8936 5.77441 62.2451 5.42285C62.5967 5.07129 63.0638 4.86621 63.6465 4.80762V3.7627H64.4277V4.82227C65.0039 4.90365 65.4548 5.14453 65.7803 5.54492C66.1058 5.94206 66.2686 6.45801 66.2686 7.09277H64.8574C64.8574 6.70215 64.776 6.41081 64.6133 6.21875C64.4538 6.02344 64.2389 5.92578 63.9688 5.92578C63.7018 5.92578 63.4951 6.00228 63.3486 6.15527C63.2021 6.30501 63.1289 6.51335 63.1289 6.78027C63.1289 7.02767 63.2005 7.22624 63.3438 7.37598C63.487 7.52572 63.7523 7.67871 64.1396 7.83496C64.5303 7.99121 64.8509 8.13932 65.1016 8.2793C65.3522 8.41602 65.5638 8.57227 65.7363 8.74805C65.9089 8.92057 66.0407 9.11914 66.1318 9.34375C66.223 9.5651 66.2686 9.82389 66.2686 10.1201C66.2686 10.6735 66.096 11.1227 65.751 11.4678C65.4059 11.8128 64.9307 12.0163 64.3252 12.0781V13.0498H63.5488V12.083C62.8815 12.0114 62.3639 11.7754 61.9961 11.375C61.6315 10.9714 61.4492 10.4359 61.4492 9.76855H62.8604C62.8604 10.1559 62.9515 10.4538 63.1338 10.6621C63.3193 10.8672 63.5846 10.9697 63.9297 10.9697C64.2161 10.9697 64.4424 10.8949 64.6084 10.7451C64.7744 10.5921 64.8574 10.387 64.8574 10.1299Z" fill="#675149"/>
</svg>
