<svg width="67" height="53" viewBox="0 0 67 53" fill="none" xmlns="http://www.w3.org/2000/svg">
<path fill-rule="evenodd" clip-rule="evenodd" d="M59.7881 13.5625H17.0381C16.0932 13.5625 15.1871 13.9378 14.519 14.6059C13.8509 15.274 13.4756 16.1802 13.4756 17.125V45.625C13.4756 46.5698 13.8509 47.476 14.519 48.1441C15.1871 48.8122 16.0932 49.1875 17.0381 49.1875H59.7881C60.7329 49.1875 61.639 48.8122 62.3071 48.1441C62.9752 47.476 63.3506 46.5698 63.3506 45.625V17.125C63.3506 16.1802 62.9752 15.274 62.3071 14.6059C61.639 13.9378 60.7329 13.5625 59.7881 13.5625ZM17.0381 10C15.1484 10 13.3361 10.7507 11.9999 12.0869C10.6637 13.4231 9.91307 15.2353 9.91307 17.125V45.625C9.91307 47.5147 10.6637 49.3269 11.9999 50.6631C13.3361 51.9993 15.1484 52.75 17.0381 52.75H59.7881C61.6777 52.75 63.49 51.9993 64.8262 50.6631C66.1624 49.3269 66.9131 47.5147 66.9131 45.625V17.125C66.9131 15.2353 66.1624 13.4231 64.8262 12.0869C63.49 10.7507 61.6777 10 59.7881 10H17.0381Z" fill="#EA5004"/>
<rect width="62" height="47" fill="white"/>
<path fill-rule="evenodd" clip-rule="evenodd" d="M51.875 4.5625H9.125C8.18017 4.5625 7.27403 4.93783 6.60593 5.60593C5.93783 6.27403 5.5625 7.18017 5.5625 8.125V36.625C5.5625 37.5698 5.93783 38.476 6.60593 39.1441C7.27403 39.8122 8.18017 40.1875 9.125 40.1875H51.875C52.8198 40.1875 53.726 39.8122 54.3941 39.1441C55.0622 38.476 55.4375 37.5698 55.4375 36.625V8.125C55.4375 7.18017 55.0622 6.27403 54.3941 5.60593C53.726 4.93783 52.8198 4.5625 51.875 4.5625ZM9.125 1C7.23533 1 5.42306 1.75067 4.08686 3.08686C2.75067 4.42306 2 6.23533 2 8.125L2 36.625C2 38.5147 2.75067 40.3269 4.08686 41.6631C5.42306 42.9993 7.23533 43.75 9.125 43.75H51.875C53.7647 43.75 55.5769 42.9993 56.9131 41.6631C58.2493 40.3269 59 38.5147 59 36.625V8.125C59 6.23533 58.2493 4.42306 56.9131 3.08686C55.5769 1.75067 53.7647 1 51.875 1H9.125Z" fill="#5B5555"/>
<path d="M9.125 13.4688C9.125 12.9963 9.31267 12.5433 9.64672 12.2092C9.98077 11.8752 10.4338 11.6875 10.9062 11.6875H18.0312C18.5037 11.6875 18.9567 11.8752 19.2908 12.2092C19.6248 12.5433 19.8125 12.9963 19.8125 13.4688V17.0312C19.8125 17.5037 19.6248 17.9567 19.2908 18.2908C18.9567 18.6248 18.5037 18.8125 18.0312 18.8125H10.9062C10.4338 18.8125 9.98077 18.6248 9.64672 18.2908C9.31267 17.9567 9.125 17.5037 9.125 17.0312V13.4688Z" fill="#5B5555"/>
<path fill-rule="evenodd" clip-rule="evenodd" d="M9.125 24.1562C9.125 23.6838 9.31267 23.2308 9.64672 22.8967C9.98077 22.5627 10.4338 22.375 10.9062 22.375H18.7188C19.1912 22.375 19.6442 22.5627 19.9783 22.8967C20.3123 23.2308 20.5 23.6838 20.5 24.1562C20.5 24.6287 20.3123 25.0817 19.9783 25.4158C19.6442 25.7498 19.1912 25.9375 18.7188 25.9375H10.9062C10.4338 25.9375 9.98077 25.7498 9.64672 25.4158C9.31267 25.0817 9.125 24.6287 9.125 24.1562ZM9.125 31.2812C9.125 30.8088 9.31267 30.3558 9.64672 30.0217C9.98077 29.6877 10.4338 29.5 10.9062 29.5H14.4688C14.9412 29.5 15.3942 29.6877 15.7283 30.0217C16.0623 30.3558 16.25 30.8088 16.25 31.2812C16.25 31.7537 16.0623 32.2067 15.7283 32.5408C15.3942 32.8748 14.9412 33.0625 14.4688 33.0625H10.9062C10.4338 33.0625 9.98077 32.8748 9.64672 32.5408C9.31267 32.2067 9.125 31.7537 9.125 31.2812ZM19.8125 31.2812C19.8125 30.8088 20.0002 30.3558 20.3342 30.0217C20.6683 29.6877 21.1213 29.5 21.5938 29.5H25.1562C25.6287 29.5 26.0817 29.6877 26.4158 30.0217C26.7498 30.3558 26.9375 30.8088 26.9375 31.2812C26.9375 31.7537 26.7498 32.2067 26.4158 32.5408C26.0817 32.8748 25.6287 33.0625 25.1562 33.0625H21.5938C21.1213 33.0625 20.6683 32.8748 20.3342 32.5408C20.0002 32.2067 19.8125 31.7537 19.8125 31.2812ZM30.5 31.2812C30.5 30.8088 30.6877 30.3558 31.0217 30.0217C31.3558 29.6877 31.8088 29.5 32.2812 29.5H35.8438C36.3162 29.5 36.7692 29.6877 37.1033 30.0217C37.4373 30.3558 37.625 30.8088 37.625 31.2812C37.625 31.7537 37.4373 32.2067 37.1033 32.5408C36.7692 32.8748 36.3162 33.0625 35.8438 33.0625H32.2812C31.8088 33.0625 31.3558 32.8748 31.0217 32.5408C30.6877 32.2067 30.5 31.7537 30.5 31.2812ZM41.1875 31.2812C41.1875 30.8088 41.3752 30.3558 41.7092 30.0217C42.0433 29.6877 42.4963 29.5 42.9688 29.5H46.5312C47.0037 29.5 47.4567 29.6877 47.7908 30.0217C48.1248 30.3558 48.3125 30.8088 48.3125 31.2812C48.3125 31.7537 48.1248 32.2067 47.7908 32.5408C47.4567 32.8748 47.0037 33.0625 46.5312 33.0625H42.9688C42.4963 33.0625 42.0433 32.8748 41.7092 32.5408C41.3752 32.2067 41.1875 31.7537 41.1875 31.2812Z" fill="#5B5555"/>
<path d="M23.656 23H25.54L26.26 20.732H29.62L30.364 23H32.32L29.08 14.084H26.836L23.656 23ZM26.656 19.352L26.992 18.356C27.292 17.432 27.628 16.4 27.916 15.428H27.964C28.264 16.376 28.612 17.42 28.912 18.356L29.248 19.352H26.656ZM35.14 23H36.928V15.56H39.916V14.084H32.164V15.56H35.14V23ZM40.576 23H42.16V19.292C42.16 18.44 42.052 17.18 41.956 16.328H42.004L42.856 18.464L44.512 22.196H45.532L47.164 18.464L48.028 16.328H48.088C47.992 17.18 47.872 18.44 47.872 19.292V23H49.492V14.084H47.524L45.76 18.284C45.544 18.824 45.316 19.412 45.088 19.988H45.028C44.812 19.412 44.572 18.824 44.368 18.284L42.532 14.084H40.576V23Z" fill="#5B5555"/>
</svg>
