<svg width="55" height="48" viewBox="0 0 55 48" fill="none" xmlns="http://www.w3.org/2000/svg">
<path d="M32.3697 34.2913L32.0143 32.3827L25.7509 33.549C25.5829 33.5432 25.4766 33.4703 25.432 33.3302L24.8564 30.2388L31.7112 28.9625L30.7352 23.7205C30.4682 22.2868 29.8623 21.4725 28.9174 21.2776C28.4148 21.1673 27.7512 21.1888 26.9269 21.3423L24.1581 21.8579C22.7064 22.1282 21.8413 22.6601 21.5626 23.4537C21.413 23.9451 21.415 24.603 21.5685 25.4274L22.95 32.8467C23.2336 34.37 23.9392 35.2214 25.0666 35.4009C25.5984 35.4687 26.2407 35.4326 26.9934 35.2924L32.3697 34.2913ZM23.7252 24.1636C23.731 23.9956 23.8039 23.8893 23.9439 23.8447L27.9493 23.0989C28.1173 23.1047 28.2236 23.1776 28.2682 23.3177L29.084 27.6994L24.541 28.5453L23.7252 24.1636Z" fill="#EA5004"/>
<path d="M9 23C9.28 22.6613 9.61231 22.3277 10 22C9.60615 22.3491 9.27692 22.6827 9 23Z" fill="black"/>
<path d="M27 10H19" stroke="#5B5555" stroke-width="3.5" stroke-miterlimit="10" stroke-linecap="round"/>
<path d="M43.9995 28.0255C43.9995 37.9494 35.9396 46 26.0041 46C16.0599 46 8 37.9494 8 28.0255V27.9083C8 27.6654 8.00869 27.4311 8.02606 27.1882C8.02606 27.0892 8.03562 26.9808 8.04517 26.8645C8.05386 26.7109 8.07123 26.54 8.09035 26.3595C8.11641 26.1339 8.14421 25.8823 8.18938 25.6124C8.20675 25.477 8.23455 25.3425 8.25193 25.1976C8.41852 24.2314 8.65071 23.2776 8.9469 22.3429C9.00416 22.165 9.06411 21.9879 9.12672 21.8118C9.3161 21.3086 9.52372 20.7854 9.76696 20.2543C9.79389 20.191 9.82082 20.1285 9.85731 20.0738C10.4428 18.8313 12.1924 16.4902 12.1924 16.4902C13.1942 15.2911 14.349 14.2284 15.6273 13.3292C15.7263 13.2571 15.8341 13.1851 15.934 13.1218C15.96 13.1044 15.9965 13.0767 16.0234 13.0593C18.5931 11.159 17.7635 9.46614 16.7627 8.457C16.2546 8.27001 15.8147 7.93435 15.5005 7.49384C15.4831 7.48517 15.4744 7.47649 15.4744 7.47649C15.1224 6.99877 14.9327 6.42102 14.9332 5.82785V5.8105C14.9355 5.06596 15.2326 4.35256 15.7596 3.82601C16.2866 3.29946 17.0007 3.00252 17.7461 3H34.1908C34.9359 3.00274 35.6497 3.29967 36.1765 3.82601C36.7033 4.35234 37.0003 5.06539 37.0029 5.80963V5.82698C37.0029 6.46735 36.777 7.0704 36.4078 7.54764C36.1159 7.92709 35.7307 8.22478 35.2898 8.41188H35.2811C34.2621 9.42102 33.3699 11.1321 35.976 13.0584L36.0655 13.1218C36.1646 13.1851 36.2731 13.2571 36.3722 13.3292C37.6505 14.2284 38.8053 15.2911 39.8071 16.4902C40.7281 17.5857 41.5122 18.7891 42.1422 20.0738C42.1778 20.1276 42.2056 20.191 42.2325 20.2543C42.4674 20.7603 42.6779 21.2771 42.8632 21.8032C42.9535 22.0461 43.0257 22.2804 43.0978 22.506C43.0978 22.5147 43.1064 22.5234 43.1064 22.532C43.1699 22.749 43.2333 22.9737 43.2958 23.1898C43.3045 23.2253 43.3228 23.2705 43.3323 23.3069C43.3584 23.4058 43.3862 23.4961 43.4044 23.595C43.44 23.7303 43.4765 23.8648 43.5034 24.0089C43.5304 24.1442 43.5669 24.2701 43.5938 24.4054C43.6199 24.513 43.6477 24.631 43.6659 24.7473C43.6659 24.756 43.6659 24.7742 43.6746 24.7837C43.7198 25.0354 43.7649 25.2697 43.8005 25.4953C43.8457 25.8102 43.8822 26.0983 43.9091 26.3595C43.9265 26.54 43.9448 26.7109 43.9543 26.8636C44.0082 27.5934 43.9995 28.0264 43.9995 28.0264V28.0255Z" stroke="#675149" stroke-width="3.5" stroke-miterlimit="10" stroke-linecap="round" stroke-linejoin="round"/>
<path d="M7 14C7 14 2 14 2 19" stroke="#5B5555" stroke-width="3.5" stroke-miterlimit="10" stroke-linecap="round" stroke-linejoin="round"/>
<path d="M52.6535 14.0988C52.6535 14.0988 51.0986 9.34668 46.3465 10.9016" stroke="#5B5555" stroke-width="3.5" stroke-miterlimit="10" stroke-linecap="round" stroke-linejoin="round"/>
<path d="M9 6C9 6 5 6 5 2" stroke="#5B5555" stroke-width="3.5" stroke-miterlimit="10" stroke-linecap="round" stroke-linejoin="round"/>
</svg>
