<svg width="71" height="43" viewBox="0 0 71 43" fill="none" xmlns="http://www.w3.org/2000/svg">
<path d="M9.2 31.5H48.8C49.3835 31.5 49.9431 31.7371 50.3556 32.159C50.7682 32.581 51 33.1533 51 33.75C51 34.3467 50.7682 34.919 50.3556 35.341C49.9431 35.7629 49.3835 36 48.8 36H9.2C8.61652 36 8.05694 35.7629 7.64437 35.341C7.23178 34.919 7 34.3467 7 33.75C7 33.1533 7.23178 32.581 7.64437 32.159C8.05694 31.7371 8.61652 31.5 9.2 31.5ZM11.4 0H46.6C47.767 0 48.8861 0.474106 49.7113 1.31802C50.5364 2.16193 51 3.30653 51 4.5V27C51 27.5967 50.7682 28.169 50.3556 28.591C49.9431 29.0129 49.3835 29.25 48.8 29.25H9.2C8.61652 29.25 8.05694 29.0129 7.64437 28.591C7.23178 28.169 7 27.5967 7 27V4.5C7 3.30653 7.46357 2.16193 8.28873 1.31802C9.11389 0.474106 10.233 0 11.4 0ZM46.6 24.75V4.5H11.4V24.75H46.6Z" fill="#5B5555"/>
<path d="M52.5 24.4286C57.0518 24.4286 60.6936 20.7487 60.6936 16.2143C60.6936 11.6799 57.0518 8 52.5 8C47.9569 8 44.2857 11.6711 44.2857 16.2143C44.2857 20.7574 47.9569 24.4286 52.5 24.4286ZM52.5 24.5714C49.837 24.5714 45.9594 25.2242 42.697 26.5297C41.0642 27.1831 39.4596 28.0492 38.231 29.1822C36.9888 30.3279 36 31.8799 36 33.8214V36.9286C36 39.1724 37.8276 41 40.0714 41H64.9286C67.1724 41 69 39.1724 69 36.9286V33.8214C69 31.8799 68.0112 30.3279 66.769 29.1822C65.5404 28.0492 63.9358 27.1831 62.303 26.5297C59.0406 25.2242 55.163 24.5714 52.5 24.5714Z" fill="white" stroke="white" stroke-width="4"/>
<path d="M52.5 22.4286C55.9386 22.4286 58.6936 19.6529 58.6936 16.2143C58.6936 12.7757 55.9386 10 52.5 10C49.0614 10 46.2857 12.7757 46.2857 16.2143C46.2857 19.6529 49.0614 22.4286 52.5 22.4286ZM52.5 26.5714C47.6736 26.5714 38 28.995 38 33.8214V36.9286C38 38.0679 38.9321 39 40.0714 39H64.9286C66.0679 39 67 38.0679 67 36.9286V33.8214C67 28.995 57.3264 26.5714 52.5 26.5714Z" fill="#5B5555"/>
<path d="M16 10L9 17L2 10" stroke="#EA5004" stroke-width="4" stroke-linecap="round" stroke-linejoin="round"/>
</svg>
