<svg width="78" height="49" viewBox="0 0 78 49" fill="none" xmlns="http://www.w3.org/2000/svg">
<path d="M74.8273 8.43164H62.1377V11.6041H74.8273V44.9144H62.1377V48.0868H77.9998V11.6041C77.9998 10.7627 77.6655 9.95576 77.0706 9.36082C76.4756 8.76588 75.6687 8.43164 74.8273 8.43164Z" fill="#5B5555"/>
<path d="M57.1889 0.5H35.3628C34.4709 0.5 33.6156 0.854289 32.9849 1.48493C32.3543 2.11557 32 2.9709 32 3.86276V48.0862H60.5517V3.86276C60.5517 2.9709 60.1974 2.11557 59.5668 1.48493C58.9361 0.854289 58.0808 0.5 57.1889 0.5ZM57.3793 44.9138H52.6207V40.1551H39.931V44.9138H35.1724V3.86276C35.1724 3.83776 35.1773 3.81301 35.1869 3.78991C35.1965 3.76682 35.2105 3.74584 35.2282 3.72816C35.2458 3.71049 35.2668 3.69647 35.2899 3.6869C35.313 3.67733 35.3378 3.67241 35.3628 3.67241H57.1889C57.2139 3.67241 57.2387 3.67733 57.2618 3.6869C57.2849 3.69647 57.3059 3.71049 57.3235 3.72816C57.3412 3.74584 57.3552 3.76682 57.3648 3.78991C57.3744 3.81301 57.3793 3.83776 57.3793 3.86276V44.9138Z" fill="#5B5555"/>
<path d="M38.3447 8.43164H41.5171V11.6041H38.3447V8.43164Z" fill="#5B5555"/>
<path d="M44.6895 8.43164H47.8619V11.6041H44.6895V8.43164Z" fill="#EA5004"/>
<path d="M51.0342 8.43164H54.2066V11.6041H51.0342V8.43164Z" fill="#5B5555"/>
<path d="M44.6895 16.3623H47.8619V19.5347H44.6895V16.3623Z" fill="#5B5555"/>
<path d="M51.0342 16.3623H54.2066V19.5347H51.0342V16.3623Z" fill="#EA5004"/>
<path d="M38 16.3623H41.1724V19.5347H38V16.3623Z" fill="#EA5004"/>
<path d="M38.3447 24.2935H41.5171V27.4659H38.3447V24.2935Z" fill="#5B5555"/>
<path d="M44.6895 24.2935H47.8619V27.4659H44.6895V24.2935Z" fill="#EA5004"/>
<path d="M51.0342 24.2935H54.2066V27.4659H51.0342V24.2935Z" fill="#5B5555"/>
<path d="M38.3447 32.2241H41.5171V35.3965H38.3447V32.2241Z" fill="#EA5004"/>
<path d="M44.6895 32.2241H47.8619V35.3965H44.6895V32.2241Z" fill="#5B5555"/>
<path d="M51.0342 32.2241H54.2066V35.3965H51.0342V32.2241Z" fill="#EA5004"/>
<path d="M62.1377 16.3623H65.3101V19.5347H62.1377V16.3623Z" fill="#5B5555"/>
<path d="M68.4829 16.3623H71.6553V19.5347H68.4829V16.3623Z" fill="#EA5004"/>
<path d="M62.1377 24.2935H65.3101V27.4659H62.1377V24.2935Z" fill="#EA5004"/>
<path d="M68.4829 24.2935H71.6553V27.4659H68.4829V24.2935Z" fill="#5B5555"/>
<path d="M62.1377 32.2241H65.3101V35.3965H62.1377V32.2241Z" fill="#5B5555"/>
<path d="M68.4829 32.2241H71.6553V35.3965H68.4829V32.2241Z" fill="#EA5004"/>
<path d="M7 42.5C7 41.1193 8.11929 40 9.5 40H28V45H9.5C8.11929 45 7 43.8807 7 42.5V42.5Z" fill="#5B5555"/>
<path d="M28 9H9C7.89543 9 7 9.89543 7 11V35.5C7 36.6046 7.89543 37.5 9 37.5H28V33H11.5V13.5H28V9Z" fill="#5B5555"/>
<path d="M16 18L9 25L2 18" stroke="#EA5004" stroke-width="4" stroke-linecap="round" stroke-linejoin="round"/>
</svg>
