<svg width="95" height="69" viewBox="0 0 95 69" fill="none" xmlns="http://www.w3.org/2000/svg">
<circle cx="9" cy="51" r="8.25" stroke="#5B5555" stroke-width="1.5"/>
<circle cx="87" cy="52" r="7.25" stroke="#5B5555" stroke-width="1.5"/>
<path d="M86.7539 52.1875L86.7832 52.8662C86.7832 53.2666 86.6823 53.5856 86.4805 53.8232H89.6689V55H84.498V53.8232H84.9473C85.1816 53.7646 85.2988 53.4733 85.2988 52.9492L85.2744 52.1875H84.4834V51.0352H85.2354L85.2012 49.9268C85.2012 49.2692 85.4014 48.75 85.8018 48.3691C86.2054 47.9883 86.7441 47.7979 87.418 47.7979C88.1081 47.7979 88.6501 47.9818 89.0439 48.3496C89.4378 48.7142 89.6348 49.209 89.6348 49.834H88.2334C88.2334 49.5573 88.1618 49.3457 88.0186 49.1992C87.8786 49.0527 87.6768 48.9795 87.4131 48.9795C87.1982 48.9795 87.0192 49.0592 86.876 49.2188C86.736 49.3783 86.666 49.6143 86.666 49.9268L86.71 51.0352H88.2188V52.1875H86.7539Z" fill="#5B5555"/>
<path d="M9.85742 52.1299C9.85742 51.863 9.78255 51.6514 9.63281 51.4951C9.48633 51.3356 9.23568 51.1891 8.88086 51.0557C8.52604 50.9222 8.22005 50.7904 7.96289 50.6602C7.70573 50.5267 7.48438 50.3753 7.29883 50.2061C7.11654 50.0335 6.97331 49.8317 6.86914 49.6006C6.76823 49.3695 6.71777 49.0944 6.71777 48.7754C6.71777 48.2253 6.89355 47.7744 7.24512 47.4229C7.59668 47.0713 8.0638 46.8662 8.64648 46.8076V45.7627H9.42773V46.8223C10.0039 46.9036 10.4548 47.1445 10.7803 47.5449C11.1058 47.9421 11.2686 48.458 11.2686 49.0928H9.85742C9.85742 48.7021 9.77604 48.4108 9.61328 48.2188C9.45378 48.0234 9.23893 47.9258 8.96875 47.9258C8.70182 47.9258 8.49512 48.0023 8.34863 48.1553C8.20215 48.305 8.12891 48.5133 8.12891 48.7803C8.12891 49.0277 8.20052 49.2262 8.34375 49.376C8.48698 49.5257 8.75228 49.6787 9.13965 49.835C9.53027 49.9912 9.85091 50.1393 10.1016 50.2793C10.3522 50.416 10.5638 50.5723 10.7363 50.748C10.9089 50.9206 11.0407 51.1191 11.1318 51.3438C11.223 51.5651 11.2686 51.8239 11.2686 52.1201C11.2686 52.6735 11.096 53.1227 10.751 53.4678C10.4059 53.8128 9.93066 54.0163 9.3252 54.0781V55.0498H8.54883V54.083C7.88151 54.0114 7.36393 53.7754 6.99609 53.375C6.63151 52.9714 6.44922 52.4359 6.44922 51.7686H7.86035C7.86035 52.1559 7.9515 52.4538 8.13379 52.6621C8.31934 52.8672 8.58464 52.9697 8.92969 52.9697C9.21615 52.9697 9.44238 52.8949 9.6084 52.7451C9.77441 52.5921 9.85742 52.387 9.85742 52.1299Z" fill="#5B5555"/>
<path d="M28 35.2041C28 34.2077 28.8078 33.3999 29.8042 33.3999C30.8006 33.3999 31.6084 34.2077 31.6084 35.2041V51.442C31.6084 52.4384 30.8006 53.2462 29.8042 53.2462C28.8078 53.2462 28 52.4384 28 51.442V35.2041Z" fill="#EA5004"/>
<path d="M44.2378 35.2041C44.2378 34.2077 45.0456 33.3999 46.042 33.3999C47.0384 33.3999 47.8462 34.2077 47.8462 35.2041V51.442C47.8462 52.4384 47.0384 53.2462 46.042 53.2462C45.0456 53.2462 44.2378 52.4384 44.2378 51.442V35.2041Z" fill="#EA5004"/>
<path d="M60.4761 35.2041C60.4761 34.2077 61.2838 33.3999 62.2803 33.3999C63.2767 33.3999 64.0845 34.2077 64.0845 35.2041V51.442C64.0845 52.4384 63.2767 53.2462 62.2803 53.2462C61.2838 53.2462 60.4761 52.4384 60.4761 51.442V35.2041Z" fill="#EA5004"/>
<path d="M43.4497 14.634C44.8387 13.9526 46.4649 13.9526 47.8539 14.634L70.5664 25.776C72.4686 26.7091 71.8043 29.5716 69.6856 29.5716H21.618C19.4993 29.5716 18.835 26.7091 20.7371 25.776L43.4497 14.634Z" fill="#5B5555"/>
<rect x="22" y="57.9106" width="48.0536" height="7.39286" rx="3" fill="#5B5555"/>
<rect x="22" y="51.75" width="48.0536" height="3.69643" rx="1" fill="#EA5004"/>
<circle cx="74" cy="28" r="7.25" fill="white" stroke="#5B5555" stroke-width="1.5"/>
<path d="M74.9287 28.7324H73.4565C73.4712 29.1631 73.5854 29.4868 73.7993 29.7036C74.0161 29.9204 74.3516 30.0288 74.8057 30.0288C75.1133 30.0288 75.3916 29.9834 75.6406 29.8926L75.7988 30.9561C75.4355 31.041 75.0605 31.0835 74.6738 31.0835C73.9033 31.0835 73.2925 30.877 72.8413 30.4639C72.3931 30.0479 72.1572 29.4707 72.1338 28.7324H71.3911V28.0645H72.1338V27.5195H71.3911V26.8516H72.1426C72.1924 26.1133 72.4487 25.5405 72.9116 25.1333C73.3774 24.7231 73.9941 24.5181 74.7617 24.5181C75.0693 24.5181 75.415 24.5635 75.7988 24.6543L75.6406 25.7222C75.3652 25.6284 75.0942 25.5815 74.8276 25.5815C73.9985 25.5815 73.5444 26.0049 73.4653 26.8516H74.9287V27.5195H73.4565V28.0645H74.9287V28.7324Z" fill="#5B5555"/>
</svg>
