<svg width="55" height="44" viewBox="0 0 55 44" fill="none" xmlns="http://www.w3.org/2000/svg">
<path d="M4.04 28.1538L2.79916 26.9198H2.79916L4.04 28.1538ZM22.4 28.1538L23.6408 26.9198L22.4 28.1538ZM45.86 42H44.11V43.75H45.86V42ZM45.86 15.8462V14.0962H44.11V15.8462H45.86ZM14.97 18.9231V5H11.47V18.9231H14.97ZM37.99 5V39H41.49V5H37.99ZM3.24084 31.4391L5.28084 29.3879L2.79916 26.9198L0.759155 28.9711L3.24084 31.4391ZM5.28084 29.3879L14.4608 20.1571L11.9792 17.6891L2.79916 26.9198L5.28084 29.3879ZM5.79 40V28.1538H2.29V40H5.79ZM11.9792 20.1571L21.1592 29.3879L23.6408 26.9198L14.4608 17.6891L11.9792 20.1571ZM21.1592 29.3879L23.1992 31.4391L25.6808 28.9711L23.6408 26.9198L21.1592 29.3879ZM36.74 40.25H22.4V43.75H36.74V40.25ZM22.4 40.25H6.04V43.75H22.4V40.25ZM20.65 28.1538V42H24.15V28.1538H20.65ZM47.61 42V15.8462H44.11V42H47.61ZM45.86 17.5962H51V14.0962H45.86V17.5962ZM51.25 17.8462V40H54.75V17.8462H51.25ZM51 40.25H45.86V43.75H51V40.25ZM16.22 3.75H26.48V0.25H16.22V3.75ZM26.48 3.75H36.74V0.25H26.48V3.75ZM51.25 40C51.25 40.1381 51.1381 40.25 51 40.25V43.75C53.0711 43.75 54.75 42.0711 54.75 40H51.25ZM51 17.5962C51.1381 17.5962 51.25 17.7081 51.25 17.8462H54.75C54.75 15.7751 53.0711 14.0962 51 14.0962V17.5962ZM2.29 40C2.29 42.0711 3.96894 43.75 6.04 43.75V40.25C5.90193 40.25 5.79 40.1381 5.79 40H2.29ZM37.99 39C37.99 39.6904 37.4304 40.25 36.74 40.25V43.75C39.3633 43.75 41.49 41.6234 41.49 39H37.99ZM41.49 5C41.49 2.37665 39.3634 0.25 36.74 0.25V3.75C37.4304 3.75 37.99 4.30964 37.99 5H41.49ZM14.97 5C14.97 4.30964 15.5296 3.75 16.22 3.75V0.25C13.5966 0.25 11.47 2.37665 11.47 5H14.97Z" fill="#5B5555"/>
<path d="M26 11.5V15.5C26 15.7761 26.2239 16 26.5 16H30" stroke="#EA5004" stroke-width="3" stroke-linecap="round" stroke-linejoin="round"/>
<rect x="11" y="30" width="4" height="4" fill="#EA5004"/>
</svg>
