<svg width="150" height="150" viewBox="0 0 150 150" fill="none" xmlns="http://www.w3.org/2000/svg">
<g clip-path="url(#clip0)">
<g filter="url(#filter0_d)">
<path fill-rule="evenodd" clip-rule="evenodd" d="M111.995 30.4977C112.387 29.7342 113.019 28.9805 114 28C117.087 24.9126 119.764 24.0601 124 23C127.793 22.0507 129.5 22 134 22.5C136.264 22.7516 137.54 23.52 139.355 24.6133L139.356 24.6139L139.359 24.6158C139.565 24.7397 139.778 24.8679 140 25C141.489 25.8856 142.28 27.0341 143.182 28.343L143.183 28.3435C143.44 28.7167 143.706 29.103 144 29.5C145.252 31.1901 146 34.397 146 36.5C146 40.5 145.951 43.4362 143.5 46.5C139.5 51.5 137 52.8124 132 54C131.322 54.1609 130.666 54.3361 130.023 54.5079L130.022 54.5079C127.214 55.2577 124.646 55.9431 121.599 55.1008C123.22 56.6255 124.23 58.8064 124.23 61.2119V77.4453C124.23 81.4223 121.495 84.7149 117.872 85.5559C118.422 94.9267 111.878 103.324 102.611 104.819L93.5706 106.258C93.5082 106.426 93.4381 106.59 93.3605 106.75H117.938C122.908 106.75 126.938 110.779 126.938 115.75V129C126.938 133.971 122.908 138 117.938 138H32.422C27.4515 138 23.422 133.971 23.422 129V115.75C23.422 110.779 27.4515 106.75 32.422 106.75H65.7924L65.6192 105.561C65.47 104.629 65.5618 103.712 65.8475 102.873C51.7751 101.153 40.3445 93.7816 40.3445 93.7816C40.0864 93.5192 39.393 93.071 38.7612 92.6627L38.7611 92.6627C38.2325 92.321 37.7471 92.0073 37.596 91.8536C35.6531 89.9739 34.4685 87.4193 34.1841 84.7202C34.108 84.2812 33.9774 83.9252 33.7341 83.6818C32.4482 84.9797 30.7606 85.7641 28.923 85.7641H27.812C23.7721 85.7641 20.5401 82.0091 20.5401 77.4453V61.2697C20.5095 58.4719 21.7004 55.9916 23.5414 54.4698C18.1118 55.6655 12.0277 54.1523 8.00014 49.5C3.96475 44.8386 4.14709 38.0005 5.00006 34C6.38595 27.5 12.8498 23.475 20.0002 23.5C25.8119 23.5204 31.8549 25.246 34.4696 29.982C43.8743 18.6359 58.4343 13 72.9942 13C87.7731 13 102.634 18.8066 111.995 30.4977ZM118.281 48.5303C118.247 48.3254 118.212 48.1208 118.175 47.9165C118.246 47.8919 118.319 47.869 118.391 47.8479C118.569 47.7962 118.483 48.0773 118.281 48.5303Z" fill="white"/>
</g>
<path d="M113.818 62.38L111.057 58.6296C112.351 49.9648 109.547 41.2569 103.032 34.3596C95.74 26.6432 84.9104 22.2031 73.261 22.2031C61.6115 22.2031 50.7819 26.6001 43.4902 34.3596C36.8026 41.4294 33.9981 50.439 35.5945 59.3194L32.7037 62.3369C29.8992 51.7754 32.8332 40.9121 40.772 32.506C48.6677 24.0567 60.5329 19.2286 73.261 19.2286C85.9459 19.2286 97.811 24.0567 105.75 32.506C113.689 40.9552 116.623 51.8185 113.818 62.38Z" fill="#5F637C"/>
<path d="M109.978 37.7221L106.613 39.274C105.88 39.6188 104.93 39.4033 104.499 38.7567C97.4661 28.7555 85.3852 23.7118 73.2612 23.7118C61.1803 23.7118 49.0994 28.7124 42.0666 38.7567C41.6352 39.4033 40.686 39.5757 39.9093 39.274L36.544 37.7221C35.7673 37.3772 35.4653 36.515 35.9399 35.8684C44.3102 23.7981 58.7641 17.806 73.2181 17.806C87.672 17.806 102.212 23.7981 110.539 35.8684C111.057 36.515 110.755 37.3772 109.978 37.7221Z" fill="#5F637C"/>
<path d="M101.435 89.7538C105.06 87.3397 107.562 85.3999 107.951 81.477C107.994 81.1322 108.123 80.8304 108.382 80.5717C108.598 80.3131 108.943 80.1838 109.245 80.1407C113.301 80.0113 114.207 76.9506 114.983 73.9331C115.976 70.0102 114.164 67.3375 110.367 66.9064C109.202 66.7771 109.374 66.1304 109.374 65.3976C109.202 61.3885 109.892 57.3795 109.029 53.4135C108.641 51.646 109.159 50.7408 111.057 50.439C112.265 50.2235 113.344 49.3182 114.552 48.9733C115.156 48.8009 115.803 48.456 116.666 49.1027C122.275 52.9824 128.143 52.1633 134.054 49.7924C137.894 48.2405 140.31 45.1798 142.165 41.6449C142.64 39.6188 142.64 37.5065 142.208 35.4804C141.863 32.937 140.569 30.6092 138.541 29.0142C136.686 27.4623 134.485 26.8587 132.155 26.6001C129.826 26.3414 129.443 26.4447 127.711 26.557C126.441 26.6393 125.719 26.6729 124.475 26.945C120.47 27.8212 117.572 29.1004 115.415 32.2473C113.258 35.3511 112.351 39.1446 112.826 42.895C113.085 45.0074 112.697 45.3091 109.806 46.3006C108.166 46.861 107.649 45.9126 106.958 44.7487C100.271 32.8939 90.0018 26.945 76.4971 26.3414C74.5987 26.4277 72.7003 26.0828 70.8018 26.4708C57.2108 27.9365 45.9929 33.1957 39.521 45.9988C39.3052 46.4299 39.1327 46.9472 38.4855 47.0334C36.8459 47.1628 34.1277 44.4038 34.3435 42.7657C35.2064 35.6097 29.8994 28.7986 22.4352 27.5485C15.4886 26.3846 9.49135 30.6092 7.89495 37.8083C7.11832 41.3863 8.11068 44.4901 10.9583 46.861C15.5318 50.6977 24.6356 51.6029 30.2877 48.5422C31.9273 47.6801 33.1785 47.5507 34.6455 48.6285C35.2064 48.9733 35.7673 49.3182 36.3713 49.5768C37.3205 50.0941 37.6226 50.6546 37.2774 51.8616C36.3282 54.9223 35.7673 58.1554 35.681 61.3454C35.6378 62.5093 35.5084 63.6733 36.8459 64.363C37.7088 64.7941 37.5363 65.7856 37.45 66.5615C37.3205 67.553 36.4576 67.4237 35.7241 67.4237C34.2572 67.4668 33.2648 68.2428 32.6608 69.536C32.0999 70.6568 31.7547 71.8639 31.6684 73.114C31.5821 74.3641 31.7547 75.6143 32.1862 76.7782C32.9196 78.8474 34.0846 80.6148 36.6302 80.7011C37.45 80.7442 37.752 81.2184 37.8814 81.9512C38.1403 84.3653 39.219 86.65 40.9879 88.3312C41.29 88.633 43.059 89.6245 43.4904 90.0556C43.4904 90.0556 56.6931 98.4186 71.6647 98.5048C88.0171 98.7204 91.7708 93.8491 101.435 89.7538Z" fill="#231F20"/>
<path d="M104.974 72.5967C104.801 74.9245 104.628 77.2955 104.456 79.6234C104.197 82.7272 102.946 85.3568 100.055 86.7793C93.7124 89.9694 87.4131 93.3318 80.3803 94.7975C71.8806 96.5649 63.726 94.8837 55.8302 91.823C52.4649 90.5298 49.0995 89.2796 45.9498 87.5122C42.9296 85.7879 41.3763 83.2876 41.5489 79.7527C41.6784 77.4248 40.7723 74.2779 41.9804 72.9416C43.1453 71.6914 46.3813 72.2949 48.7112 72.0794C55.7871 71.3466 62.3884 69.3636 67.6954 64.3199C67.9543 64.0612 68.3426 63.8457 68.472 63.5439C70.241 59.7073 73.5201 59.4918 77.1012 59.8797C77.4464 59.9228 77.8347 59.9228 78.1799 59.8797C80.6823 59.5349 82.0199 60.2677 83.228 62.8111C85.601 67.8117 90.6059 69.4067 95.6109 70.6568C97.5956 71.1741 99.6666 71.2172 101.738 71.3034C103.075 71.3466 103.938 70.9586 104.499 69.7947C105.836 70.5706 104.974 71.6914 104.974 72.5967Z" fill="#F8E8D6"/>
<path d="M77.2305 55.6551C65.1065 55.8276 53.0256 56.2586 41.2036 59.2762C39.8229 59.6211 39.5209 59.1469 39.7366 57.8968C40.2975 54.5774 41.0742 51.3012 42.6274 48.2405C42.7569 47.8956 43.0157 47.637 43.2746 47.3783C43.5766 47.1628 43.8787 46.9903 44.267 46.9472C55.3986 44.6194 66.5734 43.6279 77.9208 44.4038C86.1617 44.9642 94.1869 46.6024 102.126 48.7578C103.377 49.0595 104.154 49.6631 104.456 50.9994C104.887 52.9824 105.232 55.0085 105.491 57.0777C105.621 58.5434 105.405 59.19 103.593 58.7589C95.0067 56.5604 86.1186 55.5258 77.2305 55.6551Z" fill="#C95255"/>
<path d="M46.4241 42.1622C55.5279 31.9024 66.8321 29.0573 79.3876 30.6954C88.4483 31.8593 96.2146 35.8253 101.435 44.1883C83.1845 39.1015 64.8043 38.8429 46.4241 42.1622Z" fill="#C95255"/>
<path d="M125.166 47.7232C124.13 47.8094 123.095 47.637 122.146 47.249C119.902 46.2575 118.392 44.0159 117.443 42.3347C115.501 38.9291 120.161 31.8593 124.174 31.3852C126.805 31.0403 129.394 30.0057 132.199 30.8247C135.262 31.73 137.506 33.4544 138.239 36.5582C138.973 39.5757 137.98 42.1622 135.521 44.1883C132.975 46.3006 129.049 47.7232 125.166 47.7232Z" fill="#C95255"/>
<path d="M22.3488 46.7748C20.3641 46.861 18.3794 46.5162 16.5241 45.7833C10.6563 43.5417 9.62077 37.679 14.2805 33.4112C16.9987 30.9541 21.1408 30.3937 24.7219 32.0749C28.4756 33.8423 31.1506 37.8083 30.978 41.3863C30.8486 43.8435 29.2522 45.654 26.4477 46.3006C25.067 46.6455 23.6001 47.0335 22.3488 46.7748Z" fill="#C95255"/>
<path d="M65.1497 60.4833C64.7182 62.0783 63.3375 62.6818 62.2157 63.3715C56.3047 67.2513 49.6602 68.2859 42.7137 68.1996C40.7722 68.1565 41.3762 66.6046 41.0742 65.6563C40.729 64.6217 40.9016 63.6733 42.3254 63.3284C47.2441 62.1645 52.2059 61.3023 57.2108 60.8281C59.7996 60.5264 62.3883 59.9229 65.1497 60.4833Z" fill="#6D6864"/>
<path d="M104.973 72.5967C104.628 71.6914 105.448 70.6137 104.456 69.8377C104.456 67.8979 103.463 67.2513 101.522 67.2081C97.1638 67.0357 92.9355 66.346 89.225 63.7595C88.0169 62.9404 86.9382 61.9489 86.4636 60.2246C92.7198 60.8281 98.6739 61.7334 104.499 63.3284C105.103 63.5008 105.448 63.7595 105.405 64.363C105.232 67.1219 105.793 69.924 104.973 72.5967Z" fill="#6D6864"/>
<path d="M36.242 70.9155C38.1404 72.6829 37.1912 74.709 37.3638 76.5627C37.3638 76.6489 37.3638 76.692 37.3207 76.7782C37.2775 76.8645 37.2344 76.9076 37.1912 76.9507C37.1481 76.9938 37.0618 77.0369 36.9755 77.0369C36.8892 77.0369 36.8461 77.0369 36.7598 76.9938C36.3715 76.8214 35.94 76.5627 35.7674 76.2178C34.9908 74.4504 35.4654 72.7692 36.242 70.9155Z" fill="#F2E3D1"/>
<path d="M108.857 76.4334C109.029 74.7952 109.116 73.5451 109.288 72.3381C109.374 71.6483 109.849 70.9155 110.453 70.9586C111.316 71.0017 111.187 71.9501 111.057 72.5536C110.885 73.9331 110.885 75.485 108.857 76.4334Z" fill="#EADBCA"/>
<path d="M98.1566 76.9507C98.9763 76.9507 99.6667 76.9507 100.314 76.9507C101.479 76.9938 102.212 77.7266 102.557 78.7181C102.903 79.7096 102.471 80.5718 101.651 81.2184C99.4509 82.9858 96.9053 83.46 94.2303 82.9427C92.5476 82.5979 91.771 81.2615 91.5984 79.5803C91.3826 77.6404 92.979 77.6835 94.1871 77.3386C95.4815 76.9507 96.819 76.8213 98.1566 76.9507Z" fill="#F6BABB"/>
<path d="M51.7314 84.8826C50.3939 84.9688 49.0563 84.624 47.8914 83.9773C45.993 82.8996 46.0361 80.658 47.9777 79.5803C50.2213 78.3732 52.508 78.6319 54.7516 79.5372C55.744 79.9251 55.8734 80.7442 55.8734 81.6926C55.9165 82.253 55.7871 82.8134 55.4851 83.2876C55.1831 83.7618 54.7516 84.1067 54.2339 84.3222C53.3278 84.7102 52.2923 84.7964 51.7314 84.8826Z" fill="#F6BABB"/>
<path d="M73.6064 86.9949C72.7867 86.9949 71.4923 86.9087 70.1548 87.2105C68.2995 87.6415 66.5305 87.3829 65.193 85.7448C64.7184 85.1413 64.8047 84.7102 65.2361 84.1929C65.6676 83.7187 66.1853 83.6756 66.5736 84.1067C67.6954 85.3568 68.9467 85.1413 70.3705 84.7102C71.4923 84.3222 72.6572 84.6671 73.8222 84.9257C75.3754 85.2706 77.015 85.6586 78.0936 83.848C78.5251 83.1583 79.2586 83.1583 79.8195 83.5894C80.5098 84.1067 80.1215 84.7102 79.7763 85.3137C78.3525 87.5122 76.1952 87.2105 73.6064 86.9949Z" fill="#252122"/>
<path d="M86.2478 75.9592C85.2986 75.6143 83.3138 76.1747 83.2707 74.0624C83.2276 71.6914 85.2554 71.907 86.7655 71.8208C88.2325 71.7345 89.7426 72.1225 89.6132 73.9762C89.4837 75.7005 88.103 76.0885 86.2478 75.9592Z" fill="#252122"/>
<path d="M56.3478 72.2087C57.6853 72.1225 58.9365 72.4674 58.9365 74.0624C58.9365 75.5712 57.599 76.1316 56.3478 76.0454C55.0966 75.9591 53.457 75.8729 53.457 74.1055C53.457 72.3381 54.8377 72.0794 56.3478 72.2087Z" fill="#292525"/>
<path d="M72.7863 54.1464C72.7863 54.017 72.7431 53.8446 72.8294 53.7584C75.1162 51.4736 76.1085 49.2751 73.002 46.7748C72.1822 46.1282 72.6137 45.5247 73.7355 45.5247C76.1517 45.5247 76.54 47.8525 77.7912 49.1458C78.6973 50.0942 77.7481 50.8701 77.2303 51.6461C76.1085 53.0687 75.2887 55.0947 72.7863 54.1464Z" fill="#DFBE68"/>
<path d="M65.7966 54.2325C65.6672 53.9739 65.4946 53.7583 65.322 53.4997C62.345 49.9648 62.3881 49.3182 65.624 45.9988C66.487 45.0936 67.5225 45.5677 68.4717 45.4384C69.2052 46.5161 68.3422 47.2921 67.7382 47.8525C66.3575 49.232 66.487 50.4821 67.6951 51.8184C67.8676 52.034 68.0402 52.2926 68.1697 52.5513C68.9894 54.017 68.7737 54.4049 67.0047 54.4049C66.6595 54.4481 66.1849 54.4912 65.7966 54.2325Z" fill="#DFBE68"/>
<path d="M69.5077 45.4816C71.4061 45.2229 72.2259 45.9558 72.0101 47.9387C71.8807 49.1889 71.8807 50.439 72.0101 51.6892C72.2259 53.7584 71.5787 54.7499 69.3351 54.2757C68.2996 51.3012 68.2133 48.3698 69.5077 45.4816Z" fill="#DEBD68"/>
<path d="M69.5077 45.4816C69.4645 48.413 69.4214 51.3443 69.3351 54.2326C68.1701 54.7499 66.9621 55.0085 65.7971 54.2326C66.2286 54.2326 66.66 54.2326 67.1346 54.2757C68.2564 54.3188 68.7742 54.017 67.8681 52.9393C67.7818 52.81 67.6955 52.7238 67.5661 52.5945C65.6677 50.7408 65.4088 48.9734 67.6092 47.1197C68.0407 46.7317 68.6016 46.2144 68.4722 45.4385L69.5077 45.4816Z" fill="#CA5756"/>
<path d="M53.1552 69.0619C62.3022 67.8117 61.5687 62.2939 62.9925 63.7596C64.8046 65.6132 67.6091 67.7686 70.2842 68.0273C70.2842 68.0273 67.3934 62.7681 69.3781 62.8974C69.3781 62.8974 72.4415 65.3115 75.85 66.2167C85.601 68.9326 95.5677 70.6569 105.621 71.3466L104.801 64.0613C104.801 63.6302 104.715 63.2423 104.456 62.8974C104.24 62.5525 103.895 62.2939 103.507 62.1214C99.0626 60.6126 83.9615 56 67.868 57.4657C52.508 58.8452 43.2748 60.8713 40.2545 61.6041C39.9525 61.6904 39.6505 61.9059 39.4779 62.2076C39.3053 62.5094 39.219 62.8112 39.3053 63.156L39.9094 69.924C39.9525 69.9672 43.1022 70.4413 53.1552 69.0619Z" fill="#6E6965"/>
<path d="M107.217 72.8985L105.534 72.7692C95.3519 72.0794 85.2989 70.312 75.5047 67.5962C73.7789 67.0789 72.1393 66.346 70.6292 65.3976C70.8881 66.0874 71.1901 66.734 71.5353 67.3375L72.8297 69.7085L70.1546 69.4067C67.1344 69.0619 64.2436 66.8633 62.7335 65.3976C61.6549 66.9495 59.4544 69.6223 53.3277 70.4413C43.1884 71.8208 39.8661 71.3466 39.7367 71.3035L38.658 71.1311L37.9677 63.3284C37.8814 62.6818 38.0108 61.9921 38.3992 61.4317C38.7875 60.8713 39.3484 60.4833 39.9956 60.3109C43.2315 59.5349 52.4647 57.5088 67.7816 56.1293C84.1771 54.6637 99.6665 59.3625 103.981 60.8282C104.628 61.0868 105.189 61.5179 105.578 62.0783C105.966 62.6387 106.182 63.3284 106.182 64.0182L107.217 72.8985ZM69.3348 61.5179H69.4643L69.8958 61.561L70.2409 61.8197C70.2841 61.8628 73.1317 64.0613 76.1951 64.9235C85.2989 67.4668 94.6184 69.105 104.024 69.8809L103.377 64.1906V64.1044C103.377 63.9751 103.377 63.8457 103.291 63.7595C103.248 63.6733 103.161 63.5871 103.032 63.5009C98.8036 62.0783 83.8319 57.5088 67.9973 58.9314C52.9825 60.3109 44.0081 62.2076 40.729 63.0267V63.1129L41.2036 68.6739C42.8 68.717 46.338 68.6308 52.8962 67.7255C58.2032 66.9927 59.7133 64.7941 60.5331 63.5871C60.9645 62.9836 61.4391 62.2507 62.3452 62.1645C62.6472 62.1645 62.9492 62.2076 63.2081 62.2938C63.467 62.4232 63.7259 62.5956 63.9416 62.8111C65.0202 63.932 66.2715 64.9235 67.609 65.6994C67.1344 64.2337 67.0912 63.156 67.5659 62.4232C67.7384 62.1214 67.9973 61.9059 68.2993 61.7334C68.6445 61.561 68.9897 61.5179 69.3348 61.5179Z" fill="#231F20"/>
<path d="M28.5618 63.0697C28.5618 61.4747 29.8562 60.2246 31.4094 60.2246H32.3586C33.955 60.2246 35.2063 61.5178 35.2063 63.0697V75.1832C35.2063 76.7782 33.9119 78.0283 32.3586 78.0283H31.4094C29.813 78.0283 28.5618 76.7351 28.5618 75.1832V63.0697Z" fill="#C4C4C4"/>
<path fill-rule="evenodd" clip-rule="evenodd" d="M31.4525 56.8191H32.4017C35.8534 56.8191 38.6148 59.6211 38.6148 63.0267V75.1401C38.6148 78.5888 35.8103 81.3477 32.4017 81.3477H31.4525C28.0009 81.3477 25.2395 78.5457 25.2395 75.1401V63.0698C25.1964 59.6211 28.0009 56.8191 31.4525 56.8191ZM31.4525 60.1815C29.8561 60.1815 28.6049 61.4748 28.6049 63.0267V75.1401C28.6049 76.7351 29.8993 77.9853 31.4525 77.9853H32.4017C33.9981 77.9853 35.2494 76.692 35.2494 75.1401V63.0698C35.2494 61.4748 33.955 60.2246 32.4017 60.2246H31.4525V60.1815Z" fill="#231F20"/>
<path d="M109.849 63.0697C109.849 61.4747 111.143 60.2246 112.697 60.2246H113.646C115.242 60.2246 116.493 61.5178 116.493 63.0697V75.1832C116.493 76.7782 115.199 78.0283 113.646 78.0283H112.697C111.1 78.0283 109.849 76.7351 109.849 75.1832V63.0697Z" fill="#C4C4C4"/>
<path fill-rule="evenodd" clip-rule="evenodd" d="M112.696 56.8191H113.646C117.097 56.8191 119.859 59.6211 119.859 63.0267V75.1401C119.859 78.5888 117.054 81.3477 113.646 81.3477H112.696C109.245 81.3477 106.483 78.5457 106.483 75.1401V63.0698C106.483 59.6211 109.245 56.8191 112.696 56.8191ZM112.696 60.1815C111.1 60.1815 109.849 61.4748 109.849 63.0267V75.1401C109.849 76.7351 111.143 77.9853 112.696 77.9853H113.646C115.242 77.9853 116.493 76.692 116.493 75.1401V63.0698C116.493 61.4748 115.199 60.2246 113.646 60.2246H112.696V60.1815Z" fill="#231F20"/>
<path d="M100.184 99.9274L83.9183 102.471L83.3574 98.9359L99.6235 96.3925C106.656 95.2717 111.489 88.6761 110.367 81.6495L110.022 79.4509L113.56 78.8905L113.905 81.0891C115.329 90.0987 109.159 98.5048 100.184 99.9274Z" fill="#231F20"/>
<path d="M90.4763 100.574C90.8646 102.988 89.1819 105.273 86.7658 105.661L73.5631 107.73C71.1469 108.118 68.8602 106.437 68.4719 104.023L68.213 102.255C67.8247 99.8412 69.5074 97.5565 71.9235 97.1685L85.1262 95.0993C87.5424 94.7113 89.8291 96.3925 90.2174 98.8066L90.4763 100.574Z" fill="#FFCC00"/>
<path d="M41.8902 121.98C41.2742 121.54 38.7442 120 37.8862 119.538C37.9302 119.406 37.9742 119.296 37.9962 119.164H42.0662V117.822H38.2382C38.2822 117.536 38.2822 117.294 38.2822 117.03V115.754H41.5162V114.434H35.5322C35.7522 113.906 35.9722 113.378 36.1262 112.828L34.6522 112.542C34.1462 114.192 33.2882 115.842 32.1662 116.92C32.5402 117.096 33.1782 117.492 33.4862 117.712C33.9702 117.184 34.4542 116.502 34.8722 115.754H36.7202V117.03C36.7202 117.294 36.7202 117.536 36.6762 117.822H32.1662V119.164H36.3902C35.9282 120.506 34.7622 121.958 31.9682 123.058C32.3422 123.3 32.8042 123.828 33.0022 124.18C35.3122 123.124 36.6322 121.892 37.3802 120.638C38.4802 121.386 40.1082 122.552 40.7462 123.102L41.8902 121.98ZM47.1262 125.016V127.084H36.9622V125.016H47.1262ZM36.9622 130.538V128.36H47.1262V130.538H36.9622ZM35.3562 132.694H36.9622V131.88H47.1262V132.65H48.7762V123.674H35.3562V132.694ZM49.0402 120.506H44.5082V115.842H49.0402V120.506ZM42.9682 114.368V122.002H50.6462V114.368H42.9682ZM71.7002 122.068C72.4922 122.068 73.2842 122.024 73.6582 121.936C73.5922 121.562 73.5262 120.946 73.4822 120.506C73.0642 120.616 72.1842 120.638 71.6562 120.638H67.6082C66.9042 120.638 66.7282 120.374 66.7282 119.582V117.096H72.6462V115.644H66.7282V112.608H65.1222V119.538C65.1222 121.386 65.6502 122.068 67.5862 122.068H71.7002ZM57.1802 123.85C58.3682 124.576 59.8862 125.588 60.6562 126.226L61.5362 125.324C60.7442 124.708 59.2042 123.718 58.0382 123.036L57.1802 123.85ZM57.0042 121.782H61.5582V126.226C59.7982 127.106 58.0602 127.986 56.8282 128.536C56.9602 127.568 57.0042 126.6 57.0042 125.764V121.782ZM63.1202 120.374H55.4862V125.742C55.4862 127.612 55.3542 129.922 54.1002 131.594C54.4302 131.814 55.0022 132.386 55.2222 132.738C56.1462 131.594 56.5862 130.076 56.8062 128.624L57.3782 129.944C58.6102 129.24 60.1062 128.382 61.5582 127.524V130.912C61.5582 131.198 61.4922 131.286 61.1842 131.286C60.8982 131.286 59.9962 131.308 58.9402 131.264C59.1602 131.66 59.3802 132.21 59.4682 132.628C60.8322 132.628 61.8002 132.606 62.3502 132.364C62.9442 132.122 63.1202 131.748 63.1202 130.912V120.374ZM60.3922 114.698C60.8542 115.38 61.3162 116.128 61.7562 116.876L57.2462 117.184C58.3242 116.04 59.3802 114.566 60.3042 113.136L58.6762 112.586C57.7522 114.368 56.3002 116.15 55.8822 116.612C55.4422 117.074 55.0682 117.404 54.7162 117.47C54.9142 117.866 55.1562 118.68 55.2442 119.01C55.7502 118.768 56.5202 118.68 62.4822 118.196C62.7682 118.746 63.0102 119.252 63.1862 119.692L64.5942 119.054C64.0442 117.756 62.7902 115.688 61.7122 114.192L60.3922 114.698ZM67.9602 131.044C66.9262 131.044 66.7282 130.912 66.7282 130.186V126.886H72.8882V125.412H66.7282V122.794H65.1222V130.186C65.1222 131.99 65.6722 132.496 67.8062 132.496H71.7002C73.5262 132.496 74.0102 131.748 74.2082 128.888C73.7682 128.778 73.1302 128.536 72.7562 128.272C72.6462 130.626 72.4922 131.044 71.5682 131.044H67.9602ZM78.3662 116.084H93.5682V118.702H95.2182V114.566H87.3862C87.0342 113.884 86.5502 113.048 86.1102 112.41L84.5262 112.806C84.8562 113.334 85.2082 113.994 85.5162 114.566H76.7602V118.702H78.3662V116.084ZM81.1162 125.962C82.8322 125.412 84.4822 124.708 86.0222 123.872C87.6062 124.73 89.3442 125.412 91.2142 125.962H81.1162ZM81.7102 130.538V127.348H90.4002V130.538H81.7102ZM82.8542 119.384H89.4982C88.5962 120.396 87.4082 121.298 86.0442 122.134C84.7462 121.342 83.6242 120.462 82.7662 119.472L82.8542 119.384ZM90.9062 118.02L90.6202 118.086H84.0862C84.4382 117.646 84.7902 117.228 85.0982 116.788L83.3382 116.48C82.2382 118.152 80.1042 120.066 77.0902 121.408C77.4642 121.672 77.9482 122.2 78.1902 122.574C79.4882 121.936 80.6322 121.21 81.6222 120.44C82.4362 121.364 83.4042 122.2 84.5042 122.97C81.8642 124.268 78.7842 125.214 75.8582 125.72C76.1442 126.072 76.4962 126.732 76.6502 127.15C77.7942 126.908 78.9602 126.644 80.1262 126.292V132.672H81.7102V131.946H90.4002V132.65H92.0502V126.182C93.0402 126.446 94.0742 126.666 95.1082 126.798C95.3502 126.336 95.7682 125.632 96.1422 125.258C93.0182 124.862 90.0702 124.07 87.6282 122.926C89.4102 121.76 90.9282 120.352 92.0062 118.724L90.9062 118.02ZM100.894 123.74C100.916 122.86 100.938 122.002 100.938 121.254V120.044H104.26V123.74H100.894ZM104.26 114.918V118.526H100.938V114.918H104.26ZM105.778 113.4H99.4422V121.254C99.4422 124.488 99.3322 128.844 97.8142 131.924C98.2102 132.078 98.8702 132.452 99.1562 132.716C100.168 130.648 100.608 127.898 100.806 125.302H104.26V130.714C104.26 131.022 104.15 131.11 103.842 131.132C103.578 131.154 102.654 131.154 101.642 131.132C101.862 131.55 102.082 132.276 102.126 132.694C103.6 132.694 104.48 132.672 105.03 132.386C105.602 132.1 105.778 131.616 105.778 130.736V113.4ZM115.832 122.398C115.326 124.268 114.578 125.918 113.632 127.326C112.62 125.874 111.828 124.202 111.234 122.398H115.832ZM116.668 120.836L116.382 120.88H109.254V114.984H115.414V117.668C115.414 117.932 115.326 118.02 114.974 118.02C114.644 118.042 113.5 118.042 112.158 118.02C112.378 118.416 112.62 118.966 112.686 119.406C114.336 119.406 115.436 119.406 116.14 119.186C116.8 118.944 116.998 118.526 116.998 117.69V113.466H107.714V132.694H109.254V122.398H109.804C110.53 124.664 111.498 126.776 112.73 128.558C111.718 129.746 110.574 130.692 109.364 131.352C109.694 131.638 110.112 132.188 110.332 132.562C111.542 131.858 112.664 130.912 113.654 129.746C114.71 130.978 115.898 131.968 117.218 132.716C117.46 132.32 117.9 131.77 118.274 131.462C116.888 130.78 115.656 129.79 114.6 128.58C115.986 126.622 117.042 124.158 117.614 121.166L116.668 120.836Z" fill="black"/>
</g>
<defs>
<filter id="filter0_d" x="-2.49805" y="6" width="155.498" height="139" filterUnits="userSpaceOnUse" color-interpolation-filters="sRGB">
<feFlood flood-opacity="0" result="BackgroundImageFix"/>
<feColorMatrix in="SourceAlpha" type="matrix" values="0 0 0 0 0 0 0 0 0 0 0 0 0 0 0 0 0 0 127 0"/>
<feOffset/>
<feGaussianBlur stdDeviation="3.5"/>
<feColorMatrix type="matrix" values="0 0 0 0 0 0 0 0 0 0 0 0 0 0 0 0 0 0 0.25 0"/>
<feBlend mode="normal" in2="BackgroundImageFix" result="effect1_dropShadow"/>
<feBlend mode="normal" in="SourceGraphic" in2="effect1_dropShadow" result="shape"/>
</filter>
<clipPath id="clip0">
<rect width="150" height="150" fill="white"/>
</clipPath>
</defs>
</svg>
